<svg xmlns="http://www.w3.org/2000/svg" width="57" height="57" fill="none"><g clip-path="url(#a)"><path fill="#000" d="M53.558 25.963q-.578-.06-1.16-.06c-1.265.018-2.532.033-3.814.048-3.949.046-8.033.094-12.05.193-1.509.073-3.01.258-4.493.554-1.133.199-1.775.972-1.673 2.018.09.93.767 1.53 1.81 1.608 1.312.096 2.665.082 3.83.06q3.843-.073 7.685-.16l.492-.01q3.392-.075 6.785-.142c.413-.009.828.018 1.353.05l.073.005.41.025c-.347 8.228-3.51 14.08-9.661 17.887-6.59 4.078-13.766 5.554-21.328 4.388-5.006-.772-9.014-3.126-11.913-6.996-3.925-5.24-6-10.927-6.165-16.905C3.466 18.712 8.133 11.104 16.88 7.1c3.379-1.545 6.245-2.42 9.02-2.752 7.747-.928 14.015.88 19.16 5.528l.17.16q.258.263.564.469c.843.533 1.713.467 2.386-.183.725-.697.81-1.648.215-2.422a9.4 9.4 0 0 0-1.848-1.78A27.7 27.7 0 0 0 31.641.608C23.948.088 16.72 2.222 10.155 6.957c-5.221 3.766-8.451 9.061-9.597 15.74C-.577 29.31.521 35.969 3.822 42.49c1.666 3.291 3.522 5.874 5.676 7.893 4.172 3.915 9.415 5.892 16.027 6.043q.385.01.77.01c4.791 0 9.576-1.02 14.628-3.118 5.088-2.114 9.038-5.278 11.74-9.407 2.639-4.032 4.025-8.884 4.121-14.421.045-2.548-.649-3.307-3.226-3.528"/></g><defs><clipPath id="a"><path fill="#fff" d="M0 .5h57v56H0z"/></clipPath></defs></svg>