<svg width="57" height="57" viewBox="0 0 57 57" fill="none" xmlns="http://www.w3.org/2000/svg">
<g clip-path="url(#clip0_1037_2275)">
<path d="M39.7269 19.2465C36.9736 16.5534 33.4328 16.2628 30.4864 18.4883C29.3281 19.363 28.2143 20.591 27.0813 22.2414C25.6385 24.345 25.2662 26.9093 24.938 29.1712C24.3567 33.173 24.802 37.1465 25.2323 40.9878C25.2961 41.5555 25.4426 42.8611 26.7127 42.8609C26.7533 42.8609 26.7954 42.8597 26.8386 42.8569C28.1001 42.7757 28.1047 41.6922 28.1078 40.9749C28.1078 40.906 28.1078 40.8386 28.1096 40.7732C28.1255 39.913 28.1047 39.0395 28.0844 38.1951C28.0557 36.9884 28.0255 35.7408 28.1045 34.5257C28.251 31.9769 28.5488 29.4391 28.9964 26.9257C29.3856 24.8235 30.552 22.9466 32.2618 21.6715C34.079 20.2836 35.7011 20.4475 37.2229 22.1713C38.3748 23.4656 39.1429 25.0579 39.4403 26.7679C39.7776 28.7549 40.01 30.797 40.2345 32.7726C40.3221 33.5424 40.4097 34.3127 40.5034 35.0814L40.4632 35.0868C40.4083 35.0943 40.3576 35.1203 40.3198 35.1609C40.2819 35.2015 40.259 35.2538 40.2553 35.3092C40.2315 35.6577 40.207 36.0063 40.1817 36.3549C40.1217 37.1939 40.0595 38.0618 40.0159 38.9173L40.0105 39.021C39.9593 39.6409 39.9656 40.2642 40.0287 40.883C40.1756 41.9777 40.9428 42.7647 41.9377 42.8412C42.8955 42.9146 43.7858 42.2632 44.1523 41.2208C44.2355 40.9738 44.2871 40.7171 44.3063 40.457C44.6714 36.288 44.8796 30.8012 43.234 25.3316C42.4729 22.8014 41.3255 20.8103 39.7269 19.2465Z" fill="black"/>
<path d="M16.9138 40.4661C16.929 41.2141 17.1145 41.9488 17.4562 42.614C17.6707 43.0299 18.3834 43.246 18.8238 43.246C18.838 43.246 18.8518 43.246 18.8656 43.246C19.2791 43.2326 19.79 42.733 19.9026 42.3485C20.0756 41.7114 20.1458 41.0509 20.1105 40.3915C19.9703 36.5329 19.8089 32.6104 19.6533 28.8172L19.3433 21.2308C19.32 20.6531 19.2758 19.5773 17.973 19.4694C17.9302 19.4663 17.8873 19.4744 17.8485 19.4928C16.8477 19.98 16.8793 20.8965 16.9047 21.633C16.9092 21.759 16.9136 21.8842 16.9131 22.0064C16.8949 27.0638 16.8776 33.7326 16.9138 40.4661Z" fill="black"/>
<path d="M18.0427 11.9956C17.8845 11.8734 17.721 11.7472 17.5774 11.6158C17.544 11.5851 17.5026 11.5645 17.4581 11.5565C17.4135 11.5485 17.3676 11.5534 17.3257 11.5706C15.7433 12.2135 15.6424 13.3199 15.8363 14.1348C15.9316 14.4607 16.0949 14.7625 16.3152 15.0203C16.5354 15.278 16.8078 15.4858 17.1141 15.6299C17.2052 15.6632 17.3017 15.6792 17.3986 15.6769C17.9011 15.6769 18.5791 15.3264 18.7991 14.9687C18.9667 14.6754 19.0704 14.3497 19.1036 14.0133C19.1368 13.6768 19.0988 13.3371 18.9918 13.0165C18.8196 12.5964 18.4246 12.2914 18.0427 11.9956Z" fill="black"/>
<path d="M55.7768 9.51503C54.9459 2.6633 49.2036 -0.0870065 43.8837 0.229425C40.7265 0.415439 37.5997 0.514649 33.8762 0.606131C30.5027 0.689168 27.0432 0.76054 23.9911 0.823404C19.6115 0.913947 15.0826 1.00774 10.5859 1.13253C5.42318 1.27609 1.26032 4.61542 0.459755 9.25353C0.138312 11.1148 0.128955 12.9932 0.148812 15.0793C0.20698 21.1712 0.295751 27.3265 0.382419 33.2792L0.391999 33.9238C0.426417 36.3185 0.46003 38.7134 0.492892 41.1083C0.498498 41.5118 0.512512 41.9162 0.526996 42.3206L0.528194 42.353C0.586935 43.355 0.577032 44.3599 0.498538 45.3606C0.220779 48.033 1.23954 50.8823 3.22403 52.9822C5.42998 55.3164 8.55629 56.503 12.0295 56.3252C15.8196 56.1282 19.6856 56.166 23.4242 56.2021L23.6949 56.2047C28.1316 56.2474 32.6435 56.3607 37.0126 56.4709L39.2155 56.526C39.5865 56.5483 39.9546 56.6041 40.3153 56.6935C40.5043 56.7339 40.6938 56.774 40.8823 56.8066C40.9094 56.8113 40.9367 56.8136 40.9643 56.8136H43.3548C43.3781 56.8136 43.4017 56.8117 43.4249 56.8084C43.9026 56.7381 44.3827 56.6745 44.8611 56.6116L44.8971 56.607C45.9695 56.4662 47.0789 56.321 48.1601 56.0853C52.8238 55.068 56.775 50.2112 56.7881 45.48C56.7914 44.3649 56.7953 43.2497 56.7998 42.1346L56.8019 41.5749C56.8252 35.463 56.8509 29.1428 56.7201 22.9196C56.6243 18.3932 56.3071 13.8831 55.7768 9.51503ZM53.1838 45.15C53.1983 48.8043 50.0238 52.2257 45.9569 52.939C42.8409 53.4856 39.6556 53.2998 36.5748 53.1208C35.4313 53.0542 34.2488 52.9852 33.0738 52.954C31.7396 52.9188 30.3812 52.8496 29.0599 52.7823L28.9431 52.7765C28.3745 52.7476 27.8055 52.7188 27.2411 52.693H27.2149C25.7773 52.693 24.3394 52.6911 22.9016 52.6876C21.2332 52.6847 19.5388 52.6819 17.8356 52.6819C15.5965 52.6819 13.7557 52.6866 12.0422 52.6969H11.9667C9.4517 52.6969 7.37706 51.9477 5.96702 50.53C4.5009 49.056 3.73584 46.8543 3.75523 44.1624C3.80055 37.8331 3.77319 31.4254 3.74656 25.2283C3.73161 21.6899 3.71619 18.0312 3.71432 14.4163C3.67924 12.3344 4.14822 10.2751 5.08095 8.41537C6.13872 6.37275 8.0281 5.28882 11.0267 5.00428C15.2344 4.60552 18.6297 4.38829 21.7116 4.32096C30.6092 4.12533 37.4567 4.05614 43.9133 4.09625C48.6231 4.12557 51.342 6.35023 52.2297 10.8976C53.2109 15.9384 53.1969 21.1196 53.1819 26.1328L53.1807 26.5579C53.1595 33.6688 53.1607 39.5766 53.1831 45.15H53.1838Z" fill="black"/>
</g>
<defs>
<clipPath id="clip0_1037_2275">
<rect width="57" height="57" fill="white"/>
</clipPath>
</defs>
</svg>
