<svg xmlns="http://www.w3.org/2000/svg" width="57" height="56" fill="none"><g fill="#000" clip-path="url(#a)"><path d="M39.727 18.908c-2.753-2.646-6.294-2.931-9.24-.745-1.159.86-2.273 2.066-3.406 3.688-1.442 2.066-1.815 4.586-2.143 6.808-.581 3.931-.136 7.835.294 11.61.064.557.21 1.84 1.48 1.84q.061 0 .127-.005c1.261-.08 1.266-1.144 1.269-1.849q0-.1.002-.198a59 59 0 0 0-.026-2.533c-.028-1.185-.058-2.41.02-3.605.147-2.504.445-4.997.892-7.466a8.3 8.3 0 0 1 3.266-5.162c1.817-1.364 3.44-1.203 4.96.49a9.1 9.1 0 0 1 2.218 4.517c.338 1.952.57 3.958.794 5.9q.13 1.133.27 2.267l-.04.006a.24.24 0 0 0-.144.073.24.24 0 0 0-.065.145l-.073 1.028c-.06.824-.123 1.677-.166 2.517l-.005.102a10 10 0 0 0 .018 1.83c.147 1.075.914 1.848 1.909 1.923.957.072 1.848-.568 2.214-1.592q.126-.366.154-.75c.365-4.096.574-9.487-1.072-14.86-.761-2.486-1.909-4.442-3.507-5.979M16.914 39.756c.015.735.2 1.457.542 2.11.215.409.927.621 1.368.621h.042c.413-.013.924-.504 1.037-.882a6 6 0 0 0 .207-1.922c-.14-3.791-.301-7.645-.457-11.372l-.31-7.453c-.023-.567-.067-1.624-1.37-1.73a.25.25 0 0 0-.124.023c-1.001.478-.97 1.379-.944 2.102q.008.187.008.367c-.018 4.969-.035 11.52 0 18.136M18.043 11.785c-.159-.12-.322-.244-.466-.373a.24.24 0 0 0-.251-.045c-1.583.632-1.684 1.719-1.49 2.52a2.385 2.385 0 0 0 1.278 1.469.8.8 0 0 0 .285.045c.502 0 1.18-.344 1.4-.695a2.33 2.33 0 0 0 .193-1.918c-.172-.413-.567-.713-.95-1.003"/><path d="M55.777 9.348C54.946 2.616 49.204-.086 43.884.225c-3.157.183-6.284.28-10.008.37-3.373.082-6.833.152-9.885.214-4.38.089-8.908.18-13.405.303C5.423 1.253 1.26 4.534.46 9.091.138 10.92.129 12.765.149 14.814.207 20.8.296 26.847.382 32.695l.01.633q.051 3.53.1 7.059.01.595.035 1.19l.001.033q.089 1.478-.03 2.955c-.277 2.625.742 5.424 2.726 7.487 2.206 2.294 5.332 3.46 8.805 3.285 3.79-.194 7.657-.157 11.395-.121l.27.002c4.438.042 8.95.154 13.319.262l2.203.054q.557.033 1.1.165.283.062.566.11a1 1 0 0 0 .082.008h2.39a1 1 0 0 0 .07-.005q.72-.103 1.437-.194l.036-.005c1.072-.138 2.182-.28 3.263-.512 4.664-1 8.615-5.771 8.628-10.42l.012-3.286.002-.55c.023-6.004.049-12.214-.082-18.328a131 131 0 0 0-.943-13.17m-2.593 35.01c.014 3.59-3.16 6.951-7.227 7.652-3.116.537-6.301.354-9.382.178-1.144-.065-2.326-.133-3.501-.163-1.334-.035-2.693-.103-4.014-.169l-.117-.006q-.855-.042-1.702-.082h-.026q-2.157 0-4.313-.005a3015 3015 0 0 0-5.066-.006c-2.24 0-4.08.005-5.794.015h-.075c-2.515 0-4.59-.736-6-2.129-1.466-1.448-2.231-3.611-2.212-6.256.046-6.218.018-12.513-.008-18.602-.015-3.476-.03-7.07-.033-10.622a12.5 12.5 0 0 1 1.367-5.896c1.058-2.006 2.947-3.071 5.946-3.35 4.207-.393 7.603-.606 10.685-.672 8.897-.192 15.745-.26 22.201-.22 4.71.028 7.429 2.214 8.317 6.681.98 4.953.967 10.043.952 14.968l-.001.418c-.021 6.986-.02 12.79.002 18.266"/></g><defs><clipPath id="a"><path fill="#fff" d="M0 0h57v56H0z"/></clipPath></defs></svg>