<svg width="55" height="55" viewBox="0 0 55 55" fill="none" xmlns="http://www.w3.org/2000/svg">
<g clip-path="url(#clip0_1037_2284)">
<path d="M2.46074 53.9096C3.22241 53.8091 3.97531 53.6509 4.71284 53.4363C4.88174 53.3918 5.05025 53.3473 5.21876 53.3044C7.0673 52.8325 9.04941 52.321 11.0204 51.7754C12.1286 51.4688 12.8928 51.5859 13.6608 52.1799C14.1855 52.5863 14.8432 52.8142 15.479 53.035C15.6186 53.0834 15.7575 53.1322 15.894 53.1811C19.9575 54.6611 24.1597 54.8343 28.1002 54.7966C28.5683 54.8257 29.0381 54.8403 29.5093 54.8401C34.2009 54.8401 39.0095 53.4064 43.5033 50.6556C48.5949 47.5387 52.0338 43.0197 53.7243 37.2241C55.0997 32.5079 55.1709 27.3115 53.942 21.3381C52.443 14.0501 48.4599 8.4277 42.1035 4.62435C39.0491 2.80099 35.73 1.45945 32.264 0.647274C29.8939 0.105867 27.4466 -0.012631 25.0352 0.297395C22.0923 0.639055 19.3524 1.514 16.144 2.72282C9.59882 5.18869 4.9892 9.96827 2.05119 17.335C-0.425757 23.5464 -0.318704 30.4144 2.38936 38.9484C2.90854 40.5846 2.9731 41.8167 2.60507 43.0685C2.11923 44.7205 1.65271 46.4064 1.20082 48.0372C0.986668 48.8113 0.771468 49.5853 0.55524 50.3592C0.516233 50.4953 0.472753 50.6313 0.428675 50.7674C0.370165 50.9458 0.310503 51.1306 0.263305 51.3185C0.0581274 52.1379 0.173353 52.8506 0.587998 53.3257C0.991136 53.7873 1.65778 53.9949 2.46074 53.9096ZM5.42998 39.8329C4.3842 37.0088 4.00486 33.9379 3.638 30.9681C3.59509 30.621 3.55191 30.2743 3.50849 29.9276C3.0172 26.0477 3.40235 22.3811 4.65331 19.0305C7.15425 12.33 11.2525 7.91854 17.1818 5.54285C19.4938 4.61698 22.2513 3.62076 25.1756 3.25131C29.6162 2.69023 34.0932 3.69401 39.265 6.41C43.4583 8.61214 46.4973 11.5252 48.5549 15.3149C49.8628 17.7593 50.7204 20.4175 51.0871 23.1634C51.6053 26.7343 51.9889 30.9761 50.9055 35.3567C49.5906 40.6757 46.6488 44.6696 41.9124 47.5655C38.0082 49.9795 33.4859 51.2153 28.892 51.1234C26.0835 51.0822 23.6068 50.9495 21.3221 50.717C19.2147 50.5355 17.1736 49.8926 15.3444 48.8344C14.7019 48.4253 13.9579 48.2018 13.1955 48.189C12.8391 48.1907 12.4845 48.2395 12.1409 48.3338C10.6745 48.7252 9.17055 49.0802 7.71617 49.4238C7.05773 49.5793 6.39948 49.7362 5.74143 49.8944C5.29285 50.0032 4.84429 50.1157 4.30053 50.2522L3.68732 50.4057C3.86149 49.7669 4.02534 49.1512 4.18448 48.5526C4.5962 47.0046 4.98528 45.5426 5.43932 44.1215C5.87835 42.7488 6.04473 41.493 5.42998 39.8329Z" fill="black"/>
<path d="M10.0573 19.5682C10.4436 20.5172 10.9021 21.4355 11.4288 22.3151C15.349 28.4891 19.7288 34.0126 24.4481 38.7317C25.9752 40.2272 27.6022 41.618 29.318 42.8944C30.7374 44.0209 32.4963 44.6381 34.3109 44.6465C35.2468 44.6397 36.1766 44.4925 37.0687 44.2104C39.7422 43.3887 42.0421 41.9006 44.1289 40.4148C44.9971 39.7971 45.4907 39.0273 45.5576 38.1887C45.6249 37.3418 45.2377 36.4785 44.4379 35.6929C41.9371 33.2354 39.2562 30.8895 36.7314 28.7202C35.2349 27.435 34.2155 27.4155 32.5372 28.6399C32.325 28.7954 32.1193 28.961 31.9201 29.1217C31.7596 29.2513 31.5995 29.381 31.4351 29.5051C29.8504 30.7033 29.5959 30.6977 28.0381 29.4303C27.5273 29.0317 27.0721 28.5668 26.6848 28.0481L26.4117 27.6655C25.4818 26.41 24.616 25.1084 23.8178 23.7659C22.1721 20.883 22.284 20.4443 25.1473 18.551C25.1883 18.524 25.2177 18.4829 25.2302 18.4355C25.5877 17.0827 25.0047 16.1856 24.3215 15.4178C23.5595 14.5611 22.7985 13.7033 22.0383 12.8446C21.1661 11.8608 20.2929 10.8776 19.4192 9.89483C19.1399 9.58077 18.834 9.28303 18.5707 9.02843C17.9987 8.47727 17.3699 8.36451 16.7008 8.69431C14.4555 9.80209 11.9524 11.2881 10.4087 13.9155C9.33388 15.7454 9.19578 17.6028 9.99776 19.4361L10.0573 19.5682ZM21.8516 17.8447C21.5126 18.0259 21.198 18.2494 20.9154 18.5098C19.9208 19.5142 19.5248 20.8206 19.8548 22.004C21.3513 27.3703 23.5361 30.8012 26.9395 33.1287C28.8491 34.4347 30.8059 34.4268 32.7564 33.1052C33.3566 32.6986 33.9341 32.2553 34.5457 31.7862C34.7907 31.5981 35.0424 31.4049 35.305 31.2068L41.2912 37.5933C39.026 39.3787 37.0704 40.3701 34.9734 40.8C34.3155 40.9519 33.6304 40.9438 32.9762 40.7763C32.3223 40.6085 31.7183 40.2865 31.2155 39.837C30.7934 39.4669 30.3702 39.0977 29.9456 38.7292C28.1444 37.1626 26.2818 35.5419 24.5956 33.8146C21.041 30.1716 17.7196 26.0028 14.4413 21.0697C14.1049 20.5635 13.8125 20.0094 13.5295 19.474C13.4156 19.2581 13.3017 19.0423 13.1845 18.8285C12.3335 17.2747 12.5188 15.7637 13.7201 14.459C14.4498 13.6976 15.2203 12.9759 16.0281 12.2971C16.3749 11.9941 16.7318 11.6826 17.0998 11.3512L22.1732 17.6509C22.0644 17.7186 21.9567 17.7831 21.8516 17.8447Z" fill="black"/>
</g>
<defs>
<clipPath id="clip0_1037_2284">
<rect width="55" height="55" fill="white"/>
</clipPath>
</defs>
</svg>
