<svg xmlns="http://www.w3.org/2000/svg" width="57" height="56" fill="none"><g fill="#000" clip-path="url(#a)"><path d="M2.55 54.89a16 16 0 0 0 2.334-.483l.524-.134c1.916-.48 3.97-1.001 6.013-1.557 1.149-.312 1.94-.193 2.737.412.543.414 1.225.646 1.884.87l.43.15c4.211 1.506 8.566 1.683 12.65 1.644q.728.045 1.46.045c4.862 0 9.846-1.46 14.503-4.26 5.277-3.174 8.84-7.776 10.593-13.676 1.425-4.802 1.499-10.093.225-16.175-1.553-7.42-5.681-13.145-12.268-17.018A36.2 36.2 0 0 0 33.437.658a21.8 21.8 0 0 0-7.491-.356c-3.05.348-5.89 1.24-9.215 2.47-6.783 2.51-11.56 7.377-14.605 14.878-2.567 6.324-2.456 13.317.35 22.006.538 1.666.605 2.92.224 4.195-.504 1.682-.987 3.399-1.456 5.06l-.669 2.364q-.061.207-.13.415c-.061.182-.123.37-.172.561-.213.835-.093 1.56.336 2.044.418.47 1.109.681 1.941.594m3.077-14.333C4.544 37.68 4.15 34.555 3.77 31.53l-.134-1.06c-.51-3.95-.11-7.683 1.186-11.095 2.592-6.822 6.84-11.314 12.984-13.733 2.396-.942 5.254-1.957 8.285-2.333 4.602-.571 9.242.45 14.602 3.216 4.346 2.242 7.495 5.208 9.628 9.067a23.3 23.3 0 0 1 2.624 7.991c.537 3.636.934 7.955-.188 12.415-1.363 5.416-4.412 9.482-9.32 12.43a25.06 25.06 0 0 1-13.494 3.624c-2.911-.042-5.478-.178-7.846-.414a15.1 15.1 0 0 1-6.195-1.917 4.34 4.34 0 0 0-2.227-.657 4.3 4.3 0 0 0-1.093.147c-1.52.399-3.078.76-4.585 1.11q-1.024.237-2.047.48c-.465.11-.93.224-1.493.363l-.636.157q.268-.974.516-1.887c.426-1.576.83-3.065 1.3-4.512.455-1.397.627-2.676-.01-4.366"/><path d="M10.424 19.924q.601 1.45 1.421 2.796c4.063 6.287 8.602 11.91 13.493 16.716a49 49 0 0 0 5.047 4.238 8.48 8.48 0 0 0 5.174 1.784 9.9 9.9 0 0 0 2.858-.444c2.771-.837 5.155-2.352 7.317-3.865.9-.629 1.412-1.413 1.481-2.266.07-.863-.331-1.742-1.16-2.541-2.592-2.503-5.37-4.891-7.987-7.1-1.551-1.309-2.607-1.328-4.347-.082-.22.159-.433.327-.64.49q-.248.2-.502.391c-1.642 1.22-1.906 1.214-3.52-.076a7.5 7.5 0 0 1-1.403-1.407l-.283-.39a47 47 0 0 1-2.688-3.97c-1.706-2.936-1.59-3.382 1.378-5.31a.2.2 0 0 0 .085-.118c.371-1.377-.233-2.29-.941-3.072q-1.185-1.31-2.367-2.62-1.355-1.503-2.714-3.004c-.29-.32-.606-.623-.88-.882-.592-.561-1.244-.676-1.937-.34-2.327 1.128-4.921 2.64-6.521 5.316-1.114 1.863-1.257 3.754-.426 5.621zm12.223-1.755a4.7 4.7 0 0 0-.97.677c-1.031 1.023-1.441 2.353-1.1 3.558 1.552 5.464 3.816 8.957 7.343 11.327 1.979 1.33 4.007 1.321 6.028-.024.622-.414 1.22-.866 1.855-1.343q.38-.288.787-.59l6.203 6.502c-2.347 1.818-4.374 2.828-6.547 3.265a4.45 4.45 0 0 1-2.07-.024 4.4 4.4 0 0 1-1.825-.956q-.656-.566-1.316-1.128c-1.866-1.595-3.797-3.245-5.544-5.004-3.684-3.71-7.126-7.954-10.524-12.977-.348-.515-.651-1.08-.945-1.624q-.176-.33-.357-.658c-.882-1.582-.69-3.12.555-4.449a30 30 0 0 1 2.392-2.2c.36-.31.729-.626 1.11-.964l5.258 6.414a15 15 0 0 1-.333.198"/></g><defs><clipPath id="a"><path fill="#fff" d="M0 0h57v56H0z"/></clipPath></defs></svg>