<svg xmlns="http://www.w3.org/2000/svg" width="213" height="198" fill="none"><path fill="#301F36" d="M0 0h213v198H0z"/><path fill="#fff" d="M65.66 47V33h6.36q2.28 0 4.02.88 1.74.86 2.72 2.42t.98 3.7q0 2.12-.98 3.7-.98 1.56-2.72 2.44-1.74.86-4.02.86zm3.24-2.66h2.96q1.4 0 2.42-.52a3.83 3.83 0 0 0 1.6-1.52q.58-.98.58-2.3 0-1.34-.58-2.3a3.7 3.7 0 0 0-1.6-1.5q-1.02-.54-2.42-.54H68.9zm18.403 2.82q-1.839 0-3.24-.72-1.38-.72-2.14-1.96-.76-1.26-.76-2.86 0-1.62.74-2.86a5.3 5.3 0 0 1 2.06-1.96q1.3-.72 2.94-.72 1.58 0 2.84.68a4.9 4.9 0 0 1 2.02 1.92q.74 1.24.74 2.98 0 .18-.02.42-.02.22-.04.42h-8.74v-1.82h7.1l-1.2.54q0-.84-.34-1.46a2.4 2.4 0 0 0-.94-.96q-.6-.36-1.4-.36t-1.42.36q-.6.34-.94.98-.34.62-.34 1.48v.48q0 .88.38 1.56.4.66 1.1 1.02.72.34 1.68.34.861 0 1.5-.26.66-.26 1.2-.78l1.66 1.8a4.9 4.9 0 0 1-1.86 1.3q-1.119.44-2.58.44m7.658-.16V36q0-1.82 1.08-2.9 1.08-1.1 3.08-1.1.68 0 1.3.14.639.14 1.08.44l-.82 2.26a2.1 2.1 0 0 0-.58-.28 2.3 2.3 0 0 0-.68-.1q-.68 0-1.06.4-.36.38-.36 1.16v1l.08 1.34V47zm-1.66-8.12v-2.4h7.46v2.4zm9.22 8.12V36.24h3.12V47zm1.56-12.26q-.86 0-1.4-.5a1.62 1.62 0 0 1-.54-1.24q0-.74.54-1.24t1.4-.5 1.4.48q.54.46.54 1.2 0 .78-.54 1.3-.52.5-1.4.5m10.985 1.34q1.28 0 2.28.52 1.02.5 1.6 1.56.58 1.04.58 2.68V47h-3.12v-5.68q0-1.3-.58-1.92-.56-.62-1.6-.62-.74 0-1.34.32-.58.3-.92.94-.32.64-.32 1.64V47h-3.12V36.24h2.98v2.98l-.56-.9q.58-1.08 1.66-1.66t2.46-.58M122.354 47V36.24h3.12V47zm1.56-12.26q-.86 0-1.4-.5a1.62 1.62 0 0 1-.54-1.24q0-.74.54-1.24t1.4-.5 1.4.48q.54.46.54 1.2 0 .78-.54 1.3-.52.5-1.4.5M128.37 47V36.24h2.98v3.04l-.42-.88q.48-1.14 1.54-1.72 1.059-.6 2.58-.6v2.88a4 4 0 0 0-.36-.02 3 3 0 0 0-.34-.02q-1.28 0-2.08.74-.78.72-.78 2.26V47zM145.597 111.408c-.203.881-1.001 1.358-2.408 1.441l-2.419 5.611-1.251.132c-3.552 8.279-6.639 20.788-10.798 28.186-1.228 2.193-1.895 2.883-4.553 1.799-2.717-1.108-9.212-6.886-12.859-8.97-1.812 1.131-4.124-1.073-4.982-2.776-1.418-.524-2.872-1.06-4.421-1.108-.942.965-1.8 23.207-2.277 26.757-.524 3.896-2.991 6.076-5.47 2.276l1.656-25.709c-1.108-.131-1.835.941-2.49 1.656-6.043 6.504-11.966 20.586-22.108 21.05-1.74.072-3.873.155-4.171-2.001-.5-3.622 3.23-2.788 5.708-3.681 11.453-4.134 14.338-27.758 32.465-25.316a2.5 2.5 0 0 1 1.072-.441c1.717-.357 3.85.655 4.458 2.657 5.101 2.466 9.284 6.6 14.373 8.84l11.071-27.925c-1.239-.703-2.681.393-4.087.274-3.314-.286-3.397-4.349-.918-5.266 1.084-.393 12.299-2.943 12.955-2.871 4.159.441 1.787 3.836 1.454 5.385"/><path fill="#fff" d="M118.496 90.393c1.978.477 3.826 4.062 2.217 5.528 2.336 10.793-.966 21.658-10.512 27.651-.071 1.906-2.92 3.49-4.421 2.215-20.034 7.434-39.687-12.771-32.655-32.368.631-1.775 1.93-4.968 4.421-3.872 3.361 1.477-.19 6.97-.465 10.031-1.704 19.586 23.038 30.951 35.325 14.868s-10.214-47.105-26.553-33.739c-1.847 1.513-5.947 8.554-8.33 4.885-2.623-4.027 6.9-10.972 10.344-12.27 13.515-5.124 25.481 5.515 30.629 17.07"/><path fill="#DAE1E1" d="M146.158 157.572c-.644 3.527-8.831 1.406-11.322 1.358a327 327 0 0 0-12.764 0c-3.147.06-14.302 2.705-15.184-1.929-1.096-5.767 1.085-14.046-.56-20.17 1.8.679 3.337 1.835 4.982 2.776v15.475l29.878-.238c1.037-.738.381-3.776.56-5.039l-2.228-31.213c.405-.965 2.657-6.231 2.896-6.493.56-.655 2.312-.691 3.182-.691-2.503 11.604.202 24.423.584 36.193.071 2.549.381 7.744-.024 9.971M120.713 95.92c-.417-1.93-1.418-3.741-2.217-5.528 7.091.608 15.481-.81 22.406 0 4.159.477 3.933 4.432 1.084 4.968-4.338.81-13.276-.048-18.246 0-.93 0-2.455-.358-3.039.56zM110.751 132.97c-1.526-.738-3.909-1.989-5.53-2.216 2.431.417.071-3.204.548-4.98 1.239-.452 3.301-1.501 4.421-2.215l.549 9.399z"/></svg>