<svg width="213" height="198" viewBox="0 0 213 198" fill="none" xmlns="http://www.w3.org/2000/svg">
<rect width="213" height="198" fill="#955AB1"/>
<path d="M74.4452 47V33H80.8052C82.3252 33 83.6652 33.2933 84.8252 33.88C85.9852 34.4533 86.8918 35.26 87.5452 36.3C88.1985 37.34 88.5252 38.5733 88.5252 40C88.5252 41.4133 88.1985 42.6467 87.5452 43.7C86.8918 44.74 85.9852 45.5533 84.8252 46.14C83.6652 46.7133 82.3252 47 80.8052 47H74.4452ZM77.6852 44.34H80.6452C81.5785 44.34 82.3852 44.1667 83.0652 43.82C83.7585 43.46 84.2918 42.9533 84.6652 42.3C85.0518 41.6467 85.2452 40.88 85.2452 40C85.2452 39.1067 85.0518 38.34 84.6652 37.7C84.2918 37.0467 83.7585 36.5467 83.0652 36.2C82.3852 35.84 81.5785 35.66 80.6452 35.66H77.6852V44.34ZM96.0886 47.16C94.8619 47.16 93.7819 46.92 92.8486 46.44C91.9286 45.96 91.2153 45.3067 90.7086 44.48C90.2019 43.64 89.9486 42.6867 89.9486 41.62C89.9486 40.54 90.1953 39.5867 90.6886 38.76C91.1953 37.92 91.8819 37.2667 92.7486 36.8C93.6153 36.32 94.5953 36.08 95.6886 36.08C96.7419 36.08 97.6886 36.3067 98.5286 36.76C99.3819 37.2 100.055 37.84 100.549 38.68C101.042 39.5067 101.289 40.5 101.289 41.66C101.289 41.78 101.282 41.92 101.269 42.08C101.255 42.2267 101.242 42.3667 101.229 42.5H92.4886V40.68H99.5886L98.3886 41.22C98.3886 40.66 98.2753 40.1733 98.0486 39.76C97.8219 39.3467 97.5086 39.0267 97.1086 38.8C96.7086 38.56 96.2419 38.44 95.7086 38.44C95.1753 38.44 94.7019 38.56 94.2886 38.8C93.8886 39.0267 93.5753 39.3533 93.3486 39.78C93.1219 40.1933 93.0086 40.6867 93.0086 41.26V41.74C93.0086 42.3267 93.1353 42.8467 93.3886 43.3C93.6553 43.74 94.0219 44.08 94.4886 44.32C94.9686 44.5467 95.5286 44.66 96.1686 44.66C96.7419 44.66 97.2419 44.5733 97.6686 44.4C98.1086 44.2267 98.5086 43.9667 98.8686 43.62L100.529 45.42C100.035 45.98 99.4153 46.4133 98.6686 46.72C97.9219 47.0133 97.0619 47.16 96.0886 47.16ZM103.746 47V36C103.746 34.7867 104.106 33.82 104.826 33.1C105.546 32.3667 106.572 32 107.906 32C108.359 32 108.792 32.0467 109.206 32.14C109.632 32.2333 109.992 32.38 110.286 32.58L109.466 34.84C109.292 34.72 109.099 34.6267 108.886 34.56C108.672 34.4933 108.446 34.46 108.206 34.46C107.752 34.46 107.399 34.5933 107.146 34.86C106.906 35.1133 106.786 35.5 106.786 36.02V37.02L106.866 38.36V47H103.746ZM102.086 38.88V36.48H109.546V38.88H102.086ZM111.306 47V36.24H114.426V47H111.306ZM112.866 34.74C112.292 34.74 111.826 34.5733 111.466 34.24C111.106 33.9067 110.926 33.4933 110.926 33C110.926 32.5067 111.106 32.0933 111.466 31.76C111.826 31.4267 112.292 31.26 112.866 31.26C113.439 31.26 113.906 31.42 114.266 31.74C114.626 32.0467 114.806 32.4467 114.806 32.94C114.806 33.46 114.626 33.8933 114.266 34.24C113.919 34.5733 113.452 34.74 112.866 34.74ZM123.851 36.08C124.704 36.08 125.464 36.2533 126.131 36.6C126.811 36.9333 127.344 37.4533 127.731 38.16C128.118 38.8533 128.311 39.7467 128.311 40.84V47H125.191V41.32C125.191 40.4533 124.998 39.8133 124.611 39.4C124.238 38.9867 123.704 38.78 123.011 38.78C122.518 38.78 122.071 38.8867 121.671 39.1C121.284 39.3 120.978 39.6133 120.751 40.04C120.538 40.4667 120.431 41.0133 120.431 41.68V47H117.311V36.24H120.291V39.22L119.731 38.32C120.118 37.6 120.671 37.0467 121.391 36.66C122.111 36.2733 122.931 36.08 123.851 36.08ZM131.139 47V36.24H134.259V47H131.139ZM132.699 34.74C132.126 34.74 131.659 34.5733 131.299 34.24C130.939 33.9067 130.759 33.4933 130.759 33C130.759 32.5067 130.939 32.0933 131.299 31.76C131.659 31.4267 132.126 31.26 132.699 31.26C133.273 31.26 133.739 31.42 134.099 31.74C134.459 32.0467 134.639 32.4467 134.639 32.94C134.639 33.46 134.459 33.8933 134.099 34.24C133.753 34.5733 133.286 34.74 132.699 34.74ZM137.155 47V36.24H140.135V39.28L139.715 38.4C140.035 37.64 140.548 37.0667 141.255 36.68C141.962 36.28 142.822 36.08 143.835 36.08V38.96C143.702 38.9467 143.582 38.94 143.475 38.94C143.368 38.9267 143.255 38.92 143.135 38.92C142.282 38.92 141.588 39.1667 141.055 39.66C140.535 40.14 140.275 40.8933 140.275 41.92V47H137.155Z" fill="white"/>
<path d="M147.597 111.408C147.394 112.289 146.596 112.766 145.189 112.849L142.77 118.46L141.519 118.592C137.967 126.871 134.88 139.38 130.721 146.778C129.493 148.971 128.826 149.661 126.168 148.577C123.451 147.469 116.956 141.691 113.309 139.607C111.497 140.738 109.185 138.534 108.327 136.831C106.909 136.307 105.455 135.771 103.906 135.723C102.964 136.688 102.106 158.93 101.629 162.48C101.105 166.376 98.6378 168.556 96.1589 164.756L97.8155 139.047C96.7071 138.916 95.9801 139.988 95.3246 140.703C89.2823 147.207 83.359 161.289 73.2169 161.753C71.4769 161.825 69.3436 161.908 69.0456 159.752C68.5451 156.13 72.2754 156.964 74.7543 156.071C86.2074 151.937 89.0916 128.313 107.219 130.755C107.541 130.529 107.898 130.374 108.291 130.314C110.008 129.957 112.141 130.969 112.749 132.971C117.85 135.437 122.033 139.571 127.122 141.811L138.193 113.886C136.954 113.183 135.512 114.279 134.106 114.16C130.792 113.874 130.709 109.811 133.188 108.894C134.272 108.501 145.487 105.951 146.143 106.023C150.302 106.464 147.93 109.859 147.597 111.408Z" fill="white"/>
<path d="M120.496 90.3929C122.474 90.8695 124.322 94.4554 122.713 95.9207C125.049 106.714 121.747 117.579 112.201 123.572C112.13 125.478 109.281 127.062 107.78 125.787C87.7456 133.221 68.093 113.016 75.1246 93.4189C75.7562 91.6438 77.0553 88.451 79.5461 89.5471C82.907 91.0243 79.3554 96.5164 79.0813 99.5781C77.377 119.164 102.119 130.529 114.406 114.446C126.693 98.3629 104.192 67.3406 87.8529 80.7074C86.0056 82.2204 81.9059 89.2612 79.5223 85.5919C76.9003 81.5652 86.4228 74.6197 89.867 73.3211C103.382 68.1984 115.348 78.837 120.496 90.3929Z" fill="white"/>
<path d="M148.158 157.572C147.514 161.099 139.327 158.978 136.836 158.93C132.605 158.847 128.303 158.847 124.072 158.93C120.925 158.99 109.77 161.635 108.888 157.001C107.792 151.234 109.973 142.955 108.328 136.831C110.128 137.51 111.665 138.666 113.31 139.607V155.082L143.188 154.844C144.225 154.106 143.569 151.068 143.748 149.805L141.52 118.592C141.925 117.627 144.177 112.361 144.416 112.099C144.976 111.444 146.728 111.408 147.598 111.408C145.095 123.012 147.8 135.831 148.182 147.601C148.253 150.15 148.563 155.345 148.158 157.572Z" fill="#DAE1E1"/>
<path d="M122.713 95.9198C122.296 93.9898 121.295 92.179 120.496 90.392C127.587 90.9996 135.977 89.5819 142.902 90.392C147.061 90.8685 146.835 94.8238 143.986 95.3599C139.648 96.17 130.71 95.3122 125.74 95.3599C124.81 95.3599 123.285 95.0025 122.701 95.9198H122.713Z" fill="#DAE1E1"/>
<path d="M112.749 132.97C111.223 132.232 108.84 130.981 107.219 130.754C109.65 131.171 107.29 127.55 107.767 125.774C109.006 125.322 111.068 124.273 112.189 123.559L112.737 132.958L112.749 132.97Z" fill="#DAE1E1"/>
</svg>
