<svg xmlns="http://www.w3.org/2000/svg" width="56" height="58" fill="none"><path fill="#955AB1" d="M27.322.625a1 1 0 0 1 1.356 0l6.234 5.75a1 1 0 0 0 .794.259l8.424-.988a1 1 0 0 1 1.097.797l1.663 8.316a1 1 0 0 0 .491.676l7.395 4.152a1 1 0 0 1 .42 1.29l-3.543 7.705a1 1 0 0 0 0 .836l3.542 7.705a1 1 0 0 1-.419 1.29l-7.395 4.152a1 1 0 0 0-.49.676l-1.664 8.316a1 1 0 0 1-1.097.797l-8.424-.988a1 1 0 0 0-.794.258l-6.234 5.75a1 1 0 0 1-1.356 0l-6.234-5.75a1 1 0 0 0-.794-.258l-8.424.988a1 1 0 0 1-1.097-.797L9.11 43.241a1 1 0 0 0-.491-.676l-7.395-4.152a1 1 0 0 1-.42-1.29l3.543-7.705a1 1 0 0 0 0-.836L.805 20.877a1 1 0 0 1 .419-1.29l7.395-4.152a1 1 0 0 0 .49-.676l1.664-8.316a1 1 0 0 1 1.097-.797l8.424.988a1 1 0 0 0 .794-.258z"/></svg>