<svg xmlns="http://www.w3.org/2000/svg" width="213" height="198" fill="none"><path fill="#301F36" d="M0 0h213v198H0z"/><path fill="#fff" d="M58.64 39.027h6.74v2.52h-6.74zm.24 5.76h7.62v2.6H55.66v-14h10.58v2.6h-7.36zm23.758-8.32q1.28 0 2.26.52 1 .5 1.56 1.56.58 1.04.58 2.68v6.16h-3.12v-5.68q0-1.3-.54-1.92t-1.52-.62q-.68 0-1.22.32-.54.3-.84.92t-.3 1.58v5.4h-3.12v-5.68q0-1.3-.54-1.92-.52-.62-1.5-.62-.68 0-1.22.32-.54.3-.84.92t-.3 1.58v5.4h-3.12v-10.76h2.98v2.94l-.56-.86q.56-1.1 1.58-1.66 1.04-.58 2.36-.58 1.48 0 2.58.76 1.12.74 1.48 2.28l-1.1-.3q.54-1.26 1.72-2 1.2-.74 2.74-.74m13.557 11.08q-1.36 0-2.38-.6t-1.6-1.82q-.56-1.24-.56-3.12 0-1.9.54-3.12t1.56-1.82 2.44-.6q1.52 0 2.72.7a4.93 4.93 0 0 1 1.92 1.92q.72 1.24.72 2.92 0 1.7-.72 2.94a4.93 4.93 0 0 1-1.92 1.92q-1.2.68-2.72.68m-6.36 3.72v-14.64h2.98v2.2l-.06 3.2.2 3.18v6.06zm5.82-6.28q.78 0 1.38-.36.62-.36.98-1.02.38-.68.38-1.6 0-.94-.38-1.6a2.6 2.6 0 0 0-.98-1.02q-.6-.36-1.38-.36t-1.4.36-.98 1.02-.36 1.6q0 .92.36 1.6.36.66.98 1.02t1.4.36m14.412 2.4v-2.1l-.2-.46v-3.76q0-1-.62-1.56-.6-.56-1.86-.56-.86 0-1.7.28a4.4 4.4 0 0 0-1.4.72l-1.12-2.18q.88-.621 2.12-.96a9.5 9.5 0 0 1 2.52-.34q2.46 0 3.82 1.16t1.36 3.62v6.14zm-3.28.16q-1.26 0-2.16-.42-.9-.44-1.38-1.18a3 3 0 0 1-.48-1.66q0-.96.46-1.68.48-.72 1.5-1.12 1.02-.42 2.66-.42h2.86v1.82h-2.52q-1.1 0-1.52.36-.4.36-.4.9 0 .6.46.96.48.34 1.3.34.78 0 1.4-.36.621-.38.9-1.1l.48 1.44q-.34 1.04-1.24 1.58t-2.32.54m13.424 0q-1.9 0-2.96-.96-1.06-.98-1.06-2.9v-9.44h3.12v9.4q0 .68.36 1.06.36.36.98.36.74 0 1.26-.4l.84 2.2q-.48.34-1.16.52-.66.16-1.38.16m-5.68-8.28v-2.4h7.46v2.4zm9.972 8.12v-10.76h3.12v10.76zm1.56-12.26q-.86 0-1.4-.5a1.62 1.62 0 0 1-.54-1.24q0-.74.54-1.24t1.4-.5 1.4.48q.54.459.54 1.2 0 .78-.54 1.3-.52.5-1.4.5m3.715 12.26v-1.88l6.36-7.52.54 1.04h-6.76v-2.4h9.28v1.88l-6.36 7.52-.56-1.04h7.1v2.4zm18.2 0v-2.1l-.2-.46v-3.76q0-1-.62-1.56-.6-.56-1.86-.56-.86 0-1.7.28a4.3 4.3 0 0 0-1.4.72l-1.12-2.18q.88-.621 2.12-.96a9.5 9.5 0 0 1 2.52-.34q2.46 0 3.82 1.16t1.36 3.62v6.14zm-3.28.16q-1.26 0-2.16-.42-.9-.44-1.38-1.18a3 3 0 0 1-.48-1.66q0-.96.46-1.68.48-.72 1.5-1.12 1.02-.42 2.66-.42h2.86v1.82h-2.52q-1.1 0-1.52.36-.4.36-.4.9 0 .6.46.96.48.34 1.3.34.78 0 1.4-.36.62-.38.9-1.1l.48 1.44q-.34 1.04-1.24 1.58t-2.32.54m9.023-.16v-10.76h2.98v3.04l-.42-.88q.48-1.14 1.54-1.72 1.06-.6 2.58-.6v2.88a4 4 0 0 0-.36-.02 3 3 0 0 0-.34-.02q-1.28 0-2.08.74-.78.72-.78 2.26v5.08zM77.863 113.821c1.084-.023 1.954.918 2.586 2.836 1.168-1.37 2.252-1.823 3.265-1.37 3.838 11.794 7.366 23.779 9.273 36.073 9.081-4.693 17.292-12.473 27.792-13.652 1.299 1.239.274 4.515-1.466 4.872-3.229.739-6.209 2.264-9.105 3.813-4.851 2.597-12.728 9.018-17.257 10.531-5.816 1.954-4.446-3.526-4.91-6.731-.703-4.742-1.848-9.424-3.004-14.058-1.084-4.36-2.955-12.473-4.695-16.273-.263-.56.238-.882-1.013-.68-9.368 14.725-12.276 31.464-11.93 48.774-1.764 3.252-4.374 2.466-4.672-1.227-1.454-17.477 4.41-39.076 15.136-52.919zM95.299 72.506c2.562-.345 12.907-.155 13.085 3.515.227 4.61-7.234.75-9.82.726-23.848-.214-15.53 48.357 10.38 31.332 10.286-6.754 14.04-19.037 3.79-27.9-1.406-1.216-3.944-1.252-3.086-4.051 1.358-4.468 8.14 1.966 9.665 3.812 15.291 18.466-14.111 46.557-31.213 32.667-12.895-10.484-11.286-37.575 7.199-40.1"/><path fill="#DAE1E1" d="M147.867 98.204c-6.149-2.574-11.405 1.989-14.814 6.683-4.517 6.231-7.496 15.249-2.514 22.099.214.953 1.43 2.133 2.431 1.954 6.841 2.097 12.061-2.966 15.207-8.447 3.29-5.754 7.938-18.834-.31-22.277zm-4.552 21.313c-1.597 2.37-6.293 7.255-9.237 4.408-1.168-1.108-1.704-4.349-1.585-5.957.358-4.908 7.485-18.359 13.551-15.487 5.005 2.358-.525 13.783-2.717 17.036z"/><path fill="#fff" d="M130.526 126.985c1.085-.107 2.336.929 2.444 1.954.178 1.882-4.041 7.482-5.364 9.269-.619 1.334-4.314.476-4.385-.977 1.406-2.133 4.838-9.984 7.317-10.234z"/><path fill="#fff" d="M123.223 137.219c.382.012 4.195.869 4.386.977.083.047.37.738.489.977-.322 2.382-2.086 5.766-4.386 6.826-.155-.024-.334.036-.489 0-1.084 1.489-4.707-.036-3.897-1.954.084-.429-.119-1.12 0-1.465.584-1.668 1.108-3.11 1.466-4.873.775-.083 1.943-.512 2.443-.488z"/><path fill="#fff" d="M123.222 146c-1.502 2.013-4.183 9.518-7.473 7.35-2.538-1.668 2.217-7.66 3.564-9.304.667 1.108 2.646 1.644 3.897 1.954zM83.715 115.275l-3.647 2.919-2.205-4.385c.5-.643.68-2.084 1.967-2.668 3.468-1.585 3.218 2.049 3.885 4.134M109.421 94.39c4.112-1.239 3.897 5.242.858 5.767-4.362.762-2.812-5.183-.858-5.766M128.097 139.174c1.573 3.181-.31 2.609-1.192 3.919-.763 1.144.048 3.074-2.11 3.312-.786.084-.953-.381-1.084-.405.119-1.846 2.169-2.633 2.646-3.407.31-.5-.262-2.728 1.74-3.419"/></svg>