<svg xmlns="http://www.w3.org/2000/svg" width="58" height="43" fill="none"><g clip-path="url(#a)"><path fill="#F9F9F9" d="M52.93.06 4.166.097C2.05.599.562 2.217.306 4.356l-.007 33.15c.2 2.496 2.088 4.359 4.636 4.554h47.724c2.498-.21 4.366-1.981 4.64-4.425V4.482c-.21-2.356-1.971-4.187-4.37-4.421m-7.6 2.38L28.868 15.909 12.264 2.441zm2.42 37.041s-.189.2-.203.2h-37.5s-.203-.186-.203-.2v-27.4L28.74 26.87c.502.028 1.694-.979 2.138-1.325 5.113-3.964 9.955-8.298 15.06-12.272.534-.416 1.185-1.056 1.812-1.192zm7.058-1.514c-.145.654-1.227 1.713-1.885 1.713h-2.551s-.203-.185-.203-.199V9.11c0-.57-1.398-1.248-1.903-.682-6.23 4.691-11.973 10.05-18.195 14.74-.48.364-1.167 1.07-1.75.671L9.331 8.43c-.509-.567-1.907.111-1.907.681v30.371s-.185.2-.2.2c-.728 0-1.903.104-2.554 0-.992-.165-1.878-1.196-1.95-2.182V4.49c.008-.755.904-1.803 1.609-1.985.512-.133 3.743-.144 4.113.063l19.916 16.082h.876L49.23 2.51c2.149-.025 5.105-.811 5.646 1.975z"/></g><defs><clipPath id="a"><path fill="#fff" d="M.299.06h57v42h-57z"/></clipPath></defs></svg>