<svg xmlns="http://www.w3.org/2000/svg" width="213" height="198" fill="none"><path fill="#955AB1" d="M0 0h213v198H0z"/><path fill="#fff" d="M81.314 41V27h3.24v14zm10.963.16q-1.52 0-2.74-.68a5.2 5.2 0 0 1-1.94-1.94q-.7-1.24-.7-2.92 0-1.7.7-2.94a5.06 5.06 0 0 1 1.94-1.92q1.22-.68 2.74-.68 1.36 0 2.38.6t1.58 1.82.56 3.12q0 1.88-.54 3.12-.54 1.22-1.56 1.82-1 .6-2.42.6m.54-2.56q.76 0 1.38-.36t.98-1.02q.38-.68.38-1.6 0-.94-.38-1.6a2.6 2.6 0 0 0-.98-1.02 2.7 2.7 0 0 0-1.38-.36q-.78 0-1.4.36t-1 1.02q-.36.66-.36 1.6 0 .92.36 1.6.38.66 1 1.02t1.4.36m2.82 2.4v-2.2l.06-3.2-.2-3.18v-6.26h3.12V41zm11.207.16q-1.839 0-3.24-.72-1.38-.72-2.14-1.96-.76-1.26-.76-2.86 0-1.62.74-2.86a5.3 5.3 0 0 1 2.06-1.96q1.3-.72 2.94-.72 1.58 0 2.84.68a4.9 4.9 0 0 1 2.02 1.92q.74 1.24.74 2.98 0 .18-.02.42l-.04.42h-8.74v-1.82h7.1l-1.2.54q0-.84-.34-1.46a2.4 2.4 0 0 0-.94-.96q-.6-.36-1.4-.36t-1.42.36q-.6.34-.94.98-.34.62-.34 1.48v.48q0 .88.38 1.56.4.66 1.1 1.02.72.34 1.68.34.861 0 1.5-.26.66-.26 1.2-.78l1.66 1.8a4.9 4.9 0 0 1-1.86 1.3q-1.119.44-2.58.44m13.585-.16v-2.1l-.2-.46v-3.76q0-1-.62-1.56-.6-.56-1.86-.56a5.3 5.3 0 0 0-1.7.28 4.3 4.3 0 0 0-1.4.72l-1.12-2.18q.88-.62 2.12-.96a9.5 9.5 0 0 1 2.52-.34q2.46 0 3.82 1.16t1.36 3.62V41zm-3.28.16q-1.26 0-2.16-.42-.9-.44-1.38-1.18a3 3 0 0 1-.48-1.66q0-.96.46-1.68.48-.72 1.5-1.12 1.02-.42 2.66-.42h2.86v1.82h-2.52q-1.1 0-1.52.36-.4.36-.4.9 0 .6.46.96.48.34 1.3.34.78 0 1.4-.36.62-.38.9-1.1l.48 1.44q-.34 1.04-1.24 1.58t-2.32.54m9.023-.16V30.24h2.98v3.04l-.42-.88q.48-1.14 1.54-1.72 1.06-.6 2.58-.6v2.88a4 4 0 0 0-.36-.02 3 3 0 0 0-.34-.02q-1.28 0-2.08.74-.78.72-.78 2.26V41z"/><g clip-path="url(#a)"><path fill="#fff" d="M125.393 83.201c-1.112-11.03-13.06-18.19-23.491-17.094-3.194.335-12.83 3.288-14.189 6.293-.688 1.503.353 2.457.283 3.748-.16 3.129-3.018 7.973-2.948 12.905.459 30.936 43.027 20.736 40.345-5.852M98.867 102.17c-9.777-1.503-9.53-19.04-4.43-25.404.688-.848 4.006-3.606 4.853-4.207 3.071-2.121 10.448-.389 13.66 1.467 15.319 8.804 3.671 30.884-14.083 28.144"/><path fill="#fff" d="M94.44 144.331q-1.749 2.625-4.925-2.704c.67 1.944 1.342 6.594-1.5 5.056-.83-1.097-2.894-2.617-4.077-4.102-2.188.424-4.27-2.528-4.094-4.684-2.17-2.811-10.2-14.479-10.342-17.343-.053-1.096 1.006-3.535 1.465-4.702 1.059-2.616 6.953-15.451 8.277-16.865 2.259-2.422 4.624-1.68 5.983 1.061l5.718 24.396c2.559.76-.283 5.091-2.347 3.517-.089-.088-1.995-.565-2.33-.583-.159-.636-.777-1.343-1.006-2.21-1.43-5.657-2.93-11.349-3.953-17.094-1.041 1.785-6.124 11.296-6.018 12.48.106 1.114 5.241 8.256 6.3 9.741 2.242-.177 4.095 3.076 4.095 5.233v.035c.458.53.776 1.308 1.464 1.75 6.195-8.167 6.513 2.316 7.29 7.018M143.48 119.406c-.388 3.995-7.306 14.973-9.441 19.269-.759 1.52-.971 3.818-1.642 5.073.918 2.634-2.682 4.809-4.077 2.351-.476-1.113-1.217-2.846-1.764-4.101-.371-2.351.458-5.834 2.929-6.435 1.659-3.5 8.066-13.877 8.171-16.741.053-1.414-5.894-8.715-7.288-10.182-.618-.654-3.054-3.465-3.795-2.917-2.047 5.144-3.194 10.501-4.677 15.804-.105.672.018 1.167.283 1.556.247 2.74-1.077 4.896-4.642 4.154-1.676-.354-3.547-2.546-2.065-3.96 1.518-5.374 2.701-10.854 4.66-16.105.935-2.51 3.159-9.811 6.088-9.652 2.242.124 8.56 7.602 10.254 9.688 2.365 2.881 7.359 8.432 7.006 12.198"/><path fill="#DAE1E1" d="M83.937 142.581c-3.106 6.842-4.871 14.302-6.424 21.638l54.604.583c2.506.478 2.736 4.314-.547 4.721-10.201 1.237-24.584-.389-35.05-.637-5.824-.141-15.954.972-21.037 0-2.223-.424-3.353-2.652-3.106-4.791.953-8.22 5.471-18.049 7.466-26.199 1.111 1.45 2.823 3.112 4.094 4.685M129.485 135.564c-1.006 2.121-1.782 4.366-2.929 6.435-1.836-4.314-4.165-8.451-5.348-13.065l-.847-.901c-8.365.813-16.66.866-25.043 1.096-1.87.053-4.395 1.396-6.336.035-.53-.371-.335-1.166-.388-1.202 1.341-.742 2.559-1.838 2.347-3.518l24.531-1.167c.777 1.998 1.853 3.536 4.254 2.829 1.553-.46 1.712-2.97 2.17-4.579-.105.672.018 1.167.283 1.556.653.99 2.153 1.361 2.894 2.563 1.624 2.687 1.889 7.62 4.412 9.918M128.324 146.099c1.818.389 3.283-.813 4.095-2.333 1.323 2.687 2.665 5.427 3.794 8.202.971 2.404 4.518 11.297 4.447 13.153-.123 2.987-3.423 2.687-4.641.512-2.224-6.647-4.959-13.081-7.677-19.516z"/><path fill="#fff" d="M88.016 146.683c2.382-.76-.618-6.435 0-7.018 1.8-1.715 4.094 5.639 6.424 4.684.106.672.458 1.379.582 2.334 1.712-.106 2.03 1.379.582 2.333.089 2.387-.635 4.738-3.512 3.872-1.782-.548-2.841-4.596-4.076-6.205"/><path fill="#DAE1E1" d="M95.02 146.682c2.24-.124 2.965-3.235 4.994-3.535 2.559-.372 5.206 3.783 7.659 3.995 1.465.124 2.736-1.874 4.13-2.122s2.789.708 4.236.495c-.936-4.136 3.565-2.457 2.065.584-1.359 2.74-4.289 1.043-5.824 1.167-1.077.088-1.906 1.378-3.071 1.644-4.253.99-8.03-3.96-8.63-3.96-.318 0-3.689 3.907-4.96 4.066-.035-.707-.494-1.591-.582-2.334zM85.684 135.528v.036c-1.606-1.839-2.682-3.306-4.094-5.268 1.306-2.581 1.641-3.147 4.677-2.917.935 3.606.212 4.702-.583 8.149"/></g><defs><clipPath id="a"><path fill="#fff" d="M69.5 66h74v104h-74z"/></clipPath></defs></svg>