<svg width="149" height="35" viewBox="0 0 149 35" fill="none" xmlns="http://www.w3.org/2000/svg">
<path d="M91.8731 1.46206L90.8555 31.8281L82.4068 32.6609L81.9868 16.7423C81.9777 16.3997 80.8173 16.1178 80.4907 16.357C79.9354 16.76 77.0377 29.3192 76.3735 29.4945C76.091 29.5687 74.0276 29.5928 73.8892 29.5085C73.4033 29.2118 71.145 19.8987 70.4847 18.6145C70.3026 17.7909 68.7073 18.1213 68.7202 18.6094L69.0682 31.7991L60.6004 32.0225L60.2914 3.79423C60.5795 3.35577 68.8625 2.89753 70.0815 2.98977L75.6768 18.5746L81.2883 1.74133L91.8731 1.46206Z" fill="#2A374B"/>
<path d="M5.29722 3.76194C4.45658 3.97195 1.52252 4.77781 1.35634 5.55422C1.05745 6.97492 2.25288 13.1359 2.42917 15.1643C2.8493 19.9645 3.39638 24.8355 3.79825 29.6621C3.86256 30.4303 3.33563 32.9093 4.33512 33.0993C5.17577 33.2587 9.10755 32.5483 10.3457 32.4054C17.8921 31.5343 25.4853 24.6854 25.4023 16.7381C25.2658 4.15896 16.1097 1.05733 5.29722 3.76194ZM11.5339 25.551L10.6964 10.3811C20.5706 9.04583 20.3314 24.3583 11.5339 25.551Z" fill="#2A374B"/>
<path d="M119.704 1.98423C120.898 9.88667 121.671 19.284 118.083 26.6766C113.842 35.4156 103.17 35.6124 99.0689 26.6189C96.087 20.0815 96.1684 12.5586 96.0583 5.53029L104.802 4.75372C104.772 10.525 104.23 18.0439 106.407 23.4556C107.557 26.3082 110.204 27.7921 111.56 24.2984C113.763 18.6181 111.403 9.02962 110.994 3.06218L119.701 1.98159L119.704 1.98423Z" fill="#2A374B"/>
<path d="M42.4768 4.20519C29.2675 3.76423 23.7675 24.3103 36.8725 30.0945C55.6442 38.3785 64.5288 4.93712 42.4768 4.20519ZM42.3522 23.7295C35.3143 23.9763 35.9782 12.5525 41.6793 12.3684C49.8096 12.1062 48.2415 23.5224 42.3522 23.7295Z" fill="#2A374B"/>
<path d="M146.49 3.18488C146.598 5.73791 145.606 8.14825 145.383 10.6684C143.081 9.65804 140.307 9.12783 137.788 9.24528C136.786 9.29213 135.334 9.49823 134.916 10.5083C133.293 14.4456 140.137 13.9538 142.391 14.5471C147.651 15.9275 147.957 22.3689 145.913 26.5162C142.137 34.1794 131.763 33.135 125.541 29.1678L125.359 28.6195L126.681 22.1093C128.998 23.2545 138.231 26.3367 138.725 22.1513C139.064 19.2867 133.784 19.4466 132.22 19.1278C126.591 17.9824 125.294 11.1538 127.87 6.61274C131.446 0.306636 140.634 0.511895 146.49 3.18791L146.49 3.18488Z" fill="#2A374B"/>
</svg>
