<svg xmlns="http://www.w3.org/2000/svg" width="213" height="198" fill="none"><path fill="#955AB1" d="M0 0h213v198H0z"/><path fill="#fff" d="M58.23 49.176v-14h6.06q1.881 0 3.24.62 1.36.6 2.1 1.74t.74 2.72q0 1.56-.74 2.7t-2.1 1.76q-1.359.6-3.24.6h-4.26l1.44-1.46v5.32zm3.24-4.96-1.44-1.54h4.08q1.5 0 2.24-.64t.74-1.78q0-1.161-.74-1.8-.74-.64-2.24-.64h-4.08l1.44-1.54zm10.974 4.96v-10.76h2.98v3.04l-.42-.88q.48-1.14 1.54-1.72 1.06-.6 2.58-.6v2.88a4 4 0 0 0-.36-.02 3 3 0 0 0-.34-.02q-1.28 0-2.08.74-.78.72-.78 2.26v5.08zm13.577.16q-1.72 0-3.06-.72a5.6 5.6 0 0 1-2.1-1.96q-.76-1.26-.76-2.86 0-1.62.76-2.86a5.4 5.4 0 0 1 2.1-1.96q1.34-.72 3.06-.72 1.7 0 3.04.72a5.27 5.27 0 0 1 2.1 1.94q.76 1.239.76 2.88 0 1.6-.76 2.86a5.4 5.4 0 0 1-2.1 1.96q-1.34.72-3.04.72m0-2.56q.78 0 1.4-.36t.98-1.02q.36-.68.36-1.6 0-.94-.36-1.6a2.6 2.6 0 0 0-.98-1.02q-.62-.36-1.4-.36t-1.4.36-1 1.02q-.36.66-.36 1.6 0 .92.36 1.6.38.66 1 1.02t1.4.36m12.385 2.56q-1.9 0-2.96-.96-1.06-.98-1.06-2.9v-9.44h3.12v9.4q0 .68.36 1.06.36.36.98.36.741 0 1.26-.4l.84 2.2q-.48.34-1.16.52-.66.16-1.38.16m-5.68-8.28v-2.4h7.46v2.4zm14.76 8.28q-1.72 0-3.06-.72a5.6 5.6 0 0 1-2.1-1.96q-.76-1.26-.76-2.86 0-1.62.76-2.86a5.4 5.4 0 0 1 2.1-1.96q1.34-.72 3.06-.72 1.7 0 3.04.72a5.27 5.27 0 0 1 2.1 1.94q.76 1.239.76 2.88 0 1.6-.76 2.86a5.4 5.4 0 0 1-2.1 1.96q-1.34.72-3.04.72m0-2.56q.78 0 1.4-.36t.98-1.02q.36-.68.36-1.6 0-.94-.36-1.6t-.98-1.02-1.4-.36-1.4.36-1 1.02q-.36.66-.36 1.6 0 .92.36 1.6.38.66 1 1.02t1.4.36m12.385 2.56q-1.9 0-2.96-.96-1.06-.98-1.06-2.9v-9.44h3.12v9.4q0 .68.36 1.06.36.36.98.36.741 0 1.26-.4l.84 2.2q-.48.34-1.16.52-.66.16-1.38.16m-5.68-8.28v-2.4h7.46v2.4zm9.972 8.12v-10.76h3.12v10.76zm1.56-12.26q-.86 0-1.4-.5a1.62 1.62 0 0 1-.54-1.24q0-.74.54-1.24t1.4-.5 1.4.48q.54.459.54 1.2 0 .78-.54 1.3-.52.5-1.4.5m10.815 12.42q-1.36 0-2.38-.6t-1.6-1.82q-.56-1.24-.56-3.12 0-1.9.54-3.12t1.56-1.82 2.44-.6q1.52 0 2.72.7a4.9 4.9 0 0 1 1.92 1.92q.72 1.24.72 2.92 0 1.7-.72 2.94a4.9 4.9 0 0 1-1.92 1.92q-1.2.68-2.72.68m-6.36 3.72v-14.64h2.98v2.2l-.06 3.2.2 3.18v6.06zm5.82-6.28q.78 0 1.38-.36.62-.36.98-1.02.38-.68.38-1.6 0-.94-.38-1.6-.36-.66-.98-1.02-.6-.36-1.38-.36t-1.4.36-.98 1.02-.36 1.6q0 .92.36 1.6.36.66.98 1.02t1.4.36m14.413 2.4v-2.1l-.2-.46v-3.76q0-1-.62-1.56-.6-.56-1.86-.56-.86 0-1.7.28a4.3 4.3 0 0 0-1.4.72l-1.12-2.18q.88-.621 2.12-.96a9.5 9.5 0 0 1 2.52-.34q2.46 0 3.82 1.16t1.36 3.62v6.14zm-3.28.16q-1.26 0-2.16-.42-.9-.44-1.38-1.18a3 3 0 0 1-.48-1.66q0-.96.46-1.68.48-.72 1.5-1.12 1.02-.42 2.66-.42h2.86v1.82h-2.52q-1.1 0-1.52.36-.4.36-.4.9 0 .6.46.96.48.34 1.3.34.78 0 1.4-.36.62-.38.9-1.1l.48 1.44q-.34 1.04-1.24 1.58t-2.32.54m9.024-.16v-10.76h2.98v3.04l-.42-.88q.48-1.14 1.54-1.72 1.06-.6 2.58-.6v2.88a4 4 0 0 0-.36-.02 3 3 0 0 0-.34-.02q-1.28 0-2.08.74-.78.72-.78 2.26v5.08zM156.647 131.376l-8.367 28.378c-.81 1.751-2.669 3.669-4.636 3.979-2.503.393-8.605.596-11.417.631-3.79.06-7.497-.595-10.917-.619-7.771-.06-15.541.083-23.288.024 0-10.972 4.613-21.73 9.32-31.451 13.861-1.811 28.067-2.061 42.106-1.883 1.335.024 2.562.739 3.85.513 2.884-.501 3.349-4.325.607-5.54-11.31.238-23.108-.691-34.371-.131-2.252.107-5.768.369-7.937.667-7.842 1.084-8.7 2.383-11.954 9.304-2.908 6.171-4.505 12.902-6.567 19.371-7.603-.393-15.934.608-23.418-.679-4.684-.798-6.03-1.501-5.518-6.54.107-1.108 3.027-10.794 3.444-11.199.048-.035 1.215-.202 1.132.286-.965 2.288-1.204 9.197 1.156 10.341 1.3.631 3.647.203 4.028-1.144v-25.268c0-.214-1.144-1.203-1.56-1.334-3.064-.917-3.767 1.954-4.863 4.11-2.742 5.373-8.629 19.168-9.082 24.792-.715 8.911 5.137 10.376 12.407 11.698 5.315.965 5.041 1.728 9.784 4.003 7.997 3.836 14.564 5.457 23.443 5.85 11 .476 25.933.75 36.802 0 6.818-.477 9.821-1.704 12.598-8.077 3.718-8.518 5.375-19.514 8.378-28.438-.095-2.847-3.408-3.824-5.16-1.644m-68.958 29.51 4.589-.56c.608 3.478-2.348.357-4.589.56"/><path fill="#fff" d="M98.45 74.347c15.958-2.097 27.769 15.499 23.848 30.152-7.616 28.473-50.473 24.625-47.255-8.196.215-2.228.93-6.564 3.73-6.552 4.815 0 1.383 7.612 1.383 10.567 0 21.17 29.759 24.851 36.683 3.312 3.886-12.104-7.007-26.865-20.284-23.148-3.385.941-7.985 5.91-10.762 5.1-1.644-.477-1.93-2.467-1.263-3.908 1.359-2.955 10.678-6.898 13.92-7.327"/><path fill="#fff" d="M105.293 98.972c5.911-1.966 3.957 6.671 2.122 7.303-5.852 2.013-4.458-6.529-2.122-7.303M98.308 98.508c3.861 0 3.515 8.506-1.109 7.851-3.742-.524-1.68-7.863 1.109-7.851"/></svg>