<svg xmlns="http://www.w3.org/2000/svg" width="671" height="445" fill="none"><g clip-path="url(#a)" opacity=".6"><path fill="#292726" d="M0 0h670.29v445H0z"/><path fill="#fff" d="M366.987 456.091q-18.708 0-31.847-13.14Q322 429.812 322 411.132V166.989q0-18.65 13.14-31.819 13.14-13.14 31.847-13.14h38.528V66.354q0-46.518 32.432-78.922Q470.351-45 516.869-45t78.95 32.432q32.431 32.43 32.403 78.922v55.676h38.557q18.651 0 31.819 13.14 13.14 13.14 13.14 31.847v244.115q0 18.652-13.14 31.819-13.14 13.14-31.819 13.14zm0-27.838h299.792q7.488 0 12.304-4.816t4.816-12.305V166.989q0-7.488-4.816-12.304t-12.304-4.816h-299.82q-7.488 0-12.305 4.816-4.815 4.816-4.816 12.332v244.115q0 7.489 4.816 12.305t12.333 4.816m149.882-97.435q17.622 0 29.676-12.081 12.081-12.054 12.081-29.676t-12.081-29.676-29.676-12.082q-17.593-.027-29.676 12.082-12.082 12.054-12.082 29.676t12.082 29.676q12.054 12.081 29.676 12.081M433.354 122.03h167.03V66.354q0-34.8-24.359-59.157-24.359-24.36-59.156-24.359-34.798 0-59.157 24.359t-24.358 59.157z"/></g><path fill="#292726" d="M67.787 200v-65.677h28.43q8.818 0 15.199 2.909 6.38 2.814 9.851 8.162t3.472 12.76q0 7.318-3.472 12.667-3.471 5.347-9.851 8.256-6.38 2.815-15.2 2.815H76.232l6.755-6.849V200zm15.2-23.268-6.755-7.225h19.14q7.037 0 10.508-3.002 3.472-3.002 3.472-8.351 0-5.44-3.472-8.444-3.471-3.002-10.508-3.002h-19.14l6.755-7.225zM134.466 200v-50.477h13.98v14.261l-1.97-4.128q2.252-5.349 7.224-8.069 4.973-2.815 12.104-2.815v13.511a17 17 0 0 0-1.689-.094 13 13 0 0 0-1.595-.094q-6.005 0-9.758 3.472-3.659 3.377-3.659 10.602V200zm63.693.751q-8.068 0-14.355-3.378-6.192-3.378-9.852-9.195-3.565-5.91-3.565-13.417 0-7.6 3.565-13.417 3.66-5.91 9.852-9.194 6.287-3.378 14.355-3.378 7.976 0 14.261 3.378 6.287 3.284 9.852 9.101t3.565 13.51q0 7.506-3.565 13.417-3.565 5.817-9.852 9.195-6.285 3.378-14.261 3.378m0-12.01q3.659 0 6.568-1.689t4.597-4.785q1.689-3.189 1.689-7.506 0-4.41-1.689-7.506t-4.597-4.785-6.568-1.689q-3.659 0-6.568 1.689t-4.691 4.785q-1.689 3.096-1.689 7.506 0 4.317 1.689 7.506 1.783 3.096 4.691 4.785t6.568 1.689m-8.726-45.692 12.667-13.511h15.762l-16.982 13.511zM227.683 200l22.612-29.648-.282 8.068-21.673-28.897h16.419l13.698 18.858-6.192.188 14.167-19.046h15.575l-21.767 28.616v-7.881L282.758 200h-16.607l-14.355-20.078 6.098.844L243.633 200zm62.18 0v-50.477h14.636V200zm7.318-57.514q-4.035 0-6.568-2.346t-2.533-5.817 2.533-5.817 6.568-2.346 6.568 2.252q2.533 2.158 2.533 5.63 0 3.659-2.533 6.098-2.44 2.346-6.568 2.346m85.547 6.286q6.005 0 10.602 2.439 4.691 2.346 7.319 7.319 2.72 4.878 2.72 12.572V200h-14.636v-26.646q0-6.099-2.533-9.007-2.534-2.909-7.131-2.909-3.19 0-5.723 1.501-2.534 1.408-3.941 4.316t-1.407 7.412V200h-14.637v-26.646q0-6.099-2.533-9.007-2.44-2.909-7.037-2.909-3.19 0-5.723 1.501-2.534 1.408-3.941 4.316t-1.407 7.412V200h-14.637v-50.477h13.98v13.792l-2.627-4.035q2.627-5.16 7.412-7.787 4.88-2.721 11.071-2.721 6.943 0 12.104 3.565 5.253 3.472 6.943 10.696l-5.161-1.407q2.534-5.911 8.069-9.383 5.63-3.471 12.854-3.471M447.451 200v-9.852l-.939-2.157v-17.639q0-4.692-2.908-7.319-2.815-2.627-8.726-2.627-4.034 0-7.975 1.314-3.846 1.22-6.568 3.377l-5.254-10.226q4.129-2.909 9.946-4.504a44.5 44.5 0 0 1 11.822-1.595q11.54 0 17.92 5.442t6.38 16.982V200zm-15.388.751q-5.91 0-10.133-1.971-4.221-2.064-6.473-5.535t-2.252-7.788q0-4.503 2.158-7.881 2.252-3.378 7.037-5.254 4.785-1.97 12.478-1.97h13.417v8.538h-11.822q-5.16 0-7.13 1.688-1.877 1.69-1.877 4.222 0 2.815 2.158 4.504 2.252 1.595 6.099 1.595 3.659 0 6.567-1.689 2.909-1.782 4.222-5.16l2.252 6.755q-1.594 4.88-5.817 7.412-4.222 2.534-10.884 2.534M131.4 262.772q6.005 0 10.602 2.439 4.692 2.346 7.319 7.319 2.721 4.878 2.721 12.572V314h-14.637v-26.646q0-6.099-2.533-9.007-2.534-2.909-7.131-2.909-3.19 0-5.723 1.501-2.534 1.408-3.941 4.316t-1.407 7.412V314h-14.637v-26.646q0-6.099-2.533-9.007-2.44-2.909-7.037-2.909-3.19 0-5.723 1.501-2.533 1.408-3.94 4.316t-1.408 7.412V314H66.755v-50.477h13.98v13.792l-2.627-4.035q2.627-5.16 7.412-7.787 4.88-2.721 11.071-2.721 6.944 0 12.104 3.565 5.254 3.472 6.943 10.696l-5.161-1.407q2.534-5.911 8.069-9.383 5.63-3.471 12.854-3.471m59.178 51.979q-8.632 0-15.199-3.378-6.474-3.378-10.039-9.195-3.566-5.91-3.566-13.417 0-7.6 3.472-13.417 3.565-5.91 9.664-9.194 6.098-3.378 13.792-3.378 7.411 0 13.323 3.19 6.005 3.096 9.476 9.007 3.472 5.817 3.472 13.98 0 .845-.094 1.97-.094 1.032-.188 1.971H173.69v-8.538h33.308l-5.63 2.533q0-3.94-1.595-6.849t-4.41-4.504q-2.814-1.689-6.567-1.689t-6.662 1.689q-2.814 1.595-4.41 4.597-1.595 2.909-1.595 6.943v2.252q0 4.128 1.783 7.319 1.876 3.096 5.16 4.785 3.378 1.595 7.882 1.595 4.034 0 7.036-1.22 3.097-1.22 5.63-3.659l7.787 8.444q-3.472 3.94-8.725 6.098-5.255 2.065-12.104 2.065m64.82-51.979q6.004 0 10.696 2.439 4.785 2.346 7.506 7.319 2.72 4.878 2.72 12.572V314h-14.636v-26.646q0-6.099-2.721-9.007-2.626-2.909-7.506-2.909-3.471 0-6.286 1.501-2.721 1.409-4.316 4.41-1.501 3.002-1.501 7.694V314h-14.637v-50.477h13.98v13.979l-2.627-4.222q2.721-5.066 7.787-7.787 5.067-2.721 11.541-2.721m54.831 51.979q-8.913 0-13.886-4.504-4.973-4.598-4.973-13.604v-44.285h14.637v44.097q0 3.19 1.689 4.973 1.689 1.688 4.597 1.688 3.472 0 5.911-1.876l3.941 10.321q-2.251 1.594-5.442 2.439-3.096.75-6.474.751m-26.646-38.844v-11.259h34.996v11.259zm70.271 38.844q-8.632 0-15.199-3.378-6.474-3.378-10.039-9.195-3.566-5.91-3.566-13.417 0-7.6 3.472-13.417 3.565-5.91 9.664-9.194 6.099-3.378 13.792-3.378 7.411 0 13.323 3.19 6.005 3.096 9.476 9.007 3.472 5.817 3.472 13.98 0 .845-.094 1.97-.094 1.032-.188 1.971h-41.001v-8.538h33.308l-5.63 2.533q0-3.94-1.595-6.849t-4.41-4.504q-2.814-1.689-6.567-1.689t-6.662 1.689q-2.814 1.595-4.409 4.597-1.596 2.909-1.595 6.943v2.252q0 4.128 1.782 7.319 1.876 3.096 5.16 4.785 3.378 1.595 7.882 1.595 4.034 0 7.037-1.22 3.096-1.22 5.629-3.659l7.787 8.444q-3.47 3.94-8.725 6.098-5.254 2.065-12.104 2.065"/><defs><clipPath id="a"><path fill="#fff" d="M0 0h670.29v445H0z"/></clipPath></defs></svg>