<svg xmlns="http://www.w3.org/2000/svg" width="623" height="859" fill="none"><g clip-path="url(#a)"><path fill="#955AB1" d="M339.128.612c-1.117.305-3.046 1.422-4.264 2.64-1.32 1.117-2.335 1.523-2.335.914 0-.71-.407-1.219-1.016-1.219-.508 0-.914.508-.711 1.117.407 2.133-2.132 2.133-2.843 0-.406-1.218-1.218-1.827-2.132-1.421-.711.304-1.421 0-1.421-.61 0-1.929-10.255-1.218-15.231 1.016-10.153 4.57-28.43 20.815-28.43 25.282 0 .407-.71 1.32-1.624 2.133-2.945 2.437-12.388 22.744-16.754 35.943-5.787 17.566-9.036 39.802-8.63 59.399.406 15.941-.812 27.617-3.554 35.842-1.015 3.147-1.929 6.498-1.929 7.412 0 3.655-7.514 23.962-13.606 36.248-6.092 12.692-11.169 20.002-13.809 20.002-2.132 0-18.479 11.169-27.414 18.683-16.449 13.707-23.557 21.83-36.858 41.731-3.655 5.585-10.052 13.809-14.012 18.277-9.442 10.661-29.546 37.466-35.639 47.518-5.889 9.748-10.864 21.526-12.184 29.039-1.624 8.936 0 13.2 8.123 21.323 24.978 24.673 39.294 34.827 70.263 49.955 11.473 5.686 24.368 12.286 28.734 14.825 7.818 4.67 7.818 4.67 7.818 8.935 0 2.335.711 8.326 1.625 13.301s2.031 11.575 2.437 14.621c.508 3.046 1.32 7.412 1.929 9.646s1.117 10.052 1.117 17.464c0 16.55 1.726 21.729 5.28 16.347l1.523-2.335 1.624 3.249c.914 1.726 2.336 3.351 3.148 3.655 1.32.508 1.218 1.32-.609 5.382-1.726 3.96-2.031 6.193-1.625 12.387.508 6.803.305 8.021-1.827 11.169-1.625 2.335-2.437 4.975-2.437 7.717 0 2.538-1.016 5.99-2.437 8.732-6.092 11.067-6.905 13.301-6.194 17.058.609 3.96-3.046 30.257-6.6 46.909-6.092 28.633-11.169 57.469-12.692 71.583-.304 3.351-1.726 11.981-3.046 19.292-1.32 7.209-2.741 18.885-3.046 25.891-.406 7.108-1.523 15.332-2.538 18.784-4.062 13.911-4.062 13.505-6.803 49.347-.406 5.889-.812 6.904-2.945 7.919-2.741 1.219-4.569 4.976-4.366 9.037.102 1.523-.812 4.874-2.03 7.514-1.219 2.64-3.148 9.036-4.265 14.215-1.117 5.178-3.147 12.996-4.569 17.464-1.726 5.584-2.741 12.083-3.452 22.338-1.625 22.947-2.234 25.79-8.021 36.553-2.843 5.279-6.702 12.895-8.428 17.058-3.147 7.209-3.249 7.818-3.147 20.713.101 10.864.406 13.914 1.929 16.044 1.624 2.64 1.624 2.74-.305 3.25-2.437.71-3.249 3.86-3.452 12.79-.203 8.02-1.726 11.88-6.498 16.25-4.163 3.75-5.483 7-7.209 17.56-.305 2.24-1.422 7.52-2.437 11.68-1.016 4.16-2.133 8.73-2.437 10.15-.305 1.42-2.64 5.08-5.178 8.13-2.539 3.04-6.6 9.24-8.936 13.7-7.209 13.71-22.337 26.5-41.63 35.24-11.777 5.28-25.586 13.3-29.85 17.36-4.57 4.26-6.702 9.24-5.89 13.5.406 2.64.203 3.66-1.015 4.06-1.93.82-1.93 3.76 0 7.52 1.523 2.84 1.421 3.04-1.523 5.28-2.335 1.62-3.046 3.04-3.046 5.48 0 4.77 3.35 11.78 7.006 14.93 4.569 3.75 9.138 4.87 22.642 5.48 10.458.51 12.997.2 22.44-2.13 5.889-1.42 11.27-2.64 12.082-2.64s5.179-1.83 9.85-4.06c4.568-2.24 8.934-4.07 9.645-4.07s2.132-1.01 3.249-2.13c1.016-1.22 3.554-3.25 5.483-4.47 1.929-1.32 6.499-4.97 10.154-8.12 9.646-8.53 25.79-15.13 30.562-12.59 1.015.51 3.249.91 4.874.91 4.467 0 25.993-5.78 32.187-8.52 7.209-3.36 13.402-9.14 14.621-13.81 1.117-4.17 0-15.54-1.93-19.09-.609-1.22-1.116-4.06-1.116-6.5 0-2.74-.914-5.99-2.539-8.83-1.726-2.95-2.538-5.89-2.538-9.14 0-5.59-2.234-13.81-5.585-20.41-1.421-2.84-2.538-7.51-2.944-12.18-.914-9.75.914-15.03 7.006-21.33 3.96-3.96 4.569-5.28 4.772-9.14.101-2.53.914-5.99 1.828-7.61 2.538-4.37 8.122-12.59 9.036-13.1.508-.3 1.422-2.74 2.132-5.38.711-2.74 2.133-5.79 3.148-6.9 1.015-1.12 2.945-4.68 4.468-7.92 2.437-5.69 3.553-9.244 5.686-18.992.609-2.538 2.335-7.818 3.96-11.676 5.686-13.809 16.245-45.59 16.245-48.839 0-.711 1.422-4.061 3.046-7.31 1.828-3.554 3.046-7.616 3.046-9.849 0-4.366 3.656-15.332 5.991-18.074.812-1.015 1.828-4.873 2.234-8.732.507-4.975 1.624-8.326 3.96-12.184 1.726-3.046 3.553-7.717 4.061-10.458 1.523-7.514 4.468-16.652 9.138-27.923 2.336-5.482 5.483-13.199 7.108-17.058 1.624-3.959 5.99-14.925 9.747-24.368 3.655-9.544 7.92-19.393 9.545-21.932 4.67-7.615 13.098-26.602 18.276-41.02 4.366-12.184 5.077-14.012 5.584-13.606.305.406 2.031 13.504 3.656 28.836.406 4.468 1.421 10.357 2.233 13.2.813 2.741 2.031 10.052 2.64 16.245.914 7.819 2.437 14.723 5.28 23.354 9.342 28.024 9.24 27.516 8.022 37.06-.711 4.772-1.523 10.661-2.031 13.2s-.812 8.935-.711 14.316c.203 8.935.406 10.052 3.046 13.505 1.625 2.03 4.163 4.67 5.788 5.787 2.843 2.132 2.843 2.335 2.335 9.443-.508 6.803-.305 8.021 3.249 16.956l3.859 9.545-1.32 7.107c-1.727 9.24-2.64 39.904-1.219 41.325.609.609.406 2.031-.711 4.163-1.827 3.757-1.827 16.652 0 26.095.61 3.046.914 7.924.508 10.764-.711 5.79-.101 8.53 1.929 8.53.914 0 1.219 11.37 1.016 53.1-.203 48.23-.305 53.41-2.031 57.98-2.539 7-1.726 24.98 1.421 31.17 2.437 4.67 2.133 6.09-1.117 4.06-2.03-1.22-2.03-1.12-1.218 1.63.914 3.45.914 6.19-.101 13.3-.711 4.57-1.016 5.28-2.64 4.77-4.57-1.52.609 8.53 6.904 13.3 5.28 4.06 11.677 5.48 24.572 5.48 9.341 0 10.458-.2 17.159-3.55 12.794-6.4 24.064-21.43 26.704-35.34.914-5.07.812-6.29-.508-7.71-1.117-1.22-1.624-3.76-1.624-7.82 0-3.25-.711-8.53-1.625-11.58-.914-3.04-1.726-6.49-1.827-7.71-.102-1.12-.711-2.74-1.219-3.56-.508-.71-.914-12.38-.914-25.79-.101-22.64-.203-24.87-2.335-31.27-2.031-6.09-2.234-7.61-1.32-12.08 1.015-4.37.812-5.69-.914-9.65l-2.031-4.57 3.25-3.75c1.726-2.03 5.889-6.2 9.138-9.24 6.295-5.99 8.123-10.16 9.544-21.02.508-4.47.305-5.789-1.117-7.413-1.624-1.828-1.726-2.742-.507-10.865.609-4.975 1.624-12.59 2.03-17.058.914-8.63 2.031-15.839 4.163-27.414 1.523-7.92 1.625-58.586.203-78.284-.609-9.139-1.218-11.778-2.843-13.606-1.929-2.132-2.132-3.249-4.467-24.369-.406-4.163-1.32-8.529-1.828-9.646-.609-1.116-1.523-7.005-1.929-12.895l-.711-10.864 6.194-10.458c7.514-12.692 9.138-18.683 10.255-37.061l.812-14.011 6.194-13.911c7.717-17.667 14.012-36.451 16.043-48.026 2.436-14.317 3.35-21.932 3.452-27.009 0-3.35.609-5.178 2.031-6.498 5.584-5.077 6.701-23.252 2.03-33.608-1.421-3.351-2.234-6.905-2.132-11.068 0-3.35-.914-9.544-2.031-13.707-3.046-12.184-11.372-53.814-11.879-59.804-.61-7.616.71-8.326 6.599-3.453 2.64 2.234 6.093 4.874 7.616 5.788 4.061 2.64 4.569.203.913-4.062-3.35-3.756-4.163-7.513-1.624-7.513 2.741 0 1.624-2.539-3.452-8.225-13.911-15.636-23.658-32.999-24.775-44.371l-.711-6.295h2.945c1.523 0 4.163-1.015 5.686-2.234 2.437-1.929 2.741-2.64 2.132-6.599-.305-2.336-.305-4.366 0-4.366.203 0 8.63-1.117 18.479-2.437 9.849-1.422 22.338-3.046 27.618-3.656 33.608-3.959 55.337-10.661 83.259-25.891 7.514-4.163 16.348-8.428 19.495-9.646 7.615-2.843 10.56-6.397 11.575-13.809 1.32-10.966-3.757-23.15-16.144-38.583-14.113-17.566-31.882-34.523-56.86-54.525-6.092-4.772-16.347-13.91-22.845-20.206-6.6-6.295-14.723-13.605-18.074-16.245-7.107-5.483-29.039-19.394-42.543-27.009-8.834-4.975-9.24-5.28-11.474-11.067-1.218-3.249-3.858-12.794-5.787-21.12-4.163-17.971-8.631-33.202-13.2-45.183-5.889-15.129-11.473-35.639-13.199-48.23-2.133-15.737-8.834-37.77-14.114-46.096-1.32-2.031-4.772-7.819-7.717-12.794-6.904-11.677-15.027-20.815-23.15-25.892-3.553-2.233-6.803-4.061-7.412-4.061-.508 0-.914-.71-.914-1.625 0-.812-.406-1.32-1.015-.913-.508.304-3.148-.61-5.991-2.031-2.741-1.523-6.295-2.843-7.919-3.046-1.523-.203-4.874-.812-7.413-1.422-2.538-.609-4.772-1.015-5.076-1.015-.305.101-1.422.305-2.539.61m-21.525 3.046c-.711.203-2.132.203-3.046 0-1.016-.304-.406-.507 1.218-.507 1.726 0 2.437.203 1.828.507m155.349 320.244c3.452 1.726 11.778 7.615 18.48 12.996 6.701 5.382 14.925 11.778 18.276 14.317 10.864 8.021 15.738 12.387 15.129 13.301-1.625 2.64-28.836 14.519-47.62 20.713-17.16 5.788-35.03 10.661-38.482 10.661h-2.843l.711-8.427c.406-5.178 1.421-9.544 2.639-11.677 1.016-1.827 1.93-4.569 1.93-6.092s.812-4.975 1.929-7.818c1.827-4.874 3.757-6.803 5.077-4.874 1.421 2.031 7.31 5.483 8.935 5.179 1.218-.204.203-1.422-3.554-4.265-4.061-2.945-5.178-4.366-4.671-5.584.508-.914.813-3.351.813-5.483 0-2.031.101-3.757.203-3.757.203 0 1.726 2.031 3.553 4.569 1.828 2.538 3.96 4.569 4.773 4.569.71 0 1.218-.305 1.015-.812-2.945-5.991-5.889-12.794-5.889-13.505 0-.507.914-.913 2.031-.913s2.03-.711 2.03-1.523c0-.711.61-1.828 1.422-2.234.711-.406 2.538-3.452 4.061-6.702 1.422-3.147 2.843-5.787 3.148-5.787.304 0 3.452 1.421 6.904 3.148m-266.734 12.285c-2.843 13.403-2.843 20.003 0 27.517 1.32 3.553 8.631 14.824 13.606 21.017 1.218 1.422 2.741 5.483 3.554 8.935.812 3.554 2.437 8.123 3.553 10.357s2.031 5.077 2.031 6.397c0 1.421.711 4.163 1.625 6.295 2.03 5.077 1.117 16.753-1.523 16.753s-18.987-8.732-29.547-15.738c-9.037-6.092-27.313-21.83-37.467-32.288l-4.467-4.67 4.975-5.89c7.209-8.63 31.577-33.506 37.263-37.974 6.093-4.874 7.311-4.975 6.397-.711"/><path fill="#301F36" d="M319.329.608c-1.116.305-3.046 1.422-4.264 2.64-1.32 1.117-2.335 1.523-2.335.914 0-.71-.406-1.218-1.016-1.218-.507 0-.913.507-.71 1.116.406 2.133-2.133 2.133-2.843 0-.407-1.218-1.219-1.827-2.133-1.421-.71.305-1.421 0-1.421-.61 0-1.928-10.255-1.218-15.231 1.016-10.153 4.57-28.429 20.815-28.429 25.283 0 .406-.711 1.32-1.625 2.132-2.945 2.437-12.387 22.744-16.753 35.943-5.788 17.566-9.037 39.802-8.631 59.399.406 15.941-.812 27.617-3.554 35.842-1.015 3.147-1.929 6.498-1.929 7.412 0 3.655-7.514 23.962-13.606 36.248-6.092 12.692-11.169 20.003-13.808 20.003-2.133 0-18.48 11.168-27.415 18.682-16.449 13.707-23.556 21.83-36.858 41.731-3.655 5.585-10.052 13.809-14.011 18.277-9.443 10.661-29.547 37.466-35.64 47.518-5.889 9.748-10.864 21.526-12.184 29.04-1.624 8.935 0 13.199 8.123 21.322 24.978 24.673 39.294 34.827 70.263 49.956 11.473 5.685 24.368 12.285 28.734 14.824 7.819 4.67 7.819 4.67 7.819 8.935 0 2.335.71 8.326 1.624 13.301s2.031 11.575 2.437 14.621c.508 3.046 1.32 7.412 1.929 9.646s1.117 10.052 1.117 17.464c0 16.55 1.726 21.729 5.28 16.347l1.523-2.335 1.625 3.249c.913 1.726 2.335 3.351 3.147 3.655 1.32.508 1.219 1.32-.609 5.382-1.726 3.96-2.031 6.194-1.625 12.387.508 6.803.305 8.022-1.827 11.169-1.625 2.335-2.437 4.975-2.437 7.717 0 2.538-1.015 5.99-2.437 8.732-6.092 11.067-6.904 13.301-6.194 17.058.61 3.96-3.046 30.258-6.599 46.909-6.093 28.633-11.169 57.47-12.692 71.583-.305 3.351-1.727 11.981-3.046 19.292-1.32 7.209-2.742 18.885-3.047 25.891-.406 7.108-1.523 15.332-2.538 18.784-4.061 13.911-4.061 13.505-6.803 49.347-.406 5.889-.812 6.904-2.944 7.92-2.742 1.218-4.569 4.975-4.366 9.036.101 1.523-.813 4.874-2.031 7.514s-3.148 9.037-4.265 14.215-3.147 12.996-4.569 17.464c-1.726 5.584-2.741 12.083-3.452 22.338-1.624 22.947-2.234 25.79-8.021 36.553-2.843 5.279-6.702 12.895-8.428 17.058-3.147 7.209-3.249 7.818-3.147 20.713.101 10.868.406 13.908 1.929 16.038 1.624 2.64 1.624 2.75-.305 3.25-2.437.71-3.249 3.86-3.452 12.8-.203 8.02-1.726 11.88-6.498 16.24-4.163 3.76-5.483 7.01-7.209 17.57-.305 2.23-1.422 7.51-2.437 11.68-1.015 4.16-2.132 8.73-2.437 10.15s-2.64 5.08-5.178 8.12c-2.539 3.05-6.6 9.24-8.935 13.71-7.21 13.71-22.338 26.5-41.63 35.23-11.778 5.28-25.587 13.3-29.851 17.36-4.57 4.27-6.702 9.24-5.89 13.51.407 2.64.204 3.65-1.015 4.06-1.93.81-1.93 3.76 0 7.51 1.523 2.85 1.422 3.05-1.523 5.28C.711 1192.74 0 1194.16 0 1196.6c0 4.77 3.35 11.77 7.006 14.92 4.57 3.76 9.138 4.88 22.642 5.48 10.459.51 12.997.21 22.44-2.13 5.889-1.42 11.27-2.64 12.083-2.64.812 0 5.178-1.82 9.848-4.06 4.57-2.23 8.936-4.06 9.646-4.06s2.133-1.02 3.25-2.13c1.015-1.22 3.553-3.25 5.482-4.47 1.93-1.32 6.499-4.98 10.154-8.12 9.646-8.53 25.79-15.13 30.562-12.59 1.016.5 3.249.91 4.874.91 4.467 0 25.993-5.79 32.187-8.53 7.209-3.35 13.402-9.14 14.621-13.81 1.117-4.16 0-15.53-1.929-19.09-.61-1.21-1.117-4.06-1.117-6.49 0-2.75-.914-5.99-2.539-8.84-1.726-2.94-2.538-5.89-2.538-9.14 0-5.58-2.234-13.8-5.584-20.4-1.422-2.85-2.539-7.52-2.945-12.19-.914-9.75.914-15.03 7.006-21.32 3.96-3.96 4.569-5.28 4.772-9.14.102-2.54.914-5.99 1.828-7.61 2.538-4.37 8.123-12.6 9.036-13.1.508-.31 1.422-2.74 2.133-5.38.71-2.75 2.132-5.79 3.147-6.91 1.016-1.12 2.945-4.67 4.468-7.92 2.437-5.68 3.554-9.238 5.686-18.986.609-2.538 2.335-7.818 3.96-11.676 5.686-13.809 16.245-45.59 16.245-48.839 0-.711 1.422-4.061 3.046-7.31 1.828-3.554 3.047-7.616 3.047-9.849 0-4.366 3.655-15.332 5.99-18.074.812-1.015 1.828-4.873 2.234-8.732.508-4.975 1.625-8.326 3.96-12.184 1.726-3.046 3.554-7.717 4.061-10.458 1.523-7.514 4.468-16.652 9.138-27.922 2.336-5.483 5.483-13.2 7.108-17.058 1.625-3.96 5.991-14.926 9.747-24.369 3.656-9.544 7.92-19.393 9.545-21.932 4.67-7.615 13.098-26.602 18.276-41.02 4.366-12.184 5.077-14.012 5.585-13.606.304.406 2.03 13.504 3.655 28.836.406 4.468 1.421 10.357 2.234 13.2.812 2.741 2.03 10.052 2.64 16.246.913 7.818 2.436 14.722 5.279 23.353 9.342 28.024 9.24 27.516 8.022 37.06-.711 4.772-1.523 10.662-2.031 13.2s-.812 8.935-.711 14.316c.203 8.936.406 10.052 3.046 13.505 1.625 2.03 4.163 4.67 5.788 5.787 2.843 2.132 2.843 2.336 2.335 9.443-.507 6.803-.304 8.021 3.249 16.956l3.859 9.545-1.32 7.107c-1.726 9.24-2.64 39.904-1.219 41.325.61.61.406 2.031-.71 4.163-1.828 3.757-1.828 16.652 0 26.095.609 3.046.913 7.918.507 10.758-.711 5.79-.101 8.53 1.929 8.53.914 0 1.219 11.38 1.016 53.11-.203 48.23-.305 53.4-2.031 57.97-2.538 7.01-1.726 24.98 1.422 31.18 2.436 4.67 2.132 6.09-1.117 4.06-2.031-1.22-2.031-1.12-1.219 1.62.914 3.45.914 6.19-.101 13.3-.711 4.57-1.016 5.28-2.64 4.77-4.569-1.52.609 8.53 6.904 13.31 5.28 4.06 11.677 5.48 24.572 5.48 9.341 0 10.458-.2 17.159-3.56 12.794-6.39 24.064-21.42 26.704-35.33.914-5.08.812-6.29-.507-7.72-1.117-1.21-1.625-3.75-1.625-7.81 0-3.25-.711-8.53-1.625-11.58-.913-3.05-1.726-6.5-1.827-7.72-.102-1.11-.711-2.74-1.219-3.55-.507-.71-.914-12.39-.914-25.79-.101-22.64-.203-24.88-2.335-31.27-2.031-6.1-2.234-7.62-1.32-12.09 1.016-4.36.812-5.68-.914-9.64l-2.03-4.57 3.249-3.76c1.726-2.03 5.889-6.19 9.138-9.24 6.295-5.99 8.123-10.15 9.544-21.02.508-4.46.305-5.783-1.117-7.407-1.624-1.828-1.726-2.742-.507-10.865.609-4.975 1.624-12.59 2.03-17.058.914-8.63 2.031-15.839 4.163-27.414 1.523-7.92 1.625-58.586.204-78.284-.61-9.138-1.219-11.778-2.843-13.606-1.93-2.132-2.133-3.249-4.468-24.369-.406-4.163-1.32-8.529-1.828-9.645-.609-1.117-1.523-7.006-1.929-12.895l-.711-10.865 6.194-10.458c7.514-12.692 9.138-18.683 10.255-37.06l.812-14.012 6.194-13.911c7.717-17.667 14.012-36.451 16.043-48.026 2.437-14.317 3.35-21.932 3.452-27.009 0-3.35.609-5.178 2.031-6.498 5.584-5.077 6.701-23.252 2.03-33.608-1.421-3.351-2.233-6.905-2.132-11.068 0-3.35-.914-9.544-2.031-13.707-3.046-12.184-11.372-53.814-11.879-59.804-.609-7.616.711-8.326 6.6-3.453 2.639 2.234 6.092 4.874 7.615 5.788 4.061 2.64 4.569.203.914-4.061-3.351-3.757-4.163-7.514-1.625-7.514 2.741 0 1.625-2.538-3.452-8.224-13.911-15.637-23.658-33-24.775-44.372l-.711-6.295h2.945c1.523 0 4.163-1.015 5.686-2.234 2.437-1.929 2.741-2.639 2.132-6.599-.304-2.336-.304-4.366 0-4.366.203 0 8.631-1.117 18.48-2.437 9.849-1.422 22.337-3.046 27.617-3.656 33.609-3.959 55.337-10.661 83.259-25.891 7.514-4.163 16.348-8.428 19.495-9.646 7.615-2.843 10.56-6.397 11.575-13.809 1.32-10.966-3.756-23.15-16.144-38.583-14.113-17.566-31.882-34.522-56.86-54.525-6.092-4.772-16.347-13.91-22.845-20.206-6.6-6.295-14.723-13.605-18.074-16.245-7.107-5.483-29.039-19.394-42.543-27.009-8.834-4.975-9.24-5.28-11.474-11.067-1.218-3.249-3.858-12.794-5.787-21.12-4.163-17.971-8.631-33.202-13.2-45.183-5.889-15.129-11.473-35.639-13.199-48.23-2.133-15.737-8.834-37.77-14.114-46.097-1.32-2.03-4.772-7.818-7.716-12.793-6.905-11.676-15.028-20.815-23.151-25.891-3.553-2.234-6.802-4.062-7.412-4.062-.507 0-.913-.71-.913-1.625 0-.812-.407-1.32-1.016-.913-.508.304-3.147-.61-5.99-2.031-2.742-1.523-6.296-2.843-7.92-3.046-1.523-.203-4.874-.812-7.412-1.422S322.172 0 321.868 0c-.305.102-1.422.305-2.539.61m-21.525 3.046c-.711.203-2.132.203-3.046 0-1.015-.304-.406-.507 1.218-.507 1.726 0 2.437.203 1.828.507m155.349 320.244c3.453 1.726 11.779 7.615 18.48 12.996s14.926 11.778 18.276 14.317c10.865 8.021 15.738 12.387 15.129 13.301-1.624 2.64-28.836 14.52-47.62 20.713-17.16 5.788-35.03 10.661-38.482 10.661h-2.843l.711-8.427c.406-5.178 1.421-9.544 2.64-11.677 1.015-1.827 1.929-4.569 1.929-6.092s.812-4.975 1.929-7.818c1.828-4.874 3.757-6.803 5.077-4.874 1.421 2.031 7.31 5.483 8.935 5.179 1.218-.203.203-1.422-3.554-4.265-4.061-2.944-5.178-4.366-4.671-5.584.508-.914.813-3.351.813-5.483 0-2.031.101-3.757.203-3.757.203 0 1.726 2.031 3.554 4.569s3.959 4.569 4.772 4.569c.711 0 1.218-.305 1.015-.812-2.944-5.991-5.889-12.794-5.889-13.504 0-.508.914-.914 2.031-.914s2.03-.711 2.03-1.523c0-.711.61-1.828 1.422-2.234.711-.406 2.538-3.452 4.061-6.701 1.422-3.148 2.843-5.788 3.148-5.788s3.452 1.422 6.904 3.148m-266.734 12.285c-2.843 13.403-2.843 20.003 0 27.517 1.32 3.553 8.631 14.824 13.606 21.018 1.219 1.421 2.742 5.482 3.554 8.935.812 3.553 2.437 8.122 3.554 10.356s2.03 5.077 2.03 6.397c0 1.421.711 4.163 1.625 6.295 2.031 5.077 1.117 16.754-1.523 16.754s-18.987-8.733-29.547-15.738c-9.037-6.093-27.313-21.831-37.467-32.289l-4.467-4.67 4.975-5.889c7.209-8.631 31.578-33.507 37.264-37.975 6.092-4.873 7.31-4.975 6.396-.711"/></g><defs><clipPath id="a"><path fill="#fff" d="M0 0h623v859H0z"/></clipPath></defs></svg>