<svg width="623" height="859" viewBox="0 0 623 859" fill="none" xmlns="http://www.w3.org/2000/svg">
<g clip-path="url(#clip0_1092_3394)">
<path d="M339.128 0.61214C338.011 0.916746 336.082 2.03364 334.864 3.25207C333.544 4.36896 332.529 4.7751 332.529 4.16589C332.529 3.45514 332.122 2.94746 331.513 2.94746C331.005 2.94746 330.599 3.45514 330.802 4.06435C331.209 6.1966 328.67 6.1966 327.959 4.06435C327.553 2.84592 326.741 2.23671 325.827 2.64285C325.116 2.94746 324.406 2.64285 324.406 2.03364C324.406 0.104461 314.151 0.815211 309.175 3.04899C299.022 7.6181 280.745 23.8638 280.745 28.3314C280.745 28.7375 280.035 29.6513 279.121 30.4636C276.176 32.9005 266.733 53.2076 262.367 66.4072C256.58 83.9729 253.331 106.209 253.737 125.806C254.143 141.747 252.925 153.423 250.183 161.648C249.168 164.795 248.254 168.146 248.254 169.06C248.254 172.715 240.74 193.022 234.648 205.308C228.556 218 223.479 225.31 220.839 225.31C218.707 225.31 202.36 236.479 193.425 243.993C176.976 257.7 169.868 265.823 156.567 285.724C152.912 291.309 146.515 299.533 142.555 304.001C133.113 314.662 113.009 341.467 106.916 351.519C101.027 361.267 96.0521 373.045 94.7321 380.558C93.1075 389.494 94.7321 393.758 102.855 401.881C127.833 426.554 142.149 436.708 173.118 451.836C184.591 457.522 197.486 464.122 201.852 466.661C209.67 471.331 209.67 471.331 209.67 475.596C209.67 477.931 210.381 483.922 211.295 488.897C212.209 493.872 213.326 500.472 213.732 503.518C214.24 506.564 215.052 510.93 215.661 513.164C216.27 515.398 216.778 523.216 216.778 530.628C216.778 547.178 218.504 552.357 222.058 546.975L223.581 544.64L225.205 547.889C226.119 549.615 227.541 551.24 228.353 551.544C229.673 552.052 229.571 552.864 227.744 556.926C226.018 560.886 225.713 563.119 226.119 569.313C226.627 576.116 226.424 577.334 224.292 580.482C222.667 582.817 221.855 585.457 221.855 588.199C221.855 590.737 220.839 594.189 219.418 596.931C213.326 607.998 212.513 610.232 213.224 613.989C213.833 617.949 210.178 644.246 206.624 660.898C200.532 689.531 195.455 718.367 193.932 732.481C193.628 735.832 192.206 744.462 190.886 751.773C189.566 758.982 188.145 770.658 187.84 777.664C187.434 784.772 186.317 792.996 185.302 796.448C181.24 810.359 181.24 809.953 178.499 845.795C178.093 851.684 177.687 852.699 175.554 853.714C172.813 854.933 170.985 858.69 171.188 862.751C171.29 864.274 170.376 867.625 169.158 870.265C167.939 872.905 166.01 879.301 164.893 884.48C163.776 889.658 161.746 897.476 160.324 901.944C158.598 907.528 157.583 914.027 156.872 924.282C155.247 947.229 154.638 950.072 148.851 960.835C146.008 966.114 142.149 973.73 140.423 977.893C137.276 985.102 137.174 985.711 137.276 998.606C137.377 1009.47 137.682 1012.52 139.205 1014.65C140.829 1017.29 140.829 1017.39 138.9 1017.9C136.463 1018.61 135.651 1021.76 135.448 1030.69C135.245 1038.71 133.722 1042.57 128.95 1046.94C124.787 1050.69 123.467 1053.94 121.741 1064.5C121.436 1066.74 120.319 1072.02 119.304 1076.18C118.288 1080.34 117.171 1084.91 116.867 1086.33C116.562 1087.75 114.227 1091.41 111.689 1094.46C109.15 1097.5 105.089 1103.7 102.753 1108.16C95.5444 1121.87 80.4156 1134.66 61.1238 1143.4C49.3457 1148.68 35.5368 1156.7 31.2724 1160.76C26.7032 1165.02 24.571 1170 25.3833 1174.26C25.7894 1176.9 25.5864 1177.92 24.3679 1178.32C22.4388 1179.14 22.4388 1182.08 24.3679 1185.84C25.891 1188.68 25.7894 1188.88 22.8449 1191.12C20.5096 1192.74 19.7988 1194.16 19.7988 1196.6C19.7988 1201.37 23.1495 1208.38 26.8048 1211.53C31.3739 1215.28 35.943 1216.4 49.4472 1217.01C59.9054 1217.52 62.4438 1217.21 71.8866 1214.88C77.7757 1213.46 83.157 1212.24 83.9693 1212.24C84.7816 1212.24 89.1477 1210.41 93.8183 1208.18C98.3874 1205.94 102.753 1204.11 103.464 1204.11C104.175 1204.11 105.596 1203.1 106.713 1201.98C107.729 1200.76 110.267 1198.73 112.196 1197.51C114.125 1196.19 118.695 1192.54 122.35 1189.39C131.996 1180.86 148.14 1174.26 152.912 1176.8C153.927 1177.31 156.161 1177.71 157.786 1177.71C162.253 1177.71 183.779 1171.93 189.973 1169.19C197.182 1165.83 203.375 1160.05 204.594 1155.38C205.711 1151.21 204.594 1139.84 202.664 1136.29C202.055 1135.07 201.548 1132.23 201.548 1129.79C201.548 1127.05 200.634 1123.8 199.009 1120.96C197.283 1118.01 196.471 1115.07 196.471 1111.82C196.471 1106.23 194.237 1098.01 190.886 1091.41C189.465 1088.57 188.348 1083.9 187.942 1079.23C187.028 1069.48 188.856 1064.2 194.948 1057.9C198.908 1053.94 199.517 1052.62 199.72 1048.76C199.821 1046.23 200.634 1042.77 201.548 1041.15C204.086 1036.78 209.67 1028.56 210.584 1028.05C211.092 1027.75 212.006 1025.31 212.716 1022.67C213.427 1019.93 214.849 1016.88 215.864 1015.77C216.879 1014.65 218.809 1011.09 220.332 1007.85C222.769 1002.16 223.885 998.606 226.018 988.858C226.627 986.32 228.353 981.04 229.978 977.182C235.664 963.373 246.223 931.592 246.223 928.343C246.223 927.632 247.645 924.282 249.269 921.033C251.097 917.479 252.315 913.417 252.315 911.184C252.315 906.818 255.971 895.852 258.306 893.11C259.118 892.095 260.134 888.237 260.54 884.378C261.047 879.403 262.164 876.052 264.5 872.194C266.226 869.148 268.053 864.477 268.561 861.736C270.084 854.222 273.029 845.084 277.699 833.813C280.035 828.331 283.182 820.614 284.807 816.755C286.431 812.796 290.797 801.83 294.554 792.387C298.209 782.843 302.474 772.994 304.099 770.455C308.769 762.84 317.197 743.853 322.375 729.435C326.741 717.251 327.452 715.423 327.959 715.829C328.264 716.235 329.99 729.333 331.615 744.665C332.021 749.133 333.036 755.022 333.848 757.865C334.661 760.606 335.879 767.917 336.488 774.11C337.402 781.929 338.925 788.833 341.768 797.464C351.11 825.488 351.008 824.98 349.79 834.524C349.079 839.296 348.267 845.185 347.759 847.724C347.251 850.262 346.947 856.659 347.048 862.04C347.251 870.975 347.454 872.092 350.094 875.545C351.719 877.575 354.257 880.215 355.882 881.332C358.725 883.464 358.725 883.667 358.217 890.775C357.709 897.578 357.912 898.796 361.466 907.731L365.325 917.276L364.005 924.383C362.278 933.623 361.365 964.287 362.786 965.708C363.395 966.317 363.192 967.739 362.075 969.871C360.248 973.628 360.248 986.523 362.075 995.966C362.685 999.012 362.989 1003.89 362.583 1006.73C361.872 1012.52 362.482 1015.26 364.512 1015.26C365.426 1015.26 365.731 1026.63 365.528 1068.36C365.325 1116.59 365.223 1121.77 363.497 1126.34C360.958 1133.34 361.771 1151.32 364.918 1157.51C367.355 1162.18 367.051 1163.6 363.801 1161.57C361.771 1160.35 361.771 1160.45 362.583 1163.2C363.497 1166.65 363.497 1169.39 362.482 1176.5C361.771 1181.07 361.466 1181.78 359.842 1181.27C355.272 1179.75 360.451 1189.8 366.746 1194.57C372.026 1198.63 378.423 1200.05 391.318 1200.05C400.659 1200.05 401.776 1199.85 408.477 1196.5C421.271 1190.1 432.541 1175.07 435.181 1161.16C436.095 1156.09 435.993 1154.87 434.673 1153.45C433.556 1152.23 433.049 1149.69 433.049 1145.63C433.049 1142.38 432.338 1137.1 431.424 1134.05C430.51 1131.01 429.698 1127.56 429.597 1126.34C429.495 1125.22 428.886 1123.6 428.378 1122.78C427.87 1122.07 427.464 1110.4 427.464 1096.99C427.363 1074.35 427.261 1072.12 425.129 1065.72C423.098 1059.63 422.895 1058.11 423.809 1053.64C424.824 1049.27 424.621 1047.95 422.895 1043.99L420.864 1039.42L424.114 1035.67C425.84 1033.64 430.003 1029.47 433.252 1026.43C439.547 1020.44 441.375 1016.27 442.796 1005.41C443.304 1000.94 443.101 999.621 441.679 997.997C440.055 996.169 439.953 995.255 441.172 987.132C441.781 982.157 442.796 974.542 443.202 970.074C444.116 961.444 445.233 954.235 447.365 942.66C448.888 934.74 448.99 884.074 447.568 864.376C446.959 855.237 446.35 852.598 444.725 850.77C442.796 848.638 442.593 847.521 440.258 826.401C439.852 822.238 438.938 817.872 438.43 816.755C437.821 815.639 436.907 809.75 436.501 803.86L435.79 792.996L441.984 782.538C449.498 769.846 451.122 763.855 452.239 745.477L453.051 731.466L459.245 717.555C466.962 699.888 473.257 681.104 475.288 669.529C477.724 655.212 478.638 647.597 478.74 642.52C478.74 639.17 479.349 637.342 480.771 636.022C486.355 630.945 487.472 612.77 482.801 602.414C481.38 599.063 480.567 595.509 480.669 591.346C480.669 587.996 479.755 581.802 478.638 577.639C475.592 565.455 467.266 523.825 466.759 517.835C466.149 510.219 467.469 509.509 473.358 514.382C475.998 516.616 479.451 519.256 480.974 520.17C485.035 522.81 485.543 520.373 481.887 516.108C478.537 512.352 477.724 508.595 480.263 508.595C483.004 508.595 481.887 506.056 476.811 500.37C462.9 484.734 453.153 467.371 452.036 455.999L451.325 449.704H454.27C455.793 449.704 458.433 448.689 459.956 447.47C462.393 445.541 462.697 444.83 462.088 440.871C461.783 438.535 461.783 436.505 462.088 436.505C462.291 436.505 470.718 435.388 480.567 434.068C490.416 432.646 502.905 431.022 508.185 430.412C541.793 426.453 563.522 419.751 591.444 404.521C598.958 400.358 607.792 396.093 610.939 394.875C618.554 392.032 621.499 388.478 622.514 381.066C623.834 370.1 618.757 357.916 606.37 342.483C592.257 324.917 574.488 307.96 549.51 287.958C543.418 283.186 533.163 274.048 526.665 267.752C520.065 261.457 511.942 254.147 508.591 251.507C501.484 246.024 479.552 232.113 466.048 224.498C457.214 219.523 456.808 219.218 454.574 213.431C453.356 210.182 450.716 200.637 448.787 192.311C444.624 174.34 440.156 159.109 435.587 147.128C429.698 131.999 424.114 111.489 422.388 98.8986C420.255 83.1606 413.554 61.1274 408.274 52.8015C406.954 50.7707 403.502 44.9832 400.557 40.008C393.653 28.3314 385.53 19.1932 377.407 14.1164C373.854 11.8826 370.604 10.055 369.995 10.055C369.487 10.055 369.081 9.3442 369.081 8.43038C369.081 7.6181 368.675 7.11042 368.066 7.51656C367.558 7.82117 364.918 6.90735 362.075 5.48585C359.334 3.96282 355.78 2.64285 354.156 2.43978C352.633 2.23671 349.282 1.6275 346.743 1.01828C344.205 0.409068 341.971 0.00292584 341.667 0.00292584C341.362 0.104461 340.245 0.307533 339.128 0.61214ZM317.603 3.65821C316.892 3.86128 315.471 3.86128 314.557 3.65821C313.541 3.3536 314.151 3.15053 315.775 3.15053C317.501 3.15053 318.212 3.3536 317.603 3.65821ZM472.952 323.902C476.404 325.628 484.73 331.517 491.432 336.898C498.133 342.28 506.357 348.676 509.708 351.215C520.572 359.236 525.446 363.602 524.837 364.516C523.212 367.156 496.001 379.035 477.217 385.229C460.057 391.017 442.187 395.89 438.735 395.89H435.892L436.603 387.463C437.009 382.285 438.024 377.919 439.242 375.786C440.258 373.959 441.172 371.217 441.172 369.694C441.172 368.171 441.984 364.719 443.101 361.876C444.928 357.002 446.858 355.073 448.178 357.002C449.599 359.033 455.488 362.485 457.113 362.181C458.331 361.977 457.316 360.759 453.559 357.916C449.498 354.971 448.381 353.55 448.888 352.332C449.396 351.418 449.701 348.981 449.701 346.849C449.701 344.818 449.802 343.092 449.904 343.092C450.107 343.092 451.63 345.123 453.457 347.661C455.285 350.199 457.417 352.23 458.23 352.23C458.94 352.23 459.448 351.925 459.245 351.418C456.3 345.427 453.356 338.624 453.356 337.913C453.356 337.406 454.27 337 455.387 337C456.503 337 457.417 336.289 457.417 335.477C457.417 334.766 458.027 333.649 458.839 333.243C459.55 332.837 461.377 329.791 462.9 326.541C464.322 323.394 465.743 320.754 466.048 320.754C466.352 320.754 469.5 322.175 472.952 323.902ZM206.218 336.187C203.375 349.59 203.375 356.19 206.218 363.704C207.538 367.257 214.849 378.528 219.824 384.721C221.042 386.143 222.565 390.204 223.378 393.656C224.19 397.21 225.815 401.779 226.931 404.013C228.048 406.247 228.962 409.09 228.962 410.41C228.962 411.831 229.673 414.573 230.587 416.705C232.617 421.782 231.704 433.458 229.064 433.458C226.424 433.458 210.077 424.726 199.517 417.72C190.48 411.628 172.204 395.89 162.05 385.432L157.583 380.762L162.558 374.872C169.767 366.242 194.135 341.366 199.821 336.898C205.914 332.024 207.132 331.923 206.218 336.187Z" fill="#955AB1"/>
<path d="M319.329 0.608233C318.213 0.91284 316.283 2.02973 315.065 3.24816C313.745 4.36505 312.73 4.77119 312.73 4.16198C312.73 3.45123 312.324 2.94355 311.714 2.94355C311.207 2.94355 310.801 3.45123 311.004 4.06044C311.41 6.19269 308.871 6.19269 308.161 4.06044C307.754 2.84202 306.942 2.2328 306.028 2.63895C305.318 2.94355 304.607 2.63895 304.607 2.02973C304.607 0.100555 294.352 0.811305 289.376 3.04509C279.223 7.61419 260.947 23.8599 260.947 28.3275C260.947 28.7336 260.236 29.6474 259.322 30.4597C256.377 32.8966 246.935 53.2037 242.569 66.4033C236.781 83.969 233.532 106.205 233.938 125.802C234.344 141.743 233.126 153.419 230.384 161.644C229.369 164.791 228.455 168.142 228.455 169.056C228.455 172.711 220.941 193.018 214.849 205.304C208.757 217.996 203.68 225.307 201.041 225.307C198.908 225.307 182.561 236.475 173.626 243.989C157.177 257.696 150.07 265.819 136.768 285.72C133.113 291.305 126.716 299.529 122.757 303.997C113.314 314.658 93.2097 341.463 87.1176 351.515C81.2285 361.263 76.2532 373.041 74.9333 380.555C73.3087 389.49 74.9333 393.754 83.0561 401.877C108.034 426.55 122.35 436.704 153.319 451.833C164.792 457.518 177.687 464.118 182.053 466.657C189.872 471.327 189.872 471.327 189.872 475.592C189.872 477.927 190.582 483.918 191.496 488.893C192.41 493.868 193.527 500.468 193.933 503.514C194.441 506.56 195.253 510.926 195.862 513.16C196.471 515.394 196.979 523.212 196.979 530.624C196.979 547.174 198.705 552.353 202.259 546.971L203.782 544.636L205.407 547.885C206.32 549.611 207.742 551.236 208.554 551.54C209.874 552.048 209.773 552.86 207.945 556.922C206.219 560.882 205.914 563.116 206.32 569.309C206.828 576.112 206.625 577.331 204.493 580.478C202.868 582.813 202.056 585.453 202.056 588.195C202.056 590.733 201.041 594.185 199.619 596.927C193.527 607.994 192.715 610.228 193.425 613.985C194.035 617.945 190.379 644.243 186.826 660.894C180.733 689.527 175.657 718.364 174.134 732.477C173.829 735.828 172.407 744.458 171.088 751.769C169.768 758.978 168.346 770.654 168.041 777.66C167.635 784.768 166.518 792.992 165.503 796.444C161.442 810.355 161.442 809.949 158.7 845.791C158.294 851.68 157.888 852.695 155.756 853.711C153.014 854.929 151.187 858.686 151.39 862.747C151.491 864.27 150.577 867.621 149.359 870.261C148.14 872.901 146.211 879.298 145.094 884.476C143.977 889.654 141.947 897.472 140.525 901.94C138.799 907.524 137.784 914.023 137.073 924.278C135.449 947.225 134.839 950.068 129.052 960.831C126.209 966.11 122.35 973.726 120.624 977.889C117.477 985.098 117.375 985.707 117.477 998.602C117.578 1009.47 117.883 1012.51 119.406 1014.64C121.03 1017.28 121.03 1017.39 119.101 1017.89C116.664 1018.6 115.852 1021.75 115.649 1030.69C115.446 1038.71 113.923 1042.57 109.151 1046.93C104.988 1050.69 103.668 1053.94 101.942 1064.5C101.637 1066.73 100.52 1072.01 99.5049 1076.18C98.4895 1080.34 97.3727 1084.91 97.068 1086.33C96.7634 1087.75 94.4281 1091.41 91.8897 1094.45C89.3513 1097.5 85.2899 1103.69 82.9546 1108.16C75.7456 1121.87 60.6168 1134.66 41.325 1143.39C29.5469 1148.67 15.738 1156.69 11.4735 1160.75C6.90442 1165.02 4.77217 1169.99 5.58446 1174.26C5.9906 1176.9 5.78753 1177.91 4.5691 1178.32C2.63993 1179.13 2.63993 1182.08 4.5691 1185.83C6.09214 1188.68 5.9906 1188.88 3.04607 1191.11C0.710749 1192.74 0 1194.16 0 1196.6C0 1201.37 3.35068 1208.37 7.00596 1211.52C11.5751 1215.28 16.1442 1216.4 29.6484 1217C40.1066 1217.51 42.645 1217.21 52.0878 1214.87C57.9768 1213.45 63.3582 1212.23 64.1705 1212.23C64.9828 1212.23 69.3488 1210.41 74.0195 1208.17C78.5886 1205.94 82.9546 1204.11 83.6653 1204.11C84.3761 1204.11 85.7976 1203.09 86.9145 1201.98C87.9298 1200.76 90.4682 1198.73 92.3974 1197.51C94.3266 1196.19 98.8957 1192.53 102.551 1189.39C112.197 1180.86 128.341 1174.26 133.113 1176.8C134.129 1177.3 136.362 1177.71 137.987 1177.71C142.454 1177.71 163.98 1171.92 170.174 1169.18C177.383 1165.83 183.576 1160.04 184.795 1155.37C185.912 1151.21 184.795 1139.84 182.866 1136.28C182.256 1135.07 181.749 1132.22 181.749 1129.79C181.749 1127.04 180.835 1123.8 179.21 1120.95C177.484 1118.01 176.672 1115.06 176.672 1111.81C176.672 1106.23 174.438 1098.01 171.088 1091.41C169.666 1088.56 168.549 1083.89 168.143 1079.22C167.229 1069.47 169.057 1064.19 175.149 1057.9C179.109 1053.94 179.718 1052.62 179.921 1048.76C180.023 1046.22 180.835 1042.77 181.749 1041.15C184.287 1036.78 189.872 1028.55 190.785 1028.05C191.293 1027.74 192.207 1025.31 192.918 1022.67C193.628 1019.92 195.05 1016.88 196.065 1015.76C197.081 1014.64 199.01 1011.09 200.533 1007.84C202.97 1002.16 204.087 998.602 206.219 988.854C206.828 986.316 208.554 981.036 210.179 977.178C215.865 963.369 226.424 931.588 226.424 928.339C226.424 927.628 227.846 924.278 229.47 921.029C231.298 917.475 232.517 913.413 232.517 911.18C232.517 906.814 236.172 895.848 238.507 893.106C239.319 892.091 240.335 888.233 240.741 884.374C241.249 879.399 242.366 876.048 244.701 872.19C246.427 869.144 248.255 864.473 248.762 861.732C250.285 854.218 253.23 845.08 257.9 833.81C260.236 828.327 263.383 820.61 265.008 816.752C266.633 812.792 270.999 801.826 274.755 792.383C278.411 782.839 282.675 772.99 284.3 770.451C288.97 762.836 297.398 743.849 302.576 729.431C306.942 717.247 307.653 715.419 308.161 715.825C308.465 716.231 310.191 729.329 311.816 744.661C312.222 749.129 313.237 755.018 314.05 757.861C314.862 760.602 316.08 767.913 316.69 774.107C317.603 781.925 319.126 788.829 321.969 797.46C331.311 825.484 331.209 824.976 329.991 834.52C329.28 839.292 328.468 845.182 327.96 847.72C327.452 850.258 327.148 856.655 327.249 862.036C327.452 870.972 327.655 872.088 330.295 875.541C331.92 877.571 334.458 880.211 336.083 881.328C338.926 883.46 338.926 883.664 338.418 890.771C337.911 897.574 338.114 898.792 341.667 907.727L345.526 917.272L344.206 924.379C342.48 933.619 341.566 964.283 342.987 965.704C343.597 966.314 343.393 967.735 342.277 969.867C340.449 973.624 340.449 986.519 342.277 995.962C342.886 999.008 343.19 1003.88 342.784 1006.72C342.073 1012.51 342.683 1015.25 344.713 1015.25C345.627 1015.25 345.932 1026.63 345.729 1068.36C345.526 1116.59 345.424 1121.76 343.698 1126.33C341.16 1133.34 341.972 1151.31 345.12 1157.51C347.556 1162.18 347.252 1163.6 344.003 1161.57C341.972 1160.35 341.972 1160.45 342.784 1163.19C343.698 1166.64 343.698 1169.38 342.683 1176.49C341.972 1181.06 341.667 1181.77 340.043 1181.26C335.474 1179.74 340.652 1189.79 346.947 1194.57C352.227 1198.63 358.624 1200.05 371.519 1200.05C380.86 1200.05 381.977 1199.85 388.678 1196.49C401.472 1190.1 412.742 1175.07 415.382 1161.16C416.296 1156.08 416.194 1154.87 414.875 1153.44C413.758 1152.23 413.25 1149.69 413.25 1145.63C413.25 1142.38 412.539 1137.1 411.625 1134.05C410.712 1131 409.899 1127.55 409.798 1126.33C409.696 1125.22 409.087 1123.59 408.579 1122.78C408.072 1122.07 407.665 1110.39 407.665 1096.99C407.564 1074.35 407.462 1072.11 405.33 1065.72C403.299 1059.62 403.096 1058.1 404.01 1053.63C405.026 1049.27 404.822 1047.95 403.096 1043.99L401.066 1039.42L404.315 1035.66C406.041 1033.63 410.204 1029.47 413.453 1026.42C419.748 1020.43 421.576 1016.27 422.997 1005.4C423.505 1000.94 423.302 999.617 421.88 997.993C420.256 996.165 420.154 995.251 421.373 987.128C421.982 982.153 422.997 974.538 423.403 970.07C424.317 961.44 425.434 954.231 427.566 942.656C429.089 934.736 429.191 884.07 427.77 864.372C427.16 855.234 426.551 852.594 424.927 850.766C422.997 848.634 422.794 847.517 420.459 826.397C420.053 822.234 419.139 817.868 418.631 816.752C418.022 815.635 417.108 809.746 416.702 803.857L415.991 792.992L422.185 782.534C429.699 769.842 431.323 763.851 432.44 745.474L433.252 731.462L439.446 717.551C447.163 699.884 453.458 681.1 455.489 669.525C457.926 655.208 458.839 647.593 458.941 642.516C458.941 639.166 459.55 637.338 460.972 636.018C466.556 630.941 467.673 612.766 463.002 602.41C461.581 599.059 460.769 595.505 460.87 591.342C460.87 587.992 459.956 581.798 458.839 577.635C455.793 565.451 447.467 523.821 446.96 517.831C446.351 510.215 447.671 509.505 453.56 514.378C456.199 516.612 459.652 519.252 461.175 520.166C465.236 522.806 465.744 520.369 462.089 516.105C458.738 512.348 457.926 508.591 460.464 508.591C463.205 508.591 462.089 506.053 457.012 500.367C443.101 484.73 433.354 467.367 432.237 455.995L431.526 449.7H434.471C435.994 449.7 438.634 448.685 440.157 447.466C442.594 445.537 442.898 444.827 442.289 440.867C441.985 438.531 441.985 436.501 442.289 436.501C442.492 436.501 450.92 435.384 460.769 434.064C470.618 432.642 483.106 431.018 488.386 430.408C521.995 426.449 543.723 419.747 571.645 404.517C579.159 400.354 587.993 396.089 591.14 394.871C598.755 392.028 601.7 388.474 602.715 381.062C604.035 370.096 598.959 357.912 586.571 342.479C572.458 324.913 554.689 307.957 529.711 287.954C523.619 283.182 513.364 274.044 506.866 267.748C500.266 261.453 492.143 254.143 488.792 251.503C481.685 246.02 459.753 232.109 446.249 224.494C437.415 219.519 437.009 219.214 434.775 213.427C433.557 210.178 430.917 200.633 428.988 192.307C424.825 174.336 420.357 159.105 415.788 147.124C409.899 131.995 404.315 111.485 402.589 98.8947C400.456 83.1567 393.755 61.1235 388.475 52.7975C387.155 50.7668 383.703 44.9793 380.759 40.0041C373.854 28.3275 365.731 19.1893 357.608 14.1125C354.055 11.8787 350.806 10.051 350.196 10.051C349.689 10.051 349.283 9.3403 349.283 8.42648C349.283 7.61419 348.876 7.10651 348.267 7.51266C347.759 7.81726 345.12 6.90344 342.277 5.48194C339.535 3.95891 335.981 2.63895 334.357 2.43587C332.834 2.2328 329.483 1.62359 326.945 1.01438C324.406 0.405162 322.172 -0.000980411 321.868 -0.000980411C321.563 0.100555 320.446 0.303626 319.329 0.608233ZM297.804 3.6543C297.093 3.85737 295.672 3.85737 294.758 3.6543C293.743 3.3497 294.352 3.14662 295.976 3.14662C297.702 3.14662 298.413 3.3497 297.804 3.6543ZM453.153 323.898C456.606 325.624 464.932 331.513 471.633 336.894C478.334 342.276 486.559 348.672 489.909 351.211C500.774 359.232 505.647 363.598 505.038 364.512C503.414 367.152 476.202 379.032 457.418 385.225C440.258 391.013 422.388 395.886 418.936 395.886H416.093L416.804 387.459C417.21 382.281 418.225 377.915 419.444 375.782C420.459 373.955 421.373 371.213 421.373 369.69C421.373 368.167 422.185 364.715 423.302 361.872C425.13 356.998 427.059 355.069 428.379 356.998C429.8 359.029 435.689 362.481 437.314 362.177C438.532 361.974 437.517 360.755 433.76 357.912C429.699 354.968 428.582 353.546 429.089 352.328C429.597 351.414 429.902 348.977 429.902 346.845C429.902 344.814 430.003 343.088 430.105 343.088C430.308 343.088 431.831 345.119 433.659 347.657C435.486 350.195 437.618 352.226 438.431 352.226C439.142 352.226 439.649 351.921 439.446 351.414C436.502 345.423 433.557 338.62 433.557 337.91C433.557 337.402 434.471 336.996 435.588 336.996C436.705 336.996 437.618 336.285 437.618 335.473C437.618 334.762 438.228 333.645 439.04 333.239C439.751 332.833 441.578 329.787 443.101 326.538C444.523 323.39 445.944 320.75 446.249 320.75C446.554 320.75 449.701 322.172 453.153 323.898ZM186.419 336.183C183.576 349.586 183.576 356.186 186.419 363.7C187.739 367.253 195.05 378.524 200.025 384.718C201.244 386.139 202.767 390.2 203.579 393.653C204.391 397.206 206.016 401.775 207.133 404.009C208.25 406.243 209.163 409.086 209.163 410.406C209.163 411.827 209.874 414.569 210.788 416.701C212.819 421.778 211.905 433.455 209.265 433.455C206.625 433.455 190.278 424.722 179.718 417.717C170.681 411.624 152.405 395.886 142.251 385.428L137.784 380.758L142.759 374.869C149.968 366.238 174.337 341.362 180.023 336.894C186.115 332.021 187.333 331.919 186.419 336.183Z" fill="#301F36"/>
</g>
<defs>
<clipPath id="clip0_1092_3394">
<rect width="623" height="859" fill="white"/>
</clipPath>
</defs>
</svg>
