<svg xmlns="http://www.w3.org/2000/svg" width="420" height="33" fill="none"><rect width="100%" height="100%"/><path stroke="#955AB1" stroke-linecap="round" stroke-width="2" d="M1 15.622c122.656-2.724 244.969-8.84 367.549-12.49 15.727-.469 31.5-.755 47.197-1.566 1.027-.053 4.072-.282 3.045-.333-11.898-.592-24.794.052-36.539.733-52.735 3.055-104.818 9.77-157.394 13.723-54.689 4.11-109.874 5.445-164.323 10.792-4.141.406-10.864 1.141-15.54 1.565-.733.067-2.943.126-2.205.167 4.677.258 9.382-.242 14.07-.4 59.61-2.01 119.069-5.53 178.55-8.66 46.847-2.465 187.587-8.124 140.647-6.529-47.836 1.626-95.568 4.21-143.219 7.328C173.78 23.817 114.53 30.334 55.127 31.743c-3.632.087-4.14.053-.525.1 11.042.146 12.386.19 26.67.134 65.535-.256 130.955-2.311 196.401-4.297 17.142-.52 33.355-.63 50.399.233 1.854.094 12.829.7 16.065.7 4.569 0-2.863-1.573-2.94-1.6"/></svg>