<svg xmlns="http://www.w3.org/2000/svg" width="51" height="53" fill="none"><g clip-path="url(#a)"><path fill="#F9F9F9" d="M38.204 32.041c-.729-1.522-4.465-4.487-6.14-4.479-.728 0-2.31.643-2.83 1.177-.247.243-.31.666-.457.808-.093.102-.62.298-.751.25-.125-.054-.946-.666-1.125-.8-1.604-1.223-3.72-3.553-4.728-5.31-.14-.243-.504-.84-.465-1.067.1-.659.72-.573 1.1-.91.636-.549 1.38-2.134 1.404-2.973.046-1.686-2.706-5.875-4.256-6.581-1.217-.565-2.985-.212-4.07.525-1.008.683-2.341 4.801-2.434 6.056-.442 5.876 6.434 13.524 10.868 16.74 3.938 2.847 6.946 3.726 11.597 1.773.837-.353 1.341-.479 1.837-1.295.721-1.2 1.078-2.596.45-3.914m-2.31 2.863c-.078.079-1.473.628-1.698.698-1.008.346-2.287.636-3.349.55-4.628-.338-11.07-7.39-13.356-11.234-1.745-2.933-2.543-5.24-1.217-8.597.147-.384.69-1.6.945-1.843.489-.463 1.527-.589 2.086-.173.845.628 2.418 3.09 2.69 4.118.108.393-.024.69-.202 1.028-.349.682-.798.643-1.271 1.082-.473.432-.985 1.483-.977 2.126.046 2.056 3.72 6.08 5.271 7.398 1.869 1.6 3.66 2.918 5.721.705.264-.29.186-.478.667-.737.969-.518 1.349-.118 2.194.392.814.494 3.077 2.087 3.015 3.13-.008.204-.387 1.24-.52 1.357"/><path fill="#F9F9F9" d="M24.273.108C10.738.932.459 13.31 1.483 26.897c.317 4.26 1.782 8.362 4.053 11.923C3.963 42.9 2.15 46.915.691 51.034c.016.815.721 1.215 1.458.94l11.093-5.631c.256-.016 1.83.957 2.232 1.153 14.76 7.13 32.372-2.251 34.9-18.513C52.87 12.942 40.203-.857 24.273.108m-8.66 45.137c-.51-.267-1.82-1.209-2.286-1.193-.21.008-.418.11-.597.196l-8.992 4.55 3.907-9.696c.054-.14.093-.29.085-.447 0-.478-1.186-2.126-1.496-2.698-7.21-13.359.341-30.052 14.938-33.284 11.891-2.635 23.86 4.762 26.775 16.7 4.667 19.149-14.953 34.853-32.333 25.872"/><path fill="#F0F0F0" d="M38.204 32.041c-.729-1.522-4.465-4.487-6.14-4.479-.728 0-2.31.643-2.83 1.177-.247.243-.31.666-.457.808-.093.102-.62.298-.751.25-.125-.054-.946-.666-1.125-.8-1.604-1.223-3.72-3.553-4.728-5.31-.14-.243-.504-.84-.465-1.067.1-.659.72-.573 1.1-.91.636-.549 1.38-2.134 1.404-2.973.046-1.686-2.706-5.875-4.256-6.581-1.217-.565-2.985-.212-4.07.525-1.008.683-2.341 4.801-2.434 6.056-.442 5.876 6.434 13.524 10.868 16.74 3.938 2.847 6.946 3.726 11.597 1.773.837-.353 1.341-.479 1.837-1.295.721-1.2 1.078-2.596.45-3.914m-2.31 2.863c-.078.079-1.473.628-1.698.698-1.008.346-2.287.636-3.349.55-4.628-.338-11.07-7.39-13.356-11.234-1.745-2.933-2.543-5.24-1.217-8.597.147-.384.69-1.6.945-1.843.489-.463 1.527-.589 2.086-.173.845.628 2.418 3.09 2.69 4.118.108.393-.024.69-.202 1.028-.349.682-.798.643-1.271 1.082-.473.432-.985 1.483-.977 2.126.046 2.056 3.72 6.08 5.271 7.398 1.869 1.6 3.66 2.918 5.721.705.264-.29.186-.478.667-.737.969-.518 1.349-.118 2.194.392.814.494 3.077 2.087 3.015 3.13-.008.204-.387 1.24-.52 1.357"/><path fill="#F9F9F9" d="M38.204 32.041c-.729-1.522-4.465-4.487-6.14-4.479-.728 0-2.31.643-2.83 1.177-.247.243-.31.666-.457.808-.093.102-.62.298-.751.25-.125-.054-.946-.666-1.125-.8-1.604-1.223-3.72-3.553-4.728-5.31-.14-.243-.504-.84-.465-1.067.1-.659.72-.573 1.1-.91.636-.549 1.38-2.134 1.404-2.973.046-1.686-2.706-5.875-4.256-6.581-1.217-.565-2.985-.212-4.07.525-1.008.683-2.341 4.801-2.434 6.056-.442 5.876 6.434 13.524 10.868 16.74 3.938 2.847 6.946 3.726 11.597 1.773.837-.353 1.341-.479 1.837-1.295.721-1.2 1.078-2.596.45-3.914m-2.31 2.863c-.078.079-1.473.628-1.698.698-1.008.346-2.287.636-3.349.55-4.628-.338-11.07-7.39-13.356-11.234-1.745-2.933-2.543-5.24-1.217-8.597.147-.384.69-1.6.945-1.843.489-.463 1.527-.589 2.086-.173.845.628 2.418 3.09 2.69 4.118.108.393-.024.69-.202 1.028-.349.682-.798.643-1.271 1.082-.473.432-.985 1.483-.977 2.126.046 2.056 3.72 6.08 5.271 7.398 1.869 1.6 3.66 2.918 5.721.705.264-.29.186-.478.667-.737.969-.518 1.349-.118 2.194.392.814.494 3.077 2.087 3.015 3.13-.008.204-.387 1.24-.52 1.357"/></g><defs><clipPath id="a"><path fill="#fff" d="M.691.06h50v52h-50z"/></clipPath></defs></svg>