<svg xmlns="http://www.w3.org/2000/svg" width="51" height="50" fill="none"><path fill="#021E26" d="M50.881 34.055c-.181-3.272-.369-6.656-.613-9.98a37.2 37.2 0 0 0-2.207-10.247 21.4 21.4 0 0 0-4.031-6.853C40.36 2.862 35.556.54 29.753.07c-3.853-.312-7.569.488-10.696 1.31C13.431 2.86 8.895 5.956 5.575 10.582 2.14 15.368.308 20.92.13 27.075q-.022.742-.05 1.486c-.058 1.616-.118 3.286-.05 4.929.061 1.487.256 2.988.445 4.44q.099.753.19 1.504c.111.931.742 1.523 1.775 1.667q.561.067 1.128.067c.268.005.546.01.813.034q.406.044.802.14l.232.049q.017.274.035.532c.032.458.061.89.063 1.314.006 1.256.362 2.514 1.12 3.957.96 1.829 2.603 2.799 4.749 2.806h.025c2.25 0 3.926-1.023 4.847-2.958.819-1.723 1.184-3.077 1.184-4.388a76 76 0 0 0-.34-7.902c-.324-3.052-2.576-5.016-5.745-5.016h-.052c-1.757.012-3.243.593-4.297 1.68-1.063 1.098-1.594 2.612-1.536 4.38q.009.225.024.453c.042.645.08 1.257-.222 1.864a11 11 0 0 0-.385-.018c-.558-.02-1.085-.038-1.56-.44-.113-3.762.059-7.575.245-11.16a28.7 28.7 0 0 1 1.887-8.868c1.74-4.503 4.403-7.869 8.144-10.29C18.69 4.047 24.375 3.399 29.266 3.2c8.345.879 13.546 4.958 15.9 12.472a39.4 39.4 0 0 1 1.647 9.381l.044.702c.119 1.863.242 3.79.311 5.685.01.288.029.577.048.868.087.87.075 1.745-.036 2.61l-1.997.492-.052-.106a1.2 1.2 0 0 1-.133-.333c-.263-1.863-1.32-3.292-3.425-4.634a5.73 5.73 0 0 0-6.374.351c-1.201.95-1.94 2.387-2.138 4.153a25 25 0 0 0-.075 3.657q.021.566.038 1.134.03 2.537.343 5.054c.42 2.95 2.433 4.821 5.519 5.134 2.007.203 3.62-.525 4.664-2.107 1.356-2.057 1.813-3.961 1.395-5.822a5.17 5.17 0 0 1 .174-2.921q.5.005.985.018 1.204.054 2.405-.042c1.796-.181 2.585-1.116 2.482-2.942zm-36.834 5.321q-.015.288-.016.563 0 .029.007.056a5.97 5.97 0 0 1-.471 4.44l-.063.124a4.6 4.6 0 0 1-.444.764 2.47 2.47 0 0 1-2.167.97 2.4 2.4 0 0 1-1.128-.39 2.36 2.36 0 0 1-.794-.885 3.8 3.8 0 0 1-.465-1.517 225 225 0 0 1-.306-7.434c-.036-1.45.71-2.383 2.102-2.628a4 4 0 0 1 .7-.066c1.11 0 1.862.56 2.288 1.697.339.99.581 2.008.724 3.042q.081.631.033 1.264m27.206-2.002q.006.368.002.74c-.039.764.025 1.53.19 2.277.404 1.476-.186 2.72-.757 3.924-.423.894-.986 1.283-1.775 1.222-1.174-.09-1.876-.527-2.207-1.374a6.7 6.7 0 0 1-.52-1.984c-.164-2.913-.246-5.275-.258-7.435-.002-.534.322-1.077.891-1.49a2.97 2.97 0 0 1 1.703-.567 2.2 2.2 0 0 1 .673.101c.49.183.96.421 1.395.71.21.126.426.255.657.384q0 .567-.004 1.089c-.005.835-.008 1.625.01 2.403"/></svg>