<svg xmlns="http://www.w3.org/2000/svg" width="55" height="52" fill="none"><path fill="#021E26" d="m25.822 49.359.28.086c1.034.315 2.01.611 2.652 1.91a.26.26 0 0 0 .163.136.256.256 0 0 0 .208-.033c.474-.314.92-.598 1.344-.868.888-.566 1.655-1.054 2.39-1.623a44 44 0 0 0 7.157-6.829c2.794-3.399 5.682-6.914 8.402-10.593 1.701-2.304 3.153-4.875 4.379-7.104a18 18 0 0 0 2.14-7.323c.333-4.223-.656-8.03-2.938-11.313C49.46 2.15 46.082.37 41.967.507c-4.642.158-8.724 1.96-12.133 5.359a5 5 0 0 0-.459.551c-.265.352-.516.685-.895.817-3.977-3.936-7.018-5.475-11.567-5.87-4.669-.405-8.448 1.12-11.234 4.532a32.7 32.7 0 0 0-3.617 5.443C-.118 15.486-.573 19.898.714 24.451a32.9 32.9 0 0 0 5.631 11.187c5.143 6.666 11.696 11.282 19.477 13.721M6.565 12.125a32 32 0 0 1 1.992-3.311c1.736-2.574 4.181-3.872 7.282-3.872q.577 0 1.183.06c4.142.408 7.465 2.263 9.877 5.51.29.39.605.752.883 1.07q.171.196.314.363c.039.047.093.078.152.088 1.118.196 1.57-.393 1.906-.959 1.936-3.263 4.95-5.21 9.485-6.13a11 11 0 0 1 3.252-.082c1.718.165 3.191 1.022 4.38 2.549a11.16 11.16 0 0 1 2.304 6.098 14.2 14.2 0 0 1-1.342 7.472 45 45 0 0 1-2.867 5.2c-1.983 2.969-4.1 5.92-6.148 8.774l-.712.993c-1.525 2.127-3.102 4.272-4.627 6.346l-1.65 2.245c-.236.324-.483.64-.744.976q-.13.165-.263.338l-2.142-.896a840 840 0 0 1-4.787-2.013 34.6 34.6 0 0 1-11.554-7.917c-3.366-3.52-5.699-7.284-7.132-11.51-1.306-3.855-.993-7.581.958-11.392"/></svg>