<svg xmlns="http://www.w3.org/2000/svg" width="469" height="304" fill="none"><g clip-path="url(#a)"><path fill="#292726" d="M.762.637h467.402v310.596H.762z" opacity=".6"/><path fill="#fff" d="M272.775 312.856q-12.195 0-20.76-8.565t-8.566-20.742V124.398q0-12.159 8.566-20.742 8.565-8.566 20.76-8.566h25.116V58.796q0-30.324 21.141-51.447 21.123-21.142 51.448-21.142 30.323 0 51.465 21.142 21.141 21.141 21.123 51.447V95.09h25.134q12.159 0 20.742 8.566 8.566 8.565 8.566 20.76v159.133q0 12.158-8.566 20.742-8.565 8.565-20.742 8.565zm0-18.147h195.427q4.882 0 8.021-3.139 3.14-3.14 3.14-8.021V124.398q0-4.882-3.14-8.021-3.139-3.14-8.021-3.14H272.757q-4.881 0-8.021 3.14t-3.14 8.039v159.133q0 4.881 3.14 8.021t8.039 3.139m97.705-63.515q11.487 0 19.344-7.876 7.876-7.857 7.876-19.345t-7.876-19.345-19.344-7.875q-11.47-.019-19.345 7.875-7.876 7.858-7.876 19.345 0 11.488 7.876 19.345 7.857 7.876 19.345 7.876M316.038 95.09h108.883V58.796q0-22.684-15.879-38.563T370.48 4.354q-22.684 0-38.563 15.879t-15.879 38.563z"/><path fill="#292726" d="M43.323 137.227V94.413h18.532q5.748 0 9.908 1.896 4.158 1.835 6.422 5.321 2.263 3.487 2.263 8.318 0 4.771-2.263 8.257t-6.422 5.382q-4.16 1.835-9.909 1.835H48.828l4.404-4.464v16.269zm9.908-15.169-4.404-4.709h12.477q4.587 0 6.85-1.957t2.263-5.444q0-3.546-2.263-5.504t-6.85-1.957H48.827l4.404-4.71zm33.558 15.169v-32.905h9.113v9.296l-1.284-2.691q1.467-3.486 4.71-5.26 3.24-1.835 7.889-1.835v8.808a11 11 0 0 0-1.101-.062 9 9 0 0 0-1.04-.061q-3.914 0-6.36 2.263-2.385 2.202-2.386 6.911v15.536zm41.52.489q-5.26 0-9.358-2.202-4.037-2.202-6.422-5.994-2.324-3.853-2.324-8.746 0-4.954 2.324-8.746 2.385-3.853 6.422-5.994 4.098-2.202 9.358-2.202 5.199 0 9.296 2.202 4.098 2.14 6.422 5.933 2.325 3.792 2.324 8.807 0 4.893-2.324 8.746-2.324 3.792-6.422 5.994t-9.296 2.202m0-7.829q2.385 0 4.281-1.101t2.997-3.119q1.101-2.079 1.101-4.893 0-2.874-1.101-4.893t-2.997-3.119q-1.896-1.101-4.281-1.101-2.386 0-4.282 1.101t-3.058 3.119q-1.101 2.019-1.101 4.893 0 2.814 1.101 4.893 1.162 2.018 3.058 3.119t4.282 1.101m-5.688-29.786 8.256-8.807h10.276l-11.071 8.807zm24.934 37.126 14.74-19.328-.184 5.26-14.128-18.837h10.703l8.93 12.293-4.037.122 9.235-12.415h10.153l-14.189 18.654v-5.138l14.679 19.389h-10.826l-9.358-13.089 3.976.55-9.297 12.539zm40.533 0v-32.905h9.541v32.905zm4.771-37.493q-2.63 0-4.282-1.529-1.651-1.529-1.651-3.792t1.651-3.792q1.651-1.53 4.282-1.529 2.63 0 4.281 1.468 1.651 1.407 1.651 3.67 0 2.385-1.651 3.975-1.59 1.53-4.281 1.53m55.766 4.098q3.914 0 6.911 1.59 3.058 1.53 4.771 4.771 1.773 3.18 1.773 8.196v18.838h-9.541v-17.37q0-3.976-1.651-5.872t-4.648-1.896q-2.08 0-3.731.979-1.652.917-2.569 2.813-.918 1.896-.918 4.832v16.514h-9.541v-17.37q0-3.976-1.651-5.872-1.59-1.896-4.587-1.896-2.08 0-3.731.979-1.651.917-2.569 2.813t-.917 4.832v16.514h-9.542v-32.905h9.113v8.99l-1.712-2.63q1.713-3.363 4.832-5.076 3.18-1.774 7.217-1.774 4.525 0 7.89 2.324 3.425 2.263 4.526 6.973l-3.364-.918q1.651-3.852 5.26-6.116 3.669-2.262 8.379-2.263m42.191 33.395v-6.422l-.612-1.407v-11.499q0-3.057-1.896-4.77-1.835-1.713-5.688-1.713-2.63 0-5.199.857-2.507.795-4.281 2.201l-3.425-6.666q2.691-1.896 6.483-2.936a29 29 0 0 1 7.707-1.04q7.522 0 11.682 3.548 4.159 3.547 4.159 11.07v18.777zm-10.031.489q-3.852 0-6.605-1.285-2.753-1.345-4.22-3.608-1.468-2.263-1.468-5.077 0-2.935 1.407-5.137 1.467-2.202 4.587-3.425 3.119-1.284 8.134-1.285h8.746v5.566h-7.706q-3.364 0-4.648 1.101-1.224 1.1-1.224 2.752 0 1.836 1.407 2.936 1.468 1.04 3.976 1.04 2.385 0 4.281-1.101 1.896-1.162 2.752-3.364l1.468 4.404q-1.04 3.18-3.792 4.831t-7.095 1.652M84.79 178.832q3.915 0 6.911 1.59 3.06 1.53 4.771 4.771 1.774 3.18 1.774 8.196v18.838h-9.541v-17.37q0-3.976-1.652-5.872-1.65-1.896-4.648-1.896-2.08 0-3.731.979-1.65.917-2.569 2.813-.917 1.896-.917 4.832v16.514h-9.541v-17.37q0-3.976-1.652-5.872-1.59-1.896-4.587-1.896-2.08 0-3.73.979-1.652.917-2.57 2.813t-.917 4.832v16.514H42.65v-32.905h9.113v8.99l-1.713-2.63q1.713-3.363 4.832-5.076 3.18-1.774 7.217-1.774 4.526 0 7.89 2.324 3.425 2.263 4.526 6.973l-3.364-.918q1.651-3.852 5.26-6.116 3.67-2.263 8.38-2.263m38.577 33.884q-5.627 0-9.908-2.202-4.22-2.202-6.545-5.994-2.324-3.853-2.324-8.746 0-4.954 2.263-8.746a16.2 16.2 0 0 1 6.3-5.994q3.975-2.202 8.991-2.202 4.831 0 8.685 2.08 3.913 2.017 6.177 5.871 2.263 3.792 2.263 9.113 0 .55-.061 1.285-.062.672-.122 1.284h-26.728v-5.566h21.712l-3.669 1.652q0-2.57-1.04-4.465a7.4 7.4 0 0 0-2.875-2.936q-1.835-1.101-4.281-1.101-2.447 0-4.343 1.101-1.834 1.04-2.874 2.997-1.04 1.896-1.04 4.526v1.468q0 2.69 1.162 4.771a8.3 8.3 0 0 0 3.364 3.119q2.202 1.04 5.138 1.04 2.63 0 4.587-.795 2.018-.796 3.669-2.386l5.077 5.505q-2.263 2.568-5.688 3.975-3.425 1.346-7.89 1.346m42.254-33.884q3.915 0 6.973 1.59 3.119 1.53 4.893 4.771 1.773 3.18 1.773 8.196v18.838h-9.541v-17.37q0-3.976-1.774-5.872-1.712-1.896-4.893-1.896-2.262 0-4.097.979-1.775.917-2.814 2.874-.978 1.958-.978 5.016v16.269h-9.542v-32.905h9.113v9.113l-1.712-2.753a12.2 12.2 0 0 1 5.076-5.076q3.303-1.774 7.523-1.774m35.743 33.884q-5.81 0-9.051-2.936-3.243-2.997-3.242-8.868v-28.869h9.541v28.746q0 2.08 1.101 3.242 1.101 1.101 2.997 1.101 2.263 0 3.853-1.223l2.569 6.727q-1.468 1.04-3.547 1.591a18 18 0 0 1-4.221.489m-17.369-25.321v-7.34h22.813v7.34zm45.808 25.321q-5.627 0-9.908-2.202-4.22-2.202-6.545-5.994-2.324-3.853-2.324-8.746 0-4.954 2.263-8.746a16.2 16.2 0 0 1 6.3-5.994q3.975-2.202 8.991-2.202 4.832 0 8.685 2.08 3.913 2.017 6.177 5.871 2.262 3.792 2.263 9.113 0 .55-.061 1.285-.062.672-.123 1.284h-26.727v-5.566h21.712l-3.67 1.652q0-2.57-1.039-4.465-1.04-1.896-2.875-2.936-1.834-1.101-4.281-1.101t-4.343 1.101q-1.835 1.04-2.874 2.997-1.04 1.896-1.04 4.526v1.468q0 2.69 1.162 4.771 1.223 2.018 3.364 3.119 2.202 1.04 5.137 1.04 2.63 0 4.588-.795 2.018-.796 3.669-2.386l5.077 5.505q-2.263 2.568-5.688 3.975-3.426 1.346-7.89 1.346"/></g><defs><clipPath id="a"><path fill="#fff" d="M.762.639h467.582v303H.762z"/></clipPath></defs></svg>