<svg xmlns="http://www.w3.org/2000/svg" width="51" height="78" fill="none"><path fill="#021E26" d="M34.91 4.152a95 95 0 0 1-.756-1.585c-.502-1.083-1.44-1.85-2.951-2.411A1.71 1.71 0 0 0 29.828.13a1.5 1.5 0 0 0-.477.412 1.4 1.4 0 0 0-.255.565 8.3 8.3 0 0 0-.264 2.073c-.026 1.686-.039 3.372-.051 5.058-.022 2.828-.044 5.753-.135 8.625-.13 4.089-.298 8.244-.461 12.263-.17 4.172-.345 8.486-.477 12.73-.222 7.147-.387 14.414-.547 21.443l-.132 5.76c-.04 1.753-.039 3.578.005 5.424a3.9 3.9 0 0 0 .423 1.963c.194.31.898 1.334 1.797 1.517q.171.036.348.036c.937 0 1.583-.812 1.804-1.651a9.1 9.1 0 0 0 .272-2.243q.035-4.66.046-9.32.01-2.862.023-5.726c.002-.394.03-.784.06-1.236l.026-.388q1.368 0 2.705.013c2.345.015 4.558.03 6.814-.036 2.606-.075 3.56-1.011 3.647-3.577a9 9 0 0 0-.064-1.23l-.03-.326a218 218 0 0 0-.163-1.755 102 102 0 0 1-.278-3.288l-.074-1.192c-.344-5.546-.703-11.282-2.03-16.806-1.455-6.05-3.163-12.442-5.373-20.116a32 32 0 0 0-2.076-4.97m5.782 48.902h-8.68c-.082-5.313.085-10.855.247-16.218.07-2.363.145-4.806.197-7.214q.18-8.296.349-16.593l.106-5.148c4.084 13.272 8.008 28.822 7.78 45.173M10.437 12.771c-.19-1.681-.275-3.405-.358-5.074-.037-.773-.075-1.546-.123-2.318q-.03-.49-.058-.977c-.061-1.066-.125-2.168-.244-3.25A1.41 1.41 0 0 0 8.719.067c-.414-.082-.81.356-1.13.709a1.4 1.4 0 0 0-.292.847q-.05 1.637-.107 3.274c-.104 2.966-.21 6.032-.187 9.05a7.29 7.29 0 0 0 2.74 5.577 16.3 16.3 0 0 0 2.717 1.71c.396.216.805.438 1.218.678q-.062 1.72-.137 3.461c-.113 2.685-.231 5.46-.24 8.213-.035 9.862-.03 19.89-.024 29.587q.004 5.492.005 10.984 0 .186-.002.373c-.004.384-.008.78.024 1.175.11 1.381.89 2.295 1.947 2.295h.062c1.103-.037 1.825-.987 1.842-2.42.01-.789-.014-1.587-.036-2.358-.019-.67-.039-1.36-.037-2.038q.027-13.03.069-26.06l.02-6.9q.005-1.685.007-3.37c.005-2.995.01-6.091.04-9.136.01-.987.076-1.994.14-2.97q.038-.57.072-1.14c3.374-1.215 5.387-3.656 6.511-7.882 1.08-4.06 1.123-8.088 1.024-11.493l-.003-.123c-.007-.36-.015-.808-.279-1.078-.47-.481-1.023-.998-1.63-1.03-.574-.034-1.23.658-1.48 1.17-.164.404-.239.84-.22 1.275-.004.168-.008.336-.025.497-.087.841-.162 1.684-.238 2.527-.177 1.978-.36 4.022-.694 6.001-.217 1.281-.766 2.55-1.297 3.778q-.159.363-.311.725a2.05 2.05 0 0 1-1.152 1.164l-.005-.554c-.006-.669-.012-1.3.01-1.926q.031-.892.068-1.786c.137-3.411.278-6.939-.253-10.413a3.95 3.95 0 0 0-.475-1.558 1.52 1.52 0 0 0-1.302-.534c-.497.05-.828.742-.89.88-.083.23-.11.475-.08.717q.01.124.008.244l-.119 3.289c-.105 2.959-.213 6.019-.345 9.026-.033.725-.128 1.45-.23 2.215l-.09.685c-2.09-.83-3.237-2.356-3.496-4.653"/></svg>