<svg xmlns="http://www.w3.org/2000/svg" width="467" height="303" fill="none"><g clip-path="url(#a)"><path fill="#E9C5F6" d="M0 0h466.763v302.639H0z"/><path fill="#E9C5F6" d="M0 0h466.763v302.639H0z"/><path fill="#301F36" d="m122.368 138.5 4.638-10.241h1.448l4.652 10.241h-1.536l-4.14-9.421h.585l-4.14 9.421zm1.975-2.56.395-1.171h5.764l.424 1.171zm13.394 2.648q-1.185 0-2.121-.512a3.8 3.8 0 0 1-1.449-1.405q-.526-.892-.526-2.048 0-1.155.526-2.048a3.7 3.7 0 0 1 1.449-1.39q.936-.512 2.121-.512 1.053 0 1.873.424.834.41 1.287 1.229l-1.068.688a2.3 2.3 0 0 0-.936-.834 2.5 2.5 0 0 0-1.171-.278q-.76 0-1.36.337-.6.336-.951.95-.351.6-.351 1.434t.351 1.448q.351.615.951.951.6.337 1.36.337.63 0 1.171-.263.556-.279.936-.849l1.068.673a3.1 3.1 0 0 1-1.287 1.244q-.82.424-1.873.424m7.741 0q-1.17 0-1.814-.629-.644-.63-.644-1.8v-7.11h1.405v7.052q0 .629.307.965.321.337.907.337.658 0 1.097-.366l.439 1.009a2 2 0 0 1-.775.41q-.44.132-.922.132m-3.774-6.686v-1.156h4.944v1.156zm10.431 6.686q-.995 0-1.755-.366a2.68 2.68 0 0 1-1.171-1.112q-.41-.76-.409-1.902v-4.462h1.404v4.301q0 1.142.541 1.712.557.57 1.551.571.732 0 1.273-.293.542-.307.834-.878.292-.585.292-1.404v-4.009h1.405v7.754h-1.331v-2.092l.219.556a2.7 2.7 0 0 1-1.141 1.2 3.46 3.46 0 0 1-1.712.424m11.452-.088v-1.639l-.074-.307v-2.794q0-.892-.526-1.375-.512-.498-1.551-.498a4 4 0 0 0-1.346.235 3.4 3.4 0 0 0-1.112.599l-.585-1.053q.6-.483 1.434-.731a6 6 0 0 1 1.77-.264q1.594 0 2.458.776.863.774.863 2.37v4.681zm-2.546.088q-.863 0-1.521-.293-.644-.292-.995-.804a2.1 2.1 0 0 1-.351-1.185q0-.63.292-1.142.308-.512.98-.819.688-.307 1.844-.307h2.458v1.009h-2.4q-1.053 0-1.419.352a1.13 1.13 0 0 0-.365.848q0 .57.453.922.454.336 1.258.336.79 0 1.375-.351.6-.35.863-1.024l.278.966q-.278.687-.98 1.097-.702.395-1.77.395m6.476-.088v-10.855h1.404V138.5zm13.785-7.827q.937 0 1.653.366.717.365 1.112 1.112.41.745.41 1.887v4.462h-1.405v-4.301q0-1.127-.526-1.697-.527-.57-1.478-.571-.702 0-1.229.293a2 2 0 0 0-.819.863q-.278.57-.278 1.419v3.994h-1.404v-4.301q0-1.127-.527-1.697-.512-.57-1.478-.571a2.46 2.46 0 0 0-1.214.293 2 2 0 0 0-.819.863q-.293.57-.293 1.419v3.994h-1.404v-7.754h1.346v2.063l-.22-.527q.366-.76 1.127-1.185.76-.424 1.77-.424 1.112 0 1.917.556.804.541 1.053 1.653l-.571-.234q.351-.893 1.229-1.434t2.048-.541m9.212 7.915q-1.244 0-2.195-.512a3.76 3.76 0 0 1-1.463-1.405q-.512-.892-.512-2.048 0-1.155.498-2.048a3.66 3.66 0 0 1 1.389-1.39q.892-.512 2.005-.512 1.126 0 1.989.498a3.45 3.45 0 0 1 1.346 1.404q.498.892.498 2.092 0 .088-.015.205 0 .117-.015.219h-6.598v-1.009h5.867l-.571.351a2.6 2.6 0 0 0-.307-1.331 2.3 2.3 0 0 0-.892-.907q-.556-.337-1.302-.337-.732 0-1.302.337a2.25 2.25 0 0 0-.893.921q-.322.585-.322 1.346v.234q0 .776.352 1.39.365.6 1.009.936t1.478.337q.687 0 1.243-.234.57-.234.995-.702l.775.907q-.527.613-1.316.936a4.5 4.5 0 0 1-1.741.322m9.645-7.915q.951 0 1.668.366.731.365 1.141 1.112.41.745.409 1.887v4.462h-1.404v-4.301q0-1.127-.556-1.697-.541-.57-1.536-.571-.746 0-1.302.293a2.05 2.05 0 0 0-.863.863q-.293.57-.293 1.419v3.994h-1.404v-7.754h1.346v2.092l-.22-.556a2.7 2.7 0 0 1 1.171-1.185q.79-.424 1.843-.424m8.48 7.915q-1.17 0-1.814-.629-.644-.63-.644-1.8v-7.11h1.405v7.052q0 .629.307.965.322.337.907.337.659 0 1.097-.366l.439 1.009a2 2 0 0 1-.775.41q-.44.132-.922.132m-3.774-6.686v-1.156h4.945v1.156zm10.365 6.686q-1.244 0-2.195-.512a3.76 3.76 0 0 1-1.463-1.405q-.512-.892-.512-2.048 0-1.155.498-2.048a3.66 3.66 0 0 1 1.389-1.39q.892-.512 2.005-.512 1.126 0 1.989.498a3.45 3.45 0 0 1 1.346 1.404q.498.892.498 2.092 0 .088-.015.205 0 .117-.015.219h-6.598v-1.009h5.867l-.571.351a2.6 2.6 0 0 0-.307-1.331 2.3 2.3 0 0 0-.892-.907q-.557-.337-1.302-.337-.732 0-1.302.337a2.25 2.25 0 0 0-.893.921q-.321.585-.322 1.346v.234q0 .776.351 1.39.366.6 1.01.936t1.477.337q.688 0 1.244-.234.57-.234.995-.702l.775.907q-.527.613-1.317.936a4.5 4.5 0 0 1-1.74.322m19.133-7.915q.936 0 1.653.366.717.365 1.112 1.112.41.745.41 1.887v4.462h-1.405v-4.301q0-1.127-.527-1.697-.526-.57-1.477-.571-.702 0-1.229.293a2 2 0 0 0-.819.863q-.279.57-.278 1.419v3.994h-1.405v-4.301q0-1.127-.526-1.697-.512-.57-1.478-.571a2.46 2.46 0 0 0-1.214.293 2 2 0 0 0-.819.863q-.293.57-.293 1.419v3.994h-1.404v-7.754h1.345v2.063l-.219-.527a2.64 2.64 0 0 1 1.127-1.185q.76-.424 1.77-.424 1.112 0 1.916.556.806.541 1.053 1.653l-.57-.234q.351-.893 1.229-1.434t2.048-.541m9.211 7.915q-1.243 0-2.194-.512a3.76 3.76 0 0 1-1.463-1.405q-.512-.892-.512-2.048 0-1.155.497-2.048a3.67 3.67 0 0 1 1.39-1.39q.893-.512 2.004-.512 1.127 0 1.99.498a3.46 3.46 0 0 1 1.346 1.404q.497.892.497 2.092 0 .088-.014.205 0 .117-.015.219h-6.598v-1.009h5.867l-.571.351a2.6 2.6 0 0 0-.307-1.331 2.3 2.3 0 0 0-.893-.907q-.555-.337-1.302-.337-.73 0-1.302.337a2.25 2.25 0 0 0-.892.921q-.322.585-.322 1.346v.234q0 .776.351 1.39.366.6 1.01.936.643.337 1.477.337.688 0 1.244-.234.57-.234.994-.702l.776.907q-.526.613-1.317.936a4.5 4.5 0 0 1-1.741.322m12.887 0q-1.244 0-2.195-.512a3.77 3.77 0 0 1-1.463-1.405q-.512-.892-.512-2.048 0-1.155.498-2.048a3.65 3.65 0 0 1 1.39-1.39q.893-.512 2.004-.512 1.126 0 1.989.498a3.44 3.44 0 0 1 1.346 1.404q.498.892.498 2.092 0 .088-.015.205 0 .117-.014.219h-6.598v-1.009h5.866l-.57.351a2.6 2.6 0 0 0-.308-1.331 2.3 2.3 0 0 0-.892-.907q-.557-.337-1.302-.337-.732 0-1.302.337a2.25 2.25 0 0 0-.893.921q-.321.585-.321 1.346v.234q0 .776.351 1.39.366.6 1.009.936.644.337 1.478.337.688 0 1.243-.234.571-.234.995-.702l.775.907q-.527.613-1.316.936a4.5 4.5 0 0 1-1.741.322m9.645-7.915q.951 0 1.668.366a2.6 2.6 0 0 1 1.141 1.112q.41.745.41 1.887v4.462h-1.405v-4.301q0-1.127-.556-1.697-.541-.57-1.536-.571-.745 0-1.302.293-.555.293-.863.863-.293.57-.293 1.419v3.994h-1.404v-7.754h1.346v2.092l-.22-.556a2.7 2.7 0 0 1 1.171-1.185q.79-.424 1.843-.424m9.197 7.915q-1.185 0-2.121-.512a3.8 3.8 0 0 1-1.448-1.405q-.527-.892-.527-2.048 0-1.155.527-2.048a3.7 3.7 0 0 1 1.448-1.39q.936-.512 2.121-.512 1.053 0 1.873.424.834.41 1.287 1.229l-1.068.688a2.3 2.3 0 0 0-.936-.834 2.5 2.5 0 0 0-1.17-.278q-.761 0-1.361.337-.6.336-.951.95-.351.6-.351 1.434t.351 1.448q.351.615.951.951.6.337 1.361.337.629 0 1.17-.263.556-.279.936-.849l1.068.673a3.1 3.1 0 0 1-1.287 1.244q-.82.424-1.873.424m8.241 0q-.995 0-1.756-.366a2.7 2.7 0 0 1-1.17-1.112q-.41-.76-.41-1.902v-4.462h1.405v4.301q0 1.142.541 1.712.557.57 1.551.571.731 0 1.273-.293.54-.307.833-.878.293-.585.293-1.404v-4.009h1.404v7.754h-1.331v-2.092l.22.556a2.7 2.7 0 0 1-1.141 1.2 3.47 3.47 0 0 1-1.712.424m10.091 0q-1.244 0-2.195-.512a3.76 3.76 0 0 1-1.463-1.405q-.512-.892-.512-2.048 0-1.155.498-2.048a3.66 3.66 0 0 1 1.389-1.39q.892-.512 2.005-.512 1.127 0 1.989.498a3.45 3.45 0 0 1 1.346 1.404q.498.892.498 2.092 0 .088-.015.205 0 .117-.015.219h-6.598v-1.009h5.867l-.571.351a2.6 2.6 0 0 0-.307-1.331 2.3 2.3 0 0 0-.892-.907q-.557-.337-1.302-.337-.732 0-1.302.337a2.25 2.25 0 0 0-.893.921q-.321.585-.322 1.346v.234q0 .776.352 1.39.365.6 1.009.936t1.478.337q.687 0 1.243-.234.57-.234.995-.702l.775.907q-.527.613-1.316.936a4.5 4.5 0 0 1-1.741.322m9.645-7.915q.951 0 1.668.366.731.365 1.141 1.112.41.745.41 1.887v4.462h-1.405v-4.301q0-1.127-.556-1.697-.541-.57-1.536-.571-.745 0-1.302.293a2.05 2.05 0 0 0-.863.863q-.293.57-.293 1.419v3.994h-1.404v-7.754h1.346v2.092l-.22-.556a2.7 2.7 0 0 1 1.171-1.185q.79-.424 1.843-.424m8.48 7.915q-1.17 0-1.814-.629-.644-.63-.644-1.8v-7.11h1.405v7.052q0 .629.307.965.322.337.907.337.659 0 1.097-.366l.439 1.009a2 2 0 0 1-.775.41q-.44.132-.922.132m-3.774-6.686v-1.156h4.945v1.156zm7.169 6.598v-7.754h1.346v2.107l-.132-.527a2.4 2.4 0 0 1 1.083-1.229q.76-.424 1.873-.424v1.361a1 1 0 0 0-.176-.015h-.146q-1.126 0-1.785.673-.658.673-.658 1.946v3.862zm9.15.088q-1.17 0-2.077-.512a3.8 3.8 0 0 1-1.434-1.405q-.527-.906-.527-2.048 0-1.155.527-2.048a3.7 3.7 0 0 1 1.434-1.39q.906-.512 2.077-.512 1.156 0 2.063.512a3.6 3.6 0 0 1 1.433 1.39q.527.878.527 2.048 0 1.156-.527 2.048a3.7 3.7 0 0 1-1.433 1.405q-.907.512-2.063.512m0-1.229q.746 0 1.331-.337.6-.336.937-.951.336-.629.336-1.448 0-.834-.336-1.434a2.4 2.4 0 0 0-.937-.95 2.6 2.6 0 0 0-1.331-.337q-.746 0-1.331.337-.585.336-.937.95-.351.6-.351 1.434 0 .82.351 1.448.352.615.937.951.585.337 1.331.337m-197.211 19.229q-1.186 0-2.122-.512a3.8 3.8 0 0 1-1.448-1.405q-.527-.892-.527-2.048 0-1.155.527-2.048a3.7 3.7 0 0 1 1.448-1.39q.936-.512 2.122-.512 1.053 0 1.872.424.834.41 1.287 1.229l-1.067.688a2.3 2.3 0 0 0-.937-.834 2.5 2.5 0 0 0-1.17-.278q-.76 0-1.361.337-.6.336-.951.95-.351.6-.351 1.434t.351 1.448q.351.615.951.951.6.337 1.361.337.628 0 1.17-.263.556-.279.937-.849l1.067.673a3.1 3.1 0 0 1-1.287 1.244q-.819.424-1.872.424m8.24 0q-.995 0-1.755-.366a2.68 2.68 0 0 1-1.171-1.112q-.41-.76-.409-1.902v-4.462h1.404v4.301q0 1.142.541 1.712.556.57 1.551.571.732 0 1.273-.293.541-.307.834-.878.292-.585.292-1.404v-4.009h1.405v7.754h-1.332v-2.092l.22.556a2.7 2.7 0 0 1-1.141 1.2 3.46 3.46 0 0 1-1.712.424m6.638-.088v-7.754h1.346v2.107l-.131-.527a2.38 2.38 0 0 1 1.082-1.229q.761-.424 1.873-.424v1.361a1 1 0 0 0-.176-.015h-.146q-1.127 0-1.785.673t-.658 1.946v3.862zm8.21.088a6.4 6.4 0 0 1-1.843-.264q-.863-.263-1.361-.643l.586-1.112q.497.336 1.228.57.732.235 1.493.235.98 0 1.404-.278.44-.279.439-.776a.68.68 0 0 0-.263-.57q-.264-.205-.703-.308a10 10 0 0 0-.951-.175 21 21 0 0 1-1.053-.205 4.7 4.7 0 0 1-.965-.351 1.9 1.9 0 0 1-.703-.629q-.263-.41-.263-1.083 0-.701.395-1.229.395-.526 1.112-.804.732-.293 1.726-.293a6.5 6.5 0 0 1 1.536.19q.79.176 1.288.512l-.6 1.112a3.3 3.3 0 0 0-1.097-.483 5 5 0 0 0-1.141-.131q-.922 0-1.376.307-.453.293-.453.761 0 .395.263.614.279.205.702.322.44.117.966.205.526.073 1.053.205.526.117.951.336.44.219.702.615.279.395.278 1.053 0 .702-.409 1.214-.41.513-1.156.805-.746.278-1.785.278m9.919-.088v-1.639l-.073-.307v-2.794q0-.892-.527-1.375-.512-.498-1.551-.498a4 4 0 0 0-1.346.235 3.4 3.4 0 0 0-1.112.599l-.585-1.053q.6-.483 1.434-.731a6 6 0 0 1 1.77-.264q1.594 0 2.458.776.863.774.863 2.37v4.681zm-2.546.088q-.863 0-1.521-.293-.644-.292-.995-.804a2.1 2.1 0 0 1-.351-1.185q0-.63.292-1.142.308-.512.981-.819.687-.307 1.843-.307h2.458v1.009h-2.4q-1.053 0-1.419.352a1.13 1.13 0 0 0-.365.848q0 .57.453.922.454.336 1.258.336.79 0 1.375-.351.6-.35.864-1.024l.278.966q-.279.687-.981 1.097-.702.395-1.77.395m10.616-7.915q.951 0 1.668.366a2.6 2.6 0 0 1 1.141 1.112q.41.745.41 1.887v4.462h-1.405v-4.301q0-1.127-.556-1.697-.541-.57-1.536-.571-.746 0-1.302.293-.555.293-.863.863-.293.57-.293 1.419v3.994h-1.404v-7.754h1.346v2.092l-.22-.556a2.7 2.7 0 0 1 1.171-1.185q.79-.424 1.843-.424m9.022 7.915q-1.126 0-2.019-.498a3.65 3.65 0 0 1-1.39-1.389q-.512-.893-.512-2.078t.512-2.063a3.65 3.65 0 0 1 1.39-1.389q.893-.498 2.019-.498a3.6 3.6 0 0 1 1.77.439q.79.44 1.258 1.317.483.877.483 2.194t-.468 2.195q-.454.878-1.244 1.331-.79.439-1.799.439m.117-1.229q.73 0 1.316-.337.6-.336.937-.951.351-.629.351-1.448 0-.834-.351-1.434a2.4 2.4 0 0 0-.937-.95 2.6 2.6 0 0 0-1.316-.337 2.6 2.6 0 0 0-1.332.337q-.585.336-.936.95-.351.6-.351 1.434 0 .82.351 1.448a2.5 2.5 0 0 0 .936.951 2.6 2.6 0 0 0 1.332.337m2.648 1.141v-2.092l.087-1.799-.146-1.8v-5.164h1.405V156.5zm7.324.088q-1.17 0-2.078-.512a3.8 3.8 0 0 1-1.433-1.405q-.527-.906-.527-2.048 0-1.155.527-2.048a3.7 3.7 0 0 1 1.433-1.39q.908-.512 2.078-.512 1.155 0 2.063.512a3.6 3.6 0 0 1 1.433 1.39q.527.878.527 2.048 0 1.156-.527 2.048a3.7 3.7 0 0 1-1.433 1.405q-.908.512-2.063.512m0-1.229q.746 0 1.331-.337.6-.336.936-.951.337-.629.337-1.448 0-.834-.337-1.434a2.37 2.37 0 0 0-.936-.95 2.6 2.6 0 0 0-1.331-.337q-.746 0-1.331.337a2.5 2.5 0 0 0-.937.95q-.351.6-.351 1.434 0 .82.351 1.448.35.615.937.951.584.337 1.331.337m13.347 1.229q-1.244 0-2.195-.512a3.76 3.76 0 0 1-1.463-1.405q-.512-.892-.512-2.048 0-1.155.498-2.048a3.66 3.66 0 0 1 1.389-1.39q.892-.512 2.005-.512 1.126 0 1.989.498a3.45 3.45 0 0 1 1.346 1.404q.498.892.498 2.092 0 .088-.015.205 0 .117-.015.219h-6.598v-1.009h5.867l-.571.351a2.6 2.6 0 0 0-.307-1.331 2.3 2.3 0 0 0-.892-.907q-.556-.337-1.302-.337-.732 0-1.302.337a2.25 2.25 0 0 0-.893.921q-.322.585-.322 1.346v.234q0 .776.351 1.39.366.6 1.01.936t1.478.337q.687 0 1.243-.234.57-.234.995-.702l.775.907q-.527.613-1.316.936a4.5 4.5 0 0 1-1.741.322m5.505-.088v-10.855h1.404V156.5zm10.677.088q-1.17 0-1.814-.629-.644-.63-.644-1.8v-7.11h1.405v7.052q0 .629.307.965.322.337.907.337.659 0 1.097-.366l.439 1.009a2 2 0 0 1-.775.41q-.44.132-.922.132m-3.774-6.686v-1.156h4.945v1.156zm10.365 6.686q-1.244 0-2.195-.512a3.76 3.76 0 0 1-1.463-1.405q-.512-.892-.512-2.048 0-1.155.498-2.048a3.66 3.66 0 0 1 1.389-1.39q.892-.512 2.005-.512 1.126 0 1.989.498a3.45 3.45 0 0 1 1.346 1.404q.498.892.497 2.092 0 .088-.014.205 0 .117-.015.219h-6.598v-1.009h5.867l-.571.351a2.6 2.6 0 0 0-.307-1.331 2.3 2.3 0 0 0-.892-.907q-.557-.337-1.302-.337-.732 0-1.302.337a2.25 2.25 0 0 0-.893.921q-.321.585-.322 1.346v.234q0 .776.351 1.39.366.6 1.01.936.643.337 1.477.337.688 0 1.244-.234.57-.234.995-.702l.775.907q-.526.613-1.317.936a4.5 4.5 0 0 1-1.74.322m5.505-.088v-7.754h1.346v2.107l-.132-.527a2.38 2.38 0 0 1 1.083-1.229q.76-.424 1.872-.424v1.361a1 1 0 0 0-.175-.015h-.147q-1.126 0-1.785.673-.657.673-.658 1.946v3.862zm9.208.088q-1.185 0-2.121-.512a3.8 3.8 0 0 1-1.449-1.405q-.526-.892-.526-2.048 0-1.155.526-2.048a3.7 3.7 0 0 1 1.449-1.39q.936-.512 2.121-.512 1.053 0 1.873.424.834.41 1.287 1.229l-1.068.688a2.3 2.3 0 0 0-.936-.834 2.5 2.5 0 0 0-1.171-.278q-.76 0-1.36.337-.6.336-.951.95-.351.6-.351 1.434t.351 1.448q.351.615.951.951.6.337 1.36.337.63 0 1.171-.263.556-.279.936-.849l1.068.673a3.1 3.1 0 0 1-1.287 1.244q-.82.424-1.873.424m8.317 0q-1.244 0-2.195-.512a3.76 3.76 0 0 1-1.463-1.405q-.512-.892-.512-2.048 0-1.155.498-2.048a3.66 3.66 0 0 1 1.389-1.39q.892-.512 2.005-.512 1.126 0 1.989.498a3.45 3.45 0 0 1 1.346 1.404q.498.892.498 2.092 0 .088-.015.205 0 .117-.015.219h-6.598v-1.009h5.867l-.571.351a2.6 2.6 0 0 0-.307-1.331 2.3 2.3 0 0 0-.892-.907q-.557-.337-1.302-.337-.732 0-1.302.337a2.25 2.25 0 0 0-.893.921q-.321.585-.322 1.346v.234q0 .776.351 1.39.366.6 1.01.936t1.477.337q.688 0 1.244-.234.57-.234.995-.702l.775.907q-.527.613-1.316.936a4.5 4.5 0 0 1-1.741.322m5.505-.088v-7.754h1.346v2.107l-.132-.527a2.38 2.38 0 0 1 1.083-1.229q.76-.424 1.872-.424v1.361a1 1 0 0 0-.175-.015h-.147q-1.127 0-1.784.673-.659.673-.659 1.946v3.862zm14.742 0v-1.639l-.073-.307v-2.794q0-.892-.527-1.375-.512-.498-1.55-.498-.688 0-1.346.235-.659.22-1.112.599l-.585-1.053a4.1 4.1 0 0 1 1.433-.731 6 6 0 0 1 1.77-.264q1.596 0 2.458.776.864.774.863 2.37v4.681zm-2.545.088q-.864 0-1.522-.293-.644-.292-.995-.804a2.1 2.1 0 0 1-.351-1.185q0-.63.293-1.142.307-.512.98-.819.688-.307 1.843-.307h2.458v1.009h-2.399q-1.053 0-1.419.352a1.13 1.13 0 0 0-.366.848q0 .57.453.922.454.336 1.259.336.79 0 1.375-.351.6-.35.863-1.024l.278.966q-.278.687-.98 1.097-.702.395-1.77.395m10.616-7.915q.95 0 1.667.366a2.6 2.6 0 0 1 1.141 1.112q.41.745.41 1.887v4.462h-1.404v-4.301q0-1.127-.556-1.697-.541-.57-1.536-.571-.747 0-1.302.293a2.05 2.05 0 0 0-.864.863q-.292.57-.292 1.419v3.994h-1.405v-7.754h1.346v2.092l-.219-.556a2.7 2.7 0 0 1 1.17-1.185q.79-.424 1.844-.424m.57-1.097q-.351 0-.629-.146a3 3 0 0 1-.483-.337 4 4 0 0 0-.424-.351.7.7 0 0 0-.41-.146.65.65 0 0 0-.526.249q-.19.234-.22.658h-.79q.03-.819.41-1.302t1.024-.483q.351 0 .629.161.278.146.497.351.22.19.41.337a.7.7 0 0 0 .41.146q.321 0 .526-.234t.22-.644h.79q-.014.775-.41 1.258-.38.483-1.024.483m8.568 9.012q-1.17 0-2.077-.512a3.8 3.8 0 0 1-1.434-1.405q-.527-.906-.527-2.048 0-1.155.527-2.048a3.7 3.7 0 0 1 1.434-1.39q.907-.512 2.077-.512 1.156 0 2.063.512a3.6 3.6 0 0 1 1.434 1.39q.526.878.526 2.048 0 1.156-.526 2.048a3.7 3.7 0 0 1-1.434 1.405q-.907.512-2.063.512m0-1.229q.746 0 1.331-.337.6-.336.937-.951.336-.629.336-1.448 0-.834-.336-1.434a2.4 2.4 0 0 0-.937-.95 2.6 2.6 0 0 0-1.331-.337q-.746 0-1.331.337-.585.336-.936.95-.352.6-.352 1.434 0 .82.352 1.448a2.5 2.5 0 0 0 .936.951q.585.337 1.331.337m13.347 1.229q-1.244 0-2.195-.512a3.76 3.76 0 0 1-1.462-1.405q-.513-.892-.512-2.048 0-1.155.497-2.048a3.66 3.66 0 0 1 1.39-1.39q.893-.512 2.004-.512 1.126 0 1.99.498a3.45 3.45 0 0 1 1.345 1.404q.498.892.498 2.092 0 .088-.015.205 0 .117-.014.219h-6.598v-1.009h5.866l-.57.351a2.6 2.6 0 0 0-.308-1.331 2.3 2.3 0 0 0-.892-.907q-.556-.337-1.302-.337-.732 0-1.302.337a2.25 2.25 0 0 0-.892.921q-.322.585-.322 1.346v.234q0 .776.351 1.39.366.6 1.009.936.644.337 1.478.337.688 0 1.243-.234.571-.234.995-.702l.775.907q-.527.613-1.316.936a4.5 4.5 0 0 1-1.741.322m9.645-7.915q.951 0 1.668.366a2.6 2.6 0 0 1 1.141 1.112q.41.745.41 1.887v4.462h-1.405v-4.301q0-1.127-.556-1.697-.54-.57-1.536-.571-.745 0-1.302.293-.555.293-.863.863-.292.57-.292 1.419v3.994h-1.405v-7.754h1.346v2.092l-.219-.556a2.7 2.7 0 0 1 1.17-1.185q.79-.424 1.843-.424m9.747 7.827v-10.855h1.404V156.5zm8.899 0v-1.639l-.073-.307v-2.794q0-.892-.527-1.375-.512-.498-1.551-.498a4 4 0 0 0-1.346.235 3.4 3.4 0 0 0-1.112.599l-.585-1.053q.6-.483 1.434-.731a6 6 0 0 1 1.77-.264q1.595 0 2.458.776.863.774.863 2.37v4.681zm-2.546.088q-.862 0-1.521-.293-.644-.292-.995-.804a2.1 2.1 0 0 1-.351-1.185q0-.63.292-1.142.308-.512.981-.819.687-.307 1.843-.307h2.458v1.009h-2.4q-1.053 0-1.419.352a1.13 1.13 0 0 0-.365.848q0 .57.453.922.454.336 1.258.336.79 0 1.376-.351.599-.35.863-1.024l.278.966q-.278.687-.981 1.097-.702.395-1.77.395M123.919 174.5v-8.441q0-1.142.658-1.814.674-.688 1.902-.688.453 0 .863.117.425.103.717.337l-.424 1.068a1.5 1.5 0 0 0-.498-.264 1.7 1.7 0 0 0-.585-.102q-.614 0-.936.351-.322.337-.322 1.009v1.039l.029.644v6.744zm-1.317-6.598v-1.156h4.945v1.156zm10.94 6.598v-1.639l-.073-.307v-2.794q0-.892-.527-1.375-.512-.498-1.551-.498a4 4 0 0 0-1.346.235 3.4 3.4 0 0 0-1.111.599l-.586-1.053q.6-.483 1.434-.731a6 6 0 0 1 1.77-.264q1.595 0 2.458.776.863.774.863 2.37v4.681zm-2.546.088q-.862 0-1.521-.293-.644-.292-.995-.804a2.1 2.1 0 0 1-.351-1.185q0-.63.292-1.142.308-.512.981-.819.688-.307 1.843-.307h2.458v1.009h-2.399q-1.054 0-1.42.352a1.13 1.13 0 0 0-.365.848q0 .57.453.922.454.336 1.258.336.79 0 1.376-.351.599-.35.863-1.024l.278.966q-.278.687-.981 1.097-.702.395-1.77.395m9.856 0q-1.185 0-2.122-.512a3.8 3.8 0 0 1-1.448-1.405q-.527-.892-.527-2.048 0-1.155.527-2.048a3.7 3.7 0 0 1 1.448-1.39q.936-.512 2.122-.512 1.053 0 1.872.424.834.41 1.288 1.229l-1.068.688a2.3 2.3 0 0 0-.937-.834 2.5 2.5 0 0 0-1.17-.278q-.76 0-1.361.337a2.5 2.5 0 0 0-.951.95q-.351.6-.351 1.434t.351 1.448q.353.615.951.951.6.337 1.361.337.629 0 1.17-.263.556-.279.937-.849l1.068.673a3.1 3.1 0 0 1-1.288 1.244q-.819.424-1.872.424m8.24 0q-.994 0-1.755-.366a2.68 2.68 0 0 1-1.171-1.112q-.41-.76-.409-1.902v-4.462h1.404v4.301q0 1.142.541 1.712.557.57 1.551.571.732 0 1.273-.293.541-.307.834-.878.292-.585.292-1.404v-4.009h1.405v7.754h-1.331v-2.092l.219.556a2.7 2.7 0 0 1-1.141 1.2 3.46 3.46 0 0 1-1.712.424m6.638-.088v-10.855h1.405V174.5zm6.949.088q-1.17 0-1.814-.629-.644-.63-.644-1.8v-7.11h1.405v7.052q0 .629.307.965.322.337.907.337.659 0 1.097-.366l.439 1.009a2 2 0 0 1-.775.41q-.44.132-.922.132m-3.774-6.686v-1.156h4.944v1.156zm11.982 6.598v-1.639l-.073-.307v-2.794q0-.892-.527-1.375-.512-.498-1.55-.498-.688 0-1.346.235-.659.22-1.112.599l-.585-1.053q.6-.483 1.433-.731a6 6 0 0 1 1.771-.264q1.594 0 2.457.776.863.774.863 2.37v4.681zm-2.545.088q-.864 0-1.522-.293-.644-.292-.995-.804a2.1 2.1 0 0 1-.351-1.185q0-.63.293-1.142.307-.512.98-.819.688-.307 1.843-.307h2.458v1.009h-2.399q-1.053 0-1.419.352a1.13 1.13 0 0 0-.366.848q0 .57.454.922.453.336 1.258.336.79 0 1.375-.351.6-.35.863-1.024l.278.966q-.278.687-.98 1.097-.702.395-1.77.395m9.679 0q-1.126 0-2.019-.498a3.65 3.65 0 0 1-1.389-1.389q-.512-.893-.512-2.078t.512-2.063a3.65 3.65 0 0 1 1.389-1.389q.893-.498 2.019-.498.981 0 1.77.439.79.44 1.259 1.317.482.877.482 2.194t-.468 2.195q-.453.878-1.243 1.331-.79.439-1.8.439m.117-1.229q.732 0 1.317-.337.6-.336.936-.951.351-.629.351-1.448 0-.834-.351-1.434a2.37 2.37 0 0 0-.936-.95 2.6 2.6 0 0 0-1.317-.337q-.746 0-1.331.337-.585.336-.936.95-.351.6-.351 1.434 0 .82.351 1.448a2.5 2.5 0 0 0 .936.951q.585.337 1.331.337m2.648 1.141v-2.092l.088-1.799-.146-1.8v-5.164h1.404V174.5z"/></g><defs><clipPath id="a"><path fill="#fff" d="M0 0h466.763v302.639H0z"/></clipPath></defs></svg>