<svg width="467" height="303" viewBox="0 0 467 303" fill="none" xmlns="http://www.w3.org/2000/svg">
<g clip-path="url(#clip0_1035_9695)">
<rect width="466.763" height="302.639" fill="#E9C5F6"/>
<rect width="466.763" height="302.639" fill="#E9C5F6"/>
<path d="M122.368 138.5L127.006 128.259H128.454L133.106 138.5H131.57L127.43 129.079H128.015L123.875 138.5H122.368ZM124.343 135.94L124.738 134.769H130.502L130.926 135.94H124.343ZM137.737 138.588C136.947 138.588 136.24 138.417 135.616 138.076C135.001 137.734 134.519 137.266 134.167 136.671C133.816 136.076 133.641 135.394 133.641 134.623C133.641 133.853 133.816 133.17 134.167 132.575C134.519 131.98 135.001 131.517 135.616 131.185C136.24 130.844 136.947 130.673 137.737 130.673C138.439 130.673 139.063 130.815 139.61 131.097C140.166 131.371 140.595 131.78 140.897 132.326L139.829 133.014C139.576 132.634 139.263 132.356 138.893 132.18C138.532 131.995 138.142 131.902 137.722 131.902C137.215 131.902 136.762 132.014 136.362 132.239C135.962 132.463 135.645 132.78 135.411 133.189C135.177 133.589 135.06 134.067 135.06 134.623C135.06 135.179 135.177 135.662 135.411 136.071C135.645 136.481 135.962 136.798 136.362 137.022C136.762 137.247 137.215 137.359 137.722 137.359C138.142 137.359 138.532 137.271 138.893 137.096C139.263 136.91 139.576 136.627 139.829 136.247L140.897 136.92C140.595 137.456 140.166 137.871 139.61 138.164C139.063 138.446 138.439 138.588 137.737 138.588ZM145.478 138.588C144.698 138.588 144.093 138.378 143.664 137.959C143.235 137.539 143.02 136.94 143.02 136.159V129.049H144.425V136.101C144.425 136.52 144.527 136.842 144.732 137.066C144.946 137.291 145.249 137.403 145.639 137.403C146.078 137.403 146.443 137.281 146.736 137.037L147.175 138.046C146.96 138.232 146.702 138.368 146.4 138.456C146.107 138.544 145.8 138.588 145.478 138.588ZM141.704 131.902V130.746H146.648V131.902H141.704ZM152.135 138.588C151.472 138.588 150.887 138.466 150.38 138.222C149.882 137.978 149.492 137.608 149.209 137.11C148.936 136.603 148.8 135.969 148.8 135.208V130.746H150.204V135.047C150.204 135.808 150.385 136.379 150.745 136.759C151.116 137.139 151.633 137.33 152.296 137.33C152.784 137.33 153.208 137.232 153.569 137.037C153.93 136.832 154.208 136.54 154.403 136.159C154.598 135.769 154.695 135.301 154.695 134.755V130.746H156.1V138.5H154.769V136.408L154.988 136.964C154.734 137.481 154.354 137.881 153.847 138.164C153.34 138.446 152.769 138.588 152.135 138.588ZM163.587 138.5V136.861L163.513 136.554V133.76C163.513 133.165 163.338 132.707 162.987 132.385C162.645 132.053 162.129 131.887 161.436 131.887C160.978 131.887 160.529 131.965 160.09 132.122C159.651 132.268 159.281 132.468 158.978 132.721L158.393 131.668C158.793 131.346 159.271 131.102 159.827 130.937C160.393 130.761 160.983 130.673 161.597 130.673C162.66 130.673 163.479 130.932 164.055 131.449C164.63 131.965 164.918 132.755 164.918 133.819V138.5H163.587ZM161.041 138.588C160.466 138.588 159.959 138.49 159.52 138.295C159.091 138.1 158.759 137.832 158.525 137.491C158.291 137.139 158.174 136.744 158.174 136.306C158.174 135.886 158.271 135.506 158.466 135.164C158.671 134.823 158.998 134.55 159.446 134.345C159.905 134.14 160.519 134.038 161.29 134.038H163.748V135.047H161.348C160.646 135.047 160.173 135.164 159.929 135.399C159.685 135.633 159.564 135.915 159.564 136.247C159.564 136.627 159.715 136.935 160.017 137.169C160.319 137.393 160.739 137.505 161.275 137.505C161.802 137.505 162.26 137.388 162.65 137.154C163.05 136.92 163.338 136.579 163.513 136.13L163.791 137.096C163.606 137.554 163.279 137.92 162.811 138.193C162.343 138.456 161.753 138.588 161.041 138.588ZM167.517 138.5V127.645H168.921V138.5H167.517ZM181.302 130.673C181.927 130.673 182.478 130.795 182.955 131.039C183.433 131.283 183.804 131.653 184.067 132.151C184.34 132.648 184.477 133.277 184.477 134.038V138.5H183.072V134.199C183.072 133.448 182.897 132.882 182.546 132.502C182.195 132.122 181.702 131.931 181.068 131.931C180.6 131.931 180.19 132.029 179.839 132.224C179.488 132.419 179.215 132.707 179.02 133.087C178.835 133.467 178.742 133.94 178.742 134.506V138.5H177.338V134.199C177.338 133.448 177.162 132.882 176.811 132.502C176.47 132.122 175.977 131.931 175.333 131.931C174.875 131.931 174.47 132.029 174.119 132.224C173.768 132.419 173.495 132.707 173.3 133.087C173.105 133.467 173.007 133.94 173.007 134.506V138.5H171.603V130.746H172.949V132.809L172.729 132.282C172.973 131.775 173.349 131.38 173.856 131.097C174.363 130.815 174.953 130.673 175.626 130.673C176.367 130.673 177.006 130.859 177.543 131.229C178.079 131.59 178.43 132.141 178.596 132.882L178.025 132.648C178.259 132.053 178.669 131.575 179.254 131.214C179.839 130.854 180.522 130.673 181.302 130.673ZM190.514 138.588C189.685 138.588 188.953 138.417 188.319 138.076C187.695 137.734 187.207 137.266 186.856 136.671C186.515 136.076 186.344 135.394 186.344 134.623C186.344 133.853 186.51 133.17 186.842 132.575C187.183 131.98 187.646 131.517 188.231 131.185C188.826 130.844 189.494 130.673 190.236 130.673C190.987 130.673 191.65 130.839 192.225 131.171C192.801 131.502 193.249 131.97 193.571 132.575C193.903 133.17 194.069 133.867 194.069 134.667C194.069 134.726 194.064 134.794 194.054 134.872C194.054 134.95 194.049 135.023 194.039 135.091H187.441V134.082H193.308L192.737 134.433C192.747 133.936 192.645 133.492 192.43 133.102C192.216 132.712 191.918 132.409 191.538 132.195C191.167 131.97 190.733 131.858 190.236 131.858C189.748 131.858 189.314 131.97 188.934 132.195C188.553 132.409 188.256 132.716 188.041 133.116C187.827 133.506 187.719 133.955 187.719 134.462V134.696C187.719 135.213 187.836 135.677 188.071 136.086C188.314 136.486 188.651 136.798 189.08 137.022C189.509 137.247 190.002 137.359 190.558 137.359C191.016 137.359 191.43 137.281 191.801 137.125C192.181 136.969 192.513 136.735 192.796 136.423L193.571 137.33C193.22 137.739 192.781 138.051 192.255 138.266C191.738 138.48 191.157 138.588 190.514 138.588ZM200.159 130.673C200.793 130.673 201.349 130.795 201.827 131.039C202.314 131.283 202.695 131.653 202.968 132.151C203.241 132.648 203.377 133.277 203.377 134.038V138.5H201.973V134.199C201.973 133.448 201.788 132.882 201.417 132.502C201.056 132.122 200.544 131.931 199.881 131.931C199.384 131.931 198.95 132.029 198.579 132.224C198.208 132.419 197.921 132.707 197.716 133.087C197.521 133.467 197.423 133.94 197.423 134.506V138.5H196.019V130.746H197.365V132.838L197.145 132.282C197.399 131.775 197.789 131.38 198.316 131.097C198.842 130.815 199.457 130.673 200.159 130.673ZM208.639 138.588C207.859 138.588 207.254 138.378 206.825 137.959C206.396 137.539 206.181 136.94 206.181 136.159V129.049H207.586V136.101C207.586 136.52 207.688 136.842 207.893 137.066C208.108 137.291 208.41 137.403 208.8 137.403C209.239 137.403 209.605 137.281 209.897 137.037L210.336 138.046C210.122 138.232 209.863 138.368 209.561 138.456C209.268 138.544 208.961 138.588 208.639 138.588ZM204.865 131.902V130.746H209.81V131.902H204.865ZM215.23 138.588C214.401 138.588 213.669 138.417 213.035 138.076C212.411 137.734 211.923 137.266 211.572 136.671C211.231 136.076 211.06 135.394 211.06 134.623C211.06 133.853 211.226 133.17 211.558 132.575C211.899 131.98 212.362 131.517 212.947 131.185C213.542 130.844 214.21 130.673 214.952 130.673C215.703 130.673 216.366 130.839 216.941 131.171C217.517 131.502 217.965 131.97 218.287 132.575C218.619 133.17 218.785 133.867 218.785 134.667C218.785 134.726 218.78 134.794 218.77 134.872C218.77 134.95 218.765 135.023 218.755 135.091H212.157V134.082H218.024L217.453 134.433C217.463 133.936 217.361 133.492 217.146 133.102C216.931 132.712 216.634 132.409 216.254 132.195C215.883 131.97 215.449 131.858 214.952 131.858C214.464 131.858 214.03 131.97 213.65 132.195C213.269 132.409 212.972 132.716 212.757 133.116C212.543 133.506 212.435 133.955 212.435 134.462V134.696C212.435 135.213 212.552 135.677 212.786 136.086C213.03 136.486 213.367 136.798 213.796 137.022C214.225 137.247 214.718 137.359 215.273 137.359C215.732 137.359 216.146 137.281 216.517 137.125C216.897 136.969 217.229 136.735 217.512 136.423L218.287 137.33C217.936 137.739 217.497 138.051 216.97 138.266C216.454 138.48 215.873 138.588 215.23 138.588ZM234.363 130.673C234.987 130.673 235.538 130.795 236.016 131.039C236.494 131.283 236.865 131.653 237.128 132.151C237.401 132.648 237.538 133.277 237.538 134.038V138.5H236.133V134.199C236.133 133.448 235.958 132.882 235.606 132.502C235.255 132.122 234.763 131.931 234.129 131.931C233.661 131.931 233.251 132.029 232.9 132.224C232.549 132.419 232.276 132.707 232.081 133.087C231.895 133.467 231.803 133.94 231.803 134.506V138.5H230.398V134.199C230.398 133.448 230.223 132.882 229.872 132.502C229.53 132.122 229.038 131.931 228.394 131.931C227.936 131.931 227.531 132.029 227.18 132.224C226.829 132.419 226.556 132.707 226.361 133.087C226.166 133.467 226.068 133.94 226.068 134.506V138.5H224.664V130.746H226.009V132.809L225.79 132.282C226.034 131.775 226.409 131.38 226.917 131.097C227.424 130.815 228.014 130.673 228.687 130.673C229.428 130.673 230.067 130.859 230.603 131.229C231.14 131.59 231.491 132.141 231.656 132.882L231.086 132.648C231.32 132.053 231.73 131.575 232.315 131.214C232.9 130.854 233.583 130.673 234.363 130.673ZM243.574 138.588C242.745 138.588 242.014 138.417 241.38 138.076C240.756 137.734 240.268 137.266 239.917 136.671C239.576 136.076 239.405 135.394 239.405 134.623C239.405 133.853 239.571 133.17 239.902 132.575C240.244 131.98 240.707 131.517 241.292 131.185C241.887 130.844 242.555 130.673 243.296 130.673C244.047 130.673 244.711 130.839 245.286 131.171C245.861 131.502 246.31 131.97 246.632 132.575C246.963 133.17 247.129 133.867 247.129 134.667C247.129 134.726 247.124 134.794 247.115 134.872C247.115 134.95 247.11 135.023 247.1 135.091H240.502V134.082H246.369L245.798 134.433C245.808 133.936 245.705 133.492 245.491 133.102C245.276 132.712 244.979 132.409 244.598 132.195C244.228 131.97 243.794 131.858 243.296 131.858C242.809 131.858 242.375 131.97 241.994 132.195C241.614 132.409 241.316 132.716 241.102 133.116C240.887 133.506 240.78 133.955 240.78 134.462V134.696C240.78 135.213 240.897 135.677 241.131 136.086C241.375 136.486 241.711 136.798 242.141 137.022C242.57 137.247 243.062 137.359 243.618 137.359C244.077 137.359 244.491 137.281 244.862 137.125C245.242 136.969 245.574 136.735 245.856 136.423L246.632 137.33C246.281 137.739 245.842 138.051 245.315 138.266C244.798 138.48 244.218 138.588 243.574 138.588ZM256.461 138.588C255.632 138.588 254.9 138.417 254.266 138.076C253.642 137.734 253.155 137.266 252.803 136.671C252.462 136.076 252.291 135.394 252.291 134.623C252.291 133.853 252.457 133.17 252.789 132.575C253.13 131.98 253.593 131.517 254.179 131.185C254.774 130.844 255.442 130.673 256.183 130.673C256.934 130.673 257.597 130.839 258.172 131.171C258.748 131.502 259.197 131.97 259.518 132.575C259.85 133.17 260.016 133.867 260.016 134.667C260.016 134.726 260.011 134.794 260.001 134.872C260.001 134.95 259.996 135.023 259.987 135.091H253.389V134.082H259.255L258.685 134.433C258.694 133.936 258.592 133.492 258.377 133.102C258.163 132.712 257.865 132.409 257.485 132.195C257.114 131.97 256.68 131.858 256.183 131.858C255.695 131.858 255.261 131.97 254.881 132.195C254.5 132.409 254.203 132.716 253.988 133.116C253.774 133.506 253.667 133.955 253.667 134.462V134.696C253.667 135.213 253.784 135.677 254.018 136.086C254.262 136.486 254.598 136.798 255.027 137.022C255.456 137.247 255.949 137.359 256.505 137.359C256.963 137.359 257.378 137.281 257.748 137.125C258.129 136.969 258.46 136.735 258.743 136.423L259.518 137.33C259.167 137.739 258.728 138.051 258.202 138.266C257.685 138.48 257.105 138.588 256.461 138.588ZM266.106 130.673C266.74 130.673 267.296 130.795 267.774 131.039C268.262 131.283 268.642 131.653 268.915 132.151C269.188 132.648 269.325 133.277 269.325 134.038V138.5H267.92V134.199C267.92 133.448 267.735 132.882 267.364 132.502C267.003 132.122 266.491 131.931 265.828 131.931C265.331 131.931 264.897 132.029 264.526 132.224C264.156 132.419 263.868 132.707 263.663 133.087C263.468 133.467 263.37 133.94 263.37 134.506V138.5H261.966V130.746H263.312V132.838L263.092 132.282C263.346 131.775 263.736 131.38 264.263 131.097C264.789 130.815 265.404 130.673 266.106 130.673ZM275.303 138.588C274.513 138.588 273.806 138.417 273.182 138.076C272.567 137.734 272.085 137.266 271.734 136.671C271.382 136.076 271.207 135.394 271.207 134.623C271.207 133.853 271.382 133.17 271.734 132.575C272.085 131.98 272.567 131.517 273.182 131.185C273.806 130.844 274.513 130.673 275.303 130.673C276.005 130.673 276.63 130.815 277.176 131.097C277.732 131.371 278.161 131.78 278.463 132.326L277.395 133.014C277.142 132.634 276.83 132.356 276.459 132.18C276.098 131.995 275.708 131.902 275.289 131.902C274.781 131.902 274.328 132.014 273.928 132.239C273.528 132.463 273.211 132.78 272.977 133.189C272.743 133.589 272.626 134.067 272.626 134.623C272.626 135.179 272.743 135.662 272.977 136.071C273.211 136.481 273.528 136.798 273.928 137.022C274.328 137.247 274.781 137.359 275.289 137.359C275.708 137.359 276.098 137.271 276.459 137.096C276.83 136.91 277.142 136.627 277.395 136.247L278.463 136.92C278.161 137.456 277.732 137.871 277.176 138.164C276.63 138.446 276.005 138.588 275.303 138.588ZM283.544 138.588C282.881 138.588 282.295 138.466 281.788 138.222C281.291 137.978 280.901 137.608 280.618 137.11C280.345 136.603 280.208 135.969 280.208 135.208V130.746H281.613V135.047C281.613 135.808 281.793 136.379 282.154 136.759C282.525 137.139 283.042 137.33 283.705 137.33C284.192 137.33 284.617 137.232 284.978 137.037C285.338 136.832 285.616 136.54 285.811 136.159C286.006 135.769 286.104 135.301 286.104 134.755V130.746H287.508V138.5H286.177V136.408L286.397 136.964C286.143 137.481 285.763 137.881 285.256 138.164C284.748 138.446 284.178 138.588 283.544 138.588ZM293.635 138.588C292.806 138.588 292.074 138.417 291.44 138.076C290.816 137.734 290.328 137.266 289.977 136.671C289.636 136.076 289.465 135.394 289.465 134.623C289.465 133.853 289.631 133.17 289.963 132.575C290.304 131.98 290.767 131.517 291.352 131.185C291.947 130.844 292.615 130.673 293.357 130.673C294.108 130.673 294.771 130.839 295.346 131.171C295.922 131.502 296.37 131.97 296.692 132.575C297.024 133.17 297.19 133.867 297.19 134.667C297.19 134.726 297.185 134.794 297.175 134.872C297.175 134.95 297.17 135.023 297.16 135.091H290.562V134.082H296.429L295.858 134.433C295.868 133.936 295.766 133.492 295.551 133.102C295.337 132.712 295.039 132.409 294.659 132.195C294.288 131.97 293.854 131.858 293.357 131.858C292.869 131.858 292.435 131.97 292.055 132.195C291.674 132.409 291.377 132.716 291.162 133.116C290.948 133.506 290.84 133.955 290.84 134.462V134.696C290.84 135.213 290.957 135.677 291.192 136.086C291.435 136.486 291.772 136.798 292.201 137.022C292.63 137.247 293.123 137.359 293.679 137.359C294.137 137.359 294.551 137.281 294.922 137.125C295.302 136.969 295.634 136.735 295.917 136.423L296.692 137.33C296.341 137.739 295.902 138.051 295.376 138.266C294.859 138.48 294.278 138.588 293.635 138.588ZM303.28 130.673C303.914 130.673 304.47 130.795 304.948 131.039C305.435 131.283 305.816 131.653 306.089 132.151C306.362 132.648 306.499 133.277 306.499 134.038V138.5H305.094V134.199C305.094 133.448 304.909 132.882 304.538 132.502C304.177 132.122 303.665 131.931 303.002 131.931C302.505 131.931 302.071 132.029 301.7 132.224C301.329 132.419 301.042 132.707 300.837 133.087C300.642 133.467 300.544 133.94 300.544 134.506V138.5H299.14V130.746H300.486V132.838L300.266 132.282C300.52 131.775 300.91 131.38 301.437 131.097C301.963 130.815 302.578 130.673 303.28 130.673ZM311.76 138.588C310.98 138.588 310.375 138.378 309.946 137.959C309.517 137.539 309.302 136.94 309.302 136.159V129.049H310.707V136.101C310.707 136.52 310.809 136.842 311.014 137.066C311.229 137.291 311.531 137.403 311.921 137.403C312.36 137.403 312.726 137.281 313.018 137.037L313.457 138.046C313.243 138.232 312.984 138.368 312.682 138.456C312.389 138.544 312.082 138.588 311.76 138.588ZM307.986 131.902V130.746H312.931V131.902H307.986ZM315.155 138.5V130.746H316.501V132.853L316.369 132.326C316.584 131.79 316.945 131.38 317.452 131.097C317.959 130.815 318.583 130.673 319.325 130.673V132.034C319.266 132.024 319.208 132.019 319.149 132.019C319.1 132.019 319.052 132.019 319.003 132.019C318.252 132.019 317.657 132.243 317.218 132.692C316.779 133.141 316.56 133.789 316.56 134.638V138.5H315.155ZM324.305 138.588C323.525 138.588 322.832 138.417 322.228 138.076C321.623 137.734 321.145 137.266 320.794 136.671C320.443 136.067 320.267 135.384 320.267 134.623C320.267 133.853 320.443 133.17 320.794 132.575C321.145 131.98 321.623 131.517 322.228 131.185C322.832 130.844 323.525 130.673 324.305 130.673C325.076 130.673 325.763 130.844 326.368 131.185C326.982 131.517 327.46 131.98 327.801 132.575C328.153 133.16 328.328 133.843 328.328 134.623C328.328 135.394 328.153 136.076 327.801 136.671C327.46 137.266 326.982 137.734 326.368 138.076C325.763 138.417 325.076 138.588 324.305 138.588ZM324.305 137.359C324.802 137.359 325.246 137.247 325.636 137.022C326.036 136.798 326.348 136.481 326.573 136.071C326.797 135.652 326.909 135.169 326.909 134.623C326.909 134.067 326.797 133.589 326.573 133.189C326.348 132.78 326.036 132.463 325.636 132.239C325.246 132.014 324.802 131.902 324.305 131.902C323.808 131.902 323.364 132.014 322.974 132.239C322.584 132.463 322.272 132.78 322.037 133.189C321.803 133.589 321.686 134.067 321.686 134.623C321.686 135.169 321.803 135.652 322.037 136.071C322.272 136.481 322.584 136.798 322.974 137.022C323.364 137.247 323.808 137.359 324.305 137.359ZM127.094 156.588C126.304 156.588 125.596 156.417 124.972 156.076C124.358 155.734 123.875 155.266 123.524 154.671C123.173 154.076 122.997 153.394 122.997 152.623C122.997 151.853 123.173 151.17 123.524 150.575C123.875 149.98 124.358 149.517 124.972 149.185C125.596 148.844 126.304 148.673 127.094 148.673C127.796 148.673 128.42 148.815 128.966 149.097C129.522 149.371 129.951 149.78 130.253 150.326L129.186 151.014C128.932 150.634 128.62 150.356 128.249 150.18C127.888 149.995 127.498 149.902 127.079 149.902C126.572 149.902 126.118 150.014 125.718 150.239C125.318 150.463 125.001 150.78 124.767 151.189C124.533 151.589 124.416 152.067 124.416 152.623C124.416 153.179 124.533 153.662 124.767 154.071C125.001 154.481 125.318 154.798 125.718 155.022C126.118 155.247 126.572 155.359 127.079 155.359C127.498 155.359 127.888 155.271 128.249 155.096C128.62 154.91 128.932 154.627 129.186 154.247L130.253 154.92C129.951 155.456 129.522 155.871 128.966 156.164C128.42 156.446 127.796 156.588 127.094 156.588ZM135.334 156.588C134.671 156.588 134.086 156.466 133.579 156.222C133.081 155.978 132.691 155.608 132.408 155.11C132.135 154.603 131.999 153.969 131.999 153.208V148.746H133.403V153.047C133.403 153.808 133.584 154.379 133.944 154.759C134.315 155.139 134.832 155.33 135.495 155.33C135.983 155.33 136.407 155.232 136.768 155.037C137.129 154.832 137.407 154.54 137.602 154.159C137.797 153.769 137.894 153.301 137.894 152.755V148.746H139.299V156.5H137.967V154.408L138.187 154.964C137.933 155.481 137.553 155.881 137.046 156.164C136.539 156.446 135.968 156.588 135.334 156.588ZM141.972 156.5V148.746H143.318V150.853L143.187 150.326C143.401 149.79 143.762 149.38 144.269 149.097C144.776 148.815 145.401 148.673 146.142 148.673V150.034C146.083 150.024 146.025 150.019 145.966 150.019C145.918 150.019 145.869 150.019 145.82 150.019C145.069 150.019 144.474 150.243 144.035 150.692C143.596 151.141 143.377 151.789 143.377 152.638V156.5H141.972ZM150.182 156.588C149.539 156.588 148.924 156.5 148.339 156.324C147.763 156.149 147.31 155.934 146.978 155.681L147.564 154.569C147.895 154.793 148.305 154.983 148.792 155.139C149.28 155.296 149.777 155.374 150.285 155.374C150.938 155.374 151.406 155.281 151.689 155.096C151.982 154.91 152.128 154.652 152.128 154.32C152.128 154.076 152.04 153.886 151.865 153.75C151.689 153.613 151.455 153.511 151.162 153.442C150.88 153.374 150.563 153.316 150.211 153.267C149.86 153.208 149.509 153.14 149.158 153.062C148.807 152.974 148.485 152.857 148.193 152.711C147.9 152.555 147.666 152.345 147.49 152.082C147.315 151.809 147.227 151.448 147.227 150.999C147.227 150.531 147.359 150.122 147.622 149.77C147.885 149.419 148.256 149.151 148.734 148.966C149.222 148.771 149.797 148.673 150.46 148.673C150.967 148.673 151.479 148.737 151.996 148.863C152.523 148.98 152.952 149.151 153.284 149.375L152.684 150.487C152.333 150.253 151.967 150.092 151.587 150.004C151.206 149.917 150.826 149.873 150.446 149.873C149.831 149.873 149.373 149.975 149.07 150.18C148.768 150.375 148.617 150.629 148.617 150.941C148.617 151.204 148.705 151.409 148.88 151.555C149.066 151.692 149.3 151.799 149.582 151.877C149.875 151.955 150.197 152.023 150.548 152.082C150.899 152.131 151.25 152.199 151.601 152.287C151.952 152.365 152.269 152.477 152.552 152.623C152.845 152.769 153.079 152.974 153.254 153.238C153.44 153.501 153.532 153.852 153.532 154.291C153.532 154.759 153.396 155.164 153.123 155.505C152.85 155.847 152.464 156.115 151.967 156.31C151.47 156.495 150.875 156.588 150.182 156.588ZM160.101 156.5V154.861L160.028 154.554V151.76C160.028 151.165 159.852 150.707 159.501 150.385C159.16 150.053 158.643 149.887 157.95 149.887C157.492 149.887 157.043 149.965 156.604 150.122C156.165 150.268 155.795 150.468 155.492 150.721L154.907 149.668C155.307 149.346 155.785 149.102 156.341 148.937C156.907 148.761 157.497 148.673 158.111 148.673C159.174 148.673 159.993 148.932 160.569 149.449C161.144 149.965 161.432 150.755 161.432 151.819V156.5H160.101ZM157.555 156.588C156.98 156.588 156.473 156.49 156.034 156.295C155.605 156.1 155.273 155.832 155.039 155.491C154.805 155.139 154.688 154.744 154.688 154.306C154.688 153.886 154.785 153.506 154.98 153.164C155.185 152.823 155.512 152.55 155.961 152.345C156.419 152.14 157.033 152.038 157.804 152.038H160.262V153.047H157.862C157.16 153.047 156.687 153.164 156.443 153.399C156.199 153.633 156.078 153.915 156.078 154.247C156.078 154.627 156.229 154.935 156.531 155.169C156.833 155.393 157.253 155.505 157.789 155.505C158.316 155.505 158.774 155.388 159.164 155.154C159.564 154.92 159.852 154.579 160.028 154.13L160.306 155.096C160.12 155.554 159.793 155.92 159.325 156.193C158.857 156.456 158.267 156.588 157.555 156.588ZM168.171 148.673C168.805 148.673 169.361 148.795 169.839 149.039C170.327 149.283 170.707 149.653 170.98 150.151C171.253 150.648 171.39 151.277 171.39 152.038V156.5H169.985V152.199C169.985 151.448 169.8 150.882 169.429 150.502C169.068 150.122 168.556 149.931 167.893 149.931C167.396 149.931 166.962 150.029 166.591 150.224C166.221 150.419 165.933 150.707 165.728 151.087C165.533 151.467 165.435 151.94 165.435 152.506V156.5H164.031V148.746H165.377V150.838L165.157 150.282C165.411 149.775 165.801 149.38 166.328 149.097C166.855 148.815 167.469 148.673 168.171 148.673ZM177.193 156.588C176.442 156.588 175.769 156.422 175.174 156.09C174.589 155.759 174.125 155.296 173.784 154.701C173.443 154.106 173.272 153.413 173.272 152.623C173.272 151.833 173.443 151.146 173.784 150.56C174.125 149.965 174.589 149.502 175.174 149.171C175.769 148.839 176.442 148.673 177.193 148.673C177.846 148.673 178.436 148.819 178.963 149.112C179.49 149.405 179.909 149.844 180.221 150.429C180.543 151.014 180.704 151.745 180.704 152.623C180.704 153.501 180.548 154.232 180.236 154.818C179.933 155.403 179.519 155.847 178.992 156.149C178.465 156.441 177.866 156.588 177.193 156.588ZM177.31 155.359C177.797 155.359 178.236 155.247 178.626 155.022C179.026 154.798 179.338 154.481 179.563 154.071C179.797 153.652 179.914 153.169 179.914 152.623C179.914 152.067 179.797 151.589 179.563 151.189C179.338 150.78 179.026 150.463 178.626 150.239C178.236 150.014 177.797 149.902 177.31 149.902C176.812 149.902 176.369 150.014 175.978 150.239C175.588 150.463 175.276 150.78 175.042 151.189C174.808 151.589 174.691 152.067 174.691 152.623C174.691 153.169 174.808 153.652 175.042 154.071C175.276 154.481 175.588 154.798 175.978 155.022C176.369 155.247 176.812 155.359 177.31 155.359ZM179.958 156.5V154.408L180.045 152.609L179.899 150.809V145.645H181.304V156.5H179.958ZM187.282 156.588C186.502 156.588 185.809 156.417 185.204 156.076C184.6 155.734 184.122 155.266 183.771 154.671C183.42 154.067 183.244 153.384 183.244 152.623C183.244 151.853 183.42 151.17 183.771 150.575C184.122 149.98 184.6 149.517 185.204 149.185C185.809 148.844 186.502 148.673 187.282 148.673C188.052 148.673 188.74 148.844 189.345 149.185C189.959 149.517 190.437 149.98 190.778 150.575C191.129 151.16 191.305 151.843 191.305 152.623C191.305 153.394 191.129 154.076 190.778 154.671C190.437 155.266 189.959 155.734 189.345 156.076C188.74 156.417 188.052 156.588 187.282 156.588ZM187.282 155.359C187.779 155.359 188.223 155.247 188.613 155.022C189.013 154.798 189.325 154.481 189.549 154.071C189.774 153.652 189.886 153.169 189.886 152.623C189.886 152.067 189.774 151.589 189.549 151.189C189.325 150.78 189.013 150.463 188.613 150.239C188.223 150.014 187.779 149.902 187.282 149.902C186.784 149.902 186.341 150.014 185.951 150.239C185.56 150.463 185.248 150.78 185.014 151.189C184.78 151.589 184.663 152.067 184.663 152.623C184.663 153.169 184.78 153.652 185.014 154.071C185.248 154.481 185.56 154.798 185.951 155.022C186.341 155.247 186.784 155.359 187.282 155.359ZM200.629 156.588C199.8 156.588 199.068 156.417 198.434 156.076C197.81 155.734 197.322 155.266 196.971 154.671C196.63 154.076 196.459 153.394 196.459 152.623C196.459 151.853 196.625 151.17 196.957 150.575C197.298 149.98 197.761 149.517 198.346 149.185C198.941 148.844 199.609 148.673 200.351 148.673C201.102 148.673 201.765 148.839 202.34 149.171C202.916 149.502 203.364 149.97 203.686 150.575C204.018 151.17 204.184 151.867 204.184 152.667C204.184 152.726 204.179 152.794 204.169 152.872C204.169 152.95 204.164 153.023 204.154 153.091H197.556V152.082H203.423L202.852 152.433C202.862 151.936 202.76 151.492 202.545 151.102C202.331 150.712 202.033 150.409 201.653 150.195C201.282 149.97 200.848 149.858 200.351 149.858C199.863 149.858 199.429 149.97 199.049 150.195C198.668 150.409 198.371 150.716 198.156 151.116C197.942 151.506 197.834 151.955 197.834 152.462V152.696C197.834 153.213 197.951 153.677 198.185 154.086C198.429 154.486 198.766 154.798 199.195 155.022C199.624 155.247 200.117 155.359 200.673 155.359C201.131 155.359 201.545 155.281 201.916 155.125C202.296 154.969 202.628 154.735 202.911 154.423L203.686 155.33C203.335 155.739 202.896 156.051 202.37 156.266C201.853 156.48 201.272 156.588 200.629 156.588ZM206.134 156.5V145.645H207.538V156.5H206.134ZM216.811 156.588C216.031 156.588 215.426 156.378 214.997 155.959C214.568 155.539 214.353 154.94 214.353 154.159V147.049H215.758V154.101C215.758 154.52 215.86 154.842 216.065 155.066C216.28 155.291 216.582 155.403 216.972 155.403C217.411 155.403 217.777 155.281 218.069 155.037L218.508 156.046C218.294 156.232 218.035 156.368 217.733 156.456C217.44 156.544 217.133 156.588 216.811 156.588ZM213.037 149.902V148.746H217.982V149.902H213.037ZM223.402 156.588C222.573 156.588 221.841 156.417 221.207 156.076C220.583 155.734 220.095 155.266 219.744 154.671C219.403 154.076 219.232 153.394 219.232 152.623C219.232 151.853 219.398 151.17 219.73 150.575C220.071 149.98 220.534 149.517 221.119 149.185C221.714 148.844 222.382 148.673 223.124 148.673C223.875 148.673 224.538 148.839 225.113 149.171C225.689 149.502 226.137 149.97 226.459 150.575C226.791 151.17 226.956 151.867 226.956 152.667C226.956 152.726 226.952 152.794 226.942 152.872C226.942 152.95 226.937 153.023 226.927 153.091H220.329V152.082H226.196L225.625 152.433C225.635 151.936 225.533 151.492 225.318 151.102C225.103 150.712 224.806 150.409 224.426 150.195C224.055 149.97 223.621 149.858 223.124 149.858C222.636 149.858 222.202 149.97 221.822 150.195C221.441 150.409 221.144 150.716 220.929 151.116C220.715 151.506 220.607 151.955 220.607 152.462V152.696C220.607 153.213 220.724 153.677 220.958 154.086C221.202 154.486 221.539 154.798 221.968 155.022C222.397 155.247 222.889 155.359 223.445 155.359C223.904 155.359 224.318 155.281 224.689 155.125C225.069 154.969 225.401 154.735 225.684 154.423L226.459 155.33C226.108 155.739 225.669 156.051 225.142 156.266C224.626 156.48 224.045 156.588 223.402 156.588ZM228.907 156.5V148.746H230.253V150.853L230.121 150.326C230.336 149.79 230.696 149.38 231.204 149.097C231.711 148.815 232.335 148.673 233.076 148.673V150.034C233.018 150.024 232.959 150.019 232.901 150.019C232.852 150.019 232.803 150.019 232.754 150.019C232.003 150.019 231.408 150.243 230.969 150.692C230.531 151.141 230.311 151.789 230.311 152.638V156.5H228.907ZM238.115 156.588C237.325 156.588 236.618 156.417 235.994 156.076C235.379 155.734 234.897 155.266 234.545 154.671C234.194 154.076 234.019 153.394 234.019 152.623C234.019 151.853 234.194 151.17 234.545 150.575C234.897 149.98 235.379 149.517 235.994 149.185C236.618 148.844 237.325 148.673 238.115 148.673C238.817 148.673 239.441 148.815 239.988 149.097C240.544 149.371 240.973 149.78 241.275 150.326L240.207 151.014C239.954 150.634 239.641 150.356 239.271 150.18C238.91 149.995 238.52 149.902 238.1 149.902C237.593 149.902 237.14 150.014 236.74 150.239C236.34 150.463 236.023 150.78 235.789 151.189C235.555 151.589 235.438 152.067 235.438 152.623C235.438 153.179 235.555 153.662 235.789 154.071C236.023 154.481 236.34 154.798 236.74 155.022C237.14 155.247 237.593 155.359 238.1 155.359C238.52 155.359 238.91 155.271 239.271 155.096C239.641 154.91 239.954 154.627 240.207 154.247L241.275 154.92C240.973 155.456 240.544 155.871 239.988 156.164C239.441 156.446 238.817 156.588 238.115 156.588ZM246.432 156.588C245.603 156.588 244.871 156.417 244.237 156.076C243.613 155.734 243.125 155.266 242.774 154.671C242.433 154.076 242.262 153.394 242.262 152.623C242.262 151.853 242.428 151.17 242.76 150.575C243.101 149.98 243.564 149.517 244.149 149.185C244.744 148.844 245.412 148.673 246.154 148.673C246.905 148.673 247.568 148.839 248.143 149.171C248.719 149.502 249.167 149.97 249.489 150.575C249.821 151.17 249.987 151.867 249.987 152.667C249.987 152.726 249.982 152.794 249.972 152.872C249.972 152.95 249.967 153.023 249.957 153.091H243.359V152.082H249.226L248.655 152.433C248.665 151.936 248.563 151.492 248.348 151.102C248.134 150.712 247.836 150.409 247.456 150.195C247.085 149.97 246.651 149.858 246.154 149.858C245.666 149.858 245.232 149.97 244.852 150.195C244.471 150.409 244.174 150.716 243.959 151.116C243.745 151.506 243.637 151.955 243.637 152.462V152.696C243.637 153.213 243.754 153.677 243.988 154.086C244.232 154.486 244.569 154.798 244.998 155.022C245.427 155.247 245.92 155.359 246.475 155.359C246.934 155.359 247.348 155.281 247.719 155.125C248.099 154.969 248.431 154.735 248.714 154.423L249.489 155.33C249.138 155.739 248.699 156.051 248.173 156.266C247.656 156.48 247.075 156.588 246.432 156.588ZM251.937 156.5V148.746H253.283V150.853L253.151 150.326C253.366 149.79 253.726 149.38 254.234 149.097C254.741 148.815 255.365 148.673 256.106 148.673V150.034C256.048 150.024 255.989 150.019 255.931 150.019C255.882 150.019 255.833 150.019 255.784 150.019C255.033 150.019 254.438 150.243 254 150.692C253.561 151.141 253.341 151.789 253.341 152.638V156.5H251.937ZM266.679 156.5V154.861L266.606 154.554V151.76C266.606 151.165 266.43 150.707 266.079 150.385C265.738 150.053 265.221 149.887 264.529 149.887C264.07 149.887 263.622 149.965 263.183 150.122C262.744 150.268 262.373 150.468 262.071 150.721L261.486 149.668C261.885 149.346 262.363 149.102 262.919 148.937C263.485 148.761 264.075 148.673 264.689 148.673C265.753 148.673 266.572 148.932 267.147 149.449C267.723 149.965 268.01 150.755 268.01 151.819V156.5H266.679ZM264.134 156.588C263.558 156.588 263.051 156.49 262.612 156.295C262.183 156.1 261.851 155.832 261.617 155.491C261.383 155.139 261.266 154.744 261.266 154.306C261.266 153.886 261.364 153.506 261.559 153.164C261.764 152.823 262.09 152.55 262.539 152.345C262.997 152.14 263.612 152.038 264.382 152.038H266.84V153.047H264.441C263.739 153.047 263.266 153.164 263.022 153.399C262.778 153.633 262.656 153.915 262.656 154.247C262.656 154.627 262.807 154.935 263.109 155.169C263.412 155.393 263.831 155.505 264.368 155.505C264.894 155.505 265.353 155.388 265.743 155.154C266.143 154.92 266.43 154.579 266.606 154.13L266.884 155.096C266.699 155.554 266.372 155.92 265.904 156.193C265.436 156.456 264.846 156.588 264.134 156.588ZM274.75 148.673C275.384 148.673 275.939 148.795 276.417 149.039C276.905 149.283 277.285 149.653 277.558 150.151C277.832 150.648 277.968 151.277 277.968 152.038V156.5H276.564V152.199C276.564 151.448 276.378 150.882 276.008 150.502C275.647 150.122 275.135 149.931 274.472 149.931C273.974 149.931 273.54 150.029 273.17 150.224C272.799 150.419 272.511 150.707 272.306 151.087C272.111 151.467 272.014 151.94 272.014 152.506V156.5H270.609V148.746H271.955V150.838L271.736 150.282C271.989 149.775 272.38 149.38 272.906 149.097C273.433 148.815 274.047 148.673 274.75 148.673ZM275.32 147.576C275.086 147.576 274.876 147.527 274.691 147.43C274.515 147.332 274.355 147.22 274.208 147.093C274.062 146.957 273.921 146.84 273.784 146.742C273.647 146.645 273.511 146.596 273.374 146.596C273.16 146.596 272.984 146.679 272.848 146.845C272.721 147.001 272.648 147.22 272.628 147.503H271.838C271.858 146.957 271.994 146.523 272.248 146.201C272.501 145.879 272.843 145.718 273.272 145.718C273.506 145.718 273.716 145.772 273.901 145.879C274.086 145.976 274.252 146.094 274.398 146.23C274.545 146.357 274.681 146.469 274.808 146.567C274.945 146.664 275.081 146.713 275.218 146.713C275.432 146.713 275.608 146.635 275.744 146.479C275.881 146.323 275.954 146.108 275.964 145.835H276.754C276.744 146.352 276.608 146.771 276.344 147.093C276.091 147.415 275.749 147.576 275.32 147.576ZM283.888 156.588C283.108 156.588 282.415 156.417 281.811 156.076C281.206 155.734 280.728 155.266 280.377 154.671C280.026 154.067 279.85 153.384 279.85 152.623C279.85 151.853 280.026 151.17 280.377 150.575C280.728 149.98 281.206 149.517 281.811 149.185C282.415 148.844 283.108 148.673 283.888 148.673C284.659 148.673 285.346 148.844 285.951 149.185C286.565 149.517 287.043 149.98 287.385 150.575C287.736 151.16 287.911 151.843 287.911 152.623C287.911 153.394 287.736 154.076 287.385 154.671C287.043 155.266 286.565 155.734 285.951 156.076C285.346 156.417 284.659 156.588 283.888 156.588ZM283.888 155.359C284.386 155.359 284.829 155.247 285.219 155.022C285.619 154.798 285.931 154.481 286.156 154.071C286.38 153.652 286.492 153.169 286.492 152.623C286.492 152.067 286.38 151.589 286.156 151.189C285.931 150.78 285.619 150.463 285.219 150.239C284.829 150.014 284.386 149.902 283.888 149.902C283.391 149.902 282.947 150.014 282.557 150.239C282.167 150.463 281.855 150.78 281.621 151.189C281.386 151.589 281.269 152.067 281.269 152.623C281.269 153.169 281.386 153.652 281.621 154.071C281.855 154.481 282.167 154.798 282.557 155.022C282.947 155.247 283.391 155.359 283.888 155.359ZM297.235 156.588C296.406 156.588 295.674 156.417 295.04 156.076C294.416 155.734 293.929 155.266 293.578 154.671C293.236 154.076 293.066 153.394 293.066 152.623C293.066 151.853 293.231 151.17 293.563 150.575C293.904 149.98 294.368 149.517 294.953 149.185C295.548 148.844 296.216 148.673 296.957 148.673C297.708 148.673 298.371 148.839 298.947 149.171C299.522 149.502 299.971 149.97 300.292 150.575C300.624 151.17 300.79 151.867 300.79 152.667C300.79 152.726 300.785 152.794 300.775 152.872C300.775 152.95 300.77 153.023 300.761 153.091H294.163V152.082H300.029L299.459 152.433C299.468 151.936 299.366 151.492 299.151 151.102C298.937 150.712 298.639 150.409 298.259 150.195C297.888 149.97 297.454 149.858 296.957 149.858C296.469 149.858 296.035 149.97 295.655 150.195C295.275 150.409 294.977 150.716 294.763 151.116C294.548 151.506 294.441 151.955 294.441 152.462V152.696C294.441 153.213 294.558 153.677 294.792 154.086C295.036 154.486 295.372 154.798 295.801 155.022C296.23 155.247 296.723 155.359 297.279 155.359C297.737 155.359 298.152 155.281 298.522 155.125C298.903 154.969 299.234 154.735 299.517 154.423L300.292 155.33C299.941 155.739 299.502 156.051 298.976 156.266C298.459 156.48 297.879 156.588 297.235 156.588ZM306.88 148.673C307.514 148.673 308.07 148.795 308.548 149.039C309.036 149.283 309.416 149.653 309.689 150.151C309.962 150.648 310.099 151.277 310.099 152.038V156.5H308.694V152.199C308.694 151.448 308.509 150.882 308.138 150.502C307.778 150.122 307.265 149.931 306.602 149.931C306.105 149.931 305.671 150.029 305.3 150.224C304.93 150.419 304.642 150.707 304.437 151.087C304.242 151.467 304.145 151.94 304.145 152.506V156.5H302.74V148.746H304.086V150.838L303.867 150.282C304.12 149.775 304.51 149.38 305.037 149.097C305.564 148.815 306.178 148.673 306.88 148.673ZM316.627 156.5V145.645H318.031V156.5H316.627ZM325.526 156.5V154.861L325.453 154.554V151.76C325.453 151.165 325.277 150.707 324.926 150.385C324.585 150.053 324.068 149.887 323.375 149.887C322.917 149.887 322.468 149.965 322.029 150.122C321.59 150.268 321.22 150.468 320.917 150.721L320.332 149.668C320.732 149.346 321.21 149.102 321.766 148.937C322.332 148.761 322.922 148.673 323.536 148.673C324.599 148.673 325.419 148.932 325.994 149.449C326.569 149.965 326.857 150.755 326.857 151.819V156.5H325.526ZM322.98 156.588C322.405 156.588 321.898 156.49 321.459 156.295C321.03 156.1 320.698 155.832 320.464 155.491C320.23 155.139 320.113 154.744 320.113 154.306C320.113 153.886 320.21 153.506 320.405 153.164C320.61 152.823 320.937 152.55 321.386 152.345C321.844 152.14 322.458 152.038 323.229 152.038H325.687V153.047H323.287C322.585 153.047 322.112 153.164 321.868 153.399C321.625 153.633 321.503 153.915 321.503 154.247C321.503 154.627 321.654 154.935 321.956 155.169C322.259 155.393 322.678 155.505 323.214 155.505C323.741 155.505 324.199 155.388 324.59 155.154C324.989 154.92 325.277 154.579 325.453 154.13L325.731 155.096C325.545 155.554 325.219 155.92 324.75 156.193C324.282 156.456 323.692 156.588 322.98 156.588ZM123.919 174.5V166.059C123.919 165.298 124.138 164.693 124.577 164.245C125.026 163.786 125.66 163.557 126.479 163.557C126.781 163.557 127.069 163.596 127.342 163.674C127.625 163.742 127.864 163.855 128.059 164.011L127.635 165.079C127.489 164.962 127.323 164.874 127.137 164.815C126.952 164.747 126.757 164.713 126.552 164.713C126.143 164.713 125.831 164.83 125.616 165.064C125.401 165.288 125.294 165.625 125.294 166.073V167.112L125.323 167.756V174.5H123.919ZM122.602 167.902V166.746H127.547V167.902H122.602ZM133.542 174.5V172.861L133.469 172.554V169.76C133.469 169.165 133.293 168.707 132.942 168.385C132.601 168.053 132.084 167.887 131.391 167.887C130.933 167.887 130.484 167.965 130.045 168.122C129.606 168.268 129.236 168.468 128.934 168.721L128.348 167.668C128.748 167.346 129.226 167.102 129.782 166.937C130.348 166.761 130.938 166.673 131.552 166.673C132.615 166.673 133.435 166.932 134.01 167.449C134.585 167.965 134.873 168.755 134.873 169.819V174.5H133.542ZM130.996 174.588C130.421 174.588 129.914 174.49 129.475 174.295C129.046 174.1 128.714 173.832 128.48 173.491C128.246 173.139 128.129 172.744 128.129 172.306C128.129 171.886 128.226 171.506 128.421 171.164C128.626 170.823 128.953 170.55 129.402 170.345C129.86 170.14 130.475 170.038 131.245 170.038H133.703V171.047H131.304C130.601 171.047 130.128 171.164 129.884 171.399C129.641 171.633 129.519 171.915 129.519 172.247C129.519 172.627 129.67 172.935 129.972 173.169C130.275 173.393 130.694 173.505 131.23 173.505C131.757 173.505 132.215 173.388 132.606 173.154C133.005 172.92 133.293 172.579 133.469 172.13L133.747 173.096C133.561 173.554 133.235 173.92 132.766 174.193C132.298 174.456 131.708 174.588 130.996 174.588ZM140.852 174.588C140.062 174.588 139.354 174.417 138.73 174.076C138.116 173.734 137.633 173.266 137.282 172.671C136.931 172.076 136.755 171.394 136.755 170.623C136.755 169.853 136.931 169.17 137.282 168.575C137.633 167.98 138.116 167.517 138.73 167.185C139.354 166.844 140.062 166.673 140.852 166.673C141.554 166.673 142.178 166.815 142.724 167.097C143.28 167.371 143.709 167.78 144.012 168.326L142.944 169.014C142.69 168.634 142.378 168.356 142.007 168.18C141.646 167.995 141.256 167.902 140.837 167.902C140.33 167.902 139.876 168.014 139.476 168.239C139.077 168.463 138.76 168.78 138.525 169.189C138.291 169.589 138.174 170.067 138.174 170.623C138.174 171.179 138.291 171.662 138.525 172.071C138.76 172.481 139.077 172.798 139.476 173.022C139.876 173.247 140.33 173.359 140.837 173.359C141.256 173.359 141.646 173.271 142.007 173.096C142.378 172.91 142.69 172.627 142.944 172.247L144.012 172.92C143.709 173.456 143.28 173.871 142.724 174.164C142.178 174.446 141.554 174.588 140.852 174.588ZM149.092 174.588C148.429 174.588 147.844 174.466 147.337 174.222C146.839 173.978 146.449 173.608 146.166 173.11C145.893 172.603 145.757 171.969 145.757 171.208V166.746H147.161V171.047C147.161 171.808 147.342 172.379 147.702 172.759C148.073 173.139 148.59 173.33 149.253 173.33C149.741 173.33 150.165 173.232 150.526 173.037C150.887 172.832 151.165 172.54 151.36 172.159C151.555 171.769 151.652 171.301 151.652 170.755V166.746H153.057V174.5H151.726V172.408L151.945 172.964C151.691 173.481 151.311 173.881 150.804 174.164C150.297 174.446 149.726 174.588 149.092 174.588ZM155.73 174.5V163.645H157.135V174.5H155.73ZM162.679 174.588C161.899 174.588 161.294 174.378 160.865 173.959C160.436 173.539 160.221 172.94 160.221 172.159V165.049H161.626V172.101C161.626 172.52 161.728 172.842 161.933 173.066C162.148 173.291 162.45 173.403 162.84 173.403C163.279 173.403 163.645 173.281 163.937 173.037L164.376 174.046C164.162 174.232 163.903 174.368 163.601 174.456C163.308 174.544 163.001 174.588 162.679 174.588ZM158.905 167.902V166.746H163.849V167.902H158.905ZM170.887 174.5V172.861L170.814 172.554V169.76C170.814 169.165 170.638 168.707 170.287 168.385C169.946 168.053 169.429 167.887 168.737 167.887C168.278 167.887 167.83 167.965 167.391 168.122C166.952 168.268 166.581 168.468 166.279 168.721L165.694 167.668C166.094 167.346 166.571 167.102 167.127 166.937C167.693 166.761 168.283 166.673 168.898 166.673C169.961 166.673 170.78 166.932 171.355 167.449C171.931 167.965 172.218 168.755 172.218 169.819V174.5H170.887ZM168.342 174.588C167.766 174.588 167.259 174.49 166.82 174.295C166.391 174.1 166.059 173.832 165.825 173.491C165.591 173.139 165.474 172.744 165.474 172.306C165.474 171.886 165.572 171.506 165.767 171.164C165.972 170.823 166.298 170.55 166.747 170.345C167.205 170.14 167.82 170.038 168.59 170.038H171.048V171.047H168.649C167.947 171.047 167.474 171.164 167.23 171.399C166.986 171.633 166.864 171.915 166.864 172.247C166.864 172.627 167.015 172.935 167.318 173.169C167.62 173.393 168.039 173.505 168.576 173.505C169.102 173.505 169.561 173.388 169.951 173.154C170.351 172.92 170.638 172.579 170.814 172.13L171.092 173.096C170.907 173.554 170.58 173.92 170.112 174.193C169.644 174.456 169.054 174.588 168.342 174.588ZM178.021 174.588C177.27 174.588 176.597 174.422 176.002 174.09C175.417 173.759 174.954 173.296 174.613 172.701C174.271 172.106 174.101 171.413 174.101 170.623C174.101 169.833 174.271 169.146 174.613 168.56C174.954 167.965 175.417 167.502 176.002 167.171C176.597 166.839 177.27 166.673 178.021 166.673C178.675 166.673 179.265 166.819 179.791 167.112C180.318 167.405 180.738 167.844 181.05 168.429C181.371 169.014 181.532 169.745 181.532 170.623C181.532 171.501 181.376 172.232 181.064 172.818C180.762 173.403 180.347 173.847 179.821 174.149C179.294 174.441 178.694 174.588 178.021 174.588ZM178.138 173.359C178.626 173.359 179.065 173.247 179.455 173.022C179.855 172.798 180.167 172.481 180.391 172.071C180.625 171.652 180.742 171.169 180.742 170.623C180.742 170.067 180.625 169.589 180.391 169.189C180.167 168.78 179.855 168.463 179.455 168.239C179.065 168.014 178.626 167.902 178.138 167.902C177.641 167.902 177.197 168.014 176.807 168.239C176.417 168.463 176.105 168.78 175.871 169.189C175.637 169.589 175.52 170.067 175.52 170.623C175.52 171.169 175.637 171.652 175.871 172.071C176.105 172.481 176.417 172.798 176.807 173.022C177.197 173.247 177.641 173.359 178.138 173.359ZM180.786 174.5V172.408L180.874 170.609L180.728 168.809V163.645H182.132V174.5H180.786Z" fill="#301F36"/>
</g>
<defs>
<clipPath id="clip0_1035_9695">
<rect width="466.763" height="302.639" fill="white"/>
</clipPath>
</defs>
</svg>
