<svg xmlns="http://www.w3.org/2000/svg" width="340" height="182" fill="none"><path fill="#D5D5D5" fill-opacity=".38" d="M190.228 120.075q0 7.992-2.664 14.356-2.516 6.364-7.844 10.952-5.18 4.44-13.32 6.956-8.14 2.368-19.24 2.368-10.656 0-19.092-2.368t-14.652-5.92l4.736-19.24q6.511 3.552 13.32 5.476 6.956 1.776 14.948 1.776 10.212 0 15.096-3.996 5.032-4.144 5.032-11.248 0-3.404-1.332-6.068-1.332-2.812-4.736-4.588-3.256-1.924-9.028-2.96-5.624-1.036-14.356-1.036V87.219q8.436 0 13.764-.888 5.476-.888 8.584-2.664t4.292-4.292q1.332-2.664 1.332-5.92 0-5.476-4.44-8.436-4.292-2.96-13.468-2.96-8.436 0-15.392 2.516-6.809 2.516-12.876 7.104l-5.624-19.092q6.512-5.032 15.688-8.288 9.324-3.256 19.684-3.256 18.648 0 28.86 8.14t10.212 22.496q0 8.436-3.996 14.356-3.848 5.772-11.248 9.176v.296q8.584 3.108 13.172 9.176 4.588 5.92 4.588 15.392"/><path stroke="#59CADA" stroke-width="5.18" d="M215 8.516h121.5v170.2H3.5V26.276c0-9.809 7.951-17.76 17.76-17.76h11.699"/><path fill="#1E5078" d="M48.4 13.466h-3.434l-.489 1.909h-3.27l3.685-11.1h3.7l3.744 11.1h-3.448zm-1.998-5.58-.8 3.108h2.176l-.785-3.093-.266-1.184h-.044zm6.645 7.489V6.391l2.265-.103.251 1.302h.045q.429-.74 1.021-1.08.593-.34 1.302-.34.326 0 .578.044.266.03.444.103l-.163 2.694a2.4 2.4 0 0 0-.489-.104 3.4 3.4 0 0 0-.562-.044q-.828 0-1.332.518-.503.503-.503 1.48v4.514zm11.681 2.324v-1.466l.03-1.184-.03-.03q-.755.49-1.865.49a3.8 3.8 0 0 1-1.435-.267 3.05 3.05 0 0 1-1.11-.844q-.474-.562-.74-1.435-.252-.873-.252-2.072 0-2.25.888-3.478.888-1.245 2.723-1.244 1.569 0 2.502.888l.31-.725h1.836V17.7zm0-8.6a1.2 1.2 0 0 0-.444-.34q-.28-.148-.71-.148-.385 0-.637.09a.75.75 0 0 0-.4.34q-.132.252-.192.695-.06.444-.059 1.155 0 .651.06 1.095.074.444.221.725a.97.97 0 0 0 .415.385q.266.118.636.118.444 0 .725-.163.282-.162.385-.384zm12.251 2.976q0 1.717-.992 2.59-.975.873-3.004.873t-3.004-.888q-.977-.888-.977-2.575V6.317h2.842v5.713q0 .548.266.814.266.267.888.267.592 0 .858-.252.267-.267.267-.829V6.317h2.856zm5.742 3.463q-2.428 0-3.567-1.229-1.14-1.228-1.14-3.522 0-1.08.237-1.939.252-.858.755-1.45.518-.592 1.302-.903.785-.326 1.85-.326 1.806 0 2.827 1.036t1.021 3.182q0 .312-.03.652-.014.34-.044.621h-4.958q.09.829.592 1.17.504.34 1.51.34 1.257 0 2.383-.37l.31 2.19q-.563.252-1.361.4a9.3 9.3 0 0 1-1.687.148m.68-5.669q-.03-.784-.34-1.11-.296-.325-.888-.325-.326 0-.548.074a.86.86 0 0 0-.37.237 1.2 1.2 0 0 0-.236.444q-.075.266-.104.68zm6.823-1.494v4.158q0 .43.221.637.223.192.71.192.165 0 .37-.03a1.6 1.6 0 0 0 .326-.073L92 15.242q-.25.119-.725.192a5.2 5.2 0 0 1-.991.089q-1.495 0-2.206-.784-.71-.8-.71-2.132V8.375h-.858V6.317h1.006l.459-1.924 2.25-.192v2.116h1.88v2.058zm3.051 7V6.406l2.916-.133v9.102zm3.004-10.834q0 .563-.37.844-.354.267-1.169.266-.799 0-1.184-.236-.37-.253-.37-.874 0-.547.37-.828.385-.282 1.184-.282.814 0 1.17.282.37.28.37.828m9.86 6.29q0 1.17-.251 2.058-.252.873-.711 1.465a2.96 2.96 0 0 1-1.11.873 3.3 3.3 0 0 1-1.42.296q-.533 0-1.022-.133a2.3 2.3 0 0 1-.873-.474l-.044.015.029 1.199v1.569h-2.856V6.39l1.983-.118.518.71a3.5 3.5 0 0 1 1.066-.592 3.5 3.5 0 0 1 1.243-.222q.844 0 1.48.252.651.237 1.08.8.444.547.666 1.435t.222 2.175m-2.945-.014q0-.667-.074-1.096-.059-.444-.222-.695a.74.74 0 0 0-.399-.34 1.5 1.5 0 0 0-.592-.104q-.386 0-.696.163a1.2 1.2 0 0 0-.474.414v3.493q.178.265.459.444.282.163.681.163.296 0 .533-.09a.87.87 0 0 0 .414-.37q.178-.265.267-.74.103-.473.103-1.242m12.266.074q0 1.243-.251 2.13-.252.889-.77 1.466-.517.562-1.332.829-.8.266-1.924.266-2.22 0-3.256-1.095-1.021-1.11-1.021-3.596 0-2.487 1.036-3.612t3.256-1.124q1.11 0 1.909.28a3 3 0 0 1 1.332.844q.533.578.77 1.48.25.888.251 2.132m-5.594 0q0 .754.074 1.243.074.473.222.755.163.265.414.37.252.103.622.103t.622-.103q.25-.105.399-.385.164-.282.222-.755.074-.474.074-1.228 0-.756-.074-1.229-.058-.488-.222-.755a.8.8 0 0 0-.399-.384 1.6 1.6 0 0 0-.622-.104 1.8 1.8 0 0 0-.636.104.86.86 0 0 0-.415.384q-.148.267-.222.755a10 10 0 0 0-.059 1.229m12.935 1.554q0 .695-.207 1.272-.192.562-.636.977-.43.415-1.125.637-.681.222-1.643.222-1.703 0-2.871-.563l.281-2.25q.281.15.622.267.34.104.68.178.34.06.666.103.341.03.607.03.518 0 .755-.163a.55.55 0 0 0 .237-.459q0-.28-.296-.429a4 4 0 0 0-.74-.296q-.43-.133-.947-.296a3.8 3.8 0 0 1-.948-.459 2.7 2.7 0 0 1-.725-.799q-.296-.503-.296-1.317 0-.623.207-1.155a2.4 2.4 0 0 1 .666-.932q.444-.4 1.125-.622t1.599-.222q.71 0 1.376.134.68.133 1.258.37l-.207 2.22a5 5 0 0 0-.622-.178 7 7 0 0 0-.666-.148 5 5 0 0 0-.636-.074q-.31-.03-.548-.03-.828 0-.829.518 0 .267.282.415.296.147.725.281.43.119.917.281.504.164.933.459t.71.784q.296.474.296 1.244m10.421 2.93-.252-.71a3.1 3.1 0 0 1-.991.666q-.562.222-1.332.222-1.702 0-2.59-1.155-.873-1.17-.873-3.596 0-2.22.858-3.434.873-1.213 2.546-1.213 1.154 0 2.012.695l.03-.03-.03-1.183V3.935l2.842-.134v11.574zM132.6 9.1a1.3 1.3 0 0 0-.473-.355 1.5 1.5 0 0 0-.681-.148q-.355 0-.607.118a.88.88 0 0 0-.414.37 2.2 2.2 0 0 0-.222.71 7 7 0 0 0-.074 1.11q0 .726.059 1.2.06.458.207.74a.97.97 0 0 0 .415.384q.25.104.651.104.43 0 .71-.178.297-.177.429-.414zm8.713 6.438q-2.427 0-3.566-1.229-1.14-1.228-1.14-3.522 0-1.08.237-1.939.252-.858.755-1.45a3.3 3.3 0 0 1 1.302-.903q.785-.326 1.85-.326 1.806 0 2.827 1.036t1.021 3.182q0 .312-.03.652a9 9 0 0 1-.044.621h-4.958q.089.829.592 1.17.504.34 1.51.34a7.6 7.6 0 0 0 2.382-.37l.311 2.19q-.563.252-1.361.4a9.3 9.3 0 0 1-1.688.148m.681-5.669q-.029-.784-.34-1.11-.296-.325-.888-.325-.326 0-.548.074a.86.86 0 0 0-.37.237 1.2 1.2 0 0 0-.237.444 3.6 3.6 0 0 0-.103.68zm15.243 2.206q0 1.717-.991 2.59-.977.873-3.005.873t-3.004-.888-.977-2.575V6.317h2.842v5.713q0 .548.266.814.267.267.888.267.592 0 .859-.252.266-.267.266-.829V6.317h2.856zm7.681.37q0 .695-.208 1.272-.192.562-.636.977-.429.415-1.125.637-.68.222-1.643.222-1.701 0-2.871-.563l.281-2.25q.282.15.622.267.34.104.681.178.34.06.666.103.34.03.607.03.517 0 .754-.163a.55.55 0 0 0 .237-.459q0-.28-.296-.429a4 4 0 0 0-.74-.296q-.43-.133-.947-.296a3.8 3.8 0 0 1-.947-.459 2.7 2.7 0 0 1-.725-.799q-.296-.503-.296-1.317 0-.623.207-1.155a2.4 2.4 0 0 1 .666-.932q.444-.4 1.125-.622.68-.222 1.598-.222.71 0 1.376.134.681.133 1.258.37l-.207 2.22a5 5 0 0 0-.621-.178 7 7 0 0 0-.666-.148 5 5 0 0 0-.637-.074q-.311-.03-.547-.03-.83 0-.829.518 0 .267.281.415.296.147.725.281.429.119.918.281.503.164.932.459t.711.784q.296.474.296 1.244m9.013-.37q0 1.717-.992 2.59-.977.873-3.004.873t-3.005-.888q-.976-.888-.976-2.575V6.317h2.841v5.713q0 .548.267.814.266.267.888.267.591 0 .858-.252.267-.267.266-.829V6.317h2.857zm6.259 2.56a3.2 3.2 0 0 1-1.036.666 3.7 3.7 0 0 1-1.317.222q-1.332 0-2.087-.755-.74-.755-.74-2.279 0-.621.222-1.14.222-.533.636-.902a2.8 2.8 0 0 1 1.007-.592 4 4 0 0 1 1.361-.222q.46 0 .829.059.37.045.696.133v-.326q0-.503-.326-.77-.326-.266-1.169-.266-.384 0-.696.03-.31.03-.606.089-.281.045-.563.133-.28.09-.607.207l-.222-2.16q1.377-.593 3.227-.593 1.065 0 1.791.237.725.222 1.169.696.444.458.636 1.169.193.696.193 1.628v5.476h-2.191zm-.429-3.004a5 5 0 0 0-.4-.09 3 3 0 0 0-.577-.044q-1.11 0-1.11.962 0 .49.252.71.266.208.695.208.46 0 .799-.222.34-.237.341-.607zm4.217 3.744V6.391l2.265-.103.251 1.302h.045q.429-.74 1.021-1.08.593-.34 1.302-.34.326 0 .577.044.267.03.444.103l-.162 2.694a2.4 2.4 0 0 0-.489-.104 3.4 3.4 0 0 0-.562-.044q-.83 0-1.332.518-.504.503-.503 1.48v4.514zm7.087 0V6.406l2.915-.133v9.102zm3.004-10.834q0 .563-.37.844-.355.267-1.169.266-.799 0-1.184-.236-.37-.253-.37-.874 0-.547.37-.828.385-.282 1.184-.282.814 0 1.169.282.37.28.37.828m9.801 6.35q0 1.243-.252 2.13-.251.889-.769 1.466-.517.562-1.332.829-.8.266-1.924.266-2.22 0-3.256-1.095-1.021-1.11-1.021-3.596 0-2.487 1.036-3.612 1.035-1.124 3.256-1.124 1.11 0 1.909.28a3 3 0 0 1 1.332.844q.533.578.769 1.48.252.888.252 2.132m-5.594 0q0 .754.074 1.243.073.473.222.755.162.265.414.37.252.103.622.103t.621-.103a.8.8 0 0 0 .4-.385q.162-.282.222-.755.074-.474.074-1.228 0-.756-.074-1.229-.06-.488-.222-.755a.8.8 0 0 0-.4-.384 1.6 1.6 0 0 0-.621-.104 1.8 1.8 0 0 0-.637.104.86.86 0 0 0-.414.384q-.148.267-.222.755-.06.473-.059 1.229M41.062 36.98q0-.498.19-.936.189-.443.514-.77.327-.33.758-.52.438-.19.93-.19.497 0 .935.19t.764.52q.326.327.515.77.19.438.19.936 0 .497-.19.935-.19.431-.515.758a2.4 2.4 0 0 1-.764.515q-.438.19-.935.19-.492 0-.93-.19a2.45 2.45 0 0 1-1.273-1.273 2.3 2.3 0 0 1-.189-.935m14.943-.663q.461 0 .81-.119.356-.119.587-.331.236-.22.355-.527a1.9 1.9 0 0 0 .118-.687q0-.373-.118-.669a1.3 1.3 0 0 0-.343-.503 1.5 1.5 0 0 0-.587-.314 2.7 2.7 0 0 0-.822-.112h-1.267v3.262zm0-4.346q.834 0 1.444.196.615.195 1.012.55.403.35.598.847.195.49.196 1.09 0 .608-.208 1.118a2.4 2.4 0 0 1-.615.87 3 3 0 0 1-1.019.569q-.603.2-1.408.2h-1.267v3.085h-1.386v-8.525zm7.997 4.825q0-.32-.095-.592a1.3 1.3 0 0 0-.266-.48 1.2 1.2 0 0 0-.444-.32 1.45 1.45 0 0 0-.604-.118q-.693 0-1.09.397-.396.398-.502 1.113zm-3.037.782q.024.514.16.893.136.374.361.622.231.249.545.373.32.118.71.118.373 0 .645-.083.273-.088.474-.189.202-.105.343-.19a.5.5 0 0 1 .26-.088q.154 0 .238.118l.36.468q-.225.267-.508.45a3 3 0 0 1-.604.302 3.4 3.4 0 0 1-.657.16 4 4 0 0 1-.657.053q-.629 0-1.167-.207a2.7 2.7 0 0 1-.93-.622 2.9 2.9 0 0 1-.615-1.012q-.219-.605-.219-1.391 0-.628.196-1.173a2.9 2.9 0 0 1 .568-.947q.372-.403.9-.633a2.9 2.9 0 0 1 1.201-.237q.557 0 1.03.184.474.178.817.526.344.35.533.859.195.503.196 1.148 0 .297-.066.397-.065.1-.236.1zm6.568-2.001q.285-.575.687-.9a1.47 1.47 0 0 1 .965-.332q.195 0 .367.048a1 1 0 0 1 .308.13l-.089.959q-.023.1-.077.142a.2.2 0 0 1-.13.035q-.09 0-.255-.03a1.7 1.7 0 0 0-.349-.035q-.266 0-.474.077a1.2 1.2 0 0 0-.367.225 1.6 1.6 0 0 0-.284.361 3.5 3.5 0 0 0-.23.486v3.753h-1.273v-6.038h.74q.201 0 .278.077.077.07.106.254zm6.74-.024a.3.3 0 0 1-.107.118.3.3 0 0 1-.148.036.5.5 0 0 1-.219-.06 6 6 0 0 0-.278-.142 2 2 0 0 0-.379-.136 1.7 1.7 0 0 0-.503-.065q-.237 0-.432.06a.9.9 0 0 0-.326.16.7.7 0 0 0-.201.242.6.6 0 0 0-.071.296q0 .213.13.355t.343.249q.213.1.486.183.272.084.556.178t.557.219q.272.124.485.308.213.177.344.438.13.255.13.622 0 .426-.154.787-.154.36-.45.627a2.1 2.1 0 0 1-.74.415 3.1 3.1 0 0 1-1.006.148 3 3 0 0 1-.61-.06 3.6 3.6 0 0 1-.557-.147 3.3 3.3 0 0 1-.491-.237q-.225-.137-.403-.296l.296-.486a.365.365 0 0 1 .331-.19q.126 0 .244.084l.284.172q.165.095.396.177.231.077.575.077.284 0 .491-.065a1 1 0 0 0 .343-.19.76.76 0 0 0 .202-.266.8.8 0 0 0 .065-.325.55.55 0 0 0-.13-.38 1.1 1.1 0 0 0-.35-.254 3 3 0 0 0-.491-.19 22 22 0 0 1-.557-.177 6 6 0 0 1-.562-.219 2 2 0 0 1-.491-.314 1.5 1.5 0 0 1-.344-.468 1.6 1.6 0 0 1-.13-.674q0-.361.142-.687.148-.325.426-.574.284-.249.693-.391.414-.148.953-.148.61 0 1.107.195.498.195.835.533zm4.174-1.19q.669 0 1.207.219.544.219.924.622.385.403.592.976.207.574.207 1.291t-.207 1.29-.592.983q-.379.403-.924.622a3.2 3.2 0 0 1-1.207.219q-.675 0-1.22-.22a2.6 2.6 0 0 1-.923-.62 2.8 2.8 0 0 1-.592-.983 3.8 3.8 0 0 1-.208-1.291q0-.717.208-1.29.207-.575.592-.977a2.6 2.6 0 0 1 .923-.622q.545-.219 1.22-.219m0 5.227q.816 0 1.213-.544.403-.55.403-1.57 0-1.017-.403-1.568-.397-.556-1.213-.556-.829 0-1.232.556-.402.55-.402 1.569t.402 1.569q.404.544 1.232.544m5.343-4.333q.195-.202.402-.361.215-.166.45-.284a2.4 2.4 0 0 1 1.084-.249q.496 0 .87.166.38.165.633.467.26.302.391.729.13.42.13.929v3.842h-1.266v-3.842q0-.61-.285-.947-.278-.338-.852-.338-.427 0-.793.196-.361.195-.681.532v4.4H82.6v-6.04h.77q.26 0 .331.243zm8.673 2.599a8 8 0 0 0-1.148.112 3 3 0 0 0-.758.22q-.29.129-.42.313a.7.7 0 0 0-.125.403.9.9 0 0 0 .066.367q.07.147.189.248.125.094.284.142.165.042.361.042.498 0 .853-.184.36-.189.698-.544zm-3.374-2.558a3.46 3.46 0 0 1 2.439-.953q.52 0 .923.172.41.165.681.473.279.308.42.735a2.8 2.8 0 0 1 .148.935v3.836h-.568a.6.6 0 0 1-.278-.053q-.095-.06-.16-.231l-.124-.491a6 6 0 0 1-.456.373q-.225.16-.468.272-.237.112-.515.166-.272.06-.604.059-.366 0-.686-.1a1.5 1.5 0 0 1-.545-.303 1.5 1.5 0 0 1-.367-.509 1.8 1.8 0 0 1-.13-.71q0-.35.183-.681.19-.331.616-.592.432-.267 1.13-.438.706-.172 1.735-.196v-.402q0-.651-.278-.97-.279-.32-.817-.32-.367-.001-.616.094-.248.089-.432.196-.183.106-.325.2a.56.56 0 0 1-.302.09.4.4 0 0 1-.225-.066.6.6 0 0 1-.148-.171zm9.708.255a.3.3 0 0 1-.107.118.3.3 0 0 1-.148.036.5.5 0 0 1-.219-.06 6 6 0 0 0-.278-.142 2 2 0 0 0-.379-.136 1.7 1.7 0 0 0-.503-.065q-.237 0-.432.06a.9.9 0 0 0-.326.16.7.7 0 0 0-.201.242.6.6 0 0 0-.071.296q0 .213.13.355t.343.249q.214.1.486.183.272.084.556.178t.557.219q.272.124.485.308.213.177.344.438.13.255.13.622 0 .426-.154.787-.154.36-.45.627a2.1 2.1 0 0 1-.74.415 3.1 3.1 0 0 1-1.006.148q-.315 0-.61-.06a3.6 3.6 0 0 1-.557-.147 3.3 3.3 0 0 1-.491-.237 2.7 2.7 0 0 1-.403-.296l.296-.486a.364.364 0 0 1 .332-.19q.124 0 .243.084l.284.172q.165.095.397.177.23.077.574.077.284 0 .491-.065.207-.07.343-.19a.76.76 0 0 0 .202-.266.8.8 0 0 0 .065-.325.55.55 0 0 0-.13-.38 1.1 1.1 0 0 0-.35-.254 3 3 0 0 0-.491-.19 22 22 0 0 1-.556-.177 6 6 0 0 1-.563-.219 2 2 0 0 1-.491-.314 1.5 1.5 0 0 1-.344-.468 1.6 1.6 0 0 1-.13-.674q0-.361.142-.687a1.7 1.7 0 0 1 .427-.574q.284-.249.692-.391.414-.148.953-.148.61 0 1.107.195.498.195.835.533zm8.78.089a.7.7 0 0 1-.113.118.25.25 0 0 1-.154.041.4.4 0 0 1-.213-.07 3 3 0 0 0-.26-.154 2 2 0 0 0-.361-.16 1.7 1.7 0 0 0-.533-.071q-.414 0-.728.148-.309.147-.521.426a1.9 1.9 0 0 0-.314.669q-.1.39-.101.882 0 .51.113.906.112.396.319.669.214.272.51.414.302.142.674.142.367 0 .598-.089.231-.088.385-.195.154-.106.261-.195a.38.38 0 0 1 .236-.09q.154 0 .237.12l.361.467a2.4 2.4 0 0 1-.485.45 3 3 0 0 1-.562.302 3 3 0 0 1-.616.16 4 4 0 0 1-.645.053q-.563 0-1.054-.207a2.55 2.55 0 0 1-.853-.61 3 3 0 0 1-.574-.977 3.9 3.9 0 0 1-.207-1.32 3.9 3.9 0 0 1 .189-1.237q.19-.575.551-.989.368-.414.906-.645a3.1 3.1 0 0 1 1.243-.237q.657 0 1.154.213.504.213.894.604zm3.927-1.279q.669 0 1.207.219.545.219.924.622.385.403.592.976.207.574.207 1.291t-.207 1.29-.592.983a2.6 2.6 0 0 1-.924.622 3.2 3.2 0 0 1-1.207.219q-.675 0-1.22-.22a2.6 2.6 0 0 1-.923-.62 2.8 2.8 0 0 1-.592-.983 3.8 3.8 0 0 1-.207-1.291q0-.717.207-1.29.207-.575.592-.977.384-.403.923-.622.545-.219 1.22-.219m0 5.227q.817 0 1.213-.544.403-.55.403-1.57 0-1.017-.403-1.568-.396-.556-1.213-.556-.829 0-1.232.556-.402.55-.402 1.569t.402 1.569q.403.544 1.232.544m5.343-4.333q.196-.202.403-.361.213-.166.45-.284a2.36 2.36 0 0 1 1.083-.249q.497 0 .87.166.38.165.634.467.26.302.39.729.13.42.131.929v3.842h-1.267v-3.842q0-.61-.284-.947-.279-.338-.853-.338a1.66 1.66 0 0 0-.793.196 2.7 2.7 0 0 0-.681.532v4.4h-1.273v-6.04h.77q.26 0 .331.243zm9.692-3.522v8.761h-1.273v-8.762zm4.797 6.12a8 8 0 0 0-1.148.113 3 3 0 0 0-.758.22 1 1 0 0 0-.42.313.7.7 0 0 0-.125.403q0 .213.066.367.07.147.189.248.125.094.284.142.166.042.361.042.498 0 .853-.184.361-.189.698-.544zm-3.374-2.557a3.46 3.46 0 0 1 2.439-.953q.52 0 .924.172.408.165.68.473.279.308.421.735.148.42.148.935v3.836h-.569a.6.6 0 0 1-.278-.053q-.094-.06-.16-.231l-.124-.491a6 6 0 0 1-.456.373q-.225.16-.468.272a2 2 0 0 1-.515.166q-.272.06-.603.059-.368 0-.687-.1a1.5 1.5 0 0 1-.545-.303 1.5 1.5 0 0 1-.367-.509 1.8 1.8 0 0 1-.13-.71q0-.35.183-.681.19-.331.616-.592.432-.267 1.131-.438.704-.172 1.734-.196v-.402q0-.651-.278-.97-.278-.32-.817-.32-.367-.001-.616.094a2.7 2.7 0 0 0-.432.196 6 6 0 0 0-.325.2.56.56 0 0 1-.302.09.4.4 0 0 1-.225-.066.6.6 0 0 1-.148-.171zm10.324 3.683q.266.342.58.485.32.136.705.136.746 0 1.16-.544.42-.545.42-1.623a4 4 0 0 0-.095-.947 1.8 1.8 0 0 0-.272-.645 1.04 1.04 0 0 0-.432-.361 1.4 1.4 0 0 0-.574-.113q-.486 0-.841.214-.35.207-.651.597zm-.065-3.647q.378-.444.858-.717a2.26 2.26 0 0 1 1.125-.272q.509 0 .923.207.416.202.711.592.296.39.456.971.165.575.165 1.32 0 .67-.183 1.25-.177.574-.515 1a2.5 2.5 0 0 1-.817.663q-.48.237-1.083.237-.534 0-.906-.172a2.3 2.3 0 0 1-.669-.473v2.563h-1.273v-8.045h.77q.26 0 .331.242zm8.086-.971q.669 0 1.208.219.545.219.923.622.385.403.592.976.207.574.207 1.291t-.207 1.29-.592.983q-.378.403-.923.622-.54.219-1.208.219-.674 0-1.22-.22a2.6 2.6 0 0 1-.923-.62 2.8 2.8 0 0 1-.592-.983 3.8 3.8 0 0 1-.207-1.291q0-.717.207-1.29.207-.575.592-.977.384-.403.923-.622.546-.219 1.22-.219m0 5.227q.817 0 1.214-.544.402-.55.402-1.57 0-1.017-.402-1.568-.397-.556-1.214-.556-.83 0-1.231.556-.403.55-.403 1.569t.403 1.569q.402.544 1.231.544m7.759-4.037a.3.3 0 0 1-.107.118.3.3 0 0 1-.148.036.5.5 0 0 1-.219-.06 6 6 0 0 0-.278-.142 2 2 0 0 0-.379-.136 1.7 1.7 0 0 0-.503-.065q-.237 0-.433.06a.9.9 0 0 0-.325.16.7.7 0 0 0-.272.538q0 .213.13.355t.343.249q.213.1.486.183.272.084.556.178t.557.219q.272.124.485.308.214.177.343.438.13.255.131.622 0 .426-.154.787-.154.36-.45.627a2.1 2.1 0 0 1-.74.415 3.1 3.1 0 0 1-1.007.148 3 3 0 0 1-.609-.06 3.6 3.6 0 0 1-.557-.147 3.3 3.3 0 0 1-.491-.237q-.225-.137-.403-.296l.296-.486a.4.4 0 0 1 .13-.136.37.37 0 0 1 .202-.053q.125 0 .242.083l.285.172q.165.095.396.177.232.077.574.077.285 0 .492-.065.207-.07.343-.19a.75.75 0 0 0 .267-.591.55.55 0 0 0-.131-.38 1.1 1.1 0 0 0-.349-.254 3 3 0 0 0-.491-.19 22 22 0 0 1-.557-.177 6 6 0 0 1-.562-.219 2 2 0 0 1-.492-.314 1.5 1.5 0 0 1-.343-.468 1.6 1.6 0 0 1-.13-.674q0-.361.142-.687a1.7 1.7 0 0 1 .426-.574 2.1 2.1 0 0 1 .693-.391q.414-.148.953-.148.609 0 1.107.195t.835.533zm2.889-1.095v6.038h-1.273v-6.038zm.213-1.824a.8.8 0 0 1-.071.326.9.9 0 0 1-.184.272 1 1 0 0 1-.278.184.8.8 0 0 1-.331.065.8.8 0 0 1-.326-.065 1 1 0 0 1-.26-.184.834.834 0 0 1-.249-.598.9.9 0 0 1 .065-.331.9.9 0 0 1 .184-.267.8.8 0 0 1 .26-.183.8.8 0 0 1 .326-.071q.178 0 .331.07a.8.8 0 0 1 .278.184q.118.112.184.267a.8.8 0 0 1 .071.331m2.659 6.347q.266.342.58.485.32.136.693.136.752 0 1.172-.544.42-.545.42-1.688 0-1.041-.367-1.521-.361-.48-1.036-.48-.468 0-.817.214a2.4 2.4 0 0 0-.645.597zm0-3.724q.373-.409.835-.651a2.2 2.2 0 0 1 1.053-.243q.527 0 .948.207.425.201.722.586.296.386.456.936.159.544.159 1.231a4.6 4.6 0 0 1-.183 1.338 3.1 3.1 0 0 1-.515 1.03 2.4 2.4 0 0 1-.817.663 2.44 2.44 0 0 1-1.072.23q-.29 0-.526-.058a1.8 1.8 0 0 1-.439-.16 2 2 0 0 1-.373-.255 3 3 0 0 1-.319-.337l-.053.468a.33.33 0 0 1-.107.195.34.34 0 0 1-.213.06h-.829v-8.762h1.273zm6.736-.8v6.04h-1.273v-6.04zm.213-1.823a.8.8 0 0 1-.071.326.8.8 0 0 1-.183.272 1 1 0 0 1-.278.184.85.85 0 0 1-.332.065.8.8 0 0 1-.326-.065 1 1 0 0 1-.26-.184 1 1 0 0 1-.184-.272.85.85 0 0 1 0-.657.93.93 0 0 1 .444-.45.786.786 0 0 1 .658 0 .8.8 0 0 1 .278.183q.118.112.183.267a.8.8 0 0 1 .071.331m2.683-.9v8.762h-1.273v-8.762zm2.897 2.724v6.038h-1.273v-6.038zm.213-1.824a.8.8 0 0 1-.071.326.8.8 0 0 1-.183.272 1 1 0 0 1-.279.184.8.8 0 0 1-.331.065.8.8 0 0 1-.326-.065 1 1 0 0 1-.26-.184 1 1 0 0 1-.184-.272.85.85 0 0 1 0-.657.93.93 0 0 1 .444-.45.8.8 0 0 1 .326-.071q.178 0 .331.07.16.066.279.184.119.112.183.267a.8.8 0 0 1 .071.331m5.24 3.31a1.5 1.5 0 0 0-.586-.48 1.75 1.75 0 0 0-.693-.136q-.746 0-1.166.55-.42.545-.42 1.617 0 .555.095.953.095.39.272.64.177.247.432.36t.574.113q.486 0 .835-.208.356-.212.657-.597zm1.273-4.21v8.762h-.77q-.254 0-.325-.243l-.113-.657q-.378.444-.864.717a2.23 2.23 0 0 1-1.119.272q-.509 0-.923-.201a2 2 0 0 1-.711-.598 3 3 0 0 1-.462-.965 5 5 0 0 1-.159-1.326q0-.675.177-1.25.184-.573.521-.994a2.37 2.37 0 0 1 1.9-.906q.534 0 .906.172.374.165.669.468v-3.25zm4.783 6.122a8 8 0 0 0-1.149.112 3 3 0 0 0-.757.22q-.29.129-.421.313a.7.7 0 0 0-.124.403q0 .213.065.367a.75.75 0 0 0 .189.248q.125.094.285.142.166.042.361.042.496 0 .852-.184a2.7 2.7 0 0 0 .699-.544zm-3.375-2.558a3.46 3.46 0 0 1 2.439-.953q.522 0 .924.172a1.8 1.8 0 0 1 .681.473q.278.308.42.735.148.42.148.935v3.836h-.568a.6.6 0 0 1-.278-.053q-.096-.06-.16-.231l-.125-.491a6 6 0 0 1-.455.373q-.225.16-.468.272a2.1 2.1 0 0 1-.515.166 3 3 0 0 1-.604.059q-.367 0-.687-.1a1.5 1.5 0 0 1-.544-.303 1.5 1.5 0 0 1-.367-.509 1.8 1.8 0 0 1-.131-.71q0-.35.184-.681.189-.331.616-.592.432-.267 1.13-.438.705-.172 1.735-.196v-.402q0-.651-.278-.97-.279-.32-.817-.32-.367-.001-.616.094-.249.089-.432.196a6 6 0 0 0-.326.2.56.56 0 0 1-.302.09.4.4 0 0 1-.225-.066.6.6 0 0 1-.148-.171zm9.957.646a1.5 1.5 0 0 0-.586-.48 1.75 1.75 0 0 0-.693-.136q-.746 0-1.166.55-.42.545-.42 1.617 0 .555.094.953.095.39.273.64.177.247.432.36t.574.113q.486 0 .835-.208.355-.212.657-.597zm1.273-4.21v8.762h-.77q-.254 0-.325-.243l-.113-.657a3.2 3.2 0 0 1-.864.717 2.23 2.23 0 0 1-1.119.272q-.509 0-.924-.201a2 2 0 0 1-.71-.598 3 3 0 0 1-.462-.965 5 5 0 0 1-.16-1.326q0-.675.178-1.25a3 3 0 0 1 .521-.994 2.37 2.37 0 0 1 1.9-.906q.533 0 .906.172.373.165.669.468v-3.25zm8.359 4.21a1.5 1.5 0 0 0-.586-.48 1.8 1.8 0 0 0-.693-.136q-.746 0-1.166.55-.421.545-.421 1.617 0 .555.095.953.095.39.272.64.178.247.433.36.254.113.574.113.485 0 .834-.208a2.5 2.5 0 0 0 .658-.597zm1.272-4.21v8.762h-.769q-.254 0-.326-.243l-.112-.657a3.2 3.2 0 0 1-.865.717 2.2 2.2 0 0 1-1.118.272q-.51 0-.924-.201a2 2 0 0 1-.71-.598 2.9 2.9 0 0 1-.462-.965 5 5 0 0 1-.16-1.326q0-.675.178-1.25a3 3 0 0 1 .521-.994 2.37 2.37 0 0 1 1.9-.906q.532 0 .906.172.372.165.669.468v-3.25zm5.517 5.062q0-.32-.094-.592a1.3 1.3 0 0 0-.267-.48 1.2 1.2 0 0 0-.444-.32 1.45 1.45 0 0 0-.604-.118q-.692 0-1.089.397-.396.398-.503 1.113zm-3.037.782q.024.514.16.893.136.374.361.622.231.249.545.373.32.118.71.118.373 0 .646-.083a3.5 3.5 0 0 0 .473-.189q.201-.105.344-.19a.5.5 0 0 1 .26-.088q.155 0 .237.118l.361.468q-.225.267-.509.45a3 3 0 0 1-.604.302 3.4 3.4 0 0 1-.657.16 4 4 0 0 1-.657.053q-.628 0-1.166-.207a2.65 2.65 0 0 1-.93-.622 2.9 2.9 0 0 1-.616-1.012q-.219-.605-.219-1.391 0-.628.196-1.173.2-.544.568-.947.373-.403.9-.633a2.9 2.9 0 0 1 1.202-.237q.556 0 1.03.184.473.178.817.526.343.35.532.859.196.503.196 1.148 0 .297-.065.397-.066.1-.237.1zm12.584-1.936a.7.7 0 0 1-.113.118.25.25 0 0 1-.154.041.4.4 0 0 1-.213-.07 3 3 0 0 0-.26-.154 2 2 0 0 0-.362-.16 1.7 1.7 0 0 0-.532-.071q-.415 0-.729.148-.307.147-.521.426a1.9 1.9 0 0 0-.313.669q-.1.39-.101.882 0 .51.113.906.112.396.319.669.213.272.509.414.303.142.675.142.367 0 .598-.089.23-.088.385-.195.154-.106.26-.195a.38.38 0 0 1 .237-.09q.155 0 .237.12l.361.467a2.4 2.4 0 0 1-.485.45 3 3 0 0 1-.563.302 3 3 0 0 1-.615.16 4 4 0 0 1-.646.053q-.562 0-1.053-.207a2.55 2.55 0 0 1-.853-.61 3 3 0 0 1-.574-.977 3.9 3.9 0 0 1-.207-1.32 3.9 3.9 0 0 1 .189-1.237 2.8 2.8 0 0 1 .551-.989q.366-.414.905-.645a3.1 3.1 0 0 1 1.244-.237q.657 0 1.154.213.503.213.894.604zm3.927-1.279q.669 0 1.207.219.544.219.924.622.385.403.592.976.207.574.207 1.291t-.207 1.29q-.208.574-.592.983a2.6 2.6 0 0 1-.924.622 3.2 3.2 0 0 1-1.207.219q-.675 0-1.22-.22a2.6 2.6 0 0 1-.923-.62 2.8 2.8 0 0 1-.592-.983 3.8 3.8 0 0 1-.208-1.291q0-.717.208-1.29.207-.575.592-.977.384-.403.923-.622.545-.219 1.22-.219m0 5.227q.817 0 1.213-.544.403-.55.403-1.57 0-1.017-.403-1.568-.397-.556-1.213-.556-.829 0-1.232.556-.402.55-.402 1.569t.402 1.569q.403.544 1.232.544m4.153.906v-6.038h.77q.26 0 .331.242l.083.527q.166-.189.343-.343a2.1 2.1 0 0 1 .817-.456q.237-.065.509-.065.29 0 .533.083t.426.237q.19.153.326.373t.225.491q.136-.314.343-.539t.462-.367.539-.207q.29-.07.586-.071.486 0 .864.154.385.153.646.45.265.29.402.716.136.426.136.971v3.842h-1.273v-3.842q0-.64-.278-.959-.272-.326-.811-.326-.243 0-.456.083a1.07 1.07 0 0 0-.627.645 1.6 1.6 0 0 0-.089.557v3.842h-1.273v-3.842q0-.663-.266-.97-.267-.315-.782-.315-.354 0-.657.184a2.1 2.1 0 0 0-.556.491v4.452zm11.101-1.515q.266.342.58.485.32.136.705.136.746 0 1.16-.544.42-.545.42-1.623a4 4 0 0 0-.095-.947 1.8 1.8 0 0 0-.272-.645 1.04 1.04 0 0 0-.432-.361 1.4 1.4 0 0 0-.574-.113q-.486 0-.841.214-.35.207-.651.597zm-.065-3.647q.378-.444.858-.717a2.26 2.26 0 0 1 1.125-.272q.509 0 .923.207.416.202.711.592t.456.971q.165.575.165 1.32 0 .67-.183 1.25-.177.574-.515 1a2.5 2.5 0 0 1-.817.663q-.48.237-1.083.237-.534 0-.906-.172a2.3 2.3 0 0 1-.669-.473v2.563h-1.273v-8.045h.77q.26 0 .331.242zm6.677.243q.284-.575.687-.9.402-.332.965-.332.195 0 .367.048a1 1 0 0 1 .308.13l-.089.959a.25.25 0 0 1-.077.142.2.2 0 0 1-.13.035q-.09 0-.255-.03a1.7 1.7 0 0 0-.349-.035q-.267 0-.474.077a1.2 1.2 0 0 0-.367.225 1.6 1.6 0 0 0-.284.361q-.125.214-.231.486v3.753h-1.273v-6.038h.74q.201 0 .278.077.077.07.107.254zm6.303 2.279a8 8 0 0 0-1.149.112 3 3 0 0 0-.757.22q-.29.129-.421.313a.7.7 0 0 0-.124.403q0 .213.065.367a.75.75 0 0 0 .189.248q.125.094.285.142.165.042.361.042.496 0 .852-.184a2.7 2.7 0 0 0 .699-.544zm-3.375-2.558a3.46 3.46 0 0 1 2.439-.953q.522 0 .924.172a1.8 1.8 0 0 1 .681.473q.277.308.42.735.148.42.148.935v3.836h-.568a.6.6 0 0 1-.279-.053q-.094-.06-.159-.231l-.125-.491a6 6 0 0 1-.456.373 3 3 0 0 1-.467.272 2.1 2.1 0 0 1-.515.166 3 3 0 0 1-.604.059q-.367 0-.687-.1a1.5 1.5 0 0 1-.544-.303 1.5 1.5 0 0 1-.367-.509 1.8 1.8 0 0 1-.131-.71q0-.35.184-.681.189-.331.615-.592.433-.267 1.131-.438.705-.172 1.735-.196v-.402q0-.651-.278-.97-.279-.32-.817-.32-.367-.001-.616.094-.249.089-.432.196a6 6 0 0 0-.326.2.56.56 0 0 1-.302.09.4.4 0 0 1-.225-.066.6.6 0 0 1-.148-.171zm12.905.646a1.5 1.5 0 0 0-.586-.48 1.75 1.75 0 0 0-.692-.136q-.746 0-1.167.55-.42.545-.42 1.617 0 .555.095.953.095.39.272.64.178.247.432.36.255.113.575.113.484 0 .834-.208.356-.212.657-.597zm1.273-4.21v8.762h-.769q-.255 0-.326-.243l-.112-.657a3.2 3.2 0 0 1-.865.717q-.478.272-1.119.272-.509 0-.923-.201a2 2 0 0 1-.711-.598 2.9 2.9 0 0 1-.461-.965 5 5 0 0 1-.16-1.326q0-.675.177-1.25.184-.573.521-.994.338-.426.817-.663a2.4 2.4 0 0 1 1.084-.243q.533 0 .905.172.373.165.669.468v-3.25zm5.517 5.062q0-.32-.095-.592a1.3 1.3 0 0 0-.266-.48 1.2 1.2 0 0 0-.444-.32 1.45 1.45 0 0 0-.604-.118q-.693 0-1.089.397-.397.398-.503 1.113zm-3.037.782q.024.514.16.893.136.374.361.622.231.249.545.373.32.118.71.118.374 0 .645-.083.273-.088.474-.189.201-.105.343-.19a.5.5 0 0 1 .261-.088q.153 0 .237.118l.361.468q-.225.267-.509.45a3 3 0 0 1-.604.302 3.4 3.4 0 0 1-.657.16 4 4 0 0 1-.657.053q-.628 0-1.167-.207a2.65 2.65 0 0 1-.929-.622 2.9 2.9 0 0 1-.616-1.012q-.219-.605-.219-1.391 0-.628.196-1.173.2-.544.568-.947.372-.403.9-.633a2.9 2.9 0 0 1 1.201-.237q.557 0 1.031.184.473.178.816.526.344.35.533.859.196.503.196 1.148 0 .297-.065.397-.066.1-.237.1zM58.976 54.496h-1.272v-5.038H54.76v3.428q0 .326.16.497a.55.55 0 0 0 .426.172.8.8 0 0 0 .255-.036 2 2 0 0 0 .184-.083l.13-.083a.2.2 0 0 1 .112-.04q.107 0 .172.117l.379.622q-.296.26-.699.403-.402.136-.829.136-.751 0-1.16-.42-.402-.427-.402-1.196v-3.517h-.663a.28.28 0 0 1-.184-.065q-.077-.07-.077-.207v-.515l.977-.142.278-1.747a.3.3 0 0 1 .1-.16.27.27 0 0 1 .19-.065h.651v1.984h4.215zm.26-7.891a.868.868 0 0 1-.858.84.8.8 0 0 1-.325-.065 1 1 0 0 1-.267-.183 1 1 0 0 1-.183-.267.8.8 0 0 1-.065-.325.84.84 0 0 1 .248-.604.9.9 0 0 1 .267-.184.8.8 0 0 1 .326-.07q.171 0 .325.07a.83.83 0 0 1 .462.456.8.8 0 0 1 .07.332m5.203 3.339a1.5 1.5 0 0 0-.586-.474 1.7 1.7 0 0 0-.693-.142q-.746 0-1.166.55-.42.545-.42 1.617 0 .555.094.953.094.39.273.64.177.248.432.36.254.113.574.113.486 0 .835-.208.355-.212.657-.597zm1.273-1.486v8.045h-1.273v-2.83a3.2 3.2 0 0 1-.84.663 2.24 2.24 0 0 1-1.078.249q-.51 0-.924-.201a2 2 0 0 1-.71-.598 2.9 2.9 0 0 1-.462-.965 5 5 0 0 1-.16-1.326q0-.675.178-1.25.184-.573.52-.994.338-.426.818-.663a2.4 2.4 0 0 1 1.083-.243q.291 0 .527.053.243.048.444.148.207.096.379.237.171.137.326.314l.076-.397q.072-.242.326-.242zm6.647 0v6.038h-.77q-.254 0-.325-.243l-.095-.562q-.189.2-.402.367-.207.165-.444.284a2.36 2.36 0 0 1-1.083.249q-.498 0-.877-.166a1.8 1.8 0 0 1-.64-.468 2.05 2.05 0 0 1-.384-.722 3.2 3.2 0 0 1-.13-.935v-3.842h1.273V52.3q0 .61.278.947.284.337.858.337.42 0 .782-.189.366-.195.686-.533v-4.404zm5.507 2.338q0-.32-.095-.592a1.3 1.3 0 0 0-.267-.48 1.2 1.2 0 0 0-.444-.32 1.45 1.45 0 0 0-.603-.118q-.693 0-1.09.397-.396.398-.503 1.113zm-3.037.782q.023.514.16.893.135.374.36.622.231.249.545.373.32.118.71.118.374 0 .646-.083a3.5 3.5 0 0 0 .817-.378.5.5 0 0 1 .26-.09q.154 0 .237.12l.361.467a2.3 2.3 0 0 1-.509.45q-.284.183-.604.302a3.4 3.4 0 0 1-.657.16 4 4 0 0 1-.657.053q-.627 0-1.166-.207a2.7 2.7 0 0 1-.93-.622 2.9 2.9 0 0 1-.615-1.012q-.22-.605-.22-1.391 0-.628.196-1.173a2.9 2.9 0 0 1 .568-.947q.374-.403.9-.633a2.9 2.9 0 0 1 1.202-.237q.556 0 1.03.184.474.178.817.526.343.35.533.859.195.503.195 1.148 0 .297-.065.397t-.237.1zm7.244 3.013q-.752 0-1.16-.42-.403-.427-.403-1.196v-3.517h-.663a.28.28 0 0 1-.183-.065q-.078-.07-.077-.207v-.515l.976-.142.279-1.747a.3.3 0 0 1 .1-.16.27.27 0 0 1 .19-.065h.65v1.984h1.676v.917h-1.675v3.428q0 .326.16.497a.55.55 0 0 0 .426.172.8.8 0 0 0 .255-.036 2 2 0 0 0 .183-.083q.077-.047.13-.083a.2.2 0 0 1 .113-.04q.106 0 .172.117l.378.622q-.296.26-.698.403-.403.136-.829.136m6.303-3.795q0-.32-.095-.592a1.3 1.3 0 0 0-.266-.48 1.2 1.2 0 0 0-.444-.32 1.45 1.45 0 0 0-.604-.118q-.693 0-1.09.397-.396.398-.503 1.113zm-3.037.782q.024.514.16.893.135.374.36.622.232.249.545.373.32.118.71.118.375 0 .646-.083a3.5 3.5 0 0 0 .817-.378.5.5 0 0 1 .26-.09q.155 0 .237.12l.361.467a2.3 2.3 0 0 1-.509.45q-.284.183-.603.302a3.4 3.4 0 0 1-.658.16 4 4 0 0 1-.657.053q-.627 0-1.166-.207a2.7 2.7 0 0 1-.93-.622 2.9 2.9 0 0 1-.615-1.012 4.1 4.1 0 0 1-.22-1.391q0-.628.196-1.173a2.9 2.9 0 0 1 .569-.947q.372-.403.9-.633a2.9 2.9 0 0 1 1.201-.237q.557 0 1.03.184.474.178.817.526.345.35.533.859.195.503.195 1.148 0 .297-.065.397-.064.1-.237.1zm8.972-2.025a.3.3 0 0 1-.107.118.3.3 0 0 1-.148.036.5.5 0 0 1-.219-.06 6 6 0 0 0-.278-.142 2 2 0 0 0-.38-.136 1.7 1.7 0 0 0-.502-.065q-.237 0-.433.06a.9.9 0 0 0-.325.16.7.7 0 0 0-.201.242.6.6 0 0 0-.071.296q0 .213.13.355t.343.249a4 4 0 0 0 .486.183q.272.084.556.178t.557.219q.272.124.485.308.213.177.343.438.13.255.13.622 0 .426-.153.787-.154.36-.45.627a2.1 2.1 0 0 1-.74.415 3.1 3.1 0 0 1-1.007.148 3 3 0 0 1-.61-.06 3.6 3.6 0 0 1-.556-.147 3.3 3.3 0 0 1-.491-.237q-.225-.137-.403-.296l.296-.486a.365.365 0 0 1 .332-.19q.124 0 .242.084l.285.172q.165.095.396.177.231.077.575.077.284 0 .49-.065a1 1 0 0 0 .344-.19.76.76 0 0 0 .201-.266.8.8 0 0 0 .066-.325.55.55 0 0 0-.13-.38 1.1 1.1 0 0 0-.35-.254 3 3 0 0 0-.491-.19 22 22 0 0 1-.557-.177 6 6 0 0 1-.562-.219 2 2 0 0 1-.492-.314 1.5 1.5 0 0 1-.343-.468 1.6 1.6 0 0 1-.13-.674q0-.361.142-.687.148-.325.426-.574.284-.249.693-.391.414-.148.953-.148.609 0 1.107.195.497.195.835.533zm7.738 2.303a8 8 0 0 0-1.149.112 3 3 0 0 0-.758.22q-.29.129-.42.313a.7.7 0 0 0-.124.403.9.9 0 0 0 .065.367q.07.147.19.248.124.094.283.142.166.042.362.042.496 0 .852-.184a2.7 2.7 0 0 0 .699-.544zm-3.375-2.558a3.46 3.46 0 0 1 2.439-.953q.521 0 .924.172a1.8 1.8 0 0 1 .681.473q.277.308.42.735.148.42.148.935v3.836h-.568a.6.6 0 0 1-.279-.053q-.094-.06-.16-.231l-.124-.491a6 6 0 0 1-.456.373q-.225.16-.467.272a2.1 2.1 0 0 1-.515.166 3 3 0 0 1-.604.059q-.368 0-.687-.1a1.5 1.5 0 0 1-.545-.303 1.5 1.5 0 0 1-.367-.509 1.8 1.8 0 0 1-.13-.71q0-.35.184-.681.189-.331.615-.592.432-.267 1.131-.438.705-.172 1.735-.196v-.402q0-.651-.279-.97-.277-.32-.817-.32-.367-.001-.615.094-.249.089-.432.196-.184.106-.326.2a.56.56 0 0 1-.302.09.4.4 0 0 1-.225-.066.6.6 0 0 1-.148-.171zm10.063 1.498q0-.32-.094-.592a1.3 1.3 0 0 0-.267-.48 1.2 1.2 0 0 0-.444-.32 1.45 1.45 0 0 0-.604-.118q-.692 0-1.089.397-.396.398-.503 1.113zm-3.037.782q.024.514.16.893.136.374.361.622.231.249.545.373.32.118.71.118.373 0 .646-.083a3.5 3.5 0 0 0 .473-.189q.201-.105.344-.19a.5.5 0 0 1 .26-.088q.154 0 .237.118l.361.468q-.225.267-.509.45a3 3 0 0 1-.604.302 3.4 3.4 0 0 1-.657.16 4 4 0 0 1-.657.053q-.628 0-1.166-.207a2.7 2.7 0 0 1-.93-.622 2.9 2.9 0 0 1-.616-1.012q-.219-.605-.219-1.391 0-.628.196-1.173.2-.544.568-.947.374-.403.9-.633a2.9 2.9 0 0 1 1.202-.237q.556 0 1.03.184.474.178.817.526.343.35.533.859.195.503.195 1.148 0 .297-.065.397-.066.1-.237.1zm3.529-5.701-1.427 1.533a.6.6 0 0 1-.189.148.6.6 0 0 1-.237.041h-.758l.858-1.432a.6.6 0 0 1 .19-.22.6.6 0 0 1 .325-.07zm3.04 3.7q.284-.575.686-.9a1.47 1.47 0 0 1 .965-.332q.196 0 .367.048a1 1 0 0 1 .308.13l-.089.959q-.023.1-.077.142a.2.2 0 0 1-.13.035 1.6 1.6 0 0 1-.254-.03 1.7 1.7 0 0 0-.35-.035q-.266 0-.473.077a1.2 1.2 0 0 0-.367.225 1.5 1.5 0 0 0-.284.361q-.124.214-.231.486v3.753h-1.273v-6.038h.74q.201 0 .278.077.077.07.107.254zm6.921 1.22q0-.32-.095-.593a1.3 1.3 0 0 0-.266-.48 1.2 1.2 0 0 0-.444-.32 1.45 1.45 0 0 0-.604-.118q-.693 0-1.089.397-.398.398-.504 1.113zm-3.037.78q.024.516.16.895.135.372.361.621.23.249.544.373.32.118.711.118.373 0 .645-.083.273-.088.474-.189.2-.105.343-.19a.5.5 0 0 1 .261-.088.27.27 0 0 1 .236.118l.362.468q-.225.267-.51.45-.284.183-.603.302a3.4 3.4 0 0 1-.658.16 4 4 0 0 1-.657.053q-.627 0-1.166-.207a2.65 2.65 0 0 1-.929-.622 2.9 2.9 0 0 1-.616-1.012q-.219-.605-.219-1.391 0-.628.195-1.173.201-.544.569-.947.372-.403.899-.633a2.9 2.9 0 0 1 1.202-.237q.557 0 1.03.184.474.178.817.526.344.35.533.859.195.503.195 1.148 0 .297-.065.397t-.237.1zm7.977-3.214q.67 0 1.208.219.545.219.923.622.385.403.592.976.207.574.207 1.291t-.207 1.29-.592.983q-.378.403-.923.622a3.2 3.2 0 0 1-1.208.219 3.2 3.2 0 0 1-1.219-.22 2.6 2.6 0 0 1-.924-.62 2.8 2.8 0 0 1-.592-.983 3.8 3.8 0 0 1-.207-1.291q0-.717.207-1.29.207-.575.592-.977.385-.403.924-.622a3.2 3.2 0 0 1 1.219-.219m0 5.227q.817 0 1.214-.544.402-.55.402-1.57 0-1.017-.402-1.568-.397-.555-1.214-.556-.829 0-1.231.556-.403.55-.403 1.569t.403 1.569q.403.544 1.231.544m7.759-4.037a.3.3 0 0 1-.107.118.3.3 0 0 1-.148.036.5.5 0 0 1-.219-.06 6 6 0 0 0-.278-.142 2 2 0 0 0-.379-.136 1.7 1.7 0 0 0-.503-.065q-.237 0-.432.06a.9.9 0 0 0-.326.16.7.7 0 0 0-.272.538q0 .213.13.355t.343.249q.213.1.486.183.272.084.556.178t.557.219q.272.124.485.308.214.177.343.438.13.255.131.622 0 .426-.154.787-.155.36-.45.627a2.1 2.1 0 0 1-.74.415 3.1 3.1 0 0 1-1.007.148 3 3 0 0 1-.609-.06 3.6 3.6 0 0 1-.557-.147 3.4 3.4 0 0 1-.491-.237q-.225-.137-.403-.296l.296-.486a.363.363 0 0 1 .332-.19.42.42 0 0 1 .243.084q.123.076.284.172.165.095.396.177.231.077.575.077.284 0 .491-.065.207-.07.343-.19a.8.8 0 0 0 .202-.266.8.8 0 0 0 .065-.325.55.55 0 0 0-.131-.38 1.1 1.1 0 0 0-.349-.254 3 3 0 0 0-.491-.19 22 22 0 0 1-.557-.177 6 6 0 0 1-.562-.219 2 2 0 0 1-.491-.314 1.5 1.5 0 0 1-.344-.468 1.6 1.6 0 0 1-.13-.674q0-.361.142-.687a1.7 1.7 0 0 1 .426-.574 2.1 2.1 0 0 1 .693-.391q.414-.148.953-.148.61 0 1.107.195.498.195.835.533zM41.071 82.981q0-.497.19-.935.19-.444.515-.77.326-.33.758-.52.438-.19.93-.19.497 0 .935.19t.764.522a2.42 2.42 0 0 1 .514 2.64q-.19.431-.515.758a2.4 2.4 0 0 1-.764.514q-.438.19-.936.19-.49 0-.929-.19a2.45 2.45 0 0 1-1.272-1.273 2.3 2.3 0 0 1-.19-.936m14.943-.659q.462 0 .811-.118.355-.119.586-.331.237-.22.356-.527.118-.308.118-.687 0-.372-.118-.669a1.3 1.3 0 0 0-.343-.503 1.5 1.5 0 0 0-.586-.314 2.7 2.7 0 0 0-.823-.112h-1.267v3.261zm.001-4.345q.835 0 1.445.196.615.195 1.012.55.403.35.598.847.195.492.195 1.09 0 .61-.208 1.119a2.4 2.4 0 0 1-.616.87q-.408.36-1.018.568-.604.2-1.41.2h-1.266v3.085H53.36l.002-8.526zm7.996 4.827q0-.32-.094-.592a1.3 1.3 0 0 0-.266-.48 1.2 1.2 0 0 0-.444-.32 1.45 1.45 0 0 0-.604-.118q-.693 0-1.09.396-.396.397-.503 1.113zm-3.037.78q.025.516.16.895.135.373.36.621.232.249.545.373.32.12.71.119.375 0 .646-.083.273-.088.474-.189.2-.106.343-.19a.5.5 0 0 1 .26-.088q.154 0 .237.118l.361.468q-.225.267-.509.45t-.604.302a3.4 3.4 0 0 1-.657.16 4 4 0 0 1-.657.052q-.627 0-1.166-.207a2.66 2.66 0 0 1-.93-.622 2.9 2.9 0 0 1-.615-1.012q-.219-.605-.219-1.392 0-.627.196-1.172a2.9 2.9 0 0 1 .569-.947q.372-.403.9-.633a2.9 2.9 0 0 1 1.202-.236q.556 0 1.03.183.473.178.816.528.344.349.533.858.195.503.195 1.148 0 .297-.065.397-.066.1-.237.1zm6.57-1.999q.284-.573.686-.9.403-.33.965-.33.195 0 .367.047a1 1 0 0 1 .308.13l-.09.96q-.022.1-.076.141a.2.2 0 0 1-.13.036q-.09 0-.255-.03a1.7 1.7 0 0 0-.35-.035q-.266 0-.473.076a1.2 1.2 0 0 0-.367.225 1.6 1.6 0 0 0-.284.361 3.5 3.5 0 0 0-.231.486l-.001 3.753H66.34l.002-6.039h.74q.201 0 .278.078.077.07.106.254zm6.739-.021a.3.3 0 0 1-.107.118.3.3 0 0 1-.148.035.5.5 0 0 1-.22-.059 6 6 0 0 0-.277-.142 2 2 0 0 0-.38-.136 1.7 1.7 0 0 0-.502-.065q-.237 0-.433.059a.9.9 0 0 0-.325.16.7.7 0 0 0-.202.242.6.6 0 0 0-.07.296q0 .213.13.355.129.142.343.249.213.1.485.184t.557.177q.285.096.556.22.272.123.486.308.212.177.343.438.13.255.13.621 0 .427-.154.788-.154.36-.45.627a2.1 2.1 0 0 1-.74.414 3.1 3.1 0 0 1-1.007.148q-.314 0-.61-.06a3.6 3.6 0 0 1-.556-.147 3.3 3.3 0 0 1-.492-.237q-.225-.137-.402-.296l.296-.486a.364.364 0 0 1 .332-.19q.124 0 .242.084l.284.171q.166.096.397.178.231.078.574.077.285 0 .492-.065.207-.07.343-.19a.76.76 0 0 0 .202-.265.8.8 0 0 0 .065-.326.55.55 0 0 0-.13-.379 1.1 1.1 0 0 0-.35-.255 3 3 0 0 0-.49-.19 22 22 0 0 1-.557-.177 6 6 0 0 1-.563-.22 2 2 0 0 1-.491-.313 1.5 1.5 0 0 1-.343-.468 1.6 1.6 0 0 1-.13-.675q0-.361.142-.686.148-.326.426-.575.284-.248.693-.39.414-.148.953-.148.61 0 1.107.196.498.195.835.533zm4.174-1.19q.669.001 1.207.22.544.22.924.622.384.403.592.977.206.574.206 1.29t-.207 1.291-.593.983q-.378.402-.923.621-.54.219-1.208.219-.674 0-1.22-.22a2.6 2.6 0 0 1-.923-.621 2.8 2.8 0 0 1-.591-.983 3.8 3.8 0 0 1-.207-1.29q0-.718.207-1.291.207-.575.593-.977a2.6 2.6 0 0 1 .923-.621 3.2 3.2 0 0 1 1.22-.22m-.002 5.228q.818 0 1.214-.544.403-.55.403-1.569t-.402-1.569q-.397-.556-1.213-.556-.829 0-1.232.556-.403.55-.403 1.568t.402 1.57q.403.543 1.231.544M83.8 81.27q.195-.201.402-.36.214-.167.45-.285a2.4 2.4 0 0 1 1.084-.248q.496 0 .87.166.38.165.633.468.261.302.39.728.132.42.13.93v3.841h-1.267l.001-3.842q0-.61-.284-.947-.278-.338-.852-.338-.426 0-.794.195-.36.195-.68.533l-.002 4.398h-1.273l.002-6.038h.77q.26 0 .331.243zm8.672 2.601a8 8 0 0 0-1.148.113 3 3 0 0 0-.758.218q-.29.13-.42.314a.7.7 0 0 0-.125.403q0 .213.065.367.071.147.19.248.124.094.284.142.165.042.36.042.498 0 .853-.183.361-.19.7-.545zM89.1 81.313a3.46 3.46 0 0 1 2.439-.952q.52 0 .924.172.408.165.68.473.279.309.42.734.148.42.148.936l-.001 3.836h-.568a.6.6 0 0 1-.279-.053q-.094-.06-.16-.231l-.123-.492a6 6 0 0 1-.456.373q-.225.16-.468.272-.237.112-.515.166-.273.06-.604.059-.368 0-.687-.1a1.5 1.5 0 0 1-.544-.303 1.5 1.5 0 0 1-.367-.51 1.8 1.8 0 0 1-.13-.71q0-.349.183-.68.19-.332.616-.592.432-.267 1.131-.438.705-.172 1.735-.195v-.402q0-.651-.278-.971-.279-.32-.817-.32-.367 0-.616.094-.249.09-.432.195-.183.108-.326.202a.56.56 0 0 1-.302.088.4.4 0 0 1-.225-.065.6.6 0 0 1-.148-.171zm9.708.257a.3.3 0 0 1-.107.119.3.3 0 0 1-.148.035.5.5 0 0 1-.219-.06 6 6 0 0 0-.278-.141 2 2 0 0 0-.38-.136 1.7 1.7 0 0 0-.502-.066q-.237 0-.432.06a.9.9 0 0 0-.326.159.7.7 0 0 0-.201.243.6.6 0 0 0-.072.296q0 .213.13.355t.344.249q.213.1.485.183.273.084.557.178t.556.22q.273.124.486.307.213.178.343.438.13.255.13.622 0 .427-.154.787t-.45.628a2.1 2.1 0 0 1-.74.414 3.1 3.1 0 0 1-1.007.148q-.314 0-.61-.06a3.6 3.6 0 0 1-.556-.148 3.3 3.3 0 0 1-.491-.237 2.7 2.7 0 0 1-.403-.296l.296-.485a.365.365 0 0 1 .332-.19q.125 0 .242.083.124.078.285.172.165.095.396.178.231.077.574.077.285 0 .492-.065.207-.07.343-.19a.76.76 0 0 0 .202-.266.8.8 0 0 0 .065-.325.55.55 0 0 0-.13-.38 1.1 1.1 0 0 0-.35-.254 3 3 0 0 0-.49-.19 22 22 0 0 1-.557-.177 6 6 0 0 1-.563-.22 2 2 0 0 1-.49-.313 1.5 1.5 0 0 1-.344-.468 1.6 1.6 0 0 1-.13-.675q0-.36.142-.687a1.7 1.7 0 0 1 .426-.574q.284-.249.693-.39.414-.148.953-.148.61 0 1.107.196.498.195.835.533zm8.365.393a1.5 1.5 0 0 0-.586-.473 1.7 1.7 0 0 0-.693-.143q-.746 0-1.166.55-.42.545-.421 1.616 0 .557.095.954.095.39.272.64.177.248.432.36.255.113.574.113.486 0 .835-.207.355-.213.657-.598zm1.273-1.485-.002 8.045h-1.273l.001-2.83a3.2 3.2 0 0 1-.841.663 2.24 2.24 0 0 1-1.077.248q-.51 0-.924-.201a2 2 0 0 1-.71-.599 3 3 0 0 1-.462-.965 5 5 0 0 1-.159-1.326q0-.675.178-1.249.183-.574.521-.994.338-.426.817-.663a2.4 2.4 0 0 1 1.084-.243q.29 0 .527.054.242.046.444.148.207.094.378.237.172.135.326.314l.077-.397q.07-.243.326-.242zm6.648.002-.002 6.038h-.769q-.255 0-.326-.243l-.094-.563a3.6 3.6 0 0 1-.403.367q-.207.166-.444.284a2.4 2.4 0 0 1-1.084.249q-.496 0-.876-.166a1.8 1.8 0 0 1-.639-.468 2 2 0 0 1-.385-.722 3.2 3.2 0 0 1-.13-.936l.001-3.842h1.273l-.001 3.843q0 .61.278.947.285.337.858.338.421 0 .782-.19a2.7 2.7 0 0 0 .687-.532l.001-4.405zm5.505 2.34q0-.32-.094-.593a1.3 1.3 0 0 0-.266-.48 1.2 1.2 0 0 0-.444-.319 1.45 1.45 0 0 0-.604-.119q-.693 0-1.09.397-.396.396-.503 1.113zm-3.037.78q.024.515.16.894.135.373.361.622.23.248.544.373.32.118.711.118.372 0 .645-.082.272-.09.474-.19.2-.106.343-.189a.5.5 0 0 1 .261-.089.27.27 0 0 1 .236.119l.361.468q-.224.265-.509.45a3 3 0 0 1-.604.301 3.4 3.4 0 0 1-.657.16 4 4 0 0 1-.657.053q-.628 0-1.166-.208a2.7 2.7 0 0 1-.93-.622 2.9 2.9 0 0 1-.615-1.012q-.219-.604-.219-1.391 0-.629.196-1.172.201-.546.569-.948a2.7 2.7 0 0 1 .9-.633 2.9 2.9 0 0 1 1.201-.236q.557 0 1.03.184.474.177.817.527.344.35.533.858.195.504.195 1.149 0 .296-.065.397-.066.1-.237.1zm9.506-2.318q.195-.201.402-.361a2.7 2.7 0 0 1 .45-.284 2.4 2.4 0 0 1 1.084-.249q.496 0 .87.166.379.166.633.468.26.302.391.729.13.42.13.93l-.001 3.841h-1.267l.001-3.842q0-.61-.284-.948-.278-.337-.852-.337-.427 0-.794.195-.361.195-.681.533l-.001 4.398h-1.273l.002-6.039h.77q.26 0 .331.243zm9.407 1.542q0-.32-.095-.592a1.3 1.3 0 0 0-.266-.48 1.2 1.2 0 0 0-.444-.32 1.45 1.45 0 0 0-.604-.118q-.693 0-1.089.396-.397.396-.504 1.113zm-3.038.78q.024.516.16.894.136.373.361.622.23.249.545.373.319.12.71.119.373 0 .645-.083.273-.089.474-.19a9 9 0 0 0 .343-.189.5.5 0 0 1 .261-.088q.153 0 .237.118l.361.468q-.225.266-.51.45-.283.183-.604.301a3.4 3.4 0 0 1-.657.16 4 4 0 0 1-.657.053q-.627 0-1.166-.207a2.65 2.65 0 0 1-.929-.622 2.9 2.9 0 0 1-.616-1.013 4 4 0 0 1-.218-1.391q0-.628.195-1.172a2.9 2.9 0 0 1 .569-.947 2.7 2.7 0 0 1 .9-.633 2.9 2.9 0 0 1 1.202-.237q.556 0 1.03.184.473.177.817.527t.532.859q.195.503.195 1.148 0 .296-.065.397-.065.1-.237.1zm9.636-1.933a.7.7 0 0 1-.113.118.25.25 0 0 1-.154.042.4.4 0 0 1-.213-.071 3 3 0 0 0-.26-.154 2 2 0 0 0-.361-.16 1.7 1.7 0 0 0-.533-.071q-.414 0-.728.147a1.4 1.4 0 0 0-.521.426 1.9 1.9 0 0 0-.314.67q-.1.39-.101.882 0 .508.112.905.113.397.32.67.213.272.509.414.302.142.674.142.367 0 .598-.088.232-.09.385-.196.154-.106.261-.195a.38.38 0 0 1 .237-.089.27.27 0 0 1 .236.119l.361.467a2.4 2.4 0 0 1-.485.45 3 3 0 0 1-.563.302 3 3 0 0 1-.615.16 4 4 0 0 1-.646.053q-.563 0-1.053-.208a2.55 2.55 0 0 1-.853-.61 3 3 0 0 1-.574-.977 3.9 3.9 0 0 1-.207-1.32q.001-.669.19-1.237.19-.574.551-.989.368-.413.906-.645a3.1 3.1 0 0 1 1.243-.236q.657 0 1.155.213.503.213.893.604zm5.276 1.156q0-.32-.094-.592a1.3 1.3 0 0 0-.266-.48 1.2 1.2 0 0 0-.444-.32 1.45 1.45 0 0 0-.604-.118q-.693 0-1.09.396-.396.398-.503 1.113zm-3.037.78q.024.516.16.894.136.374.361.622.23.249.544.373.32.12.711.119.372 0 .645-.083.272-.088.474-.19.2-.105.343-.189a.5.5 0 0 1 .261-.088.27.27 0 0 1 .236.118l.361.468q-.225.267-.509.45a3 3 0 0 1-.604.302 3.4 3.4 0 0 1-.657.16 4 4 0 0 1-.657.052q-.628 0-1.166-.207a2.7 2.7 0 0 1-.93-.622 2.9 2.9 0 0 1-.615-1.013q-.219-.603-.219-1.39 0-.63.196-1.173.201-.545.569-.947.372-.403.9-.633a2.9 2.9 0 0 1 1.201-.237q.557 0 1.03.184.474.178.817.527.344.35.533.859.195.503.195 1.148 0 .297-.065.397-.066.1-.237.1zm8.972-2.022a.3.3 0 0 1-.106.119.3.3 0 0 1-.148.035.5.5 0 0 1-.219-.06 6 6 0 0 0-.278-.141 2.2 2.2 0 0 0-.379-.136 1.7 1.7 0 0 0-.503-.066q-.237 0-.433.06a.9.9 0 0 0-.325.16.7.7 0 0 0-.202.242.64.64 0 0 0-.071.296q0 .213.13.355t.344.249q.213.1.485.183.273.084.557.178t.556.22q.272.123.485.307.213.178.344.438.13.255.13.622 0 .427-.154.787t-.451.628a2.1 2.1 0 0 1-.74.414 3.1 3.1 0 0 1-1.006.148q-.313 0-.61-.06a3.6 3.6 0 0 1-.556-.148 3.3 3.3 0 0 1-.492-.237q-.225-.136-.402-.296l.296-.485a.4.4 0 0 1 .13-.136.37.37 0 0 1 .202-.054q.124 0 .242.083.125.078.284.172.166.095.397.178.23.077.574.077.285 0 .492-.065.207-.07.343-.19a.75.75 0 0 0 .267-.591.56.56 0 0 0-.13-.38 1.1 1.1 0 0 0-.35-.254 3 3 0 0 0-.491-.19 21 21 0 0 1-.556-.177 6 6 0 0 1-.563-.22 2 2 0 0 1-.491-.313 1.5 1.5 0 0 1-.343-.468 1.6 1.6 0 0 1-.13-.675q0-.36.142-.687.149-.325.426-.574a2.1 2.1 0 0 1 .693-.39q.414-.148.953-.148.61 0 1.107.196.498.195.835.533zm2.89-1.094-.002 6.038h-1.272l.001-6.038zm.214-1.823a.8.8 0 0 1-.071.325.9.9 0 0 1-.184.272 1 1 0 0 1-.278.184.85.85 0 0 1-.657 0 1 1 0 0 1-.261-.184 1 1 0 0 1-.183-.272.8.8 0 0 1-.065-.326q0-.177.065-.331a.9.9 0 0 1 .444-.45.8.8 0 0 1 .326-.071q.177 0 .331.071a.8.8 0 0 1 .278.184q.118.112.184.266a.8.8 0 0 1 .071.332m3.319 7.957q-.752 0-1.16-.42-.402-.427-.402-1.197l.001-3.516h-.663a.28.28 0 0 1-.184-.066q-.077-.07-.076-.207v-.515l.976-.141.279-1.747a.32.32 0 0 1 .101-.16.27.27 0 0 1 .189-.065h.652l-.001 1.984h1.675v.918h-1.675l-.001 3.427q0 .326.16.497a.55.55 0 0 0 .426.172.8.8 0 0 0 .254-.035q.107-.042.184-.083l.13-.083a.2.2 0 0 1 .113-.041q.106 0 .171.118l.379.622q-.296.26-.699.402-.402.136-.829.136m6.304-3.793q0-.32-.094-.592a1.3 1.3 0 0 0-.267-.48 1.2 1.2 0 0 0-.444-.32 1.4 1.4 0 0 0-.603-.118q-.693 0-1.09.396-.396.398-.503 1.113zm-3.037.78q.024.516.16.895.136.372.361.621.23.249.544.373.32.12.711.119.372 0 .645-.083.272-.088.473-.19.202-.105.344-.188a.5.5 0 0 1 .26-.09q.154 0 .237.12l.361.467q-.225.267-.509.45t-.604.302a3.4 3.4 0 0 1-.657.16 4 4 0 0 1-.657.052q-.628 0-1.166-.207a2.7 2.7 0 0 1-.93-.622 2.9 2.9 0 0 1-.615-1.013q-.219-.603-.219-1.39 0-.63.196-1.173.202-.545.568-.947.374-.403.9-.633a2.9 2.9 0 0 1 1.202-.237q.557 0 1.03.184.474.178.817.527t.533.859q.195.503.195 1.148 0 .297-.066.397-.065.1-.236.1zm6.557-2.318q.196-.202.403-.361.213-.166.45-.284a2.4 2.4 0 0 1 1.083-.249q.498 0 .87.166.38.166.634.468.26.302.39.728.13.42.13.93l-.001 3.842h-1.267l.001-3.843q0-.61-.284-.947-.278-.337-.852-.337a1.66 1.66 0 0 0-.793.195q-.362.195-.681.532l-.001 4.399h-1.273l.001-6.039h.77q.26 0 .331.243zm12.664.388a.7.7 0 0 1-.113.118.25.25 0 0 1-.154.042.4.4 0 0 1-.213-.071 3 3 0 0 0-.26-.154 2 2 0 0 0-.361-.16 1.7 1.7 0 0 0-.533-.072q-.414 0-.728.148-.308.148-.521.426a1.9 1.9 0 0 0-.314.67q-.101.39-.101.881 0 .51.112.906.112.397.319.67.214.27.509.414.303.141.675.142.367 0 .598-.089.231-.088.385-.195.155-.106.261-.195a.38.38 0 0 1 .236-.089q.155 0 .237.118l.361.468a2.4 2.4 0 0 1-.485.45 3 3 0 0 1-.563.302 3 3 0 0 1-.616.16 4 4 0 0 1-.645.053q-.562 0-1.054-.208a2.55 2.55 0 0 1-.852-.61 3 3 0 0 1-.574-.977 3.9 3.9 0 0 1-.207-1.32 3.9 3.9 0 0 1 .19-1.237q.19-.575.551-.989.368-.414.906-.645a3.1 3.1 0 0 1 1.243-.236q.657 0 1.154.213.504.213.894.604zm3.927-1.278q.67 0 1.208.22.545.219.923.622.385.402.592.977.207.574.207 1.29t-.208 1.29q-.207.574-.592.983a2.6 2.6 0 0 1-.924.621 3.2 3.2 0 0 1-1.208.22q-.674 0-1.219-.22a2.6 2.6 0 0 1-.923-.622 2.8 2.8 0 0 1-.592-.983 3.8 3.8 0 0 1-.207-1.29q0-.717.208-1.291.207-.574.592-.977.384-.402.924-.621a3.2 3.2 0 0 1 1.219-.219m-.001 5.228q.817 0 1.213-.545.403-.55.403-1.568.002-1.019-.402-1.57-.397-.556-1.213-.556-.829 0-1.232.556-.402.55-.403 1.569 0 1.018.402 1.569.403.544 1.232.545m4.153.906.001-6.038h.77q.26 0 .332.243l.082.527q.166-.189.344-.343a2.04 2.04 0 0 1 .817-.456q.236-.065.509-.065.29 0 .533.083.242.083.426.237.19.154.325.373.136.219.225.492.137-.315.344-.539t.462-.367q.254-.143.538-.207.29-.071.586-.07.486 0 .865.153.384.154.645.45.266.291.402.717.136.427.136.97l-.001 3.843h-1.273l.001-3.843q0-.64-.278-.959-.271-.326-.811-.326-.242 0-.455.083a1.1 1.1 0 0 0-.373.243q-.16.159-.255.402a1.6 1.6 0 0 0-.089.557l-.001 3.842h-1.273l.001-3.843q0-.663-.266-.97-.267-.314-.781-.315-.355 0-.658.184a2.1 2.1 0 0 0-.556.491l-.001 4.452zm11.101-1.512q.267.343.58.486.32.135.705.136.746 0 1.16-.544.42-.545.421-1.622 0-.556-.095-.948a1.8 1.8 0 0 0-.272-.645 1.05 1.05 0 0 0-.432-.361 1.4 1.4 0 0 0-.574-.113q-.486 0-.841.213-.35.207-.651.598zm-.064-3.647q.38-.444.859-.716a2.25 2.25 0 0 1 1.124-.272q.51 0 .924.208.414.2.71.592.295.39.456.97.165.576.165 1.321a4.1 4.1 0 0 1-.184 1.25q-.177.573-.515 1-.337.42-.817.662-.48.237-1.084.237-.533 0-.905-.172a2.3 2.3 0 0 1-.669-.474l-.001 2.563H201.1l.003-8.045h.769q.26 0 .332.243zm6.677.245q.285-.575.687-.9.403-.33.965-.331.195 0 .367.047a1 1 0 0 1 .308.13l-.089.96a.25.25 0 0 1-.077.142.2.2 0 0 1-.13.035q-.09 0-.255-.03a1.7 1.7 0 0 0-.349-.035q-.267 0-.474.077a1.2 1.2 0 0 0-.367.225 1.6 1.6 0 0 0-.284.36q-.125.215-.231.486l-.001 3.753h-1.273l.002-6.038h.74q.201 0 .278.077.077.07.106.254zm6.302 2.28a8 8 0 0 0-1.148.113 3 3 0 0 0-.758.219q-.29.13-.42.313a.7.7 0 0 0-.125.403q0 .213.065.367a.7.7 0 0 0 .19.249.9.9 0 0 0 .284.142q.166.04.361.041.496 0 .852-.183a2.7 2.7 0 0 0 .699-.544zm-3.373-2.558a3.46 3.46 0 0 1 2.439-.952q.52 0 .923.172.41.165.681.474.278.308.42.734.148.42.148.935l-.001 3.836h-.568a.6.6 0 0 1-.279-.053q-.094-.06-.159-.231l-.125-.492a6 6 0 0 1-.456.373 3 3 0 0 1-.467.273q-.237.112-.515.165a3 3 0 0 1-.604.06q-.367 0-.687-.102a1.5 1.5 0 0 1-.545-.302 1.5 1.5 0 0 1-.366-.509 1.8 1.8 0 0 1-.13-.71q0-.35.183-.681.19-.331.616-.592.432-.266 1.131-.438.705-.171 1.735-.195v-.402q0-.651-.278-.971-.279-.32-.817-.32-.367 0-.616.095-.249.088-.432.195a6 6 0 0 0-.326.201.56.56 0 0 1-.302.089.4.4 0 0 1-.225-.066.6.6 0 0 1-.148-.171zm7.304.28q.284-.573.687-.9.402-.33.965-.33.195 0 .367.047a1 1 0 0 1 .308.13l-.089.96a.25.25 0 0 1-.077.141.2.2 0 0 1-.13.036q-.09 0-.255-.03a1.7 1.7 0 0 0-.349-.035q-.267 0-.474.077a1.2 1.2 0 0 0-.367.224 1.6 1.6 0 0 0-.284.361q-.124.213-.231.486l-.001 3.753h-1.273l.002-6.039h.74q.2 0 .278.078.077.07.106.254zM58.981 100.504l-1.273-.001.002-5.038h-2.943v3.427q0 .326.16.498a.55.55 0 0 0 .425.171.8.8 0 0 0 .255-.035q.106-.042.184-.083l.13-.083a.2.2 0 0 1 .112-.041q.106 0 .172.118l.379.622q-.296.261-.7.402a2.6 2.6 0 0 1-.828.136q-.752 0-1.16-.42-.403-.427-.402-1.196v-3.517h-.662a.27.27 0 0 1-.184-.065q-.077-.071-.077-.207v-.515l.977-.142.279-1.747a.3.3 0 0 1 .1-.16.27.27 0 0 1 .19-.064h.651v1.983l4.215.001zm.263-7.892a.8.8 0 0 1-.071.326.9.9 0 0 1-.184.266 1 1 0 0 1-.278.184.8.8 0 0 1-.326.065.8.8 0 0 1-.325-.065 1 1 0 0 1-.267-.184 1 1 0 0 1-.183-.266.8.8 0 0 1-.065-.326.84.84 0 0 1 .248-.604.9.9 0 0 1 .267-.183.8.8 0 0 1 .325-.071q.173 0 .326.07a.83.83 0 0 1 .462.457.8.8 0 0 1 .07.331m5.2 3.34a1.5 1.5 0 0 0-.585-.473 1.7 1.7 0 0 0-.693-.142q-.746 0-1.166.55-.42.545-.42 1.616-.002.556.094.953.094.39.272.64.177.248.432.36.254.113.574.113.486 0 .835-.207.356-.212.657-.597zm1.274-1.485-.002 8.045h-1.273v-2.83a3.2 3.2 0 0 1-.84.663 2.2 2.2 0 0 1-1.078.248q-.509 0-.923-.201a2 2 0 0 1-.71-.598 2.9 2.9 0 0 1-.462-.965 5 5 0 0 1-.16-1.326q0-.675.179-1.25.183-.573.521-.994.337-.426.817-.663a2.4 2.4 0 0 1 1.084-.242 2.4 2.4 0 0 1 .526.053q.243.048.444.148.208.096.38.237.17.137.325.314l.077-.397q.071-.242.325-.242zm6.648.002-.002 6.038h-.77q-.255 0-.325-.243l-.095-.562q-.189.2-.402.367-.208.165-.445.284-.236.118-.509.183-.266.065-.574.065a2.2 2.2 0 0 1-.876-.166 1.76 1.76 0 0 1-.64-.468 2 2 0 0 1-.384-.722 3.2 3.2 0 0 1-.13-.935l.001-3.843h1.273l-.001 3.843q0 .61.278.947.284.338.858.338.42 0 .782-.19a2.7 2.7 0 0 0 .687-.532v-4.404zm5.505 2.34q0-.32-.094-.592a1.3 1.3 0 0 0-.267-.48 1.2 1.2 0 0 0-.444-.32 1.45 1.45 0 0 0-.603-.118q-.693 0-1.09.396-.396.396-.503 1.113zm-3.037.78q.024.516.16.894.135.374.36.622.231.249.545.373.32.12.71.119.374 0 .646-.083a3.5 3.5 0 0 0 .817-.379.5.5 0 0 1 .26-.088q.155 0 .237.118l.361.468q-.225.266-.51.45a3.05 3.05 0 0 1-1.26.461 4 4 0 0 1-.657.053q-.629 0-1.167-.207a2.7 2.7 0 0 1-.929-.622 2.9 2.9 0 0 1-.615-1.013q-.22-.603-.219-1.39 0-.63.196-1.173.202-.545.568-.947.374-.403.9-.633a2.9 2.9 0 0 1 1.202-.237q.557 0 1.03.184.474.178.817.527t.533.859q.195.503.195 1.148 0 .297-.066.397-.065.1-.236.1zm7.244 3.016q-.752 0-1.16-.421-.403-.426-.403-1.196l.001-3.516h-.663a.28.28 0 0 1-.183-.066q-.078-.07-.077-.207v-.515l.977-.142.278-1.746a.32.32 0 0 1 .101-.16.27.27 0 0 1 .19-.065h.65v1.983h1.676v.918h-1.676l-.001 3.428q0 .325.16.497a.56.56 0 0 0 .426.172.8.8 0 0 0 .255-.036q.106-.041.183-.082l.13-.083a.2.2 0 0 1 .113-.042q.106 0 .171.119l.38.621q-.297.26-.7.403-.402.136-.828.136m6.303-3.793q0-.32-.094-.592a1.3 1.3 0 0 0-.266-.48 1.2 1.2 0 0 0-.444-.32 1.45 1.45 0 0 0-.604-.118q-.693 0-1.09.396-.396.396-.503 1.113zm-3.037.78q.024.516.16.894.135.373.36.622.232.249.545.373.32.119.71.119.375 0 .646-.083.273-.089.474-.19.2-.105.343-.189a.5.5 0 0 1 .26-.088q.154 0 .237.118l.361.468q-.225.266-.509.45-.284.183-.604.301a3.4 3.4 0 0 1-.657.16 4 4 0 0 1-.657.053q-.627 0-1.166-.207a2.7 2.7 0 0 1-.93-.622 2.9 2.9 0 0 1-.615-1.013q-.219-.603-.219-1.391 0-.628.196-1.172a2.9 2.9 0 0 1 .569-.947q.372-.404.9-.633a2.9 2.9 0 0 1 1.201-.237q.557 0 1.03.184.474.177.817.527.345.35.533.859.195.503.195 1.148 0 .297-.065.397-.066.1-.237.1zm8.973-2.022a.3.3 0 0 1-.107.118.3.3 0 0 1-.148.036.5.5 0 0 1-.219-.06 6 6 0 0 0-.278-.141 2 2 0 0 0-.38-.137 1.7 1.7 0 0 0-.502-.065q-.237 0-.432.06a.9.9 0 0 0-.326.159.7.7 0 0 0-.201.242.6.6 0 0 0-.072.296q0 .213.13.356.13.141.344.248.213.102.485.184.273.083.557.178t.556.219q.272.125.486.308.213.178.343.438.13.255.13.622 0 .426-.154.787-.154.36-.45.628a2.1 2.1 0 0 1-.74.414 3.1 3.1 0 0 1-1.007.147 3 3 0 0 1-.61-.059 3.6 3.6 0 0 1-.556-.148 3.3 3.3 0 0 1-.492-.237 2.7 2.7 0 0 1-.402-.296l.296-.486a.364.364 0 0 1 .332-.19.42.42 0 0 1 .243.084q.123.078.284.172.165.094.396.178.232.076.574.077.285 0 .492-.065.207-.071.343-.19a.76.76 0 0 0 .201-.266.8.8 0 0 0 .066-.326.55.55 0 0 0-.13-.379 1.1 1.1 0 0 0-.35-.254 3 3 0 0 0-.49-.19 23 23 0 0 1-.557-.177 6 6 0 0 1-.563-.22 2 2 0 0 1-.491-.314 1.5 1.5 0 0 1-.343-.467 1.6 1.6 0 0 1-.13-.675q0-.361.142-.687.148-.325.426-.574.284-.249.693-.39.414-.149.953-.148.61 0 1.107.195.498.195.835.533zm7.737 2.305a8 8 0 0 0-1.149.112 3 3 0 0 0-.757.219q-.291.13-.42.314a.7.7 0 0 0-.125.402.9.9 0 0 0 .065.367q.07.149.19.249.124.094.283.142.166.042.361.042.498 0 .853-.184a2.7 2.7 0 0 0 .699-.544zm-3.374-2.558a3.46 3.46 0 0 1 2.44-.953q.52 0 .923.172a1.8 1.8 0 0 1 .681.474q.278.308.42.734.147.42.148.936l-.001 3.836h-.569a.6.6 0 0 1-.278-.054q-.094-.059-.16-.231l-.124-.491a6 6 0 0 1-.456.373 3 3 0 0 1-.468.272q-.236.112-.515.166a3 3 0 0 1-.604.059 2.3 2.3 0 0 1-.686-.101 1.5 1.5 0 0 1-.545-.302 1.5 1.5 0 0 1-.367-.51 1.8 1.8 0 0 1-.13-.71q0-.35.184-.68.19-.332.616-.593.432-.266 1.131-.437.704-.172 1.734-.195v-.403q0-.651-.278-.97-.277-.32-.817-.32-.367-.001-.615.094-.249.09-.432.195-.184.106-.326.201a.56.56 0 0 1-.302.09.4.4 0 0 1-.225-.066.6.6 0 0 1-.148-.172zm10.063 1.5q0-.32-.095-.592a1.3 1.3 0 0 0-.266-.48 1.2 1.2 0 0 0-.444-.32 1.45 1.45 0 0 0-.604-.118q-.691 0-1.089.397-.396.396-.503 1.112zm-3.037.78q.024.516.159.895.136.373.361.621.231.248.545.374.32.117.71.118.373 0 .646-.083.272-.089.473-.189.201-.106.344-.19a.5.5 0 0 1 .26-.088q.154 0 .237.118l.361.468q-.225.267-.509.45t-.604.302a3.4 3.4 0 0 1-.657.159 4 4 0 0 1-.658.054 3.3 3.3 0 0 1-1.166-.208 2.65 2.65 0 0 1-.929-.622 2.9 2.9 0 0 1-.615-1.012q-.219-.605-.219-1.392 0-.627.196-1.172a2.9 2.9 0 0 1 .568-.947 2.7 2.7 0 0 1 .9-.633 2.9 2.9 0 0 1 1.202-.236q.556 0 1.03.184.474.177.817.527t.532.858q.197.504.195 1.149 0 .296-.065.396t-.237.1zm3.53-5.7-1.427 1.534a.6.6 0 0 1-.19.148.6.6 0 0 1-.237.041h-.757l.858-1.433a.6.6 0 0 1 .19-.219.6.6 0 0 1 .325-.07zm3.039 3.702q.284-.575.687-.9.402-.331.965-.331.195 0 .367.047a1 1 0 0 1 .307.13l-.089.96q-.023.1-.077.142a.2.2 0 0 1-.13.035 1.6 1.6 0 0 1-.254-.03 1.7 1.7 0 0 0-.35-.035 1.4 1.4 0 0 0-.473.077 1.2 1.2 0 0 0-.367.224 1.6 1.6 0 0 0-.285.361q-.124.213-.231.486l-.001 3.753h-1.272l.001-6.039h.74q.201 0 .278.078.078.07.107.254zm6.921 1.221q0-.32-.095-.592a1.3 1.3 0 0 0-.266-.48 1.2 1.2 0 0 0-.444-.32 1.45 1.45 0 0 0-.604-.118q-.693 0-1.089.396-.397.397-.504 1.113zm-3.038.78q.024.516.16.895.136.373.361.621.23.249.544.373.32.12.711.119.373 0 .645-.083a3.5 3.5 0 0 0 .817-.378.5.5 0 0 1 .261-.09.27.27 0 0 1 .236.12l.361.467a2.3 2.3 0 0 1-.509.45 3 3 0 0 1-.604.302 3.4 3.4 0 0 1-.657.159 4 4 0 0 1-.657.053q-.627 0-1.166-.207a2.7 2.7 0 0 1-.929-.622 2.9 2.9 0 0 1-.616-1.012q-.219-.605-.219-1.392.001-.627.196-1.172.201-.544.569-.947.372-.403.9-.633a2.9 2.9 0 0 1 1.202-.237q.556 0 1.03.184.473.178.816.527.344.35.533.859.195.503.195 1.148 0 .297-.065.397-.066.1-.237.1zm7.978-3.212q.67 0 1.208.22.545.219.923.621.385.404.592.977.207.575.207 1.291 0 .717-.208 1.29-.207.574-.592.983-.379.402-.924.621a3.2 3.2 0 0 1-1.207.219q-.675 0-1.22-.219a2.6 2.6 0 0 1-.923-.622 2.8 2.8 0 0 1-.592-.983 3.8 3.8 0 0 1-.207-1.29q0-.717.208-1.291t.592-.977q.386-.402.924-.621a3.2 3.2 0 0 1 1.219-.219m-.001 5.228q.817 0 1.214-.545.403-.55.403-1.568t-.402-1.57q-.397-.556-1.214-.556-.829 0-1.231.556-.403.55-.403 1.569 0 1.017.402 1.569.402.544 1.231.545m7.76-4.036a.3.3 0 0 1-.107.119.3.3 0 0 1-.148.035.5.5 0 0 1-.219-.06 6 6 0 0 0-.278-.141 2 2 0 0 0-.379-.137 1.7 1.7 0 0 0-.503-.065q-.237 0-.432.06a.9.9 0 0 0-.326.159.7.7 0 0 0-.272.539q0 .213.13.355t.343.249q.213.1.485.183.273.084.557.178t.556.22q.273.123.486.307.213.178.343.438.13.255.13.622 0 .427-.154.787-.155.361-.45.628a2.1 2.1 0 0 1-.74.414 3.2 3.2 0 0 1-1.007.148 3 3 0 0 1-.61-.06 3.6 3.6 0 0 1-.556-.148 3.3 3.3 0 0 1-.491-.237 2.7 2.7 0 0 1-.403-.296l.296-.485a.362.362 0 0 1 .332-.19.42.42 0 0 1 .243.083q.123.078.284.172.165.095.396.178.231.077.575.077.284 0 .491-.065.207-.07.343-.19a.8.8 0 0 0 .202-.266.8.8 0 0 0 .065-.325.55.55 0 0 0-.13-.38 1.1 1.1 0 0 0-.349-.254 3 3 0 0 0-.492-.19 22 22 0 0 1-.556-.177 6 6 0 0 1-.563-.22 2 2 0 0 1-.491-.313 1.5 1.5 0 0 1-.343-.468 1.6 1.6 0 0 1-.13-.675q0-.36.142-.687.148-.325.427-.574.284-.249.692-.39a2.8 2.8 0 0 1 .953-.148q.61 0 1.107.196.498.195.835.533zm8.471 1.246q0-.32-.094-.592a1.3 1.3 0 0 0-.266-.48 1.2 1.2 0 0 0-.444-.32 1.45 1.45 0 0 0-.604-.118q-.693 0-1.09.396-.396.396-.503 1.113zm-3.037.78q.024.516.16.894.136.373.361.622.23.249.544.373.32.12.711.119.372 0 .645-.083.272-.089.474-.19.2-.105.343-.189a.5.5 0 0 1 .261-.088.27.27 0 0 1 .236.118l.361.468a2.3 2.3 0 0 1-.509.45 3.04 3.04 0 0 1-1.261.461 4 4 0 0 1-.657.053q-.627 0-1.166-.207a2.7 2.7 0 0 1-.93-.622 2.9 2.9 0 0 1-.615-1.013q-.219-.604-.219-1.39 0-.63.196-1.173.201-.545.569-.947.372-.403.9-.633a2.9 2.9 0 0 1 1.201-.237q.557 0 1.03.184.474.177.817.527.344.35.533.859.195.503.195 1.148 0 .297-.065.397-.066.1-.237.1zm9.642-3.117-.002 6.039-1.272-.001.001-6.038zm.214-1.823a.8.8 0 0 1-.071.325.9.9 0 0 1-.184.273 1 1 0 0 1-.278.183.8.8 0 0 1-.332.065.8.8 0 0 1-.325-.065 1 1 0 0 1-.261-.184 1 1 0 0 1-.183-.272.8.8 0 0 1-.065-.326q0-.177.065-.331a.9.9 0 0 1 .444-.45.8.8 0 0 1 .326-.07q.178 0 .331.07a.8.8 0 0 1 .278.184q.118.113.184.266a.8.8 0 0 1 .071.332m2.575 2.623q.195-.201.403-.36.213-.167.45-.285a2.4 2.4 0 0 1 1.083-.248q.498 0 .87.166.38.165.634.467a2 2 0 0 1 .39.729q.13.42.13.93l-.001 3.841h-1.267l.001-3.842q0-.61-.284-.947-.278-.338-.852-.338a1.66 1.66 0 0 0-.793.195q-.362.195-.681.533l-.001 4.398h-1.273l.001-6.038h.77q.26 0 .331.243zm7.3 5.336q-.752 0-1.16-.421-.402-.426-.402-1.196l.001-3.516h-.663a.28.28 0 0 1-.184-.065q-.077-.072-.076-.208v-.515l.976-.142.279-1.746a.32.32 0 0 1 .101-.16.27.27 0 0 1 .189-.065h.652l-.001 1.984h1.675v.918h-1.675l-.001 3.427q0 .326.16.497a.55.55 0 0 0 .426.172.8.8 0 0 0 .254-.035q.107-.042.184-.083l.13-.083a.2.2 0 0 1 .113-.041q.106 0 .171.118l.379.622q-.296.26-.699.402a2.6 2.6 0 0 1-.829.136m6.304-3.793q0-.32-.094-.592a1.3 1.3 0 0 0-.267-.48 1.2 1.2 0 0 0-.443-.32 1.45 1.45 0 0 0-.604-.118q-.693 0-1.09.396-.396.397-.503 1.113zm-3.037.78q.024.516.16.894.136.374.361.622.23.249.544.373.32.12.711.119.372 0 .645-.083.272-.088.473-.19.202-.105.344-.188a.5.5 0 0 1 .26-.09q.154 0 .237.12l.361.467q-.225.267-.509.45t-.604.302a3.4 3.4 0 0 1-.657.159 4 4 0 0 1-.657.053 3.2 3.2 0 0 1-1.166-.207 2.7 2.7 0 0 1-.93-.622 2.9 2.9 0 0 1-.615-1.013q-.219-.603-.219-1.39 0-.63.196-1.173.202-.545.568-.947a2.7 2.7 0 0 1 .9-.633 2.9 2.9 0 0 1 1.202-.237q.557 0 1.03.184.474.178.817.527t.533.859q.195.503.195 1.148 0 .297-.065.397-.066.1-.237.1zm6.569-1.999q.284-.573.687-.9.402-.33.965-.33.195 0 .367.047a1 1 0 0 1 .308.13l-.089.96a.25.25 0 0 1-.077.141.2.2 0 0 1-.131.036 1.6 1.6 0 0 1-.254-.03 1.7 1.7 0 0 0-.349-.035q-.267 0-.474.076a1.2 1.2 0 0 0-.367.225 1.6 1.6 0 0 0-.284.361q-.124.213-.231.486l-.001 3.753h-1.273l.001-6.039h.74q.202 0 .279.077.076.072.106.255zm6.921 1.222q0-.32-.095-.592a1.3 1.3 0 0 0-.266-.48 1.2 1.2 0 0 0-.444-.32 1.45 1.45 0 0 0-.604-.118q-.693 0-1.089.396-.397.397-.504 1.113zm-3.037.78q.023.516.159.894.136.373.361.622.231.249.545.373.32.12.71.119.373 0 .645-.083a3.5 3.5 0 0 0 .817-.379.5.5 0 0 1 .261-.088q.154 0 .237.118l.361.468a2.3 2.3 0 0 1-.51.45 3 3 0 0 1-1.261.461 4 4 0 0 1-.657.053q-.627 0-1.166-.207a2.66 2.66 0 0 1-.929-.622 2.9 2.9 0 0 1-.616-1.013q-.218-.603-.218-1.39 0-.63.195-1.173.202-.545.569-.947.374-.403.9-.633a2.9 2.9 0 0 1 1.202-.237q.556 0 1.03.184.473.178.817.527t.532.859q.195.503.195 1.148 0 .297-.065.397t-.237.1zm8.972-2.022a.3.3 0 0 1-.107.119.3.3 0 0 1-.148.035.5.5 0 0 1-.219-.06 6 6 0 0 0-.278-.141 2 2 0 0 0-.379-.137 1.7 1.7 0 0 0-.503-.065q-.237 0-.432.06a.9.9 0 0 0-.326.159.7.7 0 0 0-.272.539q0 .213.13.355t.343.249q.213.1.486.183.272.083.556.178t.556.22q.273.124.486.307.213.178.343.438.13.255.13.622 0 .426-.154.787t-.45.628a2.1 2.1 0 0 1-.74.414 3.2 3.2 0 0 1-1.007.148q-.314 0-.609-.06a3.6 3.6 0 0 1-.557-.148 3.3 3.3 0 0 1-.491-.237 2.7 2.7 0 0 1-.403-.296l.296-.485a.363.363 0 0 1 .332-.19.42.42 0 0 1 .243.083q.124.078.284.172.166.094.396.178.231.077.575.077.284 0 .491-.065.207-.07.343-.19a.8.8 0 0 0 .202-.266.8.8 0 0 0 .065-.325.55.55 0 0 0-.13-.38 1.1 1.1 0 0 0-.349-.254 3 3 0 0 0-.492-.19 22 22 0 0 1-.556-.177 6 6 0 0 1-.562-.22 2 2 0 0 1-.492-.313 1.5 1.5 0 0 1-.343-.468 1.6 1.6 0 0 1-.13-.675q0-.36.142-.687.148-.325.427-.574.284-.249.692-.39.415-.148.954-.148.609 0 1.107.195.496.196.834.534zm4.789 2.304a8 8 0 0 0-1.149.112 3 3 0 0 0-.758.22q-.29.129-.42.313a.7.7 0 0 0-.124.403q0 .213.065.367.07.147.189.248a.9.9 0 0 0 .284.142q.166.042.361.042.498 0 .853-.183a2.7 2.7 0 0 0 .699-.545zm-3.374-2.558a3.46 3.46 0 0 1 2.439-.952q.522 0 .924.172a1.8 1.8 0 0 1 .681.473q.278.308.42.734.148.42.147.936l-.001 3.836h-.568a.6.6 0 0 1-.278-.053.45.45 0 0 1-.16-.231l-.124-.492a6 6 0 0 1-.456.373q-.225.16-.468.272-.237.112-.515.166a3 3 0 0 1-.604.059q-.366 0-.686-.101a1.5 1.5 0 0 1-.545-.302 1.5 1.5 0 0 1-.367-.51 1.8 1.8 0 0 1-.13-.71q0-.35.184-.68.189-.332.616-.592.432-.267 1.13-.438.705-.172 1.735-.195v-.402q0-.652-.278-.971-.278-.32-.817-.32-.367 0-.615.094-.249.09-.433.195a6 6 0 0 0-.325.202.56.56 0 0 1-.302.088.4.4 0 0 1-.225-.065.6.6 0 0 1-.148-.172zm9.957.648a1.5 1.5 0 0 0-.586-.48 1.75 1.75 0 0 0-.693-.136q-.746 0-1.166.55-.421.545-.421 1.616 0 .557.094.953.095.39.272.64.178.249.433.361.254.113.574.113.485 0 .835-.207a2.5 2.5 0 0 0 .657-.598zm1.273-4.209-.002 8.762h-.769q-.255 0-.326-.243l-.112-.657a3.2 3.2 0 0 1-.865.716q-.48.272-1.119.272-.509 0-.923-.202a2 2 0 0 1-.71-.598 2.9 2.9 0 0 1-.462-.965 5 5 0 0 1-.159-1.326q0-.674.177-1.25a3.1 3.1 0 0 1 .522-.994 2.37 2.37 0 0 1 1.9-.905q.532 0 .906.172.374.166.669.468l.001-3.25zm4.167 2.63q.669 0 1.208.22.544.218.923.621.385.402.592.977t.206 1.29q0 .717-.207 1.291-.208.574-.592.983a2.6 2.6 0 0 1-.924.621 3.2 3.2 0 0 1-1.208.219 3.2 3.2 0 0 1-1.219-.22 2.6 2.6 0 0 1-.924-.622 2.8 2.8 0 0 1-.591-.982 3.8 3.8 0 0 1-.207-1.291q0-.716.207-1.29.208-.575.593-.977.384-.402.923-.621.545-.22 1.22-.22m-.002 5.227q.818 0 1.214-.544.403-.55.403-1.569t-.402-1.569q-.397-.555-1.213-.556-.829 0-1.232.556-.402.55-.403 1.568 0 1.019.402 1.57.403.544 1.231.544m7.76-4.035a.3.3 0 0 1-.106.118.3.3 0 0 1-.148.036.5.5 0 0 1-.219-.06 6 6 0 0 0-.279-.142 2 2 0 0 0-.378-.136 1.7 1.7 0 0 0-.504-.065q-.237 0-.432.059a.9.9 0 0 0-.325.16.7.7 0 0 0-.202.242.63.63 0 0 0-.071.296q0 .213.13.356.13.141.344.248.213.101.485.184t.556.178.557.219.485.308q.214.177.343.438.13.255.13.622 0 .426-.154.787-.153.36-.45.627a2.1 2.1 0 0 1-.74.415 3.2 3.2 0 0 1-1.006.147q-.315 0-.61-.059a4 4 0 0 1-.557-.148 3.3 3.3 0 0 1-.491-.237 2.7 2.7 0 0 1-.402-.296l.296-.486a.362.362 0 0 1 .331-.19.42.42 0 0 1 .243.084l.284.172q.166.094.397.177.23.077.574.078.284 0 .491-.066.208-.07.344-.189a.75.75 0 0 0 .266-.592.55.55 0 0 0-.13-.379 1.1 1.1 0 0 0-.349-.254 3 3 0 0 0-.491-.19 22 22 0 0 1-.557-.178 6 6 0 0 1-.562-.219 2 2 0 0 1-.491-.314 1.5 1.5 0 0 1-.344-.468 1.6 1.6 0 0 1-.13-.674q0-.361.143-.687a1.7 1.7 0 0 1 .426-.574q.284-.249.693-.39.414-.15.953-.148.609 0 1.107.195.497.195.834.533zm8.472 1.245q0-.32-.095-.592a1.3 1.3 0 0 0-.266-.48 1.2 1.2 0 0 0-.444-.32 1.44 1.44 0 0 0-.604-.118q-.692 0-1.089.397-.397.396-.504 1.113zm-3.037.781q.023.514.159.894.136.373.361.622.231.248.545.373.32.118.71.118.373 0 .646-.082.272-.09.473-.19.201-.106.344-.189a.5.5 0 0 1 .26-.089q.155 0 .237.119l.361.468q-.225.266-.509.449-.285.184-.604.302a3.4 3.4 0 0 1-.657.16 4 4 0 0 1-.658.053q-.627 0-1.166-.208a2.65 2.65 0 0 1-.929-.622 2.9 2.9 0 0 1-.615-1.012q-.219-.604-.219-1.391 0-.629.196-1.172a2.9 2.9 0 0 1 .568-.947q.374-.403.9-.634a2.9 2.9 0 0 1 1.202-.236q.556 0 1.03.184.474.177.817.527t.532.858q.196.504.195 1.149 0 .296-.065.396t-.237.101zm6.557-2.319q.195-.201.402-.36.214-.167.45-.285a2.4 2.4 0 0 1 1.084-.248q.496 0 .87.166.38.165.633.468.26.301.391.728.13.42.13.93l-.001 3.841h-1.267l.001-3.842q0-.61-.284-.947-.277-.338-.852-.338-.426 0-.794.195-.36.195-.681.533l-.001 4.398h-1.273l.002-6.038h.77q.26 0 .331.243zm13.423-.796-2.429 6.038h-1.149l-2.425-6.04 1.047.001q.149 0 .243.077a.32.32 0 0 1 .13.172l1.337 3.517a8 8 0 0 1 .261.983q.047-.249.112-.486.072-.242.154-.497l1.363-3.516a.36.36 0 0 1 .13-.178.37.37 0 0 1 .231-.07zm5.96.002-.001 6.039-.77-.001q-.254 0-.325-.242l-.095-.563a3.4 3.4 0 0 1-.403.367 2.5 2.5 0 0 1-.444.284q-.236.118-.509.183a2.4 2.4 0 0 1-.574.065q-.498 0-.876-.166a1.75 1.75 0 0 1-.639-.467 2.05 2.05 0 0 1-.385-.723 3.2 3.2 0 0 1-.13-.935l.001-3.842h1.273l-.001 3.842q0 .61.278.948.283.337.858.337.42 0 .782-.19.366-.195.686-.532l.002-4.404zm5.506 2.34q0-.32-.095-.592a1.3 1.3 0 0 0-.266-.48 1.2 1.2 0 0 0-.444-.32 1.44 1.44 0 0 0-.604-.118q-.692 0-1.089.396-.396.397-.503 1.113zm-3.037.78a3.1 3.1 0 0 0 .159.895q.136.373.361.621.231.249.545.373.32.12.71.119.373 0 .646-.083.272-.088.473-.189.201-.106.344-.19a.5.5 0 0 1 .26-.088q.154 0 .237.118l.361.468q-.225.267-.509.45t-.604.302a3.4 3.4 0 0 1-.657.159 4 4 0 0 1-.658.053q-.627 0-1.166-.207a2.7 2.7 0 0 1-.929-.622 2.9 2.9 0 0 1-.615-1.012q-.219-.605-.219-1.392 0-.627.196-1.172a2.9 2.9 0 0 1 .568-.947q.374-.403.9-.633a2.9 2.9 0 0 1 1.202-.237q.556 0 1.03.184.474.178.817.527t.532.859q.197.503.195 1.148 0 .297-.065.397t-.237.1zm6.664-5.84-.002 8.761h-1.273l.003-8.762zm4.181 2.629q.67 0 1.208.22.545.218.923.621.385.403.592.977.207.575.207 1.29 0 .718-.208 1.291-.207.574-.592.983a2.6 2.6 0 0 1-.924.621 3.2 3.2 0 0 1-1.207.219q-.675 0-1.22-.219a2.6 2.6 0 0 1-.923-.622 2.8 2.8 0 0 1-.592-.983 3.8 3.8 0 0 1-.207-1.29q0-.717.208-1.291.207-.575.592-.977t.924-.621a3.2 3.2 0 0 1 1.219-.219m-.001 5.227q.817.001 1.214-.544.403-.55.403-1.569 0-1.017-.402-1.569-.397-.556-1.214-.556-.828 0-1.231.556-.403.55-.403 1.569 0 1.017.402 1.568.402.546 1.231.545m7.76-4.035a.3.3 0 0 1-.107.118.3.3 0 0 1-.148.036.5.5 0 0 1-.219-.06 6 6 0 0 0-.278-.141 2.2 2.2 0 0 0-.379-.137 1.7 1.7 0 0 0-.503-.065q-.237 0-.432.06a.9.9 0 0 0-.326.159.7.7 0 0 0-.272.538q0 .212.13.356.13.141.343.248.213.102.485.184.272.083.557.178.284.094.556.219t.486.308q.213.177.343.438.13.255.13.622 0 .426-.154.787-.155.36-.45.628a2.1 2.1 0 0 1-.74.414 3.1 3.1 0 0 1-1.007.147 3.69 3.69 0 0 1-1.166-.207 3.3 3.3 0 0 1-.491-.237 2.7 2.7 0 0 1-.403-.296l.296-.486a.362.362 0 0 1 .332-.19.42.42 0 0 1 .243.084q.123.077.284.172.165.094.396.178.231.076.574.077.285 0 .492-.065.207-.071.343-.19a.8.8 0 0 0 .202-.266.8.8 0 0 0 .065-.326.55.55 0 0 0-.13-.379 1.1 1.1 0 0 0-.35-.254 3 3 0 0 0-.491-.19 22 22 0 0 1-.556-.178 6 6 0 0 1-.563-.219 2 2 0 0 1-.491-.313 1.5 1.5 0 0 1-.343-.468 1.6 1.6 0 0 1-.13-.675q0-.362.142-.687.148-.325.427-.574.284-.249.692-.39a2.8 2.8 0 0 1 .953-.148q.61 0 1.107.195.498.195.835.533zM54.39 112.986q.265.343.58.486.32.135.704.136.746 0 1.16-.544.42-.545.421-1.622 0-.557-.094-.948a1.8 1.8 0 0 0-.272-.645 1.05 1.05 0 0 0-.432-.361 1.4 1.4 0 0 0-.575-.113q-.484 0-.84.213-.35.207-.651.598zm-.064-3.647q.378-.444.858-.716a2.27 2.27 0 0 1 1.125-.272q.51 0 .924.208.414.2.71.592.296.39.455.971.165.574.166 1.32 0 .669-.184 1.249-.178.574-.516 1a2.46 2.46 0 0 1-.817.663q-.48.237-1.083.237-.532 0-.906-.172a2.4 2.4 0 0 1-.669-.474v2.563h-1.273l.002-8.045h.77q.26 0 .331.243zm8.086-.968q.67 0 1.208.219.544.219.923.622.385.402.592.977t.206 1.29q0 .717-.207 1.291a2.8 2.8 0 0 1-.592.982q-.379.403-.924.622-.54.22-1.208.218-.675 0-1.22-.219a2.6 2.6 0 0 1-.922-.622 2.8 2.8 0 0 1-.592-.983 3.8 3.8 0 0 1-.207-1.29q0-.717.207-1.291.208-.574.593-.976.384-.403.923-.622.546-.22 1.22-.218m-.001 5.227q.816 0 1.213-.544.403-.55.403-1.569t-.402-1.569q-.396-.557-1.213-.557-.829 0-1.232.556-.402.55-.403 1.569 0 1.019.402 1.569.403.545 1.232.545m5.356-4.012q.284-.575.687-.9a1.47 1.47 0 0 1 .965-.331q.195 0 .367.047a1 1 0 0 1 .308.13l-.09.959q-.022.102-.076.143a.2.2 0 0 1-.13.035q-.09 0-.255-.03a1.7 1.7 0 0 0-.35-.035q-.266 0-.473.077a1.2 1.2 0 0 0-.367.224 1.6 1.6 0 0 0-.284.361q-.124.213-.231.486l-.001 3.753h-1.273l.001-6.039.74.001q.201 0 .278.077.078.07.107.254zm7.16-3.841-.002 8.762h-1.273l.002-8.762zm4.796 6.123a8 8 0 0 0-1.148.112 3 3 0 0 0-.758.219q-.291.13-.42.314a.7.7 0 0 0-.125.402q0 .213.065.367.07.149.19.249.123.094.283.142.165.042.361.042.498 0 .853-.184.36-.189.699-.544zm-3.374-2.558a3.46 3.46 0 0 1 2.44-.953q.52 0 .923.172.409.167.68.474.279.308.42.734a2.8 2.8 0 0 1 .149.935l-.001 3.837-.569-.001a.6.6 0 0 1-.278-.053q-.094-.058-.16-.231l-.124-.491a6 6 0 0 1-.456.373q-.225.16-.468.272-.237.113-.515.165a2.8 2.8 0 0 1-.604.06 2.3 2.3 0 0 1-.686-.101 1.5 1.5 0 0 1-.545-.302 1.5 1.5 0 0 1-.367-.51 1.8 1.8 0 0 1-.13-.71q0-.35.184-.681.189-.331.616-.592.432-.266 1.13-.437.706-.172 1.735-.195v-.403q0-.651-.278-.971-.277-.32-.817-.32-.367 0-.615.095-.249.088-.433.195-.183.106-.325.201a.56.56 0 0 1-.302.089.4.4 0 0 1-.225-.065.6.6 0 0 1-.148-.172zm11.881 5.201-1.272-.001.001-5.038h-2.942l-.001 3.427q0 .326.16.498a.56.56 0 0 0 .426.171.8.8 0 0 0 .254-.035 2 2 0 0 0 .184-.083q.077-.047.13-.083a.2.2 0 0 1 .113-.041q.106 0 .171.118l.379.622q-.296.261-.699.402a2.6 2.6 0 0 1-.829.136q-.751 0-1.16-.42-.402-.427-.402-1.196v-3.517h-.662a.28.28 0 0 1-.184-.065q-.076-.072-.077-.207v-.515l.978-.142.278-1.747a.3.3 0 0 1 .1-.159.27.27 0 0 1 .19-.065h.651v1.983l4.215.001zm.263-7.892a.864.864 0 0 1-1.184.776 1 1 0 0 1-.266-.184 1 1 0 0 1-.184-.267.8.8 0 0 1-.065-.325.84.84 0 0 1 .249-.604.86.86 0 0 1 .592-.254q.172 0 .325.071a.82.82 0 0 1 .462.456.8.8 0 0 1 .071.331m2.537 2.653q.195-.2.403-.361a2.7 2.7 0 0 1 .45-.284 2.36 2.36 0 0 1 1.083-.248q.498 0 .87.166.38.165.634.468.261.302.39.728.13.42.13.929v3.842h-1.267v-3.842q0-.61-.283-.947-.279-.338-.853-.338-.426 0-.793.195-.36.195-.681.533l-.001 4.398h-1.273l.002-6.038h.77q.26 0 .33.243zm8.058-.892q.67.001 1.208.22.545.219.923.622.385.402.592.977.207.574.207 1.29t-.208 1.291q-.207.574-.592.982a2.6 2.6 0 0 1-.924.622 3.2 3.2 0 0 1-1.207.218q-.675 0-1.22-.219a2.6 2.6 0 0 1-.923-.622 2.8 2.8 0 0 1-.592-.983 3.8 3.8 0 0 1-.207-1.29q0-.717.208-1.291.207-.574.592-.977.386-.402.924-.621.545-.219 1.22-.219m-.001 5.228q.816 0 1.214-.545.402-.55.403-1.568 0-1.019-.403-1.569-.396-.557-1.213-.557-.83 0-1.231.556-.403.55-.403 1.569t.402 1.569q.402.545 1.23.545m7.38-1.733a8 8 0 0 0-1.148.112 3.1 3.1 0 0 0-.758.219 1 1 0 0 0-.421.314.7.7 0 0 0-.124.402q0 .214.065.367.07.148.189.249a.9.9 0 0 0 .284.142q.166.042.361.042.498 0 .853-.183.362-.19.699-.545zm-3.374-2.558a3.46 3.46 0 0 1 2.44-.953q.52.001.923.172.408.167.681.474.278.308.42.734.148.42.148.936l-.001 3.836h-.569a.6.6 0 0 1-.278-.054q-.094-.058-.16-.231l-.124-.491a6 6 0 0 1-.456.373 3 3 0 0 1-.468.272q-.236.112-.515.166a3 3 0 0 1-.604.059q-.366 0-.686-.101a1.5 1.5 0 0 1-.545-.302 1.5 1.5 0 0 1-.367-.509 1.8 1.8 0 0 1-.13-.711q0-.35.184-.681.19-.331.616-.591.432-.267 1.131-.438.704-.171 1.734-.195v-.403q0-.65-.278-.971t-.816-.319a1.7 1.7 0 0 0-.616.094q-.249.088-.432.195a6 6 0 0 0-.326.202.56.56 0 0 1-.302.088.4.4 0 0 1-.225-.065.6.6 0 0 1-.148-.172zm6.102 5.199.001-6.038h.77q.26 0 .331.243l.083.527q.166-.19.343-.343a2.1 2.1 0 0 1 .818-.456q.236-.065.509-.065.29 0 .532.083t.427.237q.189.154.325.373.136.22.225.491.136-.313.343-.538.209-.226.462-.367.255-.143.539-.207.29-.072.586-.071.486 0 .865.154.384.154.645.45.266.29.402.717.136.426.136.97l-.001 3.843-1.273-.001.001-3.842q0-.64-.278-.959-.272-.326-.811-.326-.243 0-.456.083a1.1 1.1 0 0 0-.373.243q-.16.159-.254.402-.09.237-.089.557l-.001 3.842-1.273-.001.001-3.842q0-.663-.266-.971-.267-.314-.782-.314a1.24 1.24 0 0 0-.657.184 2.1 2.1 0 0 0-.556.491l-.002 4.452zm13.789-3.696q0-.32-.094-.592a1.3 1.3 0 0 0-.267-.48 1.2 1.2 0 0 0-.444-.319 1.4 1.4 0 0 0-.603-.119q-.693 0-1.09.396-.396.397-.503 1.113zm-3.037.781q.024.514.16.894.136.373.361.621.23.249.544.373.32.119.711.119.372 0 .645-.083a3.5 3.5 0 0 0 .473-.189q.202-.106.344-.189a.5.5 0 0 1 .26-.089.27.27 0 0 1 .237.118l.361.468q-.225.267-.509.45t-.604.302a3.4 3.4 0 0 1-.657.159 4 4 0 0 1-.657.053 3.2 3.2 0 0 1-1.167-.207 2.7 2.7 0 0 1-.929-.622 2.9 2.9 0 0 1-.615-1.012 4.1 4.1 0 0 1-.219-1.392q0-.627.196-1.172.201-.545.568-.947.373-.402.9-.633a2.9 2.9 0 0 1 1.202-.236q.557 0 1.03.183.474.179.817.527.343.35.533.859.195.503.195 1.148 0 .297-.066.397-.065.1-.236.101zm3.53-5.7-1.427 1.533a.56.56 0 0 1-.19.147.6.6 0 0 1-.237.042h-.757l.859-1.433a.6.6 0 0 1 .189-.219.6.6 0 0 1 .326-.071zm3.039 3.7q.283-.573.687-.899.402-.332.965-.331.195 0 .367.047a1 1 0 0 1 .308.13l-.089.959q-.024.101-.077.142a.2.2 0 0 1-.131.036q-.089 0-.254-.03a1.7 1.7 0 0 0-.349-.035q-.267 0-.474.076a1.2 1.2 0 0 0-.367.225 1.5 1.5 0 0 0-.284.361q-.124.213-.231.486l-.001 3.753h-1.273l.001-6.039h.74q.202 0 .279.077.076.072.106.255zm4.495-1.117-.002 6.038h-1.272l.001-6.039zm.214-1.824a.8.8 0 0 1-.071.326.9.9 0 0 1-.184.272.85.85 0 0 1-.935.184 1 1 0 0 1-.261-.184 1 1 0 0 1-.183-.272.8.8 0 0 1-.065-.326.83.83 0 0 1 .248-.598.8.8 0 0 1 .261-.183.787.787 0 0 1 .657 0 .8.8 0 0 1 .278.184q.118.112.184.266a.8.8 0 0 1 .071.331m5.653 3.009a.7.7 0 0 1-.112.119.25.25 0 0 1-.154.041.4.4 0 0 1-.213-.071 3 3 0 0 0-.261-.154 2 2 0 0 0-.361-.16 1.7 1.7 0 0 0-.533-.071q-.414 0-.728.148-.308.147-.521.426a1.9 1.9 0 0 0-.314.669 3.5 3.5 0 0 0-.101.882q0 .509.113.906a2 2 0 0 0 .319.669q.213.271.509.414.301.142.675.142.367 0 .598-.088t.385-.195.26-.196a.38.38 0 0 1 .237-.089q.154.001.237.119l.361.468a2.4 2.4 0 0 1-.486.45 3 3 0 0 1-.562.301 3 3 0 0 1-.616.16 4 4 0 0 1-.645.053q-.562 0-1.054-.207a2.6 2.6 0 0 1-.852-.61 3 3 0 0 1-.574-.977 3.9 3.9 0 0 1-.207-1.321q0-.669.19-1.237.19-.574.551-.988.366-.415.906-.645a3.1 3.1 0 0 1 1.243-.237q.657 0 1.154.214.503.213.894.604zm4.647 2.216a8 8 0 0 0-1.149.112 3 3 0 0 0-.758.219q-.29.13-.42.313a.7.7 0 0 0-.125.403q0 .213.065.367a.75.75 0 0 0 .19.249.9.9 0 0 0 .284.142q.166.04.361.041.498 0 .853-.183.36-.19.698-.544zm-3.374-2.559a3.46 3.46 0 0 1 2.439-.952q.52 0 .924.172.408.165.68.474.279.308.42.734.148.42.148.935l-.001 3.836h-.568a.6.6 0 0 1-.278-.053q-.096-.06-.16-.231l-.124-.491a6 6 0 0 1-.456.372 3 3 0 0 1-.468.273q-.237.112-.515.165-.273.06-.604.059-.367 0-.687-.101a1.5 1.5 0 0 1-.544-.302 1.5 1.5 0 0 1-.367-.509 1.8 1.8 0 0 1-.13-.71q0-.35.183-.681.19-.331.616-.592.432-.266 1.131-.438.705-.171 1.735-.195v-.402q0-.651-.278-.971-.279-.32-.817-.32-.367 0-.616.095-.248.088-.432.195a7 7 0 0 0-.326.201.56.56 0 0 1-.302.089.4.4 0 0 1-.224-.065.6.6 0 0 1-.148-.172zM41.062 143.04q0-.497.19-.935.189-.444.514-.77.327-.331.758-.521a2.3 2.3 0 0 1 .93-.189q.497 0 .935.189.438.19.764.521.326.326.515.77.19.438.19.935t-.19.936q-.19.432-.515.757a2.4 2.4 0 0 1-.764.515 2.3 2.3 0 0 1-.935.19q-.492 0-.93-.19a2.45 2.45 0 0 1-1.273-1.272 2.3 2.3 0 0 1-.189-.936m14.943-.663q.461 0 .81-.118.356-.119.587-.332a1.4 1.4 0 0 0 .355-.527q.118-.308.118-.686 0-.373-.118-.669a1.3 1.3 0 0 0-.343-.504 1.5 1.5 0 0 0-.587-.313 2.7 2.7 0 0 0-.822-.113h-1.267v3.262zm0-4.345q.834 0 1.444.195.615.195 1.012.551.403.35.598.846.195.492.196 1.09 0 .61-.208 1.118a2.4 2.4 0 0 1-.615.871q-.409.36-1.019.568-.603.201-1.408.201h-1.267v3.085h-1.386v-8.525zm7.997 4.825a1.8 1.8 0 0 0-.095-.592 1.3 1.3 0 0 0-.266-.48 1.2 1.2 0 0 0-.444-.32 1.5 1.5 0 0 0-.604-.118q-.693 0-1.09.397-.396.396-.502 1.113zm-3.037.781q.024.514.16.894.136.373.361.622.231.248.545.373.32.118.71.118.373 0 .645-.083a3.5 3.5 0 0 0 .474-.189q.202-.107.343-.19a.5.5 0 0 1 .26-.089q.154 0 .238.119l.36.467q-.225.267-.508.45-.285.184-.604.302a3.4 3.4 0 0 1-.657.16 4 4 0 0 1-.657.053q-.629 0-1.167-.207a2.7 2.7 0 0 1-.93-.621 2.9 2.9 0 0 1-.615-1.013q-.219-.603-.219-1.391 0-.627.196-1.172.2-.545.568-.947.372-.403.9-.634a2.9 2.9 0 0 1 1.201-.236q.557 0 1.03.183.474.177.817.527.344.35.533.858.195.504.196 1.149 0 .296-.066.396-.065.101-.236.101zm6.568-2.001q.285-.575.687-.9a1.47 1.47 0 0 1 .965-.331q.195 0 .367.047a1 1 0 0 1 .308.13l-.089.959q-.023.101-.077.142a.2.2 0 0 1-.13.036q-.09 0-.255-.03a1.7 1.7 0 0 0-.349-.035q-.266 0-.474.077a1.2 1.2 0 0 0-.367.225 1.5 1.5 0 0 0-.284.361q-.125.213-.23.485v3.754h-1.273v-6.039h.74q.201 0 .278.077.077.071.106.255zm6.74-.024a.3.3 0 0 1-.107.119.3.3 0 0 1-.148.035.5.5 0 0 1-.219-.059 6 6 0 0 0-.278-.142 2 2 0 0 0-.379-.136 1.8 1.8 0 0 0-.503-.065q-.237 0-.432.059a.9.9 0 0 0-.326.16.7.7 0 0 0-.272.539q0 .213.13.355.13.141.343.248.213.101.486.184.272.082.556.178t.557.219q.272.124.485.307.213.178.344.438.13.255.13.622 0 .427-.154.787t-.45.628a2.05 2.05 0 0 1-.74.414 3.1 3.1 0 0 1-1.006.148q-.315 0-.61-.059a3.6 3.6 0 0 1-.557-.148 3.3 3.3 0 0 1-.491-.237 2.6 2.6 0 0 1-.403-.296l.296-.485a.4.4 0 0 1 .13-.136.36.36 0 0 1 .202-.054.42.42 0 0 1 .243.083q.124.078.284.172.165.094.396.178.231.077.575.077.284 0 .491-.066.208-.07.343-.189a.8.8 0 0 0 .202-.266.8.8 0 0 0 .065-.326.55.55 0 0 0-.13-.379 1.1 1.1 0 0 0-.35-.254 3 3 0 0 0-.491-.19 22 22 0 0 1-.557-.177 7 7 0 0 1-.562-.219 2 2 0 0 1-.491-.314 1.5 1.5 0 0 1-.344-.468 1.6 1.6 0 0 1-.13-.675q0-.36.142-.687a1.7 1.7 0 0 1 .426-.574q.284-.249.693-.39.414-.148.953-.148.61 0 1.107.195.498.195.835.533zm4.174-1.189q.669 0 1.207.219.544.219.924.621.385.403.592.977t.207 1.291q0 .715-.207 1.29-.207.574-.592.983-.379.402-.924.621a3.2 3.2 0 0 1-1.207.219q-.675 0-1.22-.219a2.6 2.6 0 0 1-.923-.621 2.8 2.8 0 0 1-.592-.983 3.8 3.8 0 0 1-.208-1.29q0-.717.208-1.291.207-.574.592-.977.384-.402.923-.621.545-.219 1.22-.219m0 5.227q.816 0 1.213-.545.403-.55.403-1.569 0-1.017-.403-1.568-.397-.557-1.213-.557-.829 0-1.232.557-.402.55-.402 1.568t.402 1.569q.404.545 1.232.545m5.343-4.334q.195-.2.402-.361.215-.165.45-.284a2.36 2.36 0 0 1 1.084-.248q.496 0 .87.165.38.166.633.468.26.302.391.728.13.42.13.93v3.842h-1.266v-3.842q0-.61-.285-.948-.278-.337-.852-.337-.427 0-.793.195a2.8 2.8 0 0 0-.681.533v4.399H82.6v-6.039h.77q.26 0 .331.243zm8.673 2.599a8 8 0 0 0-1.148.113 3 3 0 0 0-.758.219q-.29.13-.42.314a.7.7 0 0 0-.125.402q0 .214.066.367a.7.7 0 0 0 .189.249q.125.094.284.142.165.041.361.041.498 0 .853-.183.36-.19.698-.545zm-3.374-2.557a3.46 3.46 0 0 1 2.439-.953q.52 0 .923.171.41.166.681.474.279.308.42.734a2.8 2.8 0 0 1 .148.935v3.837h-.568a.6.6 0 0 1-.278-.054q-.095-.058-.16-.231l-.124-.491a6 6 0 0 1-.456.373 3 3 0 0 1-.468.272q-.237.113-.515.166-.272.06-.604.059-.366 0-.686-.1a1.5 1.5 0 0 1-.545-.302 1.5 1.5 0 0 1-.367-.509 1.8 1.8 0 0 1-.13-.711q0-.35.183-.681.19-.331.616-.592.432-.266 1.13-.438.706-.171 1.735-.195v-.403q0-.65-.278-.97-.279-.32-.817-.32-.367 0-.616.095a2.6 2.6 0 0 0-.432.195q-.183.107-.325.201a.56.56 0 0 1-.302.089.4.4 0 0 1-.225-.065.6.6 0 0 1-.148-.172zm9.708.254a.3.3 0 0 1-.107.119.3.3 0 0 1-.148.035.5.5 0 0 1-.219-.059 6 6 0 0 0-.278-.142 2 2 0 0 0-.379-.136 1.8 1.8 0 0 0-.503-.065q-.237 0-.432.059a.9.9 0 0 0-.326.16.7.7 0 0 0-.272.539q0 .213.13.355.13.141.343.248.214.101.486.184t.556.178.557.219.485.307q.213.178.344.438.13.255.13.622 0 .427-.154.787t-.45.628a2.05 2.05 0 0 1-.74.414 3.1 3.1 0 0 1-1.006.148 3 3 0 0 1-.61-.059 3.6 3.6 0 0 1-.557-.148 3.3 3.3 0 0 1-.491-.237 2.6 2.6 0 0 1-.403-.296l.296-.485a.4.4 0 0 1 .13-.136.36.36 0 0 1 .202-.054.42.42 0 0 1 .243.083q.124.078.284.172.165.094.397.178.23.077.574.077.284 0 .491-.066.207-.07.343-.189a.8.8 0 0 0 .202-.266.8.8 0 0 0 .065-.326.55.55 0 0 0-.13-.379 1.1 1.1 0 0 0-.35-.254 3 3 0 0 0-.491-.19 22 22 0 0 1-.556-.177 7 7 0 0 1-.563-.219 2 2 0 0 1-.491-.314 1.5 1.5 0 0 1-.344-.468 1.6 1.6 0 0 1-.13-.675q0-.36.142-.687.148-.325.427-.574.284-.249.692-.39.414-.148.953-.148.61 0 1.107.195.498.195.835.533zm10.035 1.451h-2.35v2.48h-1.036v-2.48h-2.339v-.959h2.339v-2.475h1.036v2.475h2.35zm6.649 2.528v.965h-4.647v-.965h1.776v-5.34q0-.285.017-.58l-1.367 1.154a.5.5 0 0 1-.184.095.4.4 0 0 1-.171 0 .6.6 0 0 1-.142-.053.4.4 0 0 1-.095-.089l-.397-.557 2.57-2.208h1.036v7.578zm4.222.053q.384 0 .686-.107.302-.112.504-.307a1.3 1.3 0 0 0 .313-.474q.107-.273.107-.592 0-.39-.124-.675a1.2 1.2 0 0 0-.338-.468 1.3 1.3 0 0 0-.509-.278 2.1 2.1 0 0 0-.639-.095q-.343 0-.64.095a1.298 1.298 0 0 0-.852.746q-.118.284-.118.675 0 .32.106.592.107.272.308.474.207.195.509.307.301.107.687.107m0-6.731q-.35 0-.616.106a1.178 1.178 0 0 0-.693.705 1.5 1.5 0 0 0-.082.503q0 .267.071.521.077.255.236.456.166.195.433.314.265.118.651.118.384 0 .651-.118.267-.119.426-.314.166-.201.237-.456a1.8 1.8 0 0 0 .077-.521q0-.266-.089-.503a1.1 1.1 0 0 0-.26-.42 1.3 1.3 0 0 0-.432-.285 1.6 1.6 0 0 0-.61-.106m1.344 3.197q.786.243 1.178.769.396.528.396 1.309 0 .562-.213 1.018a2.2 2.2 0 0 1-.598.775 2.8 2.8 0 0 1-.923.498 3.9 3.9 0 0 1-1.184.171q-.651 0-1.19-.171a2.8 2.8 0 0 1-.918-.498 2.2 2.2 0 0 1-.598-.775 2.4 2.4 0 0 1-.213-1.018q0-.781.391-1.309.396-.526 1.184-.769-.64-.255-.965-.74-.32-.486-.32-1.167a2.11 2.11 0 0 1 .723-1.61q.349-.308.834-.479a3.1 3.1 0 0 1 1.072-.178q.586 0 1.065.178.486.171.829.479.35.302.539.717.195.414.195.893 0 .681-.325 1.167-.32.485-.959.74m9.041 1.805a8 8 0 0 0-1.149.113 3 3 0 0 0-.758.219q-.29.13-.42.314a.7.7 0 0 0-.124.402q0 .214.065.367.07.148.189.249.125.094.284.142.166.041.362.041.496 0 .852-.183.362-.19.699-.545zm-3.375-2.557a3.46 3.46 0 0 1 2.439-.953q.521 0 .924.171.408.166.681.474.277.308.42.734.148.42.148.935v3.837h-.568a.6.6 0 0 1-.279-.054q-.094-.058-.159-.231l-.125-.491a6 6 0 0 1-.456.373 3 3 0 0 1-.467.272q-.237.113-.515.166-.273.06-.604.059-.368 0-.687-.1a1.5 1.5 0 0 1-.545-.302 1.5 1.5 0 0 1-.367-.509 1.8 1.8 0 0 1-.13-.711q0-.35.184-.681.189-.331.615-.592.432-.266 1.131-.438.705-.171 1.735-.195v-.403q0-.65-.279-.97-.277-.32-.817-.32a1.7 1.7 0 0 0-.615.095q-.249.088-.432.195a6 6 0 0 0-.326.201.56.56 0 0 1-.302.089.4.4 0 0 1-.225-.065.6.6 0 0 1-.148-.172zm7.293-.042a4 4 0 0 1 .402-.361q.213-.165.45-.284a2.36 2.36 0 0 1 1.084-.248q.496 0 .87.165.379.166.633.468.26.302.391.728.13.42.13.93v3.842h-1.267v-3.842q0-.61-.284-.948-.278-.337-.852-.337-.427 0-.793.195a2.8 2.8 0 0 0-.681.533v4.399h-1.273v-6.039h.77q.26 0 .331.243zm2.048-2.717a.4.4 0 0 0 .296-.106q.107-.113.113-.367h.775q0 .307-.083.562a1.3 1.3 0 0 1-.237.432 1.03 1.03 0 0 1-.816.373q-.208 0-.391-.077a4 4 0 0 1-.344-.177 8 8 0 0 0-.301-.172.54.54 0 0 0-.267-.083.38.38 0 0 0-.296.118q-.106.113-.106.367h-.788q0-.307.083-.562.089-.255.237-.432.154-.184.361-.284a1.1 1.1 0 0 1 .462-.101q.213 0 .396.083.184.076.344.172l.296.177a.55.55 0 0 0 .266.077m6.01 1.824q.668 0 1.207.219.544.219.924.621.385.403.592.977t.207 1.291q0 .715-.207 1.29a2.8 2.8 0 0 1-.592.983 2.6 2.6 0 0 1-.924.621 3.2 3.2 0 0 1-1.207.219q-.675 0-1.22-.219a2.6 2.6 0 0 1-.924-.621 2.8 2.8 0 0 1-.592-.983 3.8 3.8 0 0 1-.207-1.29q0-.717.207-1.291.208-.574.592-.977.386-.402.924-.621.545-.219 1.22-.219m0 5.227q.816 0 1.213-.545.403-.55.403-1.569 0-1.017-.403-1.568-.397-.557-1.213-.557-.829 0-1.232.557-.402.55-.402 1.568t.402 1.569q.403.545 1.232.545m7.758-4.038a.3.3 0 0 1-.106.119.3.3 0 0 1-.148.035.5.5 0 0 1-.219-.059 6 6 0 0 0-.279-.142 2 2 0 0 0-.379-.136 1.7 1.7 0 0 0-.503-.065 1.5 1.5 0 0 0-.432.059 1 1 0 0 0-.326.16.7.7 0 0 0-.201.243.6.6 0 0 0-.071.296q0 .213.13.355.13.141.344.248.213.101.485.184.273.082.557.178t.556.219q.272.124.486.307.213.178.343.438.13.255.13.622 0 .427-.154.787-.153.361-.45.628a2.05 2.05 0 0 1-.74.414 3.1 3.1 0 0 1-1.006.148 3 3 0 0 1-.61-.059 3.6 3.6 0 0 1-.556-.148 3.3 3.3 0 0 1-.492-.237 2.6 2.6 0 0 1-.402-.296l.296-.485a.4.4 0 0 1 .13-.136.36.36 0 0 1 .201-.054q.124 0 .243.083.125.078.284.172.166.094.397.178.23.077.574.077.284 0 .491-.066a1 1 0 0 0 .344-.189.75.75 0 0 0 .201-.266.8.8 0 0 0 .065-.326.55.55 0 0 0-.13-.379 1.1 1.1 0 0 0-.349-.254 3 3 0 0 0-.492-.19 22 22 0 0 1-.556-.177 7 7 0 0 1-.563-.219 2 2 0 0 1-.491-.314 1.5 1.5 0 0 1-.343-.468 1.6 1.6 0 0 1-.131-.675q0-.36.143-.687.147-.325.426-.574a2 2 0 0 1 .692-.39q.415-.148.954-.148.609 0 1.107.195.497.195.834.533z"/></svg>