<svg xmlns="http://www.w3.org/2000/svg" width="432" height="432" fill="none"><circle cx="215.68" cy="215.68" r="215.68" fill="#24719C" fill-opacity=".84"/><circle cx="215.678" cy="215.678" r="148.764" fill="#4B98C3" fill-opacity=".77" stroke="#F7F7F7" stroke-width="6.083"/><circle cx="215.402" cy="215.402" r="75.488" fill="#7EC5EE" fill-opacity=".83" stroke="#F7F7F7" stroke-width="6.083"/><path fill="#fff" d="M189.6 212.196q0 2.587-1.437 3.96-1.439 1.371-4.712 1.371h-2.699v5.774h-3.053V206.71h5.752q3.273 0 4.712 1.349 1.437 1.328 1.437 4.137m-3.141-.022q0-.82-.177-1.349a1.8 1.8 0 0 0-.531-.885q-.353-.332-.929-.465-.575-.155-1.371-.155h-2.699v5.708h2.699q.774 0 1.327-.111.575-.133.951-.442.376-.333.553-.885.177-.554.177-1.416m16.577 4.513q0 1.858-.353 3.163-.333 1.305-1.062 2.146-.708.84-1.836 1.238-1.107.376-2.655.376t-2.676-.376q-1.129-.398-1.859-1.238-.73-.841-1.084-2.146-.353-1.306-.353-3.163 0-1.836.353-3.142.355-1.326 1.084-2.167t1.859-1.239q1.128-.398 2.676-.398t2.655.398q1.128.397 1.836 1.239.729.84 1.062 2.167.353 1.306.353 3.142m-8.959 0q0 1.305.155 2.19.177.862.531 1.393.376.531.951.752.599.222 1.416.222.819 0 1.394-.222.575-.22.929-.752.354-.53.509-1.393.177-.885.177-2.19t-.177-2.168q-.155-.885-.509-1.416a1.93 1.93 0 0 0-.929-.752q-.575-.221-1.394-.221-.84 0-1.416.221-.575.22-.951.752-.354.531-.531 1.416-.155.863-.155 2.168m11.484 6.614v-13.229l2.256-.132.244 2.499h.066q.62-1.305 1.593-1.968a3.84 3.84 0 0 1 2.234-.686q.818 0 1.393.177l-.177 2.853a3 3 0 0 0-.663-.154 4 4 0 0 0-.73-.067q-.73 0-1.35.288a3.1 3.1 0 0 0-1.083.774q-.442.509-.708 1.261a5 5 0 0 0-.266 1.681v6.703zm17.509 3.362v-2.477l.044-1.792-.044-.022q-1.305 1.128-3.318 1.128a5.9 5.9 0 0 1-2.146-.376 4.26 4.26 0 0 1-1.637-1.217q-.686-.818-1.061-2.101-.377-1.305-.377-3.142 0-6.901 5.287-6.901 2.5 0 3.849 1.548h.067l.354-1.305h1.792v16.635zm0-13.073q-.287-.51-.995-.863-.708-.376-1.659-.376-.82 0-1.394.199a1.85 1.85 0 0 0-.907.708q-.354.487-.509 1.327-.155.819-.155 2.102 0 1.238.177 2.079.177.84.531 1.349.377.51.929.73.576.222 1.35.222 1.15 0 1.836-.443.685-.442.796-.951zm16.678 5.154q0 2.345-1.327 3.583-1.327 1.218-4.093 1.217-2.764 0-4.092-1.239-1.305-1.26-1.305-3.561v-8.76h2.809v8.693q0 2.323 2.61 2.323 2.588 0 2.588-2.323v-8.693h2.81zm8.764 4.8q-3.363 0-4.911-1.77-1.526-1.791-1.526-5.375 0-3.186 1.393-4.911 1.416-1.725 4.314-1.725 1.216 0 2.212.376a4.16 4.16 0 0 1 1.703 1.128q.709.752 1.084 1.924.376 1.151.376 2.743 0 .31-.022.686 0 .354-.044.664h-8.096q.044 1.04.287 1.77.265.707.73 1.15t1.173.641q.708.2 1.659.199.995 0 1.858-.177a8 8 0 0 0 1.725-.553l.332 2.323q-.84.42-1.924.664-1.062.243-2.323.243m2.057-8.163q-.043-1.77-.774-2.499-.73-.73-1.991-.73-1.46 0-2.124.774-.64.752-.752 2.455zm.332-9.843-2.588 3.207h-2.146l1.46-3.207zM209.443 34.166q0 3.694-1.084 5.707-1.083 2.013-3.517 2.566l3.318 2.5-3.583.906-2.677-3.074q-1.77-.067-3.031-.598a5.1 5.1 0 0 1-2.057-1.592q-.819-1.062-1.194-2.655-.377-1.593-.377-3.76 0-2.235.399-3.85.397-1.613 1.261-2.654a4.95 4.95 0 0 1 2.212-1.549q1.349-.508 3.251-.508 1.903 0 3.23.508 1.35.487 2.19 1.549.862 1.04 1.261 2.655t.398 3.849m-3.185 0q0-1.725-.199-2.832-.2-1.128-.664-1.77a2.37 2.37 0 0 0-1.217-.884q-.752-.266-1.836-.266-1.061 0-1.814.266a2.34 2.34 0 0 0-1.194.907q-.465.641-.686 1.747-.2 1.106-.199 2.832 0 1.725.199 2.853.221 1.106.686 1.77.465.642 1.216.907.753.265 1.814.265 1.062 0 1.792-.265a2.45 2.45 0 0 0 1.217-.93q.465-.663.663-1.769.222-1.128.222-2.831m16.571 3.738q0 2.345-1.327 3.584-1.327 1.216-4.093 1.216-2.764 0-4.092-1.239-1.305-1.26-1.305-3.561v-8.76h2.809v8.694q0 2.322 2.61 2.322 2.589 0 2.589-2.322v-8.694h2.809zm8.764 4.8q-3.363 0-4.911-1.77-1.526-1.791-1.526-5.375 0-3.185 1.393-4.91 1.416-1.726 4.314-1.726 1.216 0 2.212.376a4.16 4.16 0 0 1 1.703 1.128q.709.753 1.084 1.925.376 1.15.376 2.743 0 .31-.022.685 0 .354-.044.664h-8.096q.044 1.04.287 1.77.266.708.73 1.15.465.443 1.173.642.708.198 1.659.199.995 0 1.858-.177a8 8 0 0 0 1.725-.553l.332 2.322q-.84.42-1.924.664-1.062.243-2.323.243m2.057-8.162q-.043-1.77-.774-2.5-.73-.73-1.991-.73-1.46 0-2.124.774-.64.753-.752 2.456zm.332-9.844-2.588 3.207h-2.146l1.46-3.207zM196.855 102.544a10 10 0 0 0-1.526-.42 9 9 0 0 0-1.836-.177q-1.217 0-2.057.287a2.8 2.8 0 0 0-1.372.929q-.531.664-.774 1.748t-.243 2.699q0 1.703.243 2.853t.774 1.836q.554.686 1.416.974t2.079.287q.973 0 1.792-.199a9 9 0 0 0 1.549-.509l.354 2.544a9.4 9.4 0 0 1-1.925.664 9 9 0 0 1-2.168.265q-3.738 0-5.53-2.123t-1.792-6.614q0-4.203 1.792-6.327 1.814-2.124 5.707-2.124 1.018 0 2.079.222 1.062.199 1.77.508zm13.863 6.857q0 1.859-.354 3.164-.332 1.305-1.062 2.145-.708.842-1.836 1.239-1.106.376-2.655.376t-2.676-.376q-1.129-.397-1.858-1.239-.73-.84-1.084-2.145t-.354-3.164q0-1.836.354-3.141.354-1.327 1.084-2.168.73-.84 1.858-1.238 1.128-.399 2.676-.399t2.655.399q1.128.398 1.836 1.238.73.841 1.062 2.168.354 1.305.354 3.141m-8.959 0q0 1.306.154 2.19.177.864.531 1.394.376.531.952.752.597.222 1.415.221.818 0 1.394-.221.575-.22.929-.752.354-.53.509-1.394.177-.884.177-2.19 0-1.305-.177-2.167-.155-.885-.509-1.416a1.93 1.93 0 0 0-.929-.752q-.576-.222-1.394-.221-.84 0-1.415.221a2.05 2.05 0 0 0-.952.752q-.354.531-.531 1.416-.154.862-.154 2.167m6.171-11.148-2.588 3.207h-2.146l1.46-3.207zm20.155 17.763v-8.65q0-1.194-.619-1.747-.62-.576-1.726-.575-.974 0-1.614.531-.642.53-.642 1.636v8.805h-2.809v-8.805q0-1.194-.642-1.681-.62-.509-1.615-.509a3 3 0 0 0-1.371.332q-.642.332-.996.885v9.778h-2.809v-13.251l2.013-.133.487 1.328q.685-.708 1.57-1.084a4.5 4.5 0 0 1 1.858-.398q2.544 0 3.562 1.902.641-.996 1.593-1.438.973-.465 2.167-.464.974 0 1.77.309.819.288 1.394.907.597.598.907 1.504.332.908.332 2.124v8.694zm17.002-6.615q0 1.859-.354 3.164-.331 1.305-1.062 2.145-.707.842-1.836 1.239-1.106.376-2.654.376-1.549 0-2.677-.376-1.128-.397-1.858-1.239-.73-.84-1.084-2.145t-.354-3.164q0-1.836.354-3.141.354-1.327 1.084-2.168a4.3 4.3 0 0 1 1.858-1.238q1.129-.399 2.677-.399t2.654.399q1.13.398 1.836 1.238.73.841 1.062 2.168.354 1.305.354 3.141m-8.959 0q0 1.306.155 2.19.177.864.531 1.394.376.531.951.752.597.222 1.416.221.818 0 1.394-.221.575-.22.929-.752.354-.53.508-1.394.177-.884.177-2.19 0-1.305-.177-2.167-.154-.885-.508-1.416a1.93 1.93 0 0 0-.929-.752q-.576-.222-1.394-.221-.84 0-1.416.221-.575.22-.951.752-.354.531-.531 1.416-.155.862-.155 2.167"/></svg>