<svg xmlns="http://www.w3.org/2000/svg" width="280" height="35" fill="none"><path fill="#0C6292" d="m123.526 21.123 2.131 5.365.342.918h.037l.343-.918 2.143-5.365h2.278v9.186h-1.886V25.63l.025-.992-.037-.012-.343.93-1.886 4.753h-1.372l-1.873-4.74-.343-.93-.025.011.012.992v4.667h-1.824v-9.186zm12.27 9.32q-1.923 0-2.817-.992-.882-1.005-.882-2.951 0-1.776.796-2.756.796-.992 2.474-.992 1.42 0 2.241.845.82.845.821 2.609 0 .209-.012.453t-.037.44h-4.323q.073.931.539 1.323.478.38 1.432.38 1.03 0 1.984-.367l.209 1.53a5.6 5.6 0 0 1-1.09.344q-.626.134-1.335.134m.894-4.605q-.025-.82-.368-1.163t-.943-.343q-.686 0-.992.355-.306.343-.367 1.151zm7.629 4.47-.184-.636-.036-.012a2.2 2.2 0 0 1-.821.6q-.49.195-1.163.196-1.445 0-2.144-.944-.698-.942-.698-2.951 0-1.837.698-2.83.699-.99 2.119-.991 1.066 0 1.813.673l.024-.024-.024-.98V20.78l1.898-.098v9.627zm-.416-5.302a1.27 1.27 0 0 0-.503-.405 1.65 1.65 0 0 0-.747-.159 1.8 1.8 0 0 0-.661.11.96.96 0 0 0-.441.368q-.171.257-.245.686a6 6 0 0 0-.073 1.04q0 .65.061 1.09.074.43.233.699a.96.96 0 0 0 .441.367q.269.11.673.11.527 0 .821-.195a1.3 1.3 0 0 0 .441-.43zm3.671 5.303v-7.373l1.948-.086v7.459zm2.058-9.027q0 .405-.257.613-.257.195-.821.196-.551 0-.82-.172-.27-.184-.27-.637 0-.82 1.09-.82.564 0 .821.208.257.209.257.612m5.699 8.316-.037-.012a2.3 2.3 0 0 1-.857.625q-.515.22-1.151.22-1.053 0-1.678-.6-.625-.612-.625-1.862 0-.514.172-.943.184-.428.514-.722.343-.306.833-.478a3.4 3.4 0 0 1 1.127-.171q.416 0 .771.06.355.05.649.148v-.429q0-.563-.318-.82-.318-.27-1.09-.27-.612 0-1.078.098a6 6 0 0 0-.967.306l-.16-1.518a5.8 5.8 0 0 1 1.188-.368 7 7 0 0 1 1.36-.122q.82 0 1.384.184.563.172.906.538.355.368.502.931.159.564.159 1.323v4.593h-1.457zm-.282-2.474a1.8 1.8 0 0 0-.404-.11 3.7 3.7 0 0 0-.649-.049q-1.237 0-1.237.98 0 .551.294.771.294.21.759.209.246 0 .466-.062a1.5 1.5 0 0 0 .392-.195q.171-.123.269-.27a.6.6 0 0 0 .11-.343z"/><path stroke="url(#a)" stroke-linecap="round" stroke-width="7.654" d="M4 8.486h272"/><circle cx="140.326" cy="8.198" r="7.654" fill="#0C6292" transform="rotate(.427 140.326 8.198)"/><defs><linearGradient id="a" x1="42.704" x2="580.915" y1="7.633" y2="9.191" gradientUnits="userSpaceOnUse"><stop stop-color="#00B0CA"/><stop offset=".7" stop-color="#00C5E2" stop-opacity="0"/></linearGradient></defs></svg>