<svg xmlns="http://www.w3.org/2000/svg" width="287" height="35" fill="none"><path fill="#0C6292" d="M245.492 28.52h-3.331l-.515 1.789h-2.18l3.172-9.186h2.462l3.209 9.186h-2.303zm-1.911-4.874-.918 3.148h2.339l-.882-3.148-.245-.967h-.036zm5.712 6.663v-9.541l1.923-.086v9.627zm5.826-6.001v3.796q0 .429.22.625.22.195.662.196.147 0 .318-.025.171-.024.27-.061l.11 1.384q-.196.085-.539.147-.344.06-.735.061-1.114 0-1.665-.6-.54-.6-.539-1.666v-3.857h-.833v-1.421h.918l.319-1.678 1.494-.135v1.813h1.653v1.42zm6.693 5.29-.037-.012q-.344.405-.857.625-.514.22-1.152.22-1.053 0-1.678-.6-.624-.612-.624-1.862 0-.514.171-.943.184-.428.515-.722.342-.306.832-.478a3.4 3.4 0 0 1 1.127-.171q.417 0 .772.06.355.05.649.148v-.429q0-.563-.319-.82-.318-.27-1.09-.27-.612 0-1.077.098a6 6 0 0 0-.968.306l-.159-1.518a5.8 5.8 0 0 1 1.188-.368 7 7 0 0 1 1.359-.122q.821 0 1.384.184.564.172.907.538.355.368.502.931.159.564.159 1.323v4.593h-1.457zm-.282-2.474a2 2 0 0 0-.404-.11 3.7 3.7 0 0 0-.649-.049q-1.237 0-1.237.98 0 .551.294.771.294.21.759.209.245 0 .465-.062.22-.074.392-.195.172-.123.27-.27a.6.6 0 0 0 .11-.343zm8.267.858q0 .55-.159 1.016a2 2 0 0 1-.502.784q-.343.318-.882.502-.539.172-1.286.172-.673 0-1.273-.135a3.8 3.8 0 0 1-1.054-.38l.196-1.567q.466.27 1.054.404.587.122 1.065.122.575 0 .821-.208a.66.66 0 0 0 .257-.539.5.5 0 0 0-.257-.453 2.6 2.6 0 0 0-.637-.294 17 17 0 0 0-.833-.27 3.6 3.6 0 0 1-.821-.391 2.15 2.15 0 0 1-.636-.637q-.258-.404-.258-1.053 0-.502.172-.919.172-.429.514-.723.356-.306.882-.477.526-.172 1.249-.172.564 0 1.102.11.54.099 1.005.295l-.159 1.555a4.3 4.3 0 0 0-1.017-.282 5.6 5.6 0 0 0-.968-.098q-.465 0-.722.172a.53.53 0 0 0-.245.453.5.5 0 0 0 .245.44q.257.148.637.27t.808.257q.441.135.821.38.38.232.624.637.258.392.257 1.029"/><path stroke="url(#a)" stroke-linecap="round" stroke-width="7.654" d="M4 8h279"/><ellipse cx="7.851" cy="7.655" fill="#0C6292" rx="7.851" ry="7.655" transform="rotate(.413 55.182 34121.262)skewX(-.022)"/><defs><linearGradient id="a" x1="43.7" x2="595.762" y1="7.147" y2="8.785" gradientUnits="userSpaceOnUse"><stop stop-color="#00B0CA"/><stop offset=".7" stop-color="#00C5E2" stop-opacity="0"/></linearGradient></defs></svg>