<svg xmlns="http://www.w3.org/2000/svg" width="578" height="303" fill="none"><path fill="#484941" d="M150.045 80.488a3 3 0 0 0 1.184-.224q.528-.224.888-.624.368-.4.56-.96.192-.568.192-1.256V70.48h1.864v6.944a5.3 5.3 0 0 1-.328 1.88 4.3 4.3 0 0 1-.928 1.496 4.4 4.4 0 0 1-1.48.984q-.864.352-1.952.352t-1.96-.352a4.4 4.4 0 0 1-1.472-.984 4.3 4.3 0 0 1-.936-1.496 5.4 5.4 0 0 1-.32-1.88V70.48h1.872v6.936q0 .688.192 1.256.192.56.552.968.36.4.88.624.528.225 1.192.224m11.477-5.168a.43.43 0 0 1-.144.16.4.4 0 0 1-.2.048.7.7 0 0 1-.296-.08 8 8 0 0 0-.376-.192 3 3 0 0 0-.512-.184 2.3 2.3 0 0 0-.68-.088q-.32 0-.584.08-.257.072-.44.216a.94.94 0 0 0-.272.328.85.85 0 0 0-.096.4.68.68 0 0 0 .176.48q.176.192.464.336.288.135.656.248t.752.24q.383.128.752.296.368.167.656.416.288.24.464.592.176.345.176.84 0 .576-.208 1.064a2.4 2.4 0 0 1-.608.848q-.4.36-1 .56-.592.2-1.36.2-.425 0-.824-.08a5 5 0 0 1-.752-.2 4.5 4.5 0 0 1-.664-.32 3.6 3.6 0 0 1-.544-.4l.4-.656a.49.49 0 0 1 .448-.256q.168 0 .328.112.168.105.384.232.224.127.536.24.312.104.776.104.384 0 .664-.088a1.4 1.4 0 0 0 .464-.256q.183-.16.272-.36a1.1 1.1 0 0 0 .088-.44.75.75 0 0 0-.176-.512 1.5 1.5 0 0 0-.472-.344 4 4 0 0 0-.664-.256 29 29 0 0 1-.752-.24 8 8 0 0 1-.76-.296 2.7 2.7 0 0 1-.664-.424 2 2 0 0 1-.464-.632q-.176-.376-.176-.912 0-.488.192-.928.2-.44.576-.776a2.8 2.8 0 0 1 .936-.528q.56-.2 1.288-.2.824 0 1.496.264t1.128.72zm8.992-1.48V82h-1.04q-.344 0-.44-.328l-.128-.76a5 5 0 0 1-.544.496 3.193 3.193 0 0 1-1.288.632q-.36.088-.776.088a2.9 2.9 0 0 1-1.184-.224 2.4 2.4 0 0 1-.864-.632 2.8 2.8 0 0 1-.52-.976 4.3 4.3 0 0 1-.176-1.264V73.84h1.72v5.192q0 .825.376 1.28.384.456 1.16.456.568 0 1.056-.256.496-.264.928-.72V73.84zm6.449 4.592q-.92.032-1.552.152-.633.112-1.024.296-.393.176-.568.424a.95.95 0 0 0-.168.544q0 .288.088.496.096.2.256.336.168.128.384.192.224.056.488.056.672 0 1.152-.248.488-.255.944-.736zm-4.56-3.456q1.383-1.288 3.296-1.288.703 0 1.248.232.552.225.92.64.376.416.568.992.2.568.2 1.264V82h-.768q-.249 0-.376-.072-.129-.08-.216-.312l-.168-.664a8 8 0 0 1-.616.504 4 4 0 0 1-.632.368 3 3 0 0 1-.696.224 4 4 0 0 1-.816.08q-.496 0-.928-.136a2.1 2.1 0 0 1-.736-.408 2 2 0 0 1-.496-.688 2.4 2.4 0 0 1-.176-.96q0-.472.248-.92.255-.448.832-.8.583-.36 1.528-.592.952-.232 2.344-.264v-.544q0-.88-.376-1.312t-1.104-.432q-.496 0-.832.128-.336.12-.584.264a8 8 0 0 0-.44.272.76.76 0 0 1-.408.12.52.52 0 0 1-.304-.088.8.8 0 0 1-.2-.232zm9.871.376q.384-.776.928-1.216.543-.448 1.304-.448.264 0 .496.064.231.056.416.176l-.12 1.296q-.032.136-.104.192a.3.3 0 0 1-.176.048q-.12 0-.344-.04a2.3 2.3 0 0 0-.472-.048q-.36 0-.64.104-.273.104-.496.304a2.1 2.1 0 0 0-.384.488q-.168.287-.312.656V82h-1.72v-8.16h1q.271 0 .376.104.103.096.144.344zm6.074-1.512V82h-1.72v-8.16zm.288-2.464q0 .232-.096.44a1.2 1.2 0 0 1-.248.368 1.3 1.3 0 0 1-.376.248 1.1 1.1 0 0 1-.448.088q-.233 0-.44-.088a1.3 1.3 0 0 1-.352-.248 1.3 1.3 0 0 1-.248-.368 1.1 1.1 0 0 1-.088-.44q0-.24.088-.448.096-.208.248-.36.151-.16.352-.248.207-.096.44-.096.24 0 .448.096.216.088.376.248.16.152.248.36.096.208.096.448m5.401 2.336q.905 0 1.632.296.737.296 1.248.84.52.544.8 1.32t.28 1.744-.28 1.744a3.8 3.8 0 0 1-.8 1.328 3.45 3.45 0 0 1-1.248.84 4.3 4.3 0 0 1-1.632.296 4.4 4.4 0 0 1-1.648-.296 3.6 3.6 0 0 1-1.248-.84 3.8 3.8 0 0 1-.8-1.328q-.28-.776-.28-1.744t.28-1.744.8-1.32a3.6 3.6 0 0 1 1.248-.84 4.4 4.4 0 0 1 1.648-.296m0 7.064q1.104 0 1.64-.736.544-.744.544-2.12t-.544-2.12q-.536-.752-1.64-.752-1.12 0-1.664.752-.544.744-.544 2.12t.544 2.12q.544.736 1.664.736m16.765-.08V82h-6.28v-1.304h2.4V73.48q0-.384.024-.784l-1.848 1.56a.65.65 0 0 1-.248.128.6.6 0 0 1-.232 0 .8.8 0 0 1-.192-.072.6.6 0 0 1-.128-.12l-.536-.752 3.472-2.984h1.4v10.24zM39.687 126.04h-3.592V136H34.23v-9.96h-3.6v-1.56h9.056zm3.846 6.392a10.4 10.4 0 0 0-1.552.152q-.632.112-1.024.296-.391.176-.568.424a.95.95 0 0 0-.168.544q0 .288.088.496.096.2.256.336.168.127.384.192.224.056.488.056.672 0 1.152-.248.488-.256.944-.736zm-4.56-3.456q1.384-1.288 3.296-1.288.704 0 1.248.232.552.224.92.64.375.416.568.992.2.568.2 1.264V136h-.768q-.247 0-.376-.072-.127-.08-.216-.312l-.168-.664a8 8 0 0 1-.616.504 4 4 0 0 1-.632.368 3 3 0 0 1-.696.224 4 4 0 0 1-.816.08q-.495 0-.928-.136a2.1 2.1 0 0 1-.736-.408 2 2 0 0 1-.496-.688 2.4 2.4 0 0 1-.176-.96q0-.472.248-.92.256-.448.832-.8.585-.36 1.528-.592.952-.232 2.344-.264v-.544q0-.88-.376-1.312t-1.104-.432q-.495 0-.832.128a3.5 3.5 0 0 0-.584.264 9 9 0 0 0-.44.272.76.76 0 0 1-.408.12.52.52 0 0 1-.304-.088.8.8 0 0 1-.2-.232zm9.87.376q.385-.776.929-1.216.544-.448 1.304-.448.264 0 .496.064.231.056.416.176l-.12 1.296q-.032.137-.104.192a.3.3 0 0 1-.176.048q-.12 0-.344-.04a2.3 2.3 0 0 0-.472-.048q-.36 0-.64.104a1.6 1.6 0 0 0-.496.304 2.1 2.1 0 0 0-.384.488 5 5 0 0 0-.312.656V136h-1.72v-8.16h1q.271 0 .376.104.104.096.144.344zM58.198 131a2.4 2.4 0 0 0-.128-.8q-.12-.377-.36-.648a1.6 1.6 0 0 0-.6-.432 1.95 1.95 0 0 0-.816-.16q-.936 0-1.472.536T54.14 131zm-4.104 1.056q.032.696.216 1.208.184.504.488.84.312.336.736.504.432.16.96.16a3 3 0 0 0 .872-.112q.368-.12.64-.256.272-.144.464-.256a.7.7 0 0 1 .352-.12q.208 0 .32.16l.488.632q-.304.36-.688.608a4.2 4.2 0 0 1-.816.408 4.6 4.6 0 0 1-.888.216 6 6 0 0 1-.888.072q-.848 0-1.576-.28a3.6 3.6 0 0 1-1.256-.84 3.9 3.9 0 0 1-.832-1.368q-.297-.816-.296-1.88 0-.847.264-1.584.271-.736.768-1.28a3.6 3.6 0 0 1 1.216-.856 4 4 0 0 1 1.624-.32q.752 0 1.392.248.64.24 1.104.712t.72 1.16q.264.68.264 1.552 0 .4-.088.536-.089.136-.32.136zm11.612.376q-.92.032-1.552.152-.633.112-1.024.296-.391.176-.568.424a.95.95 0 0 0-.168.544q0 .288.088.496.097.2.256.336.168.127.384.192.224.056.488.056.672 0 1.152-.248.488-.256.944-.736zm-4.56-3.456q1.383-1.288 3.296-1.288.704 0 1.248.232.552.224.92.64.376.416.568.992.2.568.2 1.264V136h-.768q-.247 0-.376-.072-.128-.08-.216-.312l-.168-.664a8 8 0 0 1-.616.504 4 4 0 0 1-.632.368 3 3 0 0 1-.696.224q-.367.08-.816.08-.495 0-.928-.136a2.1 2.1 0 0 1-.736-.408 2 2 0 0 1-.496-.688 2.4 2.4 0 0 1-.176-.96q0-.472.248-.92.255-.448.832-.8.584-.36 1.528-.592.952-.232 2.344-.264v-.544q0-.88-.376-1.312t-1.104-.432q-.495 0-.832.128a3.5 3.5 0 0 0-.584.264 9 9 0 0 0-.44.272.76.76 0 0 1-.408.12.52.52 0 0 1-.304-.088.8.8 0 0 1-.2-.232zm19.4 5.72V136h-6.28v-1.304h2.4v-7.216q0-.384.023-.784l-1.848 1.56a.65.65 0 0 1-.248.128.6.6 0 0 1-.232 0 .8.8 0 0 1-.192-.072.5.5 0 0 1-.128-.12l-.536-.752 3.472-2.984h1.4v10.24z"/><path fill="#31312C" d="M393.067 125.656q.12-.832.464-1.456.344-.632.856-1.048a3.5 3.5 0 0 1 1.184-.632 4.7 4.7 0 0 1 1.44-.216 4.2 4.2 0 0 1 1.44.232q.648.224 1.104.632.456.4.696.944.248.544.248 1.176 0 .552-.128.976a2.3 2.3 0 0 1-.352.728 2.1 2.1 0 0 1-.576.528 3.6 3.6 0 0 1-.776.36q1.04.328 1.552 1t.512 1.688q0 .864-.32 1.528a3.3 3.3 0 0 1-.864 1.12 3.8 3.8 0 0 1-1.264.68 4.8 4.8 0 0 1-1.512.232q-.872 0-1.52-.2a3.3 3.3 0 0 1-1.128-.592 3.6 3.6 0 0 1-.816-.96 6.5 6.5 0 0 1-.576-1.312l.872-.36q.344-.144.64-.072a.61.61 0 0 1 .44.32q.144.28.312.552.176.272.416.488.24.208.56.344.328.128.776.128.504 0 .88-.16.377-.168.624-.432.256-.264.376-.584a1.8 1.8 0 0 0 .128-.656q0-.416-.088-.752a1.12 1.12 0 0 0-.368-.584q-.28-.24-.808-.376-.52-.136-1.4-.136v-1.408q.728-.008 1.208-.136t.76-.352q.288-.232.4-.552t.112-.704q0-.816-.456-1.24t-1.216-.424q-.352 0-.648.104a1.77 1.77 0 0 0-1.168 1.224q-.137.368-.36.488-.216.12-.616.056zm16.265 6.504q.321 0 .504.184a.61.61 0 0 1 .192.472V134h-7.936v-.656q0-.2.08-.416.089-.224.272-.4l3.512-3.52q.44-.448.784-.856.353-.408.584-.808.232-.4.352-.808.128-.416.128-.872 0-.416-.12-.728a1.4 1.4 0 0 0-.344-.536 1.3 1.3 0 0 0-.528-.32 2 2 0 0 0-.688-.112q-.351 0-.656.104a1.7 1.7 0 0 0-.528.28 1.7 1.7 0 0 0-.392.416q-.159.24-.24.528-.135.368-.352.488t-.624.056l-1.04-.184q.12-.832.464-1.456.345-.632.856-1.048a3.5 3.5 0 0 1 1.184-.632 4.7 4.7 0 0 1 1.44-.216q.801 0 1.464.24a3.2 3.2 0 0 1 1.136.664q.472.432.736 1.04t.264 1.352q0 .64-.192 1.184a4.6 4.6 0 0 1-.504 1.04 6.7 6.7 0 0 1-.736.96q-.423.464-.888.944l-2.608 2.664a5.4 5.4 0 0 1 .744-.168q.376-.064.712-.064zm7.418-4.768a.6.6 0 0 1-.168.184.5.5 0 0 1-.224.048.7.7 0 0 1-.312-.08 10 10 0 0 0-.376-.176 3 3 0 0 0-.496-.184 2.3 2.3 0 0 0-.648-.08q-.584 0-.92.248a.77.77 0 0 0-.328.648q0 .264.168.448.175.175.456.312.288.136.648.248.36.104.728.232.375.128.736.296.36.16.64.416.288.248.456.6.176.352.176.848 0 .592-.216 1.096a2.4 2.4 0 0 1-.624.864q-.417.36-1.032.568-.609.2-1.408.2-.424 0-.832-.08a4.477 4.477 0 0 1-1.464-.528 3.4 3.4 0 0 1-.552-.4l.456-.752a.64.64 0 0 1 .208-.208.6.6 0 0 1 .304-.072q.183 0 .344.104.168.104.384.224t.504.224q.296.104.744.104.351 0 .6-.08.255-.088.416-.224a.8.8 0 0 0 .24-.312.9.9 0 0 0 .08-.376.66.66 0 0 0-.176-.472 1.4 1.4 0 0 0-.456-.32 4 4 0 0 0-.648-.24q-.36-.112-.744-.24a8 8 0 0 1-.744-.296 2.7 2.7 0 0 1-.648-.44 2 2 0 0 1-.456-.648q-.168-.384-.168-.928 0-.504.2-.96t.584-.792q.392-.344.968-.544a4 4 0 0 1 1.344-.208q.848 0 1.544.28a3.5 3.5 0 0 1 1.16.736zM503.86 129.64v-3.784q0-.536.072-1.184l-3.592 4.968zm3.176 0v1.144q0 .16-.104.28-.104.112-.296.112h-1.056V134h-1.72v-2.824h-4.88a.55.55 0 0 1-.352-.12.56.56 0 0 1-.192-.312l-.208-1 5.48-7.32h1.872v7.216zm6.105 0v-3.784q0-.536.072-1.184l-3.592 4.968zm3.176 0v1.144a.4.4 0 0 1-.104.28q-.104.112-.296.112h-1.056V134h-1.72v-2.824h-4.88a.55.55 0 0 1-.352-.12.56.56 0 0 1-.192-.312l-.208-1 5.48-7.32h1.872v7.216zm1.098 3.272q0-.248.088-.472.096-.224.256-.384a1.2 1.2 0 0 1 .384-.256q.224-.096.48-.096.255 0 .472.096a1.21 1.21 0 0 1 .648 1.592 1.2 1.2 0 0 1-.264.376 1.1 1.1 0 0 1-.384.248 1.15 1.15 0 0 1-.472.096q-.256 0-.48-.096a1.1 1.1 0 0 1-.384-.248 1.2 1.2 0 0 1-.256-.376 1.3 1.3 0 0 1-.088-.48m3.972-7.256q.12-.832.464-1.456.345-.632.856-1.048a3.5 3.5 0 0 1 1.184-.632 4.7 4.7 0 0 1 1.44-.216q.801 0 1.44.232.648.224 1.104.632.456.4.696.944.249.544.248 1.176 0 .552-.128.976a2.3 2.3 0 0 1-.352.728 2.1 2.1 0 0 1-.576.528 3.6 3.6 0 0 1-.776.36q1.04.328 1.552 1 .513.672.512 1.688 0 .864-.32 1.528a3.3 3.3 0 0 1-.864 1.12 3.8 3.8 0 0 1-1.264.68 4.8 4.8 0 0 1-1.512.232q-.872 0-1.52-.2a3.3 3.3 0 0 1-1.128-.592 3.6 3.6 0 0 1-.816-.96 6.5 6.5 0 0 1-.576-1.312l.872-.36q.345-.144.64-.072.305.064.44.32.144.28.312.552.177.272.416.488.24.208.56.344.329.128.776.128.505 0 .88-.16.376-.168.624-.432.256-.264.376-.584a1.8 1.8 0 0 0 .128-.656q0-.416-.088-.752a1.1 1.1 0 0 0-.368-.584q-.28-.24-.808-.376-.52-.136-1.4-.136v-1.408q.729-.008 1.208-.136.48-.128.76-.352.289-.232.4-.552t.112-.704q0-.816-.456-1.24t-1.216-.424q-.351 0-.648.104a1.77 1.77 0 0 0-1.168 1.224q-.135.368-.36.488-.216.12-.616.056zm14.402 1.736a.6.6 0 0 1-.168.184.5.5 0 0 1-.224.048.7.7 0 0 1-.312-.08 10 10 0 0 0-.376-.176 3 3 0 0 0-.496-.184 2.3 2.3 0 0 0-.648-.08q-.585 0-.92.248a.77.77 0 0 0-.328.648q0 .264.168.448.175.175.456.312.288.136.648.248.36.104.728.232.375.128.736.296.36.16.64.416.288.248.456.6.176.352.176.848 0 .592-.216 1.096a2.4 2.4 0 0 1-.624.864q-.417.36-1.032.568-.609.2-1.408.2-.424 0-.832-.08a4.477 4.477 0 0 1-1.464-.528 3.4 3.4 0 0 1-.552-.4l.456-.752a.64.64 0 0 1 .208-.208.6.6 0 0 1 .304-.072q.183 0 .344.104.168.104.384.224t.504.224q.296.104.744.104.351 0 .6-.08.255-.088.416-.224a.8.8 0 0 0 .24-.312.9.9 0 0 0 .08-.376.66.66 0 0 0-.176-.472 1.4 1.4 0 0 0-.456-.32 4 4 0 0 0-.648-.24q-.36-.112-.744-.24a8 8 0 0 1-.744-.296 2.7 2.7 0 0 1-.648-.44 2 2 0 0 1-.456-.648q-.168-.384-.168-.928 0-.504.2-.96t.584-.792q.392-.344.968-.544a4 4 0 0 1 1.344-.208q.848 0 1.544.28a3.5 3.5 0 0 1 1.16.736zM503.86 178.64v-3.784q0-.536.072-1.184l-3.592 4.968zm3.176 0v1.144q0 .16-.104.28-.104.112-.296.112h-1.056V183h-1.72v-2.824h-4.88a.55.55 0 0 1-.352-.12.56.56 0 0 1-.192-.312l-.208-1 5.48-7.32h1.872v7.216zm3.049-3.736q0 .968.496 1.48.504.504 1.424.504.48 0 .856-.152a1.8 1.8 0 0 0 .632-.416q.257-.264.384-.624.136-.36.136-.776a2.3 2.3 0 0 0-.144-.84 1.7 1.7 0 0 0-.408-.632 1.8 1.8 0 0 0-.632-.392 2.2 2.2 0 0 0-.792-.136q-.447 0-.808.152-.36.144-.616.408a1.8 1.8 0 0 0-.392.632 2.2 2.2 0 0 0-.136.792m2.624 3.608a10 10 0 0 0 .488-.648q-.4.256-.88.392a4 4 0 0 1-1.008.128q-.6 0-1.176-.208a3 3 0 0 1-1.024-.624 3.3 3.3 0 0 1-.728-1.04q-.272-.624-.272-1.456 0-.776.288-1.456a3.67 3.67 0 0 1 2.056-2 4.2 4.2 0 0 1 1.608-.296q.888 0 1.592.28.713.28 1.208.784.504.504.768 1.208.273.704.272 1.544 0 .536-.096 1.016a5.4 5.4 0 0 1-.256.928 6.4 6.4 0 0 1-.408.864q-.24.424-.536.84l-2.648 3.776q-.135.192-.408.328a1.4 1.4 0 0 1-.616.128h-1.816zm4.706 3.4q0-.248.088-.472.096-.224.256-.384a1.2 1.2 0 0 1 .384-.256q.224-.096.48-.096.255 0 .472.096a1.21 1.21 0 0 1 .648 1.592 1.2 1.2 0 0 1-.264.376 1.1 1.1 0 0 1-.384.248 1.15 1.15 0 0 1-.472.096q-.256 0-.48-.096a1.1 1.1 0 0 1-.384-.248 1.2 1.2 0 0 1-.256-.376 1.3 1.3 0 0 1-.088-.48m7.284-6.28-.4.496a3.531 3.531 0 0 1 1.56-.352q.657 0 1.272.216.625.216 1.096.656a3.2 3.2 0 0 1 .76 1.08q.288.648.288 1.512 0 .808-.296 1.52a3.74 3.74 0 0 1-2.128 2.064 4.4 4.4 0 0 1-1.664.304q-.927 0-1.664-.296a3.65 3.65 0 0 1-1.256-.824 3.7 3.7 0 0 1-.8-1.28 4.9 4.9 0 0 1-.272-1.664q0-.816.328-1.672.336-.864 1.032-1.792l2.76-3.704q.144-.192.416-.328.28-.136.64-.136h1.76zm.448 5.88q.473 0 .864-.16.4-.16.68-.448.288-.288.448-.672.16-.392.16-.848 0-.496-.152-.888a1.8 1.8 0 0 0-.432-.672 1.8 1.8 0 0 0-.672-.424 2.5 2.5 0 0 0-.864-.144q-.471 0-.856.16a1.9 1.9 0 0 0-.656.448 2 2 0 0 0-.424.672 2.3 2.3 0 0 0-.152.832q0 .48.128.88.137.392.392.672.264.28.648.44.384.152.888.152m10.642-5.12a.6.6 0 0 1-.168.184.5.5 0 0 1-.224.048.7.7 0 0 1-.312-.08 10 10 0 0 0-.376-.176 3 3 0 0 0-.496-.184 2.3 2.3 0 0 0-.648-.08q-.585 0-.92.248a.77.77 0 0 0-.328.648q0 .264.168.448.175.175.456.312.288.136.648.248.36.104.728.232.375.128.736.296.36.16.64.416.288.248.456.6.176.352.176.848 0 .592-.216 1.096a2.4 2.4 0 0 1-.624.864q-.417.36-1.032.568-.609.2-1.408.2-.424 0-.832-.08a4.477 4.477 0 0 1-1.464-.528 3.4 3.4 0 0 1-.552-.4l.456-.752a.64.64 0 0 1 .208-.208.6.6 0 0 1 .304-.072q.183 0 .344.104.168.104.384.224t.504.224q.296.104.744.104.351 0 .6-.08.255-.088.416-.224a.8.8 0 0 0 .24-.312.9.9 0 0 0 .08-.376.66.66 0 0 0-.176-.472 1.4 1.4 0 0 0-.456-.32 4 4 0 0 0-.648-.24q-.36-.113-.744-.24a8 8 0 0 1-.744-.296 2.7 2.7 0 0 1-.648-.44 2 2 0 0 1-.456-.648q-.168-.384-.168-.928 0-.504.2-.96t.584-.792q.392-.344.968-.544a4 4 0 0 1 1.344-.208q.848 0 1.544.28a3.5 3.5 0 0 1 1.16.736zM506.012 232.16q.32 0 .504.184a.61.61 0 0 1 .192.472V234h-7.936v-.656q0-.2.08-.416.088-.224.272-.4l3.512-3.52q.44-.448.784-.856.352-.408.584-.808t.352-.808q.128-.416.128-.872 0-.416-.12-.728a1.4 1.4 0 0 0-.344-.536 1.3 1.3 0 0 0-.528-.32 2 2 0 0 0-.688-.112q-.352 0-.656.104a1.7 1.7 0 0 0-.528.28 1.7 1.7 0 0 0-.392.416q-.16.24-.24.528-.136.368-.352.488t-.624.056l-1.04-.184q.12-.832.464-1.456.344-.632.856-1.048a3.5 3.5 0 0 1 1.184-.632 4.7 4.7 0 0 1 1.44-.216q.8 0 1.464.24.664.232 1.136.664t.736 1.04.264 1.352q0 .64-.192 1.184a4.7 4.7 0 0 1-.504 1.04 6.7 6.7 0 0 1-.736.96 49 49 0 0 1-.888.944l-2.608 2.664a5.4 5.4 0 0 1 .744-.168q.376-.064.712-.064zm10.313-3.944q0 1.512-.328 2.632-.32 1.112-.896 1.84a3.6 3.6 0 0 1-1.352 1.088 4 4 0 0 1-1.68.352 4 4 0 0 1-1.68-.352 3.66 3.66 0 0 1-1.336-1.088q-.567-.728-.888-1.84-.32-1.12-.32-2.632 0-1.52.32-2.632.321-1.112.888-1.84a3.6 3.6 0 0 1 1.336-1.08 3.95 3.95 0 0 1 1.68-.36q.904 0 1.68.36.785.352 1.352 1.08.576.728.896 1.84.328 1.112.328 2.632m-2.04 0q0-1.256-.184-2.08-.183-.824-.496-1.312-.303-.488-.704-.68a1.84 1.84 0 0 0-.832-.2 1.8 1.8 0 0 0-.824.2q-.391.192-.696.68-.303.488-.488 1.312-.176.824-.176 2.08t.176 2.08q.185.824.488 1.312.304.488.696.688a1.89 1.89 0 0 0 1.656 0q.4-.2.704-.688.313-.488.496-1.312.184-.824.184-2.08m3.13 4.696q0-.248.088-.472.096-.224.256-.384a1.2 1.2 0 0 1 .384-.256q.224-.096.48-.096.255 0 .472.096a1.21 1.21 0 0 1 .648 1.592 1.2 1.2 0 0 1-.264.376 1.1 1.1 0 0 1-.384.248 1.15 1.15 0 0 1-.472.096q-.256 0-.48-.096a1.1 1.1 0 0 1-.384-.248 1.2 1.2 0 0 1-.256-.376 1.3 1.3 0 0 1-.088-.48m7.284-6.28-.4.496a3.531 3.531 0 0 1 1.56-.352q.657 0 1.272.216.625.216 1.096.656a3.2 3.2 0 0 1 .76 1.08q.288.648.288 1.512 0 .808-.296 1.52a3.74 3.74 0 0 1-2.128 2.064 4.4 4.4 0 0 1-1.664.304q-.927 0-1.664-.296a3.65 3.65 0 0 1-1.256-.824 3.7 3.7 0 0 1-.8-1.28 4.9 4.9 0 0 1-.272-1.664q0-.816.328-1.672.336-.864 1.032-1.792l2.76-3.704q.144-.192.416-.328.28-.136.64-.136h1.76zm.448 5.88q.473 0 .864-.16.4-.16.68-.448.288-.288.448-.672.16-.392.16-.848 0-.496-.152-.888a1.8 1.8 0 0 0-.432-.672 1.8 1.8 0 0 0-.672-.424 2.5 2.5 0 0 0-.864-.144q-.471 0-.856.16a1.9 1.9 0 0 0-.656.448 2 2 0 0 0-.424.672 2.3 2.3 0 0 0-.152.832q0 .48.128.88.137.392.392.672.264.28.648.44.384.152.888.152m10.642-5.12a.6.6 0 0 1-.168.184.5.5 0 0 1-.224.048.7.7 0 0 1-.312-.08 10 10 0 0 0-.376-.176 3 3 0 0 0-.496-.184 2.3 2.3 0 0 0-.648-.08q-.585 0-.92.248a.77.77 0 0 0-.328.648q0 .264.168.448.175.175.456.312.288.136.648.248.36.104.728.232.375.128.736.296.36.16.64.416.288.248.456.6.176.352.176.848 0 .592-.216 1.096a2.4 2.4 0 0 1-.624.864q-.417.36-1.032.568-.609.2-1.408.2-.424 0-.832-.08a4.477 4.477 0 0 1-1.464-.528 3.4 3.4 0 0 1-.552-.4l.456-.752a.64.64 0 0 1 .208-.208.6.6 0 0 1 .304-.072q.183 0 .344.104.168.104.384.224t.504.224q.296.104.744.104.351 0 .6-.08.255-.088.416-.224a.8.8 0 0 0 .24-.312.9.9 0 0 0 .08-.376.66.66 0 0 0-.176-.472 1.4 1.4 0 0 0-.456-.32 4 4 0 0 0-.648-.24q-.36-.113-.744-.24a8 8 0 0 1-.744-.296 2.7 2.7 0 0 1-.648-.44 2 2 0 0 1-.456-.648q-.168-.384-.168-.928 0-.504.2-.96t.584-.792q.392-.344.968-.544a4 4 0 0 1 1.344-.208q.848 0 1.544.28a3.5 3.5 0 0 1 1.16.736zM507.451 278.632q.384-.08.736-.112.352-.04.68-.04.912 0 1.608.272t1.168.752.712 1.128q.24.64.24 1.384 0 .92-.328 1.68a3.8 3.8 0 0 1-.896 1.304q-.576.536-1.368.832a4.8 4.8 0 0 1-1.712.296q-.544 0-1.032-.112a5.5 5.5 0 0 1-.92-.296 6 6 0 0 1-.792-.432 5.4 5.4 0 0 1-.648-.52l.608-.84a.59.59 0 0 1 .504-.272q.2 0 .408.128t.472.28q.272.152.632.28.368.128.88.128.544 0 .96-.176t.688-.488q.28-.32.416-.752.144-.44.144-.952 0-.944-.552-1.472-.544-.536-1.616-.536-.824 0-1.688.304l-1.232-.352.96-5.616h5.712v.84q0 .424-.264.688t-.896.264h-3.176zm14.913 1.584q0 1.512-.328 2.632-.32 1.112-.896 1.84a3.6 3.6 0 0 1-1.352 1.088 4 4 0 0 1-1.68.352 4 4 0 0 1-1.68-.352 3.66 3.66 0 0 1-1.336-1.088q-.567-.728-.888-1.84-.32-1.12-.32-2.632 0-1.52.32-2.632.321-1.112.888-1.84a3.6 3.6 0 0 1 1.336-1.08 3.95 3.95 0 0 1 1.68-.36q.905 0 1.68.36.785.353 1.352 1.08.576.728.896 1.84.328 1.112.328 2.632m-2.04 0q0-1.256-.184-2.08-.183-.824-.496-1.312-.303-.488-.704-.68a1.84 1.84 0 0 0-.832-.2 1.8 1.8 0 0 0-.824.2q-.392.192-.696.68t-.488 1.312q-.176.824-.176 2.08t.176 2.08q.185.824.488 1.312.304.488.696.688a1.89 1.89 0 0 0 1.656 0q.4-.2.704-.688.313-.488.496-1.312.184-.824.184-2.08m8.426-.824a.6.6 0 0 1-.168.184.5.5 0 0 1-.224.048.7.7 0 0 1-.312-.08 10 10 0 0 0-.376-.176 3 3 0 0 0-.496-.184 2.3 2.3 0 0 0-.648-.08q-.585 0-.92.248a.77.77 0 0 0-.328.648q0 .264.168.448.175.175.456.312.288.136.648.248.36.104.728.232.375.128.736.296.36.16.64.416.288.248.456.6.176.352.176.848 0 .592-.216 1.096a2.4 2.4 0 0 1-.624.864q-.417.36-1.032.568-.609.2-1.408.2-.424 0-.832-.08a4.477 4.477 0 0 1-1.464-.528 3.4 3.4 0 0 1-.552-.4l.456-.752a.64.64 0 0 1 .208-.208.6.6 0 0 1 .304-.072q.183 0 .344.104.168.104.384.224t.504.224q.296.104.744.104.351 0 .6-.08.255-.088.416-.224a.8.8 0 0 0 .24-.312.9.9 0 0 0 .08-.376.66.66 0 0 0-.176-.472 1.4 1.4 0 0 0-.456-.32 4 4 0 0 0-.648-.24q-.36-.112-.744-.24a8 8 0 0 1-.744-.296 2.7 2.7 0 0 1-.648-.44 2 2 0 0 1-.456-.648q-.168-.384-.168-.928 0-.504.2-.96t.584-.792q.392-.344.968-.544a4 4 0 0 1 1.344-.208q.848 0 1.544.28a3.5 3.5 0 0 1 1.16.736zM170.899 129.64v-3.784q0-.536.072-1.184l-3.592 4.968zm3.176 0v1.144q0 .16-.104.28-.104.112-.296.112h-1.056V134h-1.72v-2.824h-4.88a.55.55 0 0 1-.352-.12.56.56 0 0 1-.192-.312l-.208-1 5.48-7.32h1.872v7.216zm1.273-3.984q.12-.832.464-1.456.345-.632.856-1.048a3.5 3.5 0 0 1 1.184-.632 4.7 4.7 0 0 1 1.44-.216q.801 0 1.44.232.648.224 1.104.632.456.4.696.944.249.544.248 1.176 0 .552-.128.976a2.3 2.3 0 0 1-.352.728 2.1 2.1 0 0 1-.576.528 3.6 3.6 0 0 1-.776.36q1.04.328 1.552 1 .513.672.512 1.688 0 .864-.32 1.528a3.3 3.3 0 0 1-.864 1.12 3.8 3.8 0 0 1-1.264.68 4.8 4.8 0 0 1-1.512.232q-.872 0-1.52-.2a3.3 3.3 0 0 1-1.128-.592 3.6 3.6 0 0 1-.816-.96 6.5 6.5 0 0 1-.576-1.312l.872-.36q.345-.144.64-.072.305.064.44.32.144.28.312.552.176.272.416.488.24.208.56.344.329.128.776.128.504 0 .88-.16.376-.168.624-.432.256-.264.376-.584a1.8 1.8 0 0 0 .128-.656q0-.416-.088-.752a1.1 1.1 0 0 0-.368-.584q-.28-.24-.808-.376-.52-.136-1.4-.136v-1.408q.728-.008 1.208-.136t.76-.352q.288-.232.4-.552t.112-.704q0-.816-.456-1.24t-1.216-.424q-.351 0-.648.104a1.77 1.77 0 0 0-1.168 1.224q-.135.368-.36.488-.216.12-.616.056zm14.402 1.736a.6.6 0 0 1-.168.184.5.5 0 0 1-.224.048.7.7 0 0 1-.312-.08 10 10 0 0 0-.376-.176 3 3 0 0 0-.496-.184 2.3 2.3 0 0 0-.648-.08q-.584 0-.92.248a.77.77 0 0 0-.328.648q0 .264.168.448.175.175.456.312.288.136.648.248.36.104.728.232.375.128.736.296.36.16.64.416.288.248.456.6.176.352.176.848 0 .592-.216 1.096a2.4 2.4 0 0 1-.624.864q-.417.36-1.032.568-.609.2-1.408.2-.424 0-.832-.08a4.477 4.477 0 0 1-1.464-.528 3.4 3.4 0 0 1-.552-.4l.456-.752a.64.64 0 0 1 .208-.208.6.6 0 0 1 .304-.072q.183 0 .344.104.168.104.384.224t.504.224q.296.104.744.104.351 0 .6-.08.255-.088.416-.224a.8.8 0 0 0 .24-.312.9.9 0 0 0 .08-.376.66.66 0 0 0-.176-.472 1.4 1.4 0 0 0-.456-.32 4 4 0 0 0-.648-.24q-.36-.112-.744-.24a8 8 0 0 1-.744-.296 2.7 2.7 0 0 1-.648-.44 2 2 0 0 1-.456-.648q-.168-.384-.168-.928 0-.504.2-.96t.584-.792q.392-.344.968-.544a4 4 0 0 1 1.344-.208q.848 0 1.544.28a3.5 3.5 0 0 1 1.16.736zM277.451 126.632q.384-.08.736-.112.352-.04.68-.04.912 0 1.608.272t1.168.752.712 1.128q.24.64.24 1.384 0 .92-.328 1.68a3.8 3.8 0 0 1-.896 1.304q-.576.536-1.368.832a4.8 4.8 0 0 1-1.712.296q-.545 0-1.032-.112a5.5 5.5 0 0 1-.92-.296 6 6 0 0 1-.792-.432 5.4 5.4 0 0 1-.648-.52l.608-.84a.59.59 0 0 1 .504-.272q.2 0 .408.128t.472.28q.272.152.632.28.368.128.88.128.544 0 .96-.176t.688-.488q.28-.32.416-.752.144-.44.144-.952 0-.944-.552-1.472-.544-.536-1.616-.536-.824 0-1.688.304l-1.232-.352.96-5.616h5.712v.84q0 .424-.264.688t-.896.264h-3.176zm10.673 5.952q.489 0 .856-.136.369-.144.616-.392.256-.248.384-.592a2.1 2.1 0 0 0 .128-.744q0-.953-.528-1.44-.528-.488-1.456-.488t-1.456.488q-.528.487-.528 1.44 0 .4.128.744.129.344.376.592.256.248.624.392.369.136.856.136m0-8.792q-.44 0-.76.136a1.55 1.55 0 0 0-.536.368 1.5 1.5 0 0 0-.312.52 2 2 0 0 0-.096.624q0 .344.08.672.089.32.288.576.201.248.528.4.328.152.808.152t.808-.152.528-.4q.2-.257.28-.576.088-.328.088-.672a1.9 1.9 0 0 0-.104-.624 1.5 1.5 0 0 0-.312-.52 1.46 1.46 0 0 0-.528-.368 1.9 1.9 0 0 0-.76-.136m1.952 4.176q1.056.344 1.56 1.056.504.703.504 1.728 0 .768-.296 1.392a3 3 0 0 1-.816 1.064q-.528.44-1.272.68-.735.24-1.632.24t-1.64-.24a3.8 3.8 0 0 1-1.264-.68 3.1 3.1 0 0 1-.824-1.064 3.3 3.3 0 0 1-.288-1.392q0-1.024.504-1.728.504-.712 1.56-1.056-.84-.352-1.264-1-.416-.648-.416-1.56 0-.656.264-1.224.273-.569.752-.984.48-.424 1.144-.656a4.4 4.4 0 0 1 1.472-.24q.801 0 1.464.24.672.232 1.152.656.48.416.744.984.273.569.272 1.224 0 .912-.424 1.56-.416.648-1.256 1m8.674-.576a.6.6 0 0 1-.168.184.5.5 0 0 1-.224.048.7.7 0 0 1-.312-.08 10 10 0 0 0-.376-.176 3 3 0 0 0-.496-.184 2.3 2.3 0 0 0-.648-.08q-.584 0-.92.248a.77.77 0 0 0-.328.648q0 .264.168.448.175.175.456.312.288.136.648.248.36.104.728.232.375.128.736.296.36.16.64.416.288.248.456.6.176.352.176.848 0 .592-.216 1.096a2.4 2.4 0 0 1-.624.864q-.417.36-1.032.568-.609.2-1.408.2-.424 0-.832-.08a4.477 4.477 0 0 1-1.464-.528 3.4 3.4 0 0 1-.552-.4l.456-.752a.64.64 0 0 1 .208-.208.6.6 0 0 1 .304-.072q.183 0 .344.104.168.104.384.224t.504.224q.296.104.744.104.351 0 .6-.08.255-.088.416-.224a.8.8 0 0 0 .24-.312.9.9 0 0 0 .08-.376.66.66 0 0 0-.176-.472 1.4 1.4 0 0 0-.456-.32 4 4 0 0 0-.648-.24q-.36-.112-.744-.24a8 8 0 0 1-.744-.296 2.7 2.7 0 0 1-.648-.44 2 2 0 0 1-.456-.648q-.168-.384-.168-.928 0-.504.2-.96t.584-.792q.392-.344.968-.544a4 4 0 0 1 1.344-.208q.848 0 1.544.28a3.5 3.5 0 0 1 1.16.736zM277.899 179.64v-3.784q0-.536.072-1.184l-3.592 4.968zm3.176 0v1.144q0 .16-.104.28-.104.112-.296.112h-1.056V184h-1.72v-2.824h-4.88a.55.55 0 0 1-.352-.12.56.56 0 0 1-.192-.312l-.208-1 5.48-7.32h1.872v7.216zm3.049-3.736q0 .968.496 1.48.504.504 1.424.504.48 0 .856-.152a1.8 1.8 0 0 0 .632-.416q.257-.264.384-.624.136-.36.136-.776a2.3 2.3 0 0 0-.144-.84 1.7 1.7 0 0 0-.408-.632 1.8 1.8 0 0 0-.632-.392 2.2 2.2 0 0 0-.792-.136q-.447 0-.808.152-.36.144-.616.408a1.8 1.8 0 0 0-.392.632 2.2 2.2 0 0 0-.136.792m2.624 3.608a10 10 0 0 0 .488-.648q-.4.256-.88.392a4 4 0 0 1-1.008.128q-.6 0-1.176-.208a3 3 0 0 1-1.024-.624 3.3 3.3 0 0 1-.728-1.04q-.272-.624-.272-1.456 0-.776.288-1.456a3.67 3.67 0 0 1 2.056-2 4.2 4.2 0 0 1 1.608-.296q.888 0 1.592.28.713.28 1.208.784.504.504.768 1.208.272.704.272 1.544 0 .536-.096 1.016a5.4 5.4 0 0 1-.256.928 6.4 6.4 0 0 1-.408.864q-.24.424-.536.84l-2.648 3.776q-.135.192-.408.328a1.4 1.4 0 0 1-.616.128h-1.816zm10.002-2.12a.6.6 0 0 1-.168.184.5.5 0 0 1-.224.048.7.7 0 0 1-.312-.08 10 10 0 0 0-.376-.176 3 3 0 0 0-.496-.184 2.3 2.3 0 0 0-.648-.08q-.584 0-.92.248a.77.77 0 0 0-.328.648q0 .264.168.448.175.175.456.312.288.136.648.248.36.104.728.232.375.128.736.296.36.16.64.416.288.248.456.6.176.352.176.848 0 .592-.216 1.096a2.4 2.4 0 0 1-.624.864q-.417.36-1.032.568-.609.2-1.408.2-.424 0-.832-.08a4.477 4.477 0 0 1-1.464-.528 3.4 3.4 0 0 1-.552-.4l.456-.752a.64.64 0 0 1 .208-.208.6.6 0 0 1 .304-.072q.183 0 .344.104.168.104.384.224t.504.224q.296.104.744.104.351 0 .6-.08.255-.088.416-.224a.8.8 0 0 0 .24-.312.9.9 0 0 0 .08-.376.66.66 0 0 0-.176-.472 1.4 1.4 0 0 0-.456-.32 4 4 0 0 0-.648-.24q-.36-.113-.744-.24a8 8 0 0 1-.744-.296 2.7 2.7 0 0 1-.648-.44 2 2 0 0 1-.456-.648q-.168-.384-.168-.928 0-.504.2-.96t.584-.792q.392-.344.968-.544a4 4 0 0 1 1.344-.208q.848 0 1.544.28a3.5 3.5 0 0 1 1.16.736zM282.051 232.16q.32 0 .504.184a.61.61 0 0 1 .192.472V234h-7.936v-.656q0-.2.08-.416.088-.224.272-.4l3.512-3.52q.44-.448.784-.856.352-.408.584-.808t.352-.808q.128-.416.128-.872 0-.416-.12-.728a1.4 1.4 0 0 0-.344-.536 1.3 1.3 0 0 0-.528-.32 2 2 0 0 0-.688-.112q-.352 0-.656.104a1.7 1.7 0 0 0-.528.28 1.7 1.7 0 0 0-.392.416q-.16.24-.24.528-.136.368-.352.488t-.624.056l-1.04-.184q.12-.832.464-1.456.344-.632.856-1.048a3.5 3.5 0 0 1 1.184-.632 4.7 4.7 0 0 1 1.44-.216q.8 0 1.464.24.664.232 1.136.664t.736 1.04.264 1.352q0 .64-.192 1.184a4.7 4.7 0 0 1-.504 1.04 6.7 6.7 0 0 1-.736.96 49 49 0 0 1-.888.944l-2.608 2.664a5.4 5.4 0 0 1 .744-.168q.376-.064.712-.064zm5.609-5.528-.4.496a3.531 3.531 0 0 1 1.56-.352q.657 0 1.272.216.624.216 1.096.656a3.2 3.2 0 0 1 .76 1.08q.288.648.288 1.512 0 .808-.296 1.52a3.74 3.74 0 0 1-2.128 2.064 4.4 4.4 0 0 1-1.664.304q-.927 0-1.664-.296a3.65 3.65 0 0 1-1.256-.824 3.7 3.7 0 0 1-.8-1.28 4.9 4.9 0 0 1-.272-1.664q0-.816.328-1.672.336-.864 1.032-1.792l2.76-3.704q.144-.192.416-.328.28-.136.64-.136h1.76zm.448 5.88q.473 0 .864-.16.4-.16.68-.448.288-.288.448-.672.16-.392.16-.848 0-.496-.152-.888a1.8 1.8 0 0 0-.432-.672 1.8 1.8 0 0 0-.672-.424 2.5 2.5 0 0 0-.864-.144q-.472 0-.856.16a1.9 1.9 0 0 0-.656.448 2 2 0 0 0-.424.672 2.3 2.3 0 0 0-.152.832q0 .48.128.88.137.392.392.672.264.28.648.44.384.152.888.152m10.642-5.12a.6.6 0 0 1-.168.184.5.5 0 0 1-.224.048.7.7 0 0 1-.312-.08 10 10 0 0 0-.376-.176 3 3 0 0 0-.496-.184 2.3 2.3 0 0 0-.648-.08q-.584 0-.92.248a.77.77 0 0 0-.328.648q0 .264.168.448.175.175.456.312.288.136.648.248.36.104.728.232.375.128.736.296.36.16.64.416.288.248.456.6.176.352.176.848 0 .592-.216 1.096a2.4 2.4 0 0 1-.624.864q-.417.36-1.032.568-.609.2-1.408.2-.424 0-.832-.08a4.477 4.477 0 0 1-1.464-.528 3.4 3.4 0 0 1-.552-.4l.456-.752a.64.64 0 0 1 .208-.208.6.6 0 0 1 .304-.072q.183 0 .344.104.168.104.384.224t.504.224q.296.104.744.104.351 0 .6-.08.255-.088.416-.224a.8.8 0 0 0 .24-.312.9.9 0 0 0 .08-.376.66.66 0 0 0-.176-.472 1.4 1.4 0 0 0-.456-.32 4 4 0 0 0-.648-.24q-.36-.113-.744-.24a8 8 0 0 1-.744-.296 2.7 2.7 0 0 1-.648-.44 2 2 0 0 1-.456-.648q-.168-.384-.168-.928 0-.504.2-.96t.584-.792q.392-.344.968-.544a4 4 0 0 1 1.344-.208q.848 0 1.544.28a3.5 3.5 0 0 1 1.16.736zM263.647 284.52V286h-6.4v-1.48h2.344v-6.744q0-.4.024-.824l-1.664 1.392a.7.7 0 0 1-.288.144.705.705 0 0 1-.48-.08.5.5 0 0 1-.144-.136l-.624-.856 3.528-3h1.624v10.104zm1.977 1.48v-8.208h1.208q.384 0 .504.36l.128.608q.216-.24.448-.44.24-.2.504-.344a2.7 2.7 0 0 1 1.256-.312q.777 0 1.272.424.504.416.752 1.112.192-.408.48-.696.288-.296.632-.48t.728-.272q.393-.088.784-.088.68 0 1.208.208t.888.608.544.976q.192.576.192 1.32V286h-1.976v-5.224q0-.785-.344-1.176-.344-.4-1.008-.4-.304 0-.568.104-.255.104-.456.304a1.4 1.4 0 0 0-.304.488 1.9 1.9 0 0 0-.112.68V286H270.4v-5.224q0-.824-.336-1.2-.327-.376-.968-.376-.432 0-.808.216a2.7 2.7 0 0 0-.688.576V286zm15.455-8.208V286h-1.984v-8.208zm.272-2.392q0 .257-.104.48-.105.224-.28.392a1.3 1.3 0 0 1-.4.272q-.232.096-.496.096a1.3 1.3 0 0 1-.488-.096 1.34 1.34 0 0 1-.664-.664 1.285 1.285 0 0 1 0-.976q.104-.232.272-.4t.392-.264q.231-.104.488-.104.264 0 .496.104.231.096.4.264.175.168.28.4.104.232.104.496m3.59 3.4q.249-.248.52-.456a3.2 3.2 0 0 1 1.248-.592 3.2 3.2 0 0 1 .768-.088q.673 0 1.192.232.52.224.864.64.353.408.528.984.184.568.184 1.256V286h-1.976v-5.224q0-.752-.344-1.16-.343-.416-1.048-.416-.512 0-.96.232a3.5 3.5 0 0 0-.848.632V286h-1.976v-8.208h1.208q.384 0 .504.36zm18.378 5.72V286h-6.4v-1.48h2.344v-6.744q0-.4.024-.824l-1.664 1.392a.7.7 0 0 1-.288.144.705.705 0 0 1-.48-.08.5.5 0 0 1-.144-.136l-.624-.856 3.528-3h1.624v10.104zm5.177-5.888-.4.496a3.531 3.531 0 0 1 1.56-.352q.657 0 1.272.216.624.216 1.096.656a3.2 3.2 0 0 1 .76 1.08q.288.648.288 1.512 0 .808-.296 1.52a3.74 3.74 0 0 1-2.128 2.064 4.4 4.4 0 0 1-1.664.304q-.927 0-1.664-.296a3.65 3.65 0 0 1-1.256-.824 3.7 3.7 0 0 1-.8-1.28 4.9 4.9 0 0 1-.272-1.664q0-.816.328-1.672.336-.864 1.032-1.792l2.76-3.704q.144-.192.416-.328.28-.136.64-.136h1.76zm.448 5.88q.473 0 .864-.16.4-.16.68-.448.288-.288.448-.672.16-.392.16-.848 0-.497-.152-.888a1.8 1.8 0 0 0-.432-.672 1.8 1.8 0 0 0-.672-.424 2.5 2.5 0 0 0-.864-.144q-.472 0-.856.16a1.9 1.9 0 0 0-.656.448 2 2 0 0 0-.424.672 2.3 2.3 0 0 0-.152.832q0 .48.128.88.137.392.392.672.264.28.648.44.384.152.888.152m10.642-5.12a.6.6 0 0 1-.168.184.5.5 0 0 1-.224.048.7.7 0 0 1-.312-.08 10 10 0 0 0-.376-.176 3 3 0 0 0-.496-.184 2.3 2.3 0 0 0-.648-.08q-.584 0-.92.248a.77.77 0 0 0-.328.648q0 .264.168.448.175.175.456.312.288.136.648.248.36.104.728.232.375.128.736.296.36.16.64.416.288.248.456.6.176.352.176.848 0 .592-.216 1.096a2.4 2.4 0 0 1-.624.864q-.417.36-1.032.568-.609.2-1.408.2-.424 0-.832-.08a4.477 4.477 0 0 1-1.464-.528 3.4 3.4 0 0 1-.552-.4l.456-.752a.64.64 0 0 1 .208-.208.6.6 0 0 1 .304-.072q.183 0 .344.104.168.104.384.224t.504.224q.296.104.744.104.351 0 .6-.08.255-.088.416-.224a.8.8 0 0 0 .24-.312.9.9 0 0 0 .08-.376.66.66 0 0 0-.176-.472 1.4 1.4 0 0 0-.456-.32 4 4 0 0 0-.648-.24q-.36-.112-.744-.24a8 8 0 0 1-.744-.296 2.7 2.7 0 0 1-.648-.44 2 2 0 0 1-.456-.648q-.168-.384-.168-.928 0-.504.2-.96t.584-.792q.392-.344.968-.544a4 4 0 0 1 1.344-.208q.848 0 1.544.28a3.5 3.5 0 0 1 1.16.736zM153.647 183.52V185h-6.4v-1.48h2.344v-6.744q0-.4.024-.824l-1.664 1.392a.7.7 0 0 1-.288.144.705.705 0 0 1-.48-.08.5.5 0 0 1-.144-.136l-.624-.856 3.528-3h1.624v10.104zm1.977 1.48v-8.208h1.208q.384 0 .504.36l.128.608q.216-.24.448-.44.24-.2.504-.344a2.7 2.7 0 0 1 1.256-.312q.777 0 1.272.424.504.416.752 1.112.192-.408.48-.696.288-.296.632-.48t.728-.272q.393-.088.784-.088.68 0 1.208.208t.888.608.544.976q.192.576.192 1.32V185h-1.976v-5.224q0-.784-.344-1.176-.344-.4-1.008-.4-.303 0-.568.104-.255.104-.456.304a1.4 1.4 0 0 0-.304.488 1.9 1.9 0 0 0-.112.68V185H160.4v-5.224q0-.824-.336-1.2-.327-.376-.968-.376-.432 0-.808.216a2.7 2.7 0 0 0-.688.576V185zm15.455-8.208V185h-1.984v-8.208zm.272-2.392q0 .256-.104.48-.105.224-.28.392a1.3 1.3 0 0 1-.4.272q-.232.096-.496.096a1.3 1.3 0 0 1-.488-.096 1.34 1.34 0 0 1-.664-.664 1.285 1.285 0 0 1 0-.976q.104-.232.272-.4.167-.168.392-.264.231-.104.488-.104.264 0 .496.104.232.096.4.264.175.168.28.4.104.232.104.496m3.59 3.4q.249-.248.52-.456a3.2 3.2 0 0 1 1.248-.592 3.2 3.2 0 0 1 .768-.088q.673 0 1.192.232.52.224.864.64.352.408.528.984.184.568.184 1.256V185h-1.976v-5.224q0-.752-.344-1.16-.343-.416-1.048-.416-.512 0-.96.232a3.5 3.5 0 0 0-.848.632V185h-1.976v-8.208h1.208q.384 0 .504.36zm18.378 5.72V185h-6.4v-1.48h2.344v-6.744q0-.4.024-.824l-1.664 1.392a.7.7 0 0 1-.288.144.705.705 0 0 1-.48-.08.5.5 0 0 1-.144-.136l-.624-.856 3.528-3h1.624v10.104zm4.249-5.888q.385-.08.736-.112.353-.04.68-.04.912 0 1.608.272t1.168.752.712 1.128q.24.64.24 1.384 0 .92-.328 1.68a3.8 3.8 0 0 1-.896 1.304q-.576.536-1.368.832a4.8 4.8 0 0 1-1.712.296q-.543 0-1.032-.112a5.5 5.5 0 0 1-.92-.296 6 6 0 0 1-.792-.432 5.4 5.4 0 0 1-.648-.52l.608-.84a.59.59 0 0 1 .504-.272q.201 0 .408.128.208.128.472.28.272.152.632.28.369.128.88.128.544 0 .96-.176.417-.176.688-.488.28-.32.416-.752.144-.44.144-.952 0-.944-.552-1.472-.543-.536-1.616-.536-.824 0-1.688.304l-1.232-.352.96-5.616h5.712v.84q0 .424-.264.688t-.896.264h-3.176zm12.018.76a.6.6 0 0 1-.168.184.5.5 0 0 1-.224.048.7.7 0 0 1-.312-.08 10 10 0 0 0-.376-.176 3 3 0 0 0-.496-.184 2.3 2.3 0 0 0-.648-.08q-.584 0-.92.248a.77.77 0 0 0-.328.648q0 .264.168.448.175.175.456.312.288.136.648.248.36.104.728.232.375.128.736.296.36.16.64.416.288.248.456.6.176.352.176.848 0 .592-.216 1.096a2.4 2.4 0 0 1-.624.864q-.417.36-1.032.568-.609.2-1.408.2-.424 0-.832-.08a4.477 4.477 0 0 1-1.464-.528 3.4 3.4 0 0 1-.552-.4l.456-.752a.64.64 0 0 1 .208-.208.6.6 0 0 1 .304-.072q.183 0 .344.104.168.104.384.224t.504.224q.296.104.744.104.351 0 .6-.08.255-.088.416-.224a.8.8 0 0 0 .24-.312.9.9 0 0 0 .08-.376.66.66 0 0 0-.176-.472 1.4 1.4 0 0 0-.456-.32 4 4 0 0 0-.648-.24q-.36-.113-.744-.24a8 8 0 0 1-.744-.296 2.7 2.7 0 0 1-.648-.44 2 2 0 0 1-.456-.648q-.168-.384-.168-.928 0-.504.2-.96t.584-.792q.392-.344.968-.544a4 4 0 0 1 1.344-.208q.848 0 1.544.28a3.5 3.5 0 0 1 1.16.736zM173.483 232.52V234h-6.4v-1.48h2.344v-6.744q0-.4.024-.824l-1.664 1.392a.7.7 0 0 1-.288.144.705.705 0 0 1-.48-.08.5.5 0 0 1-.144-.136l-.624-.856 3.528-3h1.624v10.104zm1.865-6.864q.12-.832.464-1.456.345-.632.856-1.048a3.5 3.5 0 0 1 1.184-.632 4.7 4.7 0 0 1 1.44-.216q.801 0 1.44.232.648.224 1.104.632.456.4.696.944.249.544.248 1.176 0 .552-.128.976a2.3 2.3 0 0 1-.352.728 2.1 2.1 0 0 1-.576.528 3.6 3.6 0 0 1-.776.36q1.04.328 1.552 1 .513.672.512 1.688 0 .864-.32 1.528a3.3 3.3 0 0 1-.864 1.12 3.8 3.8 0 0 1-1.264.68 4.8 4.8 0 0 1-1.512.232q-.872 0-1.52-.2a3.3 3.3 0 0 1-1.128-.592 3.6 3.6 0 0 1-.816-.96 6.5 6.5 0 0 1-.576-1.312l.872-.36q.345-.144.64-.072.305.064.44.32.144.28.312.552.176.272.416.488.24.208.56.344.329.128.776.128.504 0 .88-.16.376-.168.624-.432.256-.264.376-.584a1.8 1.8 0 0 0 .128-.656q0-.416-.088-.752a1.1 1.1 0 0 0-.368-.584q-.28-.24-.808-.376-.52-.136-1.4-.136v-1.408q.728-.008 1.208-.136t.76-.352q.288-.232.4-.552t.112-.704q0-.816-.456-1.24t-1.216-.424q-.351 0-.648.104a1.77 1.77 0 0 0-1.168 1.224q-.135.368-.36.488-.216.12-.616.056zm14.402 1.736a.6.6 0 0 1-.168.184.5.5 0 0 1-.224.048.7.7 0 0 1-.312-.08 10 10 0 0 0-.376-.176 3 3 0 0 0-.496-.184 2.3 2.3 0 0 0-.648-.08q-.584 0-.92.248a.77.77 0 0 0-.328.648q0 .264.168.448.175.175.456.312.288.136.648.248.36.104.728.232.375.128.736.296.36.16.64.416.288.248.456.6.176.352.176.848 0 .592-.216 1.096a2.4 2.4 0 0 1-.624.864q-.417.36-1.032.568-.609.2-1.408.2-.424 0-.832-.08a4.477 4.477 0 0 1-1.464-.528 3.4 3.4 0 0 1-.552-.4l.456-.752a.64.64 0 0 1 .208-.208.6.6 0 0 1 .304-.072q.183 0 .344.104.168.104.384.224t.504.224q.296.104.744.104.351 0 .6-.08.255-.088.416-.224a.8.8 0 0 0 .24-.312.9.9 0 0 0 .08-.376.66.66 0 0 0-.176-.472 1.4 1.4 0 0 0-.456-.32 4 4 0 0 0-.648-.24q-.36-.113-.744-.24a8 8 0 0 1-.744-.296 2.7 2.7 0 0 1-.648-.44 2 2 0 0 1-.456-.648q-.168-.384-.168-.928 0-.504.2-.96t.584-.792q.392-.344.968-.544a4 4 0 0 1 1.344-.208q.848 0 1.544.28a3.5 3.5 0 0 1 1.16.736zM166.067 274.656q.12-.832.464-1.456.344-.632.856-1.048a3.5 3.5 0 0 1 1.184-.632 4.7 4.7 0 0 1 1.44-.216 4.2 4.2 0 0 1 1.44.232q.648.224 1.104.632.456.4.696.944.248.545.248 1.176 0 .552-.128.976a2.3 2.3 0 0 1-.352.728 2.1 2.1 0 0 1-.576.528 3.6 3.6 0 0 1-.776.36q1.04.328 1.552 1t.512 1.688q0 .864-.32 1.528a3.3 3.3 0 0 1-.864 1.12 3.8 3.8 0 0 1-1.264.68 4.8 4.8 0 0 1-1.512.232q-.872 0-1.52-.2a3.3 3.3 0 0 1-1.128-.592 3.6 3.6 0 0 1-.816-.96 6.5 6.5 0 0 1-.576-1.312l.872-.36q.344-.144.64-.072a.61.61 0 0 1 .44.32q.144.28.312.552.176.272.416.488.24.208.56.344.328.128.776.128.504 0 .88-.16.377-.168.624-.432.256-.264.376-.584a1.8 1.8 0 0 0 .128-.656q0-.416-.088-.752a1.12 1.12 0 0 0-.368-.584q-.28-.24-.808-.376-.52-.136-1.4-.136v-1.408q.728-.008 1.208-.136t.76-.352q.288-.232.4-.552t.112-.704q0-.816-.456-1.24t-1.216-.424q-.352 0-.648.104a1.77 1.77 0 0 0-1.168 1.224q-.136.368-.36.488-.216.12-.616.056zm17.297 2.56q0 1.512-.328 2.632-.32 1.112-.896 1.84a3.6 3.6 0 0 1-1.352 1.088 4 4 0 0 1-1.68.352 4 4 0 0 1-1.68-.352 3.66 3.66 0 0 1-1.336-1.088q-.567-.728-.888-1.84-.32-1.12-.32-2.632 0-1.52.32-2.632.321-1.112.888-1.84a3.6 3.6 0 0 1 1.336-1.08 3.95 3.95 0 0 1 1.68-.36q.905 0 1.68.36.785.353 1.352 1.08.576.728.896 1.84.328 1.112.328 2.632m-2.04 0q0-1.256-.184-2.08t-.496-1.312q-.303-.488-.704-.68a1.84 1.84 0 0 0-.832-.2 1.8 1.8 0 0 0-.824.2q-.391.192-.696.68-.303.488-.488 1.312-.176.824-.176 2.08t.176 2.08q.185.824.488 1.312.305.488.696.688a1.89 1.89 0 0 0 1.656 0q.4-.2.704-.688.313-.488.496-1.312.184-.824.184-2.08m8.426-.824a.6.6 0 0 1-.168.184.5.5 0 0 1-.224.048.7.7 0 0 1-.312-.08 10 10 0 0 0-.376-.176 3 3 0 0 0-.496-.184 2.3 2.3 0 0 0-.648-.08q-.584 0-.92.248a.77.77 0 0 0-.328.648q0 .264.168.448.175.175.456.312.288.136.648.248.36.104.728.232.375.128.736.296.36.16.64.416.288.248.456.6.176.352.176.848 0 .592-.216 1.096a2.4 2.4 0 0 1-.624.864q-.417.36-1.032.568-.609.2-1.408.2-.424 0-.832-.08a4.477 4.477 0 0 1-1.464-.528 3.4 3.4 0 0 1-.552-.4l.456-.752a.64.64 0 0 1 .208-.208.6.6 0 0 1 .304-.072q.183 0 .344.104.168.104.384.224t.504.224q.296.104.744.104.351 0 .6-.08.255-.088.416-.224a.8.8 0 0 0 .24-.312.9.9 0 0 0 .08-.376.66.66 0 0 0-.176-.472 1.4 1.4 0 0 0-.456-.32 4 4 0 0 0-.648-.24q-.36-.112-.744-.24a8 8 0 0 1-.744-.296 2.7 2.7 0 0 1-.648-.44 2 2 0 0 1-.456-.648q-.168-.384-.168-.928 0-.504.2-.96t.584-.792q.392-.344.968-.544a4 4 0 0 1 1.344-.208q.848 0 1.544.28a3.5 3.5 0 0 1 1.16.736zM401.051 183.16q.32 0 .504.184a.61.61 0 0 1 .192.472V185h-7.936v-.656q0-.2.08-.416.088-.224.272-.4l3.512-3.52q.44-.448.784-.856.352-.408.584-.808t.352-.808q.128-.416.128-.872 0-.416-.12-.728a1.4 1.4 0 0 0-.344-.536 1.3 1.3 0 0 0-.528-.32 2 2 0 0 0-.688-.112q-.352 0-.656.104a1.7 1.7 0 0 0-.528.28 1.7 1.7 0 0 0-.392.416q-.16.24-.24.528-.136.368-.352.488t-.624.056l-1.04-.184q.12-.832.464-1.456.344-.632.856-1.048a3.5 3.5 0 0 1 1.184-.632 4.7 4.7 0 0 1 1.44-.216q.8 0 1.464.24.664.232 1.136.664t.736 1.04.264 1.352q0 .64-.192 1.184a4.7 4.7 0 0 1-.504 1.04 6.7 6.7 0 0 1-.736.96 49 49 0 0 1-.888.944l-2.608 2.664a5.4 5.4 0 0 1 .744-.168q.376-.064.712-.064zm4.681-5.528q.385-.08.736-.112.353-.04.68-.04.912 0 1.608.272t1.168.752.712 1.128q.24.64.24 1.384 0 .92-.328 1.68a3.8 3.8 0 0 1-.896 1.304q-.576.536-1.368.832a4.8 4.8 0 0 1-1.712.296q-.543 0-1.032-.112a5.5 5.5 0 0 1-.92-.296 6 6 0 0 1-.792-.432 5.4 5.4 0 0 1-.648-.52l.608-.84a.59.59 0 0 1 .504-.272q.201 0 .408.128.208.128.472.28.272.152.632.28.369.128.88.128.545 0 .96-.176.417-.176.688-.488.28-.32.416-.752.144-.44.144-.952 0-.944-.552-1.472-.543-.536-1.616-.536-.824 0-1.688.304l-1.232-.352.96-5.616h5.712v.84q0 .424-.264.688t-.896.264h-3.176zm12.018.76a.6.6 0 0 1-.168.184.5.5 0 0 1-.224.048.7.7 0 0 1-.312-.08 10 10 0 0 0-.376-.176 3 3 0 0 0-.496-.184 2.3 2.3 0 0 0-.648-.08q-.584 0-.92.248a.77.77 0 0 0-.328.648q0 .264.168.448.175.175.456.312.288.136.648.248.36.104.728.232.375.128.736.296.36.16.64.416.288.248.456.6.176.352.176.848 0 .592-.216 1.096a2.4 2.4 0 0 1-.624.864q-.417.36-1.032.568-.609.2-1.408.2-.424 0-.832-.08a4.477 4.477 0 0 1-1.464-.528 3.4 3.4 0 0 1-.552-.4l.456-.752a.64.64 0 0 1 .208-.208.6.6 0 0 1 .304-.072q.183 0 .344.104.168.104.384.224t.504.224q.296.104.744.104.351 0 .6-.08.255-.088.416-.224a.8.8 0 0 0 .24-.312.9.9 0 0 0 .08-.376.66.66 0 0 0-.176-.472 1.4 1.4 0 0 0-.456-.32 4 4 0 0 0-.648-.24q-.36-.113-.744-.24a8 8 0 0 1-.744-.296 2.7 2.7 0 0 1-.648-.44 2 2 0 0 1-.456-.648q-.168-.384-.168-.928 0-.504.2-.96t.584-.792q.392-.344.968-.544a4 4 0 0 1 1.344-.208q.848 0 1.544.28a3.5 3.5 0 0 1 1.16.736zM401.051 235.16q.32 0 .504.184a.61.61 0 0 1 .192.472V237h-7.936v-.656q0-.2.08-.416.088-.224.272-.4l3.512-3.52q.44-.448.784-.856.352-.408.584-.808t.352-.808q.128-.416.128-.872 0-.416-.12-.728a1.4 1.4 0 0 0-.344-.536 1.3 1.3 0 0 0-.528-.32 2 2 0 0 0-.688-.112q-.352 0-.656.104a1.7 1.7 0 0 0-.528.28 1.7 1.7 0 0 0-.392.416q-.16.24-.24.528-.136.368-.352.488t-.624.056l-1.04-.184q.12-.832.464-1.456.344-.632.856-1.048a3.5 3.5 0 0 1 1.184-.632 4.7 4.7 0 0 1 1.44-.216q.8 0 1.464.24.664.232 1.136.664t.736 1.04.264 1.352q0 .64-.192 1.184a4.7 4.7 0 0 1-.504 1.04 6.7 6.7 0 0 1-.736.96 49 49 0 0 1-.888.944l-2.608 2.664a5.4 5.4 0 0 1 .744-.168q.376-.064.712-.064zm2.297-6.504q.12-.832.464-1.456.345-.632.856-1.048a3.5 3.5 0 0 1 1.184-.632 4.7 4.7 0 0 1 1.44-.216q.801 0 1.44.232.648.224 1.104.632.456.4.696.944.249.544.248 1.176 0 .552-.128.976a2.3 2.3 0 0 1-.352.728 2.1 2.1 0 0 1-.576.528 3.6 3.6 0 0 1-.776.36q1.04.328 1.552 1t.512 1.688q0 .864-.32 1.528a3.3 3.3 0 0 1-.864 1.12 3.8 3.8 0 0 1-1.264.68 4.8 4.8 0 0 1-1.512.232q-.872 0-1.52-.2a3.3 3.3 0 0 1-1.128-.592 3.6 3.6 0 0 1-.816-.96 6.5 6.5 0 0 1-.576-1.312l.872-.36q.345-.144.64-.072.305.064.44.32.144.28.312.552.176.272.416.488.24.208.56.344.329.128.776.128.505 0 .88-.16.376-.168.624-.432.256-.264.376-.584a1.8 1.8 0 0 0 .128-.656q0-.416-.088-.752a1.1 1.1 0 0 0-.368-.584q-.28-.24-.808-.376-.52-.136-1.4-.136v-1.408q.728-.008 1.208-.136t.76-.352q.289-.232.4-.552t.112-.704q0-.816-.456-1.24t-1.216-.424q-.351 0-.648.104a1.77 1.77 0 0 0-1.168 1.224q-.135.368-.36.488-.216.12-.616.056zm14.402 1.736a.6.6 0 0 1-.168.184.5.5 0 0 1-.224.048.7.7 0 0 1-.312-.08 10 10 0 0 0-.376-.176 3 3 0 0 0-.496-.184 2.3 2.3 0 0 0-.648-.08q-.584 0-.92.248a.77.77 0 0 0-.328.648q0 .264.168.448.175.175.456.312.288.136.648.248.36.104.728.232.375.128.736.296.36.16.64.416.288.248.456.6.176.352.176.848 0 .592-.216 1.096a2.4 2.4 0 0 1-.624.864q-.417.36-1.032.568-.609.2-1.408.2-.424 0-.832-.08a4.477 4.477 0 0 1-1.464-.528 3.4 3.4 0 0 1-.552-.4l.456-.752a.64.64 0 0 1 .208-.208.6.6 0 0 1 .304-.072q.183 0 .344.104.168.104.384.224t.504.224q.296.104.744.104.351 0 .6-.08.255-.088.416-.224a.8.8 0 0 0 .24-.312.9.9 0 0 0 .08-.376.66.66 0 0 0-.176-.472 1.4 1.4 0 0 0-.456-.32 4 4 0 0 0-.648-.24q-.36-.113-.744-.24a8 8 0 0 1-.744-.296 2.7 2.7 0 0 1-.648-.44 2 2 0 0 1-.456-.648q-.168-.384-.168-.928 0-.504.2-.96t.584-.792q.392-.344.968-.544a4 4 0 0 1 1.344-.208q.848 0 1.544.28a3.5 3.5 0 0 1 1.16.736zM398.899 281.64v-3.784q0-.536.072-1.184l-3.592 4.968zm3.176 0v1.144q0 .16-.104.28-.104.112-.296.112h-1.056V286h-1.72v-2.824h-4.88a.55.55 0 0 1-.352-.12.56.56 0 0 1-.192-.312l-.208-1 5.48-7.32h1.872v7.216zm6.105 0v-3.784q0-.536.072-1.184l-3.592 4.968zm3.176 0v1.144a.4.4 0 0 1-.104.28q-.104.112-.296.112H409.9V286h-1.72v-2.824h-4.88a.55.55 0 0 1-.352-.12.56.56 0 0 1-.192-.312l-.208-1 5.48-7.32h1.872v7.216zm6.394-2.248a.6.6 0 0 1-.168.184.5.5 0 0 1-.224.048.7.7 0 0 1-.312-.08 10 10 0 0 0-.376-.176 3 3 0 0 0-.496-.184 2.3 2.3 0 0 0-.648-.08q-.584 0-.92.248a.77.77 0 0 0-.328.648q0 .264.168.448.175.175.456.312.288.136.648.248.36.104.728.232.375.128.736.296.36.16.64.416.288.248.456.6.176.352.176.848 0 .592-.216 1.096a2.4 2.4 0 0 1-.624.864q-.417.36-1.032.568-.609.2-1.408.2-.424 0-.832-.08a4.477 4.477 0 0 1-1.464-.528 3.4 3.4 0 0 1-.552-.4l.456-.752a.64.64 0 0 1 .208-.208.6.6 0 0 1 .304-.072q.183 0 .344.104.168.104.384.224t.504.224q.296.104.744.104.351 0 .6-.08.255-.088.416-.224a.8.8 0 0 0 .24-.312.9.9 0 0 0 .08-.376.66.66 0 0 0-.176-.472 1.4 1.4 0 0 0-.456-.32 4 4 0 0 0-.648-.24q-.36-.112-.744-.24a8 8 0 0 1-.744-.296 2.7 2.7 0 0 1-.648-.44 2 2 0 0 1-.456-.648q-.168-.384-.168-.928 0-.504.2-.96t.584-.792q.392-.344.968-.544a4 4 0 0 1 1.344-.208q.848 0 1.544.28a3.5 3.5 0 0 1 1.16.736z"/><path fill="#484941" d="M39.687 175.04h-3.592V185H34.23v-9.96h-3.6v-1.56h9.056zm3.846 6.392a10.4 10.4 0 0 0-1.552.152q-.632.112-1.024.296-.391.176-.568.424a.95.95 0 0 0-.168.544q0 .288.088.496.096.2.256.336.168.128.384.192.224.056.488.056.672 0 1.152-.248.488-.256.944-.736zm-4.56-3.456q1.384-1.288 3.296-1.288.704 0 1.248.232.552.224.92.64.375.416.568.992.2.568.2 1.264V185h-.768q-.247 0-.376-.072-.127-.08-.216-.312l-.168-.664a8 8 0 0 1-.616.504 4 4 0 0 1-.632.368 3 3 0 0 1-.696.224 4 4 0 0 1-.816.08q-.495 0-.928-.136a2.1 2.1 0 0 1-.736-.408 2 2 0 0 1-.496-.688 2.4 2.4 0 0 1-.176-.96q0-.472.248-.92.256-.448.832-.8.585-.36 1.528-.592.952-.233 2.344-.264v-.544q0-.88-.376-1.312t-1.104-.432q-.495 0-.832.128a3.5 3.5 0 0 0-.584.264 9 9 0 0 0-.44.272.76.76 0 0 1-.408.12.52.52 0 0 1-.304-.088.8.8 0 0 1-.2-.232zm9.87.376q.385-.776.929-1.216.544-.448 1.304-.448.264 0 .496.064.231.056.416.176l-.12 1.296q-.032.136-.104.192a.3.3 0 0 1-.176.048q-.12 0-.344-.04a2.3 2.3 0 0 0-.472-.048q-.36 0-.64.104a1.6 1.6 0 0 0-.496.304 2.1 2.1 0 0 0-.384.488 5 5 0 0 0-.312.656V185h-1.72v-8.16h1q.271 0 .376.104.104.096.144.344zM58.198 180a2.4 2.4 0 0 0-.128-.8q-.12-.377-.36-.648a1.6 1.6 0 0 0-.6-.432 1.95 1.95 0 0 0-.816-.16q-.936 0-1.472.536T54.14 180zm-4.104 1.056q.032.696.216 1.208.184.504.488.84.312.336.736.504.432.16.96.16a3 3 0 0 0 .872-.112q.368-.12.64-.256.272-.144.464-.256a.7.7 0 0 1 .352-.12q.208 0 .32.16l.488.632q-.304.36-.688.608a4.2 4.2 0 0 1-.816.408 4.6 4.6 0 0 1-.888.216 6 6 0 0 1-.888.072q-.848 0-1.576-.28a3.6 3.6 0 0 1-1.256-.84 3.9 3.9 0 0 1-.832-1.368q-.297-.816-.296-1.88 0-.847.264-1.584.271-.736.768-1.28a3.6 3.6 0 0 1 1.216-.856 4 4 0 0 1 1.624-.32q.752 0 1.392.248.64.24 1.104.712t.72 1.16q.264.68.264 1.552 0 .4-.088.536-.089.136-.32.136zm11.612.376q-.92.032-1.552.152-.633.112-1.024.296-.391.176-.568.424a.95.95 0 0 0-.168.544q0 .288.088.496.097.2.256.336.168.128.384.192.224.056.488.056.672 0 1.152-.248.488-.256.944-.736zm-4.56-3.456q1.383-1.288 3.296-1.288.704 0 1.248.232.552.224.92.64.376.416.568.992.2.568.2 1.264V185h-.768q-.247 0-.376-.072-.128-.08-.216-.312l-.168-.664a8 8 0 0 1-.616.504 4 4 0 0 1-.632.368 3 3 0 0 1-.696.224q-.367.08-.816.08-.495 0-.928-.136a2.1 2.1 0 0 1-.736-.408 2 2 0 0 1-.496-.688 2.4 2.4 0 0 1-.176-.96q0-.472.248-.92.255-.448.832-.8.584-.36 1.528-.592.952-.233 2.344-.264v-.544q0-.88-.376-1.312t-1.104-.432q-.495 0-.832.128a3.5 3.5 0 0 0-.584.264 9 9 0 0 0-.44.272.76.76 0 0 1-.408.12.52.52 0 0 1-.304-.088.8.8 0 0 1-.2-.232zm19.055 5.4q.28 0 .44.168.16.16.16.416V185h-7.792v-.584q0-.176.072-.368a1 1 0 0 1 .232-.352l3.584-3.592q.456-.456.808-.872.36-.416.608-.832a3.6 3.6 0 0 0 .384-.84 3 3 0 0 0 .136-.904q0-.456-.144-.8a1.5 1.5 0 0 0-.384-.576 1.5 1.5 0 0 0-.584-.344 2.2 2.2 0 0 0-.744-.12 2.11 2.11 0 0 0-1.32.424q-.256.2-.432.48a2 2 0 0 0-.248.6q-.12.328-.312.44-.184.112-.544.048l-.904-.16q.12-.816.448-1.432.336-.616.84-1.024.504-.415 1.152-.624.657-.216 1.416-.216.768 0 1.408.232.648.224 1.112.648.472.416.736 1.016t.264 1.352q0 .64-.192 1.184-.184.544-.504 1.04a7.3 7.3 0 0 1-.752.968q-.423.464-.896.944l-2.784 2.848q.345-.096.688-.152.352-.056.664-.056zM39.687 224.04h-3.592V234H34.23v-9.96h-3.6v-1.56h9.056zm3.846 6.392a10.4 10.4 0 0 0-1.552.152q-.632.112-1.024.296-.391.176-.568.424a.95.95 0 0 0-.168.544q0 .288.088.496.096.2.256.336.168.128.384.192.224.056.488.056.672 0 1.152-.248.488-.256.944-.736zm-4.56-3.456q1.384-1.288 3.296-1.288.704 0 1.248.232.552.224.92.64.375.416.568.992.2.568.2 1.264V234h-.768q-.247 0-.376-.072-.127-.08-.216-.312l-.168-.664a8 8 0 0 1-.616.504 4 4 0 0 1-.632.368 3 3 0 0 1-.696.224 4 4 0 0 1-.816.08q-.495 0-.928-.136a2.1 2.1 0 0 1-.736-.408 2 2 0 0 1-.496-.688 2.4 2.4 0 0 1-.176-.96q0-.472.248-.92.256-.448.832-.8.585-.36 1.528-.592.952-.233 2.344-.264v-.544q0-.88-.376-1.312t-1.104-.432q-.495 0-.832.128a3.5 3.5 0 0 0-.584.264 9 9 0 0 0-.44.272.76.76 0 0 1-.408.12.52.52 0 0 1-.304-.088.8.8 0 0 1-.2-.232zm9.87.376q.385-.776.929-1.216.544-.448 1.304-.448.264 0 .496.064.231.056.416.176l-.12 1.296q-.032.136-.104.192a.3.3 0 0 1-.176.048q-.12 0-.344-.04a2.3 2.3 0 0 0-.472-.048q-.36 0-.64.104a1.6 1.6 0 0 0-.496.304 2.1 2.1 0 0 0-.384.488 5 5 0 0 0-.312.656V234h-1.72v-8.16h1q.271 0 .376.104.104.096.144.344zM58.198 229a2.4 2.4 0 0 0-.128-.8q-.12-.377-.36-.648a1.6 1.6 0 0 0-.6-.432 1.95 1.95 0 0 0-.816-.16q-.936 0-1.472.536T54.14 229zm-4.104 1.056q.032.696.216 1.208.184.504.488.84.312.336.736.504.432.16.96.16a3 3 0 0 0 .872-.112q.368-.12.64-.256.272-.144.464-.256a.7.7 0 0 1 .352-.12q.208 0 .32.16l.488.632q-.304.36-.688.608a4.2 4.2 0 0 1-.816.408 4.6 4.6 0 0 1-.888.216 6 6 0 0 1-.888.072q-.848 0-1.576-.28a3.6 3.6 0 0 1-1.256-.84 3.9 3.9 0 0 1-.832-1.368q-.297-.816-.296-1.88 0-.847.264-1.584.271-.736.768-1.28a3.6 3.6 0 0 1 1.216-.856 4 4 0 0 1 1.624-.32q.752 0 1.392.248.64.24 1.104.712t.72 1.16q.264.68.264 1.552 0 .4-.088.536-.089.136-.32.136zm11.612.376q-.92.032-1.552.152-.633.112-1.024.296-.391.176-.568.424a.95.95 0 0 0-.168.544q0 .288.088.496.097.2.256.336.168.128.384.192.224.056.488.056.672 0 1.152-.248.488-.256.944-.736zm-4.56-3.456q1.383-1.288 3.296-1.288.704 0 1.248.232.552.224.92.64.376.416.568.992.2.568.2 1.264V234h-.768q-.247 0-.376-.072-.128-.08-.216-.312l-.168-.664a8 8 0 0 1-.616.504 4 4 0 0 1-.632.368 3 3 0 0 1-.696.224q-.367.08-.816.08-.495 0-.928-.136a2.1 2.1 0 0 1-.736-.408 2 2 0 0 1-.496-.688 2.4 2.4 0 0 1-.176-.96q0-.472.248-.92.255-.448.832-.8.584-.36 1.528-.592.952-.233 2.344-.264v-.544q0-.88-.376-1.312t-1.104-.432q-.495 0-.832.128a3.5 3.5 0 0 0-.584.264 9 9 0 0 0-.44.272.76.76 0 0 1-.408.12.52.52 0 0 1-.304-.088.8.8 0 0 1-.2-.232zm12.127-1.328q.12-.816.448-1.432.336-.616.84-1.024.504-.415 1.152-.624.657-.216 1.416-.216.768 0 1.392.224.633.216 1.08.608.456.392.696.936.248.544.248 1.192 0 .552-.136.976-.127.416-.376.736-.24.32-.592.536a3.7 3.7 0 0 1-.792.36q1.072.312 1.608 1 .537.68.536 1.712 0 .832-.312 1.48-.311.648-.848 1.096a3.7 3.7 0 0 1-1.24.688 4.7 4.7 0 0 1-1.496.232q-.888 0-1.536-.208a3.4 3.4 0 0 1-1.12-.608 3.5 3.5 0 0 1-.776-.96 6.6 6.6 0 0 1-.528-1.256l.744-.312a.9.9 0 0 1 .56-.072.54.54 0 0 1 .392.296q.127.256.288.552.16.288.408.536.256.24.624.408.376.16.92.16.552 0 .96-.176.417-.184.688-.464.28-.288.416-.64t.136-.696q0-.432-.104-.792a1.25 1.25 0 0 0-.408-.624q-.296-.256-.848-.4-.543-.152-1.432-.152v-1.24q.729-.008 1.224-.144.504-.144.8-.384.304-.248.432-.592.136-.344.136-.752 0-.44-.136-.776a1.5 1.5 0 0 0-.384-.56 1.5 1.5 0 0 0-.576-.344 2.3 2.3 0 0 0-.744-.112 2.11 2.11 0 0 0-1.32.424q-.256.2-.432.48a2 2 0 0 0-.256.6q-.112.328-.304.44-.184.112-.544.048zM39.687 273.04h-3.592V283H34.23v-9.96h-3.6v-1.56h9.056zm3.846 6.392a10.4 10.4 0 0 0-1.552.152q-.632.112-1.024.296-.391.176-.568.424a.95.95 0 0 0-.168.544q0 .288.088.496.096.2.256.336.168.127.384.192.224.056.488.056.672 0 1.152-.248.488-.256.944-.736zm-4.56-3.456q1.384-1.288 3.296-1.288.704 0 1.248.232.552.224.92.64.375.416.568.992.2.568.2 1.264V283h-.768q-.247 0-.376-.072-.127-.08-.216-.312l-.168-.664a8 8 0 0 1-.616.504 4 4 0 0 1-.632.368 3 3 0 0 1-.696.224 4 4 0 0 1-.816.08q-.495 0-.928-.136a2.1 2.1 0 0 1-.736-.408 2 2 0 0 1-.496-.688 2.4 2.4 0 0 1-.176-.96q0-.472.248-.92.256-.448.832-.8.585-.36 1.528-.592.952-.232 2.344-.264v-.544q0-.88-.376-1.312t-1.104-.432q-.495 0-.832.128a3.5 3.5 0 0 0-.584.264 9 9 0 0 0-.44.272.76.76 0 0 1-.408.12.52.52 0 0 1-.304-.088.8.8 0 0 1-.2-.232zm9.87.376q.385-.776.929-1.216.544-.448 1.304-.448.264 0 .496.064.231.056.416.176l-.12 1.296q-.032.137-.104.192a.3.3 0 0 1-.176.048q-.12 0-.344-.04a2.3 2.3 0 0 0-.472-.048q-.36 0-.64.104a1.6 1.6 0 0 0-.496.304 2.1 2.1 0 0 0-.384.488 5 5 0 0 0-.312.656V283h-1.72v-8.16h1q.271 0 .376.104.104.096.144.344zM58.198 278a2.4 2.4 0 0 0-.128-.8q-.12-.376-.36-.648a1.6 1.6 0 0 0-.6-.432 1.95 1.95 0 0 0-.816-.16q-.936 0-1.472.536T54.14 278zm-4.104 1.056q.032.696.216 1.208.184.504.488.84.312.336.736.504.432.16.96.16a3 3 0 0 0 .872-.112q.368-.12.64-.256.272-.144.464-.256a.7.7 0 0 1 .352-.12q.208 0 .32.16l.488.632q-.304.36-.688.608a4.2 4.2 0 0 1-.816.408 4.6 4.6 0 0 1-.888.216 6 6 0 0 1-.888.072q-.848 0-1.576-.28a3.6 3.6 0 0 1-1.256-.84 3.9 3.9 0 0 1-.832-1.368q-.297-.816-.296-1.88 0-.848.264-1.584.271-.736.768-1.28a3.6 3.6 0 0 1 1.216-.856 4 4 0 0 1 1.624-.32q.752 0 1.392.248.64.24 1.104.712t.72 1.16q.264.68.264 1.552 0 .4-.088.536-.089.136-.32.136zm11.612.376q-.92.032-1.552.152-.633.112-1.024.296-.391.176-.568.424a.95.95 0 0 0-.168.544q0 .288.088.496.097.2.256.336.168.127.384.192.224.056.488.056.672 0 1.152-.248.488-.256.944-.736zm-4.56-3.456q1.383-1.288 3.296-1.288.704 0 1.248.232.552.224.92.64.376.416.568.992.2.568.2 1.264V283h-.768q-.247 0-.376-.072-.128-.08-.216-.312l-.168-.664a8 8 0 0 1-.616.504 4 4 0 0 1-.632.368 3 3 0 0 1-.696.224q-.367.08-.816.08-.495 0-.928-.136a2.1 2.1 0 0 1-.736-.408 2 2 0 0 1-.496-.688 2.4 2.4 0 0 1-.176-.96q0-.472.248-.92.255-.448.832-.8.584-.36 1.528-.592.952-.232 2.344-.264v-.544q0-.88-.376-1.312t-1.104-.432q-.495 0-.832.128a3.5 3.5 0 0 0-.584.264 9 9 0 0 0-.44.272.76.76 0 0 1-.408.12.52.52 0 0 1-.304-.088.8.8 0 0 1-.2-.232zm16.951 2.768v-4.208q0-.504.072-1.104l-3.872 5.312zm3.088 0v.992a.35.35 0 0 1-.096.248q-.088.104-.272.104h-1.224V283h-1.496v-2.912h-4.984a.5.5 0 0 1-.32-.104.52.52 0 0 1-.168-.272l-.176-.88 5.528-7.36h1.616v7.272zM259.045 80.488a3 3 0 0 0 1.184-.224q.528-.224.888-.624.368-.4.56-.96.192-.568.192-1.256V70.48h1.864v6.944a5.3 5.3 0 0 1-.328 1.88 4.3 4.3 0 0 1-.928 1.496 4.4 4.4 0 0 1-1.48.984q-.864.352-1.952.352t-1.96-.352a4.4 4.4 0 0 1-1.472-.984 4.3 4.3 0 0 1-.936-1.496 5.4 5.4 0 0 1-.32-1.88V70.48h1.872v6.936q0 .688.192 1.256.192.56.552.968.36.4.88.624.528.225 1.192.224m11.477-5.168a.43.43 0 0 1-.144.16.4.4 0 0 1-.2.048.7.7 0 0 1-.296-.08 8 8 0 0 0-.376-.192 3 3 0 0 0-.512-.184 2.3 2.3 0 0 0-.68-.088q-.32 0-.584.08-.257.072-.44.216a.94.94 0 0 0-.272.328.85.85 0 0 0-.096.4.68.68 0 0 0 .176.48q.176.192.464.336.288.135.656.248t.752.24q.383.128.752.296.368.167.656.416.288.24.464.592.176.345.176.84 0 .576-.208 1.064a2.4 2.4 0 0 1-.608.848q-.4.36-1 .56-.592.2-1.36.2-.425 0-.824-.08a5 5 0 0 1-.752-.2 4.5 4.5 0 0 1-.664-.32 3.6 3.6 0 0 1-.544-.4l.4-.656a.49.49 0 0 1 .448-.256q.168 0 .328.112.168.105.384.232.224.127.536.24.312.104.776.104.384 0 .664-.088a1.4 1.4 0 0 0 .464-.256q.183-.16.272-.36a1.1 1.1 0 0 0 .088-.44.75.75 0 0 0-.176-.512 1.5 1.5 0 0 0-.472-.344 4 4 0 0 0-.664-.256 29 29 0 0 1-.752-.24 8 8 0 0 1-.76-.296 2.7 2.7 0 0 1-.664-.424 2 2 0 0 1-.464-.632q-.176-.376-.176-.912 0-.488.192-.928.2-.44.576-.776a2.8 2.8 0 0 1 .936-.528q.56-.2 1.288-.2.824 0 1.496.264t1.128.72zm8.992-1.48V82h-1.04q-.344 0-.44-.328l-.128-.76a5 5 0 0 1-.544.496 3.193 3.193 0 0 1-1.288.632q-.36.088-.776.088a2.9 2.9 0 0 1-1.184-.224 2.4 2.4 0 0 1-.864-.632 2.8 2.8 0 0 1-.52-.976 4.3 4.3 0 0 1-.176-1.264V73.84h1.72v5.192q0 .825.376 1.28.384.456 1.16.456.569 0 1.056-.256.496-.264.928-.72V73.84zm6.449 4.592q-.92.032-1.552.152-.633.112-1.024.296-.393.176-.568.424a.95.95 0 0 0-.168.544q0 .288.088.496.096.2.256.336.168.128.384.192.224.056.488.056.672 0 1.152-.248.488-.255.944-.736zm-4.56-3.456q1.383-1.288 3.296-1.288.704 0 1.248.232.551.225.92.64.376.416.568.992.2.568.2 1.264V82h-.768q-.249 0-.376-.072-.129-.08-.216-.312l-.168-.664a8 8 0 0 1-.616.504 4 4 0 0 1-.632.368 3 3 0 0 1-.696.224 4 4 0 0 1-.816.08q-.496 0-.928-.136a2.1 2.1 0 0 1-.736-.408 2 2 0 0 1-.496-.688 2.4 2.4 0 0 1-.176-.96q0-.472.248-.92.255-.448.832-.8.583-.36 1.528-.592.952-.232 2.344-.264v-.544q0-.88-.376-1.312-.377-.432-1.104-.432-.496 0-.832.128-.336.12-.584.264a8 8 0 0 0-.44.272.76.76 0 0 1-.408.12.52.52 0 0 1-.304-.088.8.8 0 0 1-.2-.232zm9.871.376q.384-.776.928-1.216.543-.448 1.304-.448.264 0 .496.064.231.056.416.176l-.12 1.296q-.032.136-.104.192a.3.3 0 0 1-.176.048q-.12 0-.344-.04a2.3 2.3 0 0 0-.472-.048q-.36 0-.64.104-.273.104-.496.304a2.1 2.1 0 0 0-.384.488q-.168.287-.312.656V82h-1.72v-8.16h1q.271 0 .376.104.103.096.144.344zm6.074-1.512V82h-1.72v-8.16zm.288-2.464q0 .232-.096.44a1.2 1.2 0 0 1-.248.368 1.3 1.3 0 0 1-.376.248 1.1 1.1 0 0 1-.448.088q-.233 0-.44-.088a1.3 1.3 0 0 1-.352-.248 1.3 1.3 0 0 1-.248-.368 1.1 1.1 0 0 1-.088-.44q0-.24.088-.448.096-.208.248-.36.151-.16.352-.248.207-.096.44-.096.24 0 .448.096.216.088.376.248.16.152.248.36.096.208.096.448m5.401 2.336q.905 0 1.632.296.736.296 1.248.84.52.544.8 1.32t.28 1.744-.28 1.744a3.8 3.8 0 0 1-.8 1.328 3.45 3.45 0 0 1-1.248.84 4.3 4.3 0 0 1-1.632.296 4.4 4.4 0 0 1-1.648-.296 3.6 3.6 0 0 1-1.248-.84 3.8 3.8 0 0 1-.8-1.328q-.28-.776-.28-1.744t.28-1.744.8-1.32a3.6 3.6 0 0 1 1.248-.84 4.4 4.4 0 0 1 1.648-.296m0 7.064q1.104 0 1.64-.736.544-.744.544-2.12t-.544-2.12q-.536-.752-1.64-.752-1.12 0-1.664.752-.544.744-.544 2.12t.544 2.12q.544.736 1.664.736m16.421-.4q.28 0 .44.168.16.16.16.416V82h-7.792v-.584q0-.176.072-.368a1 1 0 0 1 .232-.352l3.584-3.592q.456-.456.808-.872a6 6 0 0 0 .608-.832q.257-.416.384-.84.136-.433.136-.904 0-.456-.144-.8a1.5 1.5 0 0 0-.384-.576 1.5 1.5 0 0 0-.584-.344 2.2 2.2 0 0 0-.744-.12 2.3 2.3 0 0 0-.728.112 2.1 2.1 0 0 0-.592.312 1.9 1.9 0 0 0-.432.48 2 2 0 0 0-.248.6q-.12.328-.312.44-.184.112-.544.048l-.904-.16q.12-.816.448-1.432.336-.615.84-1.024.504-.415 1.152-.624a4.5 4.5 0 0 1 1.416-.216q.768 0 1.408.232.648.224 1.112.648.472.416.736 1.016t.264 1.352q0 .64-.192 1.184-.184.545-.504 1.04t-.752.968q-.424.465-.896.944l-2.784 2.848q.344-.096.688-.152.352-.056.664-.056z"/><path fill="#1E5078" d="M6.632 37.656q-.264.24-.576.448a4 4 0 0 1-1.472.624q-.425.096-.92.096a3.9 3.9 0 0 1-1.224-.184 2.7 2.7 0 0 1-.96-.52 2.3 2.3 0 0 1-.624-.824 2.54 2.54 0 0 1-.224-1.088q0-.608.176-1.032t.448-.728.592-.512q.32-.216.6-.4a3.5 3.5 0 0 0 .488-.368.76.76 0 0 0 .248-.456l.16-1.2H4.52l.12 1.32q.04.392-.128.664-.16.264-.432.472-.264.2-.584.384a5 5 0 0 0-.608.416q-.28.224-.472.528-.184.304-.184.76a1.27 1.27 0 0 0 .448.992q.216.176.504.272t.624.096q.464 0 .792-.112.336-.105.568-.24.233-.128.384-.24.152-.112.264-.112.24 0 .36.216zm-3.776-8.824q0-.233.08-.432.088-.208.232-.36.152-.151.352-.24a1.12 1.12 0 0 1 .872 0q.208.088.36.24a1.12 1.12 0 0 1 .328.792q0 .24-.088.44-.089.2-.24.352a1.1 1.1 0 0 1-.36.24q-.2.08-.432.08t-.44-.08a1.2 1.2 0 0 1-.352-.24 1.2 1.2 0 0 1-.232-.352 1.2 1.2 0 0 1-.08-.44m13.246 4.6q.153 0 .264.12l.744.808a4.8 4.8 0 0 1-1.728 1.312q-1.023.456-2.448.456-1.263 0-2.288-.432A5.1 5.1 0 0 1 8.91 34.48a5.5 5.5 0 0 1-1.112-1.864q-.384-1.08-.384-2.376t.408-2.376A5.5 5.5 0 0 1 8.982 26a5.2 5.2 0 0 1 1.792-1.216q1.049-.432 2.304-.432 1.248 0 2.2.408a5.4 5.4 0 0 1 1.664 1.072l-.616.872a.7.7 0 0 1-.152.152.4.4 0 0 1-.24.064q-.16 0-.368-.144a4 4 0 0 0-.52-.328 3.6 3.6 0 0 0-.792-.328q-.471-.152-1.184-.152-.823 0-1.512.288a3.3 3.3 0 0 0-1.184.84q-.495.552-.776 1.344-.272.792-.272 1.8 0 1.016.288 1.816.288.792.792 1.344.504.544 1.184.832.681.288 1.464.288.48 0 .856-.048.384-.056.704-.168.321-.12.6-.296.289-.175.568-.432a.48.48 0 0 1 .32-.144m9.06-5.592V36h-1.04q-.344 0-.44-.328l-.128-.76q-.256.272-.544.496-.279.224-.6.384t-.688.248a3.3 3.3 0 0 1-.776.088q-.671 0-1.184-.224-.511-.224-.864-.632a2.8 2.8 0 0 1-.52-.976 4.3 4.3 0 0 1-.176-1.264V27.84h1.72v5.192q0 .825.376 1.28.384.456 1.16.456.569 0 1.056-.256.496-.264.928-.72V27.84zm6.45 4.592q-.92.032-1.553.152-.631.112-1.024.296-.391.176-.568.424a.95.95 0 0 0-.168.544q0 .288.088.496.096.2.256.336.168.128.384.192.224.056.488.056.672 0 1.152-.248.488-.256.944-.736zm-4.56-3.456q1.383-1.288 3.295-1.288.705 0 1.248.232.552.225.92.64.376.416.568.992.2.568.2 1.264V36h-.768q-.247 0-.376-.072-.127-.08-.216-.312l-.168-.664a8 8 0 0 1-.616.504 4 4 0 0 1-.632.368 3 3 0 0 1-.696.224 4 4 0 0 1-.816.08q-.495 0-.928-.136a2.1 2.1 0 0 1-.736-.408 2 2 0 0 1-.496-.688 2.4 2.4 0 0 1-.176-.96q0-.472.248-.92.256-.448.832-.8.585-.36 1.528-.592.952-.232 2.344-.264v-.544q0-.88-.376-1.312t-1.104-.432q-.495 0-.832.128-.335.12-.584.264a9 9 0 0 0-.44.272.76.76 0 0 1-.408.12.52.52 0 0 1-.304-.088.8.8 0 0 1-.2-.232zm5.671-4.624-1.928 2.072a.8.8 0 0 1-.256.2.8.8 0 0 1-.32.056h-1.024l1.16-1.936a.84.84 0 0 1 .256-.296q.152-.096.44-.096zm4.183 4.568q.264-.272.544-.488.288-.224.608-.384t.68-.248.784-.088q.672 0 1.176.224.512.224.856.632.352.408.528.984.176.568.176 1.256V36h-1.712v-5.192q0-.824-.384-1.28-.376-.456-1.152-.456-.576 0-1.072.264a3.7 3.7 0 0 0-.92.72V36h-1.72v-8.16h1.04q.352 0 .448.328zm9.867 7.208q-1.016 0-1.568-.568-.544-.576-.544-1.616v-4.752h-.896a.37.37 0 0 1-.248-.088q-.104-.096-.104-.28v-.696l1.32-.192.376-2.36a.43.43 0 0 1 .136-.216.36.36 0 0 1 .256-.088h.88v2.68h2.264v1.24h-2.264v4.632q0 .44.216.672a.75.75 0 0 0 .576.232q.2 0 .344-.048.144-.056.248-.112.105-.064.176-.112a.27.27 0 0 1 .152-.056q.144 0 .232.16l.512.84a2.85 2.85 0 0 1-.944.544 3.5 3.5 0 0 1-1.12.184m6.694-8.416q.903 0 1.632.296.735.296 1.248.84.52.544.8 1.32t.28 1.744-.28 1.744a3.8 3.8 0 0 1-.8 1.328 3.5 3.5 0 0 1-1.248.84 4.3 4.3 0 0 1-1.632.296 4.4 4.4 0 0 1-1.648-.296 3.56 3.56 0 0 1-1.248-.84 3.8 3.8 0 0 1-.8-1.328 5.1 5.1 0 0 1-.28-1.744q0-.968.28-1.744a3.7 3.7 0 0 1 .8-1.32 3.56 3.56 0 0 1 1.248-.84 4.4 4.4 0 0 1 1.648-.296m0 7.064q1.103 0 1.64-.736.543-.744.544-2.12 0-1.376-.544-2.12-.537-.752-1.64-.752-1.12 0-1.664.752-.544.744-.544 2.12t.544 2.12q.543.736 1.664.736M70.984 36h-1.72v-6.808h-3.976v4.632q0 .44.216.672a.75.75 0 0 0 .576.232q.2 0 .344-.048.144-.056.248-.112.104-.064.176-.112A.27.27 0 0 1 67 34.4q.144 0 .232.16l.512.84a2.8 2.8 0 0 1-.944.544 3.5 3.5 0 0 1-1.12.184q-1.017 0-1.568-.568-.544-.576-.544-1.616v-4.752h-.896a.37.37 0 0 1-.248-.088q-.105-.096-.104-.28v-.696l1.32-.192.376-2.36a.43.43 0 0 1 .136-.216.36.36 0 0 1 .256-.088h.88v2.68h5.696zm.352-10.664q0 .232-.096.44a1.2 1.2 0 0 1-.248.36 1.3 1.3 0 0 1-.376.248 1.1 1.1 0 0 1-.44.088q-.233 0-.44-.088a1.4 1.4 0 0 1-.36-.248 1.4 1.4 0 0 1-.248-.36 1.1 1.1 0 0 1-.088-.44 1.14 1.14 0 0 1 .336-.816q.159-.16.36-.248.207-.096.44-.096.231 0 .44.096.216.088.376.248.16.152.248.368.096.208.096.448M78.509 31a2.4 2.4 0 0 0-.128-.8q-.12-.376-.36-.648-.24-.28-.6-.432a1.95 1.95 0 0 0-.816-.16q-.935 0-1.472.536T74.453 31zm-4.104 1.056q.033.696.216 1.208.185.504.488.84.313.336.736.504.432.16.96.16.504 0 .872-.112.369-.12.64-.256.273-.144.464-.256a.7.7 0 0 1 .352-.12q.209 0 .32.16l.488.632q-.303.36-.688.608a4.2 4.2 0 0 1-.816.408 4.6 4.6 0 0 1-.888.216 6 6 0 0 1-.888.072q-.847 0-1.576-.28A3.6 3.6 0 0 1 73.83 35a3.9 3.9 0 0 1-.832-1.368q-.296-.815-.296-1.88 0-.848.264-1.584.273-.735.768-1.28a3.6 3.6 0 0 1 1.216-.856q.72-.32 1.624-.32.753 0 1.392.248.64.24 1.104.712t.72 1.16q.264.68.264 1.552 0 .4-.088.536-.087.136-.32.136zM81.657 36v-8.16h1.04q.352 0 .448.328l.112.712q.225-.255.464-.464a2.8 2.8 0 0 1 1.104-.616q.32-.088.688-.088.393 0 .72.112.328.112.576.32.257.209.44.504.184.296.304.664.185-.424.464-.728.28-.304.624-.496.345-.192.728-.28.393-.096.792-.096.657 0 1.168.208.52.208.872.608.36.392.544.968t.184 1.312V36h-1.72v-5.192q0-.864-.376-1.296-.367-.44-1.096-.44-.328 0-.616.112a1.45 1.45 0 0 0-.848.872q-.12.32-.12.752V36h-1.72v-5.192q0-.896-.36-1.312-.36-.424-1.056-.424-.48 0-.888.248-.407.24-.752.664V36zm15.002-2.048q.36.465.784.656.432.184.952.184 1.007 0 1.568-.736.567-.735.568-2.192a5.5 5.5 0 0 0-.128-1.28q-.129-.536-.368-.872a1.4 1.4 0 0 0-.584-.488 1.9 1.9 0 0 0-.776-.152q-.657 0-1.136.288a3.2 3.2 0 0 0-.88.808zm-.088-4.928q.512-.6 1.16-.968.656-.368 1.52-.368.687 0 1.248.28.56.272.96.8.4.529.616 1.312.224.776.224 1.784 0 .904-.248 1.688a4.1 4.1 0 0 1-.696 1.352 3.3 3.3 0 0 1-1.104.896q-.648.32-1.464.32-.72 0-1.224-.232a3.2 3.2 0 0 1-.904-.64v3.464h-1.72V27.84h1.04q.351 0 .448.328zm10.927-1.312q.905 0 1.632.296.737.296 1.248.84.52.544.8 1.32t.28 1.744-.28 1.744a3.8 3.8 0 0 1-.8 1.328 3.45 3.45 0 0 1-1.248.84 4.3 4.3 0 0 1-1.632.296 4.4 4.4 0 0 1-1.648-.296 3.6 3.6 0 0 1-1.248-.84 3.8 3.8 0 0 1-.8-1.328q-.28-.776-.28-1.744t.28-1.744.8-1.32a3.6 3.6 0 0 1 1.248-.84 4.4 4.4 0 0 1 1.648-.296m0 7.064q1.104 0 1.64-.736.544-.744.544-2.12t-.544-2.12q-.536-.752-1.64-.752-1.12 0-1.664.752-.544.744-.544 2.12t.544 2.12q.544.736 1.664.736m12.213 1.352q-1.016 0-1.568-.568-.544-.576-.544-1.616v-4.752h-.896a.37.37 0 0 1-.248-.088q-.104-.096-.104-.28v-.696l1.32-.192.376-2.36a.43.43 0 0 1 .136-.216.36.36 0 0 1 .256-.088h.88v2.68h2.264v1.24h-2.264v4.632q0 .44.216.672a.75.75 0 0 0 .576.232q.2 0 .344-.048.144-.056.248-.112l.176-.112a.27.27 0 0 1 .152-.056q.144 0 .232.16l.512.84a2.8 2.8 0 0 1-.944.544 3.5 3.5 0 0 1-1.12.184m7.588-3.696q-.92.032-1.552.152-.633.112-1.024.296-.393.176-.568.424a.95.95 0 0 0-.168.544q0 .288.088.496.096.2.256.336.168.128.384.192.224.056.488.056.672 0 1.152-.248.488-.256.944-.736zm-4.56-3.456q1.383-1.288 3.296-1.288.703 0 1.248.232.551.225.92.64.376.416.568.992.2.568.2 1.264V36h-.768q-.249 0-.376-.072-.129-.08-.216-.312l-.168-.664a8 8 0 0 1-.616.504 4 4 0 0 1-.632.368 3 3 0 0 1-.696.224 4 4 0 0 1-.816.08q-.496 0-.928-.136a2.1 2.1 0 0 1-.736-.408 2 2 0 0 1-.496-.688 2.4 2.4 0 0 1-.176-.96q0-.472.248-.92.255-.448.832-.8.583-.36 1.528-.592.952-.232 2.344-.264v-.544q0-.88-.376-1.312-.377-.432-1.104-.432-.496 0-.832.128-.336.12-.584.264a8 8 0 0 0-.44.272.76.76 0 0 1-.408.12.52.52 0 0 1-.304-.088.8.8 0 0 1-.2-.232zm9.871.376q.384-.776.928-1.216.543-.448 1.304-.448.264 0 .496.064.231.056.416.176l-.12 1.296q-.032.136-.104.192a.3.3 0 0 1-.176.048q-.12 0-.344-.04a2.3 2.3 0 0 0-.472-.048q-.36 0-.64.104-.273.104-.496.304a2.1 2.1 0 0 0-.384.488q-.168.288-.312.656V36h-1.72v-8.16h1q.271 0 .376.104.103.096.144.344zm9.224.496q-.36-.464-.792-.648a2.4 2.4 0 0 0-.936-.184q-1.008 0-1.576.744-.568.736-.568 2.184 0 .751.128 1.288.128.528.368.864t.584.488a1.9 1.9 0 0 0 .776.152q.656 0 1.128-.28.48-.288.888-.808zm1.72-5.688V36h-1.04q-.344 0-.44-.328l-.152-.888q-.512.6-1.168.968-.648.368-1.512.368-.689 0-1.248-.272a2.7 2.7 0 0 1-.96-.808q-.4-.528-.624-1.304-.216-.784-.216-1.792 0-.912.24-1.688.248-.776.704-1.344a3.2 3.2 0 0 1 1.104-.896 3.2 3.2 0 0 1 1.464-.328q.72 0 1.224.232.504.224.904.632V24.16zm5.631 3.552q.904 0 1.632.296.737.296 1.248.84.52.544.8 1.32t.28 1.744-.28 1.744-.8 1.328a3.45 3.45 0 0 1-1.248.84 4.3 4.3 0 0 1-1.632.296 4.4 4.4 0 0 1-1.648-.296 3.6 3.6 0 0 1-1.248-.84 3.8 3.8 0 0 1-.8-1.328 5.1 5.1 0 0 1-.28-1.744q0-.968.28-1.744t.8-1.32a3.6 3.6 0 0 1 1.248-.84 4.4 4.4 0 0 1 1.648-.296m0 7.064q1.104 0 1.64-.736.544-.744.544-2.12t-.544-2.12q-.536-.752-1.64-.752-1.12 0-1.664.752-.543.744-.544 2.12 0 1.376.544 2.12.545.736 1.664.736m2.568-10.424-1.928 2.072a.75.75 0 0 1-.256.2.8.8 0 0 1-.32.056h-1.024l1.16-1.936a.84.84 0 0 1 .256-.296q.152-.096.44-.096zM164.134 31q0-.432-.128-.8-.12-.376-.36-.648-.24-.28-.6-.432a1.95 1.95 0 0 0-.816-.16q-.936 0-1.472.536t-.68 1.504zm-4.104 1.056q.033.696.216 1.208.185.504.488.84.313.336.736.504.432.16.96.16.504 0 .872-.112.369-.12.64-.256.272-.144.464-.256a.7.7 0 0 1 .352-.12q.209 0 .32.16l.488.632a3 3 0 0 1-.688.608 4.2 4.2 0 0 1-.816.408 4.6 4.6 0 0 1-.888.216 6 6 0 0 1-.888.072q-.847 0-1.576-.28a3.6 3.6 0 0 1-1.256-.84 3.9 3.9 0 0 1-.832-1.368q-.296-.815-.296-1.88 0-.848.264-1.584.273-.735.768-1.28a3.6 3.6 0 0 1 1.216-.856q.72-.32 1.624-.32.753 0 1.392.248.64.24 1.104.712t.72 1.16q.264.68.264 1.552 0 .4-.088.536-.087.136-.32.136zm8.86-3.136q.264-.272.544-.488.288-.224.608-.384t.68-.248a3.3 3.3 0 0 1 .784-.088q.672 0 1.176.224.513.224.856.632.352.408.528.984.177.568.176 1.256V36h-1.712v-5.192q0-.824-.384-1.28-.375-.456-1.152-.456-.576 0-1.072.264a3.7 3.7 0 0 0-.92.72V36h-1.72v-8.16h1.04q.352 0 .448.328zm17.114.52a1 1 0 0 1-.152.16.34.34 0 0 1-.208.056.54.54 0 0 1-.288-.096 5 5 0 0 0-.352-.208 2.5 2.5 0 0 0-.488-.216 2.3 2.3 0 0 0-.72-.096 2.3 2.3 0 0 0-.984.2 1.9 1.9 0 0 0-.704.576 2.6 2.6 0 0 0-.424.904q-.136.529-.136 1.192 0 .688.152 1.224t.432.904q.288.368.688.56.408.192.912.192.496 0 .808-.12t.52-.264q.207-.144.352-.264a.5.5 0 0 1 .32-.12q.207 0 .32.16l.488.632q-.297.36-.656.608t-.76.408a4 4 0 0 1-.832.216 5.3 5.3 0 0 1-.872.072q-.76 0-1.424-.28a3.4 3.4 0 0 1-1.152-.824 4.1 4.1 0 0 1-.776-1.32q-.28-.784-.28-1.784 0-.904.256-1.672.255-.776.744-1.336.495-.56 1.224-.872.727-.32 1.68-.32.888 0 1.56.288.68.288 1.208.816zm8.799-1.6V36h-1.04q-.344 0-.44-.328l-.128-.76a5 5 0 0 1-.544.496 3.193 3.193 0 0 1-1.288.632q-.36.088-.776.088a2.9 2.9 0 0 1-1.184-.224 2.4 2.4 0 0 1-.864-.632 2.8 2.8 0 0 1-.52-.976 4.3 4.3 0 0 1-.176-1.264V27.84h1.72v5.192q0 .825.376 1.28.384.456 1.16.456.569 0 1.056-.256.496-.264.928-.72V27.84zm2.089 8.16v-8.16h1.04q.351 0 .448.328l.112.712q.224-.255.464-.464a2.8 2.8 0 0 1 1.104-.616 2.6 2.6 0 0 1 .688-.088q.392 0 .72.112t.576.32q.255.209.44.504.184.296.304.664.183-.424.464-.728.279-.304.624-.496a2.7 2.7 0 0 1 .728-.28q.391-.096.792-.096.655 0 1.168.208.52.208.872.608.36.392.544.968t.184 1.312V36h-1.72v-5.192q0-.864-.376-1.296-.369-.44-1.096-.44-.328 0-.616.112a1.45 1.45 0 0 0-.848.872q-.12.32-.12.752V36h-1.72v-5.192q0-.896-.36-1.312-.36-.424-1.056-.424-.48 0-.888.248-.408.24-.752.664V36zm15.001-2.048q.36.465.784.656.432.184.952.184 1.008 0 1.568-.736.568-.735.568-2.192a5.5 5.5 0 0 0-.128-1.28q-.128-.536-.368-.872a1.4 1.4 0 0 0-.584-.488 1.9 1.9 0 0 0-.776-.152q-.656 0-1.136.288a3.2 3.2 0 0 0-.88.808zm-.088-4.928a4.3 4.3 0 0 1 1.16-.968q.656-.368 1.52-.368.689 0 1.248.28.56.272.96.8.4.529.616 1.312.224.776.224 1.784 0 .904-.248 1.688a4.1 4.1 0 0 1-.696 1.352 3.3 3.3 0 0 1-1.104.896q-.648.32-1.464.32-.72 0-1.224-.232a3.2 3.2 0 0 1-.904-.64v3.464h-1.72V27.84h1.04q.352 0 .448.328zm9.151-4.864V36h-1.72V24.16zm3.915 3.68V36h-1.72v-8.16zm.288-2.464q0 .232-.096.44a1.1 1.1 0 0 1-.248.368 1.3 1.3 0 0 1-.376.248 1.1 1.1 0 0 1-.448.088 1.1 1.1 0 0 1-.44-.088 1.3 1.3 0 0 1-.352-.248 1.4 1.4 0 0 1-.248-.368 1.15 1.15 0 0 1 0-.888 1.24 1.24 0 0 1 .6-.608 1.04 1.04 0 0 1 .44-.096q.24 0 .448.096.217.088.376.248.16.152.248.36.096.208.096.448m3.497 3.976q.385-.776.928-1.216.545-.448 1.304-.448.264 0 .496.064.233.056.416.176l-.12 1.296q-.032.136-.104.192a.3.3 0 0 1-.176.048q-.12 0-.344-.04a2.2 2.2 0 0 0-.472-.048q-.36 0-.64.104-.271.104-.496.304a2.1 2.1 0 0 0-.384.488q-.168.288-.312.656V36h-1.72v-8.16h1q.273 0 .376.104.105.096.144.344zm9.675-5.192V36h-1.72V24.16zm6.483 8.272q-.92.032-1.552.152-.631.112-1.024.296-.391.176-.568.424a.95.95 0 0 0-.168.544q0 .288.088.496.096.2.256.336.168.128.384.192.225.056.488.056.672 0 1.152-.248.488-.256.944-.736zm-4.56-3.456q1.385-1.288 3.296-1.288.705 0 1.248.232.552.225.92.64.376.416.568.992.2.568.2 1.264V36h-.768a.8.8 0 0 1-.376-.072q-.127-.08-.216-.312l-.168-.664a8 8 0 0 1-.616.504 4 4 0 0 1-.632.368 2.9 2.9 0 0 1-.696.224q-.368.08-.816.08-.495 0-.928-.136a2.1 2.1 0 0 1-.736-.408 2 2 0 0 1-.496-.688 2.4 2.4 0 0 1-.176-.96q0-.472.248-.92.256-.448.832-.8.585-.36 1.528-.592.952-.232 2.344-.264v-.544q0-.88-.376-1.312-.375-.432-1.104-.432-.496 0-.832.128-.336.12-.584.264a9 9 0 0 0-.44.272.76.76 0 0 1-.408.12.53.53 0 0 1-.304-.088.9.9 0 0 1-.2-.232zm14.848 7.152q-1.016 0-1.568-.568-.544-.576-.544-1.616v-4.752h-.896a.37.37 0 0 1-.248-.088q-.105-.096-.104-.28v-.696l1.32-.192.376-2.36a.43.43 0 0 1 .136-.216.36.36 0 0 1 .256-.088h.88v2.68h2.264v1.24h-2.264v4.632q0 .44.216.672a.75.75 0 0 0 .576.232q.2 0 .343-.048.145-.056.249-.112l.176-.112a.27.27 0 0 1 .152-.056q.144 0 .232.16l.512.84a2.9 2.9 0 0 1-.944.544 3.5 3.5 0 0 1-1.12.184m7.587-3.696q-.92.032-1.552.152-.631.112-1.024.296-.391.176-.568.424a.95.95 0 0 0-.168.544q0 .288.088.496.096.2.256.336.168.128.384.192.225.056.488.056.672 0 1.152-.248.488-.256.944-.736zm-4.56-3.456q1.385-1.288 3.296-1.288.705 0 1.248.232.552.225.92.64.376.416.568.992.2.568.2 1.264V36h-.768a.8.8 0 0 1-.376-.072q-.127-.08-.216-.312l-.168-.664a8 8 0 0 1-.616.504 4 4 0 0 1-.632.368 2.9 2.9 0 0 1-.696.224q-.368.08-.816.08-.495 0-.928-.136a2.1 2.1 0 0 1-.736-.408 2 2 0 0 1-.496-.688 2.4 2.4 0 0 1-.176-.96q0-.472.248-.92.256-.448.832-.8.585-.36 1.528-.592.952-.232 2.344-.264v-.544q0-.88-.376-1.312-.375-.432-1.104-.432-.495 0-.832.128-.335.12-.584.264a9 9 0 0 0-.44.272.76.76 0 0 1-.408.12.53.53 0 0 1-.304-.088.9.9 0 0 1-.2-.232zm9.871.376q.384-.776.928-1.216.544-.448 1.304-.448.264 0 .496.064.232.056.416.176l-.12 1.296q-.032.136-.104.192a.3.3 0 0 1-.176.048q-.12 0-.344-.04a2.3 2.3 0 0 0-.472-.048q-.36 0-.64.104-.272.104-.496.304a2.1 2.1 0 0 0-.384.488q-.168.288-.312.656V36h-1.72v-8.16h1q.272 0 .376.104.103.096.144.344zM277.353 31q0-.432-.128-.8-.12-.376-.36-.648-.24-.28-.6-.432a1.96 1.96 0 0 0-.816-.16q-.936 0-1.472.536t-.68 1.504zm-4.104 1.056q.032.696.216 1.208.184.504.488.84.312.336.736.504.432.16.96.16.504 0 .872-.112.368-.12.64-.256.272-.144.464-.256a.7.7 0 0 1 .352-.12q.208 0 .32.16l.488.632q-.304.36-.688.608a4.2 4.2 0 0 1-.816.408 4.6 4.6 0 0 1-.888.216 6 6 0 0 1-.888.072 4.4 4.4 0 0 1-1.576-.28 3.6 3.6 0 0 1-1.256-.84 3.9 3.9 0 0 1-.832-1.368q-.296-.815-.296-1.88 0-.848.264-1.584.272-.735.768-1.28a3.6 3.6 0 0 1 1.216-.856q.72-.32 1.624-.32.752 0 1.392.248.64.24 1.104.712t.72 1.16q.264.68.264 1.552 0 .4-.088.536t-.32.136zm11.612.376a10.4 10.4 0 0 0-1.552.152q-.632.112-1.024.296-.392.176-.568.424a.95.95 0 0 0-.168.544q0 .288.088.496.096.2.256.336.168.128.384.192.224.056.488.056.672 0 1.152-.248.488-.256.944-.736zm-4.56-3.456q1.384-1.288 3.296-1.288.703 0 1.248.232.552.225.92.64.376.416.568.992.2.568.2 1.264V36h-.768q-.248 0-.376-.072-.127-.08-.216-.312l-.168-.664a8 8 0 0 1-.616.504 4 4 0 0 1-.632.368 2.9 2.9 0 0 1-.696.224q-.368.08-.816.08-.496 0-.928-.136a2.1 2.1 0 0 1-.736-.408 2 2 0 0 1-.496-.688 2.4 2.4 0 0 1-.176-.96q0-.472.248-.92.256-.448.832-.8.584-.36 1.528-.592.952-.232 2.344-.264v-.544q0-.88-.376-1.312-.377-.432-1.104-.432-.496 0-.832.128-.336.12-.584.264a9 9 0 0 0-.44.272.76.76 0 0 1-.408.12.52.52 0 0 1-.304-.088.8.8 0 0 1-.2-.232zm7.432-3.464q.264-.24.576-.448t.672-.368q.368-.16.792-.248a4.3 4.3 0 0 1 .928-.096q.664 0 1.216.192.56.184.96.536.408.345.632.84.224.487.224 1.096 0 .608-.176 1.056-.176.44-.448.768t-.592.576l-.608.456q-.28.208-.488.424a.86.86 0 0 0-.24.464l-.168 1.2h-1.168l-.12-1.32q-.04-.376.12-.648t.424-.512q.272-.24.592-.456.328-.225.608-.496.28-.272.472-.608t.192-.808q0-.312-.12-.56a1.2 1.2 0 0 0-.336-.432 1.6 1.6 0 0 0-.504-.272 2 2 0 0 0-.624-.096q-.472 0-.8.112a3 3 0 0 0-.56.248 3.5 3.5 0 0 0-.384.24.5.5 0 0 1-.256.104.39.39 0 0 1-.368-.216zm1.536 9.496q0-.233.08-.432a1.2 1.2 0 0 1 .232-.36q.152-.151.352-.24a1.12 1.12 0 0 1 .872 0 1.11 1.11 0 0 1 .688 1.032q0 .24-.088.44-.089.2-.24.352a1 1 0 0 1-.36.232 1.117 1.117 0 0 1-.872 0 1 1 0 0 1-.352-.232 1.2 1.2 0 0 1-.232-.352 1.2 1.2 0 0 1-.08-.44"/><path fill="#484941" d="M379.045 80.488a3 3 0 0 0 1.184-.224q.528-.224.888-.624.368-.4.56-.96.192-.568.192-1.256V70.48h1.864v6.944a5.3 5.3 0 0 1-.328 1.88 4.3 4.3 0 0 1-.928 1.496 4.4 4.4 0 0 1-1.48.984q-.864.352-1.952.352t-1.96-.352a4.4 4.4 0 0 1-1.472-.984 4.3 4.3 0 0 1-.936-1.496 5.4 5.4 0 0 1-.32-1.88V70.48h1.872v6.936q0 .688.192 1.256.192.56.552.968.36.4.88.624.528.225 1.192.224m11.477-5.168a.43.43 0 0 1-.144.16.4.4 0 0 1-.2.048.7.7 0 0 1-.296-.08 8 8 0 0 0-.376-.192 3 3 0 0 0-.512-.184 2.3 2.3 0 0 0-.68-.088q-.32 0-.584.08-.257.072-.44.216a.94.94 0 0 0-.272.328.85.85 0 0 0-.096.4.68.68 0 0 0 .176.48q.176.192.464.336.288.135.656.248t.752.24q.383.128.752.296.368.167.656.416.288.24.464.592.176.345.176.84 0 .576-.208 1.064a2.4 2.4 0 0 1-.608.848q-.4.36-1 .56-.592.2-1.36.2-.425 0-.824-.08a5 5 0 0 1-.752-.2 4.5 4.5 0 0 1-.664-.32 3.6 3.6 0 0 1-.544-.4l.4-.656a.49.49 0 0 1 .448-.256q.168 0 .328.112.168.105.384.232.224.127.536.24.312.104.776.104.384 0 .664-.088a1.4 1.4 0 0 0 .464-.256q.183-.16.272-.36a1.1 1.1 0 0 0 .088-.44.75.75 0 0 0-.176-.512 1.5 1.5 0 0 0-.472-.344 4 4 0 0 0-.664-.256 29 29 0 0 1-.752-.24 8 8 0 0 1-.76-.296 2.7 2.7 0 0 1-.664-.424 2 2 0 0 1-.464-.632q-.176-.376-.176-.912 0-.488.192-.928.2-.44.576-.776a2.8 2.8 0 0 1 .936-.528q.56-.2 1.288-.2.824 0 1.496.264t1.128.72zm8.992-1.48V82h-1.04q-.344 0-.44-.328l-.128-.76a5 5 0 0 1-.544.496 3.193 3.193 0 0 1-1.288.632q-.36.088-.776.088a2.9 2.9 0 0 1-1.184-.224 2.4 2.4 0 0 1-.864-.632 2.8 2.8 0 0 1-.52-.976 4.3 4.3 0 0 1-.176-1.264V73.84h1.72v5.192q0 .825.376 1.28.384.456 1.16.456.569 0 1.056-.256.496-.264.928-.72V73.84zm6.449 4.592q-.92.032-1.552.152-.633.112-1.024.296-.393.176-.568.424a.95.95 0 0 0-.168.544q0 .288.088.496.096.2.256.336.168.128.384.192.224.056.488.056.672 0 1.152-.248.488-.255.944-.736zm-4.56-3.456q1.383-1.288 3.296-1.288.703 0 1.248.232.551.225.92.64.376.416.568.992.2.568.2 1.264V82h-.768q-.249 0-.376-.072-.129-.08-.216-.312l-.168-.664a8 8 0 0 1-.616.504 4 4 0 0 1-.632.368 3 3 0 0 1-.696.224 4 4 0 0 1-.816.08q-.496 0-.928-.136a2.1 2.1 0 0 1-.736-.408 2 2 0 0 1-.496-.688 2.4 2.4 0 0 1-.176-.96q0-.472.248-.92.255-.448.832-.8.583-.36 1.528-.592.952-.232 2.344-.264v-.544q0-.88-.376-1.312t-1.104-.432q-.496 0-.832.128-.336.12-.584.264a8 8 0 0 0-.44.272.76.76 0 0 1-.408.12.52.52 0 0 1-.304-.088.8.8 0 0 1-.2-.232zm9.871.376q.384-.776.928-1.216.543-.448 1.304-.448.264 0 .496.064.231.056.416.176l-.12 1.296q-.032.136-.104.192a.3.3 0 0 1-.176.048q-.12 0-.344-.04a2.3 2.3 0 0 0-.472-.048q-.36 0-.64.104-.273.104-.496.304a2.1 2.1 0 0 0-.384.488q-.168.287-.312.656V82h-1.72v-8.16h1q.271 0 .376.104.103.096.144.344zm6.074-1.512V82h-1.72v-8.16zm.288-2.464q0 .232-.096.44a1.2 1.2 0 0 1-.248.368 1.3 1.3 0 0 1-.376.248 1.1 1.1 0 0 1-.448.088q-.233 0-.44-.088a1.3 1.3 0 0 1-.352-.248 1.3 1.3 0 0 1-.248-.368 1.1 1.1 0 0 1-.088-.44q0-.24.088-.448.096-.208.248-.36.151-.16.352-.248.207-.096.44-.096.24 0 .448.096.216.088.376.248.16.152.248.36.096.208.096.448m5.401 2.336q.905 0 1.632.296.736.296 1.248.84.52.544.8 1.32t.28 1.744-.28 1.744a3.8 3.8 0 0 1-.8 1.328 3.45 3.45 0 0 1-1.248.84 4.3 4.3 0 0 1-1.632.296 4.4 4.4 0 0 1-1.648-.296 3.6 3.6 0 0 1-1.248-.84 3.8 3.8 0 0 1-.8-1.328q-.28-.776-.28-1.744t.28-1.744.8-1.32a3.6 3.6 0 0 1 1.248-.84 4.4 4.4 0 0 1 1.648-.296m0 7.064q1.104 0 1.64-.736.544-.744.544-2.12t-.544-2.12q-.536-.752-1.64-.752-1.12 0-1.664.752-.544.744-.544 2.12t.544 2.12q.544.736 1.664.736m9.493-7.128q.12-.816.448-1.432.336-.615.84-1.024.504-.415 1.152-.624a4.5 4.5 0 0 1 1.416-.216q.768 0 1.392.224.632.216 1.08.608.456.391.696.936.248.544.248 1.192 0 .552-.136.976a2.3 2.3 0 0 1-.376.736q-.24.32-.592.536a3.7 3.7 0 0 1-.792.36q1.072.312 1.608 1 .536.68.536 1.712 0 .832-.312 1.48a3.25 3.25 0 0 1-.848 1.096 3.7 3.7 0 0 1-1.24.688 4.8 4.8 0 0 1-1.496.232q-.888 0-1.536-.208a3.4 3.4 0 0 1-1.12-.608 3.5 3.5 0 0 1-.776-.96 6.6 6.6 0 0 1-.528-1.256l.744-.312a.9.9 0 0 1 .56-.072.54.54 0 0 1 .392.296q.127.256.288.552.16.287.408.536.256.24.624.408.376.16.92.16.552 0 .96-.176.416-.184.688-.464a1.9 1.9 0 0 0 .416-.64q.136-.353.136-.696 0-.432-.104-.792a1.24 1.24 0 0 0-.408-.624q-.296-.256-.848-.4-.544-.152-1.432-.152v-1.24q.727-.008 1.224-.144.504-.144.8-.384a1.37 1.37 0 0 0 .432-.592q.136-.345.136-.752a2 2 0 0 0-.136-.776 1.5 1.5 0 0 0-.384-.56 1.5 1.5 0 0 0-.576-.344 2.3 2.3 0 0 0-.744-.112 2.3 2.3 0 0 0-.728.112 2.1 2.1 0 0 0-.592.312 1.9 1.9 0 0 0-.432.48 2 2 0 0 0-.256.6q-.112.328-.304.44-.184.112-.544.048zM490.304 76.352q.624 0 1.096-.16.48-.16.792-.448.32-.296.48-.712t.16-.928a2.4 2.4 0 0 0-.16-.904 1.7 1.7 0 0 0-.464-.68 2.05 2.05 0 0 0-.792-.424 3.7 3.7 0 0 0-1.112-.152h-1.712v4.408zm0-5.872q1.127 0 1.952.264.831.264 1.368.744a2.9 2.9 0 0 1 .808 1.144q.264.664.264 1.472 0 .824-.28 1.512a3.2 3.2 0 0 1-.832 1.176q-.552.488-1.376.768-.816.272-1.904.272h-1.712V82h-1.872V70.48zm7.345 4.872q.384-.776.928-1.216.543-.448 1.304-.448.264 0 .496.064.231.056.416.176l-.12 1.296q-.032.136-.104.192a.3.3 0 0 1-.176.048q-.12 0-.344-.04a2.3 2.3 0 0 0-.472-.048q-.36 0-.64.104-.273.104-.496.304a2.1 2.1 0 0 0-.384.488q-.168.287-.312.656V82h-1.72v-8.16h1q.271 0 .376.104.103.096.144.344zm7.529-1.64q.903 0 1.632.296.735.296 1.248.84.52.544.8 1.32a5.1 5.1 0 0 1 .28 1.744 5.1 5.1 0 0 1-.28 1.744q-.28.776-.8 1.328a3.5 3.5 0 0 1-1.248.84 4.3 4.3 0 0 1-1.632.296 4.4 4.4 0 0 1-1.648-.296 3.5 3.5 0 0 1-1.248-.84 3.8 3.8 0 0 1-.8-1.328q-.28-.776-.28-1.744t.28-1.744.8-1.32a3.5 3.5 0 0 1 1.248-.84 4.4 4.4 0 0 1 1.648-.296m0 7.064q1.103 0 1.64-.736.543-.744.544-2.12 0-1.376-.544-2.12-.537-.752-1.64-.752-1.12 0-1.664.752-.544.744-.544 2.12t.544 2.12q.543.736 1.664.736M510.79 82v-8.16h1.04q.352 0 .448.328l.112.712q.224-.255.464-.464a2.8 2.8 0 0 1 1.104-.616 2.6 2.6 0 0 1 .688-.088q.393 0 .72.112.328.112.576.32.257.208.44.504.184.296.304.664a2.519 2.519 0 0 1 1.088-1.224q.345-.192.728-.28.393-.096.792-.096.657 0 1.168.208.52.208.872.608.36.392.544.968t.184 1.312V82h-1.72v-5.192q0-.864-.376-1.296-.367-.44-1.096-.44-.327 0-.616.112a1.45 1.45 0 0 0-.848.872q-.12.32-.12.752V82h-1.72v-5.192q0-.896-.36-1.312-.36-.424-1.056-.424-.48 0-.888.248a2.8 2.8 0 0 0-.752.664V82zm18.633-5q0-.432-.128-.8-.12-.376-.36-.648-.24-.28-.6-.432a1.95 1.95 0 0 0-.816-.16q-.936 0-1.472.536t-.68 1.504zm-4.104 1.056q.033.696.216 1.208.185.504.488.84.313.336.736.504.432.16.96.16.504 0 .872-.112.369-.12.64-.256.273-.144.464-.256a.7.7 0 0 1 .352-.12q.209 0 .32.16l.488.632a3 3 0 0 1-.688.608 4.2 4.2 0 0 1-.816.408 4.6 4.6 0 0 1-.888.216 6 6 0 0 1-.888.072q-.847 0-1.576-.28a3.6 3.6 0 0 1-1.256-.84 3.9 3.9 0 0 1-.832-1.368q-.296-.816-.296-1.88 0-.848.264-1.584.273-.735.768-1.28a3.6 3.6 0 0 1 1.216-.856q.72-.32 1.624-.32.753 0 1.392.248.64.24 1.104.712t.72 1.16q.264.68.264 1.552 0 .4-.088.536-.087.136-.32.136zm12.46-2.208q-.36-.464-.792-.648a2.4 2.4 0 0 0-.936-.184q-1.008 0-1.576.744-.568.736-.568 2.184 0 .751.128 1.288.128.528.368.864t.584.488q.345.152.776.152.657 0 1.128-.28.48-.288.888-.808zm1.72-5.688V82h-1.04q-.344 0-.44-.328l-.152-.888q-.511.6-1.168.968-.648.368-1.512.368-.687 0-1.248-.272a2.7 2.7 0 0 1-.96-.808q-.399-.528-.624-1.304-.216-.784-.216-1.792 0-.912.24-1.688.249-.775.704-1.344a3.2 3.2 0 0 1 1.104-.896 3.2 3.2 0 0 1 1.464-.328q.72 0 1.224.232.505.225.904.632V70.16zm3.896 3.68V82h-1.72v-8.16zm.288-2.464q0 .232-.096.44a1.2 1.2 0 0 1-.248.368 1.3 1.3 0 0 1-.376.248 1.1 1.1 0 0 1-.448.088q-.233 0-.44-.088a1.3 1.3 0 0 1-.352-.248 1.3 1.3 0 0 1-.248-.368 1.1 1.1 0 0 1-.088-.44q0-.24.088-.448.095-.208.248-.36.151-.16.352-.248.207-.096.44-.096.24 0 .448.096.216.088.376.248.16.152.248.36.096.208.096.448m5.401 2.336q.903 0 1.632.296.735.296 1.248.84.52.544.8 1.32a5.1 5.1 0 0 1 .28 1.744 5.1 5.1 0 0 1-.28 1.744q-.28.776-.8 1.328a3.5 3.5 0 0 1-1.248.84 4.3 4.3 0 0 1-1.632.296 4.4 4.4 0 0 1-1.648-.296 3.5 3.5 0 0 1-1.248-.84 3.8 3.8 0 0 1-.8-1.328q-.28-.776-.28-1.744t.28-1.744.8-1.32a3.5 3.5 0 0 1 1.248-.84 4.4 4.4 0 0 1 1.648-.296m0 7.064q1.104 0 1.64-.736.543-.744.544-2.12 0-1.376-.544-2.12-.537-.752-1.64-.752-1.12 0-1.664.752-.544.744-.544 2.12t.544 2.12q.543.736 1.664.736"/><path stroke="#000" d="M2.5 53.5h575v249H2.5zM2 102.5h576M128.5 53v250M578 153.5H2M578 203.5H2M578 253.5H2M230.5 53v250M350.5 53v250M462.5 53v250"/><path fill="#1E5078" d="m6.112 4 2.784 7.008.448 1.2h.048l.448-1.2L12.64 4h2.976v12h-2.464V9.888l.032-1.296-.048-.016-.448 1.216L10.224 16H8.432L5.984 9.808l-.448-1.216-.032.016.016 1.296V16H3.136V4zm15.39 12.176q-2.512 0-3.68-1.296-1.152-1.312-1.152-3.856 0-2.32 1.04-3.6 1.04-1.296 3.232-1.296 1.855 0 2.928 1.104t1.072 3.408q0 .272-.016.592t-.048.576H19.23q.096 1.216.704 1.728.624.496 1.872.496 1.344 0 2.592-.48l.272 2a7.2 7.2 0 0 1-1.424.448 8.3 8.3 0 0 1-1.744.176m1.168-6.016q-.032-1.072-.48-1.52-.449-.448-1.232-.448-.896 0-1.296.464-.4.448-.48 1.504zm.768-6.976-1.92 2.32h-1.872l.944-2.32zm5.218 4.976v4.96q0 .56.288.816t.864.256q.191 0 .416-.032a1.7 1.7 0 0 0 .352-.08l.144 1.808q-.257.113-.704.192-.449.08-.96.08-1.456 0-2.176-.784-.704-.784-.704-2.176V8.16h-1.088V6.304h1.2l.416-2.192 1.952-.176v2.368h2.16V8.16zM31.54 16V6.368l1.984-.096.224 1.616h.048q.465-.88 1.136-1.312a2.8 2.8 0 0 1 1.52-.432q.32 0 .592.048.272.031.464.096l-.16 2.448a2.3 2.3 0 0 0-.496-.112 3 3 0 0 0-.56-.048q-.976 0-1.616.672t-.64 1.888V16zm6.976 0V6.368l2.544-.112V16zm2.688-11.792q0 .528-.336.8-.336.256-1.072.256-.72 0-1.072-.224-.352-.24-.352-.832 0-1.072 1.424-1.072.736 0 1.072.272t.336.8m7.685 4.464a5.5 5.5 0 0 0-.8-.208 4 4 0 0 0-.848-.096q-.672 0-1.136.16-.465.144-.752.48-.271.32-.4.864a6.4 6.4 0 0 0-.112 1.296q0 1.568.608 2.24.609.656 1.744.656.976 0 1.76-.368l.176 1.936q-.432.272-1.072.416a6.3 6.3 0 0 1-1.408.144q-2.16 0-3.28-1.232-1.104-1.232-1.104-3.792 0-1.2.256-2.128.255-.944.784-1.584a3.5 3.5 0 0 1 1.376-.976q.849-.336 2.016-.336.608 0 1.232.128.64.112 1.104.288zm6.277 6.4-.048-.016a3 3 0 0 1-1.12.816q-.673.288-1.504.288-1.376 0-2.192-.784-.816-.8-.816-2.432 0-.672.224-1.232a2.6 2.6 0 0 1 .672-.944 3.2 3.2 0 0 1 1.088-.624q.64-.225 1.472-.224.544 0 1.008.08.465.064.848.192v-.56q0-.735-.416-1.072-.416-.352-1.424-.352a7 7 0 0 0-1.408.128 8 8 0 0 0-1.264.4l-.208-1.984a7.5 7.5 0 0 1 1.552-.48 9.4 9.4 0 0 1 1.776-.16q1.073 0 1.808.24.735.224 1.184.704.464.48.656 1.216.208.736.208 1.728v6H55.36zM54.8 11.84a2.4 2.4 0 0 0-.528-.144 5 5 0 0 0-.848-.064q-1.616 0-1.616 1.28 0 .72.384 1.008.384.272.992.272.32 0 .608-.08.288-.097.512-.256.225-.16.352-.352a.77.77 0 0 0 .144-.448zm10.161 1.12q0 .72-.208 1.328a2.6 2.6 0 0 1-.656 1.024q-.448.416-1.152.656-.705.224-1.68.224a7.6 7.6 0 0 1-1.664-.176 4.9 4.9 0 0 1-1.376-.496l.256-2.048q.608.352 1.376.528.768.16 1.392.16.752 0 1.072-.272a.86.86 0 0 0 .336-.704.66.66 0 0 0-.336-.592 3.4 3.4 0 0 0-.832-.384q-.495-.176-1.088-.352a4.7 4.7 0 0 1-1.072-.512 2.8 2.8 0 0 1-.832-.832q-.336-.527-.336-1.376 0-.655.224-1.2.224-.56.672-.944.464-.4 1.152-.624t1.632-.224q.735 0 1.44.144.705.127 1.312.384l-.208 2.032a5.7 5.7 0 0 0-1.328-.368 7.3 7.3 0 0 0-1.264-.128q-.608 0-.944.224a.69.69 0 0 0-.32.592q0 .367.32.576.336.192.832.352t1.056.336q.576.176 1.072.496.496.304.816.832.336.512.336 1.344M75.595 16l-.24-.832-.048-.016a2.8 2.8 0 0 1-1.072.784q-.64.256-1.52.256-1.888 0-2.8-1.232t-.912-3.856q0-2.4.912-3.696t2.768-1.296q1.392 0 2.368.88l.032-.032-.032-1.28V3.552l2.48-.128V16zm-.544-6.928a1.65 1.65 0 0 0-.656-.528 2.16 2.16 0 0 0-.976-.208q-.512 0-.864.144a1.25 1.25 0 0 0-.576.48q-.225.336-.32.896a8 8 0 0 0-.096 1.36q0 .848.08 1.424.096.56.304.912.224.336.576.48t.88.144q.688 0 1.072-.256.4-.255.576-.56zm8.27 7.104q-2.513 0-3.68-1.296-1.153-1.312-1.153-3.856 0-2.32 1.04-3.6 1.04-1.296 3.232-1.296 1.855 0 2.928 1.104t1.072 3.408q0 .272-.016.592-.015.32-.048.576h-5.648q.096 1.216.704 1.728.624.496 1.872.496 1.344 0 2.592-.48l.272 2a7.2 7.2 0 0 1-1.424.448 8.3 8.3 0 0 1-1.744.176m1.167-6.016q-.031-1.072-.48-1.52t-1.232-.448q-.896 0-1.296.464-.4.448-.48 1.504zm11.177 6.016q-2.512 0-3.68-1.296-1.152-1.312-1.152-3.856 0-2.32 1.04-3.6 1.04-1.296 3.232-1.296 1.856 0 2.928 1.104t1.072 3.408q0 .272-.016.592-.015.32-.048.576h-5.648q.096 1.216.704 1.728.624.496 1.872.496 1.344 0 2.592-.48l.272 2A7.2 7.2 0 0 1 97.41 16a8.3 8.3 0 0 1-1.744.176m1.168-6.016q-.031-1.072-.48-1.52t-1.232-.448q-.896 0-1.296.464-.4.448-.48 1.504zm6.083 5.84h-2.48V8.144h-1.217v-1.84h1.217v-.416q0-.544.192-1.024.192-.495.592-.848a3 3 0 0 1 1.04-.576q.64-.208 1.504-.208.415 0 .784.048.368.032.624.112l-.064 1.632a4 4 0 0 0-.816-.08q-.769 0-1.072.272t-.304.736v.352h6.016V16h-2.528V8.144h-3.488zm6.192-11.808q0 .544-.336.816-.336.256-1.088.256-.72 0-1.072-.24-.336-.24-.336-.832 0-1.072 1.408-1.072.752 0 1.088.288.336.272.336.784m7.679 4.48a5.5 5.5 0 0 0-.8-.208 4 4 0 0 0-.848-.096q-.672 0-1.136.16a1.6 1.6 0 0 0-.752.48q-.273.32-.4.864a6.3 6.3 0 0 0-.112 1.296q0 1.568.608 2.24.607.656 1.744.656.975 0 1.76-.368l.176 1.936q-.432.272-1.072.416a6.3 6.3 0 0 1-1.408.144q-2.16 0-3.28-1.232-1.104-1.232-1.104-3.792 0-1.2.256-2.128.255-.944.784-1.584a3.5 3.5 0 0 1 1.376-.976q.847-.336 2.016-.336.608 0 1.232.128.639.112 1.104.288zM118.133 16V6.368l2.544-.112V16zm2.688-11.792q0 .528-.336.8-.336.256-1.072.256-.72 0-1.072-.224-.352-.24-.352-.832 0-1.072 1.424-1.072.736 0 1.072.272t.336.8m5.894 11.968q-2.513 0-3.68-1.296-1.152-1.312-1.152-3.856 0-2.32 1.04-3.6 1.04-1.296 3.232-1.296 1.855 0 2.928 1.104t1.072 3.408q0 .272-.016.592a8 8 0 0 1-.048.576h-5.648q.096 1.216.704 1.728.624.496 1.872.496 1.344 0 2.592-.48l.272 2q-.609.271-1.424.448a8.3 8.3 0 0 1-1.744.176m1.168-6.016q-.033-1.072-.48-1.52-.449-.448-1.232-.448-.897 0-1.296.464-.4.448-.48 1.504zm8.862 5.84V9.824q0-.816-.4-1.152-.4-.352-1.168-.352-.463 0-.928.192-.447.192-.704.544V16h-2.496V6.352l1.792-.112.368.832q.544-.464 1.216-.704.688-.256 1.456-.256 1.552 0 2.448.944.897.944.896 2.768V16zm9.919-7.328a5.5 5.5 0 0 0-.8-.208 4 4 0 0 0-.848-.096q-.672 0-1.136.16-.464.144-.752.48-.272.32-.4.864a6.3 6.3 0 0 0-.112 1.296q0 1.568.608 2.24.608.656 1.744.656.976 0 1.76-.368l.176 1.936q-.432.272-1.072.416a6.3 6.3 0 0 1-1.408.144q-2.16 0-3.28-1.232-1.104-1.232-1.104-3.792 0-1.2.256-2.128.256-.944.784-1.584a3.5 3.5 0 0 1 1.376-.976q.847-.336 2.016-.336.608 0 1.232.128.64.112 1.104.288zM148.011 16V6.368l2.544-.112V16zm2.688-11.792q0 .528-.336.8-.337.256-1.072.256-.72 0-1.072-.224-.352-.24-.352-.832 0-1.072 1.424-1.072.736 0 1.072.272t.336.8m6.805 10.864-.048-.016a3 3 0 0 1-1.12.816 3.8 3.8 0 0 1-1.504.288q-1.376 0-2.192-.784-.816-.8-.816-2.432 0-.672.224-1.232a2.6 2.6 0 0 1 .672-.944 3.2 3.2 0 0 1 1.088-.624q.64-.225 1.472-.224.544 0 1.008.08.464.064.848.192v-.56q0-.735-.416-1.072-.416-.352-1.424-.352a7 7 0 0 0-1.408.128 8 8 0 0 0-1.264.4l-.208-1.984a7.5 7.5 0 0 1 1.552-.48 9.4 9.4 0 0 1 1.776-.16q1.072 0 1.808.24.736.224 1.184.704.464.48.656 1.216.208.736.208 1.728v6h-1.904zm-.368-3.232a2.4 2.4 0 0 0-.528-.144 5 5 0 0 0-.848-.064q-1.616 0-1.616 1.28 0 .72.384 1.008.384.272.992.272.32 0 .608-.08.288-.097.512-.256.224-.16.352-.352a.77.77 0 0 0 .144-.448z"/></svg>