<svg xmlns="http://www.w3.org/2000/svg" width="578" height="303" fill="none"><path fill="#1E5078" d="m6.112 4 2.784 7.008.448 1.2h.048l.448-1.2L12.64 4h2.976v12h-2.464V9.888l.032-1.296-.048-.016-.448 1.216L10.224 16H8.432L5.984 9.808l-.448-1.216-.032.016.016 1.296V16H3.136V4zm15.39 12.176q-2.512 0-3.68-1.296-1.152-1.312-1.152-3.856 0-2.32 1.04-3.6 1.04-1.296 3.232-1.296 1.855 0 2.928 1.104t1.072 3.408q0 .272-.016.592t-.048.576H19.23q.096 1.216.704 1.728.624.496 1.872.496 1.344 0 2.592-.48l.272 2a7.2 7.2 0 0 1-1.424.448 8.3 8.3 0 0 1-1.744.176m1.168-6.016q-.032-1.072-.48-1.52-.449-.448-1.232-.448-.896 0-1.296.464-.4.448-.48 1.504zm.768-6.976-1.92 2.32h-1.872l.944-2.32zm5.218 4.976v4.96q0 .56.288.816t.864.256q.191 0 .416-.032a1.7 1.7 0 0 0 .352-.08l.144 1.808q-.257.113-.704.192-.449.08-.96.08-1.456 0-2.176-.784-.704-.784-.704-2.176V8.16h-1.088V6.304h1.2l.416-2.192 1.952-.176v2.368h2.16V8.16zM31.54 16V6.368l1.984-.096.224 1.616h.048q.465-.88 1.136-1.312a2.8 2.8 0 0 1 1.52-.432q.32 0 .592.048.272.031.464.096l-.16 2.448a2.3 2.3 0 0 0-.496-.112 3 3 0 0 0-.56-.048q-.976 0-1.616.672t-.64 1.888V16zm6.976 0V6.368l2.544-.112V16zm2.688-11.792q0 .528-.336.8-.336.256-1.072.256-.72 0-1.072-.224-.352-.24-.352-.832 0-1.072 1.424-1.072.736 0 1.072.272t.336.8m7.685 4.464a5.5 5.5 0 0 0-.8-.208 4 4 0 0 0-.848-.096q-.672 0-1.136.16-.465.144-.752.48-.271.32-.4.864a6.4 6.4 0 0 0-.112 1.296q0 1.568.608 2.24.609.656 1.744.656.976 0 1.76-.368l.176 1.936q-.432.272-1.072.416a6.3 6.3 0 0 1-1.408.144q-2.16 0-3.28-1.232-1.104-1.232-1.104-3.792 0-1.2.256-2.128.255-.944.784-1.584a3.5 3.5 0 0 1 1.376-.976q.849-.336 2.016-.336.608 0 1.232.128.64.112 1.104.288zm6.277 6.4-.048-.016a3 3 0 0 1-1.12.816q-.673.288-1.504.288-1.376 0-2.192-.784-.816-.8-.816-2.432 0-.672.224-1.232a2.6 2.6 0 0 1 .672-.944 3.2 3.2 0 0 1 1.088-.624q.64-.225 1.472-.224.544 0 1.008.08.465.064.848.192v-.56q0-.735-.416-1.072-.416-.352-1.424-.352a7 7 0 0 0-1.408.128 8 8 0 0 0-1.264.4l-.208-1.984a7.5 7.5 0 0 1 1.552-.48 9.4 9.4 0 0 1 1.776-.16q1.073 0 1.808.24.735.224 1.184.704.464.48.656 1.216.208.736.208 1.728v6H55.36zM54.8 11.84a2.4 2.4 0 0 0-.528-.144 5 5 0 0 0-.848-.064q-1.616 0-1.616 1.28 0 .72.384 1.008.384.272.992.272.32 0 .608-.08.288-.097.512-.256.225-.16.352-.352a.77.77 0 0 0 .144-.448zm10.161 1.12q0 .72-.208 1.328a2.6 2.6 0 0 1-.656 1.024q-.448.416-1.152.656-.705.224-1.68.224a7.6 7.6 0 0 1-1.664-.176 4.9 4.9 0 0 1-1.376-.496l.256-2.048q.608.352 1.376.528.768.16 1.392.16.752 0 1.072-.272a.86.86 0 0 0 .336-.704.66.66 0 0 0-.336-.592 3.4 3.4 0 0 0-.832-.384q-.495-.176-1.088-.352a4.7 4.7 0 0 1-1.072-.512 2.8 2.8 0 0 1-.832-.832q-.336-.527-.336-1.376 0-.655.224-1.2.224-.56.672-.944.464-.4 1.152-.624t1.632-.224q.735 0 1.44.144.705.127 1.312.384l-.208 2.032a5.7 5.7 0 0 0-1.328-.368 7.3 7.3 0 0 0-1.264-.128q-.608 0-.944.224a.69.69 0 0 0-.32.592q0 .367.32.576.336.192.832.352t1.056.336q.576.176 1.072.496.496.304.816.832.336.512.336 1.344M75.595 16l-.24-.832-.048-.016a2.8 2.8 0 0 1-1.072.784q-.64.256-1.52.256-1.888 0-2.8-1.232t-.912-3.856q0-2.4.912-3.696t2.768-1.296q1.392 0 2.368.88l.032-.032-.032-1.28V3.552l2.48-.128V16zm-.544-6.928a1.65 1.65 0 0 0-.656-.528 2.16 2.16 0 0 0-.976-.208q-.512 0-.864.144a1.25 1.25 0 0 0-.576.48q-.225.336-.32.896a8 8 0 0 0-.096 1.36q0 .848.08 1.424.096.56.304.912.224.336.576.48t.88.144q.688 0 1.072-.256.4-.255.576-.56zm8.27 7.104q-2.513 0-3.68-1.296-1.153-1.312-1.153-3.856 0-2.32 1.04-3.6 1.04-1.296 3.232-1.296 1.855 0 2.928 1.104t1.072 3.408q0 .272-.016.592-.015.32-.048.576h-5.648q.096 1.216.704 1.728.624.496 1.872.496 1.344 0 2.592-.48l.272 2a7.2 7.2 0 0 1-1.424.448 8.3 8.3 0 0 1-1.744.176m1.167-6.016q-.031-1.072-.48-1.52t-1.232-.448q-.896 0-1.296.464-.4.448-.48 1.504zm11.177 6.016q-2.512 0-3.68-1.296-1.152-1.312-1.152-3.856 0-2.32 1.04-3.6 1.04-1.296 3.232-1.296 1.856 0 2.928 1.104t1.072 3.408q0 .272-.016.592-.015.32-.048.576h-5.648q.096 1.216.704 1.728.624.496 1.872.496 1.344 0 2.592-.48l.272 2A7.2 7.2 0 0 1 97.41 16a8.3 8.3 0 0 1-1.744.176m1.168-6.016q-.031-1.072-.48-1.52t-1.232-.448q-.896 0-1.296.464-.4.448-.48 1.504zm6.083 5.84h-2.48V8.144h-1.217v-1.84h1.217v-.416q0-.544.192-1.024.192-.495.592-.848a3 3 0 0 1 1.04-.576q.64-.208 1.504-.208.415 0 .784.048.368.032.624.112l-.064 1.632a4 4 0 0 0-.816-.08q-.769 0-1.072.272t-.304.736v.352h6.016V16h-2.528V8.144h-3.488zm6.192-11.808q0 .544-.336.816-.336.256-1.088.256-.72 0-1.072-.24-.336-.24-.336-.832 0-1.072 1.408-1.072.752 0 1.088.288.336.272.336.784m7.679 4.48a5.5 5.5 0 0 0-.8-.208 4 4 0 0 0-.848-.096q-.672 0-1.136.16a1.6 1.6 0 0 0-.752.48q-.273.32-.4.864a6.3 6.3 0 0 0-.112 1.296q0 1.568.608 2.24.607.656 1.744.656.975 0 1.76-.368l.176 1.936q-.432.272-1.072.416a6.3 6.3 0 0 1-1.408.144q-2.16 0-3.28-1.232-1.104-1.232-1.104-3.792 0-1.2.256-2.128.255-.944.784-1.584a3.5 3.5 0 0 1 1.376-.976q.847-.336 2.016-.336.608 0 1.232.128.639.112 1.104.288zm6.276 6.4-.048-.016a3 3 0 0 1-1.12.816 3.8 3.8 0 0 1-1.504.288q-1.376 0-2.192-.784-.816-.8-.816-2.432 0-.672.224-1.232a2.6 2.6 0 0 1 .672-.944 3.2 3.2 0 0 1 1.088-.624q.64-.225 1.472-.224.544 0 1.008.08.465.064.848.192v-.56q0-.735-.416-1.072-.416-.352-1.424-.352-.8 0-1.408.128a8 8 0 0 0-1.264.4l-.208-1.984a7.5 7.5 0 0 1 1.552-.48 9.4 9.4 0 0 1 1.776-.16q1.073 0 1.808.24.737.224 1.184.704.465.48.656 1.216.208.736.208 1.728v6h-1.904zm-.368-3.232a2.4 2.4 0 0 0-.528-.144 5 5 0 0 0-.848-.064q-1.616 0-1.616 1.28 0 .72.384 1.008.384.272.992.272.32 0 .608-.08.288-.097.512-.256.225-.16.352-.352a.77.77 0 0 0 .144-.448zm9.905-3.168a5.5 5.5 0 0 0-.8-.208 4 4 0 0 0-.848-.096q-.672 0-1.136.16-.464.144-.752.48-.271.32-.4.864a6.4 6.4 0 0 0-.112 1.296q0 1.568.608 2.24.609.656 1.744.656.977 0 1.76-.368l.176 1.936q-.432.272-1.072.416a6.3 6.3 0 0 1-1.408.144q-2.16 0-3.28-1.232-1.104-1.232-1.104-3.792 0-1.2.256-2.128.256-.944.784-1.584a3.5 3.5 0 0 1 1.376-.976q.849-.336 2.016-.336.609 0 1.232.128.64.112 1.104.288zM133.947 16V6.368l2.544-.112V16zm2.688-11.792q0 .528-.336.8-.336.256-1.072.256-.72 0-1.072-.224-.352-.24-.352-.832 0-1.072 1.424-1.072.736 0 1.072.272t.336.8m6.805 10.864-.048-.016a3 3 0 0 1-1.12.816 3.8 3.8 0 0 1-1.504.288q-1.376 0-2.192-.784-.816-.8-.816-2.432 0-.672.224-1.232a2.6 2.6 0 0 1 .672-.944 3.2 3.2 0 0 1 1.088-.624q.64-.225 1.472-.224.545 0 1.008.08.464.064.848.192v-.56q0-.735-.416-1.072-.416-.352-1.424-.352-.8 0-1.408.128a8 8 0 0 0-1.264.4l-.208-1.984a7.5 7.5 0 0 1 1.552-.48 9.4 9.4 0 0 1 1.776-.16q1.073 0 1.808.24.737.224 1.184.704.464.48.656 1.216.208.736.208 1.728v6h-1.904zm-.368-3.232a2.4 2.4 0 0 0-.528-.144 5 5 0 0 0-.848-.064q-1.616 0-1.616 1.28 0 .72.384 1.008.384.272.992.272.32 0 .608-.08.288-.097.512-.256.225-.16.352-.352a.77.77 0 0 0 .144-.448z"/><path fill="#484941" d="M150.045 80.488a3 3 0 0 0 1.184-.224q.528-.224.888-.624.368-.4.56-.96.192-.568.192-1.256V70.48h1.864v6.944a5.3 5.3 0 0 1-.328 1.88 4.3 4.3 0 0 1-.928 1.496 4.4 4.4 0 0 1-1.48.984q-.864.352-1.952.352t-1.96-.352a4.4 4.4 0 0 1-1.472-.984 4.3 4.3 0 0 1-.936-1.496 5.4 5.4 0 0 1-.32-1.88V70.48h1.872v6.936q0 .688.192 1.256.192.56.552.968.36.4.88.624.528.225 1.192.224m11.477-5.168a.43.43 0 0 1-.144.16.4.4 0 0 1-.2.048.7.7 0 0 1-.296-.08 8 8 0 0 0-.376-.192 3 3 0 0 0-.512-.184 2.3 2.3 0 0 0-.68-.088q-.32 0-.584.08-.257.072-.44.216a.94.94 0 0 0-.272.328.85.85 0 0 0-.096.4.68.68 0 0 0 .176.48q.176.192.464.336.288.135.656.248t.752.24q.383.128.752.296.368.167.656.416.288.24.464.592.176.345.176.84 0 .576-.208 1.064a2.4 2.4 0 0 1-.608.848q-.4.36-1 .56-.592.2-1.36.2-.425 0-.824-.08a5 5 0 0 1-.752-.2 4.5 4.5 0 0 1-.664-.32 3.6 3.6 0 0 1-.544-.4l.4-.656a.49.49 0 0 1 .448-.256q.168 0 .328.112.168.105.384.232.224.127.536.24.312.104.776.104.384 0 .664-.088a1.4 1.4 0 0 0 .464-.256q.183-.16.272-.36a1.1 1.1 0 0 0 .088-.44.75.75 0 0 0-.176-.512 1.5 1.5 0 0 0-.472-.344 4 4 0 0 0-.664-.256 29 29 0 0 1-.752-.24 8 8 0 0 1-.76-.296 2.7 2.7 0 0 1-.664-.424 2 2 0 0 1-.464-.632q-.176-.376-.176-.912 0-.488.192-.928.2-.44.576-.776a2.8 2.8 0 0 1 .936-.528q.56-.2 1.288-.2.824 0 1.496.264t1.128.72zm8.992-1.48V82h-1.04q-.344 0-.44-.328l-.128-.76a5 5 0 0 1-.544.496 3.193 3.193 0 0 1-1.288.632q-.36.088-.776.088a2.9 2.9 0 0 1-1.184-.224 2.4 2.4 0 0 1-.864-.632 2.8 2.8 0 0 1-.52-.976 4.3 4.3 0 0 1-.176-1.264V73.84h1.72v5.192q0 .825.376 1.28.384.456 1.16.456.568 0 1.056-.256.496-.264.928-.72V73.84zm6.449 4.592q-.92.032-1.552.152-.633.112-1.024.296-.393.176-.568.424a.95.95 0 0 0-.168.544q0 .288.088.496.096.2.256.336.168.128.384.192.224.056.488.056.672 0 1.152-.248.488-.255.944-.736zm-4.56-3.456q1.383-1.288 3.296-1.288.703 0 1.248.232.552.225.92.64.376.416.568.992.2.568.2 1.264V82h-.768q-.249 0-.376-.072-.129-.08-.216-.312l-.168-.664a8 8 0 0 1-.616.504 4 4 0 0 1-.632.368 3 3 0 0 1-.696.224 4 4 0 0 1-.816.08q-.496 0-.928-.136a2.1 2.1 0 0 1-.736-.408 2 2 0 0 1-.496-.688 2.4 2.4 0 0 1-.176-.96q0-.472.248-.92.255-.448.832-.8.583-.36 1.528-.592.952-.232 2.344-.264v-.544q0-.88-.376-1.312t-1.104-.432q-.496 0-.832.128-.336.12-.584.264a8 8 0 0 0-.44.272.76.76 0 0 1-.408.12.52.52 0 0 1-.304-.088.8.8 0 0 1-.2-.232zm9.871.376q.384-.776.928-1.216.543-.448 1.304-.448.264 0 .496.064.231.056.416.176l-.12 1.296q-.032.136-.104.192a.3.3 0 0 1-.176.048q-.12 0-.344-.04a2.3 2.3 0 0 0-.472-.048q-.36 0-.64.104-.273.104-.496.304a2.1 2.1 0 0 0-.384.488q-.168.287-.312.656V82h-1.72v-8.16h1q.271 0 .376.104.103.096.144.344zm6.074-1.512V82h-1.72v-8.16zm.288-2.464q0 .232-.096.44a1.2 1.2 0 0 1-.248.368 1.3 1.3 0 0 1-.376.248 1.1 1.1 0 0 1-.448.088q-.233 0-.44-.088a1.3 1.3 0 0 1-.352-.248 1.3 1.3 0 0 1-.248-.368 1.1 1.1 0 0 1-.088-.44q0-.24.088-.448.096-.208.248-.36.151-.16.352-.248.207-.096.44-.096.24 0 .448.096.216.088.376.248.16.152.248.36.096.208.096.448m5.401 2.336q.905 0 1.632.296.737.296 1.248.84.52.544.8 1.32t.28 1.744-.28 1.744a3.8 3.8 0 0 1-.8 1.328 3.45 3.45 0 0 1-1.248.84 4.3 4.3 0 0 1-1.632.296 4.4 4.4 0 0 1-1.648-.296 3.6 3.6 0 0 1-1.248-.84 3.8 3.8 0 0 1-.8-1.328q-.28-.776-.28-1.744t.28-1.744.8-1.32a3.6 3.6 0 0 1 1.248-.84 4.4 4.4 0 0 1 1.648-.296m0 7.064q1.104 0 1.64-.736.544-.744.544-2.12t-.544-2.12q-.536-.752-1.64-.752-1.12 0-1.664.752-.544.744-.544 2.12t.544 2.12q.544.736 1.664.736m16.765-.08V82h-6.28v-1.304h2.4V73.48q0-.384.024-.784l-1.848 1.56a.65.65 0 0 1-.248.128.6.6 0 0 1-.232 0 .8.8 0 0 1-.192-.072.6.6 0 0 1-.128-.12l-.536-.752 3.472-2.984h1.4v10.24zM39.687 126.04h-3.592V136H34.23v-9.96h-3.6v-1.56h9.056zm3.846 6.392a10.4 10.4 0 0 0-1.552.152q-.632.112-1.024.296-.391.176-.568.424a.95.95 0 0 0-.168.544q0 .288.088.496.096.2.256.336.168.127.384.192.224.056.488.056.672 0 1.152-.248.488-.256.944-.736zm-4.56-3.456q1.384-1.288 3.296-1.288.704 0 1.248.232.552.224.92.64.375.416.568.992.2.568.2 1.264V136h-.768q-.247 0-.376-.072-.127-.08-.216-.312l-.168-.664a8 8 0 0 1-.616.504 4 4 0 0 1-.632.368 3 3 0 0 1-.696.224 4 4 0 0 1-.816.08q-.495 0-.928-.136a2.1 2.1 0 0 1-.736-.408 2 2 0 0 1-.496-.688 2.4 2.4 0 0 1-.176-.96q0-.472.248-.92.256-.448.832-.8.585-.36 1.528-.592.952-.232 2.344-.264v-.544q0-.88-.376-1.312t-1.104-.432q-.495 0-.832.128a3.5 3.5 0 0 0-.584.264 9 9 0 0 0-.44.272.76.76 0 0 1-.408.12.52.52 0 0 1-.304-.088.8.8 0 0 1-.2-.232zm9.87.376q.385-.776.929-1.216.544-.448 1.304-.448.264 0 .496.064.231.056.416.176l-.12 1.296q-.032.137-.104.192a.3.3 0 0 1-.176.048q-.12 0-.344-.04a2.3 2.3 0 0 0-.472-.048q-.36 0-.64.104a1.6 1.6 0 0 0-.496.304 2.1 2.1 0 0 0-.384.488 5 5 0 0 0-.312.656V136h-1.72v-8.16h1q.271 0 .376.104.104.096.144.344zM58.198 131a2.4 2.4 0 0 0-.128-.8q-.12-.377-.36-.648a1.6 1.6 0 0 0-.6-.432 1.95 1.95 0 0 0-.816-.16q-.936 0-1.472.536T54.14 131zm-4.104 1.056q.032.696.216 1.208.184.504.488.84.312.336.736.504.432.16.96.16a3 3 0 0 0 .872-.112q.368-.12.64-.256.272-.144.464-.256a.7.7 0 0 1 .352-.12q.208 0 .32.16l.488.632q-.304.36-.688.608a4.2 4.2 0 0 1-.816.408 4.6 4.6 0 0 1-.888.216 6 6 0 0 1-.888.072q-.848 0-1.576-.28a3.6 3.6 0 0 1-1.256-.84 3.9 3.9 0 0 1-.832-1.368q-.297-.816-.296-1.88 0-.847.264-1.584.271-.736.768-1.28a3.6 3.6 0 0 1 1.216-.856 4 4 0 0 1 1.624-.32q.752 0 1.392.248.64.24 1.104.712t.72 1.16q.264.68.264 1.552 0 .4-.088.536-.089.136-.32.136zm11.612.376q-.92.032-1.552.152-.633.112-1.024.296-.391.176-.568.424a.95.95 0 0 0-.168.544q0 .288.088.496.097.2.256.336.168.127.384.192.224.056.488.056.672 0 1.152-.248.488-.256.944-.736zm-4.56-3.456q1.383-1.288 3.296-1.288.704 0 1.248.232.552.224.92.64.376.416.568.992.2.568.2 1.264V136h-.768q-.247 0-.376-.072-.128-.08-.216-.312l-.168-.664a8 8 0 0 1-.616.504 4 4 0 0 1-.632.368 3 3 0 0 1-.696.224q-.367.08-.816.08-.495 0-.928-.136a2.1 2.1 0 0 1-.736-.408 2 2 0 0 1-.496-.688 2.4 2.4 0 0 1-.176-.96q0-.472.248-.92.255-.448.832-.8.584-.36 1.528-.592.952-.232 2.344-.264v-.544q0-.88-.376-1.312t-1.104-.432q-.495 0-.832.128a3.5 3.5 0 0 0-.584.264 9 9 0 0 0-.44.272.76.76 0 0 1-.408.12.52.52 0 0 1-.304-.088.8.8 0 0 1-.2-.232zm19.4 5.72V136h-6.28v-1.304h2.4v-7.216q0-.384.023-.784l-1.848 1.56a.65.65 0 0 1-.248.128.6.6 0 0 1-.232 0 .8.8 0 0 1-.192-.072.5.5 0 0 1-.128-.12l-.536-.752 3.472-2.984h1.4v10.24zM39.687 175.04h-3.592V185H34.23v-9.96h-3.6v-1.56h9.056zm3.846 6.392a10.4 10.4 0 0 0-1.552.152q-.632.112-1.024.296-.391.176-.568.424a.95.95 0 0 0-.168.544q0 .288.088.496.096.2.256.336.168.128.384.192.224.056.488.056.672 0 1.152-.248.488-.256.944-.736zm-4.56-3.456q1.384-1.288 3.296-1.288.704 0 1.248.232.552.224.92.64.375.416.568.992.2.568.2 1.264V185h-.768q-.247 0-.376-.072-.127-.08-.216-.312l-.168-.664a8 8 0 0 1-.616.504 4 4 0 0 1-.632.368 3 3 0 0 1-.696.224 4 4 0 0 1-.816.08q-.495 0-.928-.136a2.1 2.1 0 0 1-.736-.408 2 2 0 0 1-.496-.688 2.4 2.4 0 0 1-.176-.96q0-.472.248-.92.256-.448.832-.8.585-.36 1.528-.592.952-.233 2.344-.264v-.544q0-.88-.376-1.312t-1.104-.432q-.495 0-.832.128a3.5 3.5 0 0 0-.584.264 9 9 0 0 0-.44.272.76.76 0 0 1-.408.12.52.52 0 0 1-.304-.088.8.8 0 0 1-.2-.232zm9.87.376q.385-.776.929-1.216.544-.448 1.304-.448.264 0 .496.064.231.056.416.176l-.12 1.296q-.032.136-.104.192a.3.3 0 0 1-.176.048q-.12 0-.344-.04a2.3 2.3 0 0 0-.472-.048q-.36 0-.64.104a1.6 1.6 0 0 0-.496.304 2.1 2.1 0 0 0-.384.488 5 5 0 0 0-.312.656V185h-1.72v-8.16h1q.271 0 .376.104.104.096.144.344zM58.198 180a2.4 2.4 0 0 0-.128-.8q-.12-.377-.36-.648a1.6 1.6 0 0 0-.6-.432 1.95 1.95 0 0 0-.816-.16q-.936 0-1.472.536T54.14 180zm-4.104 1.056q.032.696.216 1.208.184.504.488.84.312.336.736.504.432.16.96.16a3 3 0 0 0 .872-.112q.368-.12.64-.256.272-.144.464-.256a.7.7 0 0 1 .352-.12q.208 0 .32.16l.488.632q-.304.36-.688.608a4.2 4.2 0 0 1-.816.408 4.6 4.6 0 0 1-.888.216 6 6 0 0 1-.888.072q-.848 0-1.576-.28a3.6 3.6 0 0 1-1.256-.84 3.9 3.9 0 0 1-.832-1.368q-.297-.816-.296-1.88 0-.847.264-1.584.271-.736.768-1.28a3.6 3.6 0 0 1 1.216-.856 4 4 0 0 1 1.624-.32q.752 0 1.392.248.64.24 1.104.712t.72 1.16q.264.68.264 1.552 0 .4-.088.536-.089.136-.32.136zm11.612.376q-.92.032-1.552.152-.633.112-1.024.296-.391.176-.568.424a.95.95 0 0 0-.168.544q0 .288.088.496.097.2.256.336.168.128.384.192.224.056.488.056.672 0 1.152-.248.488-.256.944-.736zm-4.56-3.456q1.383-1.288 3.296-1.288.704 0 1.248.232.552.224.92.64.376.416.568.992.2.568.2 1.264V185h-.768q-.247 0-.376-.072-.128-.08-.216-.312l-.168-.664a8 8 0 0 1-.616.504 4 4 0 0 1-.632.368 3 3 0 0 1-.696.224q-.367.08-.816.08-.495 0-.928-.136a2.1 2.1 0 0 1-.736-.408 2 2 0 0 1-.496-.688 2.4 2.4 0 0 1-.176-.96q0-.472.248-.92.255-.448.832-.8.584-.36 1.528-.592.952-.233 2.344-.264v-.544q0-.88-.376-1.312t-1.104-.432q-.495 0-.832.128a3.5 3.5 0 0 0-.584.264 9 9 0 0 0-.44.272.76.76 0 0 1-.408.12.52.52 0 0 1-.304-.088.8.8 0 0 1-.2-.232zm19.055 5.4q.28 0 .44.168.16.16.16.416V185h-7.792v-.584q0-.176.072-.368a1 1 0 0 1 .232-.352l3.584-3.592q.456-.456.808-.872.36-.416.608-.832a3.6 3.6 0 0 0 .384-.84 3 3 0 0 0 .136-.904q0-.456-.144-.8a1.5 1.5 0 0 0-.384-.576 1.5 1.5 0 0 0-.584-.344 2.2 2.2 0 0 0-.744-.12 2.11 2.11 0 0 0-1.32.424q-.256.2-.432.48a2 2 0 0 0-.248.6q-.12.328-.312.44-.184.112-.544.048l-.904-.16q.12-.816.448-1.432.336-.616.84-1.024.504-.415 1.152-.624.657-.216 1.416-.216.768 0 1.408.232.648.224 1.112.648.472.416.736 1.016t.264 1.352q0 .64-.192 1.184-.184.544-.504 1.04a7.3 7.3 0 0 1-.752.968q-.423.464-.896.944l-2.784 2.848q.345-.096.688-.152.352-.056.664-.056zM39.687 224.04h-3.592V234H34.23v-9.96h-3.6v-1.56h9.056zm3.846 6.392a10.4 10.4 0 0 0-1.552.152q-.632.112-1.024.296-.391.176-.568.424a.95.95 0 0 0-.168.544q0 .288.088.496.096.2.256.336.168.128.384.192.224.056.488.056.672 0 1.152-.248.488-.256.944-.736zm-4.56-3.456q1.384-1.288 3.296-1.288.704 0 1.248.232.552.224.92.64.375.416.568.992.2.568.2 1.264V234h-.768q-.247 0-.376-.072-.127-.08-.216-.312l-.168-.664a8 8 0 0 1-.616.504 4 4 0 0 1-.632.368 3 3 0 0 1-.696.224 4 4 0 0 1-.816.08q-.495 0-.928-.136a2.1 2.1 0 0 1-.736-.408 2 2 0 0 1-.496-.688 2.4 2.4 0 0 1-.176-.96q0-.472.248-.92.256-.448.832-.8.585-.36 1.528-.592.952-.233 2.344-.264v-.544q0-.88-.376-1.312t-1.104-.432q-.495 0-.832.128a3.5 3.5 0 0 0-.584.264 9 9 0 0 0-.44.272.76.76 0 0 1-.408.12.52.52 0 0 1-.304-.088.8.8 0 0 1-.2-.232zm9.87.376q.385-.776.929-1.216.544-.448 1.304-.448.264 0 .496.064.231.056.416.176l-.12 1.296q-.032.136-.104.192a.3.3 0 0 1-.176.048q-.12 0-.344-.04a2.3 2.3 0 0 0-.472-.048q-.36 0-.64.104a1.6 1.6 0 0 0-.496.304 2.1 2.1 0 0 0-.384.488 5 5 0 0 0-.312.656V234h-1.72v-8.16h1q.271 0 .376.104.104.096.144.344zM58.198 229a2.4 2.4 0 0 0-.128-.8q-.12-.377-.36-.648a1.6 1.6 0 0 0-.6-.432 1.95 1.95 0 0 0-.816-.16q-.936 0-1.472.536T54.14 229zm-4.104 1.056q.032.696.216 1.208.184.504.488.84.312.336.736.504.432.16.96.16a3 3 0 0 0 .872-.112q.368-.12.64-.256.272-.144.464-.256a.7.7 0 0 1 .352-.12q.208 0 .32.16l.488.632q-.304.36-.688.608a4.2 4.2 0 0 1-.816.408 4.6 4.6 0 0 1-.888.216 6 6 0 0 1-.888.072q-.848 0-1.576-.28a3.6 3.6 0 0 1-1.256-.84 3.9 3.9 0 0 1-.832-1.368q-.297-.816-.296-1.88 0-.847.264-1.584.271-.736.768-1.28a3.6 3.6 0 0 1 1.216-.856 4 4 0 0 1 1.624-.32q.752 0 1.392.248.64.24 1.104.712t.72 1.16q.264.68.264 1.552 0 .4-.088.536-.089.136-.32.136zm11.612.376q-.92.032-1.552.152-.633.112-1.024.296-.391.176-.568.424a.95.95 0 0 0-.168.544q0 .288.088.496.097.2.256.336.168.128.384.192.224.056.488.056.672 0 1.152-.248.488-.256.944-.736zm-4.56-3.456q1.383-1.288 3.296-1.288.704 0 1.248.232.552.224.92.64.376.416.568.992.2.568.2 1.264V234h-.768q-.247 0-.376-.072-.128-.08-.216-.312l-.168-.664a8 8 0 0 1-.616.504 4 4 0 0 1-.632.368 3 3 0 0 1-.696.224q-.367.08-.816.08-.495 0-.928-.136a2.1 2.1 0 0 1-.736-.408 2 2 0 0 1-.496-.688 2.4 2.4 0 0 1-.176-.96q0-.472.248-.92.255-.448.832-.8.584-.36 1.528-.592.952-.233 2.344-.264v-.544q0-.88-.376-1.312t-1.104-.432q-.495 0-.832.128a3.5 3.5 0 0 0-.584.264 9 9 0 0 0-.44.272.76.76 0 0 1-.408.12.52.52 0 0 1-.304-.088.8.8 0 0 1-.2-.232zm12.127-1.328q.12-.816.448-1.432.336-.616.84-1.024.504-.415 1.152-.624.657-.216 1.416-.216.768 0 1.392.224.633.216 1.08.608.456.392.696.936.248.544.248 1.192 0 .552-.136.976-.127.416-.376.736-.24.32-.592.536a3.7 3.7 0 0 1-.792.36q1.072.312 1.608 1 .537.68.536 1.712 0 .832-.312 1.48-.311.648-.848 1.096a3.7 3.7 0 0 1-1.24.688 4.7 4.7 0 0 1-1.496.232q-.888 0-1.536-.208a3.4 3.4 0 0 1-1.12-.608 3.5 3.5 0 0 1-.776-.96 6.6 6.6 0 0 1-.528-1.256l.744-.312a.9.9 0 0 1 .56-.072.54.54 0 0 1 .392.296q.127.256.288.552.16.288.408.536.256.24.624.408.376.16.92.16.552 0 .96-.176.417-.184.688-.464.28-.288.416-.64t.136-.696q0-.432-.104-.792a1.25 1.25 0 0 0-.408-.624q-.296-.256-.848-.4-.543-.152-1.432-.152v-1.24q.729-.008 1.224-.144.504-.144.8-.384.304-.248.432-.592.136-.344.136-.752 0-.44-.136-.776a1.5 1.5 0 0 0-.384-.56 1.5 1.5 0 0 0-.576-.344 2.3 2.3 0 0 0-.744-.112 2.11 2.11 0 0 0-1.32.424q-.256.2-.432.48a2 2 0 0 0-.256.6q-.112.328-.304.44-.184.112-.544.048zM39.687 273.04h-3.592V283H34.23v-9.96h-3.6v-1.56h9.056zm3.846 6.392a10.4 10.4 0 0 0-1.552.152q-.632.112-1.024.296-.391.176-.568.424a.95.95 0 0 0-.168.544q0 .288.088.496.096.2.256.336.168.127.384.192.224.056.488.056.672 0 1.152-.248.488-.256.944-.736zm-4.56-3.456q1.384-1.288 3.296-1.288.704 0 1.248.232.552.224.92.64.375.416.568.992.2.568.2 1.264V283h-.768q-.247 0-.376-.072-.127-.08-.216-.312l-.168-.664a8 8 0 0 1-.616.504 4 4 0 0 1-.632.368 3 3 0 0 1-.696.224 4 4 0 0 1-.816.08q-.495 0-.928-.136a2.1 2.1 0 0 1-.736-.408 2 2 0 0 1-.496-.688 2.4 2.4 0 0 1-.176-.96q0-.472.248-.92.256-.448.832-.8.585-.36 1.528-.592.952-.232 2.344-.264v-.544q0-.88-.376-1.312t-1.104-.432q-.495 0-.832.128a3.5 3.5 0 0 0-.584.264 9 9 0 0 0-.44.272.76.76 0 0 1-.408.12.52.52 0 0 1-.304-.088.8.8 0 0 1-.2-.232zm9.87.376q.385-.776.929-1.216.544-.448 1.304-.448.264 0 .496.064.231.056.416.176l-.12 1.296q-.032.137-.104.192a.3.3 0 0 1-.176.048q-.12 0-.344-.04a2.3 2.3 0 0 0-.472-.048q-.36 0-.64.104a1.6 1.6 0 0 0-.496.304 2.1 2.1 0 0 0-.384.488 5 5 0 0 0-.312.656V283h-1.72v-8.16h1q.271 0 .376.104.104.096.144.344zM58.198 278a2.4 2.4 0 0 0-.128-.8q-.12-.376-.36-.648a1.6 1.6 0 0 0-.6-.432 1.95 1.95 0 0 0-.816-.16q-.936 0-1.472.536T54.14 278zm-4.104 1.056q.032.696.216 1.208.184.504.488.84.312.336.736.504.432.16.96.16a3 3 0 0 0 .872-.112q.368-.12.64-.256.272-.144.464-.256a.7.7 0 0 1 .352-.12q.208 0 .32.16l.488.632q-.304.36-.688.608a4.2 4.2 0 0 1-.816.408 4.6 4.6 0 0 1-.888.216 6 6 0 0 1-.888.072q-.848 0-1.576-.28a3.6 3.6 0 0 1-1.256-.84 3.9 3.9 0 0 1-.832-1.368q-.297-.816-.296-1.88 0-.848.264-1.584.271-.736.768-1.28a3.6 3.6 0 0 1 1.216-.856 4 4 0 0 1 1.624-.32q.752 0 1.392.248.64.24 1.104.712t.72 1.16q.264.68.264 1.552 0 .4-.088.536-.089.136-.32.136zm11.612.376q-.92.032-1.552.152-.633.112-1.024.296-.391.176-.568.424a.95.95 0 0 0-.168.544q0 .288.088.496.097.2.256.336.168.127.384.192.224.056.488.056.672 0 1.152-.248.488-.256.944-.736zm-4.56-3.456q1.383-1.288 3.296-1.288.704 0 1.248.232.552.224.92.64.376.416.568.992.2.568.2 1.264V283h-.768q-.247 0-.376-.072-.128-.08-.216-.312l-.168-.664a8 8 0 0 1-.616.504 4 4 0 0 1-.632.368 3 3 0 0 1-.696.224q-.367.08-.816.08-.495 0-.928-.136a2.1 2.1 0 0 1-.736-.408 2 2 0 0 1-.496-.688 2.4 2.4 0 0 1-.176-.96q0-.472.248-.92.255-.448.832-.8.584-.36 1.528-.592.952-.232 2.344-.264v-.544q0-.88-.376-1.312t-1.104-.432q-.495 0-.832.128a3.5 3.5 0 0 0-.584.264 9 9 0 0 0-.44.272.76.76 0 0 1-.408.12.52.52 0 0 1-.304-.088.8.8 0 0 1-.2-.232zm16.951 2.768v-4.208q0-.504.072-1.104l-3.872 5.312zm3.088 0v.992a.35.35 0 0 1-.096.248q-.088.104-.272.104h-1.224V283h-1.496v-2.912h-4.984a.5.5 0 0 1-.32-.104.52.52 0 0 1-.168-.272l-.176-.88 5.528-7.36h1.616v7.272zM259.045 80.488a3 3 0 0 0 1.184-.224q.528-.224.888-.624.368-.4.56-.96.192-.568.192-1.256V70.48h1.864v6.944a5.3 5.3 0 0 1-.328 1.88 4.3 4.3 0 0 1-.928 1.496 4.4 4.4 0 0 1-1.48.984q-.864.352-1.952.352t-1.96-.352a4.4 4.4 0 0 1-1.472-.984 4.3 4.3 0 0 1-.936-1.496 5.4 5.4 0 0 1-.32-1.88V70.48h1.872v6.936q0 .688.192 1.256.192.56.552.968.36.4.88.624.528.225 1.192.224m11.477-5.168a.43.43 0 0 1-.144.16.4.4 0 0 1-.2.048.7.7 0 0 1-.296-.08 8 8 0 0 0-.376-.192 3 3 0 0 0-.512-.184 2.3 2.3 0 0 0-.68-.088q-.32 0-.584.08-.257.072-.44.216a.94.94 0 0 0-.272.328.85.85 0 0 0-.096.4.68.68 0 0 0 .176.48q.176.192.464.336.288.135.656.248t.752.24q.383.128.752.296.368.167.656.416.288.24.464.592.176.345.176.84 0 .576-.208 1.064a2.4 2.4 0 0 1-.608.848q-.4.36-1 .56-.592.2-1.36.2-.425 0-.824-.08a5 5 0 0 1-.752-.2 4.5 4.5 0 0 1-.664-.32 3.6 3.6 0 0 1-.544-.4l.4-.656a.49.49 0 0 1 .448-.256q.168 0 .328.112.168.105.384.232.224.127.536.24.312.104.776.104.384 0 .664-.088a1.4 1.4 0 0 0 .464-.256q.183-.16.272-.36a1.1 1.1 0 0 0 .088-.44.75.75 0 0 0-.176-.512 1.5 1.5 0 0 0-.472-.344 4 4 0 0 0-.664-.256 29 29 0 0 1-.752-.24 8 8 0 0 1-.76-.296 2.7 2.7 0 0 1-.664-.424 2 2 0 0 1-.464-.632q-.176-.376-.176-.912 0-.488.192-.928.2-.44.576-.776a2.8 2.8 0 0 1 .936-.528q.56-.2 1.288-.2.824 0 1.496.264t1.128.72zm8.992-1.48V82h-1.04q-.344 0-.44-.328l-.128-.76a5 5 0 0 1-.544.496 3.193 3.193 0 0 1-1.288.632q-.36.088-.776.088a2.9 2.9 0 0 1-1.184-.224 2.4 2.4 0 0 1-.864-.632 2.8 2.8 0 0 1-.52-.976 4.3 4.3 0 0 1-.176-1.264V73.84h1.72v5.192q0 .825.376 1.28.384.456 1.16.456.569 0 1.056-.256.496-.264.928-.72V73.84zm6.449 4.592q-.92.032-1.552.152-.633.112-1.024.296-.393.176-.568.424a.95.95 0 0 0-.168.544q0 .288.088.496.096.2.256.336.168.128.384.192.224.056.488.056.672 0 1.152-.248.488-.255.944-.736zm-4.56-3.456q1.383-1.288 3.296-1.288.704 0 1.248.232.551.225.92.64.376.416.568.992.2.568.2 1.264V82h-.768q-.249 0-.376-.072-.129-.08-.216-.312l-.168-.664a8 8 0 0 1-.616.504 4 4 0 0 1-.632.368 3 3 0 0 1-.696.224 4 4 0 0 1-.816.08q-.496 0-.928-.136a2.1 2.1 0 0 1-.736-.408 2 2 0 0 1-.496-.688 2.4 2.4 0 0 1-.176-.96q0-.472.248-.92.255-.448.832-.8.583-.36 1.528-.592.952-.232 2.344-.264v-.544q0-.88-.376-1.312-.377-.432-1.104-.432-.496 0-.832.128-.336.12-.584.264a8 8 0 0 0-.44.272.76.76 0 0 1-.408.12.52.52 0 0 1-.304-.088.8.8 0 0 1-.2-.232zm9.871.376q.384-.776.928-1.216.543-.448 1.304-.448.264 0 .496.064.231.056.416.176l-.12 1.296q-.032.136-.104.192a.3.3 0 0 1-.176.048q-.12 0-.344-.04a2.3 2.3 0 0 0-.472-.048q-.36 0-.64.104-.273.104-.496.304a2.1 2.1 0 0 0-.384.488q-.168.287-.312.656V82h-1.72v-8.16h1q.271 0 .376.104.103.096.144.344zm6.074-1.512V82h-1.72v-8.16zm.288-2.464q0 .232-.096.44a1.2 1.2 0 0 1-.248.368 1.3 1.3 0 0 1-.376.248 1.1 1.1 0 0 1-.448.088q-.233 0-.44-.088a1.3 1.3 0 0 1-.352-.248 1.3 1.3 0 0 1-.248-.368 1.1 1.1 0 0 1-.088-.44q0-.24.088-.448.096-.208.248-.36.151-.16.352-.248.207-.096.44-.096.24 0 .448.096.216.088.376.248.16.152.248.36.096.208.096.448m5.401 2.336q.905 0 1.632.296.736.296 1.248.84.52.544.8 1.32t.28 1.744-.28 1.744a3.8 3.8 0 0 1-.8 1.328 3.45 3.45 0 0 1-1.248.84 4.3 4.3 0 0 1-1.632.296 4.4 4.4 0 0 1-1.648-.296 3.6 3.6 0 0 1-1.248-.84 3.8 3.8 0 0 1-.8-1.328q-.28-.776-.28-1.744t.28-1.744.8-1.32a3.6 3.6 0 0 1 1.248-.84 4.4 4.4 0 0 1 1.648-.296m0 7.064q1.104 0 1.64-.736.544-.744.544-2.12t-.544-2.12q-.536-.752-1.64-.752-1.12 0-1.664.752-.544.744-.544 2.12t.544 2.12q.544.736 1.664.736m16.421-.4q.28 0 .44.168.16.16.16.416V82h-7.792v-.584q0-.176.072-.368a1 1 0 0 1 .232-.352l3.584-3.592q.456-.456.808-.872a6 6 0 0 0 .608-.832q.257-.416.384-.84.136-.433.136-.904 0-.456-.144-.8a1.5 1.5 0 0 0-.384-.576 1.5 1.5 0 0 0-.584-.344 2.2 2.2 0 0 0-.744-.12 2.3 2.3 0 0 0-.728.112 2.1 2.1 0 0 0-.592.312 1.9 1.9 0 0 0-.432.48 2 2 0 0 0-.248.6q-.12.328-.312.44-.184.112-.544.048l-.904-.16q.12-.816.448-1.432.336-.615.84-1.024.504-.415 1.152-.624a4.5 4.5 0 0 1 1.416-.216q.768 0 1.408.232.648.224 1.112.648.472.416.736 1.016t.264 1.352q0 .64-.192 1.184-.184.545-.504 1.04t-.752.968q-.424.465-.896.944l-2.784 2.848q.344-.096.688-.152.352-.056.664-.056zM379.045 80.488a3 3 0 0 0 1.184-.224q.528-.224.888-.624.368-.4.56-.96.192-.568.192-1.256V70.48h1.864v6.944a5.3 5.3 0 0 1-.328 1.88 4.3 4.3 0 0 1-.928 1.496 4.4 4.4 0 0 1-1.48.984q-.864.352-1.952.352t-1.96-.352a4.4 4.4 0 0 1-1.472-.984 4.3 4.3 0 0 1-.936-1.496 5.4 5.4 0 0 1-.32-1.88V70.48h1.872v6.936q0 .688.192 1.256.192.56.552.968.36.4.88.624.528.225 1.192.224m11.477-5.168a.43.43 0 0 1-.144.16.4.4 0 0 1-.2.048.7.7 0 0 1-.296-.08 8 8 0 0 0-.376-.192 3 3 0 0 0-.512-.184 2.3 2.3 0 0 0-.68-.088q-.32 0-.584.08-.257.072-.44.216a.94.94 0 0 0-.272.328.85.85 0 0 0-.096.4.68.68 0 0 0 .176.48q.176.192.464.336.288.135.656.248t.752.24q.383.128.752.296.368.167.656.416.288.24.464.592.176.345.176.84 0 .576-.208 1.064a2.4 2.4 0 0 1-.608.848q-.4.36-1 .56-.592.2-1.36.2-.425 0-.824-.08a5 5 0 0 1-.752-.2 4.5 4.5 0 0 1-.664-.32 3.6 3.6 0 0 1-.544-.4l.4-.656a.49.49 0 0 1 .448-.256q.168 0 .328.112.168.105.384.232.224.127.536.24.312.104.776.104.384 0 .664-.088a1.4 1.4 0 0 0 .464-.256q.183-.16.272-.36a1.1 1.1 0 0 0 .088-.44.75.75 0 0 0-.176-.512 1.5 1.5 0 0 0-.472-.344 4 4 0 0 0-.664-.256 29 29 0 0 1-.752-.24 8 8 0 0 1-.76-.296 2.7 2.7 0 0 1-.664-.424 2 2 0 0 1-.464-.632q-.176-.376-.176-.912 0-.488.192-.928.2-.44.576-.776a2.8 2.8 0 0 1 .936-.528q.56-.2 1.288-.2.824 0 1.496.264t1.128.72zm8.992-1.48V82h-1.04q-.344 0-.44-.328l-.128-.76a5 5 0 0 1-.544.496 3.193 3.193 0 0 1-1.288.632q-.36.088-.776.088a2.9 2.9 0 0 1-1.184-.224 2.4 2.4 0 0 1-.864-.632 2.8 2.8 0 0 1-.52-.976 4.3 4.3 0 0 1-.176-1.264V73.84h1.72v5.192q0 .825.376 1.28.384.456 1.16.456.569 0 1.056-.256.496-.264.928-.72V73.84zm6.449 4.592q-.92.032-1.552.152-.633.112-1.024.296-.393.176-.568.424a.95.95 0 0 0-.168.544q0 .288.088.496.096.2.256.336.168.128.384.192.224.056.488.056.672 0 1.152-.248.488-.255.944-.736zm-4.56-3.456q1.383-1.288 3.296-1.288.703 0 1.248.232.551.225.92.64.376.416.568.992.2.568.2 1.264V82h-.768q-.249 0-.376-.072-.129-.08-.216-.312l-.168-.664a8 8 0 0 1-.616.504 4 4 0 0 1-.632.368 3 3 0 0 1-.696.224 4 4 0 0 1-.816.08q-.496 0-.928-.136a2.1 2.1 0 0 1-.736-.408 2 2 0 0 1-.496-.688 2.4 2.4 0 0 1-.176-.96q0-.472.248-.92.255-.448.832-.8.583-.36 1.528-.592.952-.232 2.344-.264v-.544q0-.88-.376-1.312t-1.104-.432q-.496 0-.832.128-.336.12-.584.264a8 8 0 0 0-.44.272.76.76 0 0 1-.408.12.52.52 0 0 1-.304-.088.8.8 0 0 1-.2-.232zm9.871.376q.384-.776.928-1.216.543-.448 1.304-.448.264 0 .496.064.231.056.416.176l-.12 1.296q-.032.136-.104.192a.3.3 0 0 1-.176.048q-.12 0-.344-.04a2.3 2.3 0 0 0-.472-.048q-.36 0-.64.104-.273.104-.496.304a2.1 2.1 0 0 0-.384.488q-.168.287-.312.656V82h-1.72v-8.16h1q.271 0 .376.104.103.096.144.344zm6.074-1.512V82h-1.72v-8.16zm.288-2.464q0 .232-.096.44a1.2 1.2 0 0 1-.248.368 1.3 1.3 0 0 1-.376.248 1.1 1.1 0 0 1-.448.088q-.233 0-.44-.088a1.3 1.3 0 0 1-.352-.248 1.3 1.3 0 0 1-.248-.368 1.1 1.1 0 0 1-.088-.44q0-.24.088-.448.096-.208.248-.36.151-.16.352-.248.207-.096.44-.096.24 0 .448.096.216.088.376.248.16.152.248.36.096.208.096.448m5.401 2.336q.905 0 1.632.296.736.296 1.248.84.52.544.8 1.32t.28 1.744-.28 1.744a3.8 3.8 0 0 1-.8 1.328 3.45 3.45 0 0 1-1.248.84 4.3 4.3 0 0 1-1.632.296 4.4 4.4 0 0 1-1.648-.296 3.6 3.6 0 0 1-1.248-.84 3.8 3.8 0 0 1-.8-1.328q-.28-.776-.28-1.744t.28-1.744.8-1.32a3.6 3.6 0 0 1 1.248-.84 4.4 4.4 0 0 1 1.648-.296m0 7.064q1.104 0 1.64-.736.544-.744.544-2.12t-.544-2.12q-.536-.752-1.64-.752-1.12 0-1.664.752-.544.744-.544 2.12t.544 2.12q.544.736 1.664.736m9.493-7.128q.12-.816.448-1.432.336-.615.84-1.024.504-.415 1.152-.624a4.5 4.5 0 0 1 1.416-.216q.768 0 1.392.224.632.216 1.08.608.456.391.696.936.248.544.248 1.192 0 .552-.136.976a2.3 2.3 0 0 1-.376.736q-.24.32-.592.536a3.7 3.7 0 0 1-.792.36q1.072.312 1.608 1 .536.68.536 1.712 0 .832-.312 1.48a3.25 3.25 0 0 1-.848 1.096 3.7 3.7 0 0 1-1.24.688 4.8 4.8 0 0 1-1.496.232q-.888 0-1.536-.208a3.4 3.4 0 0 1-1.12-.608 3.5 3.5 0 0 1-.776-.96 6.6 6.6 0 0 1-.528-1.256l.744-.312a.9.9 0 0 1 .56-.072.54.54 0 0 1 .392.296q.127.256.288.552.16.287.408.536.256.24.624.408.376.16.92.16.552 0 .96-.176.416-.184.688-.464a1.9 1.9 0 0 0 .416-.64q.136-.353.136-.696 0-.432-.104-.792a1.24 1.24 0 0 0-.408-.624q-.296-.256-.848-.4-.544-.152-1.432-.152v-1.24q.727-.008 1.224-.144.504-.144.8-.384a1.37 1.37 0 0 0 .432-.592q.136-.345.136-.752a2 2 0 0 0-.136-.776 1.5 1.5 0 0 0-.384-.56 1.5 1.5 0 0 0-.576-.344 2.3 2.3 0 0 0-.744-.112 2.3 2.3 0 0 0-.728.112 2.1 2.1 0 0 0-.592.312 1.9 1.9 0 0 0-.432.48 2 2 0 0 0-.256.6q-.112.328-.304.44-.184.112-.544.048zM490.304 76.352q.624 0 1.096-.16.48-.16.792-.448.32-.296.48-.712t.16-.928a2.4 2.4 0 0 0-.16-.904 1.7 1.7 0 0 0-.464-.68 2.05 2.05 0 0 0-.792-.424 3.7 3.7 0 0 0-1.112-.152h-1.712v4.408zm0-5.872q1.127 0 1.952.264.831.264 1.368.744a2.9 2.9 0 0 1 .808 1.144q.264.664.264 1.472 0 .824-.28 1.512a3.2 3.2 0 0 1-.832 1.176q-.552.488-1.376.768-.816.272-1.904.272h-1.712V82h-1.872V70.48zm7.345 4.872q.384-.776.928-1.216.543-.448 1.304-.448.264 0 .496.064.231.056.416.176l-.12 1.296q-.032.136-.104.192a.3.3 0 0 1-.176.048q-.12 0-.344-.04a2.3 2.3 0 0 0-.472-.048q-.36 0-.64.104-.273.104-.496.304a2.1 2.1 0 0 0-.384.488q-.168.287-.312.656V82h-1.72v-8.16h1q.271 0 .376.104.103.096.144.344zm7.529-1.64q.903 0 1.632.296.735.296 1.248.84.52.544.8 1.32a5.1 5.1 0 0 1 .28 1.744 5.1 5.1 0 0 1-.28 1.744q-.28.776-.8 1.328a3.5 3.5 0 0 1-1.248.84 4.3 4.3 0 0 1-1.632.296 4.4 4.4 0 0 1-1.648-.296 3.5 3.5 0 0 1-1.248-.84 3.8 3.8 0 0 1-.8-1.328q-.28-.776-.28-1.744t.28-1.744.8-1.32a3.5 3.5 0 0 1 1.248-.84 4.4 4.4 0 0 1 1.648-.296m0 7.064q1.103 0 1.64-.736.543-.744.544-2.12 0-1.376-.544-2.12-.537-.752-1.64-.752-1.12 0-1.664.752-.544.744-.544 2.12t.544 2.12q.543.736 1.664.736M510.79 82v-8.16h1.04q.352 0 .448.328l.112.712q.224-.255.464-.464a2.8 2.8 0 0 1 1.104-.616 2.6 2.6 0 0 1 .688-.088q.393 0 .72.112.328.112.576.32.257.208.44.504.184.296.304.664a2.519 2.519 0 0 1 1.088-1.224q.345-.192.728-.28.393-.096.792-.096.657 0 1.168.208.52.208.872.608.36.392.544.968t.184 1.312V82h-1.72v-5.192q0-.864-.376-1.296-.367-.44-1.096-.44-.327 0-.616.112a1.45 1.45 0 0 0-.848.872q-.12.32-.12.752V82h-1.72v-5.192q0-.896-.36-1.312-.36-.424-1.056-.424-.48 0-.888.248a2.8 2.8 0 0 0-.752.664V82zm18.633-5q0-.432-.128-.8-.12-.376-.36-.648-.24-.28-.6-.432a1.95 1.95 0 0 0-.816-.16q-.936 0-1.472.536t-.68 1.504zm-4.104 1.056q.033.696.216 1.208.185.504.488.84.313.336.736.504.432.16.96.16.504 0 .872-.112.369-.12.64-.256.273-.144.464-.256a.7.7 0 0 1 .352-.12q.209 0 .32.16l.488.632a3 3 0 0 1-.688.608 4.2 4.2 0 0 1-.816.408 4.6 4.6 0 0 1-.888.216 6 6 0 0 1-.888.072q-.847 0-1.576-.28a3.6 3.6 0 0 1-1.256-.84 3.9 3.9 0 0 1-.832-1.368q-.296-.816-.296-1.88 0-.848.264-1.584.273-.735.768-1.28a3.6 3.6 0 0 1 1.216-.856q.72-.32 1.624-.32.753 0 1.392.248.64.24 1.104.712t.72 1.16q.264.68.264 1.552 0 .4-.088.536-.087.136-.32.136zm12.46-2.208q-.36-.464-.792-.648a2.4 2.4 0 0 0-.936-.184q-1.008 0-1.576.744-.568.736-.568 2.184 0 .751.128 1.288.128.528.368.864t.584.488q.345.152.776.152.657 0 1.128-.28.48-.288.888-.808zm1.72-5.688V82h-1.04q-.344 0-.44-.328l-.152-.888q-.511.6-1.168.968-.648.368-1.512.368-.687 0-1.248-.272a2.7 2.7 0 0 1-.96-.808q-.399-.528-.624-1.304-.216-.784-.216-1.792 0-.912.24-1.688.249-.775.704-1.344a3.2 3.2 0 0 1 1.104-.896 3.2 3.2 0 0 1 1.464-.328q.72 0 1.224.232.505.225.904.632V70.16zm3.896 3.68V82h-1.72v-8.16zm.288-2.464q0 .232-.096.44a1.2 1.2 0 0 1-.248.368 1.3 1.3 0 0 1-.376.248 1.1 1.1 0 0 1-.448.088q-.233 0-.44-.088a1.3 1.3 0 0 1-.352-.248 1.3 1.3 0 0 1-.248-.368 1.1 1.1 0 0 1-.088-.44q0-.24.088-.448.095-.208.248-.36.151-.16.352-.248.207-.096.44-.096.24 0 .448.096.216.088.376.248.16.152.248.36.096.208.096.448m5.401 2.336q.903 0 1.632.296.735.296 1.248.84.52.544.8 1.32a5.1 5.1 0 0 1 .28 1.744 5.1 5.1 0 0 1-.28 1.744q-.28.776-.8 1.328a3.5 3.5 0 0 1-1.248.84 4.3 4.3 0 0 1-1.632.296 4.4 4.4 0 0 1-1.648-.296 3.5 3.5 0 0 1-1.248-.84 3.8 3.8 0 0 1-.8-1.328q-.28-.776-.28-1.744t.28-1.744.8-1.32a3.5 3.5 0 0 1 1.248-.84 4.4 4.4 0 0 1 1.648-.296m0 7.064q1.104 0 1.64-.736.543-.744.544-2.12 0-1.376-.544-2.12-.537-.752-1.64-.752-1.12 0-1.664.752-.544.744-.544 2.12t.544 2.12q.543.736 1.664.736"/><path stroke="#000" d="M2.5 53.5h575v249H2.5zM2 102.5h576M128.5 53v250M578 153.5H2M578 203.5H2M578 253.5H2M230.5 53v250M350.5 53v250M462.5 53v250"/><path fill="#69BE28" d="M186.291 121.944a2.697 2.697 0 1 1 3.839 3.789l-10.441 10.576a4 4 0 0 1-5.693 0l-4.126-4.178a2.698 2.698 0 0 1 3.839-3.789l3.133 3.174zM186.291 168.944a2.697 2.697 0 1 1 3.839 3.789l-10.441 10.576a4 4 0 0 1-5.693 0l-4.126-4.178a2.698 2.698 0 0 1 3.839-3.789l3.133 3.174zM186.291 219.944a2.697 2.697 0 1 1 3.839 3.789l-10.441 10.576a4 4 0 0 1-5.693 0l-4.126-4.178a2.698 2.698 0 0 1 3.839-3.789l3.133 3.174zM186.291 267.944a2.697 2.697 0 1 1 3.839 3.789l-10.441 10.576a4 4 0 0 1-5.693 0l-4.126-4.178a2.698 2.698 0 0 1 3.839-3.789l3.133 3.174zM294.291 268.944a2.697 2.697 0 1 1 3.839 3.789l-10.441 10.576a4 4 0 0 1-5.693 0l-4.126-4.178a2.698 2.698 0 0 1 3.839-3.789l3.133 3.174zM294.291 219.944a2.697 2.697 0 1 1 3.839 3.789l-10.441 10.576a4 4 0 0 1-5.693 0l-4.126-4.178a2.698 2.698 0 0 1 3.839-3.789l3.133 3.174zM294.291 168.944a2.697 2.697 0 1 1 3.839 3.789l-10.441 10.576a4 4 0 0 1-5.693 0l-4.126-4.178a2.698 2.698 0 0 1 3.839-3.789l3.133 3.174zM294.291 121.944a2.697 2.697 0 1 1 3.839 3.789l-10.441 10.576a4 4 0 0 1-5.693 0l-4.126-4.178a2.698 2.698 0 0 1 3.839-3.789l3.133 3.174zM410.291 121.944a2.697 2.697 0 1 1 3.839 3.789l-10.441 10.576a4 4 0 0 1-5.693 0l-4.126-4.178a2.698 2.698 0 0 1 3.839-3.789l3.133 3.174zM410.291 170.944a2.697 2.697 0 1 1 3.839 3.789l-10.441 10.576a4 4 0 0 1-5.693 0l-4.126-4.178a2.698 2.698 0 0 1 3.839-3.789l3.133 3.174zM410.291 219.944a2.697 2.697 0 1 1 3.839 3.789l-10.441 10.576a4 4 0 0 1-5.693 0l-4.126-4.178a2.698 2.698 0 0 1 3.839-3.789l3.133 3.174zM410.291 267.944a2.697 2.697 0 1 1 3.839 3.789l-10.441 10.576a4 4 0 0 1-5.693 0l-4.126-4.178a2.698 2.698 0 0 1 3.839-3.789l3.133 3.174zM526.291 122.944a2.697 2.697 0 1 1 3.839 3.789l-10.441 10.576a4 4 0 0 1-5.693 0l-4.126-4.178a2.698 2.698 0 0 1 3.839-3.789l3.133 3.174zM526.291 171.944a2.697 2.697 0 1 1 3.839 3.789l-10.441 10.576a4 4 0 0 1-5.693 0l-4.126-4.178a2.698 2.698 0 0 1 3.839-3.789l3.133 3.174zM526.291 220.944a2.697 2.697 0 1 1 3.839 3.789l-10.441 10.576a4 4 0 0 1-5.693 0l-4.126-4.178a2.698 2.698 0 0 1 3.839-3.789l3.133 3.174zM526.291 268.944a2.697 2.697 0 1 1 3.839 3.789l-10.441 10.576a4 4 0 0 1-5.693 0l-4.126-4.178a2.698 2.698 0 0 1 3.839-3.789l3.133 3.174z"/><path fill="#1E5078" d="M6.632 37.656q-.264.24-.576.448a4 4 0 0 1-1.472.624q-.425.096-.92.096a3.9 3.9 0 0 1-1.224-.184 2.7 2.7 0 0 1-.96-.52 2.3 2.3 0 0 1-.624-.824 2.54 2.54 0 0 1-.224-1.088q0-.608.176-1.032t.448-.728.592-.512q.32-.216.6-.4a3.5 3.5 0 0 0 .488-.368.76.76 0 0 0 .248-.456l.16-1.2H4.52l.12 1.32q.04.392-.128.664-.16.264-.432.472-.264.2-.584.384a5 5 0 0 0-.608.416q-.28.224-.472.528-.184.304-.184.76a1.27 1.27 0 0 0 .448.992q.216.176.504.272t.624.096q.464 0 .792-.112.336-.105.568-.24.233-.128.384-.24.152-.112.264-.112.24 0 .36.216zm-3.776-8.824q0-.233.08-.432.088-.208.232-.36.152-.151.352-.24a1.12 1.12 0 0 1 .872 0q.208.088.36.24a1.12 1.12 0 0 1 .328.792q0 .24-.088.44-.089.2-.24.352a1.1 1.1 0 0 1-.36.24q-.2.08-.432.08t-.44-.08a1.2 1.2 0 0 1-.352-.24 1.2 1.2 0 0 1-.232-.352 1.2 1.2 0 0 1-.08-.44m12.215 5.6V36H8.415V24.48h1.872v9.952zm4.318-6.72q.903 0 1.631.296.736.296 1.249.84.52.544.8 1.32t.28 1.744-.28 1.744a3.8 3.8 0 0 1-.8 1.328 3.5 3.5 0 0 1-1.248.84 4.3 4.3 0 0 1-1.633.296 4.4 4.4 0 0 1-1.648-.296 3.56 3.56 0 0 1-1.247-.84 3.8 3.8 0 0 1-.8-1.328 5.1 5.1 0 0 1-.28-1.744q0-.968.28-1.744t.8-1.32a3.56 3.56 0 0 1 1.248-.84 4.4 4.4 0 0 1 1.648-.296m0 7.064q1.104 0 1.64-.736.543-.744.544-2.12 0-1.376-.544-2.12-.537-.752-1.64-.752-1.12 0-1.665.752-.543.744-.544 2.12 0 1.376.544 2.12.544.736 1.665.736m8.462-2.928q.8 0 1.2-.408t.4-1.064q0-.672-.4-1.064t-1.2-.392q-.792 0-1.2.392-.4.392-.4 1.064 0 .32.104.592.103.272.304.472.2.193.496.304.303.105.696.104m2.392 4.552a.58.58 0 0 0-.16-.432.95.95 0 0 0-.416-.256 2.7 2.7 0 0 0-.616-.136 8 8 0 0 0-.752-.064q-.393-.025-.808-.04a9 9 0 0 1-.792-.08 2.2 2.2 0 0 0-.632.48.97.97 0 0 0-.24.648q0 .24.12.448.128.209.384.36.264.151.664.24.408.088.976.088 1.136 0 1.704-.352.567-.352.568-.904m1.728-8.264v.64q0 .32-.384.392l-.816.136q.207.464.208 1.032 0 .6-.24 1.088-.233.488-.648.832t-.992.528a4 4 0 0 1-1.248.184q-.256 0-.504-.024a7 7 0 0 1-.472-.08q-.233.136-.344.288a.52.52 0 0 0-.112.312.42.42 0 0 0 .232.392q.231.128.608.184.384.056.872.072t.992.056.992.136q.488.088.864.304.384.208.616.568t.232.936a2.2 2.2 0 0 1-.264 1.032 2.8 2.8 0 0 1-.768.896q-.496.392-1.216.624-.72.24-1.64.24-.912 0-1.592-.176a3.7 3.7 0 0 1-1.128-.48 2.06 2.06 0 0 1-.672-.688 1.67 1.67 0 0 1-.216-.816q0-.576.36-.984.368-.408.992-.64a1.4 1.4 0 0 1-.544-.44q-.2-.28-.2-.736 0-.36.264-.752t.792-.664a2.6 2.6 0 0 1-.96-.888q-.352-.56-.352-1.304 0-.607.232-1.096.24-.488.664-.832.423-.344 1-.528.584-.184 1.272-.184 1.056 0 1.84.44zm2.982 1.216q.385-.776.928-1.216.545-.448 1.304-.448.264 0 .496.064.233.056.416.176l-.12 1.296q-.032.136-.104.192a.3.3 0 0 1-.176.048 2 2 0 0 1-.344-.04 2.3 2.3 0 0 0-.472-.048q-.36 0-.64.104-.271.104-.496.304a2.1 2.1 0 0 0-.384.488q-.168.288-.312.656V36h-1.72v-8.16h1q.273 0 .376.104.105.096.144.344zm7.53-1.64a4.3 4.3 0 0 1 1.631.296q.736.296 1.248.84a3.7 3.7 0 0 1 .8 1.32q.28.776.28 1.744t-.28 1.744-.8 1.328a3.5 3.5 0 0 1-1.248.84 4.3 4.3 0 0 1-1.632.296 4.4 4.4 0 0 1-1.648-.296 3.55 3.55 0 0 1-1.248-.84 3.8 3.8 0 0 1-.8-1.328 5.1 5.1 0 0 1-.28-1.744q0-.968.28-1.744t.8-1.32a3.55 3.55 0 0 1 1.248-.84 4.4 4.4 0 0 1 1.648-.296m0 7.064q1.103 0 1.64-.736.543-.744.543-2.12t-.544-2.12q-.536-.752-1.64-.752-1.12 0-1.664.752-.544.744-.544 2.12t.544 2.12q.545.736 1.664.736m2.567-10.424-1.928 2.072a.8.8 0 0 1-.256.2.8.8 0 0 1-.32.056h-1.024l1.16-1.936a.84.84 0 0 1 .256-.296q.152-.096.44-.096zm12.797 5.088a1 1 0 0 1-.152.16.33.33 0 0 1-.208.056.54.54 0 0 1-.288-.096 5 5 0 0 0-.352-.208 2.5 2.5 0 0 0-.488-.216 2.3 2.3 0 0 0-.72-.096q-.56 0-.984.2a1.9 1.9 0 0 0-.704.576 2.6 2.6 0 0 0-.424.904q-.136.529-.136 1.192 0 .688.152 1.224.153.536.432.904.288.368.688.56.408.192.912.192.495 0 .808-.12a2.5 2.5 0 0 0 .52-.264q.208-.144.352-.264a.5.5 0 0 1 .32-.12q.209 0 .32.16l.488.632a3.2 3.2 0 0 1-.656.608q-.36.248-.76.408a4 4 0 0 1-.832.216 5.3 5.3 0 0 1-.872.072q-.76 0-1.424-.28a3.4 3.4 0 0 1-1.152-.824 4.1 4.1 0 0 1-.776-1.32q-.28-.784-.28-1.784 0-.904.256-1.672.256-.776.744-1.336.496-.56 1.224-.872.729-.32 1.68-.32.888 0 1.56.288.68.288 1.208.816zm8.8-1.6V36h-1.04q-.345 0-.44-.328l-.128-.76q-.256.272-.544.496-.28.224-.6.384t-.688.248a3.3 3.3 0 0 1-.776.088q-.672 0-1.184-.224-.513-.224-.864-.632a2.8 2.8 0 0 1-.52-.976 4.3 4.3 0 0 1-.176-1.264V27.84h1.72v5.192q0 .825.376 1.28.383.456 1.16.456.567 0 1.056-.256.495-.264.928-.72V27.84zM68.735 36v-8.16h1.04q.352 0 .448.328l.112.712q.225-.255.465-.464a2.8 2.8 0 0 1 1.103-.616q.32-.088.688-.088.393 0 .72.112.33.112.576.32.257.209.44.504.185.296.305.664.184-.424.463-.728.28-.304.624-.496.345-.192.729-.28.39-.096.792-.096.655 0 1.168.208.52.208.871.608.36.392.544.968t.184 1.312V36h-1.72v-5.192q0-.864-.376-1.296-.367-.44-1.096-.44-.328 0-.615.112a1.45 1.45 0 0 0-.849.872q-.12.32-.12.752V36h-1.72v-5.192q0-.896-.36-1.312-.36-.424-1.055-.424-.48 0-.889.248-.407.24-.751.664V36zm15.002-2.048q.36.465.784.656.432.184.952.184 1.007 0 1.568-.736.568-.735.568-2.192 0-.752-.128-1.28-.129-.536-.368-.872a1.4 1.4 0 0 0-.584-.488 1.9 1.9 0 0 0-.776-.152q-.657 0-1.136.288a3.2 3.2 0 0 0-.88.808zm-.088-4.928q.512-.6 1.16-.968.656-.368 1.52-.368.687 0 1.248.28.56.272.96.8.4.529.616 1.312.225.776.224 1.784 0 .904-.248 1.688a4.1 4.1 0 0 1-.696 1.352 3.3 3.3 0 0 1-1.104.896q-.648.32-1.464.32-.72 0-1.224-.232a3.2 3.2 0 0 1-.904-.64v3.464h-1.72V27.84h1.04q.352 0 .448.328zM92.8 24.16V36h-1.72V24.16zm3.915 3.68V36h-1.72v-8.16zm.288-2.464q0 .232-.096.44a1.2 1.2 0 0 1-.248.368 1.3 1.3 0 0 1-.376.248 1.1 1.1 0 0 1-.448.088q-.232 0-.44-.088a1.3 1.3 0 0 1-.352-.248 1.4 1.4 0 0 1-.248-.368 1.1 1.1 0 0 1-.088-.44q0-.24.088-.448.096-.208.248-.36.152-.16.352-.248.208-.096.44-.096.24 0 .448.096.216.088.376.248.16.152.248.36.096.208.096.448m3.497 3.976q.384-.776.928-1.216.544-.448 1.304-.448.264 0 .496.064.232.056.416.176l-.12 1.296q-.032.136-.104.192a.3.3 0 0 1-.176.048q-.12 0-.344-.04a2.3 2.3 0 0 0-.472-.048q-.36 0-.64.104-.272.104-.496.304a2.1 2.1 0 0 0-.384.488q-.168.288-.312.656V36h-1.72v-8.16h1q.272 0 .376.104.103.096.144.344zm9.675-5.192V36h-1.72V24.16zm6.483 8.272a10.4 10.4 0 0 0-1.552.152q-.632.112-1.024.296-.392.176-.568.424a.95.95 0 0 0-.168.544q0 .288.088.496.096.2.256.336.168.128.384.192.224.056.488.056.672 0 1.152-.248.488-.256.944-.736zm-4.56-3.456q1.384-1.288 3.296-1.288.704 0 1.248.232.552.225.92.64.376.416.568.992.2.568.2 1.264V36h-.768q-.248 0-.376-.072-.127-.08-.216-.312l-.168-.664a8 8 0 0 1-.616.504 4 4 0 0 1-.632.368 2.9 2.9 0 0 1-.696.224q-.368.08-.816.08-.496 0-.928-.136a2.1 2.1 0 0 1-.736-.408 2 2 0 0 1-.496-.688 2.4 2.4 0 0 1-.176-.96q0-.472.248-.92.256-.448.832-.8.584-.36 1.528-.592.952-.232 2.344-.264v-.544q0-.88-.376-1.312-.377-.432-1.104-.432-.496 0-.832.128-.336.12-.584.264a9 9 0 0 0-.44.272.76.76 0 0 1-.408.12.52.52 0 0 1-.304-.088.8.8 0 0 1-.2-.232zm14.847 7.152q-1.016 0-1.568-.568-.543-.576-.544-1.616v-4.752h-.896a.37.37 0 0 1-.248-.088q-.104-.096-.104-.28v-.696l1.32-.192.376-2.36a.43.43 0 0 1 .136-.216.37.37 0 0 1 .256-.088h.88v2.68h2.264v1.24h-2.264v4.632q0 .44.216.672a.75.75 0 0 0 .576.232q.2 0 .344-.048.144-.056.248-.112.104-.064.176-.112a.27.27 0 0 1 .152-.056q.145 0 .232.16l.512.84a2.8 2.8 0 0 1-.944.544 3.5 3.5 0 0 1-1.12.184m7.588-3.696a10.4 10.4 0 0 0-1.552.152q-.632.112-1.024.296-.392.176-.568.424a.95.95 0 0 0-.168.544q0 .288.088.496.096.2.256.336.168.128.384.192.224.056.488.056.672 0 1.152-.248.488-.256.944-.736zm-4.56-3.456q1.384-1.288 3.296-1.288.703 0 1.248.232.552.225.92.64.376.416.568.992.2.568.2 1.264V36h-.768q-.248 0-.376-.072-.128-.08-.216-.312l-.168-.664a8 8 0 0 1-.616.504 4 4 0 0 1-.632.368 2.9 2.9 0 0 1-.696.224q-.368.08-.816.08-.496 0-.928-.136a2.1 2.1 0 0 1-.736-.408 2 2 0 0 1-.496-.688 2.4 2.4 0 0 1-.176-.96q0-.472.248-.92.256-.448.832-.8.584-.36 1.528-.592.952-.232 2.344-.264v-.544q0-.88-.376-1.312t-1.104-.432q-.496 0-.832.128-.336.12-.584.264a9 9 0 0 0-.44.272.76.76 0 0 1-.408.12.52.52 0 0 1-.304-.088.8.8 0 0 1-.2-.232zm9.871.376q.384-.776.928-1.216.544-.448 1.304-.448.264 0 .496.064.232.056.416.176l-.12 1.296q-.032.136-.104.192a.3.3 0 0 1-.176.048q-.12 0-.344-.04a2.3 2.3 0 0 0-.472-.048q-.36 0-.64.104-.272.104-.496.304a2.1 2.1 0 0 0-.384.488q-.168.288-.312.656V36h-1.72v-8.16h1q.272 0 .376.104.103.096.144.344zM149.197 31q0-.432-.128-.8-.12-.376-.36-.648-.24-.28-.6-.432a1.96 1.96 0 0 0-.816-.16q-.936 0-1.472.536t-.68 1.504zm-4.104 1.056q.031.696.216 1.208.184.504.488.84.312.336.736.504.432.16.96.16.504 0 .872-.112.368-.12.64-.256.272-.144.464-.256a.7.7 0 0 1 .352-.12q.208 0 .32.16l.488.632q-.304.36-.688.608a4.2 4.2 0 0 1-.816.408 4.6 4.6 0 0 1-.888.216 6 6 0 0 1-.888.072 4.4 4.4 0 0 1-1.576-.28 3.6 3.6 0 0 1-1.256-.84 3.9 3.9 0 0 1-.832-1.368q-.296-.815-.296-1.88 0-.848.264-1.584.272-.735.768-1.28a3.6 3.6 0 0 1 1.216-.856q.72-.32 1.624-.32.751 0 1.392.248.64.24 1.104.712t.72 1.16q.264.68.264 1.552 0 .4-.088.536t-.32.136zm11.612.376a10.4 10.4 0 0 0-1.552.152q-.632.112-1.024.296-.392.176-.568.424a.95.95 0 0 0-.168.544q0 .288.088.496.096.2.256.336.168.128.384.192.224.056.488.056.672 0 1.152-.248.488-.256.944-.736zm-4.56-3.456q1.384-1.288 3.296-1.288.703 0 1.248.232.552.225.92.64.376.416.568.992.2.568.2 1.264V36h-.768q-.248 0-.376-.072-.128-.08-.216-.312l-.168-.664a8 8 0 0 1-.616.504 4 4 0 0 1-.632.368 2.9 2.9 0 0 1-.696.224q-.367.08-.816.08-.496 0-.928-.136a2.1 2.1 0 0 1-.736-.408 2 2 0 0 1-.496-.688 2.4 2.4 0 0 1-.176-.96q0-.472.248-.92.256-.448.832-.8.584-.36 1.528-.592.952-.232 2.344-.264v-.544q0-.88-.376-1.312-.377-.432-1.104-.432-.496 0-.832.128-.336.12-.584.264a9 9 0 0 0-.44.272.76.76 0 0 1-.408.12.52.52 0 0 1-.304-.088.8.8 0 0 1-.2-.232zm7.432-3.464q.264-.24.576-.448t.672-.368q.368-.16.792-.248a4.3 4.3 0 0 1 .928-.096q.664 0 1.216.192.56.184.96.536.407.345.632.84.224.487.224 1.096 0 .608-.176 1.056a2.9 2.9 0 0 1-.448.768q-.273.328-.592.576l-.608.456q-.28.208-.488.424a.84.84 0 0 0-.24.464l-.168 1.2h-1.168l-.12-1.32q-.04-.376.12-.648t.424-.512q.271-.24.592-.456.327-.225.608-.496.28-.272.472-.608t.192-.808q0-.312-.12-.56a1.2 1.2 0 0 0-.336-.432 1.6 1.6 0 0 0-.504-.272 2 2 0 0 0-.624-.096q-.473 0-.8.112a3 3 0 0 0-.56.248 3.5 3.5 0 0 0-.384.24.5.5 0 0 1-.256.104.39.39 0 0 1-.368-.216zm1.536 9.496q0-.233.08-.432a1.2 1.2 0 0 1 .232-.36q.151-.151.352-.24a1.11 1.11 0 0 1 .872 0q.207.088.36.24a1.13 1.13 0 0 1 .24 1.232q-.089.2-.24.352a1 1 0 0 1-.36.232 1.113 1.113 0 0 1-.872 0 1 1 0 0 1-.352-.232 1.2 1.2 0 0 1-.232-.352 1.2 1.2 0 0 1-.08-.44"/></svg>