<svg xmlns="http://www.w3.org/2000/svg" width="340" height="181" fill="none"><path fill="#D5D5D5" fill-opacity=".38" d="M127.624 135.536h16.428V71.452l-20.276 11.692-2.516-20.128L154.264 42h14.652v93.536h16.132V153h-57.424z"/><path stroke="#59CADA" stroke-width="5.18" d="M149.829 8.14H336.5v170.201H3.5V25.901c0-9.809 7.951-17.76 17.76-17.76h11.699"/><path fill="#1E5078" d="M50.827 7.866q0 .888-.267 1.599a2.8 2.8 0 0 1-.814 1.199q-.547.488-1.42.754-.874.252-2.117.252h-1.05V15h-3.094V3.9h4.144q1.23 0 2.102.252.888.236 1.435.74.563.488.814 1.243.267.74.267 1.731m-3.197-.014q0-.444-.074-.726a.87.87 0 0 0-.222-.458.86.86 0 0 0-.444-.222 2.6 2.6 0 0 0-.68-.074h-1.052v2.93h1.051q.386 0 .651-.044a.93.93 0 0 0 .444-.208.9.9 0 0 0 .252-.444q.075-.296.074-.754M51.906 15V6.016l2.264-.103.252 1.302h.044q.43-.74 1.021-1.08.592-.34 1.303-.34.326 0 .577.044.266.03.444.103l-.163 2.694a2.4 2.4 0 0 0-.488-.104 3.4 3.4 0 0 0-.563-.044q-.828 0-1.332.518-.503.503-.503 1.48V15zm14.833-4.484q0 1.243-.252 2.13-.25.889-.77 1.466-.518.562-1.331.829-.8.266-1.924.266-2.22 0-3.256-1.095-1.022-1.11-1.022-3.596 0-2.487 1.036-3.612t3.256-1.124q1.11 0 1.91.28.813.267 1.332.844.532.578.77 1.48.25.888.25 2.132m-5.595 0q0 .754.074 1.243.075.473.222.755.163.265.415.37.252.103.621.103.37 0 .622-.103.251-.105.4-.385.162-.282.222-.755.074-.474.074-1.228 0-.756-.074-1.229-.06-.488-.222-.755a.8.8 0 0 0-.4-.384 1.6 1.6 0 0 0-.622-.104q-.369 0-.636.104a.86.86 0 0 0-.414.384q-.15.267-.222.755-.06.473-.06 1.229m15.036-.074q0 1.229-.267 2.13-.252.889-.74 1.466a2.9 2.9 0 0 1-1.17.858 4.2 4.2 0 0 1-1.568.282q-.725 0-1.302-.222a3.1 3.1 0 0 1-.962-.622l-.326.666h-1.924V3.56l2.842-.134v1.82l-.03 1.185.044.03q.43-.341.948-.504a3.5 3.5 0 0 1 1.05-.163q.785 0 1.406.267a2.63 2.63 0 0 1 1.08.843q.445.563.682 1.45.236.874.237 2.088m-2.946.059q0-.755-.088-1.214-.075-.46-.237-.695a.68.68 0 0 0-.4-.326 1.6 1.6 0 0 0-.562-.089q-.386 0-.696.163-.296.148-.488.43v3.596q.177.265.473.444.297.177.725.177.311 0 .548-.089a.9.9 0 0 0 .4-.37q.162-.266.236-.754.09-.489.09-1.273M77.404 15V3.56l2.885-.134V15zm8.814.163q-2.427 0-3.567-1.229-1.14-1.228-1.14-3.522 0-1.08.238-1.939.251-.858.754-1.45.519-.592 1.303-.903.785-.326 1.85-.326 1.805 0 2.827 1.036 1.02 1.037 1.02 3.182 0 .312-.029.652-.015.34-.044.621h-4.958q.088.829.592 1.17.502.34 1.51.34 1.257 0 2.382-.37l.311 2.19q-.562.252-1.362.4a9.3 9.3 0 0 1-1.687.148m.681-5.669q-.03-.784-.34-1.11-.297-.325-.888-.325-.326 0-.548.074a.86.86 0 0 0-.37.237 1.2 1.2 0 0 0-.237.444q-.075.266-.103.68zM100.483 15V9.346q0-.576-.282-.858-.266-.28-.77-.281-1.035 0-1.035 1.095V15H95.54V9.302q0-.592-.267-.844-.252-.25-.77-.251-.34 0-.621.133-.266.133-.43.37V15h-2.84V6.016l2.041-.118.444.77a3.3 3.3 0 0 1 1.051-.652 3.2 3.2 0 0 1 1.214-.236q1.599 0 2.338 1.124.504-.606 1.14-.858a3.6 3.6 0 0 1 1.391-.266q.68 0 1.243.222.578.222.977.666.414.428.636 1.095.237.651.237 1.524V15zm9.118-.74a3.2 3.2 0 0 1-1.036.666 3.7 3.7 0 0 1-1.317.222q-1.332 0-2.087-.755-.74-.755-.74-2.279 0-.621.222-1.14.222-.533.636-.902a2.8 2.8 0 0 1 1.007-.592 4 4 0 0 1 1.361-.222q.46 0 .829.059.37.045.696.133v-.326q0-.503-.326-.77-.326-.266-1.169-.266-.385 0-.696.03t-.606.089q-.282.045-.563.133-.281.09-.607.207l-.222-2.16q1.376-.593 3.227-.593 1.065 0 1.791.237.725.222 1.169.696.444.458.636 1.169.193.695.193 1.628V15h-2.191zm-.429-3.004a5 5 0 0 0-.4-.09 3 3 0 0 0-.577-.044q-1.11 0-1.11.962 0 .49.252.71.266.208.695.208.459 0 .799-.222.34-.237.341-.607zm1.687-8.081-1.835 2.16h-2.117l.74-2.16zM116.586 8v4.158q0 .43.222.637.222.192.71.192.163 0 .37-.03.208-.03.326-.073l.148 1.983q-.251.119-.725.192-.46.09-.992.089-1.494 0-2.205-.784-.71-.8-.71-2.132V8h-.859V5.942h1.007l.458-1.924 2.25-.192v2.116h1.88V8zm3.051 7V6.031l2.916-.133V15zm3.005-10.834q0 .563-.37.844-.356.267-1.169.266-.8 0-1.184-.236-.37-.253-.37-.874 0-.547.37-.828.384-.282 1.184-.282.813 0 1.169.282.37.28.37.828m7.551 4.307a7 7 0 0 0-.681-.148 3.4 3.4 0 0 0-.695-.074q-.578 0-.962.119a1.24 1.24 0 0 0-.592.384q-.222.267-.326.71a5.4 5.4 0 0 0-.089 1.066q0 1.23.504 1.776.503.534 1.406.533.414 0 .784-.074t.696-.192l.192 2.131a3.2 3.2 0 0 1-.962.34 6 6 0 0 1-1.332.134q-2.087 0-3.167-1.155-1.081-1.17-1.081-3.493 0-1.11.252-1.983.252-.888.77-1.495.517-.606 1.332-.917.813-.326 1.953-.326.548 0 1.14.104.591.089 1.006.251zm6.074 5.787a3.2 3.2 0 0 1-1.036.666 3.7 3.7 0 0 1-1.317.222q-1.332 0-2.087-.755-.74-.755-.74-2.279 0-.621.222-1.14.222-.533.636-.902a2.8 2.8 0 0 1 1.007-.592 4 4 0 0 1 1.361-.222q.46 0 .829.059.37.045.696.133v-.326q0-.503-.326-.77-.326-.266-1.169-.266-.385 0-.696.03t-.606.089q-.281.045-.563.133-.281.09-.607.207l-.222-2.16q1.376-.593 3.227-.593 1.065 0 1.791.237.725.222 1.169.696.444.458.636 1.169.192.695.193 1.628V15h-2.191zm-.429-3.004a5 5 0 0 0-.4-.09 3 3 0 0 0-.577-.044q-1.11 0-1.11.962 0 .49.252.71.266.208.695.208.459 0 .799-.222.34-.237.341-.607zM41.062 36.605q0-.498.19-.936.189-.443.514-.77.327-.33.758-.52.438-.19.93-.19.497 0 .935.19t.764.52q.326.327.515.77.19.438.19.936 0 .497-.19.935-.19.431-.515.758a2.4 2.4 0 0 1-.764.515q-.438.19-.935.19-.492 0-.93-.19a2.45 2.45 0 0 1-1.273-1.273 2.3 2.3 0 0 1-.189-.935m21.36-5.009v8.525h-1.22v-5.843q0-.142.006-.308.012-.171.03-.343l-2.741 5.061q-.16.315-.492.314h-.195a.51.51 0 0 1-.491-.314l-2.783-5.073q.018.172.024.343.012.172.012.32v5.843h-1.22v-8.525h1.036a.9.9 0 0 1 .285.036q.1.03.183.195l2.735 4.955a5 5 0 0 1 .166.355q.083.178.148.367.071-.189.148-.372a6 6 0 0 1 .172-.362l2.693-4.943q.083-.166.184-.195a.9.9 0 0 1 .284-.036zm4.847 5.885a8 8 0 0 0-1.149.112 3 3 0 0 0-.758.22q-.29.129-.42.313a.7.7 0 0 0-.124.403.9.9 0 0 0 .065.367q.07.147.19.248.123.094.283.142.165.042.362.042.496 0 .852-.184.36-.189.699-.544zm-3.375-2.558a3.46 3.46 0 0 1 2.44-.953q.52 0 .923.172.408.165.68.473.279.308.42.735a2.8 2.8 0 0 1 .149.935v3.836h-.569a.6.6 0 0 1-.278-.053q-.094-.06-.16-.231l-.124-.491a6 6 0 0 1-.456.373q-.225.16-.467.272a2.1 2.1 0 0 1-.515.166q-.273.06-.604.059-.367 0-.687-.1a1.5 1.5 0 0 1-.545-.303 1.5 1.5 0 0 1-.367-.509 1.8 1.8 0 0 1-.13-.71q0-.35.184-.681.189-.331.615-.592.432-.267 1.131-.438.705-.172 1.735-.196v-.402q0-.651-.279-.97-.277-.32-.817-.32-.367-.001-.615.094-.249.089-.433.196-.183.106-.325.2a.56.56 0 0 1-.302.09.4.4 0 0 1-.225-.066.6.6 0 0 1-.148-.171zm7.4-3.564v8.762H70.02V31.36zm4.797 6.122a8 8 0 0 0-1.149.112 3 3 0 0 0-.757.22q-.291.129-.42.313a.7.7 0 0 0-.125.403.9.9 0 0 0 .065.367q.07.147.19.248.123.094.284.142.165.042.36.042.498 0 .853-.184.36-.189.699-.544zm-3.375-2.558a3.46 3.46 0 0 1 2.44-.953q.52 0 .923.172.409.165.68.473.279.308.421.735a2.8 2.8 0 0 1 .148.935v3.836h-.568a.6.6 0 0 1-.279-.053q-.094-.06-.16-.231l-.124-.491a6 6 0 0 1-.456.373q-.225.16-.467.272-.237.112-.515.166-.273.06-.604.059-.368 0-.687-.1a1.5 1.5 0 0 1-.544-.303 1.5 1.5 0 0 1-.368-.509 1.8 1.8 0 0 1-.13-.71q0-.35.184-.681.189-.331.615-.592.433-.267 1.131-.438.705-.172 1.735-.196v-.402q0-.651-.278-.97-.279-.32-.817-.32-.367-.001-.616.094-.249.089-.432.196-.184.106-.326.2a.56.56 0 0 1-.302.09.4.4 0 0 1-.225-.066.6.6 0 0 1-.148-.171zm10.378-.84v6.352q0 .379-.101.71-.1.337-.32.586a1.5 1.5 0 0 1-.568.391 2.2 2.2 0 0 1-.835.142q-.207 0-.373-.03a3 3 0 0 1-.337-.082l.047-.693q.019-.118.1-.136.078-.018.303-.018.45 0 .627-.201.184-.195.184-.67v-6.351zm.207-1.824a.8.8 0 0 1-.071.326.85.85 0 0 1-1.113.456 1 1 0 0 1-.267-.184.9.9 0 0 1-.177-.272.8.8 0 0 1-.065-.326.84.84 0 0 1 .509-.781.8.8 0 0 1 .325-.071.8.8 0 0 1 .332.07.9.9 0 0 1 .272.184q.119.113.184.267a.8.8 0 0 1 .07.331m5.352 4.162q0-.32-.095-.592a1.3 1.3 0 0 0-.266-.48 1.2 1.2 0 0 0-.444-.32 1.45 1.45 0 0 0-.604-.118q-.693 0-1.089.397-.396.398-.503 1.113zm-3.037.782q.025.514.16.893.135.374.361.622.231.249.545.373.32.118.71.118.373 0 .646-.083a3.5 3.5 0 0 0 .817-.378.5.5 0 0 1 .26-.09q.154 0 .237.12l.36.467a2.3 2.3 0 0 1-.508.45q-.284.183-.604.302a3.4 3.4 0 0 1-.657.16 4 4 0 0 1-.657.053q-.628 0-1.166-.207a2.7 2.7 0 0 1-.93-.622 2.9 2.9 0 0 1-.616-1.012 4.1 4.1 0 0 1-.219-1.391q0-.628.196-1.173a2.9 2.9 0 0 1 .568-.947q.374-.403.9-.633a2.9 2.9 0 0 1 1.202-.237q.556 0 1.03.184.473.178.817.526.343.35.532.859.195.503.196 1.148 0 .297-.065.397-.066.1-.237.1zm6.569-2.001q.284-.575.686-.9a1.47 1.47 0 0 1 .965-.332q.195 0 .367.048a1 1 0 0 1 .308.13l-.089.959q-.023.1-.077.142a.2.2 0 0 1-.13.035q-.09 0-.255-.03a1.7 1.7 0 0 0-.349-.035q-.266 0-.473.077a1.2 1.2 0 0 0-.367.225 1.6 1.6 0 0 0-.284.361 3.5 3.5 0 0 0-.231.486v3.753h-1.273v-6.038h.74q.201 0 .278.077.077.07.107.254zm6.302 2.279a8 8 0 0 0-1.148.112 3 3 0 0 0-.758.22q-.29.129-.42.313a.7.7 0 0 0-.125.403.9.9 0 0 0 .066.367q.07.147.189.248.125.094.284.142.165.042.361.042.498 0 .853-.184.36-.189.698-.544zm-3.374-2.558a3.46 3.46 0 0 1 2.439-.953q.52 0 .923.172.41.165.681.473.279.308.42.735a2.8 2.8 0 0 1 .149.935v3.836h-.569a.6.6 0 0 1-.278-.053q-.094-.06-.16-.231l-.124-.491a6 6 0 0 1-.456.373q-.225.16-.468.272-.236.112-.515.166-.272.06-.603.059-.368 0-.687-.1a1.5 1.5 0 0 1-.545-.303 1.5 1.5 0 0 1-.367-.509 1.8 1.8 0 0 1-.13-.71q0-.35.183-.681.19-.331.616-.592.432-.267 1.13-.438.706-.172 1.735-.196v-.402q0-.651-.278-.97-.278-.32-.817-.32-.367-.001-.616.094-.248.089-.432.196-.183.106-.325.2a.56.56 0 0 1-.302.09.4.4 0 0 1-.225-.066.6.6 0 0 1-.148-.171zm7.304.279q.285-.575.687-.9.402-.332.965-.332.195 0 .367.048a1 1 0 0 1 .308.13l-.089.959q-.024.1-.077.142a.2.2 0 0 1-.13.035q-.088 0-.255-.03a1.7 1.7 0 0 0-.349-.035q-.266 0-.474.077a1.2 1.2 0 0 0-.367.225 1.6 1.6 0 0 0-.284.361q-.124.214-.231.486v3.753h-1.272v-6.038h.74q.201 0 .278.077.077.07.106.254zm6.827.367a1.5 1.5 0 0 0-.586-.474 1.7 1.7 0 0 0-.693-.142q-.746 0-1.166.55-.421.545-.421 1.617 0 .555.095.953.095.39.272.64.178.247.433.36.254.113.574.113.485 0 .834-.208a2.5 2.5 0 0 0 .658-.597zm1.272-1.486v8.045h-1.272v-2.83a3.2 3.2 0 0 1-.841.663 2.24 2.24 0 0 1-1.077.249q-.51 0-.924-.201a2 2 0 0 1-.71-.598 2.9 2.9 0 0 1-.462-.965 5 5 0 0 1-.16-1.326q0-.675.178-1.25a3 3 0 0 1 .521-.994 2.37 2.37 0 0 1 1.9-.906q.29 0 .527.053.243.048.444.148.207.096.379.237.171.137.325.314l.077-.397q.072-.242.326-.242zm6.648 0v6.038h-.77q-.254 0-.325-.243l-.095-.562q-.189.2-.402.367-.208.165-.444.284t-.51.184a2.4 2.4 0 0 1-.574.065q-.496 0-.876-.166a1.76 1.76 0 0 1-.639-.468 2 2 0 0 1-.385-.722 3.2 3.2 0 0 1-.13-.935v-3.842h1.272v3.842q0 .61.279.947.283.337.858.337.42 0 .781-.189.367-.195.687-.533v-4.404zm2.872 0v6.038h-1.273v-6.038zm.213-1.824a.8.8 0 0 1-.071.326.9.9 0 0 1-.184.272 1 1 0 0 1-.278.184.8.8 0 0 1-.331.065.8.8 0 0 1-.326-.065 1 1 0 0 1-.261-.184.834.834 0 0 1-.248-.598.9.9 0 0 1 .065-.331.9.9 0 0 1 .444-.45.8.8 0 0 1 .326-.071q.177 0 .331.07a.8.8 0 0 1 .278.184q.118.113.184.267a.8.8 0 0 1 .071.331m5.642 2.356q0 .136-.047.267a.6.6 0 0 1-.124.219l-3.061 4.032h3.132v.988h-4.606v-.533q0-.089.041-.213a.9.9 0 0 1 .125-.237l3.084-4.067h-3.072v-.988h4.528zm4.37 2.866a8 8 0 0 0-1.148.112 3 3 0 0 0-.758.22q-.291.129-.42.313a.7.7 0 0 0-.125.403q0 .213.065.367a.8.8 0 0 0 .19.248q.124.094.284.142.166.042.361.042.498 0 .853-.184.36-.189.698-.544zm-3.374-2.558a3.46 3.46 0 0 1 2.439-.953q.52 0 .923.172.409.165.681.473.279.308.42.735.148.42.148.935v3.836h-.568a.6.6 0 0 1-.278-.053q-.095-.06-.16-.231l-.124-.491a6 6 0 0 1-.456.373q-.225.16-.468.272-.237.112-.515.166-.272.06-.604.059-.366 0-.686-.1a1.5 1.5 0 0 1-.545-.303 1.5 1.5 0 0 1-.367-.509 1.8 1.8 0 0 1-.13-.71q0-.35.183-.681.19-.331.616-.592.432-.267 1.131-.438.704-.172 1.734-.196v-.402q0-.651-.278-.97-.279-.32-.817-.32-.367-.001-.616.094-.249.089-.432.196a7 7 0 0 0-.326.2.56.56 0 0 1-.301.09.4.4 0 0 1-.225-.066.6.6 0 0 1-.148-.171zm10.371.344a.7.7 0 0 1-.113.118.25.25 0 0 1-.154.041.4.4 0 0 1-.213-.07 3 3 0 0 0-.26-.154 2 2 0 0 0-.361-.16 1.7 1.7 0 0 0-.533-.071q-.415 0-.728.148-.309.147-.521.426a1.9 1.9 0 0 0-.314.669q-.1.39-.101.882 0 .51.113.906.112.396.319.669.213.272.51.414.302.142.674.142.367 0 .598-.089.23-.088.385-.195.155-.106.261-.195a.38.38 0 0 1 .236-.09q.155 0 .237.12l.361.467a2.4 2.4 0 0 1-.485.45 3 3 0 0 1-.563.302 3 3 0 0 1-.615.16 4 4 0 0 1-.645.053q-.563 0-1.054-.207a2.55 2.55 0 0 1-.853-.61 3 3 0 0 1-.574-.977 3.9 3.9 0 0 1-.207-1.32 3.9 3.9 0 0 1 .189-1.237q.19-.575.551-.989.367-.414.906-.645a3.1 3.1 0 0 1 1.243-.237q.657 0 1.154.213.504.213.894.604zm2.746-1.184v6.038h-1.273v-6.038zm.213-1.824a.8.8 0 0 1-.071.326.8.8 0 0 1-.183.272 1 1 0 0 1-.278.184.85.85 0 0 1-.332.065.8.8 0 0 1-.326-.065 1 1 0 0 1-.26-.184 1 1 0 0 1-.184-.272.85.85 0 0 1 0-.657.93.93 0 0 1 .444-.45.786.786 0 0 1 .658 0 .8.8 0 0 1 .278.183q.119.113.183.267a.8.8 0 0 1 .071.331m3.997 1.729q.67 0 1.208.219.545.219.923.622.385.403.592.976.208.574.208 1.291t-.208 1.29q-.207.574-.592.983-.378.403-.923.622a3.2 3.2 0 0 1-1.208.219 3.2 3.2 0 0 1-1.219-.22 2.6 2.6 0 0 1-.924-.62 2.8 2.8 0 0 1-.592-.983 3.8 3.8 0 0 1-.207-1.291q0-.717.207-1.29.208-.575.592-.977.385-.403.924-.622a3.2 3.2 0 0 1 1.219-.219m0 5.227q.817 0 1.214-.544.402-.55.402-1.57 0-1.017-.402-1.568-.397-.556-1.214-.556-.828 0-1.231.556-.403.55-.403 1.569t.403 1.569q.403.544 1.231.544m1.9-7.713-1.426 1.533a.6.6 0 0 1-.19.148.6.6 0 0 1-.237.041h-.757l.858-1.432a.6.6 0 0 1 .19-.22.6.6 0 0 1 .325-.07zm3.443 3.38q.196-.202.403-.361.213-.166.45-.284a2.4 2.4 0 0 1 1.083-.249q.498 0 .87.166.38.165.634.467.26.302.391.729.13.42.13.929v3.842h-1.267V36.28q0-.61-.284-.947-.279-.338-.853-.338-.426 0-.793.196a2.7 2.7 0 0 0-.681.532v4.4h-1.273v-6.04h.77q.26 0 .332.243zm13.453-.8-3.327 7.756a.6.6 0 0 1-.16.213q-.089.077-.278.077h-.942l1.113-2.415-2.462-5.63h1.107q.16 0 .242.077.09.07.131.171l1.438 3.428q.053.148.095.296.047.142.089.296.047-.154.094-.302a4 4 0 0 1 .107-.296l1.379-3.422a.377.377 0 0 1 .356-.249zm6.098-.094q.67 0 1.208.219.545.219.923.622.385.403.592.976.208.574.208 1.291t-.208 1.29q-.207.574-.592.983-.378.403-.923.622a3.2 3.2 0 0 1-1.208.219 3.2 3.2 0 0 1-1.219-.22 2.6 2.6 0 0 1-.924-.62 2.8 2.8 0 0 1-.592-.983 3.8 3.8 0 0 1-.207-1.291q0-.717.207-1.29.208-.575.592-.977.386-.403.924-.622a3.2 3.2 0 0 1 1.219-.219m0 5.227q.817 0 1.214-.544.402-.55.402-1.57 0-1.017-.402-1.568-.397-.556-1.214-.556-.828 0-1.231.556-.403.55-.403 1.569t.403 1.569q.403.544 1.231.544m5.355-4.013q.285-.575.687-.9.402-.332.965-.332.196 0 .367.048a1 1 0 0 1 .308.13l-.089.959q-.023.1-.077.142a.2.2 0 0 1-.13.035q-.089 0-.255-.03a1.7 1.7 0 0 0-.349-.035q-.266 0-.474.077a1.2 1.2 0 0 0-.367.225 1.6 1.6 0 0 0-.284.361q-.125.214-.231.486v3.753h-1.272v-6.038h.74q.2 0 .278.077.077.07.106.254zm5.22 1.847q.593 0 .888-.302.296-.303.296-.788 0-.497-.296-.787t-.888-.29q-.587 0-.888.29-.296.29-.296.787 0 .237.077.438.076.202.225.35.148.142.367.225.225.077.515.077m1.77 3.368a.43.43 0 0 0-.118-.32.7.7 0 0 0-.308-.189 2 2 0 0 0-.456-.1 6 6 0 0 0-.557-.048 26 26 0 0 0-.597-.03 7 7 0 0 1-.587-.059 1.6 1.6 0 0 0-.467.355.71.71 0 0 0-.089.811.8.8 0 0 0 .284.267q.195.113.492.177.302.066.722.066.84 0 1.261-.26.42-.262.42-.67m1.279-6.115v.473q0 .237-.284.29l-.604.101q.153.344.154.764 0 .444-.178.805-.171.36-.479.615t-.735.391a3 3 0 0 1-.923.136q-.19 0-.373-.017a5 5 0 0 1-.349-.06.8.8 0 0 0-.255.214.4.4 0 0 0-.083.23q0 .195.172.29.171.096.45.137.284.04.645.053t.734.041q.374.03.734.101.361.065.64.225.284.155.456.42.171.267.171.693 0 .39-.195.764-.195.373-.568.663a2.9 2.9 0 0 1-.9.462q-.534.177-1.214.177-.675 0-1.178-.13a2.8 2.8 0 0 1-.835-.355 1.5 1.5 0 0 1-.497-.51 1.23 1.23 0 0 1-.16-.603q0-.426.267-.728.272-.303.734-.474a1.06 1.06 0 0 1-.403-.326q-.148-.207-.148-.544 0-.266.195-.557.196-.29.587-.491a1.94 1.94 0 0 1-.711-.657 1.77 1.77 0 0 1-.26-.965q0-.45.171-.811.178-.361.492-.616t.74-.39q.432-.137.941-.137.781 0 1.362.326zm4.232 3.179a8 8 0 0 0-1.149.112 3 3 0 0 0-.758.22 1 1 0 0 0-.42.313.7.7 0 0 0-.124.403q0 .213.065.367.07.147.189.248.125.094.284.142.166.042.362.042.496 0 .852-.184a2.7 2.7 0 0 0 .699-.544zm-3.375-2.558a3.46 3.46 0 0 1 2.439-.953q.521 0 .924.172a1.8 1.8 0 0 1 .681.473q.278.308.42.735.148.42.148.935v3.836h-.568a.6.6 0 0 1-.279-.053q-.094-.06-.16-.231l-.124-.491a6 6 0 0 1-.456.373q-.225.16-.467.272a2.1 2.1 0 0 1-.515.166 3 3 0 0 1-.604.059q-.368 0-.687-.1a1.5 1.5 0 0 1-.545-.303 1.5 1.5 0 0 1-.367-.509 1.8 1.8 0 0 1-.13-.71q0-.35.184-.681.189-.331.615-.592.432-.267 1.131-.438.705-.172 1.735-.196v-.402q0-.651-.279-.97-.277-.32-.817-.32-.367-.001-.615.094-.249.089-.432.196a6 6 0 0 0-.326.2.56.56 0 0 1-.302.09.4.4 0 0 1-.225-.066.6.6 0 0 1-.148-.171zm7.293-.041q.195-.202.402-.361.213-.166.45-.284.237-.119.503-.184.267-.065.581-.065.496 0 .87.166.379.165.633.467.26.302.391.729.13.42.13.929v3.842h-1.267V36.28q0-.61-.284-.947-.277-.338-.852-.338-.426 0-.794.196-.36.195-.68.532v4.4h-1.273v-6.04h.769q.261 0 .332.243zm6.773-.8v6.04h-1.273v-6.04zm.213-1.823a.8.8 0 0 1-.071.326.9.9 0 0 1-.184.272 1 1 0 0 1-.278.184.8.8 0 0 1-.331.065.8.8 0 0 1-.326-.065 1 1 0 0 1-.26-.184.834.834 0 0 1-.249-.598.9.9 0 0 1 .065-.331.9.9 0 0 1 .184-.267.8.8 0 0 1 .26-.183.8.8 0 0 1 .326-.071q.178 0 .331.07a.8.8 0 0 1 .278.184q.118.113.184.267a.8.8 0 0 1 .071.331m5.643 2.356q0 .136-.048.267a.6.6 0 0 1-.124.219l-3.061 4.032h3.132v.988h-4.606v-.533q0-.089.042-.213a.8.8 0 0 1 .124-.237l3.084-4.067h-3.072v-.988h4.529zm4.369 2.866a8 8 0 0 0-1.148.112 3 3 0 0 0-.758.22q-.291.129-.42.313a.7.7 0 0 0-.125.403q0 .213.065.367a.8.8 0 0 0 .19.248q.124.094.284.142.166.042.361.042.498 0 .853-.184.36-.189.698-.544zm-3.374-2.558a3.46 3.46 0 0 1 2.439-.953q.52 0 .923.172.41.165.681.473.279.308.42.735.148.42.148.935v3.836h-.568a.6.6 0 0 1-.278-.053q-.095-.06-.16-.231l-.124-.491a6 6 0 0 1-.456.373q-.225.16-.468.272-.236.112-.515.166-.272.06-.604.059-.366 0-.686-.1a1.5 1.5 0 0 1-.545-.303 1.5 1.5 0 0 1-.367-.509 1.8 1.8 0 0 1-.13-.71q0-.35.183-.681.19-.331.616-.592.432-.267 1.131-.438.703-.172 1.734-.196v-.402q0-.651-.278-.97-.279-.32-.817-.32-.367-.001-.616.094-.249.089-.432.196a7 7 0 0 0-.326.2.56.56 0 0 1-.301.09.4.4 0 0 1-.225-.066.6.6 0 0 1-.148-.171zm10.371.344a.7.7 0 0 1-.113.118.25.25 0 0 1-.154.041.4.4 0 0 1-.213-.07 3 3 0 0 0-.26-.154 2 2 0 0 0-.361-.16 1.7 1.7 0 0 0-.533-.071q-.414 0-.728.148-.308.147-.521.426a1.9 1.9 0 0 0-.314.669q-.1.39-.101.882 0 .51.113.906.112.396.319.669.214.272.51.414.302.142.674.142.367 0 .598-.089.231-.088.385-.195.155-.106.261-.195a.38.38 0 0 1 .236-.09q.154 0 .237.12l.361.467a2.4 2.4 0 0 1-.485.45 3 3 0 0 1-.562.302 3 3 0 0 1-.616.16 4 4 0 0 1-.645.053q-.563 0-1.054-.207a2.55 2.55 0 0 1-.853-.61 3 3 0 0 1-.574-.977 3.9 3.9 0 0 1-.207-1.32 3.9 3.9 0 0 1 .189-1.237q.19-.575.551-.989.367-.414.906-.645a3.1 3.1 0 0 1 1.243-.237q.657 0 1.154.213.504.213.894.604zm2.746-1.184v6.038h-1.273v-6.038zm.213-1.824a.8.8 0 0 1-.071.326.8.8 0 0 1-.183.272 1 1 0 0 1-.278.184.85.85 0 0 1-.332.065.8.8 0 0 1-.326-.065 1 1 0 0 1-.26-.184 1 1 0 0 1-.184-.272.85.85 0 0 1 0-.657.93.93 0 0 1 .444-.45.786.786 0 0 1 .658 0 .8.8 0 0 1 .278.183q.118.113.183.267a.8.8 0 0 1 .071.331m3.997 1.729q.67 0 1.208.219.545.219.923.622.385.403.592.976.208.574.208 1.291t-.208 1.29q-.207.574-.592.983-.378.403-.923.622a3.2 3.2 0 0 1-1.208.219 3.2 3.2 0 0 1-1.219-.22 2.6 2.6 0 0 1-.924-.62 2.8 2.8 0 0 1-.592-.983 3.8 3.8 0 0 1-.207-1.291q0-.717.207-1.29.208-.575.592-.977.385-.403.924-.622a3.2 3.2 0 0 1 1.219-.219m0 5.227q.817 0 1.214-.544.402-.55.402-1.57 0-1.017-.402-1.568-.397-.556-1.214-.556-.828 0-1.231.556-.403.55-.403 1.569t.403 1.569q.403.544 1.231.544m1.901-7.713-1.427 1.533a.6.6 0 0 1-.19.148.6.6 0 0 1-.236.041h-.758l.858-1.432a.6.6 0 0 1 .19-.22.6.6 0 0 1 .325-.07zm3.442 3.38q.196-.202.403-.361.213-.166.45-.284.237-.119.503-.184.267-.065.58-.065.498 0 .871.166.378.165.633.467.26.302.391.729.13.42.13.929v3.842h-1.267V36.28q0-.61-.284-.947-.279-.338-.853-.338-.426 0-.793.196a2.7 2.7 0 0 0-.681.532v4.4h-1.272v-6.04h.769q.26 0 .332.243zm12.25.687a1.5 1.5 0 0 0-.586-.48 1.75 1.75 0 0 0-.693-.136q-.746 0-1.166.55-.42.545-.421 1.617 0 .555.095.953.095.39.273.64.177.247.432.36.254.113.574.113.486 0 .835-.208.354-.212.657-.597zm1.273-4.21v8.762h-.77q-.254 0-.326-.243l-.112-.657a3.2 3.2 0 0 1-.864.717 2.23 2.23 0 0 1-1.119.272q-.51 0-.924-.201a2 2 0 0 1-.71-.598 2.9 2.9 0 0 1-.462-.965 5 5 0 0 1-.16-1.326q0-.675.178-1.25a3 3 0 0 1 .521-.994 2.37 2.37 0 0 1 1.9-.906q.532 0 .906.172.372.165.669.468v-3.25zm5.516 5.062q0-.32-.094-.592a1.3 1.3 0 0 0-.267-.48 1.2 1.2 0 0 0-.444-.32 1.44 1.44 0 0 0-.603-.118q-.693 0-1.09.397-.396.398-.503 1.113zm-3.036.782q.023.514.159.893.136.374.361.622.231.249.545.373.32.118.711.118.372 0 .645-.083a3.5 3.5 0 0 0 .473-.189q.202-.105.344-.19a.5.5 0 0 1 .26-.088q.155 0 .237.118l.361.468q-.225.267-.509.45a3 3 0 0 1-.604.302 3.4 3.4 0 0 1-.657.16 4 4 0 0 1-.657.053q-.627 0-1.166-.207a2.7 2.7 0 0 1-.93-.622 2.9 2.9 0 0 1-.615-1.012q-.219-.605-.219-1.391 0-.628.195-1.173.202-.544.568-.947.373-.403.9-.633a2.9 2.9 0 0 1 1.202-.237q.556 0 1.03.184.474.178.817.526.343.35.533.859.195.503.195 1.148 0 .297-.065.397t-.237.1zm9.611-5.844v8.762h-1.273V31.36zm4.797 6.122a8 8 0 0 0-1.148.112 3 3 0 0 0-.758.22 1 1 0 0 0-.42.313.7.7 0 0 0-.125.403q0 .213.066.367.07.147.189.248.125.094.284.142.166.042.361.042.498 0 .853-.184.36-.189.698-.544zm-3.374-2.558a3.46 3.46 0 0 1 2.439-.953q.52 0 .923.172.41.165.681.473.279.308.421.735.148.42.148.935v3.836h-.569a.6.6 0 0 1-.278-.053q-.094-.06-.16-.231l-.124-.491a6 6 0 0 1-.456.373q-.225.16-.468.272-.237.112-.515.166-.272.06-.604.059-.366 0-.686-.1a1.5 1.5 0 0 1-.545-.303 1.5 1.5 0 0 1-.367-.509 1.8 1.8 0 0 1-.13-.71q0-.35.183-.681.19-.331.616-.592.432-.267 1.131-.438.704-.172 1.734-.196v-.402q0-.651-.278-.97-.278-.32-.817-.32-.367-.001-.616.094a2.7 2.7 0 0 0-.432.196 6 6 0 0 0-.325.2.56.56 0 0 1-.302.09.4.4 0 0 1-.225-.066.6.6 0 0 1-.148-.171zM54.442 48.083v6.038h-1.273v-6.038zm.213-1.824a.8.8 0 0 1-.071.326.9.9 0 0 1-.184.272 1 1 0 0 1-.278.184.8.8 0 0 1-.331.065.8.8 0 0 1-.326-.065 1 1 0 0 1-.26-.184.827.827 0 0 1-.249-.598q0-.178.065-.331a.9.9 0 0 1 .444-.45.8.8 0 0 1 .325-.071.8.8 0 0 1 .332.07q.16.066.278.184.119.112.184.267a.8.8 0 0 1 .07.331m2.576 2.623q.195-.202.402-.361.213-.166.45-.284a2.4 2.4 0 0 1 1.084-.249q.497 0 .87.166.379.165.633.467.26.302.391.729.13.42.13.929v3.842h-1.267V50.28q0-.61-.284-.947-.278-.338-.852-.338-.427 0-.793.196-.362.195-.681.532v4.4H56.04v-6.04h.77q.26 0 .331.243zm5.751 5.24v-5.027l-.592-.083a.55.55 0 0 1-.242-.106.27.27 0 0 1-.09-.22v-.52h.924v-.51q0-.514.148-.923.154-.408.432-.693.285-.284.687-.432a2.5 2.5 0 0 1 .906-.154 2.5 2.5 0 0 1 .758.119l-.024.639q-.012.16-.16.19-.142.03-.361.029a1.6 1.6 0 0 0-.48.065.85.85 0 0 0-.367.207 1 1 0 0 0-.23.391 2 2 0 0 0-.077.604v.468h1.651v.917h-1.61v5.038zm6.226-6.134q.67 0 1.208.219.544.219.923.622.385.403.592.976.208.574.208 1.291t-.208 1.29-.592.983q-.378.403-.923.622-.54.219-1.208.219-.674 0-1.22-.22a2.6 2.6 0 0 1-.923-.62 2.8 2.8 0 0 1-.592-.983 3.8 3.8 0 0 1-.207-1.291q0-.717.207-1.29.207-.575.592-.977a2.6 2.6 0 0 1 .924-.622q.545-.219 1.22-.219m0 5.227q.818 0 1.214-.544.402-.55.402-1.57 0-1.017-.402-1.568-.398-.555-1.214-.556-.829 0-1.231.556-.403.55-.403 1.569t.403 1.569q.403.544 1.231.544m5.355-4.013q.285-.575.687-.9a1.47 1.47 0 0 1 .965-.332q.195 0 .367.048a1 1 0 0 1 .308.13l-.089.959q-.024.1-.077.142a.2.2 0 0 1-.13.035q-.09 0-.255-.03a1.7 1.7 0 0 0-.349-.035q-.266 0-.474.077a1.2 1.2 0 0 0-.367.225 1.6 1.6 0 0 0-.284.361 3.5 3.5 0 0 0-.23.486v3.753h-1.273v-6.038h.74q.201 0 .278.077.077.07.106.254zm3.17 4.92v-6.04h.769q.26 0 .331.243l.083.527q.165-.189.344-.343a2.1 2.1 0 0 1 .816-.456q.237-.065.51-.065.29 0 .532.083t.427.237q.189.153.325.373t.225.491q.136-.314.344-.539t.461-.367.539-.207q.29-.07.586-.071.486 0 .864.154.385.153.646.45.266.29.402.716t.136.971v3.842h-1.272V50.28q0-.64-.279-.959-.272-.326-.81-.326-.243 0-.457.083a1.07 1.07 0 0 0-.627.645q-.09.237-.089.557v3.842h-1.273V50.28q0-.663-.266-.97-.267-.315-.781-.315-.355 0-.658.184a2.1 2.1 0 0 0-.556.491v4.452zm13.054-2.641a8 8 0 0 0-1.149.112 3 3 0 0 0-.758.22q-.29.129-.42.313a.7.7 0 0 0-.124.403.9.9 0 0 0 .065.367q.07.147.19.248.123.094.284.142.165.042.36.042.498 0 .853-.184.36-.189.699-.544zm-3.375-2.558a3.46 3.46 0 0 1 2.44-.953q.52 0 .923.172.409.165.68.473.279.308.421.735.148.42.148.935v3.836h-.568a.6.6 0 0 1-.279-.053q-.094-.06-.16-.231l-.124-.491a6 6 0 0 1-.456.373q-.225.16-.467.272a2.1 2.1 0 0 1-.515.166q-.273.06-.604.059-.367 0-.687-.1a1.5 1.5 0 0 1-.544-.303 1.5 1.5 0 0 1-.368-.509 1.8 1.8 0 0 1-.13-.71q0-.35.184-.681.189-.331.615-.592.432-.267 1.131-.438.705-.172 1.735-.196v-.402q0-.651-.279-.97-.278-.32-.816-.32-.367-.001-.616.094-.249.089-.432.196-.184.106-.326.2a.56.56 0 0 1-.302.09.4.4 0 0 1-.225-.066.6.6 0 0 1-.148-.171zm10.371.344a.7.7 0 0 1-.112.118.25.25 0 0 1-.154.041.4.4 0 0 1-.213-.07 3 3 0 0 0-.26-.154 2 2 0 0 0-.362-.16 1.7 1.7 0 0 0-.533-.071q-.414 0-.728.148-.308.147-.52.426a1.9 1.9 0 0 0-.314.669q-.102.39-.101.882 0 .51.112.906.113.396.32.669.213.272.51.414.3.142.674.142.367 0 .598-.089a1.8 1.8 0 0 0 .385-.195q.154-.106.26-.195a.38.38 0 0 1 .237-.09q.154 0 .237.12l.36.467a2.4 2.4 0 0 1-.484.45 3 3 0 0 1-.563.302 3 3 0 0 1-.616.16 4 4 0 0 1-.645.053q-.562 0-1.054-.207a2.5 2.5 0 0 1-.852-.61 3 3 0 0 1-.574-.977 3.9 3.9 0 0 1-.208-1.32q0-.669.19-1.237.19-.575.55-.989.368-.414.906-.645.54-.237 1.243-.237.657 0 1.155.213.502.213.894.604zm2.747-1.184v6.038h-1.273v-6.038zm.213-1.824a.8.8 0 0 1-.071.326.9.9 0 0 1-.184.272 1 1 0 0 1-.278.184.8.8 0 0 1-.331.065.8.8 0 0 1-.326-.065 1 1 0 0 1-.26-.184.827.827 0 0 1-.249-.598q0-.178.065-.331a.92.92 0 0 1 .444-.45.8.8 0 0 1 .326-.071q.177 0 .331.07a.8.8 0 0 1 .278.184q.118.112.184.267a.8.8 0 0 1 .071.331m3.997 1.729q.669 0 1.207.219.545.219.924.622.384.403.592.976.207.574.207 1.291t-.207 1.29-.592.983a2.6 2.6 0 0 1-.924.622 3.2 3.2 0 0 1-1.207.219q-.675 0-1.22-.22a2.6 2.6 0 0 1-.923-.62 2.8 2.8 0 0 1-.592-.983 3.8 3.8 0 0 1-.207-1.291q0-.717.207-1.29.207-.575.592-.977.384-.403.923-.622.545-.219 1.22-.219m0 5.227q.817 0 1.213-.544.403-.55.403-1.57 0-1.017-.403-1.568-.397-.555-1.213-.556-.829 0-1.232.556-.402.55-.402 1.569t.402 1.569q.403.544 1.232.544m1.9-7.713-1.427 1.533a.6.6 0 0 1-.189.148.6.6 0 0 1-.237.041h-.758l.859-1.432a.6.6 0 0 1 .189-.22.6.6 0 0 1 .326-.07zm3.443 3.38q.195-.202.403-.361.213-.166.449-.284a2.4 2.4 0 0 1 1.084-.249q.496 0 .87.166.38.165.634.467.26.302.39.729.13.42.13.929v3.842h-1.266V50.28q0-.61-.285-.947-.278-.338-.852-.338a1.66 1.66 0 0 0-.793.196 2.7 2.7 0 0 0-.681.532v4.4h-1.273v-6.04h.77q.26 0 .331.243zM41.8 71.34q0-.495.19-.935.19-.444.515-.769.326-.332.758-.52.438-.19.93-.19.496 0 .935.19.438.19.763.52a2.42 2.42 0 0 1 .704 1.706q0 .498-.19.935-.19.432-.515.758a2.4 2.4 0 0 1-.764.515q-.437.19-.935.189-.491 0-.93-.19a2.46 2.46 0 0 1-1.272-1.273 2.3 2.3 0 0 1-.189-.935m14.943-.658q.461 0 .81-.118.357-.12.587-.332.237-.219.355-.527a1.9 1.9 0 0 0 .119-.686q0-.373-.118-.67a1.3 1.3 0 0 0-.344-.502 1.5 1.5 0 0 0-.586-.314 2.7 2.7 0 0 0-.822-.113h-1.267l-.001 3.261zm0-4.346q.836 0 1.445.196.615.195 1.012.551.403.35.598.847.195.49.195 1.09 0 .61-.207 1.118a2.4 2.4 0 0 1-.616.87 3 3 0 0 1-1.019.568q-.603.201-1.409.2h-1.267v3.085h-1.386l.003-8.525zm5.435 3.607q.285-.574.687-.9a1.47 1.47 0 0 1 .965-.33q.196 0 .367.047a1 1 0 0 1 .308.13l-.089.96q-.023.1-.077.141a.2.2 0 0 1-.13.036q-.09 0-.255-.03a1.7 1.7 0 0 0-.35-.036q-.266 0-.473.077a1.2 1.2 0 0 0-.367.225 1.6 1.6 0 0 0-.284.361 3.5 3.5 0 0 0-.231.486l-.001 3.753h-1.273l.002-6.039h.74q.201 0 .278.077.077.072.106.255zm5.572-1.212q.67 0 1.208.22.544.219.923.621.385.403.592.977t.207 1.29q0 .718-.208 1.291a2.8 2.8 0 0 1-.592.983q-.379.402-.924.621-.54.22-1.208.219-.674 0-1.22-.22a2.6 2.6 0 0 1-.922-.621 2.8 2.8 0 0 1-.592-.983 3.8 3.8 0 0 1-.207-1.29q0-.717.207-1.291.208-.575.593-.977.384-.402.923-.621.546-.219 1.22-.219m-.001 5.228q.816 0 1.213-.545.403-.55.403-1.569 0-1.017-.402-1.568-.397-.557-1.213-.557-.829 0-1.232.556-.403.55-.403 1.569 0 1.017.402 1.569.403.544 1.232.544m8.422-3.947a.7.7 0 0 1-.112.118.25.25 0 0 1-.154.042.4.4 0 0 1-.213-.071 3 3 0 0 0-.26-.154 2 2 0 0 0-.362-.16 1.7 1.7 0 0 0-.533-.071q-.414 0-.728.148-.308.147-.52.426a1.9 1.9 0 0 0-.315.668q-.1.39-.1.883 0 .508.112.905t.32.67q.211.272.508.414.302.142.675.142.367 0 .598-.088.23-.09.385-.196a4 4 0 0 0 .26-.195.38.38 0 0 1 .237-.089q.155 0 .237.119l.36.468a2.4 2.4 0 0 1-.485.45 3 3 0 0 1-.562.301 3 3 0 0 1-.616.16 4 4 0 0 1-.645.053q-.562 0-1.054-.208a2.5 2.5 0 0 1-.852-.61 3 3 0 0 1-.574-.977 3.9 3.9 0 0 1-.207-1.32q0-.669.19-1.237.19-.574.55-.989.368-.413.906-.645.54-.236 1.244-.236.657 0 1.154.213.503.213.894.605zm5.277 1.156q0-.32-.095-.592a1.3 1.3 0 0 0-.266-.48 1.2 1.2 0 0 0-.444-.32 1.45 1.45 0 0 0-.604-.118q-.693 0-1.09.396-.395.397-.503 1.113zm-3.037.78q.023.516.16.895.135.372.36.621.231.249.545.373.32.12.71.119.373 0 .645-.083.273-.088.474-.19.201-.105.343-.188a.5.5 0 0 1 .261-.09q.154 0 .237.12l.36.467q-.225.267-.508.45-.285.183-.604.302a3.4 3.4 0 0 1-.658.16 4 4 0 0 1-.657.052q-.627 0-1.166-.207a2.7 2.7 0 0 1-.93-.622 2.9 2.9 0 0 1-.615-1.012q-.218-.605-.218-1.392 0-.627.195-1.172a2.9 2.9 0 0 1 .569-.947q.373-.403.9-.633a2.9 2.9 0 0 1 1.202-.237q.555 0 1.03.184.474.178.817.527t.532.859q.195.503.195 1.148 0 .297-.065.397t-.237.1zm8.972-2.022a.3.3 0 0 1-.107.119.3.3 0 0 1-.148.035.5.5 0 0 1-.219-.059 6 6 0 0 0-.278-.142 2 2 0 0 0-.379-.136 1.7 1.7 0 0 0-.503-.066q-.237 0-.432.06a.9.9 0 0 0-.326.16.7.7 0 0 0-.201.242.6.6 0 0 0-.071.296q0 .213.13.355t.343.249q.213.1.486.183.272.084.556.178t.556.22q.273.123.486.307.213.179.343.438.13.255.13.622 0 .427-.154.787t-.45.628a2.1 2.1 0 0 1-.74.414 3.1 3.1 0 0 1-1.007.148 3 3 0 0 1-.61-.06 3.6 3.6 0 0 1-.556-.148 3.3 3.3 0 0 1-.491-.237q-.225-.136-.403-.296l.297-.485a.365.365 0 0 1 .331-.19q.124 0 .243.083.124.078.284.172.165.095.397.178.23.077.574.077.284 0 .491-.065a1 1 0 0 0 .344-.19.76.76 0 0 0 .2-.266.8.8 0 0 0 .066-.325.55.55 0 0 0-.13-.38 1.1 1.1 0 0 0-.35-.254 3 3 0 0 0-.49-.19 23 23 0 0 1-.557-.177 6 6 0 0 1-.562-.22 2 2 0 0 1-.492-.313 1.5 1.5 0 0 1-.343-.468 1.6 1.6 0 0 1-.13-.675q0-.36.142-.687.149-.325.427-.574.285-.248.692-.39.415-.148.954-.148.609 0 1.107.196.497.195.834.533zm4.174-1.188q.67 0 1.208.219.544.219.923.622.385.402.592.977t.207 1.29q0 .717-.208 1.29-.207.576-.592.983-.379.403-.924.622-.539.219-1.208.219a3.2 3.2 0 0 1-1.219-.22 2.6 2.6 0 0 1-.923-.622 2.8 2.8 0 0 1-.592-.983 3.8 3.8 0 0 1-.207-1.29q0-.717.208-1.29.207-.576.592-.977a2.6 2.6 0 0 1 .924-.622q.545-.22 1.22-.218m-.001 5.227q.816 0 1.213-.544.403-.55.403-1.57 0-1.017-.402-1.568-.396-.557-1.213-.557-.829 0-1.232.556-.402.55-.403 1.57 0 1.016.403 1.568.402.545 1.23.545m7.76-4.035a.3.3 0 0 1-.107.118.3.3 0 0 1-.148.035.5.5 0 0 1-.22-.059 6 6 0 0 0-.277-.142 2 2 0 0 0-.38-.136 1.7 1.7 0 0 0-.502-.066q-.237 0-.433.06a.9.9 0 0 0-.325.16.7.7 0 0 0-.202.242.6.6 0 0 0-.07.296q0 .213.13.355.129.142.343.249.213.1.485.184.273.083.557.177.283.096.556.22.272.123.485.307.213.178.344.439.13.255.13.621 0 .427-.154.788-.154.36-.45.627a2.1 2.1 0 0 1-.74.414 3.1 3.1 0 0 1-1.007.148q-.315 0-.61-.06a3.6 3.6 0 0 1-.556-.147 3.3 3.3 0 0 1-.492-.238q-.225-.135-.402-.296l.296-.485a.365.365 0 0 1 .332-.19q.123 0 .242.084l.284.171q.165.096.397.178.23.078.574.077.284 0 .492-.065a1 1 0 0 0 .343-.19.8.8 0 0 0 .201-.265.8.8 0 0 0 .066-.326.55.55 0 0 0-.13-.379 1.1 1.1 0 0 0-.35-.255 3 3 0 0 0-.491-.19 22 22 0 0 1-.556-.177 6 6 0 0 1-.563-.22 2 2 0 0 1-.491-.313 1.5 1.5 0 0 1-.343-.468 1.6 1.6 0 0 1-.13-.675q0-.361.142-.686.148-.326.426-.575.284-.248.693-.39.414-.148.953-.148.61 0 1.107.196.498.195.835.533zm5.809-3.817-.003 8.761h-1.273l.003-8.762zm4.795 6.122a8 8 0 0 0-1.148.112 3 3 0 0 0-.758.22q-.29.129-.42.313a.7.7 0 0 0-.125.403q0 .213.065.367a.8.8 0 0 0 .19.248q.123.094.284.142.165.042.361.042.496 0 .852-.183.362-.19.699-.545zm-3.373-2.558a3.46 3.46 0 0 1 2.439-.953q.52 0 .923.172.41.167.681.474.278.309.42.734.148.42.148.936l-.001 3.836h-.568a.6.6 0 0 1-.279-.053q-.095-.06-.159-.231l-.125-.492a6 6 0 0 1-.456.373q-.225.16-.467.272a2.1 2.1 0 0 1-.515.166q-.273.06-.604.059-.367 0-.687-.101a1.5 1.5 0 0 1-.545-.302 1.5 1.5 0 0 1-.366-.51 1.8 1.8 0 0 1-.13-.71q0-.349.183-.68.19-.332.616-.592.432-.267 1.131-.438.705-.172 1.735-.195v-.402q0-.652-.278-.971-.279-.32-.817-.32-.367 0-.616.094-.249.09-.432.195a7 7 0 0 0-.326.202.56.56 0 0 1-.302.088.4.4 0 0 1-.225-.065.6.6 0 0 1-.148-.172zm7.304.28q.285-.574.687-.9.402-.33.965-.33.196 0 .367.047a1 1 0 0 1 .308.13l-.089.96a.25.25 0 0 1-.077.141.2.2 0 0 1-.13.036q-.09 0-.255-.03a1.7 1.7 0 0 0-.349-.036q-.267 0-.474.077a1.2 1.2 0 0 0-.367.225 1.5 1.5 0 0 0-.284.361q-.124.213-.231.486l-.001 3.753h-1.273l.002-6.039h.74q.2 0 .278.077.077.071.106.255zm5.219 1.849q.593 0 .888-.302t.296-.787q.001-.497-.295-.788-.297-.29-.888-.29-.587 0-.888.29-.296.29-.297.787 0 .237.077.438.078.2.225.35.148.142.367.225.225.076.515.077m1.769 3.369a.43.43 0 0 0-.118-.32.7.7 0 0 0-.308-.19 2 2 0 0 0-.456-.1 6 6 0 0 0-.556-.048 26 26 0 0 0-.598-.03 7 7 0 0 1-.586-.059 1.6 1.6 0 0 0-.468.355.72.72 0 0 0-.178.48q0 .177.089.331a.8.8 0 0 0 .284.267q.195.113.492.177.302.066.722.066.84 0 1.261-.26t.42-.67m1.281-6.115v.473q0 .237-.285.29l-.604.1q.154.344.154.764 0 .444-.178.806-.171.36-.479.615t-.735.39q-.426.137-.923.136-.19 0-.373-.017a5 5 0 0 1-.349-.06.8.8 0 0 0-.255.213.4.4 0 0 0-.083.231q0 .195.172.29t.45.137q.283.04.645.053.361.012.734.042t.734.1q.361.066.639.226.285.153.456.42t.172.693q-.001.39-.196.763-.195.374-.569.663a2.8 2.8 0 0 1-.899.462q-.534.177-1.214.177a4.7 4.7 0 0 1-1.178-.13 2.8 2.8 0 0 1-.835-.356 1.5 1.5 0 0 1-.497-.51 1.24 1.24 0 0 1-.16-.603q0-.426.267-.728.273-.302.734-.474a1.05 1.05 0 0 1-.402-.325q-.148-.207-.148-.545 0-.266.195-.556.196-.29.587-.492a1.94 1.94 0 0 1-.711-.657 1.8 1.8 0 0 1-.26-.965q0-.45.172-.81.178-.363.492-.616.313-.255.74-.39.432-.138.941-.137.781 0 1.362.326zm3.512-.313q.669 0 1.207.22.545.218.924.621.385.403.592.977.207.575.206 1.29 0 .717-.207 1.291-.208.574-.592.983a2.6 2.6 0 0 1-.924.621 3.2 3.2 0 0 1-1.208.219 3.2 3.2 0 0 1-1.219-.22 2.6 2.6 0 0 1-.924-.621 2.8 2.8 0 0 1-.591-.983 3.8 3.8 0 0 1-.207-1.291q0-.717.207-1.29.208-.575.593-.977.384-.403.923-.621.545-.22 1.22-.22m-.002 5.227q.818 0 1.214-.544.403-.55.403-1.569t-.402-1.569q-.397-.555-1.213-.557-.829 0-1.232.557-.403.55-.403 1.568t.402 1.57q.403.543 1.231.544m7.76-4.035a.3.3 0 0 1-.106.118.3.3 0 0 1-.148.036.5.5 0 0 1-.219-.06 6 6 0 0 0-.279-.142 2 2 0 0 0-.379-.136 1.7 1.7 0 0 0-.503-.065q-.237 0-.432.059a.9.9 0 0 0-.326.16.7.7 0 0 0-.201.242.64.64 0 0 0-.071.296q0 .213.13.355t.343.25q.213.099.486.183.272.082.556.178t.557.219.485.308q.213.177.343.438.13.255.13.622 0 .426-.154.787-.153.36-.45.627a2.1 2.1 0 0 1-.74.415 3.1 3.1 0 0 1-1.006.147q-.315 0-.61-.06a3.6 3.6 0 0 1-.557-.147 3.4 3.4 0 0 1-.491-.237q-.225-.137-.402-.296l.296-.486a.363.363 0 0 1 .331-.19.42.42 0 0 1 .243.084l.284.172q.166.094.397.177.23.077.574.078.284 0 .491-.066.207-.07.344-.189a.75.75 0 0 0 .266-.592.55.55 0 0 0-.13-.379 1.1 1.1 0 0 0-.349-.254 3 3 0 0 0-.491-.19 22 22 0 0 1-.557-.178 6 6 0 0 1-.562-.219 2 2 0 0 1-.491-.314 1.5 1.5 0 0 1-.344-.468 1.6 1.6 0 0 1-.13-.674q0-.361.143-.687a1.7 1.7 0 0 1 .426-.574 2.1 2.1 0 0 1 .693-.39q.414-.15.953-.148.609 0 1.107.195.497.195.834.533zm9.569-1.093L139.63 76.6a.6.6 0 0 1-.16.214q-.089.076-.278.077h-.942l1.114-2.416-2.461-5.63h1.107q.159 0 .243.077a.43.43 0 0 1 .13.172l1.437 3.428q.053.147.095.296.048.141.089.296.047-.155.095-.302.047-.148.106-.296l1.38-3.422a.4.4 0 0 1 .137-.177.37.37 0 0 1 .219-.071zm7.756 1.186a.7.7 0 0 1-.113.119.25.25 0 0 1-.154.041.4.4 0 0 1-.213-.071 3 3 0 0 0-.26-.154 2 2 0 0 0-.361-.16 1.7 1.7 0 0 0-.533-.071q-.414 0-.728.148-.308.147-.521.426a1.9 1.9 0 0 0-.314.669 3.5 3.5 0 0 0-.101.882q0 .51.112.905.112.397.32.67.213.272.509.414.302.142.674.142.367 0 .598-.088.231-.089.385-.196.154-.106.261-.195a.38.38 0 0 1 .237-.089.27.27 0 0 1 .236.119l.361.468a2.4 2.4 0 0 1-.485.45 3 3 0 0 1-.563.301 3 3 0 0 1-.615.16 4 4 0 0 1-.646.053q-.562 0-1.053-.207a2.55 2.55 0 0 1-.853-.61 3 3 0 0 1-.574-.977 3.9 3.9 0 0 1-.207-1.32 3.9 3.9 0 0 1 .19-1.238q.19-.574.551-.988.367-.416.906-.645a3.1 3.1 0 0 1 1.243-.237q.657 0 1.155.214.503.213.893.604zm3.927-1.277q.67 0 1.208.219.545.219.923.622.385.402.592.977t.207 1.29q0 .717-.208 1.291t-.592.983a2.6 2.6 0 0 1-.924.62 3.2 3.2 0 0 1-1.208.22q-.674 0-1.219-.22a2.6 2.6 0 0 1-.923-.622 2.8 2.8 0 0 1-.592-.983 3.8 3.8 0 0 1-.207-1.29q0-.717.208-1.29.207-.575.592-.977.384-.403.924-.622a3.2 3.2 0 0 1 1.219-.218m-.001 5.227q.816 0 1.213-.544.403-.55.403-1.569.001-1.018-.402-1.569-.396-.557-1.213-.557-.829 0-1.232.556-.402.55-.403 1.57 0 1.016.403 1.568.402.545 1.231.545m4.153.907.001-6.038h.77q.26 0 .332.243l.082.526q.166-.189.344-.343a2.05 2.05 0 0 1 .817-.456q.236-.064.509-.064.29 0 .533.083t.426.236q.19.155.325.374.137.22.225.491.137-.314.344-.539a1.9 1.9 0 0 1 .462-.367q.254-.141.538-.207.29-.07.586-.07.486 0 .865.154.384.153.645.45.266.29.402.716t.136.971l-.001 3.842h-1.273l.001-3.842q0-.64-.278-.96-.271-.325-.811-.325-.242 0-.455.083a1.1 1.1 0 0 0-.373.242q-.16.16-.255.403a1.6 1.6 0 0 0-.089.556l-.001 3.842h-1.273l.001-3.842q0-.663-.266-.971-.267-.314-.781-.314-.355 0-.658.183a2.1 2.1 0 0 0-.556.491l-.001 4.452zm11.101-1.513q.267.344.58.486.32.136.705.136.746 0 1.16-.544.42-.545.421-1.622 0-.556-.095-.947a1.8 1.8 0 0 0-.272-.645 1.05 1.05 0 0 0-.432-.362 1.4 1.4 0 0 0-.574-.112q-.486 0-.841.212-.35.208-.651.598zm-.064-3.646a3.2 3.2 0 0 1 .859-.716 2.26 2.26 0 0 1 1.124-.272q.51 0 .924.207.414.201.71.592t.456.971q.165.575.165 1.32a4.1 4.1 0 0 1-.184 1.25q-.177.573-.515 1-.337.42-.817.663-.48.236-1.084.236-.533 0-.905-.172a2.3 2.3 0 0 1-.669-.474l-.001 2.564h-1.273l.003-8.046h.769q.26 0 .332.243zm6.773-3.598-.002 8.762h-1.273l.002-8.762zm5.53 5.063q0-.32-.095-.592a1.3 1.3 0 0 0-.266-.48 1.2 1.2 0 0 0-.444-.32 1.44 1.44 0 0 0-.603-.118q-.693 0-1.09.397-.396.396-.503 1.112zm-3.037.78q.024.516.159.895.137.373.361.621.231.249.545.374.32.118.71.118.373 0 .646-.083.272-.089.473-.189a9 9 0 0 0 .344-.19.5.5 0 0 1 .26-.088q.154 0 .237.119l.361.467q-.225.267-.509.45t-.604.302a3.4 3.4 0 0 1-.657.16 4 4 0 0 1-.657.053q-.629 0-1.167-.208a2.65 2.65 0 0 1-.929-.622 2.9 2.9 0 0 1-.615-1.012q-.219-.605-.219-1.391 0-.628.196-1.173a2.9 2.9 0 0 1 .568-.947q.374-.402.9-.633a2.9 2.9 0 0 1 1.202-.236q.556 0 1.03.183.474.178.817.528t.532.858q.196.503.196 1.149 0 .296-.066.396-.065.1-.237.1zm6.693-3.117-.001 6.352a2.5 2.5 0 0 1-.101.71q-.1.337-.32.586a1.5 1.5 0 0 1-.569.39 2.2 2.2 0 0 1-.834.143q-.208 0-.373-.03a3 3 0 0 1-.338-.083l.048-.692q.017-.12.101-.137.077-.017.301-.017.45 0 .628-.201.184-.195.184-.67l.001-6.352zm.208-1.824a.8.8 0 0 1-.071.326.86.86 0 0 1-.456.456.8.8 0 0 1-.332.065.8.8 0 0 1-.325-.065 1 1 0 0 1-.267-.184.9.9 0 0 1-.177-.272.85.85 0 0 1 .178-.924.9.9 0 0 1 .266-.183.8.8 0 0 1 .326-.071q.177 0 .331.07a.9.9 0 0 1 .273.184.8.8 0 0 1 .183.267.8.8 0 0 1 .071.331m4.002 1.73q.67 0 1.208.22.545.219.923.621.385.403.592.977.207.575.207 1.291 0 .717-.208 1.29-.207.574-.592.983a2.6 2.6 0 0 1-.924.621 3.2 3.2 0 0 1-1.207.22q-.675-.001-1.22-.22a2.6 2.6 0 0 1-.923-.622 2.8 2.8 0 0 1-.592-.983 3.8 3.8 0 0 1-.207-1.29q0-.717.208-1.291.207-.574.592-.977.386-.402.924-.621a3.2 3.2 0 0 1 1.219-.219m-.001 5.228q.816 0 1.214-.545.402-.55.403-1.568 0-1.019-.403-1.57-.396-.556-1.213-.556-.829 0-1.232.556-.402.55-.402 1.569-.001 1.017.402 1.569.402.544 1.231.545m7.76-4.036a.3.3 0 0 1-.107.119.3.3 0 0 1-.148.035.5.5 0 0 1-.219-.06 6 6 0 0 0-.278-.141 2.2 2.2 0 0 0-.379-.137 1.7 1.7 0 0 0-.503-.065q-.237 0-.432.06a.9.9 0 0 0-.326.159.7.7 0 0 0-.273.539q0 .213.131.355.13.142.343.249.213.1.485.183.272.084.557.178.284.094.556.22.272.123.485.307.214.179.344.438.13.255.13.622 0 .427-.154.787t-.45.628a2.1 2.1 0 0 1-.741.414 3.1 3.1 0 0 1-1.006.148q-.313 0-.61-.06a3.6 3.6 0 0 1-.556-.148 3 3 0 0 1-.491-.237q-.225-.136-.403-.296l.296-.485a.368.368 0 0 1 .332-.19q.125 0 .242.083.125.078.285.172.165.095.396.178.23.077.574.077.285 0 .492-.065.207-.07.343-.19a.8.8 0 0 0 .202-.266.8.8 0 0 0 .065-.325.56.56 0 0 0-.13-.38 1.1 1.1 0 0 0-.35-.254 3 3 0 0 0-.491-.19 22 22 0 0 1-.556-.177 6 6 0 0 1-.563-.22 2 2 0 0 1-.491-.313 1.5 1.5 0 0 1-.343-.468 1.6 1.6 0 0 1-.13-.675q0-.36.142-.687.149-.325.426-.574a2.1 2.1 0 0 1 .693-.39q.414-.148.953-.148.61 0 1.107.195.498.195.835.534zm8.365.393a1.5 1.5 0 0 0-.586-.474 1.7 1.7 0 0 0-.693-.142q-.746 0-1.166.55-.42.545-.421 1.617 0 .555.095.953.095.39.272.64.177.248.432.36.255.113.574.113.486 0 .835-.207a2.4 2.4 0 0 0 .657-.598zm1.273-1.485-.002 8.045h-1.273l.001-2.83a3.2 3.2 0 0 1-.841.663 2.24 2.24 0 0 1-1.077.248q-.51 0-.924-.201a2 2 0 0 1-.71-.599 3 3 0 0 1-.462-.965 5 5 0 0 1-.159-1.326q0-.675.178-1.249.183-.574.521-.994.338-.426.817-.663a2.4 2.4 0 0 1 1.084-.243q.29 0 .527.054.242.046.444.148.207.095.378.237.172.135.326.314l.077-.397q.07-.243.326-.242zm6.648.001-.002 6.039h-.769q-.255 0-.326-.243l-.095-.563q-.189.202-.402.367-.207.166-.444.284a2.4 2.4 0 0 1-1.084.249q-.496 0-.876-.166a1.8 1.8 0 0 1-.639-.468 2 2 0 0 1-.385-.723 3.2 3.2 0 0 1-.13-.935l.001-3.842h1.273l-.001 3.843q0 .61.278.947.285.337.858.337.421 0 .782-.189.368-.195.687-.532l.001-4.405zm5.505 2.34q0-.32-.094-.592a1.3 1.3 0 0 0-.267-.48 1.2 1.2 0 0 0-.443-.32 1.45 1.45 0 0 0-.604-.118q-.693 0-1.09.397-.396.396-.503 1.112zm-3.037.781q.024.515.16.894.136.373.361.622.23.248.544.373.32.118.711.118.372 0 .645-.082.272-.09.474-.19.2-.106.343-.189a.5.5 0 0 1 .26-.089q.155 0 .237.119l.361.468q-.225.266-.509.45a3 3 0 0 1-.604.301 3.4 3.4 0 0 1-.657.16 4 4 0 0 1-.657.053q-.628 0-1.166-.208a2.7 2.7 0 0 1-.93-.622 2.9 2.9 0 0 1-.615-1.012q-.219-.604-.219-1.391 0-.629.196-1.172.201-.546.568-.948.374-.402.9-.633a2.9 2.9 0 0 1 1.202-.236q.557 0 1.03.184.474.177.817.527.344.35.533.858.195.504.195 1.149 0 .296-.065.396-.066.102-.237.101zM55.052 83.941q.284-.574.687-.9.402-.33.965-.33.195 0 .367.047a1 1 0 0 1 .308.13l-.09.96q-.022.1-.076.141a.2.2 0 0 1-.13.036q-.09 0-.255-.03a1.7 1.7 0 0 0-.35-.036q-.266 0-.473.077a1.2 1.2 0 0 0-.367.225 1.6 1.6 0 0 0-.284.361 3.5 3.5 0 0 0-.231.486l-.001 3.753h-1.273l.001-6.039h.74q.202 0 .279.077.075.072.106.255zm6.302 2.281a8 8 0 0 0-1.148.112 3 3 0 0 0-.758.22q-.291.129-.42.313a.7.7 0 0 0-.125.402q0 .213.065.367.07.149.19.25.123.094.283.141.165.042.361.042.498 0 .853-.184.36-.189.699-.544zm-3.374-2.558a3.46 3.46 0 0 1 2.44-.953q.52 0 .923.172.409.166.68.474.279.308.42.734.15.42.149.936l-.001 3.836h-.569a.6.6 0 0 1-.278-.054q-.094-.06-.16-.23l-.124-.492a6 6 0 0 1-.456.373 3 3 0 0 1-.468.272q-.236.112-.515.166-.272.06-.604.059-.366 0-.686-.101a1.5 1.5 0 0 1-.545-.302 1.5 1.5 0 0 1-.367-.51 1.8 1.8 0 0 1-.13-.71q0-.35.184-.68.19-.333.616-.592.432-.267 1.13-.438.705-.172 1.735-.195v-.403q0-.65-.278-.97t-.816-.32q-.367 0-.616.094-.249.09-.432.195-.184.107-.326.201a.56.56 0 0 1-.302.09.4.4 0 0 1-.225-.066.6.6 0 0 1-.148-.172zm7.4-3.562-.002 8.762h-1.273l.003-8.762zm5.53 5.063q.001-.32-.094-.592a1.3 1.3 0 0 0-.266-.48 1.2 1.2 0 0 0-.444-.32 1.45 1.45 0 0 0-.604-.118q-.693 0-1.09.397-.396.396-.503 1.112zm-3.037.78q.024.516.16.895.135.373.361.621.23.249.544.374.32.118.71.118.375 0 .646-.083a3.5 3.5 0 0 0 .817-.378.5.5 0 0 1 .26-.089q.154 0 .238.118l.36.468q-.225.267-.509.45t-.604.302a3.4 3.4 0 0 1-.657.16 4 4 0 0 1-.657.053q-.627 0-1.166-.208a2.66 2.66 0 0 1-.93-.622 2.9 2.9 0 0 1-.615-1.012q-.219-.605-.219-1.392 0-.627.196-1.172a2.9 2.9 0 0 1 .569-.947q.374-.403.9-.633a2.9 2.9 0 0 1 1.202-.236q.555 0 1.03.183.473.179.817.527.343.35.532.859.195.502.195 1.149 0 .296-.065.396-.066.1-.237.1zm6.557-2.318a4 4 0 0 1 .403-.361q.213-.165.45-.284a2.4 2.4 0 0 1 1.084-.248q.496 0 .87.166.378.165.633.467.261.302.39.729.13.42.13.93v3.841h-1.267v-3.842q0-.61-.283-.948-.279-.337-.853-.337-.426 0-.793.195-.361.195-.68.532l-.002 4.4-1.273-.001.002-6.039h.77q.26 0 .33.243zm11.226 5.242h-1.273l.001-5.038-2.942-.001v3.428q0 .326.159.497a.55.55 0 0 0 .426.172.8.8 0 0 0 .255-.036q.106-.041.183-.082.078-.048.13-.083a.2.2 0 0 1 .113-.042q.106 0 .172.119l.378.621q-.296.26-.698.403-.403.135-.83.136-.75 0-1.16-.42-.402-.428-.402-1.197l.001-3.516h-.663a.28.28 0 0 1-.183-.066q-.077-.07-.077-.207v-.515l.977-.142.279-1.746a.3.3 0 0 1 .1-.16.27.27 0 0 1 .19-.065h.65v1.983l4.216.002zm.262-7.891a.8.8 0 0 1-.07.325.9.9 0 0 1-.184.267 1 1 0 0 1-.279.183.8.8 0 0 1-.325.065.8.8 0 0 1-.326-.065 1 1 0 0 1-.266-.184 1 1 0 0 1-.184-.266.8.8 0 0 1-.065-.326.84.84 0 0 1 .25-.603.9.9 0 0 1 .266-.184.8.8 0 0 1 .325-.07q.172 0 .326.07a.83.83 0 0 1 .462.456.8.8 0 0 1 .07.332m5.604 2.387q0 .136-.047.267a.6.6 0 0 1-.124.218l-3.062 4.031 3.132.001v.989l-4.607-.002v-.532q0-.09.042-.213a.9.9 0 0 1 .125-.237l3.085-4.067h-3.073v-.989l4.53.001zm4.37 2.867a8 8 0 0 0-1.15.112 3 3 0 0 0-.757.219q-.291.129-.42.313a.7.7 0 0 0-.125.403q0 .213.065.367.07.148.19.248.123.096.284.143.165.04.36.041.498 0 .853-.183a2.7 2.7 0 0 0 .699-.545zm-3.374-2.559a3.46 3.46 0 0 1 2.439-.952q.52 0 .923.172.41.165.681.474.278.308.42.734.148.42.148.935l-.001 3.836h-.569a.6.6 0 0 1-.278-.053q-.094-.06-.16-.231l-.124-.492a6 6 0 0 1-.456.373q-.225.16-.467.272-.237.112-.516.166-.271.06-.603.06-.368-.002-.687-.102a1.5 1.5 0 0 1-.545-.302 1.5 1.5 0 0 1-.367-.509 1.8 1.8 0 0 1-.13-.71q0-.35.184-.681.19-.331.616-.592.432-.266 1.13-.438.706-.172 1.735-.195v-.402q0-.651-.277-.971-.279-.32-.817-.32-.367 0-.616.094-.249.09-.432.196-.184.106-.326.2a.56.56 0 0 1-.302.09.4.4 0 0 1-.225-.066.6.6 0 0 1-.148-.171zm7.292-.04a4 4 0 0 1 .403-.36 2.7 2.7 0 0 1 .45-.284 2.4 2.4 0 0 1 1.083-.249q.498 0 .87.166.38.166.634.468a2 2 0 0 1 .39.728q.13.42.13.93l-.001 3.842h-1.267l.001-3.842q0-.61-.284-.948-.278-.337-.852-.337a1.66 1.66 0 0 0-.793.195q-.361.196-.681.532l-.001 4.399h-1.273l.001-6.039h.77q.26 0 .332.243zm9.693-3.519-.002 8.762h-1.273l.002-8.762zm4.796 6.123a8 8 0 0 0-1.149.112 3 3 0 0 0-.758.218 1 1 0 0 0-.42.314.7.7 0 0 0-.124.403q0 .213.065.367a.7.7 0 0 0 .189.249q.125.094.284.142.166.04.361.041.498 0 .853-.183.36-.19.698-.545zm-3.374-2.559a3.46 3.46 0 0 1 2.439-.952q.521 0 .924.172.408.165.68.473.279.308.421.735.147.42.147.935l-.001 3.836h-.568a.6.6 0 0 1-.278-.053q-.095-.06-.16-.231l-.124-.492a6 6 0 0 1-.456.373q-.225.16-.468.272-.237.112-.515.166a3 3 0 0 1-.604.059q-.367 0-.687-.1a1.5 1.5 0 0 1-.544-.303 1.5 1.5 0 0 1-.367-.51 1.8 1.8 0 0 1-.13-.71q0-.349.184-.68.189-.332.615-.592.434-.266 1.131-.438.705-.172 1.735-.195v-.402q0-.651-.278-.971t-.817-.32q-.367 0-.616.094a2.7 2.7 0 0 0-.432.196 6 6 0 0 0-.325.2.56.56 0 0 1-.302.09.4.4 0 0 1-.225-.066.6.6 0 0 1-.148-.171zm9.708.257a.3.3 0 0 1-.107.119.3.3 0 0 1-.148.035.5.5 0 0 1-.219-.059 6 6 0 0 0-.278-.142 2 2 0 0 0-.379-.137 1.7 1.7 0 0 0-.503-.065q-.237 0-.432.06a.9.9 0 0 0-.326.16.7.7 0 0 0-.272.538q0 .213.13.355t.343.249q.213.1.486.183.272.084.556.178t.556.22q.273.124.486.307.213.178.343.438.13.255.13.622 0 .427-.154.787t-.45.628a2.1 2.1 0 0 1-.74.414 3.1 3.1 0 0 1-1.007.148q-.314 0-.609-.06a3.6 3.6 0 0 1-.557-.148 3.4 3.4 0 0 1-.491-.237q-.225-.136-.403-.296l.297-.485a.363.363 0 0 1 .331-.19.42.42 0 0 1 .243.083q.124.078.284.172.166.095.396.178.231.077.575.077.284 0 .491-.065.208-.07.343-.19a.8.8 0 0 0 .202-.266.8.8 0 0 0 .065-.325.55.55 0 0 0-.13-.38 1.1 1.1 0 0 0-.349-.254 3 3 0 0 0-.492-.19 22 22 0 0 1-.556-.177 6 6 0 0 1-.562-.22 2 2 0 0 1-.492-.313 1.5 1.5 0 0 1-.343-.468 1.6 1.6 0 0 1-.13-.675q0-.36.142-.687.148-.325.427-.574.284-.248.692-.39.415-.148.954-.148.609 0 1.107.196.496.195.834.533zm6.446 5.04q-.752 0-1.16-.42-.403-.427-.402-1.197v-3.516h-.663a.27.27 0 0 1-.183-.065q-.077-.072-.077-.208v-.515l.977-.142.279-1.746a.3.3 0 0 1 .1-.16.27.27 0 0 1 .19-.065h.651v1.984h1.675v.918h-1.676l-.001 3.427q0 .326.16.497a.56.56 0 0 0 .426.172.8.8 0 0 0 .255-.035q.106-.042.183-.083l.131-.083a.2.2 0 0 1 .112-.041q.106 0 .172.118l.378.622q-.296.26-.698.402-.403.136-.829.136m5.616-2.733a8 8 0 0 0-1.149.112 3 3 0 0 0-.758.219q-.29.129-.42.313a.7.7 0 0 0-.125.403q0 .213.066.367.07.147.189.248a.9.9 0 0 0 .284.143q.166.04.361.041.498 0 .853-.183.36-.19.698-.545zm-3.374-2.559a3.46 3.46 0 0 1 2.439-.952q.521 0 .924.172.408.165.68.473.279.308.421.735.147.42.147.935l-.001 3.836h-.568a.6.6 0 0 1-.278-.053q-.095-.06-.16-.231l-.124-.492a6 6 0 0 1-.456.373q-.225.16-.468.272-.237.112-.515.166a3 3 0 0 1-.604.059q-.368 0-.687-.1a1.5 1.5 0 0 1-.544-.303 1.5 1.5 0 0 1-.367-.51 1.8 1.8 0 0 1-.13-.71q0-.349.184-.68.189-.332.615-.592.433-.267 1.131-.438.705-.172 1.735-.195v-.402q0-.651-.278-.971t-.817-.32q-.367 0-.616.094a2.7 2.7 0 0 0-.432.196 6 6 0 0 0-.325.2.56.56 0 0 1-.302.09.4.4 0 0 1-.225-.066.6.6 0 0 1-.148-.171zm7.304.28q.285-.573.687-.9.403-.33.965-.33.196 0 .367.047a1 1 0 0 1 .308.13l-.089.96q-.023.1-.077.141a.2.2 0 0 1-.13.036q-.089 0-.255-.03a1.7 1.7 0 0 0-.349-.035q-.266 0-.474.076a1.2 1.2 0 0 0-.367.225 1.6 1.6 0 0 0-.284.361q-.124.213-.231.486l-.001 3.753h-1.273l.002-6.039h.74q.201 0 .278.077.077.072.107.255zm6.921 1.222q0-.32-.094-.592a1.3 1.3 0 0 0-.267-.48 1.2 1.2 0 0 0-.444-.32 1.4 1.4 0 0 0-.603-.118q-.693 0-1.09.396-.396.396-.503 1.113zm-3.037.78q.024.516.16.894.136.373.361.622.23.249.544.373.32.12.71.119.373 0 .646-.083.272-.089.473-.19.202-.105.344-.189a.5.5 0 0 1 .26-.088q.154 0 .237.118l.361.468q-.225.266-.509.45t-.604.301a3.4 3.4 0 0 1-.657.16 4 4 0 0 1-.657.053q-.628 0-1.167-.207a2.7 2.7 0 0 1-.929-.622 2.9 2.9 0 0 1-.615-1.013q-.219-.604-.219-1.39 0-.63.196-1.173.201-.545.568-.947a2.7 2.7 0 0 1 .9-.633 2.9 2.9 0 0 1 1.202-.237q.557 0 1.03.184.474.177.817.527t.533.859q.195.503.195 1.148 0 .297-.066.397-.065.1-.236.1zm8.593.281a8 8 0 0 0-1.149.112 3 3 0 0 0-.757.219q-.29.13-.421.314a.7.7 0 0 0-.124.402q0 .214.065.367.07.149.189.249.125.094.284.142.166.041.361.042.498 0 .853-.184.362-.189.699-.544zm-3.374-2.558a3.46 3.46 0 0 1 2.439-.953q.522 0 .924.172a1.8 1.8 0 0 1 .681.474q.277.308.42.734.148.42.147.936l-.001 3.836h-.568a.6.6 0 0 1-.278-.054q-.095-.06-.16-.23l-.124-.492a6 6 0 0 1-.456.373q-.225.16-.468.272-.236.112-.515.165-.272.06-.604.06-.366 0-.686-.101a1.5 1.5 0 0 1-.545-.302 1.5 1.5 0 0 1-.367-.51 1.8 1.8 0 0 1-.13-.71q0-.35.184-.68.189-.333.616-.593.432-.266 1.13-.437.705-.173 1.735-.195v-.403q0-.651-.278-.97-.278-.32-.817-.32-.367-.001-.615.094-.249.088-.433.195a6 6 0 0 0-.325.201.56.56 0 0 1-.302.089.4.4 0 0 1-.225-.065.6.6 0 0 1-.148-.172zm9.708.257a.3.3 0 0 1-.107.118.3.3 0 0 1-.148.036.5.5 0 0 1-.219-.06 6 6 0 0 0-.278-.142 2 2 0 0 0-.379-.136 1.7 1.7 0 0 0-.503-.065q-.237 0-.432.059a.9.9 0 0 0-.326.16.7.7 0 0 0-.201.242.64.64 0 0 0-.071.296q0 .213.13.355t.343.25q.213.099.486.183.272.082.556.178.285.094.557.219.272.124.485.308.213.177.343.438.13.255.13.621 0 .427-.154.788-.154.36-.45.627a2.1 2.1 0 0 1-.74.414 3.1 3.1 0 0 1-1.007.148q-.314 0-.609-.06a3.6 3.6 0 0 1-.557-.147 3.4 3.4 0 0 1-.491-.237q-.225-.137-.402-.296l.296-.486a.363.363 0 0 1 .331-.19.42.42 0 0 1 .243.084l.284.172q.166.095.397.177.23.078.574.077.284 0 .491-.065.207-.07.344-.189a.8.8 0 0 0 .201-.266.8.8 0 0 0 .065-.326.55.55 0 0 0-.13-.379 1.1 1.1 0 0 0-.349-.254 3 3 0 0 0-.491-.19 22 22 0 0 1-.557-.178 6 6 0 0 1-.562-.219 2 2 0 0 1-.492-.314 1.5 1.5 0 0 1-.343-.468 1.6 1.6 0 0 1-.13-.674q0-.361.142-.687.148-.326.427-.574a2.1 2.1 0 0 1 .693-.39q.414-.15.953-.149.609 0 1.107.196.496.195.834.533zm8.365.393a1.5 1.5 0 0 0-.586-.48 1.7 1.7 0 0 0-.692-.136q-.746 0-1.167.55-.42.545-.42 1.616 0 .557.094.953.095.39.272.64.179.248.432.36.254.113.575.114.485 0 .834-.207.355-.213.658-.598zm1.274-4.209-.002 8.762h-.77q-.254 0-.325-.243l-.112-.658a3.2 3.2 0 0 1-.865.717q-.48.272-1.119.272-.509 0-.923-.202a2 2 0 0 1-.711-.598 2.9 2.9 0 0 1-.461-.965 5 5 0 0 1-.16-1.326q.001-.675.178-1.25.185-.573.522-.994a2.37 2.37 0 0 1 1.9-.905q.532 0 .906.172.372.165.669.468l.001-3.25zm5.516 5.063q0-.32-.095-.592a1.3 1.3 0 0 0-.266-.48 1.2 1.2 0 0 0-.444-.32 1.45 1.45 0 0 0-.604-.118q-.692 0-1.089.397-.397.396-.504 1.112zm-3.037.78q.023.516.159.895.136.373.361.621.231.248.545.374.32.118.71.118.373 0 .645-.083.273-.088.474-.189.201-.105.344-.19a.5.5 0 0 1 .26-.088q.155 0 .237.118l.361.468q-.225.267-.509.45t-.604.302a3.4 3.4 0 0 1-.658.16 4 4 0 0 1-.657.053q-.627 0-1.166-.208a2.65 2.65 0 0 1-.929-.622 2.9 2.9 0 0 1-.616-1.012 4.1 4.1 0 0 1-.218-1.392q0-.627.196-1.172a2.9 2.9 0 0 1 .568-.947q.374-.403.9-.633a2.9 2.9 0 0 1 1.202-.236q.556 0 1.03.183.474.178.817.528.343.349.532.858.196.502.195 1.149 0 .296-.065.396t-.237.1zm6.664-5.84-.002 8.761h-1.273l.002-8.762zm9.61 2.725-.001 6.039h-.77q-.254 0-.326-.243l-.094-.563a3.5 3.5 0 0 1-.403.367q-.207.165-.444.284a2.4 2.4 0 0 1-1.083.249q-.498 0-.876-.166a1.8 1.8 0 0 1-.64-.468 2 2 0 0 1-.384-.723 3.2 3.2 0 0 1-.13-.935l.001-3.842h1.273l-.001 3.842q-.001.61.278.948.284.337.858.337.42 0 .781-.189a2.7 2.7 0 0 0 .687-.533l.001-4.404zm5.151 1.097a.3.3 0 0 1-.107.118.3.3 0 0 1-.148.036.5.5 0 0 1-.219-.06 6 6 0 0 0-.278-.142 2.2 2.2 0 0 0-.379-.136 1.7 1.7 0 0 0-.503-.065q-.237 0-.432.059a.9.9 0 0 0-.326.16.7.7 0 0 0-.272.538q0 .213.13.355t.343.25q.213.1.486.183.272.082.556.178t.556.219q.273.124.486.308.213.177.343.438.13.255.13.622 0 .426-.154.787-.154.36-.45.627a2.1 2.1 0 0 1-.74.415 3.1 3.1 0 0 1-1.007.147q-.314 0-.609-.06a3.6 3.6 0 0 1-.557-.147 3.3 3.3 0 0 1-.491-.237q-.225-.137-.403-.296l.296-.486a.363.363 0 0 1 .332-.19.42.42 0 0 1 .243.084l.284.172q.166.095.396.177.231.078.575.078.284 0 .491-.066.207-.07.343-.189a.8.8 0 0 0 .202-.266.8.8 0 0 0 .065-.326.55.55 0 0 0-.13-.379 1.1 1.1 0 0 0-.349-.254 3 3 0 0 0-.492-.19 22 22 0 0 1-.556-.178 6 6 0 0 1-.562-.219 2 2 0 0 1-.492-.314 1.5 1.5 0 0 1-.343-.468 1.6 1.6 0 0 1-.13-.674q0-.362.142-.687.148-.326.427-.574.284-.249.692-.39.415-.15.954-.149.609 0 1.107.196.496.195.834.533zm6.654-1.093-.001 6.038h-.77q-.254 0-.325-.243l-.095-.563q-.189.202-.403.367-.207.166-.444.284-.236.119-.509.184a2.4 2.4 0 0 1-.574.065q-.498 0-.876-.166a1.76 1.76 0 0 1-.639-.468 2 2 0 0 1-.385-.722 3.2 3.2 0 0 1-.13-.936l.001-3.842h1.273l-.001 3.843q0 .61.278.947.283.337.858.338.42 0 .782-.19.366-.195.686-.532l.002-4.405zm4.772 3.399a8 8 0 0 0-1.149.112 3 3 0 0 0-.758.219 1 1 0 0 0-.42.314.7.7 0 0 0-.125.402q0 .213.065.367a.8.8 0 0 0 .19.249q.124.094.284.142.166.041.361.041.498 0 .853-.183.36-.19.698-.544zm-3.374-2.559a3.46 3.46 0 0 1 2.439-.952q.521 0 .924.172.408.165.68.474.279.308.42.734.148.42.148.935l-.001 3.837h-.568a.6.6 0 0 1-.278-.054q-.095-.06-.16-.23l-.124-.492a6 6 0 0 1-.456.373q-.225.16-.468.272a2.1 2.1 0 0 1-.515.165q-.273.06-.604.06-.367 0-.687-.102a1.5 1.5 0 0 1-.544-.302 1.5 1.5 0 0 1-.367-.509 1.8 1.8 0 0 1-.13-.71q0-.35.184-.68.189-.333.615-.593.434-.266 1.131-.437.705-.172 1.735-.195v-.403q0-.651-.278-.97-.278-.32-.817-.32-.367-.001-.616.094-.247.088-.432.195a6 6 0 0 0-.325.201.56.56 0 0 1-.302.089.4.4 0 0 1-.225-.065.6.6 0 0 1-.148-.172zm7.304.28q.285-.573.687-.899a1.47 1.47 0 0 1 .965-.331q.196 0 .367.047a1 1 0 0 1 .308.13l-.089.96q-.023.1-.077.142a.2.2 0 0 1-.13.035q-.088 0-.255-.03a1.7 1.7 0 0 0-.349-.035q-.266 0-.474.077a1.2 1.2 0 0 0-.367.225 1.6 1.6 0 0 0-.284.36q-.124.214-.231.486l-.001 3.753h-1.273l.002-6.038h.74q.201 0 .278.077.077.07.107.254zm4.496-1.117-.002 6.038h-1.273l.002-6.038zm.213-1.823a.8.8 0 0 1-.071.325.84.84 0 0 1-.462.456.8.8 0 0 1-.331.065.8.8 0 0 1-.326-.065 1 1 0 0 1-.26-.184.834.834 0 0 1-.249-.598.9.9 0 0 1 .065-.331.93.93 0 0 1 .444-.45.787.787 0 0 1 .658 0 .8.8 0 0 1 .278.184q.119.113.183.266a.8.8 0 0 1 .071.332m3.997 1.73q.669 0 1.207.219.544.219.924.622.384.402.591.977.207.574.207 1.29t-.207 1.29q-.208.575-.593.983-.378.403-.923.622-.54.22-1.208.218-.675 0-1.22-.219a2.6 2.6 0 0 1-.923-.622 2.8 2.8 0 0 1-.592-.983 3.8 3.8 0 0 1-.207-1.29 3.8 3.8 0 0 1 .208-1.29q.207-.576.592-.977.385-.403.924-.622.545-.219 1.22-.219m-.002 5.227q.817 0 1.214-.544.403-.55.403-1.57 0-1.017-.402-1.568-.397-.557-1.214-.557-.828 0-1.231.556-.403.55-.403 1.569t.402 1.569q.403.545 1.231.545M41.062 106.165q0-.497.19-.935.189-.444.514-.77.327-.331.758-.521a2.3 2.3 0 0 1 .93-.189q.497 0 .935.189.438.19.764.521.326.326.515.77.19.438.19.935t-.19.936q-.19.432-.515.757a2.4 2.4 0 0 1-.764.515 2.3 2.3 0 0 1-.935.19q-.492 0-.93-.19a2.45 2.45 0 0 1-1.273-1.272 2.3 2.3 0 0 1-.189-.936m16.748-3.552a.6.6 0 0 1-.136.16.3.3 0 0 1-.178.047.47.47 0 0 1-.254-.094 4 4 0 0 0-.343-.208 2.7 2.7 0 0 0-.48-.213 2 2 0 0 0-.663-.1 2 2 0 0 0-.628.088q-.266.09-.45.249a1.05 1.05 0 0 0-.278.379q-.089.213-.089.468 0 .325.172.544.173.214.45.367.285.154.645.273.362.113.734.242.38.13.74.296.361.166.64.421.284.254.456.621.171.367.171.894 0 .568-.195 1.066-.196.496-.568.87a2.6 2.6 0 0 1-.912.58 3.3 3.3 0 0 1-1.231.213 3.8 3.8 0 0 1-.8-.083 4 4 0 0 1-.74-.219 4 4 0 0 1-.657-.355 3.3 3.3 0 0 1-.55-.462l.402-.663a.369.369 0 0 1 .32-.177q.135 0 .302.13.166.125.397.278.236.148.568.279.33.123.793.124.752 0 1.16-.367.415-.367.415-1.012 0-.362-.172-.587a1.4 1.4 0 0 0-.456-.384 3 3 0 0 0-.64-.261q-.36-.107-.733-.225a8 8 0 0 1-.734-.284 2.5 2.5 0 0 1-.645-.426 2 2 0 0 1-.45-.651q-.172-.392-.172-.971 0-.462.178-.894.183-.432.526-.764.35-.337.859-.539a3.1 3.1 0 0 1 1.16-.201q.734 0 1.344.231.616.231 1.06.657zm5.706 3.369a1.8 1.8 0 0 0-.094-.592 1.3 1.3 0 0 0-.267-.48 1.2 1.2 0 0 0-.444-.32 1.5 1.5 0 0 0-.604-.118q-.691 0-1.089.397-.396.396-.503 1.113zm-3.037.781q.025.515.16.894.136.373.361.622.231.248.545.373.32.118.71.118.374 0 .646-.083a3.5 3.5 0 0 0 .473-.189q.201-.107.344-.19a.5.5 0 0 1 .26-.089q.154 0 .237.119l.361.467q-.225.267-.509.45-.284.184-.604.302a3.4 3.4 0 0 1-.657.16 4 4 0 0 1-.657.053q-.628 0-1.166-.207a2.7 2.7 0 0 1-.93-.621 2.9 2.9 0 0 1-.615-1.013q-.22-.603-.22-1.391 0-.627.196-1.172.2-.545.568-.947.373-.403.9-.634a2.9 2.9 0 0 1 1.202-.236q.555 0 1.03.183.474.177.817.527t.533.858q.195.504.195 1.149 0 .295-.065.396t-.237.101zm9.588 1.403q.267.344.58.486.32.135.705.136.746 0 1.16-.545.42-.545.42-1.622a4 4 0 0 0-.094-.947 1.8 1.8 0 0 0-.273-.645 1.05 1.05 0 0 0-.432-.362 1.4 1.4 0 0 0-.574-.112q-.486 0-.84.213-.35.207-.652.598zm-.065-3.647q.38-.444.858-.716a2.27 2.27 0 0 1 1.125-.272q.51 0 .924.207.414.2.71.592.297.39.456.971.166.575.166 1.32 0 .669-.184 1.249-.177.574-.515 1.001-.337.42-.817.663-.48.237-1.083.236-.532 0-.906-.171a2.4 2.4 0 0 1-.669-.474v2.564h-1.273v-8.046h.77q.26 0 .332.243zm6.677.243q.285-.575.687-.9.402-.331.965-.331.195 0 .367.047a1 1 0 0 1 .308.13l-.089.959q-.024.101-.077.142a.2.2 0 0 1-.13.036q-.09 0-.255-.03a1.7 1.7 0 0 0-.349-.035q-.266 0-.474.077a1.2 1.2 0 0 0-.367.225 1.5 1.5 0 0 0-.284.361q-.125.213-.23.485v3.754h-1.273v-6.039h.74q.2 0 .278.077.077.071.106.255zm6.921 1.22q0-.32-.094-.592a1.3 1.3 0 0 0-.267-.48 1.2 1.2 0 0 0-.444-.32 1.5 1.5 0 0 0-.603-.118q-.693 0-1.09.397-.396.396-.503 1.113zm-3.036.781q.023.515.16.894.135.373.36.622.231.248.545.373.32.118.71.118.374 0 .646-.083.273-.088.473-.189.202-.107.344-.19a.5.5 0 0 1 .26-.089q.154 0 .237.119l.361.467a2.3 2.3 0 0 1-.509.45 3 3 0 0 1-.604.302 3.4 3.4 0 0 1-.657.16 4 4 0 0 1-.657.053q-.627 0-1.166-.207a2.7 2.7 0 0 1-.93-.621 2.9 2.9 0 0 1-.615-1.013q-.22-.603-.22-1.391 0-.627.196-1.172.2-.545.568-.947.373-.403.9-.634a2.9 2.9 0 0 1 1.202-.236q.555 0 1.03.183.474.177.817.527t.533.858q.195.504.195 1.149 0 .295-.065.396t-.237.101zm8.971-2.025a.3.3 0 0 1-.106.119.3.3 0 0 1-.148.035.5.5 0 0 1-.22-.059 6 6 0 0 0-.278-.142 2 2 0 0 0-.379-.136 1.8 1.8 0 0 0-.503-.065q-.236 0-.432.059a.9.9 0 0 0-.325.16.7.7 0 0 0-.273.539q0 .213.13.355.13.141.344.248.213.101.485.184.273.082.557.178.285.094.556.219.273.123.486.307.213.178.343.438.13.255.13.622 0 .427-.154.787-.153.361-.45.628a2.05 2.05 0 0 1-.74.414 3.1 3.1 0 0 1-1.006.148q-.314 0-.61-.059a3.6 3.6 0 0 1-.556-.148 3.3 3.3 0 0 1-.492-.237 2.6 2.6 0 0 1-.402-.296l.296-.485a.4.4 0 0 1 .13-.136.36.36 0 0 1 .201-.054.42.42 0 0 1 .243.083q.125.078.284.172.165.094.397.178.23.077.574.077.284 0 .492-.066.207-.07.343-.189a.8.8 0 0 0 .201-.266.8.8 0 0 0 .065-.326.55.55 0 0 0-.13-.379 1.1 1.1 0 0 0-.35-.254 3 3 0 0 0-.49-.19 22 22 0 0 1-.557-.177 7 7 0 0 1-.562-.219 2 2 0 0 1-.492-.314 1.5 1.5 0 0 1-.343-.468 1.6 1.6 0 0 1-.13-.675q0-.36.142-.687a1.7 1.7 0 0 1 .426-.574q.284-.249.692-.39.415-.148.954-.148.609 0 1.107.195.497.195.834.533zm5.524 1.244a1.8 1.8 0 0 0-.095-.592 1.3 1.3 0 0 0-.266-.48 1.2 1.2 0 0 0-.444-.32 1.5 1.5 0 0 0-.604-.118q-.693 0-1.09.397-.396.396-.502 1.113zm-3.037.781q.024.515.16.894.135.373.36.622.232.248.546.373.32.118.71.118.374 0 .645-.083a3.5 3.5 0 0 0 .474-.189q.2-.107.343-.19a.5.5 0 0 1 .26-.089q.155 0 .237.119l.362.467q-.225.267-.51.45-.284.184-.603.302a3.4 3.4 0 0 1-.657.16 4 4 0 0 1-.658.053q-.627 0-1.166-.207a2.7 2.7 0 0 1-.93-.621 2.9 2.9 0 0 1-.615-1.013q-.219-.603-.219-1.391 0-.627.195-1.172.202-.545.569-.947.372-.403.9-.634a2.9 2.9 0 0 1 1.201-.236q.557 0 1.03.183.474.177.817.527.344.35.533.858.195.504.195 1.149 0 .295-.065.396t-.236.101zm6.556-2.321q.195-.2.403-.361a2.7 2.7 0 0 1 .45-.284 2.36 2.36 0 0 1 1.083-.248q.498 0 .87.165.38.166.634.468.26.302.391.728.13.42.13.93v3.842h-1.267v-3.842q0-.61-.284-.948-.279-.337-.853-.337-.426 0-.793.195-.361.196-.68.533v4.399h-1.274v-6.039h.77q.26 0 .332.243zm7.302 5.334q-.752 0-1.16-.42-.403-.426-.403-1.196v-3.516h-.663a.28.28 0 0 1-.183-.065q-.078-.072-.077-.208v-.515l.977-.142.278-1.746a.33.33 0 0 1 .1-.16.27.27 0 0 1 .19-.065h.651v1.983h1.675v.918h-1.675v3.427q0 .325.16.498a.56.56 0 0 0 .426.171.8.8 0 0 0 .255-.035q.106-.042.183-.083.078-.047.131-.083a.2.2 0 0 1 .112-.041q.106 0 .172.118l.379.622a2.1 2.1 0 0 1-.699.402 2.6 2.6 0 0 1-.829.136m5.615-2.735a8 8 0 0 0-1.148.113 3 3 0 0 0-.758.219q-.291.13-.42.314a.7.7 0 0 0-.125.402q0 .213.065.367a.75.75 0 0 0 .19.249.9.9 0 0 0 .284.142q.166.042.361.041.498 0 .853-.183.36-.19.698-.545zm-3.374-2.557q1.024-.954 2.439-.953.52 0 .923.171.41.167.681.474.279.308.42.734.148.42.148.935v3.837h-.568a.6.6 0 0 1-.278-.054q-.095-.058-.16-.231l-.124-.491a6 6 0 0 1-.456.373q-.225.16-.468.272a2 2 0 0 1-.515.166q-.272.06-.604.059-.366 0-.686-.1a1.5 1.5 0 0 1-.545-.302 1.5 1.5 0 0 1-.367-.509 1.8 1.8 0 0 1-.13-.711q0-.35.183-.681.19-.331.616-.592.432-.266 1.131-.438.703-.171 1.734-.195v-.403q0-.65-.278-.97-.279-.32-.817-.32-.367 0-.616.095-.249.088-.432.195a7 7 0 0 0-.326.201.56.56 0 0 1-.301.089.4.4 0 0 1-.225-.065.6.6 0 0 1-.148-.172zm10.377-.841v6.039h-1.273v-6.039zm.213-1.823a.8.8 0 0 1-.071.325.84.84 0 0 1-.462.456.8.8 0 0 1-.331.065.8.8 0 0 1-.326-.065.9.9 0 0 1-.26-.183.83.83 0 0 1-.249-.598.9.9 0 0 1 .065-.332.92.92 0 0 1 .444-.45.784.784 0 0 1 .657 0q.16.066.278.184a.8.8 0 0 1 .184.266.8.8 0 0 1 .071.332m2.576 2.622q.195-.2.403-.361.213-.165.45-.284a2.34 2.34 0 0 1 1.083-.248q.497 0 .87.165.38.166.634.468.26.302.39.728.13.42.131.93v3.842h-1.267v-3.842q0-.61-.284-.948-.279-.337-.853-.337-.427 0-.793.195a2.8 2.8 0 0 0-.681.533v4.399h-1.273v-6.039h.77q.26 0 .331.243zm5.751 5.24v-5.026l-.592-.083a.56.56 0 0 1-.242-.107.27.27 0 0 1-.089-.219v-.521h.923v-.509q0-.515.148-.924.154-.408.433-.692.284-.285.686-.432.404-.154.906-.154.207 0 .391.029.189.03.367.089l-.024.64q-.012.159-.16.189a2 2 0 0 1-.361.03q-.266 0-.479.065a.84.84 0 0 0-.367.207 1 1 0 0 0-.231.391 2 2 0 0 0-.077.603v.468h1.651v.918h-1.61v5.038zm6.226-6.133q.67 0 1.208.219.544.219.924.621.384.403.592.977t.207 1.291q0 .716-.207 1.29a2.8 2.8 0 0 1-.592.983 2.6 2.6 0 0 1-.924.621 3.2 3.2 0 0 1-1.208.219q-.674 0-1.219-.219a2.6 2.6 0 0 1-.924-.621 2.8 2.8 0 0 1-.592-.983 3.8 3.8 0 0 1-.207-1.29q0-.717.207-1.291.208-.574.592-.977.386-.402.924-.621.545-.219 1.219-.219m0 5.227q.818 0 1.214-.545.403-.55.403-1.569 0-1.017-.403-1.568-.396-.557-1.214-.557-.828 0-1.231.557-.402.55-.402 1.568t.402 1.569q.403.545 1.231.545m5.356-4.014q.284-.575.686-.9a1.47 1.47 0 0 1 .965-.331q.196 0 .367.047a1 1 0 0 1 .308.13l-.089.959q-.023.101-.077.142a.2.2 0 0 1-.13.036q-.089 0-.254-.03a1.7 1.7 0 0 0-.35-.035 1.4 1.4 0 0 0-.473.077 1.2 1.2 0 0 0-.367.225 1.5 1.5 0 0 0-.285.361 4 4 0 0 0-.23.485v3.754h-1.273v-6.039h.74q.201 0 .278.077.077.071.107.255zm3.168 4.92v-6.039h.77q.26 0 .332.243l.082.527q.166-.19.344-.344a2.1 2.1 0 0 1 .817-.455q.237-.065.509-.065.29 0 .533.082.242.084.426.237.19.154.325.373.137.219.225.492.137-.314.344-.539t.462-.367q.254-.142.538-.207.29-.071.586-.071.486 0 .865.153.384.154.645.45a1.9 1.9 0 0 1 .403.717q.136.425.136.971v3.842h-1.273v-3.842q0-.64-.278-.959-.273-.327-.811-.326-.243 0-.456.083a1.1 1.1 0 0 0-.373.243q-.16.159-.255.402a1.6 1.6 0 0 0-.089.557v3.842h-1.272v-3.842q0-.663-.267-.971-.266-.314-.781-.314-.355 0-.657.183a2.1 2.1 0 0 0-.557.492v4.452zm13.055-2.641a8 8 0 0 0-1.149.113 3 3 0 0 0-.757.219q-.29.13-.421.314a.7.7 0 0 0-.124.402q0 .213.065.367a.75.75 0 0 0 .19.249.9.9 0 0 0 .284.142q.165.042.361.041.497 0 .852-.183.362-.19.699-.545zm-3.374-2.557q1.023-.954 2.439-.953.52 0 .923.171.408.167.681.474.277.308.42.734.148.42.148.935v3.837h-.568a.6.6 0 0 1-.278-.054q-.095-.058-.16-.231l-.125-.491a6 6 0 0 1-.455.373q-.225.16-.468.272-.237.113-.515.166-.273.06-.604.059-.368 0-.687-.1a1.5 1.5 0 0 1-.544-.302 1.5 1.5 0 0 1-.367-.509 1.8 1.8 0 0 1-.131-.711q0-.35.184-.681.189-.331.616-.592.432-.266 1.13-.438.705-.171 1.735-.195v-.403q0-.65-.278-.97-.279-.32-.817-.32-.367 0-.616.095-.249.088-.432.195a7 7 0 0 0-.326.201.56.56 0 0 1-.302.089.4.4 0 0 1-.225-.065.6.6 0 0 1-.148-.172zm10.371.343a.7.7 0 0 1-.113.119.25.25 0 0 1-.154.041.4.4 0 0 1-.213-.071 3 3 0 0 0-.26-.154 2 2 0 0 0-.362-.16 1.7 1.7 0 0 0-.532-.071q-.415 0-.729.148a1.44 1.44 0 0 0-.52.426 1.9 1.9 0 0 0-.314.669 3.6 3.6 0 0 0-.101.883q0 .509.113.905.112.397.319.669.213.273.509.415.303.141.675.142.367 0 .598-.089.23-.088.385-.195.154-.107.26-.196a.38.38 0 0 1 .237-.089q.155 0 .237.119l.361.467a2.4 2.4 0 0 1-.485.45 2.8 2.8 0 0 1-.563.302 3 3 0 0 1-.615.16 4 4 0 0 1-.646.053 2.7 2.7 0 0 1-1.053-.207 2.5 2.5 0 0 1-.853-.61 3 3 0 0 1-.574-.976 3.9 3.9 0 0 1-.207-1.32q0-.67.189-1.238.19-.574.551-.988a2.5 2.5 0 0 1 .905-.646q.54-.237 1.244-.236.657 0 1.154.213.504.213.894.603zm2.746-1.184v6.039h-1.273v-6.039zm.213-1.823a.8.8 0 0 1-.071.325.8.8 0 0 1-.183.273 1 1 0 0 1-.279.183.8.8 0 0 1-.331.065.8.8 0 0 1-.326-.065 1 1 0 0 1-.26-.183.83.83 0 0 1-.249-.598.9.9 0 0 1 .065-.332.94.94 0 0 1 .444-.45.784.784 0 0 1 .657 0q.16.066.279.184.119.113.183.266a.8.8 0 0 1 .071.332m3.997 1.729q.67 0 1.208.219.545.219.923.621.385.403.592.977t.207 1.291q0 .716-.207 1.29t-.592.983q-.378.402-.923.621a3.2 3.2 0 0 1-1.208.219q-.674 0-1.22-.219a2.6 2.6 0 0 1-.923-.621 2.8 2.8 0 0 1-.592-.983 3.8 3.8 0 0 1-.207-1.29q0-.717.207-1.291t.592-.977q.384-.402.923-.621.546-.219 1.22-.219m0 5.227q.817 0 1.214-.545.402-.55.402-1.569 0-1.017-.402-1.568-.397-.557-1.214-.557-.83 0-1.231.557-.403.55-.403 1.568t.403 1.569q.402.545 1.231.545m1.9-7.714-1.426 1.533a.6.6 0 0 1-.19.148.6.6 0 0 1-.237.042h-.757l.858-1.433a.6.6 0 0 1 .189-.219.6.6 0 0 1 .326-.071zm3.443 3.38a4 4 0 0 1 .403-.361q.213-.165.45-.284a2.36 2.36 0 0 1 1.083-.248q.498 0 .87.165.38.166.634.468.26.302.391.728.13.42.13.93v3.842h-1.267v-3.842q0-.61-.284-.948-.279-.337-.853-.337-.426 0-.793.195a2.8 2.8 0 0 0-.681.533v4.399h-1.273v-6.039h.77q.26 0 .331.243zm9.722-.799v6.039h-1.273v-6.039zm.213-1.823a.8.8 0 0 1-.071.325.9.9 0 0 1-.184.273 1 1 0 0 1-.278.183.8.8 0 0 1-.331.065.8.8 0 0 1-.326-.065 1 1 0 0 1-.261-.183.83.83 0 0 1-.248-.598.9.9 0 0 1 .065-.332.9.9 0 0 1 .444-.45.787.787 0 0 1 .657 0 .8.8 0 0 1 .278.184q.118.113.184.266a.8.8 0 0 1 .071.332m2.576 2.622a4 4 0 0 1 .402-.361q.215-.165.45-.284a2.36 2.36 0 0 1 1.084-.248q.496 0 .87.165.38.166.633.468.26.302.391.728.13.42.13.93v3.842h-1.267v-3.842q0-.61-.284-.948-.278-.337-.852-.337-.427 0-.793.195a2.8 2.8 0 0 0-.681.533v4.399h-1.273v-6.039h.77q.26 0 .331.243zm6.637 0a4 4 0 0 1 .402-.361q.213-.165.45-.284a2.4 2.4 0 0 1 1.084-.248q.496 0 .87.165.379.166.633.468.26.302.391.728.13.42.13.93v3.842h-1.267v-3.842q0-.61-.284-.948-.278-.337-.852-.337a1.7 1.7 0 0 0-.794.195 2.8 2.8 0 0 0-.68.533v4.399h-1.273v-6.039h.769q.261 0 .332.243zm9.407 1.54q0-.32-.095-.592a1.3 1.3 0 0 0-.266-.48 1.2 1.2 0 0 0-.444-.32 1.5 1.5 0 0 0-.604-.118q-.693 0-1.089.397-.396.396-.503 1.113zm-3.037.781q.024.515.16.894.136.373.361.622.231.248.545.373.32.118.71.118.373 0 .646-.083a3.5 3.5 0 0 0 .473-.189q.202-.107.343-.19a.5.5 0 0 1 .261-.089q.154 0 .237.119l.361.467q-.225.267-.509.45-.285.184-.604.302a3.4 3.4 0 0 1-.657.16 4 4 0 0 1-.657.053 3.2 3.2 0 0 1-1.167-.207 2.65 2.65 0 0 1-.929-.621 2.9 2.9 0 0 1-.616-1.013q-.219-.603-.219-1.391 0-.627.196-1.172.2-.545.568-.947.374-.403.9-.634a2.9 2.9 0 0 1 1.202-.236q.556 0 1.03.183.473.177.817.527t.532.858q.196.504.196 1.149 0 .295-.065.396-.066.101-.237.101zm9.635-1.936a.7.7 0 0 1-.112.119.25.25 0 0 1-.154.041.4.4 0 0 1-.213-.071 3 3 0 0 0-.261-.154 2 2 0 0 0-.361-.16 1.7 1.7 0 0 0-.533-.071q-.414 0-.728.148a1.44 1.44 0 0 0-.521.426 1.9 1.9 0 0 0-.314.669q-.1.391-.1.883 0 .509.112.905.113.397.32.669.213.273.509.415.302.141.675.142.366 0 .598-.089.231-.088.384-.195.155-.107.261-.196a.38.38 0 0 1 .237-.089q.153 0 .237.119l.361.467a2.3 2.3 0 0 1-.486.45 2.8 2.8 0 0 1-.562.302 3 3 0 0 1-.616.16 4 4 0 0 1-.645.053q-.562 0-1.054-.207a2.5 2.5 0 0 1-.852-.61 3 3 0 0 1-.575-.976 3.9 3.9 0 0 1-.207-1.32q0-.67.19-1.238.189-.574.55-.988.367-.415.906-.646.539-.237 1.243-.236.657 0 1.155.213.503.213.893.603zm5.277 1.155q0-.32-.095-.592a1.3 1.3 0 0 0-.266-.48 1.2 1.2 0 0 0-.444-.32 1.5 1.5 0 0 0-.604-.118q-.693 0-1.089.397-.398.396-.504 1.113zm-3.037.781q.024.515.16.894.136.373.361.622.23.248.545.373.319.118.71.118.374 0 .645-.083.273-.088.474-.189.2-.107.343-.19a.5.5 0 0 1 .261-.089q.153 0 .236.119l.362.467q-.225.267-.51.45-.284.184-.603.302a3.4 3.4 0 0 1-.658.16 4 4 0 0 1-.657.053q-.627 0-1.166-.207a2.65 2.65 0 0 1-.929-.621 2.9 2.9 0 0 1-.616-1.013q-.219-.603-.219-1.391 0-.627.195-1.172.202-.545.569-.947.372-.403.899-.634a2.9 2.9 0 0 1 1.202-.236q.557 0 1.03.183.474.177.817.527.344.35.533.858.195.504.195 1.149 0 .295-.065.396t-.236.101zm8.972-2.025a.3.3 0 0 1-.107.119.3.3 0 0 1-.148.035.5.5 0 0 1-.219-.059 6 6 0 0 0-.278-.142 2 2 0 0 0-.379-.136 1.8 1.8 0 0 0-.503-.065 1.5 1.5 0 0 0-.432.059.9.9 0 0 0-.326.16.69.69 0 0 0-.272.539q0 .213.13.355.13.141.343.248.213.101.486.184.272.082.556.178.285.094.557.219.272.123.485.307.214.178.343.438.13.255.131.622 0 .427-.154.787a1.8 1.8 0 0 1-.45.628 2.05 2.05 0 0 1-.74.414 3.1 3.1 0 0 1-1.007.148q-.314 0-.609-.059a3.6 3.6 0 0 1-.557-.148 3.3 3.3 0 0 1-.491-.237 2.6 2.6 0 0 1-.403-.296l.296-.485a.4.4 0 0 1 .131-.136.36.36 0 0 1 .201-.054q.124 0 .243.083.123.078.284.172.165.094.396.178.231.077.575.077.284 0 .491-.066.208-.07.343-.189a.8.8 0 0 0 .202-.266.8.8 0 0 0 .065-.326.55.55 0 0 0-.131-.379 1.1 1.1 0 0 0-.349-.254 3 3 0 0 0-.491-.19 22 22 0 0 1-.557-.177 7 7 0 0 1-.562-.219 2 2 0 0 1-.491-.314 1.5 1.5 0 0 1-.344-.468 1.6 1.6 0 0 1-.13-.675q0-.36.142-.687.149-.325.426-.574.285-.249.693-.39.414-.148.953-.148.61 0 1.107.195.498.195.835.533zm4.789 2.303a8 8 0 0 0-1.148.113 3 3 0 0 0-.758.219q-.29.13-.42.314a.7.7 0 0 0-.125.402q0 .213.065.367a.75.75 0 0 0 .19.249q.125.094.284.142.166.042.361.041.498 0 .853-.183.36-.19.698-.545zm-3.374-2.557a3.46 3.46 0 0 1 2.439-.953q.52 0 .923.171.41.167.681.474.279.308.421.734.148.42.148.935v3.837h-.569a.6.6 0 0 1-.278-.054q-.094-.058-.16-.231l-.124-.491a6 6 0 0 1-.456.373q-.225.16-.468.272a2 2 0 0 1-.515.166q-.272.06-.604.059-.366 0-.686-.1a1.5 1.5 0 0 1-.545-.302 1.5 1.5 0 0 1-.367-.509 1.8 1.8 0 0 1-.13-.711q0-.35.183-.681.19-.331.616-.592.432-.266 1.131-.438.704-.171 1.734-.195v-.403q0-.65-.278-.97t-.817-.32q-.367 0-.616.095a2.7 2.7 0 0 0-.432.195 6 6 0 0 0-.325.201.56.56 0 0 1-.302.089.4.4 0 0 1-.225-.065.6.6 0 0 1-.148-.172zm7.304.278q.285-.575.687-.9.402-.331.965-.331.196 0 .367.047a1 1 0 0 1 .308.13l-.089.959q-.024.101-.077.142a.2.2 0 0 1-.13.036q-.089 0-.255-.03a1.7 1.7 0 0 0-.349-.035q-.266 0-.474.077a1.2 1.2 0 0 0-.367.225 1.6 1.6 0 0 0-.284.361q-.124.213-.231.485v3.754h-1.272v-6.039h.74q.2 0 .278.077.077.071.106.255zm4.495-1.119v6.039h-1.273v-6.039zm.213-1.823a.76.76 0 0 1-.071.325.8.8 0 0 1-.183.273 1 1 0 0 1-.278.183.8.8 0 0 1-.332.065.8.8 0 0 1-.326-.065 1 1 0 0 1-.26-.183.83.83 0 0 1-.249-.598.9.9 0 0 1 .065-.332.94.94 0 0 1 .444-.45.792.792 0 0 1 .658 0 .85.85 0 0 1 .461.45.8.8 0 0 1 .071.332m4.613 5.221a8 8 0 0 0-1.149.113 3 3 0 0 0-.757.219q-.29.13-.421.314a.7.7 0 0 0-.124.402q0 .213.065.367a.7.7 0 0 0 .19.249.9.9 0 0 0 .284.142q.166.042.361.041.497 0 .852-.183.362-.19.699-.545zm-3.375-2.557q1.024-.954 2.44-.953.52 0 .923.171.408.167.681.474.278.308.42.734.148.42.148.935v3.837h-.568a.6.6 0 0 1-.278-.054q-.096-.058-.16-.231l-.125-.491a6 6 0 0 1-.455.373q-.225.16-.468.272-.237.113-.515.166-.273.06-.604.059-.368 0-.687-.1a1.5 1.5 0 0 1-.544-.302 1.5 1.5 0 0 1-.367-.509 1.8 1.8 0 0 1-.131-.711q0-.35.184-.681.189-.331.616-.592.432-.266 1.13-.438.705-.171 1.735-.195v-.403q0-.65-.278-.97-.279-.32-.817-.32-.367 0-.616.095-.249.088-.432.195a6 6 0 0 0-.326.201.56.56 0 0 1-.302.089.4.4 0 0 1-.225-.065.6.6 0 0 1-.148-.172zm-178.2 14.645a1.5 1.5 0 0 0-.586-.473 1.7 1.7 0 0 0-.692-.143q-.746 0-1.166.551-.42.545-.42 1.616-.001.557.094.953.095.391.272.64.178.248.432.361.255.112.575.112.485 0 .834-.207.356-.213.657-.598zm1.273-1.486v8.046H56.97v-2.83a3.2 3.2 0 0 1-.84.663 2.24 2.24 0 0 1-1.078.248q-.509 0-.923-.201a2 2 0 0 1-.71-.598 2.9 2.9 0 0 1-.462-.965 5 5 0 0 1-.16-1.326q0-.675.178-1.249a3 3 0 0 1 .52-.994q.338-.427.817-.664a2.4 2.4 0 0 1 1.084-.242q.29 0 .527.053.243.048.444.148.207.094.379.237.171.136.325.314l.077-.397q.07-.243.326-.243zm6.648 0v6.039h-.77q-.255 0-.325-.243l-.095-.562q-.189.2-.403.367-.207.165-.444.284-.236.118-.509.183a2.4 2.4 0 0 1-.574.065q-.496 0-.876-.165a1.8 1.8 0 0 1-.64-.468 2 2 0 0 1-.384-.722 3.2 3.2 0 0 1-.13-.936v-3.842h1.272v3.842q0 .61.279.948.284.337.858.337.42 0 .781-.189.367-.196.687-.533v-4.405zm5.506 2.339a1.8 1.8 0 0 0-.095-.592 1.3 1.3 0 0 0-.266-.48 1.2 1.2 0 0 0-.444-.32 1.5 1.5 0 0 0-.604-.118q-.693 0-1.09.397-.396.396-.502 1.113zm-3.037.781q.025.515.16.894.136.373.361.622.231.248.545.373.32.118.71.118.374 0 .645-.083.273-.088.474-.189.201-.107.343-.19a.5.5 0 0 1 .26-.089q.154 0 .238.119l.36.467q-.225.267-.508.45a3 3 0 0 1-.604.302 3.4 3.4 0 0 1-.657.16 4 4 0 0 1-.657.053q-.628 0-1.167-.207a2.7 2.7 0 0 1-.93-.621 2.9 2.9 0 0 1-.615-1.013q-.219-.603-.219-1.391 0-.627.195-1.172.202-.545.569-.947.373-.403.9-.634a2.9 2.9 0 0 1 1.201-.236q.557 0 1.03.183.474.177.818.527t.532.858q.195.504.196 1.149 0 .295-.066.396-.065.101-.236.101zm11.541.278a8 8 0 0 0-1.148.113 3 3 0 0 0-.758.219q-.29.13-.42.314a.7.7 0 0 0-.124.402q0 .213.065.367a.7.7 0 0 0 .19.249q.124.094.283.142.165.042.361.041.498 0 .853-.183.361-.19.698-.545zm-3.374-2.557a3.46 3.46 0 0 1 2.44-.953q.52 0 .923.171.408.167.68.474.279.308.42.734a2.8 2.8 0 0 1 .149.935v3.837h-.569a.6.6 0 0 1-.278-.054q-.094-.058-.16-.231l-.124-.491a6 6 0 0 1-.456.373 3 3 0 0 1-.468.272q-.236.113-.515.166-.272.06-.603.059-.368 0-.687-.1a1.5 1.5 0 0 1-.545-.302 1.5 1.5 0 0 1-.367-.509 1.8 1.8 0 0 1-.13-.711q0-.35.183-.681.19-.331.616-.592.432-.266 1.13-.438.706-.171 1.735-.195v-.403q0-.65-.278-.97t-.817-.32q-.368 0-.615.095-.249.088-.433.195-.183.107-.325.201a.56.56 0 0 1-.302.089.4.4 0 0 1-.225-.065.6.6 0 0 1-.148-.172zm7.958 5.292q-.752 0-1.16-.42-.404-.426-.403-1.196v-3.516h-.663a.28.28 0 0 1-.184-.065q-.077-.072-.077-.208v-.515l.977-.142.278-1.746a.32.32 0 0 1 .1-.16.27.27 0 0 1 .19-.065h.651v1.983h1.676v.918h-1.675v3.427q0 .325.16.498a.56.56 0 0 0 .426.171.8.8 0 0 0 .254-.035 2 2 0 0 0 .184-.083l.13-.083a.2.2 0 0 1 .112-.041q.108 0 .172.118l.379.622a2.1 2.1 0 0 1-.699.402 2.6 2.6 0 0 1-.828.136m7.48-6.133v6.039h-.77q-.255 0-.326-.243l-.095-.562q-.189.2-.402.367-.207.165-.444.284t-.51.183q-.266.065-.573.065-.498 0-.877-.165a1.8 1.8 0 0 1-.639-.468 2 2 0 0 1-.385-.722 3.2 3.2 0 0 1-.13-.936v-3.842h1.273v3.842q0 .61.278.948.285.337.858.337.42 0 .782-.189.367-.196.687-.533v-4.405zm2.747 1.119q.285-.575.686-.9a1.47 1.47 0 0 1 .965-.331q.195 0 .368.047a1 1 0 0 1 .307.13l-.088.959q-.024.101-.077.142a.2.2 0 0 1-.13.036q-.09 0-.255-.03a1.7 1.7 0 0 0-.35-.035q-.266 0-.473.077a1.2 1.2 0 0 0-.367.225 1.5 1.5 0 0 0-.284.361q-.125.213-.231.485v3.754h-1.273v-6.039h.74q.201 0 .278.077.078.071.107.255zm6.826.367a1.5 1.5 0 0 0-.586-.479 1.75 1.75 0 0 0-.693-.137q-.746 0-1.166.551-.42.545-.42 1.616 0 .557.094.953.095.391.273.64.177.248.432.361t.574.112q.486 0 .835-.207.355-.213.657-.598zm1.273-4.209v8.762h-.77q-.254 0-.325-.243l-.113-.657a3.2 3.2 0 0 1-.864.716q-.48.273-1.12.272-.507 0-.923-.201a2 2 0 0 1-.71-.598 2.9 2.9 0 0 1-.462-.965 5 5 0 0 1-.16-1.326q0-.675.178-1.249a3 3 0 0 1 .521-.994q.337-.427.817-.664a2.4 2.4 0 0 1 1.083-.242q.532 0 .906.171.373.166.669.468v-3.25zm5.517 5.062q0-.32-.095-.592a1.3 1.3 0 0 0-.266-.48 1.2 1.2 0 0 0-.444-.32 1.5 1.5 0 0 0-.604-.118q-.693 0-1.09.397-.396.396-.503 1.113zm-3.037.781q.024.515.16.894.135.373.361.622.23.248.544.373.32.118.711.118.372 0 .645-.083.272-.088.474-.189.2-.107.343-.19a.5.5 0 0 1 .26-.089q.154 0 .237.119l.361.467a2.3 2.3 0 0 1-.509.45 3 3 0 0 1-1.261.462 4 4 0 0 1-.657.053q-.627 0-1.166-.207a2.65 2.65 0 0 1-.929-.621 2.9 2.9 0 0 1-.616-1.013q-.219-.603-.219-1.391 0-.627.195-1.172.201-.545.568-.947.374-.403.9-.634a2.9 2.9 0 0 1 1.202-.236q.556 0 1.03.183.474.177.817.527.344.35.533.858.195.504.195 1.149 0 .295-.065.396t-.237.101zm11.541.278a8 8 0 0 0-1.148.113 3 3 0 0 0-.758.219q-.29.13-.421.314a.7.7 0 0 0-.124.402q0 .213.065.367a.75.75 0 0 0 .19.249.9.9 0 0 0 .284.142q.165.042.361.041.498 0 .852-.183.362-.19.699-.545zm-3.374-2.557q1.023-.954 2.439-.953.52 0 .923.171a1.8 1.8 0 0 1 .681.474q.279.308.42.734.148.42.148.935v3.837h-.568a.6.6 0 0 1-.278-.054q-.095-.058-.16-.231l-.124-.491a6 6 0 0 1-.456.373q-.225.16-.468.272a2 2 0 0 1-.515.166q-.272.06-.604.059-.366 0-.687-.1a1.5 1.5 0 0 1-.544-.302 1.5 1.5 0 0 1-.367-.509 1.8 1.8 0 0 1-.13-.711q0-.35.183-.681.19-.331.616-.592.432-.266 1.13-.438.705-.171 1.735-.195v-.403q0-.65-.278-.97-.279-.32-.817-.32-.367 0-.616.095-.249.088-.432.195a7 7 0 0 0-.326.201.56.56 0 0 1-.302.089.4.4 0 0 1-.224-.065.6.6 0 0 1-.148-.172zm7.399-3.564v8.762h-1.273v-8.762zm9.61 2.723v6.039h-.769q-.254 0-.326-.243l-.094-.562a4 4 0 0 1-.403.367q-.207.165-.444.284t-.509.183a2.4 2.4 0 0 1-.574.065q-.498 0-.877-.165a1.8 1.8 0 0 1-.639-.468 2 2 0 0 1-.385-.722 3.2 3.2 0 0 1-.13-.936v-3.842h1.273v3.842q0 .61.278.948.285.337.859.337.42 0 .781-.189a2.7 2.7 0 0 0 .687-.533v-4.405zm5.151 1.095a.3.3 0 0 1-.106.119.3.3 0 0 1-.148.035.5.5 0 0 1-.219-.059 6 6 0 0 0-.278-.142 2 2 0 0 0-.379-.136 1.8 1.8 0 0 0-.503-.065q-.237 0-.433.059a.9.9 0 0 0-.325.16.7.7 0 0 0-.202.243.6.6 0 0 0-.071.296q0 .213.131.355.13.141.343.248.213.101.485.184.273.082.557.178.284.094.556.219.273.123.486.307.213.178.343.438.13.255.13.622 0 .427-.153.787a1.8 1.8 0 0 1-.45.628 2.1 2.1 0 0 1-.74.414 3.1 3.1 0 0 1-1.007.148 3 3 0 0 1-.61-.059 3.6 3.6 0 0 1-.556-.148 3.3 3.3 0 0 1-.491-.237 2.6 2.6 0 0 1-.403-.296l.296-.485a.365.365 0 0 1 .332-.19.42.42 0 0 1 .242.083q.125.078.284.172.166.094.397.178.23.077.574.077.285 0 .492-.066.207-.07.343-.189a.75.75 0 0 0 .201-.266.8.8 0 0 0 .065-.326.55.55 0 0 0-.13-.379 1.1 1.1 0 0 0-.349-.254 3 3 0 0 0-.491-.19 22 22 0 0 1-.557-.177 7 7 0 0 1-.562-.219 2 2 0 0 1-.492-.314 1.5 1.5 0 0 1-.343-.468 1.6 1.6 0 0 1-.13-.675q0-.36.142-.687.149-.325.426-.574.284-.249.693-.39.414-.148.953-.148.609 0 1.107.195.497.195.835.533zm6.655-1.095v6.039h-.77q-.255 0-.325-.243l-.095-.562a3.6 3.6 0 0 1-.403.367q-.207.165-.444.284a2.38 2.38 0 0 1-1.083.248q-.498 0-.876-.165a1.8 1.8 0 0 1-.64-.468 2 2 0 0 1-.384-.722 3.2 3.2 0 0 1-.131-.936v-3.842h1.273v3.842q0 .61.278.948.285.337.859.337.42 0 .781-.189a2.7 2.7 0 0 0 .687-.533v-4.405zm4.772 3.398a8 8 0 0 0-1.149.113 3 3 0 0 0-.757.219q-.29.13-.421.314a.7.7 0 0 0-.124.402q0 .213.065.367a.7.7 0 0 0 .19.249.9.9 0 0 0 .284.142q.166.042.361.041.497 0 .852-.183.362-.19.699-.545zm-3.375-2.557q1.024-.954 2.44-.953.52 0 .923.171.408.167.681.474.278.308.42.734.148.42.148.935v3.837h-.568a.6.6 0 0 1-.278-.054q-.096-.058-.16-.231l-.125-.491a6 6 0 0 1-.455.373q-.225.16-.468.272-.237.113-.515.166-.273.06-.604.059-.368 0-.687-.1a1.5 1.5 0 0 1-.544-.302 1.5 1.5 0 0 1-.367-.509 1.8 1.8 0 0 1-.131-.711q0-.35.184-.681.189-.331.616-.592.432-.266 1.13-.438.705-.171 1.735-.195v-.403q0-.65-.278-.97-.279-.32-.817-.32-.367 0-.616.095-.249.088-.432.195a6 6 0 0 0-.326.201.56.56 0 0 1-.302.089.4.4 0 0 1-.225-.065.6.6 0 0 1-.148-.172zm7.305.278q.284-.575.687-.9.402-.331.965-.331.195 0 .367.047a1 1 0 0 1 .307.13l-.088.959q-.024.101-.077.142a.2.2 0 0 1-.131.036q-.089 0-.254-.03a1.7 1.7 0 0 0-.349-.035q-.267 0-.474.077a1.2 1.2 0 0 0-.367.225 1.5 1.5 0 0 0-.284.361q-.124.213-.231.485v3.754h-1.273v-6.039h.74q.201 0 .278.077.078.071.107.255zm4.495-1.119v6.039h-1.273v-6.039zm.213-1.823a.8.8 0 0 1-.071.325.84.84 0 0 1-.462.456.8.8 0 0 1-.331.065.8.8 0 0 1-.326-.065.9.9 0 0 1-.26-.183.83.83 0 0 1-.249-.598.9.9 0 0 1 .065-.332.92.92 0 0 1 .444-.45.784.784 0 0 1 .657 0 .8.8 0 0 1 .278.184.8.8 0 0 1 .184.266.8.8 0 0 1 .071.332m3.997 1.729q.669 0 1.207.219.545.219.924.621.385.403.592.977t.207 1.291q0 .716-.207 1.29t-.592.983q-.379.402-.924.621a3.2 3.2 0 0 1-1.207.219q-.675 0-1.22-.219a2.6 2.6 0 0 1-.923-.621 2.8 2.8 0 0 1-.592-.983 3.8 3.8 0 0 1-.207-1.29q0-.717.207-1.291t.592-.977q.384-.402.923-.621.545-.219 1.22-.219m0 5.227q.816 0 1.213-.545.403-.55.403-1.569 0-1.017-.403-1.568-.397-.557-1.213-.557-.829 0-1.232.557-.402.55-.402 1.568t.402 1.569q.403.545 1.232.545M41.062 141.683q0-.498.19-.936.189-.444.514-.769a2.4 2.4 0 0 1 .758-.521q.438-.19.93-.19.497 0 .935.19t.764.521a2.41 2.41 0 0 1 .704 1.705q0 .497-.19.935a2.43 2.43 0 0 1-1.279 1.273 2.3 2.3 0 0 1-.934.189 2.3 2.3 0 0 1-.93-.189 2.45 2.45 0 0 1-1.273-1.273 2.3 2.3 0 0 1-.189-.935m13.682 3.516h-1.392v-8.525h1.392zm2.88-5.239q.195-.202.402-.361.215-.166.45-.284.237-.118.504-.184.265-.065.58-.065.497 0 .87.166a1.7 1.7 0 0 1 .633.468q.26.302.391.728.13.42.13.929v3.842h-1.266v-3.842q0-.61-.285-.947-.278-.338-.852-.338-.427 0-.793.196a2.7 2.7 0 0 0-.681.533v4.398h-1.273v-6.038h.77q.26 0 .331.243zm7.302 5.334q-.752 0-1.16-.42-.403-.427-.403-1.196v-3.517H62.7a.27.27 0 0 1-.184-.065q-.076-.07-.077-.207v-.515l.977-.142.279-1.747a.3.3 0 0 1 .1-.159.27.27 0 0 1 .19-.066h.65v1.984h1.676v.917h-1.675v3.428q0 .326.16.497a.55.55 0 0 0 .426.172.8.8 0 0 0 .438-.118l.13-.083a.2.2 0 0 1 .113-.042q.106 0 .171.119l.38.621q-.297.26-.7.403a2.6 2.6 0 0 1-.828.136m6.303-3.795q0-.32-.095-.592a1.3 1.3 0 0 0-.266-.479 1.2 1.2 0 0 0-.444-.32 1.45 1.45 0 0 0-.604-.118q-.693 0-1.09.396-.396.398-.503 1.113zm-3.037.782q.023.514.16.894.135.372.36.621.231.249.545.373.32.119.71.119.374 0 .646-.083.272-.09.474-.19.2-.106.343-.189a.5.5 0 0 1 .26-.089q.154 0 .237.118l.361.468q-.225.267-.509.45t-.604.302a3.4 3.4 0 0 1-.657.16 4 4 0 0 1-.657.053q-.627 0-1.166-.207a2.65 2.65 0 0 1-.93-.622 2.9 2.9 0 0 1-.615-1.012 4.1 4.1 0 0 1-.22-1.391q0-.628.196-1.172.202-.545.568-.948.374-.402.9-.633a2.9 2.9 0 0 1 1.202-.237q.555 0 1.03.184.474.178.817.526.343.35.533.859.195.503.195 1.148 0 .297-.065.397-.064.1-.237.101zm6.568-2.001q.284-.575.687-.9a1.47 1.47 0 0 1 .965-.332q.195 0 .367.048a1 1 0 0 1 .307.13l-.088.959q-.024.1-.077.142a.2.2 0 0 1-.13.036q-.09 0-.255-.03a1.6 1.6 0 0 0-.35-.036q-.266 0-.473.077a1.2 1.2 0 0 0-.367.225 1.6 1.6 0 0 0-.284.361 3.5 3.5 0 0 0-.231.486v3.753h-1.273v-6.038h.74q.201 0 .278.077.078.07.107.254zm3.577 4.919v-5.026l-.592-.083a.54.54 0 0 1-.243-.106.28.28 0 0 1-.088-.219v-.521h.923v-.509q0-.516.148-.924.154-.408.432-.693.285-.284.687-.432.403-.154.906-.154a2.4 2.4 0 0 1 .758.119l-.024.639q-.012.16-.16.19a2 2 0 0 1-.361.029q-.267 0-.48.065a.86.86 0 0 0-.367.207 1 1 0 0 0-.23.391 2 2 0 0 0-.077.604v.468h1.651v.917h-1.61v5.038zm6.992-2.64a8 8 0 0 0-1.148.112 3.2 3.2 0 0 0-.758.219 1 1 0 0 0-.42.314.7.7 0 0 0-.125.403.9.9 0 0 0 .065.367q.071.147.19.248a.9.9 0 0 0 .284.142q.165.042.361.042.498 0 .853-.184.36-.189.698-.544zm-3.374-2.558a3.46 3.46 0 0 1 2.439-.953q.52 0 .923.172.41.166.681.474.279.308.42.734.149.42.148.935v3.836h-.568a.6.6 0 0 1-.278-.053q-.095-.06-.16-.231l-.124-.491a6 6 0 0 1-.456.373q-.225.16-.468.272-.237.112-.515.166a3 3 0 0 1-.604.059q-.366 0-.686-.101a1.5 1.5 0 0 1-.545-.302 1.5 1.5 0 0 1-.367-.509 1.8 1.8 0 0 1-.13-.71q0-.35.183-.681.19-.331.616-.592.432-.267 1.13-.438.706-.172 1.735-.195v-.403q0-.651-.278-.971-.279-.32-.817-.32-.367 0-.616.095a2.6 2.6 0 0 0-.432.196q-.183.107-.326.201a.56.56 0 0 1-.301.089.4.4 0 0 1-.225-.065.6.6 0 0 1-.148-.172zm10.359-.307q0 .135-.047.266a.6.6 0 0 1-.125.219l-3.06 4.032h3.131v.988h-4.605v-.533q0-.089.041-.213a.9.9 0 0 1 .124-.237l3.085-4.067h-3.073v-.988h4.529zm5.282.266q.195-.202.402-.361.213-.166.45-.284t.503-.184q.267-.065.58-.065.498 0 .871.166.378.165.633.468.26.302.391.728.13.42.13.929v3.842h-1.267v-3.842q0-.61-.284-.947-.278-.338-.852-.338-.428 0-.794.196-.361.195-.68.533v4.398h-1.273v-6.038h.77q.26 0 .33.243zm8.057-.894q.67 0 1.208.219.545.219.923.622.385.402.592.977.208.574.208 1.29t-.208 1.291a2.8 2.8 0 0 1-.592.982q-.378.403-.923.622a3.2 3.2 0 0 1-1.208.219 3.2 3.2 0 0 1-1.219-.219 2.6 2.6 0 0 1-.924-.622 2.8 2.8 0 0 1-.592-.982 3.8 3.8 0 0 1-.207-1.291q0-.716.207-1.29t.592-.977a2.6 2.6 0 0 1 .924-.622 3.2 3.2 0 0 1 1.219-.219m0 5.227q.817 0 1.214-.544.402-.55.402-1.569t-.402-1.569q-.397-.556-1.214-.556-.829 0-1.231.556-.403.55-.403 1.569t.403 1.569q.403.544 1.231.544m11.062-2.794q0-.32-.094-.592a1.3 1.3 0 0 0-.267-.479 1.2 1.2 0 0 0-.444-.32 1.44 1.44 0 0 0-.604-.118q-.691 0-1.089.396-.396.398-.503 1.113zm-3.037.782q.024.514.16.894.136.372.361.621.231.249.545.373.32.119.71.119.373 0 .646-.083a3.6 3.6 0 0 0 .817-.379.5.5 0 0 1 .26-.089.27.27 0 0 1 .237.118l.361.468q-.225.267-.509.45a3 3 0 0 1-.604.302 3.4 3.4 0 0 1-.657.16 4 4 0 0 1-.657.053q-.627 0-1.166-.207a2.65 2.65 0 0 1-.93-.622 2.9 2.9 0 0 1-.615-1.012 4.1 4.1 0 0 1-.219-1.391q0-.628.195-1.172a2.9 2.9 0 0 1 .568-.948q.373-.402.9-.633a2.9 2.9 0 0 1 1.202-.237q.556 0 1.03.184.474.178.817.526.343.35.533.859.195.503.195 1.148 0 .297-.065.397t-.237.101zm8.972-2.025a.3.3 0 0 1-.106.118.3.3 0 0 1-.148.036.5.5 0 0 1-.219-.059 5 5 0 0 0-.279-.142 2 2 0 0 0-.378-.137 1.8 1.8 0 0 0-.504-.065q-.237 0-.432.06a.9.9 0 0 0-.325.159.7.7 0 0 0-.202.243.64.64 0 0 0-.071.296q0 .214.13.355.13.142.344.249.213.1.485.183.272.084.557.178.284.094.556.219t.486.308q.213.177.343.438.13.255.13.622 0 .426-.154.787-.153.361-.45.628a2.1 2.1 0 0 1-.74.414 3.1 3.1 0 0 1-1.006.148q-.313 0-.61-.059a4 4 0 0 1-.556-.148 3.3 3.3 0 0 1-.492-.237 2.7 2.7 0 0 1-.402-.296l.296-.486a.367.367 0 0 1 .331-.189q.124 0 .243.083l.284.172q.166.095.397.177.23.077.574.077.284 0 .492-.065.207-.07.343-.189a.75.75 0 0 0 .266-.592.55.55 0 0 0-.13-.379 1.1 1.1 0 0 0-.349-.255 3 3 0 0 0-.492-.189 27 27 0 0 1-.556-.178 6 6 0 0 1-.562-.219 2 2 0 0 1-.492-.314 1.5 1.5 0 0 1-.343-.467 1.6 1.6 0 0 1-.13-.675q0-.362.142-.687.147-.325.426-.574.283-.249.693-.391.414-.148.953-.148.609 0 1.107.195.496.196.834.533zm7.738 2.303a8 8 0 0 0-1.148.112 3.1 3.1 0 0 0-.758.219 1 1 0 0 0-.42.314.7.7 0 0 0-.125.403q0 .213.065.367a.8.8 0 0 0 .19.248.9.9 0 0 0 .284.142q.166.042.361.042.498 0 .853-.184a2.7 2.7 0 0 0 .698-.544zm-3.374-2.558a3.46 3.46 0 0 1 2.439-.953q.52 0 .923.172.41.166.681.474.279.308.421.734.148.42.148.935v3.836h-.569a.6.6 0 0 1-.278-.053q-.094-.06-.16-.231l-.124-.491a6 6 0 0 1-.456.373 3 3 0 0 1-.468.272q-.237.112-.515.166a3 3 0 0 1-.604.059q-.366 0-.686-.101a1.5 1.5 0 0 1-.545-.302 1.5 1.5 0 0 1-.367-.509 1.8 1.8 0 0 1-.13-.71q0-.35.183-.681.19-.331.616-.592.432-.267 1.131-.438.704-.172 1.734-.195v-.403q0-.651-.278-.971t-.817-.32q-.367 0-.616.095a2.7 2.7 0 0 0-.432.196 6 6 0 0 0-.325.201.56.56 0 0 1-.302.089.4.4 0 0 1-.225-.065.6.6 0 0 1-.148-.172zm8.257 2.126q.593 0 .888-.302.297-.302.296-.788 0-.497-.296-.787t-.888-.29q-.585 0-.888.29-.296.29-.296.787 0 .237.077.439.078.2.225.349.148.142.367.225.225.077.515.077m1.77 3.368a.43.43 0 0 0-.118-.319.7.7 0 0 0-.308-.19 2 2 0 0 0-.456-.101 6 6 0 0 0-.556-.047 26 26 0 0 0-.598-.03 6 6 0 0 1-.586-.059q-.284.148-.468.355a.72.72 0 0 0-.089.812.8.8 0 0 0 .285.266q.195.112.491.178.302.065.722.065.841 0 1.261-.261.42-.26.42-.669m1.279-6.115v.473q0 .237-.284.291l-.604.1q.154.344.154.764a1.8 1.8 0 0 1-.657 1.421q-.308.254-.734.39a3 3 0 0 1-.924.137q-.189 0-.373-.018a6 6 0 0 1-.349-.059.8.8 0 0 0-.254.213.38.38 0 0 0-.083.231q0 .195.171.29t.45.136q.285.04.646.053.36.012.734.042.372.029.734.1.362.066.639.225.285.155.456.42.172.267.172.693 0 .391-.196.764-.195.372-.568.663a2.9 2.9 0 0 1-.9.462q-.533.177-1.213.177-.675 0-1.179-.13a2.8 2.8 0 0 1-.834-.355 1.5 1.5 0 0 1-.498-.509 1.24 1.24 0 0 1-.159-.604q0-.426.266-.728a1.8 1.8 0 0 1 .734-.474 1.04 1.04 0 0 1-.402-.326q-.148-.207-.148-.544 0-.267.195-.557t.586-.491a1.93 1.93 0 0 1-.71-.657 1.77 1.77 0 0 1-.261-.965q0-.45.172-.811.177-.361.491-.616t.74-.391q.432-.135.941-.136.781 0 1.362.326zm2.207.9q.285-.575.687-.9a1.47 1.47 0 0 1 .965-.332q.196 0 .367.048a1 1 0 0 1 .308.13l-.089.959q-.024.1-.077.142a.2.2 0 0 1-.13.036q-.089 0-.255-.03a1.6 1.6 0 0 0-.349-.036q-.266 0-.474.077a1.2 1.2 0 0 0-.367.225 1.6 1.6 0 0 0-.284.361q-.124.214-.231.486v3.753h-1.272v-6.038h.74q.201 0 .278.077.077.07.106.254zm6.303 2.279a8 8 0 0 0-1.148.112 3.1 3.1 0 0 0-.758.219q-.291.13-.42.314a.7.7 0 0 0-.125.403q0 .213.065.367a.8.8 0 0 0 .19.248.8.8 0 0 0 .284.142q.166.042.361.042.498 0 .853-.184a2.7 2.7 0 0 0 .698-.544zm-3.374-2.558a3.46 3.46 0 0 1 2.439-.953q.52 0 .923.172.41.166.681.474.279.308.42.734.148.42.148.935v3.836h-.568a.6.6 0 0 1-.278-.053q-.095-.06-.16-.231l-.124-.491a6 6 0 0 1-.456.373 3 3 0 0 1-.468.272q-.237.112-.515.166a3 3 0 0 1-.604.059q-.366 0-.686-.101a1.5 1.5 0 0 1-.545-.302 1.5 1.5 0 0 1-.367-.509 1.8 1.8 0 0 1-.13-.71q0-.35.183-.681.19-.331.616-.592.432-.267 1.131-.438.703-.172 1.734-.195v-.403q0-.651-.278-.971-.279-.32-.817-.32-.367 0-.616.095-.249.089-.432.196a7 7 0 0 0-.326.201.56.56 0 0 1-.301.089.4.4 0 0 1-.225-.065.6.6 0 0 1-.148-.172zm9.956.646a1.5 1.5 0 0 0-.586-.48 1.7 1.7 0 0 0-.692-.136q-.746 0-1.167.551-.42.544-.42 1.616 0 .556.095.953.095.39.272.639t.432.361.574.113q.486 0 .835-.207a2.4 2.4 0 0 0 .657-.598zm1.273-4.209v8.761h-.769q-.255 0-.326-.243l-.113-.657q-.378.444-.864.717-.48.272-1.119.272-.509 0-.923-.201a2 2 0 0 1-.711-.598 2.9 2.9 0 0 1-.461-.965 5 5 0 0 1-.16-1.326q0-.675.177-1.249.184-.575.521-.995.338-.426.817-.663a2.4 2.4 0 0 1 1.084-.243q.533 0 .905.172.373.166.669.468v-3.25zm4.783 6.121a8 8 0 0 0-1.149.112 3.1 3.1 0 0 0-.757.219 1 1 0 0 0-.421.314.7.7 0 0 0-.124.403q0 .213.065.367a.8.8 0 0 0 .19.248.8.8 0 0 0 .284.142q.165.042.361.042.497 0 .852-.184.362-.189.699-.544zm-3.374-2.558a3.46 3.46 0 0 1 2.439-.953q.52 0 .923.172.408.166.681.474.277.308.42.734.148.42.148.935v3.836h-.568a.6.6 0 0 1-.278-.053q-.095-.06-.16-.231l-.125-.491a6 6 0 0 1-.455.373 3 3 0 0 1-.468.272q-.237.112-.515.166a3 3 0 0 1-.604.059q-.368 0-.687-.101a1.5 1.5 0 0 1-.544-.302 1.5 1.5 0 0 1-.367-.509 1.8 1.8 0 0 1-.131-.71q0-.35.184-.681.189-.331.616-.592.432-.267 1.13-.438.705-.172 1.735-.195v-.403q0-.651-.278-.971-.279-.32-.817-.32-.367 0-.616.095-.249.089-.432.196a7 7 0 0 0-.326.201.56.56 0 0 1-.302.089.4.4 0 0 1-.225-.065.7.7 0 0 1-.148-.172zm7.375 3.683q.267.343.58.485.32.136.693.136.752 0 1.172-.544.42-.545.42-1.688 0-1.041-.367-1.521-.36-.48-1.036-.48-.468 0-.817.214a2.4 2.4 0 0 0-.645.598zm0-3.724a3 3 0 0 1 .835-.651 2.2 2.2 0 0 1 1.054-.243q.526 0 .947.207.426.202.722.586.296.386.456.936.16.544.16 1.231 0 .733-.184 1.338-.177.598-.515 1.03a2.4 2.4 0 0 1-.817.663q-.48.231-1.071.231-.29 0-.527-.059a1.8 1.8 0 0 1-.438-.16 2 2 0 0 1-.373-.255 3 3 0 0 1-.32-.337l-.053.468a.33.33 0 0 1-.107.195.34.34 0 0 1-.213.059h-.829v-8.761h1.273zm6.707-3.522v8.761h-1.273v-8.761zm5.531 5.061q0-.32-.094-.592a1.3 1.3 0 0 0-.267-.479 1.2 1.2 0 0 0-.444-.32 1.44 1.44 0 0 0-.604-.118q-.692 0-1.089.396-.396.398-.503 1.113zm-3.037.782q.024.514.16.894.136.372.361.621.231.249.545.373.32.119.71.119.373 0 .646-.083a3.6 3.6 0 0 0 .817-.379.5.5 0 0 1 .26-.089.27.27 0 0 1 .237.118l.361.468q-.225.267-.509.45t-.604.302a3.4 3.4 0 0 1-.657.16 4 4 0 0 1-.657.053 3.2 3.2 0 0 1-1.166-.207 2.65 2.65 0 0 1-.93-.622 2.9 2.9 0 0 1-.616-1.012 4.1 4.1 0 0 1-.219-1.391q0-.628.196-1.172.2-.545.568-.948.374-.402.9-.633a2.9 2.9 0 0 1 1.202-.237q.556 0 1.03.184.474.178.817.526.343.35.533.859.195.503.195 1.148 0 .297-.065.397-.066.1-.237.101zm9.505-2.321q.195-.202.403-.361.213-.166.45-.284t.503-.184q.266-.065.58-.065.498 0 .87.166.38.165.634.468.26.302.39.728.13.42.131.929v3.842h-1.267v-3.842q0-.61-.284-.947-.279-.338-.853-.338-.426 0-.793.196-.362.195-.681.533v4.398h-1.273v-6.038h.77q.26 0 .331.243zm6.773-.799v6.038h-1.273v-6.038zm.213-1.824a.8.8 0 0 1-.071.326.84.84 0 0 1-.461.456.86.86 0 0 1-.658 0 1 1 0 0 1-.26-.184 1 1 0 0 1-.184-.272.85.85 0 0 1 0-.657.92.92 0 0 1 .444-.45.792.792 0 0 1 .658 0 .8.8 0 0 1 .278.184q.118.112.183.266a.8.8 0 0 1 .071.331m7.561 5.222a8 8 0 0 0-1.148.112 3.1 3.1 0 0 0-.758.219 1 1 0 0 0-.42.314.7.7 0 0 0-.125.403.9.9 0 0 0 .066.367.7.7 0 0 0 .189.248.9.9 0 0 0 .284.142q.166.042.361.042.498 0 .853-.184.361-.189.698-.544zm-3.374-2.558a3.46 3.46 0 0 1 2.439-.953q.52 0 .923.172.41.166.681.474.279.308.421.734.147.42.148.935v3.836h-.569a.6.6 0 0 1-.278-.053q-.094-.06-.16-.231l-.124-.491a6 6 0 0 1-.456.373 3 3 0 0 1-.468.272q-.237.112-.515.166a3 3 0 0 1-.604.059q-.366 0-.686-.101a1.5 1.5 0 0 1-.545-.302 1.5 1.5 0 0 1-.367-.509 1.8 1.8 0 0 1-.13-.71q0-.35.183-.681.19-.331.616-.592.432-.267 1.131-.438.704-.172 1.734-.195v-.403q0-.651-.278-.971t-.817-.32q-.367 0-.616.095a2.7 2.7 0 0 0-.432.196 6 6 0 0 0-.325.201.56.56 0 0 1-.302.089.4.4 0 0 1-.225-.065.6.6 0 0 1-.148-.172zm7.958 5.293q-.752 0-1.161-.42-.402-.427-.402-1.196v-3.517h-.663a.27.27 0 0 1-.184-.065q-.077-.07-.077-.207v-.515l.977-.142.278-1.747a.3.3 0 0 1 .101-.159.27.27 0 0 1 .189-.066h.651v1.984h1.676v.917h-1.676v3.428q0 .326.16.497a.56.56 0 0 0 .427.172.8.8 0 0 0 .438-.118l.13-.083a.2.2 0 0 1 .112-.042q.107 0 .172.119l.379.621q-.296.26-.699.403a2.6 2.6 0 0 1-.828.136m3.59-5.014q.284-.575.687-.9.403-.332.964-.332.196 0 .368.048a1 1 0 0 1 .307.13l-.088.959a.25.25 0 0 1-.077.142.2.2 0 0 1-.131.036q-.089 0-.254-.03a1.7 1.7 0 0 0-.349-.036q-.267 0-.474.077a1.2 1.2 0 0 0-.367.225 1.6 1.6 0 0 0-.284.361q-.124.214-.231.486v3.753h-1.273v-6.038h.74q.201 0 .278.077.077.07.107.254zm6.303 2.279a8 8 0 0 0-1.149.112 3.2 3.2 0 0 0-.758.219 1 1 0 0 0-.42.314.7.7 0 0 0-.124.403.9.9 0 0 0 .065.367.7.7 0 0 0 .189.248.9.9 0 0 0 .284.142q.166.042.362.042.496 0 .852-.184.362-.189.699-.544zm-3.375-2.558a3.46 3.46 0 0 1 2.439-.953q.521 0 .924.172.408.166.681.474.277.308.42.734.148.42.148.935v3.836h-.568a.6.6 0 0 1-.279-.053q-.094-.06-.16-.231l-.124-.491a6 6 0 0 1-.456.373q-.225.16-.467.272-.237.112-.515.166a3 3 0 0 1-.604.059q-.368 0-.687-.101a1.5 1.5 0 0 1-.545-.302 1.5 1.5 0 0 1-.367-.509 1.8 1.8 0 0 1-.13-.71q0-.35.184-.681.189-.331.615-.592.432-.267 1.131-.438.705-.172 1.735-.195v-.403q0-.651-.279-.971-.277-.32-.817-.32-.367 0-.615.095-.249.089-.432.196a6 6 0 0 0-.326.201.56.56 0 0 1-.302.089.4.4 0 0 1-.225-.065.7.7 0 0 1-.148-.172zm10.371.344a.7.7 0 0 1-.112.118.25.25 0 0 1-.154.042.4.4 0 0 1-.213-.071 3 3 0 0 0-.261-.154 1.8 1.8 0 0 0-.361-.16 1.7 1.7 0 0 0-.533-.071q-.414 0-.728.148a1.4 1.4 0 0 0-.521.426 1.9 1.9 0 0 0-.314.669q-.1.39-.1.882 0 .51.112.906a2 2 0 0 0 .32.669q.213.272.509.414.301.142.675.142.367 0 .598-.089t.385-.195q.153-.107.26-.195a.38.38 0 0 1 .237-.089q.154 0 .237.118l.361.468a2.3 2.3 0 0 1-.486.45 3 3 0 0 1-.562.302 3 3 0 0 1-.616.16 4 4 0 0 1-.645.053q-.562 0-1.054-.207a2.55 2.55 0 0 1-.852-.61 3 3 0 0 1-.574-.977 3.9 3.9 0 0 1-.208-1.32q0-.669.19-1.237.19-.575.55-.989.367-.414.906-.645a3.1 3.1 0 0 1 1.243-.237q.657 0 1.155.213.502.214.894.604zm7.281 4.854h-1.272v-5.038h-2.943v3.428q0 .326.16.497a.55.55 0 0 0 .426.172.8.8 0 0 0 .439-.118l.13-.083a.2.2 0 0 1 .112-.042q.107 0 .172.119l.379.621q-.296.26-.699.403a2.6 2.6 0 0 1-.829.136q-.752 0-1.16-.42-.402-.427-.402-1.196v-3.517h-.663a.27.27 0 0 1-.184-.065q-.077-.07-.077-.207v-.515l.977-.142.278-1.747a.3.3 0 0 1 .101-.159.27.27 0 0 1 .189-.066h.651v1.984h4.215zm.261-7.891a.8.8 0 0 1-.071.325.9.9 0 0 1-.184.267 1 1 0 0 1-.278.183.8.8 0 0 1-.326.065.8.8 0 0 1-.325-.065 1 1 0 0 1-.267-.183 1 1 0 0 1-.183-.267.85.85 0 0 1 .45-1.113.77.77 0 0 1 .651 0 .84.84 0 0 1 .462.456.8.8 0 0 1 .071.332m6.664 1.853-2.427 6.038h-1.149l-2.427-6.038h1.048q.149 0 .243.077a.32.32 0 0 1 .13.171l1.338 3.517q.083.248.148.491t.112.492q.048-.249.113-.486.071-.243.154-.497l1.361-3.517a.37.37 0 0 1 .362-.248zm3.958 3.398a8 8 0 0 0-1.149.112 3.2 3.2 0 0 0-.758.219 1 1 0 0 0-.42.314.7.7 0 0 0-.124.403.9.9 0 0 0 .065.367.7.7 0 0 0 .189.248.9.9 0 0 0 .284.142q.166.042.362.042.496 0 .852-.184.361-.189.699-.544zm-3.375-2.558a3.46 3.46 0 0 1 2.439-.953q.521 0 .924.172.408.166.681.474.278.308.42.734.148.42.148.935v3.836h-.568a.6.6 0 0 1-.279-.053q-.094-.06-.16-.231l-.124-.491a6 6 0 0 1-.456.373q-.225.16-.467.272-.237.112-.515.166a3 3 0 0 1-.604.059q-.368 0-.687-.101a1.5 1.5 0 0 1-.545-.302 1.5 1.5 0 0 1-.367-.509 1.8 1.8 0 0 1-.13-.71q0-.35.184-.681.189-.331.615-.592.432-.267 1.131-.438.705-.172 1.735-.195v-.403q0-.651-.279-.971-.277-.32-.817-.32-.367 0-.615.095-.249.089-.432.196a6 6 0 0 0-.326.201.56.56 0 0 1-.302.089.4.4 0 0 1-.225-.065.7.7 0 0 1-.148-.172z"/></svg>