<svg xmlns="http://www.w3.org/2000/svg" width="338" height="184" fill="none"><path fill="#D5D5D5" fill-opacity=".38" d="M193.201 133.656v21.061h-22.544v-21.061h-49.093l-2.076-15.425 44.643-74.751h29.07v69.708h11.42l-.593 20.468zm-20.765-55.767.594-12.013-.297-.149-27.142 47.461h25.956z"/><path stroke="#59CADA" stroke-width="5.191" d="M245.023 10.397h72.179c9.83 0 17.798 7.968 17.798 17.797v152.558H3V10.397h33.2"/><path fill="#1E5078" d="M49.566 8.197q0 1.113-.445 1.914-.43.8-1.23 1.127l2.417 4.479h-3.619l-1.631-3.871H43.93v3.87h-3.1V4.594h4.242q2.255 0 3.367.86 1.127.86 1.127 2.744m-3.233.119q0-.742-.267-.994-.268-.252-.964-.252H43.93v2.551h1.142q.341 0 .579-.044a.9.9 0 0 0 .4-.193.8.8 0 0 0 .208-.4q.075-.268.074-.668m8.763 7.564q-2.433 0-3.574-1.231-1.143-1.23-1.142-3.53 0-1.083.237-1.943.252-.86.756-1.453a3.3 3.3 0 0 1 1.306-.905q.785-.326 1.853-.326 1.81 0 2.833 1.038t1.024 3.189q0 .311-.03.652-.015.342-.044.623h-4.97q.09.83.594 1.172.504.34 1.513.34 1.26 0 2.388-.37l.311 2.195a6 6 0 0 1-1.364.4 9.3 9.3 0 0 1-1.691.149m.682-5.68q-.03-.787-.34-1.113-.298-.326-.89-.326-.327 0-.55.074a.86.86 0 0 0-.37.237 1.2 1.2 0 0 0-.238.445q-.075.268-.103.682zm9.951 2.58q0 .697-.207 1.276a2.4 2.4 0 0 1-.638.979q-.43.415-1.127.637-.682.223-1.647.223-1.706 0-2.877-.564l.282-2.254q.282.149.623.267.341.103.682.178.341.06.667.104.341.03.609.03.519 0 .756-.164a.55.55 0 0 0 .237-.46q0-.282-.296-.43a4 4 0 0 0-.742-.296l-.95-.297a3.8 3.8 0 0 1-.948-.46 2.7 2.7 0 0 1-.727-.8q-.297-.505-.297-1.32 0-.624.208-1.158.222-.549.667-.934.445-.4 1.128-.623.681-.222 1.601-.222.712 0 1.38.133a6.7 6.7 0 0 1 1.26.37l-.207 2.226a5 5 0 0 0-.623-.178 7 7 0 0 0-.668-.149 5 5 0 0 0-.637-.074 6 6 0 0 0-.55-.03q-.83 0-.83.52 0 .267.282.415.297.148.727.282.43.119.92.281.504.164.934.46t.712.786q.296.475.296 1.246m9.033-.37q0 1.719-.994 2.595-.98.875-3.01.875-2.032 0-3.012-.89-.978-.89-.978-2.58V6.64h2.847v5.725q0 .549.267.816t.89.267q.594 0 .86-.253.267-.267.267-.83V6.64h2.863zm1.497 3.307V4.252l2.892-.134v11.599zM83.936 8.7v4.168q0 .43.222.638.222.192.712.193.163 0 .37-.03.21-.03.327-.074l.148 1.987q-.252.12-.727.193-.459.09-.993.09-1.499 0-2.21-.787-.712-.801-.712-2.136V8.701h-.86V6.64h1.008l.46-1.928 2.255-.193v2.12h1.883v2.062zm7.657 6.274q-.444.43-1.038.668a3.7 3.7 0 0 1-1.32.222q-1.335 0-2.091-.756-.742-.757-.742-2.284 0-.623.223-1.142.222-.534.638-.905a2.8 2.8 0 0 1 1.008-.593 4 4 0 0 1 1.365-.223q.46 0 .83.06.371.045.697.133v-.326q0-.505-.326-.772-.327-.267-1.172-.267-.386 0-.697.03t-.608.09q-.282.043-.564.133-.28.088-.608.207l-.222-2.165q1.38-.594 3.233-.593 1.068 0 1.795.237.726.222 1.171.697.446.46.638 1.172.193.696.193 1.631v5.488h-2.195zm-.43-3.01a5 5 0 0 0-.4-.09 3 3 0 0 0-.579-.044q-1.112 0-1.112.964 0 .49.252.712.267.207.697.207.46 0 .801-.222.34-.236.341-.608zm9.922 3.752-.252-.712q-.43.431-.994.667-.563.223-1.335.223-1.706 0-2.595-1.157-.876-1.172-.875-3.604 0-2.224.86-3.441.875-1.216 2.55-1.216 1.157 0 2.018.697l.03-.03-.03-1.186V4.252l2.848-.134v11.599zm-.623-6.289a1.3 1.3 0 0 0-.475-.356 1.5 1.5 0 0 0-.682-.148q-.356 0-.608.119a.88.88 0 0 0-.415.37 2.2 2.2 0 0 0-.223.712q-.075.445-.074 1.113 0 .726.06 1.201.058.46.207.742a.97.97 0 0 0 .415.385q.252.104.653.104.43 0 .712-.178.297-.178.43-.415zm12.588 1.795q0 1.245-.252 2.136-.252.89-.771 1.468-.52.563-1.335.83-.801.267-1.928.267-2.225 0-3.263-1.097-1.024-1.113-1.024-3.604t1.038-3.62q1.039-1.125 3.263-1.126 1.113 0 1.914.282.814.266 1.335.845.533.579.771 1.483.252.89.252 2.136m-5.606 0q0 .756.074 1.246.073.474.222.756a.88.88 0 0 0 .415.37q.253.105.623.105.371 0 .623-.104a.8.8 0 0 0 .401-.386q.163-.282.222-.756.074-.475.074-1.231t-.074-1.231q-.059-.49-.222-.757a.8.8 0 0 0-.401-.385 1.6 1.6 0 0 0-.623-.104q-.37 0-.637.104a.87.87 0 0 0-.416.385q-.149.267-.222.757-.06.474-.059 1.23m12.962 1.557q0 .697-.207 1.276a2.4 2.4 0 0 1-.638.979q-.43.415-1.127.637-.683.223-1.647.223-1.706 0-2.877-.564l.282-2.254q.281.149.623.267.341.103.682.178.341.06.668.104.34.03.608.03.519 0 .756-.164a.55.55 0 0 0 .237-.46q0-.282-.296-.43a4 4 0 0 0-.742-.296l-.949-.297a3.8 3.8 0 0 1-.949-.46 2.7 2.7 0 0 1-.727-.8q-.297-.505-.297-1.32 0-.624.208-1.158.222-.549.667-.934.445-.4 1.128-.623.681-.222 1.601-.222.712 0 1.38.133.682.134 1.26.37l-.207 2.226a5 5 0 0 0-.623-.178 7 7 0 0 0-.668-.149 5 5 0 0 0-.637-.074 6 6 0 0 0-.549-.03q-.831 0-.831.52 0 .267.282.415.297.148.727.282.43.119.919.281.505.164.935.46t.712.786q.296.475.296 1.246m6.632 3.456q.445 0 .771-.148.327-.15.519-.579l.03-.089-3.856-8.78h3.233l1.602 4.835.356 1.142h.044l.252-1.172 1.142-4.805h3.026l-2.966 8.78q-.52 1.528-1.424 2.18-.89.668-2.21.668a4.6 4.6 0 0 1-1.632-.282l.208-1.928q.252.105.46.133.208.045.445.045m19.922-5.087q0 1.23-.267 2.135-.252.89-.742 1.469a2.9 2.9 0 0 1-1.172.86 4.2 4.2 0 0 1-1.572.282q-.726 0-1.305-.223a3.1 3.1 0 0 1-.964-.623l-.326.668h-1.928V4.252l2.847-.134v1.825l-.029 1.186.044.03q.43-.341.949-.504a3.5 3.5 0 0 1 1.053-.163q.786 0 1.409.267.638.266 1.083.845.445.564.682 1.453.238.875.238 2.092m-2.952.059q0-.757-.089-1.216-.073-.461-.237-.697a.68.68 0 0 0-.401-.327 1.6 1.6 0 0 0-.563-.089q-.386 0-.697.164a1.3 1.3 0 0 0-.49.43v3.604q.178.267.475.445t.727.178q.31 0 .548-.09a.9.9 0 0 0 .401-.37q.163-.267.237-.757.09-.489.089-1.275m8.435 4.672q-2.433 0-3.575-1.231-1.142-1.23-1.142-3.53 0-1.083.238-1.943.252-.86.756-1.453a3.3 3.3 0 0 1 1.305-.905q.786-.326 1.854-.326 1.81 0 2.833 1.038t1.023 3.189q0 .311-.029.652-.015.342-.045.623h-4.968q.089.83.593 1.172.504.34 1.513.34 1.26 0 2.388-.37l.311 2.195a6 6 0 0 1-1.364.4 9.3 9.3 0 0 1-1.691.149m.682-5.68q-.03-.787-.341-1.113-.297-.326-.89-.326-.326 0-.549.074a.85.85 0 0 0-.37.237 1.2 1.2 0 0 0-.238.445 3.6 3.6 0 0 0-.104.682zm8.852 5.517V10.05q0-.623-.282-.89-.267-.267-.816-.267-.355 0-.682.134a1.2 1.2 0 0 0-.504.385v6.304h-2.848V6.699l2.047-.118.4.711q.505-.4 1.113-.608a4 4 0 0 1 1.29-.207q1.439 0 2.284.92.86.918.86 2.654v5.666zm8.629.163q-2.433 0-3.575-1.231-1.142-1.23-1.142-3.53 0-1.083.238-1.943.252-.86.756-1.453a3.3 3.3 0 0 1 1.305-.905q.786-.326 1.854-.326 1.81 0 2.833 1.038t1.023 3.189q0 .311-.029.652-.015.342-.045.623h-4.968q.089.83.593 1.172.504.34 1.513.34 1.26 0 2.388-.37l.311 2.195a6 6 0 0 1-1.364.4 9.3 9.3 0 0 1-1.691.149m.682-5.68q-.03-.787-.341-1.113-.297-.326-.89-.326-.326 0-.549.074a.86.86 0 0 0-.371.237 1.2 1.2 0 0 0-.237.445 3.6 3.6 0 0 0-.104.682zm6.956 5.517h-2.848v-7.03h-1.023V6.64h1.009v-.356q0-.49.192-.92.194-.444.579-.77.4-.342.994-.535.608-.207 1.438-.207.415 0 .772.044.356.045.608.119l-.075 1.794a3.6 3.6 0 0 0-.682-.059q-.549 0-.756.163a.5.5 0 0 0-.208.43v.297h5.606v9.077h-2.907v-7.03h-2.699zm5.725-10.857q0 .55-.371.83-.356.268-1.171.268-.801 0-1.187-.238-.37-.252-.371-.86 0-.55.371-.83.386-.282 1.187-.282.815 0 1.171.281.371.282.371.831m7.56 4.316a7 7 0 0 0-.682-.148 3.4 3.4 0 0 0-.697-.074q-.579 0-.964.118-.37.12-.593.386-.224.267-.327.712a5.4 5.4 0 0 0-.089 1.068q0 1.23.505 1.78.504.533 1.409.533.414 0 .786-.074a5 5 0 0 0 .697-.193l.192 2.136a3.2 3.2 0 0 1-.964.341q-.578.135-1.334.134-2.093 0-3.174-1.157-1.083-1.172-1.083-3.5 0-1.113.252-1.988.252-.89.771-1.498a3.23 3.23 0 0 1 1.335-.92q.816-.326 1.958-.326.548 0 1.142.104.593.09 1.009.252zm1.502 6.54V6.73l2.921-.134v9.122zm3.01-10.856q0 .564-.37.845-.356.267-1.172.267-.8 0-1.187-.237-.37-.252-.37-.875 0-.55.37-.83.386-.282 1.187-.282.816 0 1.172.281.37.282.37.831m9.822 6.363q0 1.245-.252 2.136-.252.89-.771 1.468-.519.563-1.335.83-.801.267-1.928.267-2.225 0-3.263-1.097-1.023-1.113-1.023-3.604t1.038-3.62q1.038-1.125 3.263-1.126 1.112 0 1.913.282.816.266 1.335.845.534.579.771 1.483.252.89.252 2.136m-5.606 0q0 .756.074 1.246.074.474.223.756a.87.87 0 0 0 .415.37q.252.105.623.105.37 0 .623-.104a.8.8 0 0 0 .4-.386q.163-.282.223-.756.074-.475.074-1.231t-.074-1.231q-.06-.49-.223-.757a.8.8 0 0 0-.4-.385 1.6 1.6 0 0 0-.623-.104q-.37 0-.638.104a.86.86 0 0 0-.415.385q-.148.267-.223.757-.059.474-.059 1.23m12.963 1.557q0 .697-.208 1.276a2.36 2.36 0 0 1-.638.979q-.43.415-1.127.637-.683.223-1.646.223-1.705 0-2.878-.564l.282-2.254q.282.149.623.267.342.103.682.178.341.06.668.104.34.03.608.03.519 0 .756-.164a.55.55 0 0 0 .238-.46q0-.282-.297-.43a4 4 0 0 0-.742-.296l-.949-.297a3.8 3.8 0 0 1-.949-.46 2.7 2.7 0 0 1-.727-.8q-.296-.505-.296-1.32 0-.624.207-1.158.223-.549.668-.934.444-.4 1.127-.623t1.602-.222q.711 0 1.379.133.682.134 1.261.37l-.208 2.226a5 5 0 0 0-.623-.178 7 7 0 0 0-.667-.149 5 5 0 0 0-.638-.074 6 6 0 0 0-.549-.03q-.83 0-.83.52 0 .267.281.415.297.148.727.282.43.119.92.281.504.164.934.46t.712.786q.297.475.297 1.246M49.018 30.164q0 1.17-.252 2.061-.253.876-.712 1.468a3 3 0 0 1-1.113.876q-.638.296-1.424.296-.534 0-1.023-.133a2.3 2.3 0 0 1-.875-.475l-.045.015.03 1.201v1.572h-2.862V25.714l1.987-.119.52.712a3.5 3.5 0 0 1 1.067-.593 3.5 3.5 0 0 1 1.246-.223q.845 0 1.483.253.652.237 1.083.8.444.549.667 1.44.222.889.223 2.18m-2.952-.015q0-.668-.074-1.098-.06-.444-.222-.697a.75.75 0 0 0-.401-.341 1.5 1.5 0 0 0-.593-.104q-.386 0-.697.163a1.2 1.2 0 0 0-.475.416v3.5q.178.267.46.445.282.162.682.163.297 0 .534-.09a.88.88 0 0 0 .415-.37q.178-.267.267-.742.105-.474.104-1.245m8.955 3.826q-.444.43-1.038.668a3.7 3.7 0 0 1-1.32.222q-1.335 0-2.091-.756-.742-.757-.742-2.284 0-.624.223-1.142.222-.534.638-.905a2.8 2.8 0 0 1 1.008-.593 4 4 0 0 1 1.364-.223q.46 0 .831.06.371.045.697.133v-.326q0-.505-.326-.772-.327-.267-1.172-.267-.386 0-.697.03t-.608.09q-.282.043-.564.133-.28.088-.608.207l-.222-2.165q1.38-.594 3.233-.594 1.068 0 1.795.238.727.222 1.171.697.446.46.638 1.172.193.696.193 1.631v5.488h-2.195zm-.43-3.01a5 5 0 0 0-.4-.09 3 3 0 0 0-.579-.044q-1.112 0-1.112.964 0 .49.252.712.267.207.697.208.46 0 .801-.223.34-.236.341-.608zm4.227 3.752v-9.003l2.269-.104.252 1.305h.044q.43-.741 1.024-1.082.592-.341 1.305-.341.326 0 .578.044.267.03.445.104l-.163 2.7a2.4 2.4 0 0 0-.49-.105 3.4 3.4 0 0 0-.563-.044q-.83 0-1.335.519-.504.504-.504 1.483v4.524zm11.426-.742q-.446.43-1.038.668a3.7 3.7 0 0 1-1.32.222q-1.335 0-2.091-.756-.742-.757-.742-2.284 0-.624.222-1.142.223-.534.638-.905a2.8 2.8 0 0 1 1.009-.593 4 4 0 0 1 1.364-.223q.46 0 .83.06.372.045.698.133v-.326q0-.505-.326-.772-.327-.267-1.172-.267a7 7 0 0 0-.697.03q-.311.03-.608.09-.282.043-.564.133-.281.088-.608.207l-.222-2.165q1.379-.594 3.233-.594 1.068 0 1.794.238.727.222 1.172.697.446.46.638 1.172.193.696.193 1.631v5.488h-2.195zm-.43-3.01a5 5 0 0 0-.4-.09 3 3 0 0 0-.58-.044q-1.11 0-1.111.964 0 .49.252.712.267.207.697.208.46 0 .8-.223.342-.236.342-.608zm12.222 3.915q-2.432 0-3.574-1.231-1.142-1.23-1.142-3.53 0-1.083.237-1.943.252-.86.757-1.453a3.33 3.33 0 0 1 1.305-.905q.786-.327 1.854-.327 1.809 0 2.832 1.039 1.024 1.038 1.024 3.188 0 .312-.03.653-.015.341-.044.623h-4.969q.09.83.593 1.172.505.34 1.513.34 1.26 0 2.388-.37l.311 2.195q-.563.253-1.364.4a9.3 9.3 0 0 1-1.69.149m.683-5.68q-.03-.787-.342-1.113-.296-.327-.89-.326-.326 0-.548.074a.86.86 0 0 0-.371.237 1.2 1.2 0 0 0-.237.445q-.075.268-.104.682zm3.823 5.517V23.252l2.892-.133v11.598zm16.029-3.308q0 1.721-.994 2.596-.979.875-3.01.875-2.033 0-3.011-.89-.98-.89-.98-2.58v-5.77h2.849v5.725q0 .549.266.816.267.267.89.267.594 0 .86-.253.267-.267.267-.83V25.64h2.863zm7.697.371q0 .697-.208 1.276a2.4 2.4 0 0 1-.638.979q-.43.415-1.127.637-.683.223-1.646.223-1.706 0-2.878-.564l.282-2.254q.282.148.623.267.341.103.682.178.341.06.668.104.34.03.608.03.519 0 .756-.164a.55.55 0 0 0 .238-.46q0-.282-.297-.43a4 4 0 0 0-.742-.297l-.949-.296a3.8 3.8 0 0 1-.949-.46 2.7 2.7 0 0 1-.727-.8q-.297-.506-.296-1.32 0-.624.207-1.158a2.4 2.4 0 0 1 .668-.934q.444-.4 1.127-.623t1.602-.223q.711 0 1.379.134.682.134 1.261.37l-.208 2.226a5 5 0 0 0-.623-.178 7 7 0 0 0-.667-.149 5 5 0 0 0-.638-.074 6 6 0 0 0-.549-.03q-.83 0-.83.52 0 .267.281.415.297.148.727.282.43.119.92.281.504.164.934.46t.712.786q.297.475.297 1.246m9.032-.37q0 1.72-.994 2.595-.978.875-3.011.875-2.032 0-3.01-.89-.98-.89-.979-2.58v-5.77h2.847v5.725q0 .549.267.816t.89.267q.594 0 .861-.253.267-.267.267-.83V25.64h2.862zm6.273 2.565a3.2 3.2 0 0 1-1.038.668 3.7 3.7 0 0 1-1.32.222q-1.335 0-2.092-.756-.741-.757-.741-2.284 0-.624.222-1.142.222-.534.638-.905a2.8 2.8 0 0 1 1.008-.593 4 4 0 0 1 1.365-.223q.459 0 .831.06.37.045.697.133v-.326q0-.505-.327-.772-.326-.267-1.171-.267-.386 0-.697.03-.312.03-.609.09-.28.043-.563.133-.282.088-.608.207l-.223-2.165q1.38-.594 3.234-.594 1.067 0 1.794.238.727.222 1.172.697.445.46.638 1.172.192.696.192 1.631v5.488h-2.195zm-.43-3.01a5 5 0 0 0-.401-.09 3 3 0 0 0-.578-.044q-1.113 0-1.113.964 0 .49.253.712.266.207.697.208.46 0 .8-.223.342-.236.342-.608zm4.226 3.752v-9.003l2.269-.104.252 1.305h.045q.43-.741 1.023-1.082a2.6 2.6 0 0 1 1.305-.341q.327 0 .579.044.267.03.445.104l-.163 2.7a2.4 2.4 0 0 0-.49-.105 3.4 3.4 0 0 0-.563-.044q-.831 0-1.335.519-.504.504-.504 1.483v4.524zm7.102 0v-8.988l2.922-.134v9.122zm3.011-10.857q0 .564-.371.846-.356.266-1.172.266-.8 0-1.186-.237-.371-.252-.371-.875 0-.55.371-.83.385-.282 1.186-.282.816 0 1.172.281.37.282.371.831m9.821 6.363q0 1.245-.252 2.136-.252.89-.771 1.468-.519.564-1.335.83-.801.267-1.928.267-2.225 0-3.263-1.097-1.023-1.113-1.023-3.604t1.038-3.62q1.038-1.125 3.263-1.126 1.112 0 1.913.282.816.267 1.335.845.534.579.771 1.483.252.89.252 2.136m-5.606 0q0 .757.074 1.246.075.474.223.756a.87.87 0 0 0 .415.37q.252.105.623.105.37 0 .623-.104a.8.8 0 0 0 .4-.386q.163-.282.223-.756.074-.475.074-1.231t-.074-1.231q-.06-.49-.223-.757a.8.8 0 0 0-.4-.385 1.6 1.6 0 0 0-.623-.104q-.37 0-.638.104a.86.86 0 0 0-.415.385q-.148.267-.223.757-.059.474-.059 1.23M37.445 62.105q0-.499.19-.937.189-.445.516-.772a2.4 2.4 0 0 1 .76-.522q.438-.19.93-.19.499 0 .938.19.44.19.765.522.327.327.517.772.19.438.19.937t-.19.937a2.44 2.44 0 0 1-1.282 1.276q-.439.19-.937.19a2.3 2.3 0 0 1-.932-.19 2.46 2.46 0 0 1-1.275-1.276 2.3 2.3 0 0 1-.19-.937m16.784-3.56a.6.6 0 0 1-.137.16.3.3 0 0 1-.178.048.5.5 0 0 1-.255-.095 4 4 0 0 0-.344-.208 2.6 2.6 0 0 0-.48-.213 2 2 0 0 0-.665-.101q-.356 0-.629.089-.267.089-.45.25a1.05 1.05 0 0 0-.28.379q-.088.213-.088.468 0 .327.172.546.172.214.45.368.285.155.647.273.363.112.736.243.38.13.741.297.362.165.641.421.285.255.457.623t.172.896q0 .57-.196 1.068-.195.498-.57.872-.367.368-.913.581-.54.214-1.234.214-.41 0-.8-.083a4 4 0 0 1-.742-.22 4 4 0 0 1-.659-.356 3.3 3.3 0 0 1-.552-.462l.404-.665a.4.4 0 0 1 .136-.13.36.36 0 0 1 .184-.048q.137 0 .303.13.165.126.397.28.238.147.57.278.331.125.795.125.753 0 1.163-.368.415-.367.415-1.014 0-.362-.172-.588a1.4 1.4 0 0 0-.457-.385q-.28-.155-.64-.261a38 38 0 0 1-.736-.226 8 8 0 0 1-.736-.285 2.5 2.5 0 0 1-.647-.427 2 2 0 0 1-.45-.652q-.173-.392-.173-.973 0-.463.178-.896.184-.433.528-.765.35-.339.86-.54.51-.202 1.163-.202.736 0 1.347.231.617.232 1.062.659zm5.718 3.376q0-.32-.095-.593a1.3 1.3 0 0 0-.267-.48 1.2 1.2 0 0 0-.444-.321 1.45 1.45 0 0 0-.606-.119q-.693 0-1.091.398-.397.397-.505 1.115zm-3.043.783q.025.516.16.896.137.375.362.623.231.249.546.374.32.118.712.118.373 0 .646-.083a3.5 3.5 0 0 0 .819-.38.5.5 0 0 1 .261-.088q.154 0 .237.118l.362.469q-.225.267-.51.45-.285.184-.605.303a3.4 3.4 0 0 1-.659.16 4 4 0 0 1-.658.054q-.63 0-1.169-.208a2.7 2.7 0 0 1-.931-.623 2.9 2.9 0 0 1-.617-1.014q-.22-.606-.22-1.394 0-.63.196-1.175.202-.545.57-.95.374-.402.901-.634a2.9 2.9 0 0 1 1.205-.237q.556 0 1.032.184.475.177.819.528.343.35.534.86.195.504.195 1.15 0 .298-.065.398-.066.1-.237.101zm6.57-2.325q.195-.203.404-.362.213-.166.45-.285a2.4 2.4 0 0 1 1.086-.25q.498 0 .872.167.38.166.635.468.261.303.392.73.13.421.13.932v3.85h-1.27v-3.85q0-.611-.284-.95-.278-.338-.855-.338-.427 0-.794.196-.363.196-.683.534v4.408h-1.275v-6.051h.771q.261 0 .332.243zm11.251 5.25H73.45V60.58H70.5v3.435q0 .327.16.499.161.172.427.172a.8.8 0 0 0 .255-.036q.108-.042.184-.083l.13-.083a.2.2 0 0 1 .114-.042q.106 0 .172.119l.38.623a2.1 2.1 0 0 1-.7.403q-.405.137-.831.137-.754 0-1.163-.421-.404-.428-.404-1.199V60.58h-.664a.28.28 0 0 1-.184-.065q-.077-.071-.077-.208v-.516l.979-.142.279-1.75a.3.3 0 0 1 .1-.16.27.27 0 0 1 .19-.066h.653v1.988h4.224zm.261-7.908a.8.8 0 0 1-.071.326.9.9 0 0 1-.184.267 1 1 0 0 1-.279.184.8.8 0 0 1-.326.065.8.8 0 0 1-.326-.065 1 1 0 0 1-.267-.184 1 1 0 0 1-.184-.267.8.8 0 0 1-.066-.326.84.84 0 0 1 .25-.605q.118-.119.267-.184a.8.8 0 0 1 .326-.072q.171 0 .326.072a.84.84 0 0 1 .463.456.8.8 0 0 1 .071.333m2.555 2.978q.285-.575.689-.902.403-.332.967-.332.195 0 .367.047a1 1 0 0 1 .309.13l-.09.962q-.022.101-.076.142a.2.2 0 0 1-.13.036q-.09 0-.256-.03a1.7 1.7 0 0 0-.35-.035q-.267 0-.475.077a1.2 1.2 0 0 0-.367.225q-.16.15-.285.362-.124.214-.231.487v3.76h-1.276v-6.05h.742q.201 0 .279.077.076.07.106.255zm9.489-.024a.3.3 0 0 1-.107.119.3.3 0 0 1-.148.035.5.5 0 0 1-.22-.059 6 6 0 0 0-.279-.142 2 2 0 0 0-.38-.137 1.7 1.7 0 0 0-.504-.065q-.237 0-.433.06a.9.9 0 0 0-.326.16.7.7 0 0 0-.202.243.63.63 0 0 0-.07.296q0 .214.13.356t.344.25q.213.1.486.183.273.084.558.178.285.096.557.22.274.125.487.308.213.178.344.44.13.255.13.622.001.427-.154.79-.154.36-.45.628a2.1 2.1 0 0 1-.742.416 3.2 3.2 0 0 1-1.009.148q-.315 0-.61-.06a3.6 3.6 0 0 1-.558-.148 3.4 3.4 0 0 1-.493-.237 2.7 2.7 0 0 1-.403-.297l.296-.486a.365.365 0 0 1 .332-.19.42.42 0 0 1 .244.083q.124.077.285.172.165.095.397.178.231.077.576.077.285 0 .492-.065.208-.071.344-.19a.76.76 0 0 0 .202-.267.8.8 0 0 0 .065-.326.55.55 0 0 0-.13-.38 1.1 1.1 0 0 0-.35-.255 3 3 0 0 0-.493-.19 22 22 0 0 1-.558-.178 6 6 0 0 1-.563-.22 2 2 0 0 1-.493-.314 1.5 1.5 0 0 1-.344-.468 1.6 1.6 0 0 1-.13-.677q0-.361.142-.688.15-.327.427-.575.285-.25.695-.392.414-.148.955-.148.61 0 1.11.196.497.195.836.533zm5.535 1.246q0-.32-.095-.593a1.3 1.3 0 0 0-.267-.48 1.2 1.2 0 0 0-.445-.321 1.45 1.45 0 0 0-.605-.119q-.694 0-1.091.398-.397.397-.505 1.115zm-3.043.783q.024.516.16.896.136.375.362.623.231.249.546.374.32.118.712.118.373 0 .646-.083.273-.089.475-.19.201-.106.344-.19a.5.5 0 0 1 .261-.088q.154 0 .237.118l.362.469q-.225.267-.51.45-.285.184-.605.303a3.4 3.4 0 0 1-.659.16 4 4 0 0 1-.658.054q-.63 0-1.169-.208a2.7 2.7 0 0 1-.931-.623 2.9 2.9 0 0 1-.617-1.014q-.22-.606-.22-1.394 0-.63.196-1.175.201-.545.57-.95.374-.402.901-.634a2.9 2.9 0 0 1 1.204-.237q.558 0 1.033.184.475.177.819.528.344.35.534.86.195.504.195 1.15 0 .298-.065.398t-.237.101zm7.537-.154q.594 0 .89-.303.297-.301.297-.789 0-.498-.297-.789-.296-.29-.89-.29-.587 0-.89.29-.296.29-.296.79 0 .236.077.438a1 1 0 0 0 .225.35q.15.142.368.226.225.077.516.077m1.774 3.376a.43.43 0 0 0-.119-.32.7.7 0 0 0-.308-.19 2 2 0 0 0-.457-.102 6 6 0 0 0-.558-.047 27 27 0 0 0-.599-.03 7 7 0 0 1-.587-.059q-.285.149-.469.356a.72.72 0 0 0-.178.48q0 .18.09.333a.8.8 0 0 0 .284.267q.196.112.492.178.303.065.724.065.843 0 1.264-.261.42-.262.421-.67m1.282-6.129v.475q0 .237-.285.29l-.605.101q.153.345.154.766 0 .444-.178.806a1.8 1.8 0 0 1-.48.617q-.31.255-.736.392a3 3 0 0 1-.926.136q-.189 0-.374-.017a5 5 0 0 1-.35-.06.8.8 0 0 0-.255.214.4.4 0 0 0-.083.231q0 .196.172.291t.451.136q.285.042.647.054.361.012.736.041.374.03.735.101.362.066.64.226.285.154.458.42.172.268.172.695 0 .391-.196.765-.195.374-.57.665a2.9 2.9 0 0 1-.901.463 3.8 3.8 0 0 1-1.216.177q-.677 0-1.181-.13a2.8 2.8 0 0 1-.837-.356 1.5 1.5 0 0 1-.498-.51 1.24 1.24 0 0 1-.16-.605q0-.427.267-.73.273-.303.736-.475a1.06 1.06 0 0 1-.404-.326q-.148-.207-.148-.546 0-.267.195-.557.197-.29.588-.493a1.94 1.94 0 0 1-.712-.658 1.8 1.8 0 0 1-.261-.967q0-.452.172-.813.179-.362.492-.617.315-.254.742-.392.433-.136.943-.136.783 0 1.365.326zm6.109-.22v6.052h-.771q-.255 0-.326-.243l-.095-.564a3.5 3.5 0 0 1-.404.368q-.208.166-.445.285a2.42 2.42 0 0 1-1.085.25 2.2 2.2 0 0 1-.878-.167 1.8 1.8 0 0 1-.641-.469 2.05 2.05 0 0 1-.386-.724 3.2 3.2 0 0 1-.13-.937v-3.85h1.275v3.85q0 .61.279.95.285.337.86.337.422 0 .783-.19.368-.195.689-.534v-4.413zm2.753 1.122q.285-.575.689-.902.403-.332.967-.332.196 0 .367.047a1 1 0 0 1 .309.13l-.089.962q-.024.101-.077.142a.2.2 0 0 1-.131.036 1.6 1.6 0 0 1-.255-.03 1.7 1.7 0 0 0-.35-.035q-.267 0-.474.077a1.2 1.2 0 0 0-.368.225q-.16.15-.285.362-.124.214-.231.487v3.76h-1.276v-6.05h.742q.201 0 .279.077.077.07.106.255zm4.505-1.121v6.05h-1.276v-6.05zm.214-1.828a.8.8 0 0 1-.072.327.8.8 0 0 1-.184.273 1 1 0 0 1-.278.183.85.85 0 0 1-.333.066.8.8 0 0 1-.326-.066 1 1 0 0 1-.261-.183 1 1 0 0 1-.184-.273.853.853 0 0 1 0-.659.93.93 0 0 1 .445-.45.785.785 0 0 1 .659 0 .8.8 0 0 1 .278.183q.12.112.184.267a.8.8 0 0 1 .072.332m5.251 3.317a1.5 1.5 0 0 0-.588-.48 1.75 1.75 0 0 0-.694-.137q-.748 0-1.168.551-.422.546-.422 1.62 0 .558.095.955.096.392.273.64.178.25.433.363t.576.113q.486 0 .836-.208a2.4 2.4 0 0 0 .659-.6zm1.275-4.218v8.78h-.771q-.255 0-.326-.243l-.113-.659a3.2 3.2 0 0 1-.866.718 2.23 2.23 0 0 1-1.121.273 2.1 2.1 0 0 1-.926-.202 2 2 0 0 1-.712-.599 2.9 2.9 0 0 1-.463-.967 5 5 0 0 1-.16-1.329q0-.675.178-1.252.184-.575.522-.996.339-.428.819-.665a2.4 2.4 0 0 1 1.086-.243q.534 0 .907.172.374.166.671.469v-3.257zm4.793 6.134a8 8 0 0 0-1.151.113 3 3 0 0 0-.759.22q-.29.13-.421.314a.7.7 0 0 0-.125.403 1 1 0 0 0 .065.368.8.8 0 0 0 .19.249q.125.094.285.142.166.042.362.042.498 0 .854-.184.362-.19.7-.546zm-3.381-2.563a3.47 3.47 0 0 1 2.444-.955q.522 0 .925.172a1.8 1.8 0 0 1 .683.475q.279.308.421.735.148.421.148.938v3.844h-.569a.6.6 0 0 1-.279-.053q-.095-.06-.16-.232l-.125-.492a6 6 0 0 1-.457.373 3 3 0 0 1-.468.273 2.2 2.2 0 0 1-.517.166q-.272.06-.605.06-.367 0-.688-.101a1.5 1.5 0 0 1-.546-.303 1.5 1.5 0 0 1-.368-.51 1.8 1.8 0 0 1-.13-.712q0-.35.184-.682.19-.332.617-.593.433-.267 1.133-.44.706-.172 1.738-.195v-.403q0-.653-.279-.973-.278-.32-.818-.32-.368-.001-.617.094-.25.09-.433.196a6 6 0 0 0-.327.202.56.56 0 0 1-.302.089.4.4 0 0 1-.226-.066.6.6 0 0 1-.148-.172zm9.978.647a1.5 1.5 0 0 0-.588-.48 1.75 1.75 0 0 0-.694-.137q-.747 0-1.169.551-.42.546-.421 1.62 0 .558.095.955.094.392.273.64.178.25.433.363t.576.113q.486 0 .836-.208.356-.213.659-.6zm1.275-4.218v8.78h-.771q-.255 0-.326-.243l-.113-.659a3.2 3.2 0 0 1-.866.718 2.23 2.23 0 0 1-1.122.273q-.51 0-.925-.202a2 2 0 0 1-.712-.599 2.9 2.9 0 0 1-.463-.967 5 5 0 0 1-.16-1.329q0-.675.178-1.252.184-.575.522-.996a2.37 2.37 0 0 1 1.904-.908q.534 0 .908.172.374.166.671.469v-3.257zm8.483 5.072q0-.32-.094-.593a1.35 1.35 0 0 0-.267-.48 1.2 1.2 0 0 0-.445-.321 1.45 1.45 0 0 0-.606-.119q-.693 0-1.091.398-.397.397-.504 1.115zm-3.043.783q.024.516.16.896.137.375.362.623.231.249.546.374.32.118.712.118.374 0 .646-.083a3.5 3.5 0 0 0 .475-.19q.202-.106.344-.19a.5.5 0 0 1 .261-.088q.155 0 .237.118l.362.469q-.225.267-.51.45-.285.184-.605.303a3.4 3.4 0 0 1-.658.16 4 4 0 0 1-.659.054q-.629 0-1.169-.208a2.7 2.7 0 0 1-.931-.623 2.9 2.9 0 0 1-.617-1.014 4.1 4.1 0 0 1-.22-1.394q0-.63.196-1.175.202-.545.57-.95.373-.402.901-.634a2.9 2.9 0 0 1 1.205-.237q.558 0 1.032.184.474.177.819.528.344.35.534.86.195.504.195 1.15 0 .298-.065.398t-.237.101zm6.57-2.325a4 4 0 0 1 .404-.362q.213-.166.451-.285a2.4 2.4 0 0 1 1.085-.25q.499 0 .872.167.38.166.635.468.261.303.392.73.13.421.13.932v3.85h-1.269v-3.85q0-.611-.285-.95-.28-.338-.854-.338-.428 0-.795.196-.363.196-.683.534v4.408h-1.275v-6.051h.771q.261 0 .332.243zm9.713-3.53v8.78h-1.276v-8.78zm4.808 6.134a8 8 0 0 0-1.151.113 3 3 0 0 0-.76.22q-.29.13-.421.314a.7.7 0 0 0-.124.403q0 .213.065.368a.74.74 0 0 0 .19.249q.125.094.284.142.167.042.362.042.499 0 .855-.184a2.7 2.7 0 0 0 .7-.546zm-3.382-2.563a3.47 3.47 0 0 1 2.444-.955q.522 0 .926.172.41.166.682.475.279.308.421.735.149.421.149.938v3.844h-.57a.6.6 0 0 1-.279-.053q-.094-.06-.16-.232l-.125-.492a6 6 0 0 1-.456.373 3 3 0 0 1-.469.273q-.237.112-.516.166-.273.06-.605.06-.368 0-.689-.101a1.5 1.5 0 0 1-.545-.303 1.5 1.5 0 0 1-.368-.51 1.8 1.8 0 0 1-.131-.712q0-.35.184-.682.19-.332.617-.593.434-.267 1.133-.44.706-.172 1.739-.195v-.403q0-.653-.279-.973t-.819-.32q-.368-.001-.617.094-.249.09-.433.196a6 6 0 0 0-.326.202.56.56 0 0 1-.303.089.4.4 0 0 1-.225-.066.6.6 0 0 1-.149-.172zm13.348.344a.7.7 0 0 1-.113.119.25.25 0 0 1-.154.041.4.4 0 0 1-.214-.07 3 3 0 0 0-.261-.155 2 2 0 0 0-.362-.16 1.7 1.7 0 0 0-.534-.072q-.415 0-.729.149-.309.148-.522.427a1.9 1.9 0 0 0-.315.67 3.6 3.6 0 0 0-.101.884q0 .51.113.908.112.397.321.67.213.273.51.416.302.142.676.142.368 0 .599-.089.231-.09.386-.196t.261-.195a.38.38 0 0 1 .237-.09q.154 0 .238.12l.361.468a2.4 2.4 0 0 1-.486.45 3 3 0 0 1-.564.303 3 3 0 0 1-.617.16 4 4 0 0 1-.646.054q-.564 0-1.056-.208a2.6 2.6 0 0 1-.855-.61 3 3 0 0 1-.575-.98 3.9 3.9 0 0 1-.208-1.323q0-.67.19-1.24.19-.575.552-.99.368-.416.908-.647a3.1 3.1 0 0 1 1.245-.237q.659 0 1.157.213.504.214.896.605zm3.935-1.281q.67 0 1.211.22.545.218.925.622.386.404.593.979.208.576.208 1.293 0 .718-.208 1.294a2.8 2.8 0 0 1-.593.985 2.6 2.6 0 0 1-.925.622q-.54.22-1.211.22a3.3 3.3 0 0 1-1.222-.22 2.6 2.6 0 0 1-.925-.623 2.8 2.8 0 0 1-.594-.984 3.8 3.8 0 0 1-.207-1.294q0-.718.207-1.293.209-.576.594-.979.385-.404.925-.623a3.3 3.3 0 0 1 1.222-.22m0 5.238q.82 0 1.217-.546.403-.551.403-1.572t-.403-1.572q-.398-.558-1.217-.558-.83 0-1.234.558-.403.552-.403 1.572t.403 1.572q.404.546 1.234.546m4.163.908v-6.051h.771q.261 0 .332.243l.083.528q.167-.19.344-.344a2.1 2.1 0 0 1 .819-.457 2 2 0 0 1 .51-.065q.291 0 .534.083t.427.237q.19.155.326.374.137.219.226.492.137-.315.344-.54.208-.226.463-.367.255-.143.54-.208a2.5 2.5 0 0 1 .587-.071q.486 0 .866.154.386.154.647.45.267.292.403.719.137.427.137.973v3.85h-1.276v-3.85q0-.641-.279-.962-.273-.326-.812-.326-.244 0-.457.083a1.07 1.07 0 0 0-.629.647 1.6 1.6 0 0 0-.089.558v3.85h-1.276v-3.85q0-.665-.267-.973-.267-.315-.783-.315-.356 0-.658.184a2.1 2.1 0 0 0-.558.493v4.46zm11.124-1.519q.267.345.582.487.32.136.706.136.747 0 1.162-.546.422-.545.422-1.625 0-.558-.095-.95a1.9 1.9 0 0 0-.273-.646 1.05 1.05 0 0 0-.433-.362 1.4 1.4 0 0 0-.576-.113q-.486 0-.842.214a2.4 2.4 0 0 0-.653.599zm-.065-3.654q.38-.445.86-.718.486-.273 1.127-.273.511 0 .926.207.415.203.712.594t.457.973q.166.575.166 1.323 0 .67-.184 1.252a3.1 3.1 0 0 1-.516 1.002q-.339.42-.819.665-.48.237-1.086.237-.534 0-.907-.172a2.4 2.4 0 0 1-.671-.475v2.57h-1.275v-8.063h.771q.261 0 .332.243zm6.691.243q.285-.575.689-.902.403-.332.967-.332.195 0 .367.047a1 1 0 0 1 .309.13l-.089.962q-.024.101-.077.142a.2.2 0 0 1-.131.036 1.6 1.6 0 0 1-.255-.03 1.7 1.7 0 0 0-.35-.035q-.267 0-.474.077a1.2 1.2 0 0 0-.368.225q-.16.15-.285.362-.124.214-.231.487v3.76h-1.276v-6.05h.742q.201 0 .278.077.078.07.107.255zm6.317 2.284a8 8 0 0 0-1.151.113 3 3 0 0 0-.76.22q-.29.13-.421.314a.7.7 0 0 0-.124.403q0 .213.065.368a.74.74 0 0 0 .19.249q.125.094.284.142.167.042.362.042.499 0 .855-.184a2.7 2.7 0 0 0 .7-.546zm-3.382-2.563a3.47 3.47 0 0 1 2.444-.955q.522 0 .926.172.41.166.682.475.279.308.421.735.149.421.149.938v3.844h-.57a.6.6 0 0 1-.279-.053q-.094-.06-.16-.232l-.125-.492a6 6 0 0 1-.456.373 3 3 0 0 1-.469.273q-.237.112-.516.166-.273.06-.605.06-.369 0-.689-.101a1.5 1.5 0 0 1-.545-.303 1.5 1.5 0 0 1-.368-.51 1.8 1.8 0 0 1-.131-.712q0-.35.184-.682.19-.332.617-.593.434-.267 1.133-.44.706-.172 1.739-.195v-.403q0-.653-.279-.973t-.819-.32q-.368-.001-.617.094-.249.09-.433.196a6 6 0 0 0-.326.202.56.56 0 0 1-.303.089.4.4 0 0 1-.225-.066.6.6 0 0 1-.149-.172zm12.933.647a1.5 1.5 0 0 0-.588-.48 1.75 1.75 0 0 0-.694-.137q-.747 0-1.169.551-.42.546-.421 1.62 0 .558.095.955.095.392.273.64.178.25.433.363t.576.113q.486 0 .836-.208.356-.213.659-.6zm1.275-4.218v8.78h-.771q-.255 0-.326-.243l-.113-.659a3.2 3.2 0 0 1-.866.718 2.23 2.23 0 0 1-1.122.273q-.51 0-.925-.202a2 2 0 0 1-.712-.599 2.9 2.9 0 0 1-.463-.967 5 5 0 0 1-.16-1.329q0-.675.178-1.252.184-.575.522-.996.339-.428.819-.665a2.4 2.4 0 0 1 1.086-.243q.533 0 .907.172.374.166.671.469v-3.257zm5.529 5.072q0-.32-.095-.593a1.3 1.3 0 0 0-.267-.48 1.2 1.2 0 0 0-.445-.321 1.45 1.45 0 0 0-.605-.119q-.694 0-1.092.398-.397.397-.504 1.115zm-3.044.783q.024.516.161.896.136.375.361.623.232.249.546.374.32.118.712.118.374 0 .647-.083.273-.089.474-.19a9 9 0 0 0 .345-.19.5.5 0 0 1 .261-.088q.153 0 .237.118l.362.469a2.3 2.3 0 0 1-.51.45 3 3 0 0 1-.606.303 3.4 3.4 0 0 1-.658.16 4 4 0 0 1-.659.054q-.628 0-1.168-.208a2.7 2.7 0 0 1-.932-.623 2.9 2.9 0 0 1-.617-1.014q-.219-.606-.219-1.394 0-.63.195-1.175a2.9 2.9 0 0 1 .57-.95q.374-.402.902-.634a2.9 2.9 0 0 1 1.204-.237q.558 0 1.032.184.476.177.819.528.344.35.534.86.196.504.196 1.15 0 .298-.065.398-.066.1-.238.101zm9.609 1.406q.267.345.581.487.32.136.706.136.747 0 1.163-.546.421-.545.421-1.625 0-.558-.095-.95a1.8 1.8 0 0 0-.273-.646 1.05 1.05 0 0 0-.433-.362 1.4 1.4 0 0 0-.575-.113q-.487 0-.843.214a2.4 2.4 0 0 0-.652.599zm-.066-3.654q.38-.445.861-.718.486-.273 1.127-.273.51 0 .925.207.415.203.712.594t.457.973q.166.575.166 1.323 0 .67-.184 1.252a3.1 3.1 0 0 1-.516 1.002q-.338.42-.819.665-.48.237-1.085.237-.534 0-.908-.172a2.4 2.4 0 0 1-.67-.475v2.57h-1.276v-8.063h.771q.261 0 .332.243zm8.721 2.527a8 8 0 0 0-1.151.113 3 3 0 0 0-.76.22q-.29.13-.421.314a.7.7 0 0 0-.124.403q0 .213.065.368a.74.74 0 0 0 .19.249q.125.094.284.142.167.042.362.042.499 0 .855-.184a2.7 2.7 0 0 0 .7-.546zm-3.382-2.563a3.47 3.47 0 0 1 2.444-.955q.522 0 .926.172.41.166.682.475.279.308.421.735.149.421.149.938v3.844h-.57a.6.6 0 0 1-.279-.053q-.094-.06-.16-.232l-.125-.492a6 6 0 0 1-.456.373 3 3 0 0 1-.469.273q-.237.112-.516.166-.273.06-.605.06-.368 0-.688-.101a1.5 1.5 0 0 1-.546-.303 1.5 1.5 0 0 1-.368-.51 1.8 1.8 0 0 1-.131-.712q0-.35.184-.682.19-.332.617-.593.434-.267 1.133-.44.707-.172 1.739-.195v-.403q0-.653-.279-.973t-.819-.32q-.368-.001-.617.094-.249.09-.433.196a6 6 0 0 0-.326.202.56.56 0 0 1-.303.089.4.4 0 0 1-.225-.066.6.6 0 0 1-.149-.172zm9.729.255a.3.3 0 0 1-.107.119.3.3 0 0 1-.148.035.5.5 0 0 1-.22-.059 6 6 0 0 0-.279-.142 2 2 0 0 0-.379-.137 1.7 1.7 0 0 0-.505-.065q-.237 0-.433.06a.9.9 0 0 0-.326.16.7.7 0 0 0-.202.243.64.64 0 0 0-.071.296q0 .214.131.356.13.142.344.25.213.1.486.183.273.084.558.178.285.096.558.22.272.125.486.308.213.178.344.44.13.255.131.622 0 .427-.155.79a1.8 1.8 0 0 1-.451.628 2.1 2.1 0 0 1-.741.416 3.2 3.2 0 0 1-1.009.148 3.621 3.621 0 0 1-1.168-.208 3.3 3.3 0 0 1-.493-.237 2.6 2.6 0 0 1-.403-.297l.296-.486a.366.366 0 0 1 .333-.19q.125 0 .243.083.124.077.285.172.166.095.397.178.231.077.576.077.284 0 .492-.065.207-.071.344-.19a.8.8 0 0 0 .202-.267.8.8 0 0 0 .065-.326.55.55 0 0 0-.13-.38 1.1 1.1 0 0 0-.35-.255 3 3 0 0 0-.493-.19 22 22 0 0 1-.558-.178 6 6 0 0 1-.563-.22 2 2 0 0 1-.493-.314 1.5 1.5 0 0 1-.344-.468 1.6 1.6 0 0 1-.13-.677q0-.361.142-.688.148-.327.427-.575.285-.25.695-.392.415-.148.955-.148.61 0 1.109.196.498.195.837.533zm4.8 2.308a8 8 0 0 0-1.151.113 3 3 0 0 0-.76.22q-.29.13-.421.314a.7.7 0 0 0-.125.403q0 .213.066.368.07.148.19.249.125.094.284.142.167.042.362.042.498 0 .855-.184a2.7 2.7 0 0 0 .7-.546zm-3.382-2.563a3.47 3.47 0 0 1 2.444-.955q.522 0 .926.172.41.166.682.475.279.308.421.735.149.421.149.938v3.844h-.57a.6.6 0 0 1-.279-.053q-.095-.06-.16-.232l-.125-.492a6 6 0 0 1-.456.373 3 3 0 0 1-.469.273q-.237.112-.516.166-.273.06-.605.06-.369 0-.689-.101a1.5 1.5 0 0 1-.545-.303 1.5 1.5 0 0 1-.368-.51 1.8 1.8 0 0 1-.131-.712q0-.35.184-.682.19-.332.617-.593.434-.267 1.133-.44.706-.172 1.739-.195v-.403q0-.653-.279-.973t-.819-.32q-.368-.001-.617.094-.249.09-.433.196a6 6 0 0 0-.326.202.56.56 0 0 1-.303.089.4.4 0 0 1-.225-.066.6.6 0 0 1-.149-.172zm7.445-.842v6.365q0 .38-.101.712a1.5 1.5 0 0 1-.321.588 1.5 1.5 0 0 1-.569.391q-.344.142-.837.142-.207 0-.373-.03a3 3 0 0 1-.339-.082l.048-.694q.018-.12.101-.137.077-.018.302-.018.452 0 .629-.201.184-.195.184-.67v-6.366zm.207-1.828a.8.8 0 0 1-.071.327.85.85 0 0 1-.457.456.8.8 0 0 1-.332.066.8.8 0 0 1-.326-.066 1 1 0 0 1-.267-.183.9.9 0 0 1-.178-.273.8.8 0 0 1-.065-.327.84.84 0 0 1 .243-.599.87.87 0 0 1 .593-.255.8.8 0 0 1 .332.071.9.9 0 0 1 .273.184.8.8 0 0 1 .184.267.8.8 0 0 1 .071.332m5.364 4.171q0-.32-.095-.593a1.3 1.3 0 0 0-.267-.48 1.2 1.2 0 0 0-.445-.321 1.45 1.45 0 0 0-.605-.119q-.694 0-1.091.398-.397.397-.505 1.115zm-3.043.783q.024.516.16.896.137.375.362.623.231.249.546.374.32.118.712.118.373 0 .646-.083.273-.089.475-.19.201-.106.344-.19a.5.5 0 0 1 .261-.088q.154 0 .237.118l.362.469q-.225.267-.51.45a3 3 0 0 1-.605.303 3.4 3.4 0 0 1-.659.16 4 4 0 0 1-.658.054q-.629 0-1.169-.208a2.7 2.7 0 0 1-.931-.623 2.9 2.9 0 0 1-.617-1.014q-.22-.606-.22-1.394 0-.63.196-1.175a2.9 2.9 0 0 1 .569-.95q.375-.402.902-.634a2.9 2.9 0 0 1 1.204-.237q.558 0 1.033.184.474.177.818.528.345.35.534.86.196.504.196 1.15 0 .298-.065.398-.066.1-.237.101zm8.991-2.029a.3.3 0 0 1-.107.119.3.3 0 0 1-.148.035.5.5 0 0 1-.22-.059 6 6 0 0 0-.279-.142 2.2 2.2 0 0 0-.379-.137 1.7 1.7 0 0 0-.505-.065q-.237 0-.433.06a.9.9 0 0 0-.326.16.7.7 0 0 0-.202.243.64.64 0 0 0-.071.296q0 .214.13.356t.345.25q.213.1.486.183.273.084.558.178.284.096.557.22.273.125.487.308.213.178.344.44.13.255.13.622 0 .427-.154.79-.154.36-.451.628a2.1 2.1 0 0 1-.741.416 3.2 3.2 0 0 1-1.009.148 3 3 0 0 1-.611-.06 3.6 3.6 0 0 1-.558-.148 3.3 3.3 0 0 1-.492-.237 2.6 2.6 0 0 1-.403-.297l.296-.486a.363.363 0 0 1 .333-.19q.125 0 .243.083.125.077.285.172.166.095.397.178.231.077.575.077.285 0 .493-.065.207-.071.344-.19a.8.8 0 0 0 .202-.267.8.8 0 0 0 .065-.326.55.55 0 0 0-.131-.38 1.1 1.1 0 0 0-.35-.255 3 3 0 0 0-.492-.19 22 22 0 0 1-.558-.178 6 6 0 0 1-.563-.22 2 2 0 0 1-.493-.314 1.5 1.5 0 0 1-.344-.468 1.6 1.6 0 0 1-.13-.677q0-.361.142-.688.148-.327.427-.575.285-.25.694-.392.416-.148.956-.148.61 0 1.109.196.498.195.836.533zM37.445 119.206q0-.498.19-.937.189-.445.516-.771.325-.333.76-.522.438-.19.93-.19.499 0 .938.19.44.189.765.522.327.326.517.771.19.44.19.937 0 .499-.19.938a2.45 2.45 0 0 1-1.282 1.275q-.44.19-.937.19-.492 0-.932-.19a2.44 2.44 0 0 1-1.275-1.275 2.3 2.3 0 0 1-.19-.938m16.784-3.559a.6.6 0 0 1-.137.16.3.3 0 0 1-.178.048.5.5 0 0 1-.255-.095 4 4 0 0 0-.344-.208 2.7 2.7 0 0 0-.48-.214 2 2 0 0 0-.665-.1q-.356 0-.629.089a1.3 1.3 0 0 0-.45.249 1.05 1.05 0 0 0-.28.379q-.088.214-.088.469 0 .327.172.546.172.213.45.368.285.155.647.273.363.113.736.243.38.13.741.296.362.167.641.422.285.254.457.623.172.367.172.895 0 .57-.196 1.068-.195.499-.57.872-.367.368-.913.582-.54.213-1.234.213-.41 0-.8-.083a4 4 0 0 1-.742-.219 4 4 0 0 1-.659-.356 3.4 3.4 0 0 1-.552-.463l.404-.664a.37.37 0 0 1 .32-.178q.137 0 .303.13.165.124.397.279.238.148.57.279.331.124.795.124.753 0 1.163-.367.415-.369.415-1.015 0-.362-.172-.587a1.4 1.4 0 0 0-.457-.386q-.28-.154-.64-.261a37 37 0 0 1-.736-.225 8 8 0 0 1-.736-.285 2.5 2.5 0 0 1-.647-.427 2 2 0 0 1-.45-.653q-.173-.391-.173-.973 0-.462.178-.896a2.3 2.3 0 0 1 .528-.765q.35-.337.86-.54.51-.201 1.163-.201.736 0 1.347.231.617.231 1.062.658zm3.055 1.032v6.051H56.01v-6.051zm.214-1.827a.8.8 0 0 1-.072.326.85.85 0 0 1-.794.522.8.8 0 0 1-.327-.065 1 1 0 0 1-.26-.184.827.827 0 0 1-.25-.599q0-.178.065-.332a.9.9 0 0 1 .445-.451.8.8 0 0 1 .327-.071q.177 0 .332.071a.8.8 0 0 1 .279.184q.119.113.183.267a.8.8 0 0 1 .072.332m1.389 7.878v-6.051h.771q.261 0 .332.243l.083.528q.167-.19.344-.344.179-.159.38-.273.208-.118.44-.183a1.9 1.9 0 0 1 1.043.017q.243.084.427.238.19.154.327.373.136.22.225.493.137-.315.344-.54a1.9 1.9 0 0 1 .463-.368q.255-.142.54-.208.291-.07.587-.071.487 0 .866.155.386.154.647.45a1.9 1.9 0 0 1 .403.718q.137.427.137.973v3.85H65.97v-3.85q0-.64-.278-.961-.273-.326-.813-.326-.243 0-.457.083a1.1 1.1 0 0 0-.374.243 1.2 1.2 0 0 0-.255.404q-.09.237-.089.557v3.85h-1.276v-3.85q0-.664-.266-.973-.268-.314-.783-.314-.356 0-.66.184a2.1 2.1 0 0 0-.557.492v4.461zm11.124-1.518q.267.343.582.486.32.137.706.137.747 0 1.163-.546.42-.546.42-1.626.001-.557-.094-.949a1.9 1.9 0 0 0-.273-.647 1.05 1.05 0 0 0-.433-.361 1.4 1.4 0 0 0-.576-.113 1.6 1.6 0 0 0-.842.213 2.4 2.4 0 0 0-.653.6zm-.065-3.655q.38-.445.86-.718.487-.273 1.128-.273.51 0 .925.208.415.202.712.593.297.392.457.973.165.576.166 1.323 0 .67-.184 1.252-.178.576-.516 1.003a2.5 2.5 0 0 1-.819.664q-.48.237-1.085.237-.535 0-.908-.172a2.3 2.3 0 0 1-.67-.474v2.569h-1.276v-8.063h.771q.261 0 .332.243zm6.787-3.607v8.78h-1.276v-8.78zm2.903 2.729v6.051H78.36v-6.051zm.213-1.827a.8.8 0 0 1-.07.326.85.85 0 0 1-.796.522.8.8 0 0 1-.326-.065 1 1 0 0 1-.261-.184 1 1 0 0 1-.184-.273.8.8 0 0 1-.065-.326.8.8 0 0 1 .065-.332.9.9 0 0 1 .445-.451.8.8 0 0 1 .326-.071q.179 0 .332.071a.8.8 0 0 1 .28.184q.118.113.183.267a.8.8 0 0 1 .071.332m5.667 3.014a.7.7 0 0 1-.113.118.25.25 0 0 1-.154.042.4.4 0 0 1-.214-.071 3 3 0 0 0-.26-.155 2 2 0 0 0-.363-.16 1.7 1.7 0 0 0-.534-.071q-.415 0-.73.148-.308.149-.521.428a1.9 1.9 0 0 0-.315.67q-.1.392-.1.884 0 .51.112.908.113.397.32.67.215.273.51.415.303.143.677.143.367 0 .6-.089.23-.09.385-.196t.26-.196a.38.38 0 0 1 .238-.089q.154 0 .238.119l.361.468a2.4 2.4 0 0 1-.486.451 3 3 0 0 1-.564.303 3 3 0 0 1-.617.16q-.32.053-.646.053-.564 0-1.056-.207a2.6 2.6 0 0 1-.855-.611 3 3 0 0 1-.575-.979 3.9 3.9 0 0 1-.208-1.323q0-.67.19-1.24.19-.576.552-.991.368-.415.907-.646.54-.238 1.246-.238.66 0 1.157.214.504.213.896.605zm2.752-1.187v6.051h-1.275v-6.051zm.214-1.827a.8.8 0 0 1-.071.326.85.85 0 0 1-.795.522.8.8 0 0 1-.327-.065 1 1 0 0 1-.26-.184.827.827 0 0 1-.25-.599q0-.178.065-.332a.9.9 0 0 1 .445-.451.8.8 0 0 1 .327-.071q.177 0 .332.071a.8.8 0 0 1 .279.184q.118.113.184.267a.8.8 0 0 1 .07.332m5.251 3.316a1.5 1.5 0 0 0-.587-.48 1.8 1.8 0 0 0-.694-.137q-.748 0-1.17.552-.42.546-.42 1.62 0 .557.095.955.095.391.273.641.178.249.432.361.255.114.576.113.486 0 .837-.208.355-.213.658-.599zm1.275-4.218v8.78h-.77q-.256 0-.327-.243l-.113-.658a3.2 3.2 0 0 1-.866.718 2.24 2.24 0 0 1-1.121.272q-.51 0-.926-.201a2 2 0 0 1-.712-.599 2.9 2.9 0 0 1-.462-.967 5 5 0 0 1-.16-1.329q0-.677.177-1.252.184-.576.523-.997a2.37 2.37 0 0 1 1.904-.908q.534 0 .908.173.373.165.67.468v-3.257zm4.794 6.135a8 8 0 0 0-1.151.112 3 3 0 0 0-.76.22 1 1 0 0 0-.421.314.7.7 0 0 0-.124.404q0 .214.065.367.07.148.19.25.124.094.284.142.167.041.362.041.498 0 .855-.183.36-.19.7-.546zm-3.382-2.563a3.47 3.47 0 0 1 2.444-.956q.522 0 .926.173.41.165.682.474.279.309.421.736.148.421.148.937v3.844h-.569a.6.6 0 0 1-.279-.053q-.095-.06-.16-.231l-.125-.493a6 6 0 0 1-.457.374q-.225.16-.468.273-.237.112-.516.166-.273.06-.605.059-.368 0-.689-.1a1.6 1.6 0 0 1-.545-.303 1.5 1.5 0 0 1-.368-.51 1.8 1.8 0 0 1-.13-.712q0-.35.183-.682.19-.333.617-.594.434-.267 1.133-.439.706-.172 1.739-.195v-.404q0-.652-.28-.973-.278-.32-.818-.32-.367 0-.617.095-.249.088-.433.196a6 6 0 0 0-.326.201.56.56 0 0 1-.303.089.4.4 0 0 1-.225-.065.6.6 0 0 1-.149-.172zm9.978.646a1.5 1.5 0 0 0-.588-.48 1.75 1.75 0 0 0-.694-.137q-.748 0-1.168.552-.422.546-.422 1.62 0 .557.095.955.096.391.273.641.178.249.433.361.255.114.576.113.486 0 .836-.208.356-.213.659-.599zm1.275-4.218v8.78h-.771q-.255 0-.326-.243l-.113-.658a3.2 3.2 0 0 1-.866.718 2.24 2.24 0 0 1-1.121.272 2.1 2.1 0 0 1-.926-.201 2 2 0 0 1-.712-.599 2.9 2.9 0 0 1-.463-.967 5 5 0 0 1-.16-1.329q0-.677.178-1.252a3.1 3.1 0 0 1 .522-.997 2.38 2.38 0 0 1 1.905-.908q.534 0 .907.173.375.165.671.468v-3.257zm9.583 2.729-3.335 7.772a.6.6 0 0 1-.16.214q-.088.077-.279.077h-.943l1.115-2.421-2.468-5.642h1.11q.16 0 .243.077a.44.44 0 0 1 .131.172l1.441 3.435q.054.149.095.297.048.143.089.297l.095-.303q.047-.149.107-.297l1.382-3.429a.4.4 0 0 1 .137-.178.37.37 0 0 1 .219-.071zm4.77 4.533q.267.343.582.486.32.137.706.137.748 0 1.162-.546.422-.546.422-1.626 0-.557-.095-.949a1.9 1.9 0 0 0-.273-.647 1.05 1.05 0 0 0-.433-.361 1.4 1.4 0 0 0-.576-.113q-.486 0-.842.213a2.4 2.4 0 0 0-.653.6zm-.065-3.655q.38-.445.86-.718.487-.273 1.127-.273.511 0 .926.208.415.202.712.593.297.392.457.973.165.576.166 1.323 0 .67-.184 1.252a3.1 3.1 0 0 1-.516 1.003 2.5 2.5 0 0 1-.819.664 2.4 2.4 0 0 1-1.086.237q-.534 0-.907-.172a2.3 2.3 0 0 1-.671-.474v2.569h-1.275v-8.063h.771q.261 0 .332.243zm8.103-.973q.67 0 1.211.22.546.22.925.623.386.403.593.979.208.574.208 1.293 0 .718-.208 1.293a2.8 2.8 0 0 1-.593.985 2.56 2.56 0 0 1-.925.623q-.54.219-1.211.219a3.3 3.3 0 0 1-1.222-.219 2.6 2.6 0 0 1-.925-.623 2.8 2.8 0 0 1-.593-.985 3.8 3.8 0 0 1-.208-1.293q0-.719.208-1.293.207-.576.593-.979.385-.404.925-.623a3.2 3.2 0 0 1 1.222-.22m0 5.239q.82 0 1.217-.546.403-.552.403-1.572t-.403-1.572q-.398-.558-1.217-.558-.83 0-1.234.558-.403.551-.403 1.572t.403 1.572q.404.546 1.234.546m5.367-4.023q.285-.575.688-.901a1.47 1.47 0 0 1 .967-.333q.196 0 .368.048a1 1 0 0 1 .308.13l-.089.962q-.023.1-.077.142a.2.2 0 0 1-.13.036q-.09 0-.255-.03a1.7 1.7 0 0 0-.35-.036q-.267 0-.475.077a1.2 1.2 0 0 0-.368.226 1.5 1.5 0 0 0-.284.362 3.3 3.3 0 0 0-.232.486v3.761h-1.275v-6.051h.741q.203 0 .279.077.077.072.107.255zm9.844 1.223q0-.321-.095-.594a1.3 1.3 0 0 0-.267-.48 1.2 1.2 0 0 0-.445-.321 1.45 1.45 0 0 0-.605-.118q-.693 0-1.091.397-.397.397-.505 1.116zm-3.043.783q.024.516.16.896.137.373.362.622.231.25.546.374.32.119.712.119.373 0 .646-.083.273-.09.475-.19.201-.107.344-.19a.5.5 0 0 1 .261-.089q.154 0 .237.119l.362.468a2.3 2.3 0 0 1-.51.451q-.284.185-.605.303a3.4 3.4 0 0 1-.659.16 4 4 0 0 1-.658.053 3.2 3.2 0 0 1-1.169-.207 2.7 2.7 0 0 1-.931-.623 2.9 2.9 0 0 1-.617-1.015q-.22-.605-.22-1.394 0-.629.196-1.174a2.9 2.9 0 0 1 .57-.95q.373-.403.901-.634a2.9 2.9 0 0 1 1.205-.238q.557 0 1.032.184.474.179.819.528.344.35.534.86.195.505.195 1.151 0 .297-.065.398-.065.1-.237.101zm6.57-2.326q.196-.201.404-.362.213-.166.451-.285a2.36 2.36 0 0 1 1.085-.249q.498 0 .872.166.38.166.635.469.261.303.392.73.13.421.13.931v3.85h-1.269v-3.85q0-.611-.285-.949-.28-.338-.854-.338-.428 0-.795.196-.362.195-.683.534v4.407h-1.275v-6.051h.771q.261 0 .332.243zm9.321.688a1.5 1.5 0 0 0-.587-.48 1.8 1.8 0 0 0-.694-.137q-.748 0-1.169.552-.421.546-.421 1.62 0 .557.095.955.095.391.272.641.178.249.434.361.255.114.575.113.486 0 .836-.208.356-.213.659-.599zm1.276-4.218v8.78h-.772q-.255 0-.326-.243l-.113-.658a3.2 3.2 0 0 1-.866.718 2.24 2.24 0 0 1-1.121.272 2.1 2.1 0 0 1-.926-.201 2 2 0 0 1-.712-.599 2.9 2.9 0 0 1-.462-.967 5 5 0 0 1-.16-1.329q0-.677.177-1.252.184-.576.523-.997a2.36 2.36 0 0 1 1.904-.908q.534 0 .908.173.373.165.67.468v-3.257zm5.528 5.073q0-.321-.095-.594a1.3 1.3 0 0 0-.267-.48 1.2 1.2 0 0 0-.445-.321 1.45 1.45 0 0 0-.605-.118q-.694 0-1.091.397t-.505 1.116zm-3.043.783q.024.516.16.896.137.373.362.622.231.25.546.374.32.119.712.119.373 0 .646-.083.273-.09.475-.19.201-.107.344-.19a.5.5 0 0 1 .261-.089q.154 0 .237.119l.362.468a2.3 2.3 0 0 1-.51.451q-.285.185-.605.303a3.4 3.4 0 0 1-.659.16 4 4 0 0 1-.658.053 3.2 3.2 0 0 1-1.169-.207 2.7 2.7 0 0 1-.931-.623 2.9 2.9 0 0 1-.617-1.015q-.22-.605-.22-1.394 0-.629.196-1.174.201-.546.569-.95.375-.403.902-.634a2.9 2.9 0 0 1 1.204-.238q.558 0 1.033.184.474.179.818.528.345.35.534.86.196.505.196 1.151 0 .297-.065.398-.066.1-.237.101zm11.566.279a8 8 0 0 0-1.151.112 3 3 0 0 0-.76.22q-.29.13-.421.314a.7.7 0 0 0-.124.404q0 .214.065.367a.75.75 0 0 0 .19.25q.125.094.284.142.167.041.362.041.499 0 .855-.183a2.8 2.8 0 0 0 .7-.546zm-3.382-2.563a3.46 3.46 0 0 1 2.444-.956q.522 0 .926.173.41.165.682.474.279.309.421.736.149.421.149.937v3.844h-.57a.6.6 0 0 1-.279-.053q-.094-.06-.16-.231l-.125-.493a6 6 0 0 1-.456.374 3 3 0 0 1-.469.273 2.2 2.2 0 0 1-.516.166q-.273.06-.605.059-.368 0-.688-.1a1.55 1.55 0 0 1-.546-.303 1.5 1.5 0 0 1-.368-.51 1.8 1.8 0 0 1-.131-.712q0-.35.184-.682.19-.333.617-.594.434-.267 1.133-.439.707-.172 1.739-.195v-.404q0-.652-.279-.973t-.819-.32q-.368 0-.617.095-.249.088-.433.196a6 6 0 0 0-.326.201.56.56 0 0 1-.303.089.4.4 0 0 1-.225-.065.6.6 0 0 1-.149-.172zm7.391-.125q.374-.368.819-.587a2.26 2.26 0 0 1 1.038-.226q.498 0 .872.166.38.166.635.469.261.303.392.73.13.421.13.931v3.85h-1.269v-3.85q0-.611-.285-.949-.28-.338-.854-.338-.428 0-.795.196-.362.195-.683.534v4.407h-1.275v-8.78h1.275zm7.992-.813q.67 0 1.21.22.546.22.926.623.386.403.593.979.208.574.208 1.293 0 .718-.208 1.293a2.8 2.8 0 0 1-.593.985 2.6 2.6 0 0 1-.926.623q-.54.219-1.21.219-.676 0-1.222-.219a2.6 2.6 0 0 1-.925-.623 2.8 2.8 0 0 1-.594-.985 3.8 3.8 0 0 1-.207-1.293q0-.719.207-1.293.208-.576.594-.979.385-.404.925-.623.546-.22 1.222-.22m0 5.239q.819 0 1.216-.546.404-.552.404-1.572t-.404-1.572q-.397-.558-1.216-.558-.83 0-1.234.558-.403.551-.403 1.572t.403 1.572q.403.546 1.234.546m5.367-4.023q.285-.575.688-.901a1.47 1.47 0 0 1 .967-.333q.195 0 .368.048a1 1 0 0 1 .308.13l-.089.962q-.023.1-.077.142a.2.2 0 0 1-.13.036q-.09 0-.256-.03a1.6 1.6 0 0 0-.35-.036q-.267 0-.474.077a1.2 1.2 0 0 0-.368.226 1.5 1.5 0 0 0-.285.362q-.125.213-.231.486v3.761h-1.276v-6.051h.742q.201 0 .279.077.077.072.107.255zm4.38 0q.284-.575.688-.901a1.47 1.47 0 0 1 .967-.333q.195 0 .368.048a1 1 0 0 1 .308.13l-.089.962q-.023.1-.077.142a.2.2 0 0 1-.13.036q-.09 0-.256-.03a1.6 1.6 0 0 0-.35-.036q-.267 0-.474.077a1.2 1.2 0 0 0-.368.226 1.5 1.5 0 0 0-.285.362q-.125.213-.231.486v3.761h-1.276v-6.051h.742q.201 0 .279.077.077.072.107.255zm5.583-1.216q.67 0 1.21.22.546.22.926.623.386.403.593.979.208.574.208 1.293 0 .718-.208 1.293a2.8 2.8 0 0 1-.593.985 2.6 2.6 0 0 1-.926.623q-.54.219-1.21.219-.676 0-1.222-.219a2.6 2.6 0 0 1-.926-.623 2.8 2.8 0 0 1-.593-.985 3.8 3.8 0 0 1-.208-1.293q0-.719.208-1.293a2.75 2.75 0 0 1 .593-.979q.386-.404.926-.623.546-.22 1.222-.22m0 5.239q.819 0 1.216-.546.404-.552.404-1.572t-.404-1.572q-.397-.558-1.216-.558-.83 0-1.234.558-.403.551-.403 1.572t.403 1.572q.403.546 1.234.546m10.979-3.655a1.5 1.5 0 0 0-.587-.48 1.8 1.8 0 0 0-.694-.137q-.748 0-1.169.552-.421.546-.421 1.62 0 .557.095.955.094.391.273.641.178.249.433.361.255.114.575.113.486 0 .837-.208.355-.213.658-.599zm1.276-4.218v8.78h-.772q-.254 0-.326-.243l-.113-.658a3.2 3.2 0 0 1-.866.718 2.24 2.24 0 0 1-1.121.272 2.1 2.1 0 0 1-.926-.201 2 2 0 0 1-.712-.599 2.9 2.9 0 0 1-.462-.967 5 5 0 0 1-.16-1.329q0-.677.178-1.252.183-.576.522-.997a2.36 2.36 0 0 1 1.904-.908q.534 0 .908.173.373.165.67.468v-3.257zm5.528 5.073q0-.321-.095-.594a1.3 1.3 0 0 0-.267-.48 1.2 1.2 0 0 0-.445-.321 1.45 1.45 0 0 0-.605-.118q-.693 0-1.091.397-.397.397-.505 1.116zm-3.043.783q.024.516.16.896.137.373.362.622.231.25.546.374.32.119.712.119.373 0 .646-.083.273-.09.475-.19.201-.107.344-.19a.5.5 0 0 1 .261-.089q.154 0 .237.119l.362.468a2.3 2.3 0 0 1-.51.451q-.285.185-.605.303a3.4 3.4 0 0 1-.659.16 4 4 0 0 1-.658.053 3.2 3.2 0 0 1-1.169-.207 2.7 2.7 0 0 1-.931-.623 2.9 2.9 0 0 1-.617-1.015q-.22-.605-.22-1.394 0-.629.196-1.174.201-.546.569-.95.375-.403.902-.634a2.9 2.9 0 0 1 1.205-.238q.556 0 1.032.184.474.179.819.528.344.35.533.86.196.505.196 1.151 0 .297-.065.398-.065.1-.237.101zm14.206 2.924h-1.276v-5.048h-2.948v3.435q0 .325.16.498a.56.56 0 0 0 .427.172.8.8 0 0 0 .255-.035 2 2 0 0 0 .184-.083q.077-.048.131-.084a.2.2 0 0 1 .112-.041q.108 0 .172.119l.38.623a2.1 2.1 0 0 1-.7.403 2.6 2.6 0 0 1-.831.136q-.753 0-1.162-.421-.404-.427-.404-1.198v-3.524h-.664a.28.28 0 0 1-.184-.065q-.078-.072-.077-.208v-.516l.979-.143.278-1.75a.33.33 0 0 1 .101-.16.27.27 0 0 1 .19-.065h.653v1.987h4.224zm.261-7.908a.8.8 0 0 1-.071.327.9.9 0 0 1-.184.267 1 1 0 0 1-.279.183.8.8 0 0 1-.326.066.8.8 0 0 1-.327-.066 1 1 0 0 1-.267-.183 1.1 1.1 0 0 1-.184-.267.855.855 0 0 1 .778-1.187q.171 0 .326.071a.84.84 0 0 1 .463.457.8.8 0 0 1 .071.332m5.32 4.201q0-.321-.095-.594a1.3 1.3 0 0 0-.267-.48 1.2 1.2 0 0 0-.445-.321 1.45 1.45 0 0 0-.605-.118q-.694 0-1.092.397-.397.397-.504 1.116zm-3.044.783q.024.516.16.896.137.373.362.622.232.25.546.374.32.119.712.119.374 0 .647-.083a3.6 3.6 0 0 0 .818-.38.5.5 0 0 1 .261-.089q.154 0 .238.119l.362.468a2.3 2.3 0 0 1-.511.451 3 3 0 0 1-.605.303 3.4 3.4 0 0 1-.658.16 4 4 0 0 1-.659.053 3.2 3.2 0 0 1-1.168-.207 2.7 2.7 0 0 1-.932-.623 2.9 2.9 0 0 1-.617-1.015q-.219-.605-.219-1.394 0-.629.195-1.174.202-.546.57-.95.374-.403.902-.634a2.9 2.9 0 0 1 1.204-.238q.558 0 1.032.184.476.179.819.528.344.35.534.86.196.505.196 1.151 0 .297-.066.398-.065.1-.237.101zm5.378 2.924v-6.051h.771q.262 0 .333.243l.083.528q.166-.19.344-.344.178-.159.38-.273.207-.118.439-.183a1.9 1.9 0 0 1 1.044.017q.243.084.427.238.19.154.326.373.136.22.226.493a1.9 1.9 0 0 1 .806-.908q.256-.142.54-.208a2.5 2.5 0 0 1 .588-.071q.486 0 .866.155.385.154.646.45.267.29.404.718.136.427.136.973v3.85h-1.275v-3.85q0-.64-.279-.961-.273-.326-.813-.326a1.2 1.2 0 0 0-.457.083 1.1 1.1 0 0 0-.373.243 1.15 1.15 0 0 0-.255.404q-.09.237-.089.557v3.85h-1.276v-3.85q0-.664-.267-.973-.267-.314-.783-.314-.356 0-.659.184a2.1 2.1 0 0 0-.557.492v4.461zm11.125-1.518q.267.343.581.486.32.137.706.137.748 0 1.163-.546.421-.546.421-1.626a4 4 0 0 0-.095-.949 1.8 1.8 0 0 0-.273-.647 1.05 1.05 0 0 0-.433-.361 1.4 1.4 0 0 0-.575-.113q-.486 0-.843.213-.35.209-.652.6zm-.065-3.655q.379-.445.86-.718.486-.273 1.127-.273.51 0 .926.208.415.202.711.593.297.392.457.973.166.576.166 1.323 0 .67-.184 1.252-.177.576-.516 1.003a2.5 2.5 0 0 1-.818.664 2.4 2.4 0 0 1-1.086.237q-.534 0-.908-.172a2.3 2.3 0 0 1-.67-.474v2.569h-1.276v-8.063h.772q.26 0 .332.243zm8.103-.973q.67 0 1.21.22.546.22.926.623.386.403.593.979.207.574.208 1.293 0 .718-.208 1.293a2.8 2.8 0 0 1-.593.985 2.6 2.6 0 0 1-.926.623q-.54.219-1.21.219-.676 0-1.222-.219a2.6 2.6 0 0 1-.926-.623 2.8 2.8 0 0 1-.593-.985 3.8 3.8 0 0 1-.207-1.293q0-.719.207-1.293a2.75 2.75 0 0 1 .593-.979q.386-.404.926-.623.546-.22 1.222-.22m0 5.239q.819 0 1.216-.546.404-.552.404-1.572t-.404-1.572q-.397-.558-1.216-.558-.83 0-1.234.558-.403.551-.403 1.572t.403 1.572q.403.546 1.234.546m11.086-2.8q0-.321-.095-.594a1.3 1.3 0 0 0-.267-.48 1.2 1.2 0 0 0-.445-.321 1.45 1.45 0 0 0-.605-.118q-.695 0-1.092.397t-.504 1.116zm-3.044.783q.024.516.161.896.136.373.362.622.231.25.545.374.32.119.712.119.374 0 .647-.083.273-.09.475-.19.201-.107.344-.19a.5.5 0 0 1 .261-.089q.154 0 .237.119l.362.468q-.226.268-.51.451-.285.185-.605.303a3.5 3.5 0 0 1-.659.16 4 4 0 0 1-.659.053q-.628 0-1.168-.207a2.7 2.7 0 0 1-.932-.623 2.9 2.9 0 0 1-.617-1.015q-.219-.605-.219-1.394 0-.629.196-1.174.201-.546.569-.95.374-.403.902-.634a2.9 2.9 0 0 1 1.204-.238q.558 0 1.032.184.475.179.819.528.345.35.534.86.196.505.196 1.151 0 .297-.065.398-.066.1-.238.101zm6.571-2.326a4 4 0 0 1 .403-.362q.214-.166.451-.285a2.36 2.36 0 0 1 1.086-.249q.498 0 .872.166.38.166.635.469.26.303.391.73.13.421.131.931v3.85h-1.27v-3.85q0-.611-.285-.949-.278-.338-.854-.338-.428 0-.795.196-.362.195-.682.534v4.407h-1.276v-6.051h.772q.26 0 .332.243zM53.493 133.023q0-.321-.095-.594a1.3 1.3 0 0 0-.267-.48 1.2 1.2 0 0 0-.445-.321 1.45 1.45 0 0 0-.605-.118q-.694 0-1.091.397t-.505 1.116zm-3.043.783q.024.516.16.896.136.373.362.622.231.25.546.374.32.119.712.119.373 0 .646-.083a4 4 0 0 0 .475-.19q.201-.107.344-.19a.5.5 0 0 1 .261-.089q.154 0 .237.119l.362.468q-.225.268-.51.451-.285.184-.605.303a3.4 3.4 0 0 1-.659.16 4 4 0 0 1-.658.053q-.63 0-1.169-.207a2.7 2.7 0 0 1-.931-.623 2.9 2.9 0 0 1-.617-1.015q-.22-.605-.22-1.394 0-.629.196-1.174.201-.546.57-.95.374-.403.901-.634a2.9 2.9 0 0 1 1.204-.238q.558 0 1.033.184.475.179.818.528.345.35.535.86.195.505.195 1.151 0 .297-.065.398-.066.1-.237.101zm6.677-5.856v8.78h-1.276v-8.78zm5.805 7.262q.266.344.581.486.32.137.706.137.747 0 1.163-.546.42-.546.421-1.626 0-.557-.095-.949a1.9 1.9 0 0 0-.273-.647 1.05 1.05 0 0 0-.433-.361 1.4 1.4 0 0 0-.575-.113 1.6 1.6 0 0 0-.843.213 2.4 2.4 0 0 0-.652.6zm-.066-3.655a3.2 3.2 0 0 1 .86-.718q.487-.273 1.128-.273.51 0 .925.208.415.202.712.593.297.392.457.973.166.576.166 1.323 0 .67-.184 1.252-.177.576-.516 1.003a2.5 2.5 0 0 1-.819.664q-.48.237-1.085.237-.534 0-.908-.172a2.3 2.3 0 0 1-.67-.474v2.569h-1.276v-8.063h.771q.261 0 .333.243zm6.692.243q.285-.575.688-.901a1.47 1.47 0 0 1 .967-.333q.195 0 .368.048a1 1 0 0 1 .308.13l-.089.962q-.023.1-.077.142a.2.2 0 0 1-.13.036q-.09 0-.255-.03a1.7 1.7 0 0 0-.35-.036q-.267 0-.475.077a1.2 1.2 0 0 0-.368.226 1.6 1.6 0 0 0-.285.362q-.124.213-.231.486v3.761h-1.276v-6.051h.742q.203 0 .279.077.077.072.107.255zm5.583-1.216q.67 0 1.21.22.546.22.926.623.386.403.593.979.208.575.208 1.293t-.208 1.293a2.8 2.8 0 0 1-.593.985 2.6 2.6 0 0 1-.926.623q-.54.219-1.21.219-.675 0-1.222-.219a2.6 2.6 0 0 1-.925-.623 2.8 2.8 0 0 1-.594-.985 3.8 3.8 0 0 1-.207-1.293q0-.719.207-1.293.209-.576.593-.979.386-.404.926-.623.546-.22 1.222-.22m0 5.239q.819 0 1.216-.546.404-.552.404-1.572t-.404-1.572q-.397-.558-1.216-.558-.83 0-1.234.558-.403.551-.403 1.572t.403 1.572q.404.546 1.234.546m8.44-3.957a.6.6 0 0 1-.113.118.25.25 0 0 1-.154.042.4.4 0 0 1-.214-.071 3 3 0 0 0-.26-.155 2 2 0 0 0-.363-.16 1.7 1.7 0 0 0-.534-.071q-.414 0-.73.148-.308.149-.521.428a1.9 1.9 0 0 0-.315.67q-.1.392-.1.884 0 .51.112.908.113.397.32.67.215.273.51.415.303.143.677.143.368 0 .6-.089.23-.09.385-.196t.26-.196a.38.38 0 0 1 .238-.089q.154 0 .237.119l.362.468a2.4 2.4 0 0 1-.486.451 3 3 0 0 1-.564.303 3 3 0 0 1-.617.16q-.32.054-.646.053-.564 0-1.056-.207a2.6 2.6 0 0 1-.855-.611 3 3 0 0 1-.575-.979 3.9 3.9 0 0 1-.208-1.323q0-.67.19-1.24.19-.576.552-.991.367-.415.907-.646.54-.238 1.246-.238.66 0 1.157.214.504.213.896.605zm5.288 1.157q0-.321-.095-.594a1.3 1.3 0 0 0-.267-.48 1.2 1.2 0 0 0-.445-.321 1.45 1.45 0 0 0-.605-.118q-.694 0-1.092.397-.397.397-.504 1.116zm-3.043.783q.023.516.16.896.136.373.361.622.232.25.546.374.32.119.712.119.375 0 .647-.083.273-.09.475-.19.201-.107.344-.19a.5.5 0 0 1 .26-.089q.155 0 .238.119l.362.468q-.225.268-.51.451-.285.184-.606.303a3.4 3.4 0 0 1-.658.16 4 4 0 0 1-.658.053q-.63 0-1.17-.207a2.7 2.7 0 0 1-.93-.623 2.9 2.9 0 0 1-.618-1.015q-.22-.605-.22-1.394 0-.629.197-1.174a2.9 2.9 0 0 1 .57-.95q.373-.403.9-.634a2.9 2.9 0 0 1 1.205-.238q.558 0 1.032.184.475.179.82.528.344.35.533.86.195.505.196 1.151 0 .297-.065.398-.066.1-.238.101zm8.99-2.029a.3.3 0 0 1-.106.118.3.3 0 0 1-.149.036.5.5 0 0 1-.22-.059 6 6 0 0 0-.278-.143 2 2 0 0 0-.38-.136 1.7 1.7 0 0 0-.504-.065q-.237 0-.433.059a.9.9 0 0 0-.326.16.7.7 0 0 0-.202.243.63.63 0 0 0-.071.297q0 .213.13.356t.344.249q.214.101.487.184t.557.178q.285.094.558.219t.487.309q.213.178.344.439.13.255.13.623 0 .428-.154.789a1.8 1.8 0 0 1-.45.629 2.1 2.1 0 0 1-.742.415 3.1 3.1 0 0 1-1.009.148q-.314 0-.611-.059a4 4 0 0 1-.558-.148 3.3 3.3 0 0 1-.492-.238 2.6 2.6 0 0 1-.404-.296l.297-.487a.4.4 0 0 1 .13-.136.36.36 0 0 1 .202-.054q.124 0 .243.084l.285.172q.166.094.398.178.231.077.575.077.285 0 .493-.066.207-.07.344-.189a.8.8 0 0 0 .201-.267.8.8 0 0 0 .066-.327.55.55 0 0 0-.13-.379 1.1 1.1 0 0 0-.35-.255 3 3 0 0 0-.493-.19 27 27 0 0 1-.558-.178 6 6 0 0 1-.564-.22 2 2 0 0 1-.492-.314 1.5 1.5 0 0 1-.344-.469 1.6 1.6 0 0 1-.13-.676 1.7 1.7 0 0 1 .142-.688q.148-.327.427-.576a2.1 2.1 0 0 1 .694-.391 2.8 2.8 0 0 1 .955-.149q.611 0 1.11.196.497.196.836.534zM99 130.584q.67 0 1.21.22.546.22.926.623.386.403.593.979.208.575.208 1.293t-.208 1.293a2.8 2.8 0 0 1-.593.985 2.6 2.6 0 0 1-.926.623 3.2 3.2 0 0 1-1.21.219q-.675 0-1.222-.219a2.6 2.6 0 0 1-.925-.623 2.8 2.8 0 0 1-.594-.985 3.8 3.8 0 0 1-.207-1.293q0-.719.207-1.293a2.7 2.7 0 0 1 .594-.979 2.6 2.6 0 0 1 .925-.623q.546-.22 1.222-.22m0 5.239q.819 0 1.216-.546.404-.552.404-1.572t-.404-1.572q-.397-.558-1.216-.558-.83 0-1.234.558-.403.551-.403 1.572t.403 1.572q.404.546 1.234.546m10.979-3.655a1.5 1.5 0 0 0-.587-.48 1.8 1.8 0 0 0-.694-.137q-.748 0-1.169.552-.421.546-.421 1.62 0 .557.095.955.095.391.273.641.178.249.433.361.255.113.575.113.487 0 .837-.208.356-.213.658-.599zm1.276-4.218v8.78h-.771q-.256 0-.327-.243l-.112-.658a3.2 3.2 0 0 1-.867.718 2.24 2.24 0 0 1-1.121.272q-.51 0-.925-.201a2 2 0 0 1-.712-.599 2.9 2.9 0 0 1-.463-.967 5 5 0 0 1-.16-1.329q0-.677.178-1.252.183-.576.522-.997.337-.427.819-.664a2.4 2.4 0 0 1 1.085-.244q.534 0 .908.173.374.165.67.468v-3.257zm5.528 5.073q0-.321-.094-.594a1.3 1.3 0 0 0-.267-.48 1.2 1.2 0 0 0-.445-.321 1.45 1.45 0 0 0-.606-.118q-.693 0-1.091.397t-.504 1.116zm-3.043.783q.024.516.16.896.137.373.362.622.231.25.546.374.32.119.712.119.374 0 .646-.083.274-.09.475-.19.202-.107.344-.19a.5.5 0 0 1 .261-.089q.154 0 .237.119l.362.468a2.3 2.3 0 0 1-.51.451q-.284.184-.605.303a3.5 3.5 0 0 1-.658.16 4 4 0 0 1-.659.053 3.2 3.2 0 0 1-1.169-.207 2.7 2.7 0 0 1-.931-.623 2.9 2.9 0 0 1-.617-1.015 4.1 4.1 0 0 1-.22-1.394q0-.629.196-1.174.202-.546.57-.95.373-.403.901-.634a2.9 2.9 0 0 1 1.205-.238q.558 0 1.032.184.474.179.819.528.343.35.534.86.195.505.195 1.151 0 .297-.065.398-.065.1-.237.101zm11.946-2.029a.3.3 0 0 1-.107.118.3.3 0 0 1-.148.036.5.5 0 0 1-.22-.059 6 6 0 0 0-.279-.143 2 2 0 0 0-.379-.136 1.7 1.7 0 0 0-.505-.065q-.237 0-.433.059a.9.9 0 0 0-.326.16.7.7 0 0 0-.202.243.64.64 0 0 0-.071.297q0 .213.13.356t.345.249q.213.101.486.184t.558.178q.285.094.557.219t.487.309q.213.178.344.439.13.255.13.623 0 .428-.154.789a1.8 1.8 0 0 1-.451.629 2.1 2.1 0 0 1-.741.415 3.2 3.2 0 0 1-1.009.148 3.684 3.684 0 0 1-1.169-.207 3.3 3.3 0 0 1-.492-.238 2.6 2.6 0 0 1-.403-.296l.296-.487a.4.4 0 0 1 .131-.136.36.36 0 0 1 .202-.054q.124 0 .243.084l.285.172q.165.094.397.178.231.077.575.077.285 0 .493-.066a1 1 0 0 0 .344-.189.8.8 0 0 0 .202-.267.8.8 0 0 0 .065-.327.55.55 0 0 0-.131-.379 1.1 1.1 0 0 0-.35-.255 3 3 0 0 0-.492-.19 27 27 0 0 1-.558-.178 6 6 0 0 1-.563-.22 2 2 0 0 1-.493-.314 1.5 1.5 0 0 1-.344-.469 1.6 1.6 0 0 1-.13-.676q0-.362.142-.688.148-.327.427-.576.285-.25.694-.391.416-.149.956-.149.61 0 1.109.196.498.196.836.534zm5.535 1.246q0-.321-.095-.594a1.3 1.3 0 0 0-.267-.48 1.2 1.2 0 0 0-.445-.321 1.45 1.45 0 0 0-.605-.118q-.695 0-1.092.397t-.504 1.116zm-3.043.783q.023.516.16.896.136.373.362.622.231.25.546.374.32.119.711.119.374 0 .647-.083.273-.09.475-.19.201-.107.344-.19a.5.5 0 0 1 .261-.089q.154 0 .237.119l.362.468a2.3 2.3 0 0 1-.51.451q-.285.184-.605.303a3.4 3.4 0 0 1-.659.16 4 4 0 0 1-.658.053q-.63 0-1.169-.207a2.7 2.7 0 0 1-.932-.623 2.9 2.9 0 0 1-.617-1.015q-.219-.605-.219-1.394 0-.629.196-1.174.201-.546.569-.95.374-.403.902-.634a2.9 2.9 0 0 1 1.204-.238q.558 0 1.033.184.474.179.818.528.345.35.534.86.196.505.196 1.151 0 .297-.065.398-.066.1-.237.101zm6.677-5.856v8.78h-1.276v-8.78zm5.543 5.073q0-.321-.095-.594a1.3 1.3 0 0 0-.267-.48 1.2 1.2 0 0 0-.445-.321 1.45 1.45 0 0 0-.605-.118q-.694 0-1.091.397-.398.397-.505 1.116zm-3.043.783q.024.516.16.896.136.373.362.622.231.25.546.374.32.119.711.119.374 0 .647-.083.273-.09.475-.19.201-.107.344-.19a.5.5 0 0 1 .261-.089q.154 0 .237.119l.362.468a2.3 2.3 0 0 1-.51.451q-.285.184-.605.303a3.4 3.4 0 0 1-.659.16 4 4 0 0 1-.658.053q-.63 0-1.169-.207a2.7 2.7 0 0 1-.931-.623 2.9 2.9 0 0 1-.617-1.015q-.22-.605-.22-1.394 0-.629.196-1.174.201-.546.569-.95.375-.403.902-.634a2.9 2.9 0 0 1 1.204-.238q.558 0 1.033.184.474.179.818.528.345.35.534.86.196.505.196 1.151 0 .297-.065.398-.066.1-.237.101zm9.655-1.94a.6.6 0 0 1-.113.118.24.24 0 0 1-.154.042.4.4 0 0 1-.213-.071 4 4 0 0 0-.262-.155 2 2 0 0 0-.361-.16 1.7 1.7 0 0 0-.534-.071q-.415 0-.73.148-.309.149-.522.428a1.9 1.9 0 0 0-.315.67q-.1.392-.1.884 0 .51.112.908.112.397.321.67.213.273.51.415.303.143.676.143a1.7 1.7 0 0 0 .599-.089 2 2 0 0 0 .386-.196q.155-.107.261-.196a.38.38 0 0 1 .237-.089q.154 0 .238.119l.362.468a2.4 2.4 0 0 1-.487.451 3 3 0 0 1-.564.303 3 3 0 0 1-.617.16 4 4 0 0 1-.646.053q-.564 0-1.056-.207a2.55 2.55 0 0 1-.854-.611 3 3 0 0 1-.576-.979 4 4 0 0 1-.208-1.323q0-.67.19-1.24.19-.576.552-.991.368-.415.908-.646.54-.238 1.246-.238a2.9 2.9 0 0 1 1.156.214q.505.213.896.605zm5.597 0a.7.7 0 0 1-.113.118.25.25 0 0 1-.154.042.4.4 0 0 1-.214-.071 3 3 0 0 0-.261-.155 2 2 0 0 0-.362-.16 1.7 1.7 0 0 0-.534-.071 1.7 1.7 0 0 0-.729.148 1.44 1.44 0 0 0-.523.428 1.9 1.9 0 0 0-.314.67 3.6 3.6 0 0 0-.101.884q0 .51.113.908.113.397.32.67.214.273.51.415.303.143.677.143a1.7 1.7 0 0 0 .599-.089q.231-.09.386-.196.153-.107.261-.196a.38.38 0 0 1 .237-.089q.154 0 .237.119l.362.468a2.3 2.3 0 0 1-.486.451 3 3 0 0 1-.564.303 3 3 0 0 1-.617.16 4 4 0 0 1-.647.053q-.562 0-1.056-.207a2.6 2.6 0 0 1-.854-.611 3 3 0 0 1-.575-.979 3.9 3.9 0 0 1-.208-1.323q0-.67.19-1.24.189-.576.552-.991.367-.415.907-.646.54-.238 1.246-.238.659 0 1.157.214.504.213.896.605zm2.752-1.187v6.051h-1.275v-6.051zm.214-1.827a.8.8 0 0 1-.072.326.8.8 0 0 1-.183.273 1 1 0 0 1-.279.184.8.8 0 0 1-.333.065.8.8 0 0 1-.326-.065 1 1 0 0 1-.261-.184 1 1 0 0 1-.184-.273.85.85 0 0 1 0-.658.93.93 0 0 1 .445-.451.8.8 0 0 1 .326-.071q.179 0 .333.071a.85.85 0 0 1 .462.451.8.8 0 0 1 .072.332m4.005 1.732q.67 0 1.21.22.546.22.926.623.386.403.593.979.208.575.208 1.293t-.208 1.293a2.8 2.8 0 0 1-.593.985 2.6 2.6 0 0 1-.926.623q-.54.219-1.21.219-.676 0-1.222-.219a2.6 2.6 0 0 1-.926-.623 2.8 2.8 0 0 1-.593-.985 3.8 3.8 0 0 1-.208-1.293q0-.719.208-1.293a2.75 2.75 0 0 1 .593-.979q.386-.404.926-.623.546-.22 1.222-.22m0 5.239q.819 0 1.216-.546.404-.552.404-1.572t-.404-1.572q-.397-.558-1.216-.558-.83 0-1.234.558-.403.551-.403 1.572t.403 1.572q.403.546 1.234.546m1.904-7.73-1.429 1.536a.6.6 0 0 1-.19.148.6.6 0 0 1-.238.042h-.759l.86-1.436a.6.6 0 0 1 .19-.219.6.6 0 0 1 .326-.071zm3.451 3.387a4 4 0 0 1 .403-.362q.213-.166.451-.285a2.36 2.36 0 0 1 1.086-.249q.498 0 .872.166.379.166.635.469.26.303.391.73.13.421.131.931v3.85h-1.27v-3.85q0-.611-.285-.949-.278-.338-.854-.338-.428 0-.795.196-.362.195-.682.534v4.407h-1.276v-6.051h.771q.261 0 .333.243zm13.481-.801-3.334 7.772a.6.6 0 0 1-.161.214q-.089.077-.278.077h-.944l1.116-2.421-2.468-5.642h1.109q.16 0 .243.077.09.072.131.172l1.441 3.435q.054.149.095.297.048.143.089.297l.095-.303q.048-.149.107-.297l1.382-3.429a.4.4 0 0 1 .137-.178.37.37 0 0 1 .219-.071zm7.772 1.187a.7.7 0 0 1-.112.118.25.25 0 0 1-.155.042.4.4 0 0 1-.213-.071 3 3 0 0 0-.261-.155 2 2 0 0 0-.362-.16 1.7 1.7 0 0 0-.534-.071q-.415 0-.73.148a1.45 1.45 0 0 0-.522.428 1.9 1.9 0 0 0-.314.67 3.5 3.5 0 0 0-.101.884q0 .51.113.908.112.397.32.67.213.273.51.415.303.143.676.143.368 0 .6-.089.23-.09.385-.196t.261-.196a.38.38 0 0 1 .238-.089q.154 0 .237.119l.362.468a2.4 2.4 0 0 1-.487.451 3 3 0 0 1-.563.303 3 3 0 0 1-.617.16 4 4 0 0 1-.647.053q-.564 0-1.056-.207a2.6 2.6 0 0 1-.854-.611 3 3 0 0 1-.576-.979 4 4 0 0 1-.207-1.323q0-.67.189-1.24.19-.576.552-.991.368-.415.908-.646.54-.238 1.246-.238.658 0 1.157.214.504.213.895.605zm3.936-1.282q.67 0 1.21.22.546.22.926.623.385.403.593.979.207.575.207 1.293a3.8 3.8 0 0 1-.207 1.293 2.8 2.8 0 0 1-.593.985 2.6 2.6 0 0 1-.926.623q-.54.219-1.21.219-.676 0-1.222-.219a2.6 2.6 0 0 1-.926-.623 2.8 2.8 0 0 1-.593-.985 3.8 3.8 0 0 1-.208-1.293q0-.719.208-1.293.207-.576.593-.979.386-.404.926-.623.546-.22 1.222-.22m0 5.239q.819 0 1.216-.546.403-.552.403-1.572t-.403-1.572q-.397-.558-1.216-.558-.83 0-1.234.558-.404.551-.404 1.572t.404 1.572q.403.546 1.234.546m4.162.907v-6.051h.771q.261 0 .332.243l.084.528a3.5 3.5 0 0 1 .344-.344q.178-.159.379-.273a2 2 0 0 1 .439-.183q.238-.066.511-.066.29 0 .533.083.244.084.428.238.19.154.326.373.137.22.225.493.137-.315.344-.54.208-.225.463-.368.255-.142.54-.208.291-.07.587-.071.487 0 .867.155.385.154.646.45.267.29.404.718.136.427.136.973v3.85h-1.275v-3.85q0-.64-.279-.961-.273-.326-.813-.326a1.2 1.2 0 0 0-.457.083 1.07 1.07 0 0 0-.629.647 1.6 1.6 0 0 0-.089.557v3.85h-1.275v-3.85q0-.664-.267-.973-.267-.314-.783-.314-.356 0-.659.184a2.1 2.1 0 0 0-.557.492v4.461zm11.125-1.518q.266.344.581.486.32.137.706.137.747 0 1.163-.546.421-.546.421-1.626 0-.557-.095-.949a1.8 1.8 0 0 0-.273-.647 1.05 1.05 0 0 0-.433-.361 1.4 1.4 0 0 0-.575-.113q-.487 0-.843.213a2.4 2.4 0 0 0-.652.6zm-.066-3.655a3.2 3.2 0 0 1 .861-.718q.486-.273 1.127-.273.51 0 .925.208.415.202.712.593.297.392.457.973.166.576.166 1.323 0 .67-.184 1.252-.177.576-.516 1.003a2.45 2.45 0 0 1-.819.664 2.4 2.4 0 0 1-1.085.237q-.534 0-.908-.172a2.3 2.3 0 0 1-.67-.474v2.569h-1.276v-8.063h.771q.261 0 .333.243zm6.692.243q.285-.575.688-.901a1.47 1.47 0 0 1 .967-.333q.196 0 .368.048a1 1 0 0 1 .308.13l-.089.962q-.023.1-.077.142a.2.2 0 0 1-.13.036q-.09 0-.255-.03a1.7 1.7 0 0 0-.35-.036q-.267 0-.475.077a1.2 1.2 0 0 0-.368.226 1.5 1.5 0 0 0-.285.362q-.125.213-.231.486v3.761h-1.276v-6.051h.742q.202 0 .279.077.077.072.107.255zm6.316 2.285a8 8 0 0 0-1.151.112 3 3 0 0 0-.759.22 1 1 0 0 0-.421.314.7.7 0 0 0-.125.404q0 .214.065.367a.8.8 0 0 0 .19.25q.125.094.285.142.166.041.362.041.498 0 .854-.183.362-.19.7-.546zm-3.382-2.563a3.47 3.47 0 0 1 2.445-.956q.522 0 .925.173.41.165.682.474.28.309.422.736.148.421.148.937v3.844h-.57a.6.6 0 0 1-.278-.053q-.095-.06-.161-.231l-.124-.493a6 6 0 0 1-.457.374q-.225.16-.469.273a2.2 2.2 0 0 1-.516.166q-.272.06-.605.059-.368 0-.688-.1a1.55 1.55 0 0 1-.546-.303 1.5 1.5 0 0 1-.368-.51 1.8 1.8 0 0 1-.13-.712q0-.35.184-.682.19-.333.617-.594.432-.267 1.133-.439.706-.172 1.738-.195v-.404q0-.652-.279-.973-.28-.32-.818-.32-.368 0-.617.095a2.5 2.5 0 0 0-.434.196 7 7 0 0 0-.326.201.56.56 0 0 1-.302.089.4.4 0 0 1-.226-.065.6.6 0 0 1-.148-.172zM37.445 85.093q0-.498.19-.937.189-.446.516-.771a2.4 2.4 0 0 1 .76-.523q.438-.19.93-.19.499 0 .938.19.44.19.765.523a2.42 2.42 0 0 1 .706 1.708q0 .498-.19.938a2.44 2.44 0 0 1-1.282 1.275q-.437.19-.936.19-.492 0-.932-.19a2.46 2.46 0 0 1-1.275-1.275 2.3 2.3 0 0 1-.19-.938m18.25 1.62q.112 0 .195.089l.552.599q-.522.63-1.282.973-.759.338-1.815.338-.937 0-1.697-.32a3.8 3.8 0 0 1-1.287-.902 4.1 4.1 0 0 1-.825-1.382 5.2 5.2 0 0 1-.285-1.762q0-.961.303-1.762a4.1 4.1 0 0 1 .86-1.383 3.9 3.9 0 0 1 1.33-.901 4.4 4.4 0 0 1 1.708-.32q.925 0 1.631.302a4 4 0 0 1 1.234.795l-.457.647a.5.5 0 0 1-.112.112.3.3 0 0 1-.178.048.5.5 0 0 1-.273-.107 3 3 0 0 0-.386-.243 2.905 2.905 0 0 0-1.465-.356q-.611 0-1.121.213-.51.214-.879.623a2.9 2.9 0 0 0-.575.997 4.1 4.1 0 0 0-.202 1.335q0 .752.214 1.346.213.588.587.997.374.404.878.617t1.086.214q.356 0 .635-.036.285-.043.522-.124.237-.09.445-.22.213-.13.42-.32a.36.36 0 0 1 .238-.107m4.197-4.242q.67 0 1.21.22.547.219.926.622.386.404.593.98.208.574.208 1.293 0 .718-.208 1.293a2.8 2.8 0 0 1-.593.985 2.6 2.6 0 0 1-.925.623q-.54.22-1.21.22a3.3 3.3 0 0 1-1.223-.22 2.6 2.6 0 0 1-.925-.623 2.8 2.8 0 0 1-.593-.985 3.8 3.8 0 0 1-.208-1.293q0-.718.207-1.294.209-.575.594-.979.385-.403.925-.623.546-.219 1.222-.219m0 5.239q.82 0 1.217-.546.403-.552.403-1.573t-.403-1.572q-.397-.557-1.217-.557-.83 0-1.234.557-.403.552-.403 1.572t.403 1.573q.404.546 1.234.546m4.163.907v-6.051h.77q.263 0 .333.243l.083.528q.166-.19.344-.344a2.1 2.1 0 0 1 .819-.457q.237-.065.51-.065.291 0 .534.083t.427.237q.19.155.327.374.136.219.225.492.137-.315.344-.54a1.9 1.9 0 0 1 .463-.367q.255-.142.54-.208.291-.07.587-.071.486 0 .866.154.386.154.647.451.267.29.403.718.137.427.137.973v3.85h-1.276v-3.85q0-.641-.279-.961-.273-.327-.812-.326-.244 0-.457.083a1.07 1.07 0 0 0-.63.646q-.088.237-.088.558v3.85h-1.276v-3.85q0-.664-.267-.973-.266-.314-.783-.314-.356 0-.658.183a2.1 2.1 0 0 0-.558.493v4.461zm12.465-6.146q.67 0 1.21.22.546.219.926.622.386.404.593.98.208.574.208 1.293 0 .718-.208 1.293a2.8 2.8 0 0 1-.593.985 2.6 2.6 0 0 1-.926.623q-.54.22-1.21.22a3.3 3.3 0 0 1-1.222-.22 2.6 2.6 0 0 1-.926-.623 2.8 2.8 0 0 1-.593-.985 3.8 3.8 0 0 1-.207-1.293q0-.718.207-1.294.208-.575.593-.979.386-.403.926-.623.546-.219 1.222-.219m0 5.239q.819 0 1.216-.546.404-.552.404-1.573t-.404-1.572q-.397-.557-1.216-.557-.83 0-1.234.557-.403.552-.403 1.572t.403 1.573q.403.546 1.234.546m8.024-3.655a1.5 1.5 0 0 0-.587-.48 1.8 1.8 0 0 0-.694-.137q-.747 0-1.169.552-.42.546-.421 1.62 0 .557.095.954.095.392.273.641.177.25.433.362.255.113.575.113.487 0 .837-.208.356-.213.658-.599zm1.276-4.218v8.78h-.771q-.256 0-.327-.243l-.112-.659a3.2 3.2 0 0 1-.867.718q-.48.273-1.12.273-.511 0-.926-.202a2 2 0 0 1-.712-.599 2.9 2.9 0 0 1-.463-.967 5 5 0 0 1-.16-1.329q0-.676.178-1.251.183-.576.522-.997.337-.427.819-.665a2.4 2.4 0 0 1 1.085-.243q.534 0 .908.172.375.166.67.469v-3.257zm2.889 2.729v6.051h-1.276v-6.051zm.213-1.827a.8.8 0 0 1-.071.326.9.9 0 0 1-.184.273 1 1 0 0 1-.279.184.8.8 0 0 1-.332.065.8.8 0 0 1-.326-.065 1 1 0 0 1-.261-.184.829.829 0 0 1-.25-.6q0-.177.066-.332a.92.92 0 0 1 .445-.45.784.784 0 0 1 .659 0q.16.064.278.183.119.114.184.267a.8.8 0 0 1 .071.333m5.251 3.316a1.5 1.5 0 0 0-.587-.48 1.8 1.8 0 0 0-.694-.137q-.747 0-1.169.552-.42.546-.421 1.62 0 .557.095.954.094.392.273.641.177.25.433.362.255.113.575.113.487 0 .837-.208.356-.213.658-.599zm1.276-4.218v8.78h-.771q-.256 0-.327-.243l-.112-.659a3.2 3.2 0 0 1-.867.718q-.48.273-1.12.273-.512 0-.926-.202a2 2 0 0 1-.712-.599 2.9 2.9 0 0 1-.463-.967 5 5 0 0 1-.16-1.329q0-.676.178-1.251.183-.576.522-.997a2.37 2.37 0 0 1 1.904-.908q.534 0 .908.172.375.166.67.469v-3.257zm4.793 6.134a8 8 0 0 0-1.151.113 3 3 0 0 0-.76.22q-.29.13-.42.314a.7.7 0 0 0-.125.403.9.9 0 0 0 .065.368q.07.148.19.25.125.094.285.142.165.04.362.041.498 0 .854-.184.361-.189.7-.546zm-3.382-2.563a3.47 3.47 0 0 1 2.445-.955q.522 0 .925.172.41.167.682.475.28.308.421.736.149.42.149.937v3.844h-.57a.6.6 0 0 1-.279-.053q-.094-.06-.16-.232l-.124-.492a6 6 0 0 1-.457.374q-.226.16-.469.273-.237.112-.516.166-.273.06-.605.06-.368 0-.688-.102a1.5 1.5 0 0 1-.546-.302 1.5 1.5 0 0 1-.368-.51 1.8 1.8 0 0 1-.13-.712q-.001-.35.184-.683.19-.332.617-.593.432-.267 1.133-.439.705-.172 1.738-.196v-.403q0-.653-.279-.973t-.819-.32q-.367 0-.617.094-.249.09-.433.196a6 6 0 0 0-.326.202.56.56 0 0 1-.303.089.4.4 0 0 1-.225-.065.6.6 0 0 1-.148-.172zm9.978.647a1.5 1.5 0 0 0-.587-.48 1.8 1.8 0 0 0-.694-.137q-.748 0-1.169.552-.421.546-.421 1.62 0 .557.095.954.094.392.273.641.177.25.433.362.255.113.575.113.486 0 .837-.208.355-.213.658-.599zm1.276-4.218v8.78h-.772q-.255 0-.326-.243l-.113-.659a3.2 3.2 0 0 1-.866.718 2.23 2.23 0 0 1-1.121.273q-.51 0-.926-.202a2 2 0 0 1-.711-.599 2.9 2.9 0 0 1-.463-.967 5 5 0 0 1-.16-1.329q0-.676.178-1.251a3 3 0 0 1 .522-.997 2.4 2.4 0 0 1 .818-.665 2.4 2.4 0 0 1 1.086-.243q.534 0 .908.172.373.166.67.469v-3.257zm9.582 2.729-3.334 7.772a.6.6 0 0 1-.16.213q-.09.078-.279.077h-.944l1.116-2.42-2.468-5.642h1.109q.16 0 .243.077.09.071.131.172l1.442 3.435q.053.148.095.297.047.143.088.296l.095-.302q.048-.15.107-.297l1.383-3.429a.4.4 0 0 1 .136-.178.37.37 0 0 1 .219-.071zm7.772 1.186a.7.7 0 0 1-.112.12.25.25 0 0 1-.154.04.4.4 0 0 1-.214-.07 3 3 0 0 0-.261-.155 2 2 0 0 0-.362-.16 1.7 1.7 0 0 0-.534-.071q-.415 0-.73.148a1.44 1.44 0 0 0-.522.427 1.9 1.9 0 0 0-.314.67 3.6 3.6 0 0 0-.101.885q0 .51.113.907.113.398.32.67.214.274.51.416.303.142.677.142.368 0 .599-.089.231-.088.385-.195.155-.108.261-.196a.38.38 0 0 1 .238-.09q.154 0 .237.12l.362.468a2.4 2.4 0 0 1-.487.451 2.8 2.8 0 0 1-.563.303 3 3 0 0 1-.617.16 4 4 0 0 1-.647.053q-.564 0-1.056-.207a2.55 2.55 0 0 1-.854-.611 3 3 0 0 1-.576-.98 3.9 3.9 0 0 1-.207-1.322q0-.67.19-1.24.19-.576.551-.991.368-.416.908-.647a3.1 3.1 0 0 1 1.246-.237q.659 0 1.157.213.504.215.896.606zm3.936-1.281q.67 0 1.21.22.546.219.926.622.386.404.593.98.208.574.208 1.293 0 .718-.208 1.293a2.8 2.8 0 0 1-.593.985 2.6 2.6 0 0 1-.926.623q-.54.22-1.21.22a3.3 3.3 0 0 1-1.222-.22 2.6 2.6 0 0 1-.926-.623 2.8 2.8 0 0 1-.593-.985 3.8 3.8 0 0 1-.208-1.293q0-.718.208-1.294.207-.575.593-.979.386-.403.926-.623.546-.219 1.222-.219m0 5.239q.819 0 1.216-.546.404-.552.404-1.573t-.404-1.572q-.397-.557-1.216-.557-.83 0-1.234.557-.403.552-.403 1.572t.403 1.573q.403.546 1.234.546m5.355-4.343q.195-.202.403-.362.213-.166.451-.285a2.4 2.4 0 0 1 1.086-.249q.498 0 .872.166.38.166.634.469.262.303.392.73.13.42.131.93v3.851h-1.27v-3.85q0-.61-.285-.95-.278-.337-.854-.337-.428 0-.795.195-.362.196-.682.534v4.408h-1.276v-6.051h.771q.261 0 .333.243zm9.071.296a.3.3 0 0 1-.107.12.3.3 0 0 1-.148.035.5.5 0 0 1-.219-.06 6 6 0 0 0-.279-.142 2.2 2.2 0 0 0-.38-.136 1.7 1.7 0 0 0-.504-.066q-.237 0-.433.06a.9.9 0 0 0-.327.16.7.7 0 0 0-.273.54q0 .213.131.356.13.142.344.249.214.1.487.184.272.082.557.178.285.094.558.22.273.123.486.308.214.178.344.439.13.255.131.623 0 .426-.154.789-.154.36-.451.629a2.1 2.1 0 0 1-.742.415 3.1 3.1 0 0 1-1.008.148q-.315 0-.611-.06a3.6 3.6 0 0 1-.558-.148 3.3 3.3 0 0 1-.492-.237 2.7 2.7 0 0 1-.404-.296l.297-.487a.368.368 0 0 1 .332-.19q.124 0 .243.083.124.078.285.172.166.096.398.178.231.077.575.077.285 0 .492-.065.209-.07.345-.19a.8.8 0 0 0 .201-.267.8.8 0 0 0 .065-.326.55.55 0 0 0-.13-.38 1.1 1.1 0 0 0-.35-.255 3 3 0 0 0-.492-.19 22 22 0 0 1-.558-.178 6 6 0 0 1-.564-.22 2 2 0 0 1-.492-.314 1.5 1.5 0 0 1-.344-.468 1.6 1.6 0 0 1-.131-.676q0-.363.143-.689a1.7 1.7 0 0 1 .427-.575q.285-.25.694-.392.415-.148.955-.148.61 0 1.109.196.5.195.837.534zm2.896-1.097v6.051h-1.276v-6.051zm.213-1.827a.8.8 0 0 1-.071.326.9.9 0 0 1-.184.273 1 1 0 0 1-.279.184.8.8 0 0 1-.332.065.8.8 0 0 1-.326-.065 1 1 0 0 1-.261-.184 1 1 0 0 1-.184-.273.8.8 0 0 1-.066-.326q0-.178.066-.333a.9.9 0 0 1 .445-.45.782.782 0 0 1 .658 0q.16.064.279.183.118.114.184.267a.8.8 0 0 1 .071.333m5.251 3.316a1.5 1.5 0 0 0-.587-.48 1.8 1.8 0 0 0-.694-.137q-.747 0-1.169.552-.421.546-.421 1.62 0 .557.095.954.094.392.273.641.178.25.433.362.255.113.575.113.487 0 .837-.208.356-.213.658-.599zm1.276-4.218v8.78h-.771q-.255 0-.327-.243l-.112-.659a3.2 3.2 0 0 1-.867.718 2.23 2.23 0 0 1-1.121.273 2.1 2.1 0 0 1-.925-.202 2 2 0 0 1-.712-.599 2.9 2.9 0 0 1-.463-.967 5 5 0 0 1-.16-1.329q0-.676.178-1.251a3 3 0 0 1 .522-.997 2.37 2.37 0 0 1 1.904-.908q.534 0 .908.172.374.166.67.469v-3.257zm5.529 5.072q0-.32-.095-.593a1.35 1.35 0 0 0-.267-.48 1.2 1.2 0 0 0-.445-.32 1.45 1.45 0 0 0-.605-.12q-.694 0-1.092.398-.397.398-.504 1.115zm-3.044.783q.024.517.16.896.137.374.362.623.231.248.546.374.32.119.712.119.374 0 .647-.083a3.5 3.5 0 0 0 .818-.38.5.5 0 0 1 .261-.09q.154 0 .238.12l.361.468q-.225.267-.51.451-.284.185-.605.303a3.4 3.4 0 0 1-.658.16 4 4 0 0 1-.659.053 3.2 3.2 0 0 1-1.169-.207 2.7 2.7 0 0 1-.931-.623 2.9 2.9 0 0 1-.617-1.015 4.1 4.1 0 0 1-.22-1.394q0-.629.196-1.175a2.9 2.9 0 0 1 .57-.949q.374-.403.902-.635a2.9 2.9 0 0 1 1.204-.237q.558 0 1.032.184.475.177.819.528.344.35.534.86.196.504.196 1.151 0 .297-.066.397-.065.102-.237.101zm6.582-2.005q.285-.575.689-.902a1.47 1.47 0 0 1 .967-.332q.196 0 .367.048a1 1 0 0 1 .309.13l-.089.961a.25.25 0 0 1-.077.143.2.2 0 0 1-.131.035q-.088 0-.255-.03a1.7 1.7 0 0 0-.35-.035q-.267 0-.474.077a1.2 1.2 0 0 0-.368.225q-.16.15-.285.362-.125.214-.231.487v3.761h-1.276v-6.051h.742q.201 0 .278.077.077.07.107.255zm6.317 2.284a8 8 0 0 0-1.151.113 3 3 0 0 0-.76.22q-.29.13-.421.314a.7.7 0 0 0-.125.403q0 .214.066.368.07.148.19.25a.9.9 0 0 0 .284.142q.167.04.362.041.498 0 .855-.184.361-.189.7-.546zm-3.382-2.563a3.47 3.47 0 0 1 2.444-.955q.522 0 .926.172.41.167.682.475.279.308.421.736.149.42.149.937v3.844h-.57a.6.6 0 0 1-.279-.053q-.095-.06-.16-.232l-.125-.492a6 6 0 0 1-.456.374 3 3 0 0 1-.469.273q-.237.112-.516.166a3 3 0 0 1-.605.06q-.369 0-.689-.102a1.5 1.5 0 0 1-.545-.302 1.5 1.5 0 0 1-.368-.51 1.8 1.8 0 0 1-.131-.712q0-.35.184-.683.19-.332.617-.593.434-.267 1.133-.439.706-.172 1.739-.196v-.403q0-.653-.279-.973t-.819-.32q-.368 0-.617.094-.249.09-.433.196a6 6 0 0 0-.326.202.56.56 0 0 1-.303.089.4.4 0 0 1-.225-.065.6.6 0 0 1-.149-.172zm7.32.28q.285-.577.688-.903.404-.332.967-.332.196 0 .368.048a1 1 0 0 1 .309.13l-.089.961q-.024.1-.078.143a.2.2 0 0 1-.13.035q-.088 0-.255-.03a1.7 1.7 0 0 0-.35-.035q-.267 0-.475.077a1.2 1.2 0 0 0-.368.225q-.16.15-.284.362a3.5 3.5 0 0 0-.232.487v3.761h-1.275v-6.051h.741q.202 0 .279.077.077.07.107.255zm7.175-3.851v8.78h-1.276v-8.78zm4.807 6.134a8 8 0 0 0-1.151.113 3 3 0 0 0-.759.22q-.29.13-.421.314a.7.7 0 0 0-.125.403q0 .214.066.368.07.148.189.25.124.094.285.142.167.04.362.041.498 0 .854-.184a2.7 2.7 0 0 0 .7-.546zm-3.381-2.563a3.47 3.47 0 0 1 2.444-.955q.522 0 .926.172.408.167.682.475.279.308.421.736.148.42.148.937v3.844h-.569a.6.6 0 0 1-.279-.053q-.095-.06-.16-.232l-.125-.492a6 6 0 0 1-.457.374 3 3 0 0 1-.468.273q-.238.112-.516.166-.273.06-.606.06-.367 0-.688-.102a1.5 1.5 0 0 1-.546-.302 1.5 1.5 0 0 1-.367-.51 1.8 1.8 0 0 1-.131-.712q0-.35.184-.683.19-.332.617-.593.433-.267 1.133-.439.706-.172 1.738-.196v-.403q0-.653-.278-.973-.279-.32-.819-.32-.368 0-.617.094-.25.09-.433.196a6 6 0 0 0-.327.202.56.56 0 0 1-.302.089.4.4 0 0 1-.226-.065.6.6 0 0 1-.148-.172zm12.304 2.563a8 8 0 0 0-1.151.113 3 3 0 0 0-.76.22q-.29.13-.421.314a.7.7 0 0 0-.125.403q0 .214.066.368.07.148.19.25a.9.9 0 0 0 .284.142q.167.04.362.041.498 0 .854-.184a2.7 2.7 0 0 0 .701-.546zm-3.382-2.563a3.47 3.47 0 0 1 2.444-.955q.522 0 .926.172.41.167.682.475.279.308.421.736.148.42.148.937v3.844h-.569a.6.6 0 0 1-.279-.053q-.095-.06-.16-.232l-.125-.492a6 6 0 0 1-.457.374 3 3 0 0 1-.468.273q-.237.112-.516.166a3 3 0 0 1-.605.06q-.368 0-.689-.102a1.5 1.5 0 0 1-.545-.302 1.5 1.5 0 0 1-.368-.51 1.8 1.8 0 0 1-.131-.712q0-.35.184-.683.19-.332.617-.593.434-.267 1.133-.439.706-.172 1.739-.196v-.403q0-.653-.279-.973t-.819-.32q-.368 0-.617.094-.249.09-.433.196a6 6 0 0 0-.326.202.56.56 0 0 1-.303.089.4.4 0 0 1-.225-.065.6.6 0 0 1-.149-.172zm10.085 1.501q0-.32-.095-.593a1.35 1.35 0 0 0-.267-.48 1.2 1.2 0 0 0-.445-.32 1.45 1.45 0 0 0-.605-.12q-.694 0-1.092.398-.397.398-.504 1.115zm-3.044.783q.024.517.16.896.137.374.362.623.231.248.546.374.32.119.712.119.374 0 .647-.083a3.5 3.5 0 0 0 .818-.38.5.5 0 0 1 .261-.09q.154 0 .238.12l.361.468q-.225.267-.51.451-.285.185-.605.303a3.4 3.4 0 0 1-.658.16 4 4 0 0 1-.659.053 3.2 3.2 0 0 1-1.169-.207 2.7 2.7 0 0 1-.931-.623 2.9 2.9 0 0 1-.617-1.015 4.1 4.1 0 0 1-.22-1.394q0-.629.196-1.175a2.9 2.9 0 0 1 .57-.949q.374-.403.902-.635a2.9 2.9 0 0 1 1.204-.237q.558 0 1.032.184.475.177.819.528.344.35.534.86.196.504.196 1.151 0 .297-.066.397-.065.102-.237.101zm6.582-2.005q.285-.575.689-.902.403-.332.967-.332.195 0 .367.048a1 1 0 0 1 .309.13l-.089.961a.25.25 0 0 1-.077.143.2.2 0 0 1-.131.035q-.089 0-.255-.03a1.7 1.7 0 0 0-.35-.035q-.267 0-.474.077a1.2 1.2 0 0 0-.368.225q-.16.15-.285.362-.124.214-.231.487v3.761h-1.276v-6.051h.742q.201 0 .278.077.077.07.107.255zm5.584-1.216q.67 0 1.21.22.546.219.925.622.386.404.594.98.207.574.207 1.293 0 .718-.207 1.293a2.8 2.8 0 0 1-.594.985 2.6 2.6 0 0 1-.925.623q-.54.22-1.21.22-.677 0-1.222-.22a2.6 2.6 0 0 1-.926-.623 2.8 2.8 0 0 1-.593-.985 3.8 3.8 0 0 1-.208-1.293q0-.718.208-1.294.207-.575.593-.979.386-.403.926-.623.545-.219 1.222-.219m0 5.239q.819 0 1.216-.546.403-.552.403-1.573t-.403-1.572q-.397-.557-1.216-.557-.83 0-1.234.557-.404.552-.404 1.572t.404 1.573q.403.546 1.234.546m5.461-7.873v8.78h-1.275v-8.78zm2.903 2.729v6.051h-1.269v-6.051zm1.3-2.587-1.43 1.537a.6.6 0 0 1-.19.148.6.6 0 0 1-.237.042h-.76l.861-1.436a.6.6 0 0 1 .19-.22.6.6 0 0 1 .326-.07zm1.496 3.388q.195-.202.403-.362.213-.166.451-.285a2.4 2.4 0 0 1 1.086-.249q.498 0 .872.166.38.166.634.469.261.303.392.73.13.42.131.93v3.851h-1.27v-3.85q0-.61-.285-.95-.278-.337-.854-.337-.428 0-.795.195-.362.196-.682.534v4.408h-1.276v-6.051h.771q.261 0 .333.243zm9.427 1.542q0-.32-.095-.593a1.3 1.3 0 0 0-.267-.48 1.2 1.2 0 0 0-.445-.32 1.45 1.45 0 0 0-.605-.12q-.694 0-1.091.398-.398.398-.505 1.115zm-3.043.783q.023.517.16.896.136.374.362.623.231.248.546.374.32.119.711.119.375 0 .647-.083.273-.09.475-.19.201-.108.344-.19a.5.5 0 0 1 .261-.09q.155 0 .237.12l.362.468q-.225.267-.51.451a3 3 0 0 1-.605.303 3.4 3.4 0 0 1-.659.16 4 4 0 0 1-.658.053q-.63 0-1.169-.207a2.7 2.7 0 0 1-.931-.623 2.9 2.9 0 0 1-.617-1.015q-.22-.605-.22-1.394 0-.629.196-1.175a2.9 2.9 0 0 1 .569-.949q.374-.403.902-.635a2.9 2.9 0 0 1 1.204-.237q.558 0 1.033.184.474.177.818.528.345.35.534.86.196.504.196 1.151 0 .297-.065.397-.066.102-.237.101zm8.611.28a8 8 0 0 0-1.151.112 3 3 0 0 0-.759.22q-.291.13-.422.314a.7.7 0 0 0-.124.403 1 1 0 0 0 .065.368.74.74 0 0 0 .19.25q.124.094.285.142.165.04.362.041.498 0 .854-.184.361-.189.7-.546zm-3.382-2.564a3.47 3.47 0 0 1 2.445-.955q.522 0 .925.172.41.167.682.475.28.308.421.736.149.42.149.937v3.844h-.57a.6.6 0 0 1-.279-.053q-.094-.06-.16-.232l-.124-.492a6 6 0 0 1-.457.374 3 3 0 0 1-.469.273q-.237.112-.516.166a3 3 0 0 1-.605.06q-.368 0-.688-.102a1.5 1.5 0 0 1-.546-.302 1.5 1.5 0 0 1-.368-.51 1.8 1.8 0 0 1-.13-.712q0-.35.183-.683.19-.332.617-.593.434-.267 1.134-.439.706-.172 1.738-.196v-.403q0-.653-.279-.973t-.819-.32q-.368 0-.617.094-.249.09-.433.196a7 7 0 0 0-.326.202.56.56 0 0 1-.303.089.4.4 0 0 1-.225-.065.6.6 0 0 1-.148-.172zm12.304 2.563a8 8 0 0 0-1.151.113 3 3 0 0 0-.759.22q-.291.13-.422.314a.7.7 0 0 0-.124.403 1 1 0 0 0 .065.368.8.8 0 0 0 .19.25q.125.094.285.142.166.04.362.041.498 0 .854-.184.362-.189.7-.546zm-3.382-2.563a3.47 3.47 0 0 1 2.445-.955q.522 0 .925.172.41.167.682.475.28.308.422.736.147.42.148.937v3.844h-.57a.6.6 0 0 1-.278-.053q-.095-.06-.161-.232l-.124-.492a6 6 0 0 1-.457.374 3 3 0 0 1-.469.273q-.237.112-.516.166-.272.06-.605.06-.368 0-.688-.102a1.5 1.5 0 0 1-.546-.302 1.5 1.5 0 0 1-.368-.51 1.8 1.8 0 0 1-.13-.712q0-.35.184-.683.19-.332.617-.593.432-.267 1.133-.439.706-.172 1.738-.196v-.403q0-.653-.279-.973t-.819-.32q-.367 0-.617.094-.249.09-.433.196a7 7 0 0 0-.326.202.56.56 0 0 1-.302.089.4.4 0 0 1-.226-.065.6.6 0 0 1-.148-.172zm11.218-.842v6.051h-.771q-.255 0-.326-.243l-.095-.564a3.5 3.5 0 0 1-.404.368 2.366 2.366 0 0 1-1.53.534 2.2 2.2 0 0 1-.878-.166 1.8 1.8 0 0 1-.641-.469 2.05 2.05 0 0 1-.386-.724 3.2 3.2 0 0 1-.13-.937v-3.85h1.275v3.85q0 .612.279.95.285.338.86.338.422 0 .783-.19.369-.196.689-.534v-4.414zm-.646-2.587-1.43 1.537a.6.6 0 0 1-.19.148.6.6 0 0 1-.237.042h-.76l.86-1.436a.6.6 0 0 1 .19-.22.6.6 0 0 1 .327-.07zm3.388 3.388q.195-.202.403-.362.213-.166.451-.285a2.4 2.4 0 0 1 1.086-.249q.498 0 .872.166.38.166.634.469.262.303.392.73.13.42.131.93v3.851h-1.27v-3.85q0-.61-.285-.95-.279-.337-.854-.337-.428 0-.795.195-.362.196-.682.534v4.408h-1.276v-6.051h.771q.261 0 .333.243zm8.413 5.25v-6.051h.771q.261 0 .332.243l.083.528q.166-.19.345-.344a2.1 2.1 0 0 1 .818-.457 2 2 0 0 1 .51-.065q.291 0 .534.083t.428.237q.19.155.326.374.137.219.225.492.137-.315.344-.54.208-.225.463-.367t.54-.208q.291-.07.587-.071.487 0 .866.154.387.154.647.451.267.29.404.718.136.427.136.973v3.85h-1.275v-3.85q0-.641-.279-.961-.273-.327-.813-.326-.243 0-.457.083a1.08 1.08 0 0 0-.629.646 1.6 1.6 0 0 0-.089.558v3.85h-1.275v-3.85q0-.664-.267-.973-.267-.314-.783-.314-.356 0-.659.183a2.1 2.1 0 0 0-.558.493v4.461zm13.082-2.646a8 8 0 0 0-1.151.113 3 3 0 0 0-.759.22q-.29.13-.421.314a.7.7 0 0 0-.125.403 1 1 0 0 0 .065.368.8.8 0 0 0 .19.25q.125.094.285.142.166.04.362.041.498 0 .854-.184a2.7 2.7 0 0 0 .7-.546zm-3.381-2.563a3.47 3.47 0 0 1 2.444-.955q.523 0 .925.172a1.8 1.8 0 0 1 .683.475q.279.308.421.736.148.42.148.937v3.844h-.569a.6.6 0 0 1-.279-.053q-.095-.06-.16-.232l-.125-.492a6 6 0 0 1-.457.374 3 3 0 0 1-.468.273q-.239.112-.516.166-.273.06-.606.06-.367 0-.688-.102a1.5 1.5 0 0 1-.546-.302 1.5 1.5 0 0 1-.367-.51 1.8 1.8 0 0 1-.131-.712q0-.35.184-.683.19-.332.617-.593.433-.267 1.133-.439.706-.172 1.738-.196v-.403q0-.653-.278-.973-.279-.32-.819-.32-.368 0-.617.094-.25.09-.433.196a6 6 0 0 0-.327.202.56.56 0 0 1-.302.089.4.4 0 0 1-.226-.065.6.6 0 0 1-.148-.172zm4.206-3.429-1.43 1.537a.6.6 0 0 1-.19.148.6.6 0 0 1-.237.042h-.759l.86-1.436a.6.6 0 0 1 .19-.22.6.6 0 0 1 .326-.07zm5.522 3.684a.3.3 0 0 1-.106.12.3.3 0 0 1-.149.035.5.5 0 0 1-.219-.06 6 6 0 0 0-.279-.142 2 2 0 0 0-.38-.136 1.7 1.7 0 0 0-.504-.066q-.238 0-.433.06a.9.9 0 0 0-.326.16.7.7 0 0 0-.202.243.6.6 0 0 0-.071.297q0 .213.13.356.13.142.344.249.214.1.487.184.273.082.557.178.285.094.558.22.273.123.487.308.213.178.344.439.13.255.13.623 0 .426-.154.789-.154.36-.451.629a2.1 2.1 0 0 1-.741.415 3.2 3.2 0 0 1-1.009.148q-.314 0-.611-.06a3.6 3.6 0 0 1-.558-.148 3.3 3.3 0 0 1-.492-.237 2.7 2.7 0 0 1-.404-.296l.297-.487a.362.362 0 0 1 .332-.19q.124 0 .244.083.125.078.284.172.167.096.398.178.231.077.575.077.285 0 .493-.065.207-.07.344-.19a.75.75 0 0 0 .267-.593.55.55 0 0 0-.131-.38 1.1 1.1 0 0 0-.35-.255 3 3 0 0 0-.492-.19 22 22 0 0 1-.558-.178 6 6 0 0 1-.563-.22 2 2 0 0 1-.493-.314 1.5 1.5 0 0 1-.344-.468 1.6 1.6 0 0 1-.131-.676q0-.363.143-.689.148-.326.427-.575.285-.25.694-.392.415-.148.955-.148.611 0 1.11.196.498.195.836.534zM50.8 101.098q.267.345.581.487.322.136.706.136.748 0 1.163-.545.42-.546.421-1.626 0-.557-.095-.95a1.8 1.8 0 0 0-.273-.646 1.05 1.05 0 0 0-.433-.362 1.4 1.4 0 0 0-.575-.112q-.487 0-.843.213-.35.208-.652.6zm-.065-3.654q.38-.445.86-.718.486-.273 1.127-.273.51 0 .925.208.416.201.712.593.297.391.457.973.166.576.166 1.323 0 .67-.184 1.252-.177.575-.516 1.002a2.5 2.5 0 0 1-.818.665q-.48.237-1.086.237-.534 0-.908-.172a2.4 2.4 0 0 1-.67-.474v2.568h-1.276v-8.062h.772q.26 0 .332.243zm6.691.243q.285-.575.688-.902.405-.332.967-.332.195 0 .368.048a1 1 0 0 1 .309.13l-.09.961q-.023.1-.077.143a.2.2 0 0 1-.13.035q-.09 0-.255-.03a1.7 1.7 0 0 0-.35-.035q-.267 0-.475.077a1.2 1.2 0 0 0-.368.225q-.16.15-.284.362a3.5 3.5 0 0 0-.232.487v3.761h-1.275v-6.051h.741q.202 0 .28.077.075.07.106.255zm5.583-1.216q.67 0 1.21.22.547.219.926.622.386.404.593.98.208.574.208 1.293 0 .717-.208 1.293a2.8 2.8 0 0 1-.593.985 2.6 2.6 0 0 1-.925.623q-.54.219-1.21.219-.677 0-1.223-.219a2.64 2.64 0 0 1-.925-.623 2.8 2.8 0 0 1-.593-.985 3.8 3.8 0 0 1-.208-1.293q0-.718.208-1.294.207-.575.593-.979.385-.403.925-.623.546-.219 1.222-.219m0 5.238q.82 0 1.217-.545.403-.552.403-1.573t-.403-1.572q-.397-.557-1.217-.557-.83 0-1.234.557-.403.552-.403 1.572t.403 1.573q.404.546 1.234.545m4.433.908V97.58l-.593-.083a.55.55 0 0 1-.244-.106.28.28 0 0 1-.089-.22v-.522h.926v-.51q0-.516.148-.926a2 2 0 0 1 .433-.694q.285-.285.689-.433.403-.154.907-.154a2.5 2.5 0 0 1 .76.118l-.024.641q-.012.16-.16.19a2 2 0 0 1-.362.03q-.267 0-.48.065a.85.85 0 0 0-.369.208 1 1 0 0 0-.231.391 2 2 0 0 0-.077.605v.469h1.655v.92h-1.614v5.048zm7.592-3.708q0-.32-.095-.593a1.3 1.3 0 0 0-.267-.48 1.2 1.2 0 0 0-.445-.32 1.45 1.45 0 0 0-.605-.12q-.694 0-1.092.398-.397.398-.504 1.115zm-3.044.783q.025.516.16.896.137.374.362.623.233.25.546.374.32.119.712.119.374 0 .647-.083.273-.09.474-.19.203-.108.344-.19a.5.5 0 0 1 .262-.089q.153 0 .237.118l.362.469q-.225.267-.51.451-.285.185-.606.303a3.4 3.4 0 0 1-.658.16 4 4 0 0 1-.659.053q-.628 0-1.168-.207a2.7 2.7 0 0 1-.932-.623 2.9 2.9 0 0 1-.617-1.015q-.22-.605-.22-1.394 0-.629.197-1.175.201-.546.569-.949.374-.403.902-.635a2.9 2.9 0 0 1 1.204-.237q.558 0 1.032.184.475.177.82.528.342.35.533.86.195.504.196 1.151 0 .297-.065.397-.066.102-.238.101zm8.991-2.029a.3.3 0 0 1-.106.12.3.3 0 0 1-.149.035.5.5 0 0 1-.22-.06 6 6 0 0 0-.278-.142 2 2 0 0 0-.38-.136 1.7 1.7 0 0 0-.504-.066q-.237 0-.433.06a.9.9 0 0 0-.326.16.7.7 0 0 0-.202.243.63.63 0 0 0-.071.297q0 .212.13.356.13.142.344.249.214.1.487.184.273.082.557.178.285.094.558.22.273.123.486.308.215.178.345.439.13.254.13.623 0 .426-.154.789a1.8 1.8 0 0 1-.451.629 2.1 2.1 0 0 1-.742.415 3.1 3.1 0 0 1-1.008.148q-.314 0-.611-.059a3.6 3.6 0 0 1-.558-.149 3.3 3.3 0 0 1-.492-.237 2.7 2.7 0 0 1-.404-.296l.297-.487a.4.4 0 0 1 .13-.136.36.36 0 0 1 .202-.054q.125 0 .243.083.125.078.285.172.165.096.398.178.231.078.575.077.285 0 .493-.065.207-.071.344-.19a.76.76 0 0 0 .267-.593.56.56 0 0 0-.13-.38 1.1 1.1 0 0 0-.351-.255 3 3 0 0 0-.492-.19 20 20 0 0 1-.558-.178 6 6 0 0 1-.564-.22 2 2 0 0 1-.492-.314 1.5 1.5 0 0 1-.344-.468 1.6 1.6 0 0 1-.13-.676q0-.363.142-.689.148-.326.427-.575.285-.25.694-.392.415-.148.955-.148.611 0 1.11.196.497.195.836.534zm2.896-1.097v6.051H82.6v-6.051zm.213-1.827a.8.8 0 0 1-.07.326.9.9 0 0 1-.185.273 1 1 0 0 1-.279.184.8.8 0 0 1-.332.065.8.8 0 0 1-.326-.065 1 1 0 0 1-.261-.184.829.829 0 0 1-.25-.6q0-.177.066-.332a.92.92 0 0 1 .445-.45.784.784 0 0 1 .658 0q.16.064.28.183.118.114.183.267a.8.8 0 0 1 .071.333m4.006 1.732q.67 0 1.21.22.546.219.925.622.386.404.594.98.207.574.207 1.293 0 .717-.207 1.293a2.8 2.8 0 0 1-.594.985 2.6 2.6 0 0 1-.925.623q-.54.219-1.21.219-.677 0-1.222-.219a2.65 2.65 0 0 1-.926-.623 2.8 2.8 0 0 1-.593-.985 3.8 3.8 0 0 1-.208-1.293q0-.718.208-1.294.207-.575.593-.979.386-.403.926-.623.544-.219 1.222-.219m0 5.238q.817 0 1.216-.545.403-.552.403-1.573t-.403-1.572q-.397-.557-1.216-.557-.83 0-1.234.557-.404.552-.404 1.572t.404 1.573q.403.546 1.234.545m5.354-4.342q.195-.202.404-.362.213-.166.45-.285a2.4 2.4 0 0 1 1.086-.249q.498 0 .872.166.38.166.635.469.261.303.392.73.13.42.13.93v3.851h-1.27v-3.85q0-.61-.284-.95-.279-.337-.854-.337-.427 0-.795.195a2.7 2.7 0 0 0-.683.534v4.408h-1.275v-6.051h.771q.261 0 .332.243zm8.692 2.604a8 8 0 0 0-1.151.113 3 3 0 0 0-.759.219q-.29.13-.421.315a.7.7 0 0 0-.125.403.9.9 0 0 0 .065.368q.072.148.19.249a.9.9 0 0 0 .285.143q.166.04.362.041.498 0 .854-.184.362-.189.7-.546zm-3.381-2.563a3.47 3.47 0 0 1 2.444-.955q.522 0 .925.172a1.8 1.8 0 0 1 .683.475q.278.308.421.736.148.42.148.937v3.844h-.569a.6.6 0 0 1-.279-.053q-.096-.06-.16-.232l-.125-.492a6 6 0 0 1-.457.374q-.225.16-.469.273a2.2 2.2 0 0 1-.516.166 3 3 0 0 1-.605.059q-.367 0-.688-.101a1.5 1.5 0 0 1-.546-.302 1.5 1.5 0 0 1-.368-.511 1.8 1.8 0 0 1-.13-.711q0-.35.184-.683.19-.332.617-.593.432-.267 1.133-.439.706-.172 1.738-.196v-.403q0-.653-.279-.973t-.818-.32q-.368 0-.617.094-.25.09-.433.196a6 6 0 0 0-.327.202.56.56 0 0 1-.302.089.4.4 0 0 1-.226-.065.6.6 0 0 1-.148-.172zm7.415-3.571v8.78H104.9v-8.78z"/></svg>